%TF.GenerationSoftware,KiCad,Pcbnew,7.0.5*%
%TF.CreationDate,2023-07-27T19:06:13-04:00*%
%TF.ProjectId,Board_To_Be_Tested,426f6172-645f-4546-9f5f-42655f546573,rev?*%
%TF.SameCoordinates,Original*%
%TF.FileFunction,Copper,L1,Top*%
%TF.FilePolarity,Positive*%
%FSLAX46Y46*%
G04 Gerber Fmt 4.6, Leading zero omitted, Abs format (unit mm)*
G04 Created by KiCad (PCBNEW 7.0.5) date 2023-07-27 19:06:13*
%MOMM*%
%LPD*%
G01*
G04 APERTURE LIST*
G04 Aperture macros list*
%AMRoundRect*
0 Rectangle with rounded corners*
0 $1 Rounding radius*
0 $2 $3 $4 $5 $6 $7 $8 $9 X,Y pos of 4 corners*
0 Add a 4 corners polygon primitive as box body*
4,1,4,$2,$3,$4,$5,$6,$7,$8,$9,$2,$3,0*
0 Add four circle primitives for the rounded corners*
1,1,$1+$1,$2,$3*
1,1,$1+$1,$4,$5*
1,1,$1+$1,$6,$7*
1,1,$1+$1,$8,$9*
0 Add four rect primitives between the rounded corners*
20,1,$1+$1,$2,$3,$4,$5,0*
20,1,$1+$1,$4,$5,$6,$7,0*
20,1,$1+$1,$6,$7,$8,$9,0*
20,1,$1+$1,$8,$9,$2,$3,0*%
G04 Aperture macros list end*
%TA.AperFunction,SMDPad,CuDef*%
%ADD10RoundRect,1.000000X0.000000X0.375000X0.000000X-0.375000X0.000000X-0.375000X0.000000X0.375000X0*%
%TD*%
%TA.AperFunction,SMDPad,CuDef*%
%ADD11R,2.300000X1.000000*%
%TD*%
%TA.AperFunction,SMDPad,CuDef*%
%ADD12R,1.800000X0.800000*%
%TD*%
%TA.AperFunction,SMDPad,CuDef*%
%ADD13RoundRect,0.250000X0.625000X-0.400000X0.625000X0.400000X-0.625000X0.400000X-0.625000X-0.400000X0*%
%TD*%
%TA.AperFunction,SMDPad,CuDef*%
%ADD14RoundRect,0.250000X-0.400000X-0.625000X0.400000X-0.625000X0.400000X0.625000X-0.400000X0.625000X0*%
%TD*%
%TA.AperFunction,SMDPad,CuDef*%
%ADD15C,1.000000*%
%TD*%
%TA.AperFunction,SMDPad,CuDef*%
%ADD16RoundRect,0.250001X-0.462499X-0.624999X0.462499X-0.624999X0.462499X0.624999X-0.462499X0.624999X0*%
%TD*%
%TA.AperFunction,SMDPad,CuDef*%
%ADD17RoundRect,0.250000X0.650000X-0.412500X0.650000X0.412500X-0.650000X0.412500X-0.650000X-0.412500X0*%
%TD*%
%TA.AperFunction,Conductor*%
%ADD18C,0.508000*%
%TD*%
%TA.AperFunction,Conductor*%
%ADD19C,0.762000*%
%TD*%
%TA.AperFunction,Conductor*%
%ADD20C,1.016000*%
%TD*%
G04 APERTURE END LIST*
D10*
%TO.P,U2,14,5V*%
%TO.N,VBUS*%
X172000750Y-99384000D03*
%TO.P,U2,13,GND*%
%TO.N,GND*%
X169460750Y-99384000D03*
%TO.P,U2,12,3V3*%
%TO.N,+3V3*%
X166920750Y-99384000D03*
%TO.P,U2,11,PA6_A10_D10_MOSI*%
%TO.N,/SHT_CLK*%
X164380750Y-99384000D03*
%TO.P,U2,10,PA5_A9_D9_MISO*%
%TO.N,unconnected-(U2-PA5_A9_D9_MISO-Pad10)*%
X161840750Y-99384000D03*
%TO.P,U2,9,PA7_A8_D8_SCK*%
%TO.N,/A0*%
X159300750Y-99384000D03*
%TO.P,U2,8,PB09_A7_D7_RX*%
%TO.N,/SHT_DATA*%
X156760750Y-99384000D03*
%TO.P,U2,1,PA02_A0_D0*%
%TO.N,/LED1*%
X172000750Y-81384000D03*
%TO.P,U2,2,PA4_A1_D1*%
%TO.N,/LED2*%
X169460750Y-81384000D03*
%TO.P,U2,3,PA10_A2_D2*%
%TO.N,/LED3*%
X166920750Y-81384000D03*
%TO.P,U2,4,PA11_A3_D3*%
%TO.N,/LED4*%
X164380750Y-81384000D03*
%TO.P,U2,5,PA8_A4_D4_SDA*%
%TO.N,/SDA*%
X161840750Y-81384000D03*
%TO.P,U2,6,PA9_A5_D5_SCL*%
%TO.N,/SCL*%
X159300750Y-81384000D03*
%TO.P,U2,7,PB08_A6_D6_TX*%
%TO.N,/DIN*%
X156760750Y-81384000D03*
%TD*%
D11*
%TO.P,D1,4,DOUT*%
%TO.N,unconnected-(D1-DOUT-Pad4)*%
X134000000Y-85400000D03*
%TO.P,D1,3,VDD*%
%TO.N,VBUS*%
X134000000Y-82200000D03*
%TO.P,D1,2,DIN*%
%TO.N,/DIN*%
X139700000Y-82200000D03*
%TO.P,D1,1,VSS*%
%TO.N,GND*%
X139700000Y-85400000D03*
%TD*%
D12*
%TO.P,U1,5*%
%TO.N,N/C*%
X129810000Y-95095000D03*
%TO.P,U1,8*%
X129810000Y-98905000D03*
%TO.P,U1,6*%
X129810000Y-96365000D03*
%TO.P,U1,7*%
X129810000Y-97635000D03*
%TO.P,U1,4,VDD*%
%TO.N,+3V3*%
X135090000Y-95095000D03*
%TO.P,U1,1,GND*%
%TO.N,GND*%
X135090000Y-98905000D03*
%TO.P,U1,3,SCK*%
%TO.N,/SHT_CLK*%
X135090000Y-96365000D03*
%TO.P,U1,2,DATA*%
%TO.N,/SHT_DATA*%
X135090000Y-97635000D03*
%TD*%
D13*
%TO.P,R7,1*%
%TO.N,+3V3*%
X139050000Y-100750000D03*
%TO.P,R7,2*%
%TO.N,/SHT_DATA*%
X139050000Y-97650000D03*
%TD*%
D14*
%TO.P,R6,1*%
%TO.N,Net-(D5-A)*%
X145900000Y-78000000D03*
%TO.P,R6,2*%
%TO.N,/LED4*%
X149000000Y-78000000D03*
%TD*%
%TO.P,R5,1*%
%TO.N,GND*%
X152550000Y-103300000D03*
%TO.P,R5,2*%
%TO.N,/A0*%
X155650000Y-103300000D03*
%TD*%
%TO.P,R4,1*%
%TO.N,/A0*%
X157900000Y-103300000D03*
%TO.P,R4,2*%
%TO.N,+3V3*%
X161000000Y-103300000D03*
%TD*%
%TO.P,R3,1*%
%TO.N,Net-(D4-A)*%
X145900000Y-75000000D03*
%TO.P,R3,2*%
%TO.N,/LED3*%
X149000000Y-75000000D03*
%TD*%
%TO.P,R2,1*%
%TO.N,Net-(D3-A)*%
X145900000Y-72000000D03*
%TO.P,R2,2*%
%TO.N,/LED2*%
X149000000Y-72000000D03*
%TD*%
%TO.P,R1,1*%
%TO.N,Net-(D2-A)*%
X145900000Y-69000000D03*
%TO.P,R1,2*%
%TO.N,/LED1*%
X149000000Y-69000000D03*
%TD*%
D15*
%TO.P,FID4,*%
%TO.N,*%
X172000000Y-105000000D03*
%TD*%
%TO.P,FID3,*%
%TO.N,*%
X128000000Y-105000000D03*
%TD*%
%TO.P,FID2,*%
%TO.N,*%
X172000000Y-67000000D03*
%TD*%
%TO.P,FID1,*%
%TO.N,*%
X128000000Y-67000000D03*
%TD*%
D16*
%TO.P,D5,1,K*%
%TO.N,GND*%
X139962500Y-78000000D03*
%TO.P,D5,2,A*%
%TO.N,Net-(D5-A)*%
X142937500Y-78000000D03*
%TD*%
%TO.P,D4,1,K*%
%TO.N,GND*%
X139962500Y-75000000D03*
%TO.P,D4,2,A*%
%TO.N,Net-(D4-A)*%
X142937500Y-75000000D03*
%TD*%
%TO.P,D3,1,K*%
%TO.N,GND*%
X139962500Y-72000000D03*
%TO.P,D3,2,A*%
%TO.N,Net-(D3-A)*%
X142937500Y-72000000D03*
%TD*%
%TO.P,D2,1,K*%
%TO.N,GND*%
X139962500Y-69000000D03*
%TO.P,D2,2,A*%
%TO.N,Net-(D2-A)*%
X142937500Y-69000000D03*
%TD*%
D17*
%TO.P,C2,1*%
%TO.N,VBUS*%
X130050000Y-82212500D03*
%TO.P,C2,2*%
%TO.N,GND*%
X130050000Y-79087500D03*
%TD*%
%TO.P,C1,1*%
%TO.N,+3V3*%
X139050000Y-95062500D03*
%TO.P,C1,2*%
%TO.N,GND*%
X139050000Y-91937500D03*
%TD*%
D18*
%TO.N,+3V3*%
X150900000Y-105550000D02*
X148950000Y-103600000D01*
X158750000Y-105550000D02*
X150900000Y-105550000D01*
X148950000Y-102150000D02*
X148950000Y-103600000D01*
X161000000Y-103300000D02*
X158750000Y-105550000D01*
D19*
%TO.N,/DIN*%
X146916000Y-81384000D02*
X146100000Y-82200000D01*
X156760750Y-81384000D02*
X146916000Y-81384000D01*
X139700000Y-82200000D02*
X146100000Y-82200000D01*
%TO.N,GND*%
X135090000Y-98905000D02*
X136905000Y-98905000D01*
D20*
%TO.N,/LED4*%
X163400000Y-78000000D02*
X164380750Y-78980750D01*
X164380750Y-78980750D02*
X164380750Y-81384000D01*
X149000000Y-78000000D02*
X163400000Y-78000000D01*
D18*
%TO.N,+3V3*%
X166920750Y-98370750D02*
X166920750Y-99384000D01*
X163612500Y-95062500D02*
X166920750Y-98370750D01*
X139050000Y-95062500D02*
X163612500Y-95062500D01*
X139017500Y-95095000D02*
X139050000Y-95062500D01*
X135090000Y-95095000D02*
X139017500Y-95095000D01*
%TO.N,/SHT_CLK*%
X164380750Y-97780750D02*
X164380750Y-99384000D01*
X162965000Y-96365000D02*
X164380750Y-97780750D01*
X135090000Y-96365000D02*
X162965000Y-96365000D01*
%TO.N,+3V3*%
X139050000Y-100750000D02*
X147550000Y-100750000D01*
X147550000Y-100750000D02*
X148950000Y-102150000D01*
D19*
X166920750Y-102029250D02*
X166920750Y-99384000D01*
X165650000Y-103300000D02*
X166920750Y-102029250D01*
X161000000Y-103300000D02*
X165650000Y-103300000D01*
D18*
%TO.N,/A0*%
X159300750Y-101899250D02*
X159300750Y-99384000D01*
X157900000Y-103300000D02*
X159300750Y-101899250D01*
X155650000Y-103300000D02*
X157900000Y-103300000D01*
%TO.N,/SHT_DATA*%
X150134000Y-99384000D02*
X156760750Y-99384000D01*
X148400000Y-97650000D02*
X150134000Y-99384000D01*
X139050000Y-97650000D02*
X148400000Y-97650000D01*
D19*
%TO.N,+3V3*%
X161037500Y-103337500D02*
X161000000Y-103300000D01*
%TO.N,VBUS*%
X130050000Y-86400000D02*
X130050000Y-82212500D01*
X132200000Y-88550000D02*
X130050000Y-86400000D01*
X144400000Y-88550000D02*
X132200000Y-88550000D01*
X147350000Y-85600000D02*
X144400000Y-88550000D01*
X158450000Y-85600000D02*
X147350000Y-85600000D01*
X159900000Y-87050000D02*
X158450000Y-85600000D01*
X159900000Y-89300000D02*
X159900000Y-87050000D01*
X167400000Y-96800000D02*
X159900000Y-89300000D01*
X170800000Y-96800000D02*
X167400000Y-96800000D01*
X172000750Y-98000750D02*
X170800000Y-96800000D01*
X172000750Y-99384000D02*
X172000750Y-98000750D01*
D20*
%TO.N,GND*%
X169460750Y-99384000D02*
X169460750Y-102339250D01*
%TO.N,/LED3*%
X166920750Y-81384000D02*
X166920750Y-77220750D01*
%TO.N,/LED2*%
X169460750Y-81384000D02*
X169460750Y-74710750D01*
%TO.N,/LED1*%
X172000750Y-81384000D02*
X172000750Y-73250750D01*
D18*
%TO.N,/SHT_DATA*%
X135090000Y-97635000D02*
X139035000Y-97635000D01*
X139035000Y-97635000D02*
X139050000Y-97650000D01*
D19*
%TO.N,VBUS*%
X133987500Y-82212500D02*
X134000000Y-82200000D01*
X130050000Y-82212500D02*
X133987500Y-82212500D01*
D20*
%TO.N,Net-(D5-A)*%
X145900000Y-78000000D02*
X142937500Y-78000000D01*
%TO.N,Net-(D4-A)*%
X142937500Y-75000000D02*
X145900000Y-75000000D01*
%TO.N,Net-(D3-A)*%
X142937500Y-72000000D02*
X145900000Y-72000000D01*
%TO.N,Net-(D2-A)*%
X145900000Y-69000000D02*
X142937500Y-69000000D01*
%TO.N,/LED3*%
X164700000Y-75000000D02*
X166920750Y-77220750D01*
X149000000Y-75000000D02*
X164700000Y-75000000D01*
%TO.N,/LED2*%
X166750000Y-72000000D02*
X169460750Y-74710750D01*
X149000000Y-72000000D02*
X166750000Y-72000000D01*
%TO.N,/LED1*%
X167750000Y-69000000D02*
X149000000Y-69000000D01*
X172000750Y-73250750D02*
X167750000Y-69000000D01*
%TD*%
%TA.AperFunction,Conductor*%
%TO.N,GND*%
G36*
X174638221Y-64273266D02*
G01*
X174704157Y-64325849D01*
X174740749Y-64401832D01*
X174745500Y-64444000D01*
X174745500Y-80810500D01*
X174726734Y-80892721D01*
X174674151Y-80958657D01*
X174598168Y-80995249D01*
X174556000Y-81000000D01*
X173562471Y-81000000D01*
X173480250Y-80981234D01*
X173414314Y-80928651D01*
X173377722Y-80852668D01*
X173376419Y-80846483D01*
X173334791Y-80631243D01*
X173334790Y-80631242D01*
X173334789Y-80631233D01*
X173251757Y-80411213D01*
X173155114Y-80246525D01*
X173132736Y-80208390D01*
X172981150Y-80028600D01*
X172981144Y-80028594D01*
X172957600Y-80008744D01*
X172906836Y-79941398D01*
X172890250Y-79863866D01*
X172890250Y-73335669D01*
X172892583Y-73306026D01*
X172893924Y-73297560D01*
X172890379Y-73229935D01*
X172890250Y-73224980D01*
X172890250Y-73204136D01*
X172890250Y-73204130D01*
X172888067Y-73183374D01*
X172887682Y-73178486D01*
X172884138Y-73110835D01*
X172881919Y-73102555D01*
X172876501Y-73073317D01*
X172875605Y-73064796D01*
X172875605Y-73064794D01*
X172854670Y-73000364D01*
X172853267Y-72995624D01*
X172849761Y-72982538D01*
X172835744Y-72930225D01*
X172831849Y-72922582D01*
X172820474Y-72895119D01*
X172817825Y-72886965D01*
X172783946Y-72828285D01*
X172781602Y-72823968D01*
X172762699Y-72786869D01*
X172750855Y-72763622D01*
X172745463Y-72756964D01*
X172728617Y-72732452D01*
X172724335Y-72725035D01*
X172691680Y-72688768D01*
X172679017Y-72674705D01*
X172675807Y-72670945D01*
X172662693Y-72654750D01*
X172647943Y-72640000D01*
X172644528Y-72636401D01*
X172599219Y-72586080D01*
X172592282Y-72581040D01*
X172569672Y-72561729D01*
X168439017Y-68431074D01*
X168419708Y-68408466D01*
X168414669Y-68401530D01*
X168364341Y-68356215D01*
X168360750Y-68352807D01*
X168360750Y-68352806D01*
X168346006Y-68338063D01*
X168329804Y-68324942D01*
X168326035Y-68321723D01*
X168314433Y-68311277D01*
X168275715Y-68276415D01*
X168275713Y-68276413D01*
X168275711Y-68276412D01*
X168275710Y-68276411D01*
X168268286Y-68272125D01*
X168243782Y-68255283D01*
X168237131Y-68249897D01*
X168237121Y-68249890D01*
X168176790Y-68219150D01*
X168172431Y-68216784D01*
X168144852Y-68200862D01*
X168113785Y-68182925D01*
X168113783Y-68182924D01*
X168113781Y-68182923D01*
X168105622Y-68180272D01*
X168078161Y-68168897D01*
X168070525Y-68165006D01*
X168005092Y-68147472D01*
X168000349Y-68146067D01*
X167978396Y-68138934D01*
X167935961Y-68125146D01*
X167935958Y-68125145D01*
X167935956Y-68125145D01*
X167927425Y-68124248D01*
X167898197Y-68118830D01*
X167889913Y-68116610D01*
X167889914Y-68116610D01*
X167851523Y-68114599D01*
X167822265Y-68113065D01*
X167817345Y-68112678D01*
X167796624Y-68110500D01*
X167796620Y-68110500D01*
X167775775Y-68110500D01*
X167770822Y-68110370D01*
X167740537Y-68108783D01*
X167703194Y-68106826D01*
X167703187Y-68106826D01*
X167696578Y-68107873D01*
X167694722Y-68108167D01*
X167665078Y-68110500D01*
X150085333Y-68110500D01*
X150003112Y-68091734D01*
X149937176Y-68039151D01*
X149922227Y-68017471D01*
X149902949Y-67984873D01*
X149790127Y-67872051D01*
X149729015Y-67835910D01*
X149652794Y-67790833D01*
X149652793Y-67790832D01*
X149652792Y-67790832D01*
X149499574Y-67746318D01*
X149463770Y-67743500D01*
X148536230Y-67743500D01*
X148529865Y-67744001D01*
X148500426Y-67746318D01*
X148347205Y-67790833D01*
X148209875Y-67872049D01*
X148097049Y-67984875D01*
X148015833Y-68122205D01*
X148015832Y-68122207D01*
X148015832Y-68122208D01*
X147971318Y-68275426D01*
X147968500Y-68311230D01*
X147968500Y-69688770D01*
X147971312Y-69724497D01*
X147971318Y-69724573D01*
X148015833Y-69877794D01*
X148097048Y-70015123D01*
X148097051Y-70015127D01*
X148209873Y-70127949D01*
X148347208Y-70209168D01*
X148500426Y-70253682D01*
X148536230Y-70256500D01*
X148536231Y-70256500D01*
X149463769Y-70256500D01*
X149463770Y-70256500D01*
X149499574Y-70253682D01*
X149652792Y-70209168D01*
X149790127Y-70127949D01*
X149902949Y-70015127D01*
X149922223Y-69982535D01*
X149980228Y-69921320D01*
X150059051Y-69891331D01*
X150085333Y-69889500D01*
X167303063Y-69889500D01*
X167385284Y-69908266D01*
X167437060Y-69945003D01*
X171055747Y-73563689D01*
X171100616Y-73635098D01*
X171111250Y-73697686D01*
X171111250Y-79863866D01*
X171092484Y-79946087D01*
X171043900Y-80008744D01*
X171020355Y-80028594D01*
X171020355Y-80028595D01*
X171020352Y-80028597D01*
X171020350Y-80028600D01*
X170936387Y-80128186D01*
X170875628Y-80200250D01*
X170808281Y-80251013D01*
X170725579Y-80267528D01*
X170643900Y-80246525D01*
X170585872Y-80200250D01*
X170585871Y-80200249D01*
X170441150Y-80028600D01*
X170441144Y-80028594D01*
X170417600Y-80008744D01*
X170366836Y-79941398D01*
X170350250Y-79863866D01*
X170350250Y-74795668D01*
X170352583Y-74766025D01*
X170353924Y-74757559D01*
X170350379Y-74689934D01*
X170350250Y-74684979D01*
X170350250Y-74664136D01*
X170350250Y-74664130D01*
X170348068Y-74643378D01*
X170347682Y-74638484D01*
X170344138Y-74570834D01*
X170341922Y-74562564D01*
X170336501Y-74533313D01*
X170335606Y-74524797D01*
X170335605Y-74524795D01*
X170335605Y-74524794D01*
X170314672Y-74460369D01*
X170313282Y-74455679D01*
X170295744Y-74390225D01*
X170291849Y-74382582D01*
X170280474Y-74355119D01*
X170277825Y-74346965D01*
X170272685Y-74338063D01*
X170264212Y-74323386D01*
X170243946Y-74288285D01*
X170241602Y-74283968D01*
X170222699Y-74246869D01*
X170210855Y-74223622D01*
X170205463Y-74216964D01*
X170188617Y-74192452D01*
X170184335Y-74185035D01*
X170150513Y-74147472D01*
X170139017Y-74134705D01*
X170135807Y-74130945D01*
X170122693Y-74114750D01*
X170107943Y-74100000D01*
X170104528Y-74096401D01*
X170059219Y-74046080D01*
X170052282Y-74041040D01*
X170029672Y-74021729D01*
X167439017Y-71431074D01*
X167419708Y-71408466D01*
X167414669Y-71401530D01*
X167364341Y-71356215D01*
X167360750Y-71352807D01*
X167360750Y-71352806D01*
X167346006Y-71338063D01*
X167329804Y-71324942D01*
X167326035Y-71321723D01*
X167314433Y-71311277D01*
X167275715Y-71276415D01*
X167275713Y-71276413D01*
X167275711Y-71276412D01*
X167275710Y-71276411D01*
X167268286Y-71272125D01*
X167243782Y-71255283D01*
X167237131Y-71249897D01*
X167237121Y-71249890D01*
X167176790Y-71219150D01*
X167172431Y-71216784D01*
X167144852Y-71200862D01*
X167113785Y-71182925D01*
X167113783Y-71182924D01*
X167113781Y-71182923D01*
X167105622Y-71180272D01*
X167078161Y-71168897D01*
X167070525Y-71165006D01*
X167005092Y-71147472D01*
X167000349Y-71146067D01*
X166978396Y-71138934D01*
X166935961Y-71125146D01*
X166935958Y-71125145D01*
X166935956Y-71125145D01*
X166927425Y-71124248D01*
X166898197Y-71118830D01*
X166889913Y-71116610D01*
X166889914Y-71116610D01*
X166851523Y-71114599D01*
X166822265Y-71113065D01*
X166817345Y-71112678D01*
X166796624Y-71110500D01*
X166796620Y-71110500D01*
X166775775Y-71110500D01*
X166770822Y-71110370D01*
X166740537Y-71108783D01*
X166703194Y-71106826D01*
X166703187Y-71106826D01*
X166696578Y-71107873D01*
X166694722Y-71108167D01*
X166665078Y-71110500D01*
X150085333Y-71110500D01*
X150003112Y-71091734D01*
X149937176Y-71039151D01*
X149922227Y-71017471D01*
X149902949Y-70984873D01*
X149790127Y-70872051D01*
X149652792Y-70790832D01*
X149499574Y-70746318D01*
X149463770Y-70743500D01*
X148536230Y-70743500D01*
X148529865Y-70744001D01*
X148500426Y-70746318D01*
X148347205Y-70790833D01*
X148209875Y-70872049D01*
X148097049Y-70984875D01*
X148015833Y-71122205D01*
X148015832Y-71122207D01*
X148015832Y-71122208D01*
X147971318Y-71275426D01*
X147968500Y-71311230D01*
X147968500Y-72688770D01*
X147971318Y-72724574D01*
X148000832Y-72826163D01*
X148015833Y-72877794D01*
X148097048Y-73015123D01*
X148097051Y-73015127D01*
X148209873Y-73127949D01*
X148347208Y-73209168D01*
X148500426Y-73253682D01*
X148536230Y-73256500D01*
X148536231Y-73256500D01*
X149463769Y-73256500D01*
X149463770Y-73256500D01*
X149499574Y-73253682D01*
X149652792Y-73209168D01*
X149790127Y-73127949D01*
X149902949Y-73015127D01*
X149922223Y-72982535D01*
X149980228Y-72921320D01*
X150059051Y-72891331D01*
X150085333Y-72889500D01*
X166303063Y-72889500D01*
X166385284Y-72908266D01*
X166437060Y-72945002D01*
X168515748Y-75023691D01*
X168560616Y-75095098D01*
X168571250Y-75157686D01*
X168571250Y-79863866D01*
X168552484Y-79946087D01*
X168503900Y-80008744D01*
X168480355Y-80028594D01*
X168480355Y-80028595D01*
X168480352Y-80028597D01*
X168480350Y-80028600D01*
X168396387Y-80128186D01*
X168335628Y-80200250D01*
X168268281Y-80251013D01*
X168185579Y-80267528D01*
X168103900Y-80246525D01*
X168045872Y-80200250D01*
X168045871Y-80200249D01*
X167901150Y-80028600D01*
X167901144Y-80028594D01*
X167877600Y-80008744D01*
X167826836Y-79941398D01*
X167810250Y-79863866D01*
X167810250Y-77305669D01*
X167812583Y-77276026D01*
X167812666Y-77275502D01*
X167813924Y-77267560D01*
X167812998Y-77249897D01*
X167810380Y-77199933D01*
X167810250Y-77194974D01*
X167810250Y-77174135D01*
X167810249Y-77174125D01*
X167808068Y-77153382D01*
X167807685Y-77148522D01*
X167804139Y-77080835D01*
X167801917Y-77072545D01*
X167796500Y-77043310D01*
X167795605Y-77034794D01*
X167774669Y-76970361D01*
X167773269Y-76965632D01*
X167755744Y-76900226D01*
X167751851Y-76892587D01*
X167740472Y-76865113D01*
X167737824Y-76856963D01*
X167737824Y-76856962D01*
X167703972Y-76798331D01*
X167701603Y-76793969D01*
X167670858Y-76733627D01*
X167670857Y-76733625D01*
X167665461Y-76726962D01*
X167648617Y-76702453D01*
X167644335Y-76695035D01*
X167599027Y-76644715D01*
X167595805Y-76640943D01*
X167582695Y-76624754D01*
X167582687Y-76624744D01*
X167567941Y-76609998D01*
X167564528Y-76606401D01*
X167519219Y-76556080D01*
X167512282Y-76551040D01*
X167489672Y-76531729D01*
X165389017Y-74431074D01*
X165369708Y-74408466D01*
X165364669Y-74401530D01*
X165314341Y-74356215D01*
X165310750Y-74352807D01*
X165304904Y-74346961D01*
X165296006Y-74338063D01*
X165279804Y-74324942D01*
X165276035Y-74321723D01*
X165264433Y-74311277D01*
X165225715Y-74276415D01*
X165225713Y-74276413D01*
X165225711Y-74276412D01*
X165225710Y-74276411D01*
X165218286Y-74272125D01*
X165193782Y-74255283D01*
X165187131Y-74249897D01*
X165187121Y-74249890D01*
X165126790Y-74219150D01*
X165122431Y-74216784D01*
X165080286Y-74192452D01*
X165063785Y-74182925D01*
X165063783Y-74182924D01*
X165063781Y-74182923D01*
X165055622Y-74180272D01*
X165028161Y-74168897D01*
X165020525Y-74165006D01*
X164955092Y-74147472D01*
X164950349Y-74146067D01*
X164928396Y-74138934D01*
X164885961Y-74125146D01*
X164885958Y-74125145D01*
X164885956Y-74125145D01*
X164877425Y-74124248D01*
X164848197Y-74118830D01*
X164839913Y-74116610D01*
X164839914Y-74116610D01*
X164801523Y-74114599D01*
X164772265Y-74113065D01*
X164767345Y-74112678D01*
X164746624Y-74110500D01*
X164746620Y-74110500D01*
X164725775Y-74110500D01*
X164720822Y-74110370D01*
X164690537Y-74108783D01*
X164653194Y-74106826D01*
X164653187Y-74106826D01*
X164646578Y-74107873D01*
X164644722Y-74108167D01*
X164615078Y-74110500D01*
X150085333Y-74110500D01*
X150003112Y-74091734D01*
X149937176Y-74039151D01*
X149922227Y-74017471D01*
X149902949Y-73984873D01*
X149790127Y-73872051D01*
X149652792Y-73790832D01*
X149499574Y-73746318D01*
X149463770Y-73743500D01*
X148536230Y-73743500D01*
X148529865Y-73744001D01*
X148500426Y-73746318D01*
X148347205Y-73790833D01*
X148209875Y-73872049D01*
X148097049Y-73984875D01*
X148015833Y-74122205D01*
X148015832Y-74122207D01*
X148015832Y-74122208D01*
X147971318Y-74275426D01*
X147968500Y-74311230D01*
X147968500Y-75688770D01*
X147971312Y-75724497D01*
X147971318Y-75724573D01*
X148015833Y-75877794D01*
X148097048Y-76015123D01*
X148097051Y-76015127D01*
X148209873Y-76127949D01*
X148347208Y-76209168D01*
X148500426Y-76253682D01*
X148536230Y-76256500D01*
X148536231Y-76256500D01*
X149463769Y-76256500D01*
X149463770Y-76256500D01*
X149499574Y-76253682D01*
X149652792Y-76209168D01*
X149790127Y-76127949D01*
X149902949Y-76015127D01*
X149922223Y-75982535D01*
X149980228Y-75921320D01*
X150059051Y-75891331D01*
X150085333Y-75889500D01*
X164253063Y-75889500D01*
X164335284Y-75908266D01*
X164387060Y-75945003D01*
X165975747Y-77533690D01*
X166020616Y-77605099D01*
X166031250Y-77667687D01*
X166031250Y-79863866D01*
X166012484Y-79946087D01*
X165963900Y-80008744D01*
X165940355Y-80028594D01*
X165940355Y-80028595D01*
X165940352Y-80028597D01*
X165940350Y-80028600D01*
X165856387Y-80128186D01*
X165795628Y-80200250D01*
X165728281Y-80251013D01*
X165645579Y-80267528D01*
X165563900Y-80246525D01*
X165505872Y-80200249D01*
X165361155Y-80028605D01*
X165361149Y-80028599D01*
X165337599Y-80008744D01*
X165286835Y-79941398D01*
X165270249Y-79863866D01*
X165270249Y-79563723D01*
X165270249Y-79065656D01*
X165272581Y-79036036D01*
X165273924Y-79027560D01*
X165270379Y-78959926D01*
X165270250Y-78954974D01*
X165270250Y-78934135D01*
X165270249Y-78934125D01*
X165268068Y-78913382D01*
X165267685Y-78908522D01*
X165264139Y-78840835D01*
X165261917Y-78832545D01*
X165256500Y-78803310D01*
X165255605Y-78794794D01*
X165234669Y-78730361D01*
X165233269Y-78725632D01*
X165232986Y-78724574D01*
X165215744Y-78660226D01*
X165211851Y-78652587D01*
X165200472Y-78625113D01*
X165197824Y-78616963D01*
X165197824Y-78616962D01*
X165163972Y-78558331D01*
X165161603Y-78553969D01*
X165130858Y-78493627D01*
X165130857Y-78493625D01*
X165125461Y-78486962D01*
X165108617Y-78462453D01*
X165104335Y-78455035D01*
X165059027Y-78404715D01*
X165055805Y-78400943D01*
X165042695Y-78384754D01*
X165042687Y-78384744D01*
X165027941Y-78369998D01*
X165024528Y-78366401D01*
X164979219Y-78316080D01*
X164972282Y-78311040D01*
X164949672Y-78291729D01*
X164089017Y-77431074D01*
X164069708Y-77408466D01*
X164064669Y-77401530D01*
X164014341Y-77356215D01*
X164010750Y-77352807D01*
X164010750Y-77352806D01*
X163996006Y-77338063D01*
X163979804Y-77324942D01*
X163976035Y-77321723D01*
X163964433Y-77311277D01*
X163925715Y-77276415D01*
X163925713Y-77276413D01*
X163925711Y-77276412D01*
X163925710Y-77276411D01*
X163918286Y-77272125D01*
X163893782Y-77255283D01*
X163887131Y-77249897D01*
X163887121Y-77249890D01*
X163826790Y-77219150D01*
X163822431Y-77216784D01*
X163784654Y-77194974D01*
X163763785Y-77182925D01*
X163763783Y-77182924D01*
X163763781Y-77182923D01*
X163755622Y-77180272D01*
X163728161Y-77168897D01*
X163720525Y-77165006D01*
X163655092Y-77147472D01*
X163650349Y-77146067D01*
X163628396Y-77138934D01*
X163585961Y-77125146D01*
X163585958Y-77125145D01*
X163585956Y-77125145D01*
X163577425Y-77124248D01*
X163548197Y-77118830D01*
X163539913Y-77116610D01*
X163539914Y-77116610D01*
X163501523Y-77114599D01*
X163472265Y-77113065D01*
X163467345Y-77112678D01*
X163446624Y-77110500D01*
X163446620Y-77110500D01*
X163425775Y-77110500D01*
X163420822Y-77110370D01*
X163390537Y-77108783D01*
X163353194Y-77106826D01*
X163353187Y-77106826D01*
X163346578Y-77107873D01*
X163344722Y-77108167D01*
X163315078Y-77110500D01*
X150085333Y-77110500D01*
X150003112Y-77091734D01*
X149937176Y-77039151D01*
X149922227Y-77017471D01*
X149902949Y-76984873D01*
X149790127Y-76872051D01*
X149778395Y-76865113D01*
X149652794Y-76790833D01*
X149652793Y-76790832D01*
X149652792Y-76790832D01*
X149499574Y-76746318D01*
X149463770Y-76743500D01*
X148536230Y-76743500D01*
X148500451Y-76746316D01*
X148500426Y-76746318D01*
X148347205Y-76790833D01*
X148209875Y-76872049D01*
X148097049Y-76984875D01*
X148015833Y-77122205D01*
X148015832Y-77122207D01*
X148015832Y-77122208D01*
X147971318Y-77275426D01*
X147968500Y-77311230D01*
X147968500Y-78688770D01*
X147971318Y-78724574D01*
X148002963Y-78833498D01*
X148015833Y-78877794D01*
X148097048Y-79015123D01*
X148097051Y-79015127D01*
X148209873Y-79127949D01*
X148347208Y-79209168D01*
X148500426Y-79253682D01*
X148536230Y-79256500D01*
X148536231Y-79256500D01*
X149463769Y-79256500D01*
X149463770Y-79256500D01*
X149499574Y-79253682D01*
X149652792Y-79209168D01*
X149790127Y-79127949D01*
X149902949Y-79015127D01*
X149922223Y-78982535D01*
X149980228Y-78921320D01*
X150059051Y-78891331D01*
X150085333Y-78889500D01*
X162953063Y-78889500D01*
X163035284Y-78908266D01*
X163087060Y-78945003D01*
X163435747Y-79293690D01*
X163480616Y-79365099D01*
X163491250Y-79427687D01*
X163491250Y-79863866D01*
X163472484Y-79946087D01*
X163423900Y-80008744D01*
X163400355Y-80028594D01*
X163400355Y-80028595D01*
X163400352Y-80028597D01*
X163400350Y-80028600D01*
X163316387Y-80128186D01*
X163255628Y-80200250D01*
X163188281Y-80251013D01*
X163105579Y-80267528D01*
X163023900Y-80246525D01*
X162965872Y-80200250D01*
X162965871Y-80200249D01*
X162821150Y-80028600D01*
X162730250Y-79951960D01*
X162641359Y-79877013D01*
X162490816Y-79788671D01*
X162438537Y-79757993D01*
X162438535Y-79757992D01*
X162438533Y-79757991D01*
X162218521Y-79674962D01*
X162218506Y-79674958D01*
X161987640Y-79630308D01*
X161987624Y-79630306D01*
X161934794Y-79627500D01*
X161746724Y-79627500D01*
X161746680Y-79627502D01*
X161693875Y-79630305D01*
X161462993Y-79674958D01*
X161462978Y-79674962D01*
X161242966Y-79757991D01*
X161040140Y-79877013D01*
X160860353Y-80028597D01*
X160860352Y-80028598D01*
X160860350Y-80028600D01*
X160776387Y-80128186D01*
X160715628Y-80200250D01*
X160648281Y-80251013D01*
X160565579Y-80267528D01*
X160483900Y-80246525D01*
X160425872Y-80200250D01*
X160425871Y-80200249D01*
X160281150Y-80028600D01*
X160190250Y-79951960D01*
X160101359Y-79877013D01*
X159950816Y-79788671D01*
X159898537Y-79757993D01*
X159898535Y-79757992D01*
X159898533Y-79757991D01*
X159678521Y-79674962D01*
X159678506Y-79674958D01*
X159447640Y-79630308D01*
X159447624Y-79630306D01*
X159394794Y-79627500D01*
X159206724Y-79627500D01*
X159206680Y-79627502D01*
X159153875Y-79630305D01*
X158922993Y-79674958D01*
X158922978Y-79674962D01*
X158702966Y-79757991D01*
X158500140Y-79877013D01*
X158320353Y-80028597D01*
X158320352Y-80028598D01*
X158320350Y-80028600D01*
X158236387Y-80128186D01*
X158175628Y-80200250D01*
X158108281Y-80251013D01*
X158025579Y-80267528D01*
X157943900Y-80246525D01*
X157885872Y-80200250D01*
X157885871Y-80200249D01*
X157741150Y-80028600D01*
X157650250Y-79951960D01*
X157561359Y-79877013D01*
X157410816Y-79788671D01*
X157358537Y-79757993D01*
X157358535Y-79757992D01*
X157358533Y-79757991D01*
X157138521Y-79674962D01*
X157138506Y-79674958D01*
X156907640Y-79630308D01*
X156907624Y-79630306D01*
X156854794Y-79627500D01*
X156666724Y-79627500D01*
X156666680Y-79627502D01*
X156613875Y-79630305D01*
X156382993Y-79674958D01*
X156382978Y-79674962D01*
X156162966Y-79757991D01*
X155960140Y-79877013D01*
X155780353Y-80028597D01*
X155780347Y-80028603D01*
X155628763Y-80208390D01*
X155509741Y-80411216D01*
X155476648Y-80498908D01*
X155430060Y-80569208D01*
X155357584Y-80612331D01*
X155299353Y-80621500D01*
X146985352Y-80621500D01*
X146957886Y-80619499D01*
X146938327Y-80616634D01*
X146938326Y-80616633D01*
X146886832Y-80621139D01*
X146878570Y-80621500D01*
X146871588Y-80621500D01*
X146868492Y-80621861D01*
X146839849Y-80625208D01*
X146837113Y-80625488D01*
X146760764Y-80632168D01*
X146749953Y-80634401D01*
X146749819Y-80633754D01*
X146749542Y-80633816D01*
X146749694Y-80634457D01*
X146738964Y-80637000D01*
X146738958Y-80637001D01*
X146738958Y-80637002D01*
X146721444Y-80643376D01*
X146666925Y-80663219D01*
X146664323Y-80664123D01*
X146591560Y-80688234D01*
X146581558Y-80692898D01*
X146581278Y-80692298D01*
X146581025Y-80692421D01*
X146581323Y-80693013D01*
X146571458Y-80697967D01*
X146507420Y-80740085D01*
X146505099Y-80741563D01*
X146439853Y-80781810D01*
X146431198Y-80788654D01*
X146430787Y-80788134D01*
X146430563Y-80788316D01*
X146430989Y-80788823D01*
X146422537Y-80795914D01*
X146369950Y-80851653D01*
X146368031Y-80853629D01*
X145839665Y-81381996D01*
X145768256Y-81426866D01*
X145705668Y-81437500D01*
X141205516Y-81437500D01*
X141123295Y-81418734D01*
X141088000Y-81393691D01*
X141087529Y-81394351D01*
X141074748Y-81385226D01*
X141074746Y-81385224D01*
X141068143Y-81381996D01*
X140960365Y-81329305D01*
X140960364Y-81329304D01*
X140886212Y-81318500D01*
X140886206Y-81318500D01*
X138513794Y-81318500D01*
X138513787Y-81318500D01*
X138439635Y-81329304D01*
X138439634Y-81329305D01*
X138325257Y-81385222D01*
X138325252Y-81385225D01*
X138235225Y-81475252D01*
X138235222Y-81475257D01*
X138179305Y-81589634D01*
X138179304Y-81589635D01*
X138168500Y-81663787D01*
X138168500Y-82736212D01*
X138179304Y-82810364D01*
X138179305Y-82810365D01*
X138218774Y-82891098D01*
X138235224Y-82924746D01*
X138325254Y-83014776D01*
X138357424Y-83030503D01*
X138439634Y-83070694D01*
X138439635Y-83070695D01*
X138439637Y-83070695D01*
X138439639Y-83070696D01*
X138513794Y-83081500D01*
X138513799Y-83081500D01*
X140886201Y-83081500D01*
X140886206Y-83081500D01*
X140960361Y-83070696D01*
X140960362Y-83070695D01*
X140960364Y-83070695D01*
X140960365Y-83070694D01*
X141074746Y-83014776D01*
X141074752Y-83014769D01*
X141087529Y-83005649D01*
X141088659Y-83007232D01*
X141142928Y-82973134D01*
X141205516Y-82962500D01*
X146030647Y-82962500D01*
X146058112Y-82964500D01*
X146077672Y-82967366D01*
X146129169Y-82962861D01*
X146137431Y-82962500D01*
X146144408Y-82962500D01*
X146144412Y-82962500D01*
X146176146Y-82958790D01*
X146178848Y-82958513D01*
X146255240Y-82951831D01*
X146255241Y-82951830D01*
X146266048Y-82949599D01*
X146266183Y-82950256D01*
X146266456Y-82950195D01*
X146266302Y-82949543D01*
X146277037Y-82946998D01*
X146277042Y-82946998D01*
X146349131Y-82920759D01*
X146351667Y-82919878D01*
X146424440Y-82895765D01*
X146424443Y-82895763D01*
X146434448Y-82891098D01*
X146434732Y-82891707D01*
X146434972Y-82891591D01*
X146434670Y-82890990D01*
X146444531Y-82886036D01*
X146444539Y-82886034D01*
X146508588Y-82843906D01*
X146510912Y-82842427D01*
X146562892Y-82810365D01*
X146576149Y-82802188D01*
X146576156Y-82802180D01*
X146584803Y-82795344D01*
X146585222Y-82795874D01*
X146585438Y-82795698D01*
X146585004Y-82795181D01*
X146593450Y-82788092D01*
X146593462Y-82788085D01*
X146646107Y-82732283D01*
X146647985Y-82730351D01*
X147176336Y-82202003D01*
X147247745Y-82157134D01*
X147310332Y-82146500D01*
X153310500Y-82146500D01*
X153392721Y-82165266D01*
X153458657Y-82217849D01*
X153495249Y-82293832D01*
X153500000Y-82336000D01*
X153500000Y-84648000D01*
X153481234Y-84730221D01*
X153428651Y-84796157D01*
X153352668Y-84832749D01*
X153310500Y-84837500D01*
X147419353Y-84837500D01*
X147391887Y-84835499D01*
X147389898Y-84835207D01*
X147372327Y-84832633D01*
X147320831Y-84837139D01*
X147312569Y-84837500D01*
X147305588Y-84837500D01*
X147294122Y-84838839D01*
X147273869Y-84841206D01*
X147271133Y-84841486D01*
X147194757Y-84848169D01*
X147183953Y-84850400D01*
X147183819Y-84849754D01*
X147183538Y-84849816D01*
X147183690Y-84850458D01*
X147172955Y-84853002D01*
X147100919Y-84879220D01*
X147098320Y-84880123D01*
X147025563Y-84904234D01*
X147025560Y-84904235D01*
X147025557Y-84904236D01*
X147015561Y-84908898D01*
X147015281Y-84908299D01*
X147015023Y-84908424D01*
X147015320Y-84909015D01*
X147005457Y-84913968D01*
X146941404Y-84956095D01*
X146939083Y-84957574D01*
X146873857Y-84997807D01*
X146865199Y-85004654D01*
X146864787Y-85004133D01*
X146864568Y-85004312D01*
X146864994Y-85004819D01*
X146856538Y-85011914D01*
X146803934Y-85067670D01*
X146802015Y-85069645D01*
X144139665Y-87731997D01*
X144068256Y-87776866D01*
X144005668Y-87787500D01*
X132594332Y-87787500D01*
X132512111Y-87768734D01*
X132460335Y-87731997D01*
X130868003Y-86139665D01*
X130823134Y-86068256D01*
X130812500Y-86005668D01*
X130812500Y-85936212D01*
X132468500Y-85936212D01*
X132479304Y-86010364D01*
X132479305Y-86010365D01*
X132535077Y-86124445D01*
X132535224Y-86124746D01*
X132625254Y-86214776D01*
X132676306Y-86239734D01*
X132739634Y-86270694D01*
X132739635Y-86270695D01*
X132739637Y-86270695D01*
X132739639Y-86270696D01*
X132813794Y-86281500D01*
X132813799Y-86281500D01*
X135186201Y-86281500D01*
X135186206Y-86281500D01*
X135260361Y-86270696D01*
X135260362Y-86270695D01*
X135260364Y-86270695D01*
X135260365Y-86270694D01*
X135283291Y-86259486D01*
X135374746Y-86214776D01*
X135464776Y-86124746D01*
X135520696Y-86010361D01*
X135531500Y-85936206D01*
X135531500Y-85654000D01*
X138169000Y-85654000D01*
X138169000Y-85936164D01*
X138179790Y-86010215D01*
X138179791Y-86010221D01*
X138235632Y-86124445D01*
X138235634Y-86124448D01*
X138325551Y-86214365D01*
X138325554Y-86214367D01*
X138439778Y-86270208D01*
X138439784Y-86270209D01*
X138513835Y-86280999D01*
X138513845Y-86281000D01*
X139445999Y-86281000D01*
X139446000Y-86280999D01*
X139446000Y-86280998D01*
X139954000Y-86280998D01*
X139954001Y-86281000D01*
X140886155Y-86281000D01*
X140886164Y-86280999D01*
X140960215Y-86270209D01*
X140960221Y-86270208D01*
X141074445Y-86214367D01*
X141074448Y-86214365D01*
X141164365Y-86124448D01*
X141164367Y-86124445D01*
X141220208Y-86010221D01*
X141220209Y-86010215D01*
X141230999Y-85936164D01*
X141231000Y-85936154D01*
X141231000Y-85654001D01*
X141230999Y-85654000D01*
X139954001Y-85654000D01*
X139954000Y-85654001D01*
X139954000Y-86280998D01*
X139446000Y-86280998D01*
X139446000Y-85654001D01*
X139445999Y-85654000D01*
X138169000Y-85654000D01*
X135531500Y-85654000D01*
X135531500Y-85145999D01*
X138169000Y-85145999D01*
X138169001Y-85146000D01*
X139445999Y-85146000D01*
X139446000Y-85145998D01*
X139954000Y-85145998D01*
X139954001Y-85146000D01*
X141230999Y-85146000D01*
X141231000Y-85145998D01*
X141231000Y-84863845D01*
X141230999Y-84863835D01*
X141220209Y-84789784D01*
X141220208Y-84789778D01*
X141164367Y-84675554D01*
X141164365Y-84675551D01*
X141074448Y-84585634D01*
X141074445Y-84585632D01*
X140960221Y-84529791D01*
X140960215Y-84529790D01*
X140886164Y-84519000D01*
X139954001Y-84519000D01*
X139954000Y-84519001D01*
X139954000Y-85145998D01*
X139446000Y-85145998D01*
X139446000Y-84519001D01*
X139445999Y-84519000D01*
X138513835Y-84519000D01*
X138439784Y-84529790D01*
X138439778Y-84529791D01*
X138325554Y-84585632D01*
X138325551Y-84585634D01*
X138235634Y-84675551D01*
X138235632Y-84675554D01*
X138179791Y-84789778D01*
X138179790Y-84789784D01*
X138169000Y-84863835D01*
X138169000Y-85145999D01*
X135531500Y-85145999D01*
X135531500Y-84863794D01*
X135520696Y-84789639D01*
X135520695Y-84789637D01*
X135520695Y-84789635D01*
X135520694Y-84789634D01*
X135491648Y-84730221D01*
X135464776Y-84675254D01*
X135374746Y-84585224D01*
X135374742Y-84585222D01*
X135260365Y-84529305D01*
X135260364Y-84529304D01*
X135186212Y-84518500D01*
X135186206Y-84518500D01*
X132813794Y-84518500D01*
X132813787Y-84518500D01*
X132739635Y-84529304D01*
X132739634Y-84529305D01*
X132625257Y-84585222D01*
X132625252Y-84585225D01*
X132535225Y-84675252D01*
X132535222Y-84675257D01*
X132479305Y-84789634D01*
X132479304Y-84789635D01*
X132468500Y-84863787D01*
X132468500Y-85936212D01*
X130812500Y-85936212D01*
X130812500Y-83392207D01*
X130831266Y-83309986D01*
X130883849Y-83244050D01*
X130941886Y-83213986D01*
X130941850Y-83213903D01*
X130943048Y-83213384D01*
X130949138Y-83210230D01*
X130951789Y-83209459D01*
X130952792Y-83209168D01*
X131090127Y-83127949D01*
X131187574Y-83030501D01*
X131258981Y-82985634D01*
X131321569Y-82975000D01*
X132508837Y-82975000D01*
X132591058Y-82993766D01*
X132618950Y-83010275D01*
X132625251Y-83014773D01*
X132625254Y-83014776D01*
X132657424Y-83030503D01*
X132739634Y-83070694D01*
X132739635Y-83070695D01*
X132739637Y-83070695D01*
X132739639Y-83070696D01*
X132813794Y-83081500D01*
X132813799Y-83081500D01*
X135186201Y-83081500D01*
X135186206Y-83081500D01*
X135260361Y-83070696D01*
X135260362Y-83070695D01*
X135260364Y-83070695D01*
X135260365Y-83070694D01*
X135374746Y-83014776D01*
X135464776Y-82924746D01*
X135520696Y-82810361D01*
X135531500Y-82736206D01*
X135531500Y-81663794D01*
X135520696Y-81589639D01*
X135520695Y-81589637D01*
X135520695Y-81589635D01*
X135520694Y-81589634D01*
X135464777Y-81475257D01*
X135464776Y-81475254D01*
X135374746Y-81385224D01*
X135368143Y-81381996D01*
X135260365Y-81329305D01*
X135260364Y-81329304D01*
X135186212Y-81318500D01*
X135186206Y-81318500D01*
X132813794Y-81318500D01*
X132813787Y-81318500D01*
X132739635Y-81329304D01*
X132739634Y-81329305D01*
X132625257Y-81385222D01*
X132625252Y-81385225D01*
X132615981Y-81394497D01*
X132544572Y-81439366D01*
X132481984Y-81450000D01*
X131321569Y-81450000D01*
X131239348Y-81431234D01*
X131187575Y-81394499D01*
X131090127Y-81297051D01*
X130952792Y-81215832D01*
X130799574Y-81171318D01*
X130763770Y-81168500D01*
X129336230Y-81168500D01*
X129300425Y-81171318D01*
X129300426Y-81171318D01*
X129147205Y-81215833D01*
X129009875Y-81297049D01*
X128897049Y-81409875D01*
X128815833Y-81547205D01*
X128815832Y-81547207D01*
X128815832Y-81547208D01*
X128771318Y-81700426D01*
X128768500Y-81736230D01*
X128768500Y-82688770D01*
X128771318Y-82724574D01*
X128796242Y-82810364D01*
X128815833Y-82877794D01*
X128894181Y-83010275D01*
X128897051Y-83015127D01*
X129009873Y-83127949D01*
X129147208Y-83209168D01*
X129150866Y-83210230D01*
X129155101Y-83212583D01*
X129158150Y-83213903D01*
X129158019Y-83214204D01*
X129224586Y-83251189D01*
X129273235Y-83320079D01*
X129287499Y-83392207D01*
X129287499Y-86330647D01*
X129285499Y-86358107D01*
X129282634Y-86377669D01*
X129282633Y-86377672D01*
X129287139Y-86429168D01*
X129287500Y-86437430D01*
X129287500Y-86444413D01*
X129291207Y-86476134D01*
X129291487Y-86478873D01*
X129298169Y-86555244D01*
X129300400Y-86566048D01*
X129299752Y-86566181D01*
X129299813Y-86566455D01*
X129300456Y-86566303D01*
X129303002Y-86577043D01*
X129329216Y-86649068D01*
X129330121Y-86651670D01*
X129354236Y-86724444D01*
X129358899Y-86734444D01*
X129358295Y-86734725D01*
X129358418Y-86734979D01*
X129359015Y-86734680D01*
X129363967Y-86744541D01*
X129406099Y-86808599D01*
X129407579Y-86810923D01*
X129447810Y-86876146D01*
X129454662Y-86884812D01*
X129454138Y-86885225D01*
X129454309Y-86885435D01*
X129454820Y-86885007D01*
X129461914Y-86893461D01*
X129517669Y-86946063D01*
X129519646Y-86947984D01*
X131611791Y-89040129D01*
X131629795Y-89060963D01*
X131641597Y-89076816D01*
X131641599Y-89076818D01*
X131641602Y-89076822D01*
X131641608Y-89076827D01*
X131681200Y-89110048D01*
X131687297Y-89115635D01*
X131692235Y-89120573D01*
X131717301Y-89140393D01*
X131719437Y-89142133D01*
X131778144Y-89191394D01*
X131787366Y-89197459D01*
X131786997Y-89198019D01*
X131787237Y-89198172D01*
X131787589Y-89197602D01*
X131796983Y-89203397D01*
X131866453Y-89235791D01*
X131868935Y-89236992D01*
X131935274Y-89270309D01*
X131937434Y-89271394D01*
X131937436Y-89271394D01*
X131947809Y-89275170D01*
X131947580Y-89275799D01*
X131947836Y-89275888D01*
X131948047Y-89275252D01*
X131958521Y-89278722D01*
X131958526Y-89278725D01*
X132033642Y-89294234D01*
X132036238Y-89294810D01*
X132110877Y-89312500D01*
X132110882Y-89312500D01*
X132121842Y-89313782D01*
X132121764Y-89314443D01*
X132122038Y-89314471D01*
X132122097Y-89313807D01*
X132133082Y-89314767D01*
X132133091Y-89314769D01*
X132205909Y-89312650D01*
X132209703Y-89312540D01*
X132212459Y-89312500D01*
X144330647Y-89312500D01*
X144358112Y-89314500D01*
X144377672Y-89317366D01*
X144429169Y-89312861D01*
X144437431Y-89312500D01*
X144444408Y-89312500D01*
X144444412Y-89312500D01*
X144476146Y-89308790D01*
X144478848Y-89308513D01*
X144555240Y-89301831D01*
X144555241Y-89301830D01*
X144566048Y-89299599D01*
X144566183Y-89300256D01*
X144566456Y-89300195D01*
X144566302Y-89299543D01*
X144577037Y-89296998D01*
X144577042Y-89296998D01*
X144649131Y-89270759D01*
X144651667Y-89269878D01*
X144724440Y-89245765D01*
X144724443Y-89245763D01*
X144734448Y-89241098D01*
X144734732Y-89241707D01*
X144734972Y-89241591D01*
X144734670Y-89240990D01*
X144744531Y-89236036D01*
X144744539Y-89236034D01*
X144808588Y-89193906D01*
X144810912Y-89192427D01*
X144830414Y-89180397D01*
X144876149Y-89152188D01*
X144876156Y-89152180D01*
X144884803Y-89145344D01*
X144885222Y-89145874D01*
X144885438Y-89145698D01*
X144885004Y-89145181D01*
X144893450Y-89138092D01*
X144893462Y-89138085D01*
X144946109Y-89082281D01*
X144947951Y-89080384D01*
X147610334Y-86418003D01*
X147681744Y-86373134D01*
X147744332Y-86362500D01*
X153310500Y-86362500D01*
X153392721Y-86381266D01*
X153458657Y-86433849D01*
X153495249Y-86509832D01*
X153500000Y-86552000D01*
X153500000Y-94237500D01*
X153481234Y-94319721D01*
X153428651Y-94385657D01*
X153352668Y-94422249D01*
X153310500Y-94427000D01*
X140409876Y-94427000D01*
X140327655Y-94408234D01*
X140261719Y-94355651D01*
X140246765Y-94333962D01*
X140202952Y-94259877D01*
X140202950Y-94259875D01*
X140202949Y-94259873D01*
X140090127Y-94147051D01*
X139952792Y-94065832D01*
X139799574Y-94021318D01*
X139763770Y-94018500D01*
X138336230Y-94018500D01*
X138300425Y-94021318D01*
X138300426Y-94021318D01*
X138147205Y-94065833D01*
X138009875Y-94147049D01*
X137897049Y-94259875D01*
X137834014Y-94366463D01*
X137776007Y-94427681D01*
X137697183Y-94457669D01*
X137670903Y-94459500D01*
X136689500Y-94459500D01*
X136607279Y-94440734D01*
X136541343Y-94388151D01*
X136504751Y-94312168D01*
X136500000Y-94270000D01*
X136500000Y-93000001D01*
X136500000Y-93000000D01*
X128500000Y-93000000D01*
X128500000Y-101000000D01*
X128500001Y-101000000D01*
X136499999Y-101000000D01*
X136500000Y-101000000D01*
X136500000Y-98460000D01*
X136518766Y-98377779D01*
X136571349Y-98311843D01*
X136647332Y-98275251D01*
X136689500Y-98270500D01*
X137713645Y-98270500D01*
X137795866Y-98289266D01*
X137861802Y-98341849D01*
X137876756Y-98363537D01*
X137922051Y-98440127D01*
X138034873Y-98552949D01*
X138172208Y-98634168D01*
X138325426Y-98678682D01*
X138361230Y-98681500D01*
X138361231Y-98681500D01*
X139738769Y-98681500D01*
X139738770Y-98681500D01*
X139774574Y-98678682D01*
X139927792Y-98634168D01*
X140065127Y-98552949D01*
X140177949Y-98440127D01*
X140214372Y-98378537D01*
X140272380Y-98317319D01*
X140351204Y-98287331D01*
X140377484Y-98285500D01*
X148058274Y-98285500D01*
X148140495Y-98304266D01*
X148192271Y-98341003D01*
X149620227Y-99768959D01*
X149632074Y-99783745D01*
X149632842Y-99783111D01*
X149640445Y-99792300D01*
X149640447Y-99792303D01*
X149684806Y-99833959D01*
X149690612Y-99839411D01*
X149692748Y-99841481D01*
X149698317Y-99847049D01*
X149712906Y-99861638D01*
X149712909Y-99861640D01*
X149717281Y-99865032D01*
X149724072Y-99870832D01*
X149757495Y-99902218D01*
X149757498Y-99902220D01*
X149770949Y-99909615D01*
X149795797Y-99925936D01*
X149807931Y-99935348D01*
X149807937Y-99935351D01*
X149850002Y-99953554D01*
X149858008Y-99957475D01*
X149898197Y-99979569D01*
X149898201Y-99979570D01*
X149913068Y-99983388D01*
X149941199Y-99993019D01*
X149955290Y-99999116D01*
X149955292Y-99999117D01*
X150000578Y-100006288D01*
X150009311Y-100008097D01*
X150053718Y-100019500D01*
X150069069Y-100019500D01*
X150098713Y-100021833D01*
X150100187Y-100022066D01*
X150113879Y-100024235D01*
X150150458Y-100020777D01*
X150159518Y-100019921D01*
X150168440Y-100019500D01*
X155251426Y-100019500D01*
X155333647Y-100038266D01*
X155399583Y-100090849D01*
X155428721Y-100142092D01*
X155509741Y-100356783D01*
X155628763Y-100559609D01*
X155739207Y-100690601D01*
X155780350Y-100739400D01*
X155849696Y-100797867D01*
X155960140Y-100890986D01*
X155998249Y-100913349D01*
X156162963Y-101010007D01*
X156382983Y-101093039D01*
X156382992Y-101093040D01*
X156382993Y-101093041D01*
X156613859Y-101137691D01*
X156613863Y-101137691D01*
X156613871Y-101137693D01*
X156666715Y-101140500D01*
X156854784Y-101140499D01*
X156863350Y-101140044D01*
X156907624Y-101137694D01*
X156955114Y-101128509D01*
X157138517Y-101093039D01*
X157358537Y-101010007D01*
X157561359Y-100890986D01*
X157741150Y-100739400D01*
X157885872Y-100567749D01*
X157953219Y-100516986D01*
X158035921Y-100500471D01*
X158117599Y-100521474D01*
X158175627Y-100567749D01*
X158320350Y-100739400D01*
X158410245Y-100815192D01*
X158500138Y-100890984D01*
X158500140Y-100890985D01*
X158500141Y-100890986D01*
X158571660Y-100932955D01*
X158633073Y-100990751D01*
X158663328Y-101069473D01*
X158665250Y-101096391D01*
X158665250Y-101557522D01*
X158646484Y-101639743D01*
X158609747Y-101691519D01*
X158313270Y-101987997D01*
X158241861Y-102032866D01*
X158179273Y-102043500D01*
X157436230Y-102043500D01*
X157429865Y-102044001D01*
X157400426Y-102046318D01*
X157247205Y-102090833D01*
X157109875Y-102172049D01*
X156997049Y-102284875D01*
X156938111Y-102384535D01*
X156880104Y-102445754D01*
X156801280Y-102475741D01*
X156717251Y-102468558D01*
X156644660Y-102425628D01*
X156611889Y-102384535D01*
X156553132Y-102285183D01*
X156552949Y-102284873D01*
X156440127Y-102172051D01*
X156385924Y-102139996D01*
X156302794Y-102090833D01*
X156302793Y-102090832D01*
X156302792Y-102090832D01*
X156149574Y-102046318D01*
X156113770Y-102043500D01*
X155186230Y-102043500D01*
X155179865Y-102044001D01*
X155150426Y-102046318D01*
X154997205Y-102090833D01*
X154859875Y-102172049D01*
X154747049Y-102284875D01*
X154665833Y-102422205D01*
X154665833Y-102422206D01*
X154665832Y-102422208D01*
X154621318Y-102575426D01*
X154618500Y-102611230D01*
X154618500Y-103988770D01*
X154621318Y-104024574D01*
X154665774Y-104177593D01*
X154665833Y-104177794D01*
X154731670Y-104289120D01*
X154747051Y-104315127D01*
X154859873Y-104427949D01*
X154882726Y-104441464D01*
X154997208Y-104509168D01*
X155113742Y-104543025D01*
X155187463Y-104583985D01*
X155236111Y-104652875D01*
X155250051Y-104736051D01*
X155226521Y-104817037D01*
X155170184Y-104879795D01*
X155092195Y-104911893D01*
X155060873Y-104914500D01*
X153137335Y-104914500D01*
X153055114Y-104895734D01*
X152989178Y-104843151D01*
X152952586Y-104767168D01*
X152952586Y-104682832D01*
X152989178Y-104606849D01*
X153055114Y-104554266D01*
X153084466Y-104543024D01*
X153202593Y-104508704D01*
X153202595Y-104508703D01*
X153339816Y-104427550D01*
X153339819Y-104427548D01*
X153452548Y-104314819D01*
X153452550Y-104314816D01*
X153533703Y-104177595D01*
X153533708Y-104177586D01*
X153578183Y-104024501D01*
X153578184Y-104024498D01*
X153581000Y-103988723D01*
X153581000Y-103554001D01*
X153580999Y-103554000D01*
X151519001Y-103554000D01*
X151519001Y-103988734D01*
X151521814Y-104024488D01*
X151521813Y-104024488D01*
X151566295Y-104177593D01*
X151566296Y-104177595D01*
X151647449Y-104314816D01*
X151647451Y-104314819D01*
X151760180Y-104427548D01*
X151760183Y-104427550D01*
X151897404Y-104508703D01*
X151897411Y-104508707D01*
X152015533Y-104543025D01*
X152089253Y-104583985D01*
X152137901Y-104652875D01*
X152151841Y-104736051D01*
X152128311Y-104817037D01*
X152071974Y-104879795D01*
X151993985Y-104911893D01*
X151962663Y-104914500D01*
X151241727Y-104914500D01*
X151159506Y-104895734D01*
X151107730Y-104858997D01*
X149641003Y-103392269D01*
X149596134Y-103320860D01*
X149585500Y-103258272D01*
X149585500Y-103045999D01*
X151519000Y-103045999D01*
X151519001Y-103046000D01*
X152295999Y-103046000D01*
X152296000Y-103045999D01*
X152296000Y-103045998D01*
X152804000Y-103045998D01*
X152804001Y-103046000D01*
X153580998Y-103046000D01*
X153580999Y-103045998D01*
X153580999Y-102611278D01*
X153580998Y-102611265D01*
X153578185Y-102575511D01*
X153578186Y-102575511D01*
X153533704Y-102422406D01*
X153533703Y-102422404D01*
X153452550Y-102285183D01*
X153452548Y-102285180D01*
X153339819Y-102172451D01*
X153339816Y-102172449D01*
X153202595Y-102091296D01*
X153202586Y-102091291D01*
X153049501Y-102046816D01*
X153049498Y-102046815D01*
X153013724Y-102044000D01*
X152804001Y-102044000D01*
X152804000Y-102044001D01*
X152804000Y-103045998D01*
X152296000Y-103045998D01*
X152296000Y-102044000D01*
X152086277Y-102044000D01*
X152086265Y-102044001D01*
X152050511Y-102046813D01*
X151897406Y-102091295D01*
X151897404Y-102091296D01*
X151760183Y-102172449D01*
X151760180Y-102172451D01*
X151647451Y-102285180D01*
X151647449Y-102285183D01*
X151566296Y-102422404D01*
X151566291Y-102422413D01*
X151521816Y-102575498D01*
X151521815Y-102575501D01*
X151519000Y-102611276D01*
X151519000Y-103045999D01*
X149585500Y-103045999D01*
X149585500Y-102241085D01*
X149587580Y-102222245D01*
X149586587Y-102222152D01*
X149587709Y-102210279D01*
X149585547Y-102141499D01*
X149585500Y-102138522D01*
X149585500Y-102110020D01*
X149584807Y-102104536D01*
X149584105Y-102095623D01*
X149582992Y-102060212D01*
X149582665Y-102049795D01*
X149578379Y-102035046D01*
X149572351Y-102005933D01*
X149570427Y-101990701D01*
X149553548Y-101948070D01*
X149550660Y-101939635D01*
X149537869Y-101895607D01*
X149530051Y-101882387D01*
X149516969Y-101855683D01*
X149511319Y-101841412D01*
X149484369Y-101804318D01*
X149479470Y-101796860D01*
X149456134Y-101757402D01*
X149445279Y-101746547D01*
X149425968Y-101723936D01*
X149416942Y-101711513D01*
X149416940Y-101711511D01*
X149381619Y-101682291D01*
X149375012Y-101676280D01*
X148063769Y-100365036D01*
X148051919Y-100350245D01*
X148051151Y-100350882D01*
X148043554Y-100341699D01*
X148043553Y-100341697D01*
X147993403Y-100294603D01*
X147991265Y-100292531D01*
X147971092Y-100272359D01*
X147966713Y-100268962D01*
X147959922Y-100263162D01*
X147926503Y-100231780D01*
X147913051Y-100224385D01*
X147888201Y-100208062D01*
X147876066Y-100198649D01*
X147833993Y-100180443D01*
X147825973Y-100176514D01*
X147785803Y-100154431D01*
X147785802Y-100154430D01*
X147770927Y-100150611D01*
X147742803Y-100140982D01*
X147728712Y-100134884D01*
X147728701Y-100134881D01*
X147683431Y-100127711D01*
X147674687Y-100125901D01*
X147630282Y-100114500D01*
X147614931Y-100114500D01*
X147585287Y-100112167D01*
X147570119Y-100109764D01*
X147524482Y-100114079D01*
X147515560Y-100114500D01*
X140377484Y-100114500D01*
X140295263Y-100095734D01*
X140229327Y-100043151D01*
X140214373Y-100021463D01*
X140197551Y-99993019D01*
X140177949Y-99959873D01*
X140065127Y-99847051D01*
X140052208Y-99839411D01*
X139927794Y-99765833D01*
X139927793Y-99765832D01*
X139927792Y-99765832D01*
X139774574Y-99721318D01*
X139738770Y-99718500D01*
X138361230Y-99718500D01*
X138325425Y-99721318D01*
X138325426Y-99721318D01*
X138172205Y-99765833D01*
X138034875Y-99847049D01*
X137922049Y-99959875D01*
X137840833Y-100097205D01*
X137840832Y-100097207D01*
X137840832Y-100097208D01*
X137796318Y-100250426D01*
X137793500Y-100286230D01*
X137793500Y-101213770D01*
X137796318Y-101249574D01*
X137840832Y-101402792D01*
X137922051Y-101540127D01*
X138034873Y-101652949D01*
X138172208Y-101734168D01*
X138325426Y-101778682D01*
X138361230Y-101781500D01*
X138361231Y-101781500D01*
X139738769Y-101781500D01*
X139738770Y-101781500D01*
X139774574Y-101778682D01*
X139927792Y-101734168D01*
X140065127Y-101652949D01*
X140177949Y-101540127D01*
X140214372Y-101478537D01*
X140272380Y-101417319D01*
X140351204Y-101387331D01*
X140377484Y-101385500D01*
X147208274Y-101385500D01*
X147290495Y-101404266D01*
X147342271Y-101441003D01*
X148258997Y-102357729D01*
X148303866Y-102429138D01*
X148314500Y-102491726D01*
X148314500Y-103508922D01*
X148312422Y-103527761D01*
X148313414Y-103527855D01*
X148312292Y-103539720D01*
X148314453Y-103608512D01*
X148314500Y-103611488D01*
X148314500Y-103639984D01*
X148315195Y-103645493D01*
X148315894Y-103654384D01*
X148317334Y-103700201D01*
X148321620Y-103714955D01*
X148327647Y-103744059D01*
X148329572Y-103759299D01*
X148329573Y-103759302D01*
X148346447Y-103801922D01*
X148349339Y-103810368D01*
X148362128Y-103854388D01*
X148362129Y-103854389D01*
X148369948Y-103867611D01*
X148383025Y-103894305D01*
X148388680Y-103908586D01*
X148388680Y-103908587D01*
X148388681Y-103908588D01*
X148415640Y-103945694D01*
X148420532Y-103953143D01*
X148443863Y-103992594D01*
X148443866Y-103992598D01*
X148454720Y-104003452D01*
X148474032Y-104026064D01*
X148483055Y-104038483D01*
X148483060Y-104038489D01*
X148518380Y-104067708D01*
X148524987Y-104073719D01*
X150386227Y-105934959D01*
X150398074Y-105949745D01*
X150398842Y-105949111D01*
X150406445Y-105958300D01*
X150406447Y-105958303D01*
X150435966Y-105986023D01*
X150456612Y-106005411D01*
X150458748Y-106007481D01*
X150468207Y-106016939D01*
X150478906Y-106027638D01*
X150478909Y-106027640D01*
X150483281Y-106031032D01*
X150490068Y-106036829D01*
X150510627Y-106056134D01*
X150523495Y-106068218D01*
X150523498Y-106068220D01*
X150536949Y-106075615D01*
X150561797Y-106091936D01*
X150573931Y-106101348D01*
X150573937Y-106101351D01*
X150616002Y-106119554D01*
X150624008Y-106123475D01*
X150664197Y-106145569D01*
X150664201Y-106145570D01*
X150679068Y-106149388D01*
X150707199Y-106159019D01*
X150721290Y-106165116D01*
X150721292Y-106165117D01*
X150766578Y-106172288D01*
X150775311Y-106174097D01*
X150819718Y-106185500D01*
X150835069Y-106185500D01*
X150864713Y-106187833D01*
X150866187Y-106188066D01*
X150879879Y-106190235D01*
X150918481Y-106186586D01*
X150925518Y-106185921D01*
X150934440Y-106185500D01*
X158658920Y-106185500D01*
X158677756Y-106187579D01*
X158677850Y-106186586D01*
X158689713Y-106187706D01*
X158689719Y-106187708D01*
X158729966Y-106186443D01*
X158758514Y-106185547D01*
X158761489Y-106185500D01*
X158789982Y-106185500D01*
X158789983Y-106185500D01*
X158795469Y-106184806D01*
X158804379Y-106184105D01*
X158813749Y-106183810D01*
X158850205Y-106182665D01*
X158864942Y-106178383D01*
X158894064Y-106172351D01*
X158909299Y-106170427D01*
X158951924Y-106153549D01*
X158960355Y-106150663D01*
X159004393Y-106137869D01*
X159017604Y-106130055D01*
X159044319Y-106116968D01*
X159058588Y-106111319D01*
X159095687Y-106084363D01*
X159103141Y-106079467D01*
X159142598Y-106056134D01*
X159153455Y-106045276D01*
X159176060Y-106025970D01*
X159188487Y-106016942D01*
X159217718Y-105981605D01*
X159223704Y-105975026D01*
X160198732Y-104999999D01*
X170994659Y-104999999D01*
X171013976Y-105196136D01*
X171071185Y-105384727D01*
X171164088Y-105558535D01*
X171164090Y-105558538D01*
X171289117Y-105710883D01*
X171441462Y-105835910D01*
X171441464Y-105835911D01*
X171615272Y-105928814D01*
X171803863Y-105986023D01*
X171803865Y-105986023D01*
X171803868Y-105986024D01*
X172000000Y-106005341D01*
X172196132Y-105986024D01*
X172196134Y-105986023D01*
X172196136Y-105986023D01*
X172384727Y-105928814D01*
X172384727Y-105928813D01*
X172558538Y-105835910D01*
X172710883Y-105710883D01*
X172835910Y-105558538D01*
X172928814Y-105384727D01*
X172986024Y-105196132D01*
X173005341Y-105000000D01*
X172986024Y-104803868D01*
X172986023Y-104803865D01*
X172986023Y-104803863D01*
X172928814Y-104615272D01*
X172835911Y-104441464D01*
X172835910Y-104441462D01*
X172710883Y-104289117D01*
X172558538Y-104164090D01*
X172558536Y-104164089D01*
X172558535Y-104164088D01*
X172384727Y-104071185D01*
X172196136Y-104013976D01*
X172039226Y-103998522D01*
X172000000Y-103994659D01*
X171999999Y-103994659D01*
X171803863Y-104013976D01*
X171615272Y-104071185D01*
X171441464Y-104164088D01*
X171289120Y-104289114D01*
X171289114Y-104289120D01*
X171164088Y-104441464D01*
X171071185Y-104615272D01*
X171013976Y-104803863D01*
X170994659Y-104999999D01*
X160198732Y-104999999D01*
X160586729Y-104612003D01*
X160658139Y-104567134D01*
X160720727Y-104556500D01*
X161463769Y-104556500D01*
X161463770Y-104556500D01*
X161499574Y-104553682D01*
X161652792Y-104509168D01*
X161790127Y-104427949D01*
X161902949Y-104315127D01*
X161984168Y-104177792D01*
X161984169Y-104177788D01*
X161984624Y-104176738D01*
X161985488Y-104175559D01*
X161990237Y-104167530D01*
X161991032Y-104168000D01*
X162034502Y-104108733D01*
X162108946Y-104069104D01*
X162158538Y-104062500D01*
X165580647Y-104062500D01*
X165608112Y-104064500D01*
X165627672Y-104067366D01*
X165679169Y-104062861D01*
X165687431Y-104062500D01*
X165694408Y-104062500D01*
X165694412Y-104062500D01*
X165726146Y-104058790D01*
X165728848Y-104058513D01*
X165805240Y-104051831D01*
X165805241Y-104051830D01*
X165816048Y-104049599D01*
X165816183Y-104050256D01*
X165816456Y-104050195D01*
X165816302Y-104049543D01*
X165827037Y-104046998D01*
X165827042Y-104046998D01*
X165899131Y-104020759D01*
X165901667Y-104019878D01*
X165974440Y-103995765D01*
X165974443Y-103995763D01*
X165984448Y-103991098D01*
X165984732Y-103991707D01*
X165984972Y-103991591D01*
X165984670Y-103990990D01*
X165994531Y-103986036D01*
X165994539Y-103986034D01*
X166058588Y-103943906D01*
X166060912Y-103942427D01*
X166115773Y-103908588D01*
X166126149Y-103902188D01*
X166126156Y-103902180D01*
X166134803Y-103895344D01*
X166135222Y-103895874D01*
X166135438Y-103895698D01*
X166135004Y-103895181D01*
X166143450Y-103888092D01*
X166143462Y-103888085D01*
X166196109Y-103832281D01*
X166197951Y-103830384D01*
X167410884Y-102617452D01*
X167431713Y-102599453D01*
X167447572Y-102587648D01*
X167480813Y-102548031D01*
X167486382Y-102541954D01*
X167491323Y-102537015D01*
X167511167Y-102511916D01*
X167512881Y-102509814D01*
X167562146Y-102451103D01*
X167562151Y-102451092D01*
X167568213Y-102441878D01*
X167568776Y-102442248D01*
X167568919Y-102442025D01*
X167568346Y-102441672D01*
X167574142Y-102432274D01*
X167574142Y-102432273D01*
X167574145Y-102432270D01*
X167606560Y-102362752D01*
X167607720Y-102360357D01*
X167642144Y-102291816D01*
X167642146Y-102291807D01*
X167645919Y-102281442D01*
X167646549Y-102281671D01*
X167646638Y-102281417D01*
X167646001Y-102281206D01*
X167649474Y-102270725D01*
X167649473Y-102270725D01*
X167649475Y-102270723D01*
X167664971Y-102195664D01*
X167665568Y-102192976D01*
X167670433Y-102172449D01*
X167683250Y-102118373D01*
X167683250Y-102118370D01*
X167683251Y-102118366D01*
X167684532Y-102107409D01*
X167685193Y-102107486D01*
X167685222Y-102107210D01*
X167684557Y-102107152D01*
X167685519Y-102096156D01*
X167683290Y-102019543D01*
X167683250Y-102016787D01*
X167683250Y-101011210D01*
X167702016Y-100928989D01*
X167750600Y-100866332D01*
X167901150Y-100739400D01*
X168046201Y-100567359D01*
X168113544Y-100516599D01*
X168196246Y-100500083D01*
X168277925Y-100521085D01*
X168335954Y-100567362D01*
X168480702Y-100739042D01*
X168480707Y-100739047D01*
X168660427Y-100890574D01*
X168863178Y-101009553D01*
X168863179Y-101009554D01*
X169083115Y-101092554D01*
X169083121Y-101092555D01*
X169206750Y-101116465D01*
X169206750Y-99689500D01*
X169225516Y-99607279D01*
X169278099Y-99541343D01*
X169354082Y-99504751D01*
X169396250Y-99500000D01*
X169525250Y-99500000D01*
X169607471Y-99518766D01*
X169673407Y-99571349D01*
X169709999Y-99647332D01*
X169714750Y-99689500D01*
X169714750Y-101116464D01*
X169838378Y-101092555D01*
X169838384Y-101092554D01*
X170058320Y-101009554D01*
X170058321Y-101009553D01*
X170261072Y-100890574D01*
X170440792Y-100739047D01*
X170440797Y-100739042D01*
X170585545Y-100567362D01*
X170652891Y-100516599D01*
X170735594Y-100500083D01*
X170817272Y-100521085D01*
X170875300Y-100567361D01*
X171020350Y-100739400D01*
X171089696Y-100797867D01*
X171200140Y-100890986D01*
X171238249Y-100913349D01*
X171402963Y-101010007D01*
X171622983Y-101093039D01*
X171622992Y-101093040D01*
X171622993Y-101093041D01*
X171853859Y-101137691D01*
X171853863Y-101137691D01*
X171853871Y-101137693D01*
X171906715Y-101140500D01*
X172094784Y-101140499D01*
X172103350Y-101140044D01*
X172147624Y-101137694D01*
X172195114Y-101128509D01*
X172378517Y-101093039D01*
X172598537Y-101010007D01*
X172801359Y-100890986D01*
X172981150Y-100739400D01*
X173132736Y-100559609D01*
X173251757Y-100356787D01*
X173334789Y-100136767D01*
X173369000Y-99959875D01*
X173379441Y-99905890D01*
X173379441Y-99905888D01*
X173379443Y-99905879D01*
X173382250Y-99853035D01*
X173382250Y-99689499D01*
X173401016Y-99607279D01*
X173453599Y-99541343D01*
X173529582Y-99504751D01*
X173571750Y-99500000D01*
X174556000Y-99500000D01*
X174638221Y-99518766D01*
X174704157Y-99571349D01*
X174740749Y-99647332D01*
X174745500Y-99689500D01*
X174745500Y-107556000D01*
X174726734Y-107638221D01*
X174674151Y-107704157D01*
X174598168Y-107740749D01*
X174556000Y-107745500D01*
X125444000Y-107745500D01*
X125361779Y-107726734D01*
X125295843Y-107674151D01*
X125259251Y-107598168D01*
X125254500Y-107556000D01*
X125254500Y-104999999D01*
X126994659Y-104999999D01*
X127013976Y-105196136D01*
X127071185Y-105384727D01*
X127164088Y-105558535D01*
X127164090Y-105558538D01*
X127289117Y-105710883D01*
X127441462Y-105835910D01*
X127441464Y-105835911D01*
X127615272Y-105928814D01*
X127803863Y-105986023D01*
X127803865Y-105986023D01*
X127803868Y-105986024D01*
X128000000Y-106005341D01*
X128196132Y-105986024D01*
X128196134Y-105986023D01*
X128196136Y-105986023D01*
X128384727Y-105928814D01*
X128384727Y-105928813D01*
X128558538Y-105835910D01*
X128710883Y-105710883D01*
X128835910Y-105558538D01*
X128928814Y-105384727D01*
X128986024Y-105196132D01*
X129005341Y-105000000D01*
X128986024Y-104803868D01*
X128986023Y-104803865D01*
X128986023Y-104803863D01*
X128928814Y-104615272D01*
X128835911Y-104441464D01*
X128835910Y-104441462D01*
X128710883Y-104289117D01*
X128558538Y-104164090D01*
X128558536Y-104164089D01*
X128558535Y-104164088D01*
X128384727Y-104071185D01*
X128196136Y-104013976D01*
X128039226Y-103998522D01*
X128000000Y-103994659D01*
X127999999Y-103994659D01*
X127803863Y-104013976D01*
X127615272Y-104071185D01*
X127441464Y-104164088D01*
X127289120Y-104289114D01*
X127289114Y-104289120D01*
X127164088Y-104441464D01*
X127071185Y-104615272D01*
X127013976Y-104803863D01*
X126994659Y-104999999D01*
X125254500Y-104999999D01*
X125254500Y-92413734D01*
X137769001Y-92413734D01*
X137771814Y-92449488D01*
X137771813Y-92449488D01*
X137816295Y-92602593D01*
X137816296Y-92602595D01*
X137897449Y-92739816D01*
X137897451Y-92739819D01*
X138010180Y-92852548D01*
X138010183Y-92852550D01*
X138147404Y-92933703D01*
X138147413Y-92933708D01*
X138300498Y-92978183D01*
X138300501Y-92978184D01*
X138336276Y-92980999D01*
X138796000Y-92980999D01*
X138796000Y-92191501D01*
X138795999Y-92191500D01*
X139304000Y-92191500D01*
X139304000Y-92980998D01*
X139304001Y-92980999D01*
X139763721Y-92980999D01*
X139763734Y-92980998D01*
X139799488Y-92978186D01*
X139952593Y-92933704D01*
X139952595Y-92933703D01*
X140089816Y-92852550D01*
X140089819Y-92852548D01*
X140202548Y-92739819D01*
X140202550Y-92739816D01*
X140283703Y-92602595D01*
X140283708Y-92602586D01*
X140328183Y-92449501D01*
X140328184Y-92449498D01*
X140331000Y-92413723D01*
X140331000Y-92191501D01*
X140330999Y-92191500D01*
X139304000Y-92191500D01*
X138795999Y-92191500D01*
X137769002Y-92191500D01*
X137769001Y-92191501D01*
X137769001Y-92413734D01*
X125254500Y-92413734D01*
X125254500Y-91683499D01*
X137769000Y-91683499D01*
X137769001Y-91683500D01*
X138795999Y-91683500D01*
X138796000Y-91683499D01*
X139304000Y-91683499D01*
X139304001Y-91683500D01*
X140330998Y-91683500D01*
X140330999Y-91683499D01*
X140330999Y-91461278D01*
X140330998Y-91461265D01*
X140328185Y-91425511D01*
X140328186Y-91425511D01*
X140283704Y-91272406D01*
X140283703Y-91272404D01*
X140202550Y-91135183D01*
X140202548Y-91135180D01*
X140089819Y-91022451D01*
X140089816Y-91022449D01*
X139952595Y-90941296D01*
X139952586Y-90941291D01*
X139799501Y-90896816D01*
X139799498Y-90896815D01*
X139763724Y-90894000D01*
X139304001Y-90894000D01*
X139304000Y-90894001D01*
X139304000Y-91683499D01*
X138796000Y-91683499D01*
X138796000Y-91683498D01*
X138796000Y-90894000D01*
X138336278Y-90894000D01*
X138336265Y-90894001D01*
X138300511Y-90896813D01*
X138147406Y-90941295D01*
X138147404Y-90941296D01*
X138010183Y-91022449D01*
X138010180Y-91022451D01*
X137897451Y-91135180D01*
X137897449Y-91135183D01*
X137816296Y-91272404D01*
X137816291Y-91272413D01*
X137771816Y-91425498D01*
X137771815Y-91425501D01*
X137769000Y-91461276D01*
X137769000Y-91683499D01*
X125254500Y-91683499D01*
X125254500Y-79563734D01*
X128769001Y-79563734D01*
X128771814Y-79599488D01*
X128771813Y-79599488D01*
X128816295Y-79752593D01*
X128816296Y-79752595D01*
X128897449Y-79889816D01*
X128897451Y-79889819D01*
X129010180Y-80002548D01*
X129010183Y-80002550D01*
X129147404Y-80083703D01*
X129147413Y-80083708D01*
X129300498Y-80128183D01*
X129300501Y-80128184D01*
X129336276Y-80130999D01*
X129795999Y-80130999D01*
X129796000Y-79341501D01*
X129795999Y-79341500D01*
X130304000Y-79341500D01*
X130304000Y-80130998D01*
X130304001Y-80130999D01*
X130763721Y-80130999D01*
X130763734Y-80130998D01*
X130799488Y-80128186D01*
X130952593Y-80083704D01*
X130952595Y-80083703D01*
X131089816Y-80002550D01*
X131089819Y-80002548D01*
X131202548Y-79889819D01*
X131202550Y-79889816D01*
X131283703Y-79752595D01*
X131283708Y-79752586D01*
X131328183Y-79599501D01*
X131328184Y-79599498D01*
X131331000Y-79563723D01*
X131331000Y-79341500D01*
X130304000Y-79341500D01*
X129795999Y-79341500D01*
X128769002Y-79341500D01*
X128769001Y-79341501D01*
X128769001Y-79563734D01*
X125254500Y-79563734D01*
X125254500Y-78833498D01*
X128769000Y-78833498D01*
X128769001Y-78833500D01*
X129795999Y-78833500D01*
X129796000Y-78833499D01*
X130304000Y-78833499D01*
X130304001Y-78833500D01*
X131330998Y-78833500D01*
X131330998Y-78833499D01*
X131330999Y-78688722D01*
X138869000Y-78688722D01*
X138871815Y-78724497D01*
X138871816Y-78724500D01*
X138916292Y-78877588D01*
X138916293Y-78877589D01*
X138997445Y-79014811D01*
X138997447Y-79014814D01*
X139110185Y-79127552D01*
X139110188Y-79127554D01*
X139247410Y-79208706D01*
X139247411Y-79208707D01*
X139400499Y-79253183D01*
X139400502Y-79253184D01*
X139436277Y-79256000D01*
X139708499Y-79256000D01*
X139708500Y-79255999D01*
X140216500Y-79255999D01*
X140216501Y-79256000D01*
X140488723Y-79256000D01*
X140524497Y-79253184D01*
X140524500Y-79253183D01*
X140677588Y-79208707D01*
X140677589Y-79208706D01*
X140814811Y-79127554D01*
X140814814Y-79127552D01*
X140927552Y-79014814D01*
X140927554Y-79014811D01*
X141008706Y-78877589D01*
X141008707Y-78877588D01*
X141053183Y-78724500D01*
X141053184Y-78724497D01*
X141055996Y-78688768D01*
X141843500Y-78688768D01*
X141843501Y-78688776D01*
X141846316Y-78724564D01*
X141846317Y-78724570D01*
X141848008Y-78730391D01*
X141890832Y-78877792D01*
X141922649Y-78931592D01*
X141972049Y-79015123D01*
X141972050Y-79015124D01*
X141972052Y-79015127D01*
X142084873Y-79127948D01*
X142222208Y-79209168D01*
X142375427Y-79253682D01*
X142411231Y-79256500D01*
X143463768Y-79256499D01*
X143483795Y-79254923D01*
X143499564Y-79253683D01*
X143499567Y-79253682D01*
X143499573Y-79253682D01*
X143652792Y-79209168D01*
X143790127Y-79127948D01*
X143902948Y-79015127D01*
X143922223Y-78982534D01*
X143980228Y-78921319D01*
X144059052Y-78891331D01*
X144085332Y-78889500D01*
X144814667Y-78889500D01*
X144896888Y-78908266D01*
X144962824Y-78960849D01*
X144977772Y-78982528D01*
X144997051Y-79015127D01*
X145109873Y-79127949D01*
X145247208Y-79209168D01*
X145400426Y-79253682D01*
X145436230Y-79256500D01*
X145436231Y-79256500D01*
X146363769Y-79256500D01*
X146363770Y-79256500D01*
X146399574Y-79253682D01*
X146552792Y-79209168D01*
X146690127Y-79127949D01*
X146802949Y-79015127D01*
X146884168Y-78877792D01*
X146928682Y-78724574D01*
X146931500Y-78688770D01*
X146931500Y-77311230D01*
X146928682Y-77275426D01*
X146884168Y-77122208D01*
X146802949Y-76984873D01*
X146690127Y-76872051D01*
X146678395Y-76865113D01*
X146552794Y-76790833D01*
X146552793Y-76790832D01*
X146552792Y-76790832D01*
X146399574Y-76746318D01*
X146363770Y-76743500D01*
X145436230Y-76743500D01*
X145400451Y-76746316D01*
X145400426Y-76746318D01*
X145247205Y-76790833D01*
X145109875Y-76872049D01*
X145109873Y-76872051D01*
X144997051Y-76984873D01*
X144977776Y-77017464D01*
X144919772Y-77078680D01*
X144840949Y-77108669D01*
X144814667Y-77110500D01*
X144085332Y-77110500D01*
X144003111Y-77091734D01*
X143937175Y-77039151D01*
X143922226Y-77017470D01*
X143902948Y-76984873D01*
X143790127Y-76872052D01*
X143790124Y-76872050D01*
X143790123Y-76872049D01*
X143652794Y-76790833D01*
X143652793Y-76790832D01*
X143652792Y-76790832D01*
X143499573Y-76746318D01*
X143463769Y-76743500D01*
X143463767Y-76743500D01*
X142411231Y-76743500D01*
X142411223Y-76743501D01*
X142375435Y-76746316D01*
X142375429Y-76746317D01*
X142298817Y-76768574D01*
X142222208Y-76790832D01*
X142222206Y-76790832D01*
X142222206Y-76790833D01*
X142084876Y-76872049D01*
X141972049Y-76984876D01*
X141890833Y-77122205D01*
X141890832Y-77122207D01*
X141890832Y-77122208D01*
X141883901Y-77146064D01*
X141846318Y-77275426D01*
X141843500Y-77311232D01*
X141843500Y-78688768D01*
X141055996Y-78688768D01*
X141056000Y-78688722D01*
X141056000Y-78254001D01*
X141055999Y-78254000D01*
X140216501Y-78254000D01*
X140216500Y-78254001D01*
X140216500Y-79255999D01*
X139708500Y-79255999D01*
X139708500Y-79255998D01*
X139708500Y-78254001D01*
X139708499Y-78254000D01*
X138869001Y-78254000D01*
X138869000Y-78254001D01*
X138869000Y-78688722D01*
X131330999Y-78688722D01*
X131330999Y-78611278D01*
X131330998Y-78611265D01*
X131328185Y-78575511D01*
X131328186Y-78575511D01*
X131283704Y-78422406D01*
X131283703Y-78422404D01*
X131202550Y-78285183D01*
X131202548Y-78285180D01*
X131089819Y-78172451D01*
X131089816Y-78172449D01*
X130952595Y-78091296D01*
X130952586Y-78091291D01*
X130799501Y-78046816D01*
X130799498Y-78046815D01*
X130763724Y-78044000D01*
X130304001Y-78044000D01*
X130304000Y-78044001D01*
X130304000Y-78833499D01*
X129796000Y-78833499D01*
X129796000Y-78044000D01*
X129336278Y-78044000D01*
X129336265Y-78044001D01*
X129300511Y-78046813D01*
X129147406Y-78091295D01*
X129147404Y-78091296D01*
X129010183Y-78172449D01*
X129010180Y-78172451D01*
X128897451Y-78285180D01*
X128897449Y-78285183D01*
X128816296Y-78422404D01*
X128816291Y-78422413D01*
X128771816Y-78575498D01*
X128771815Y-78575501D01*
X128769000Y-78611276D01*
X128769000Y-78833498D01*
X125254500Y-78833498D01*
X125254500Y-77745998D01*
X138869000Y-77745998D01*
X138869001Y-77746000D01*
X139708499Y-77746000D01*
X139708500Y-77745999D01*
X139708500Y-76744000D01*
X140216500Y-76744000D01*
X140216500Y-77745999D01*
X140216501Y-77746000D01*
X141055999Y-77746000D01*
X141056000Y-77745998D01*
X141056000Y-77311277D01*
X141053184Y-77275502D01*
X141053183Y-77275499D01*
X141008707Y-77122411D01*
X141008706Y-77122410D01*
X140927554Y-76985188D01*
X140927552Y-76985185D01*
X140814814Y-76872447D01*
X140814811Y-76872445D01*
X140677589Y-76791293D01*
X140677588Y-76791292D01*
X140524500Y-76746816D01*
X140524497Y-76746815D01*
X140488723Y-76744000D01*
X140216500Y-76744000D01*
X139708500Y-76744000D01*
X139436277Y-76744000D01*
X139400502Y-76746815D01*
X139400499Y-76746816D01*
X139247411Y-76791292D01*
X139247410Y-76791293D01*
X139110188Y-76872445D01*
X139110185Y-76872447D01*
X138997447Y-76985185D01*
X138997445Y-76985188D01*
X138916293Y-77122410D01*
X138916292Y-77122411D01*
X138871816Y-77275499D01*
X138871815Y-77275502D01*
X138869000Y-77311277D01*
X138869000Y-77745998D01*
X125254500Y-77745998D01*
X125254500Y-75688722D01*
X138869000Y-75688722D01*
X138871815Y-75724497D01*
X138871816Y-75724500D01*
X138916292Y-75877588D01*
X138916293Y-75877589D01*
X138997445Y-76014811D01*
X138997447Y-76014814D01*
X139110185Y-76127552D01*
X139110188Y-76127554D01*
X139247410Y-76208706D01*
X139247411Y-76208707D01*
X139400499Y-76253183D01*
X139400502Y-76253184D01*
X139436277Y-76256000D01*
X139708499Y-76256000D01*
X139708500Y-76255999D01*
X140216500Y-76255999D01*
X140216501Y-76256000D01*
X140488723Y-76256000D01*
X140524497Y-76253184D01*
X140524500Y-76253183D01*
X140677588Y-76208707D01*
X140677589Y-76208706D01*
X140814811Y-76127554D01*
X140814814Y-76127552D01*
X140927552Y-76014814D01*
X140927554Y-76014811D01*
X141008706Y-75877589D01*
X141008707Y-75877588D01*
X141053183Y-75724500D01*
X141053184Y-75724497D01*
X141055996Y-75688768D01*
X141843500Y-75688768D01*
X141843501Y-75688776D01*
X141846316Y-75724564D01*
X141846317Y-75724570D01*
X141846318Y-75724573D01*
X141890832Y-75877792D01*
X141922649Y-75931592D01*
X141972049Y-76015123D01*
X141972050Y-76015124D01*
X141972052Y-76015127D01*
X142084873Y-76127948D01*
X142222208Y-76209168D01*
X142375427Y-76253682D01*
X142411231Y-76256500D01*
X143463768Y-76256499D01*
X143483795Y-76254923D01*
X143499564Y-76253683D01*
X143499567Y-76253682D01*
X143499573Y-76253682D01*
X143652792Y-76209168D01*
X143790127Y-76127948D01*
X143902948Y-76015127D01*
X143922223Y-75982534D01*
X143980228Y-75921319D01*
X144059052Y-75891331D01*
X144085332Y-75889500D01*
X144814667Y-75889500D01*
X144896888Y-75908266D01*
X144962824Y-75960849D01*
X144977772Y-75982528D01*
X144997051Y-76015127D01*
X145109873Y-76127949D01*
X145247208Y-76209168D01*
X145400426Y-76253682D01*
X145436230Y-76256500D01*
X145436231Y-76256500D01*
X146363769Y-76256500D01*
X146363770Y-76256500D01*
X146399574Y-76253682D01*
X146552792Y-76209168D01*
X146690127Y-76127949D01*
X146802949Y-76015127D01*
X146884168Y-75877792D01*
X146928682Y-75724574D01*
X146931500Y-75688770D01*
X146931500Y-74311230D01*
X146928682Y-74275426D01*
X146884168Y-74122208D01*
X146802949Y-73984873D01*
X146690127Y-73872051D01*
X146552792Y-73790832D01*
X146399574Y-73746318D01*
X146363770Y-73743500D01*
X145436230Y-73743500D01*
X145429865Y-73744001D01*
X145400426Y-73746318D01*
X145247205Y-73790833D01*
X145109875Y-73872049D01*
X145109873Y-73872051D01*
X144997051Y-73984873D01*
X144977776Y-74017464D01*
X144919772Y-74078680D01*
X144840949Y-74108669D01*
X144814667Y-74110500D01*
X144085332Y-74110500D01*
X144003111Y-74091734D01*
X143937175Y-74039151D01*
X143922226Y-74017470D01*
X143902948Y-73984873D01*
X143790127Y-73872052D01*
X143790124Y-73872050D01*
X143790123Y-73872049D01*
X143652794Y-73790833D01*
X143652793Y-73790832D01*
X143652792Y-73790832D01*
X143499573Y-73746318D01*
X143463769Y-73743500D01*
X143463767Y-73743500D01*
X142411231Y-73743500D01*
X142411223Y-73743501D01*
X142375435Y-73746316D01*
X142375429Y-73746317D01*
X142298817Y-73768574D01*
X142222208Y-73790832D01*
X142222206Y-73790832D01*
X142222206Y-73790833D01*
X142084876Y-73872049D01*
X141972049Y-73984876D01*
X141890833Y-74122205D01*
X141890832Y-74122207D01*
X141890832Y-74122208D01*
X141888294Y-74130945D01*
X141846318Y-74275426D01*
X141843500Y-74311232D01*
X141843500Y-75688768D01*
X141055996Y-75688768D01*
X141056000Y-75688722D01*
X141056000Y-75254001D01*
X141055999Y-75254000D01*
X140216501Y-75254000D01*
X140216500Y-75254001D01*
X140216500Y-76255999D01*
X139708500Y-76255999D01*
X139708500Y-75254001D01*
X139708499Y-75254000D01*
X138869001Y-75254000D01*
X138869000Y-75254001D01*
X138869000Y-75688722D01*
X125254500Y-75688722D01*
X125254500Y-74745999D01*
X138869000Y-74745999D01*
X138869001Y-74746000D01*
X139708499Y-74746000D01*
X139708500Y-74745999D01*
X139708500Y-73744001D01*
X139708499Y-73744000D01*
X140216500Y-73744000D01*
X140216500Y-74745999D01*
X140216501Y-74746000D01*
X141055999Y-74746000D01*
X141056000Y-74745999D01*
X141056000Y-74311277D01*
X141053184Y-74275502D01*
X141053183Y-74275499D01*
X141008707Y-74122411D01*
X141008706Y-74122410D01*
X140927554Y-73985188D01*
X140927552Y-73985185D01*
X140814814Y-73872447D01*
X140814811Y-73872445D01*
X140677589Y-73791293D01*
X140677588Y-73791292D01*
X140524500Y-73746816D01*
X140524497Y-73746815D01*
X140488723Y-73744000D01*
X140216500Y-73744000D01*
X139708499Y-73744000D01*
X139436277Y-73744000D01*
X139400502Y-73746815D01*
X139400499Y-73746816D01*
X139247411Y-73791292D01*
X139247410Y-73791293D01*
X139110188Y-73872445D01*
X139110185Y-73872447D01*
X138997447Y-73985185D01*
X138997445Y-73985188D01*
X138916293Y-74122410D01*
X138916292Y-74122411D01*
X138871816Y-74275499D01*
X138871815Y-74275502D01*
X138869000Y-74311277D01*
X138869000Y-74745999D01*
X125254500Y-74745999D01*
X125254500Y-72688722D01*
X138869000Y-72688722D01*
X138871815Y-72724497D01*
X138871816Y-72724500D01*
X138916292Y-72877588D01*
X138916293Y-72877589D01*
X138997445Y-73014811D01*
X138997447Y-73014814D01*
X139110185Y-73127552D01*
X139110188Y-73127554D01*
X139247410Y-73208706D01*
X139247411Y-73208707D01*
X139400499Y-73253183D01*
X139400502Y-73253184D01*
X139436277Y-73256000D01*
X139708499Y-73256000D01*
X139708500Y-73255999D01*
X140216500Y-73255999D01*
X140216501Y-73256000D01*
X140488723Y-73256000D01*
X140524497Y-73253184D01*
X140524500Y-73253183D01*
X140677588Y-73208707D01*
X140677589Y-73208706D01*
X140814811Y-73127554D01*
X140814814Y-73127552D01*
X140927552Y-73014814D01*
X140927554Y-73014811D01*
X141008706Y-72877589D01*
X141008707Y-72877588D01*
X141053183Y-72724500D01*
X141053184Y-72724497D01*
X141055996Y-72688768D01*
X141843500Y-72688768D01*
X141843501Y-72688776D01*
X141846316Y-72724564D01*
X141846317Y-72724570D01*
X141846318Y-72724573D01*
X141890832Y-72877792D01*
X141917326Y-72922590D01*
X141972049Y-73015123D01*
X141972050Y-73015124D01*
X141972052Y-73015127D01*
X142084873Y-73127948D01*
X142222208Y-73209168D01*
X142375427Y-73253682D01*
X142411231Y-73256500D01*
X143463768Y-73256499D01*
X143483795Y-73254923D01*
X143499564Y-73253683D01*
X143499567Y-73253682D01*
X143499573Y-73253682D01*
X143652792Y-73209168D01*
X143790127Y-73127948D01*
X143902948Y-73015127D01*
X143922223Y-72982534D01*
X143980228Y-72921319D01*
X144059052Y-72891331D01*
X144085332Y-72889500D01*
X144814667Y-72889500D01*
X144896888Y-72908266D01*
X144962824Y-72960849D01*
X144977772Y-72982528D01*
X144997051Y-73015127D01*
X145109873Y-73127949D01*
X145247208Y-73209168D01*
X145400426Y-73253682D01*
X145436230Y-73256500D01*
X145436231Y-73256500D01*
X146363769Y-73256500D01*
X146363770Y-73256500D01*
X146399574Y-73253682D01*
X146552792Y-73209168D01*
X146690127Y-73127949D01*
X146802949Y-73015127D01*
X146884168Y-72877792D01*
X146928682Y-72724574D01*
X146931500Y-72688770D01*
X146931500Y-71311230D01*
X146928682Y-71275426D01*
X146884168Y-71122208D01*
X146802949Y-70984873D01*
X146690127Y-70872051D01*
X146552792Y-70790832D01*
X146399574Y-70746318D01*
X146363770Y-70743500D01*
X145436230Y-70743500D01*
X145429865Y-70744001D01*
X145400426Y-70746318D01*
X145247205Y-70790833D01*
X145109875Y-70872049D01*
X145109873Y-70872051D01*
X144997051Y-70984873D01*
X144977776Y-71017464D01*
X144919772Y-71078680D01*
X144840949Y-71108669D01*
X144814667Y-71110500D01*
X144085332Y-71110500D01*
X144003111Y-71091734D01*
X143937175Y-71039151D01*
X143922226Y-71017470D01*
X143902948Y-70984873D01*
X143790127Y-70872052D01*
X143790124Y-70872050D01*
X143790123Y-70872049D01*
X143652794Y-70790833D01*
X143652793Y-70790832D01*
X143652792Y-70790832D01*
X143499573Y-70746318D01*
X143463769Y-70743500D01*
X143463767Y-70743500D01*
X142411231Y-70743500D01*
X142411223Y-70743501D01*
X142375435Y-70746316D01*
X142375429Y-70746317D01*
X142298817Y-70768574D01*
X142222208Y-70790832D01*
X142222206Y-70790832D01*
X142222206Y-70790833D01*
X142084876Y-70872049D01*
X141972049Y-70984876D01*
X141890833Y-71122205D01*
X141890832Y-71122207D01*
X141890832Y-71122208D01*
X141883901Y-71146064D01*
X141846318Y-71275426D01*
X141843500Y-71311232D01*
X141843500Y-72688768D01*
X141055996Y-72688768D01*
X141056000Y-72688722D01*
X141056000Y-72254001D01*
X141055999Y-72254000D01*
X140216501Y-72254000D01*
X140216500Y-72254001D01*
X140216500Y-73255999D01*
X139708500Y-73255999D01*
X139708500Y-72254001D01*
X139708499Y-72254000D01*
X138869001Y-72254000D01*
X138869000Y-72254001D01*
X138869000Y-72688722D01*
X125254500Y-72688722D01*
X125254500Y-71745999D01*
X138869000Y-71745999D01*
X138869001Y-71746000D01*
X139708499Y-71746000D01*
X139708500Y-71745999D01*
X140216500Y-71745999D01*
X140216501Y-71746000D01*
X141055999Y-71746000D01*
X141056000Y-71745999D01*
X141056000Y-71311277D01*
X141053184Y-71275502D01*
X141053183Y-71275499D01*
X141008707Y-71122411D01*
X141008706Y-71122410D01*
X140927554Y-70985188D01*
X140927552Y-70985185D01*
X140814814Y-70872447D01*
X140814811Y-70872445D01*
X140677589Y-70791293D01*
X140677588Y-70791292D01*
X140524500Y-70746816D01*
X140524497Y-70746815D01*
X140488723Y-70744000D01*
X140216501Y-70744000D01*
X140216500Y-70744001D01*
X140216500Y-71745999D01*
X139708500Y-71745999D01*
X139708500Y-71745998D01*
X139708500Y-70744001D01*
X139708499Y-70744000D01*
X139436277Y-70744000D01*
X139400502Y-70746815D01*
X139400499Y-70746816D01*
X139247411Y-70791292D01*
X139247410Y-70791293D01*
X139110188Y-70872445D01*
X139110185Y-70872447D01*
X138997447Y-70985185D01*
X138997445Y-70985188D01*
X138916293Y-71122410D01*
X138916292Y-71122411D01*
X138871816Y-71275499D01*
X138871815Y-71275502D01*
X138869000Y-71311277D01*
X138869000Y-71745999D01*
X125254500Y-71745999D01*
X125254500Y-69688722D01*
X138869000Y-69688722D01*
X138871815Y-69724497D01*
X138871816Y-69724500D01*
X138916292Y-69877588D01*
X138916293Y-69877589D01*
X138997445Y-70014811D01*
X138997447Y-70014814D01*
X139110185Y-70127552D01*
X139110188Y-70127554D01*
X139247410Y-70208706D01*
X139247411Y-70208707D01*
X139400499Y-70253183D01*
X139400502Y-70253184D01*
X139436277Y-70256000D01*
X139708499Y-70256000D01*
X139708500Y-70255999D01*
X139708500Y-69254001D01*
X139708499Y-69254000D01*
X140216500Y-69254000D01*
X140216500Y-70255999D01*
X140216501Y-70256000D01*
X140488723Y-70256000D01*
X140524497Y-70253184D01*
X140524500Y-70253183D01*
X140677588Y-70208707D01*
X140677589Y-70208706D01*
X140814811Y-70127554D01*
X140814814Y-70127552D01*
X140927552Y-70014814D01*
X140927554Y-70014811D01*
X141008706Y-69877589D01*
X141008707Y-69877588D01*
X141053183Y-69724500D01*
X141053184Y-69724497D01*
X141055996Y-69688768D01*
X141843500Y-69688768D01*
X141843501Y-69688776D01*
X141846316Y-69724564D01*
X141846317Y-69724570D01*
X141846318Y-69724573D01*
X141890832Y-69877792D01*
X141922649Y-69931592D01*
X141972049Y-70015123D01*
X141972050Y-70015124D01*
X141972052Y-70015127D01*
X142084873Y-70127948D01*
X142222208Y-70209168D01*
X142375427Y-70253682D01*
X142411231Y-70256500D01*
X143463768Y-70256499D01*
X143483795Y-70254923D01*
X143499564Y-70253683D01*
X143499567Y-70253682D01*
X143499573Y-70253682D01*
X143652792Y-70209168D01*
X143790127Y-70127948D01*
X143902948Y-70015127D01*
X143922223Y-69982534D01*
X143980228Y-69921319D01*
X144059052Y-69891331D01*
X144085332Y-69889500D01*
X144814667Y-69889500D01*
X144896888Y-69908266D01*
X144962824Y-69960849D01*
X144977772Y-69982528D01*
X144997051Y-70015127D01*
X145109873Y-70127949D01*
X145247208Y-70209168D01*
X145400426Y-70253682D01*
X145436230Y-70256500D01*
X145436231Y-70256500D01*
X146363769Y-70256500D01*
X146363770Y-70256500D01*
X146399574Y-70253682D01*
X146552792Y-70209168D01*
X146690127Y-70127949D01*
X146802949Y-70015127D01*
X146884168Y-69877792D01*
X146928682Y-69724574D01*
X146931500Y-69688770D01*
X146931500Y-68311230D01*
X146928682Y-68275426D01*
X146884168Y-68122208D01*
X146802949Y-67984873D01*
X146690127Y-67872051D01*
X146629015Y-67835910D01*
X146552794Y-67790833D01*
X146552793Y-67790832D01*
X146552792Y-67790832D01*
X146399574Y-67746318D01*
X146363770Y-67743500D01*
X145436230Y-67743500D01*
X145429865Y-67744001D01*
X145400426Y-67746318D01*
X145247205Y-67790833D01*
X145109875Y-67872049D01*
X145109873Y-67872051D01*
X144997051Y-67984873D01*
X144977776Y-68017464D01*
X144919772Y-68078680D01*
X144840949Y-68108669D01*
X144814667Y-68110500D01*
X144085332Y-68110500D01*
X144003111Y-68091734D01*
X143937175Y-68039151D01*
X143922226Y-68017470D01*
X143902948Y-67984873D01*
X143790127Y-67872052D01*
X143790124Y-67872050D01*
X143790123Y-67872049D01*
X143652794Y-67790833D01*
X143652793Y-67790832D01*
X143652792Y-67790832D01*
X143499573Y-67746318D01*
X143463769Y-67743500D01*
X143463767Y-67743500D01*
X142411231Y-67743500D01*
X142411223Y-67743501D01*
X142375435Y-67746316D01*
X142375429Y-67746317D01*
X142298817Y-67768574D01*
X142222208Y-67790832D01*
X142222206Y-67790832D01*
X142222206Y-67790833D01*
X142084876Y-67872049D01*
X141972049Y-67984876D01*
X141890833Y-68122205D01*
X141890832Y-68122207D01*
X141890832Y-68122208D01*
X141883901Y-68146064D01*
X141846318Y-68275426D01*
X141843500Y-68311232D01*
X141843500Y-69688768D01*
X141055996Y-69688768D01*
X141056000Y-69688722D01*
X141056000Y-69254001D01*
X141055999Y-69254000D01*
X140216500Y-69254000D01*
X139708499Y-69254000D01*
X138869001Y-69254000D01*
X138869000Y-69254001D01*
X138869000Y-69688722D01*
X125254500Y-69688722D01*
X125254500Y-68745998D01*
X138869000Y-68745998D01*
X138869001Y-68746000D01*
X139708499Y-68746000D01*
X139708500Y-68745999D01*
X140216500Y-68745999D01*
X140216501Y-68746000D01*
X141055999Y-68746000D01*
X141056000Y-68745999D01*
X141056000Y-68311277D01*
X141053184Y-68275502D01*
X141053183Y-68275499D01*
X141008707Y-68122411D01*
X141008706Y-68122410D01*
X140927554Y-67985188D01*
X140927552Y-67985185D01*
X140814814Y-67872447D01*
X140814811Y-67872445D01*
X140677589Y-67791293D01*
X140677588Y-67791292D01*
X140524500Y-67746816D01*
X140524497Y-67746815D01*
X140488723Y-67744000D01*
X140216501Y-67744000D01*
X140216500Y-67744001D01*
X140216500Y-68745999D01*
X139708500Y-68745999D01*
X139708500Y-67744001D01*
X139708499Y-67744000D01*
X139436277Y-67744000D01*
X139400502Y-67746815D01*
X139400499Y-67746816D01*
X139247411Y-67791292D01*
X139247410Y-67791293D01*
X139110188Y-67872445D01*
X139110185Y-67872447D01*
X138997447Y-67985185D01*
X138997445Y-67985188D01*
X138916293Y-68122410D01*
X138916292Y-68122411D01*
X138871816Y-68275499D01*
X138871815Y-68275502D01*
X138869000Y-68311277D01*
X138869000Y-68745998D01*
X125254500Y-68745998D01*
X125254500Y-67000000D01*
X126994659Y-67000000D01*
X127013976Y-67196136D01*
X127071185Y-67384727D01*
X127164088Y-67558535D01*
X127164090Y-67558538D01*
X127289117Y-67710883D01*
X127441462Y-67835910D01*
X127441464Y-67835911D01*
X127615272Y-67928814D01*
X127803863Y-67986023D01*
X127803865Y-67986023D01*
X127803868Y-67986024D01*
X128000000Y-68005341D01*
X128196132Y-67986024D01*
X128196134Y-67986023D01*
X128196136Y-67986023D01*
X128384727Y-67928814D01*
X128384726Y-67928813D01*
X128558538Y-67835910D01*
X128710883Y-67710883D01*
X128835910Y-67558538D01*
X128928814Y-67384727D01*
X128986024Y-67196132D01*
X129005341Y-67000000D01*
X170994659Y-67000000D01*
X171013976Y-67196136D01*
X171071185Y-67384727D01*
X171164088Y-67558535D01*
X171164090Y-67558538D01*
X171289117Y-67710883D01*
X171441462Y-67835910D01*
X171441464Y-67835911D01*
X171615272Y-67928814D01*
X171803863Y-67986023D01*
X171803865Y-67986023D01*
X171803868Y-67986024D01*
X172000000Y-68005341D01*
X172196132Y-67986024D01*
X172196134Y-67986023D01*
X172196136Y-67986023D01*
X172384727Y-67928814D01*
X172558538Y-67835910D01*
X172710883Y-67710883D01*
X172835910Y-67558538D01*
X172928814Y-67384727D01*
X172986024Y-67196132D01*
X173005341Y-67000000D01*
X172986024Y-66803868D01*
X172986023Y-66803865D01*
X172986023Y-66803863D01*
X172928814Y-66615272D01*
X172835911Y-66441464D01*
X172835910Y-66441462D01*
X172710883Y-66289117D01*
X172558538Y-66164090D01*
X172558536Y-66164089D01*
X172558535Y-66164088D01*
X172384727Y-66071185D01*
X172196136Y-66013976D01*
X172000000Y-65994659D01*
X171803863Y-66013976D01*
X171615272Y-66071185D01*
X171441464Y-66164088D01*
X171289120Y-66289114D01*
X171289114Y-66289120D01*
X171164088Y-66441464D01*
X171071185Y-66615272D01*
X171013976Y-66803863D01*
X170994659Y-67000000D01*
X129005341Y-67000000D01*
X128986024Y-66803868D01*
X128986023Y-66803865D01*
X128986023Y-66803863D01*
X128928814Y-66615272D01*
X128835911Y-66441464D01*
X128835910Y-66441462D01*
X128710883Y-66289117D01*
X128558538Y-66164090D01*
X128558536Y-66164089D01*
X128558535Y-66164088D01*
X128384727Y-66071185D01*
X128196136Y-66013976D01*
X128000000Y-65994659D01*
X127803863Y-66013976D01*
X127615272Y-66071185D01*
X127441464Y-66164088D01*
X127289120Y-66289114D01*
X127289114Y-66289120D01*
X127164088Y-66441464D01*
X127071185Y-66615272D01*
X127013976Y-66803863D01*
X126994659Y-67000000D01*
X125254500Y-67000000D01*
X125254500Y-64444000D01*
X125273266Y-64361779D01*
X125325849Y-64295843D01*
X125401832Y-64259251D01*
X125444000Y-64254500D01*
X174556000Y-64254500D01*
X174638221Y-64273266D01*
G37*
%TD.AperFunction*%
%TD*%
M02*
