<?xml version="1.0" standalone="no"?>
<!DOCTYPE svg PUBLIC "-//W3C//DTD SVG 1.1//EN"
"http://www.w3.org/Graphics/SVG/1.1/DTD/svg11.dtd">
<svg width="197.669" height="174.992" viewBox="0 0 4118.11 3645.67" version="1.1"
xmlns="http://www.w3.org/2000/svg"
xmlns:xlink="http://www.w3.org/1999/xlink">
<g fill-rule="evenodd"><path d="M 110.589,3520.16 L 110.589,125.511 L 112.067,119.037 L 116.207,113.845 L 122.191,110.963 L 125.511,110.589 L 3992.6,110.589 L 3999.07,112.067 L 4004.26,116.207 L 4007.15,122.191 L 4007.52,125.511 L 4007.52,1414.21 L 4006.04,1420.69 L 4001.9,1425.88 L 3995.92,1428.76 L 3992.6,1429.13 L 3914.37,1429.13 L 3907.89,1427.66 L 3902.7,1423.52 L 3899.82,1417.53 L 3896.44,1400.1 L 3889.9,1382.77 L 3880.53,1366.8 L 3868.59,1352.65 L 3866.74,1351.08 L 3862.74,1345.78 L 3861.44,1339.67 L 3861.44,825.643 L 3861.73,822.641 L 3860.96,807.939 L 3860.28,804.313 L 3857.14,793.717 L 3855.73,790.311 L 3850.46,780.599 L 3848.37,777.561 L 3838.52,766.619 L 3836.19,764.701 L 3510.95,439.453 L 3509.03,437.127 L 3498.09,427.275 L 3495.05,425.187 L 3485.34,419.915 L 3481.93,418.503 L 3471.33,415.365 L 3467.71,414.693 L 3453.01,413.923 L 3450.01,414.211 L 2065.77,414.211 L 2059.3,412.733 L 2054.11,408.593 L 2051.41,404.319 L 2042.53,395.435 L 2031.72,389.041 L 2019.65,385.535 L 2016.83,385.313 L 1943.8,385.313 L 1940.98,385.535 L 1928.91,389.041 L 1918.1,395.435 L 1909.22,404.319 L 1902.82,415.133 L 1899.32,427.197 L 1899.09,430.017 L 1899.09,538.485 L 1899.32,541.297 L 1902.82,553.369 L 1909.22,564.181 L 1918.1,573.065 L 1928.91,579.461 L 1940.98,582.965 L 1943.8,583.187 L 2016.83,583.187 L 2019.65,582.965 L 2031.72,579.461 L 2042.53,573.065 L 2051.41,564.183 L 2052.93,561.615 L 2057.5,556.795 L 2063.7,554.435 L 2065.77,554.291 L 3421.5,554.291 L 3427.97,555.767 L 3432.05,558.661 L 3716.99,843.597 L 3720.52,849.219 L 3721.36,854.147 L 3721.36,1339.67 L 3719.88,1346.15 L 3716.05,1351.08 L 3714.2,1352.65 L 3702.8,1366.16 L 3697.5,1370.16 L 3690.99,1371.46 L 3684.56,1369.81 L 3679.99,1366.16 L 3668.59,1352.65 L 3666.74,1351.08 L 3662.74,1345.78 L 3661.44,1339.67 L 3661.44,940.603 L 3661.73,937.601 L 3660.96,922.899 L 3660.28,919.275 L 3657.14,908.679 L 3655.73,905.271 L 3650.46,895.559 L 3648.37,892.521 L 3638.52,881.581 L 3636.19,879.663 L 3432.21,675.675 L 3430.29,673.347 L 3419.35,663.495 L 3416.31,661.407 L 3406.6,656.135 L 3403.19,654.723 L 3392.59,651.585 L 3388.97,650.913 L 3374.27,650.143 L 3371.27,650.431 L 2065.77,650.431 L 2059.3,648.955 L 2054.11,644.813 L 2051.41,640.541 L 2042.53,631.657 L 2031.72,625.261 L 2019.65,621.757 L 2016.83,621.535 L 1943.8,621.535 L 1940.98,621.757 L 1928.91,625.261 L 1918.1,631.657 L 1909.22,640.541 L 1902.82,651.353 L 1899.32,663.419 L 1899.09,666.237 L 1899.09,774.705 L 1899.32,777.525 L 1902.82,789.589 L 1909.22,800.403 L 1918.1,809.287 L 1928.91,815.681 L 1940.98,819.187 L 1943.8,819.409 L 2016.83,819.409 L 2019.65,819.187 L 2031.72,815.681 L 2042.53,809.287 L 2051.41,800.403 L 2052.93,797.837 L 2057.5,793.017 L 2063.7,790.655 L 2065.77,790.511 L 3342.76,790.511 L 3349.23,791.989 L 3353.31,794.881 L 3516.99,958.557 L 3520.52,964.179 L 3521.36,969.109 L 3521.36,1339.67 L 3519.88,1346.15 L 3516.05,1351.08 L 3514.2,1352.65 L 3502.8,1366.16 L 3497.5,1370.16 L 3490.99,1371.46 L 3484.56,1369.81 L 3479.99,1366.16 L 3468.59,1352.65 L 3466.74,1351.08 L 3462.74,1345.78 L 3461.44,1339.67 L 3461.44,1138.24 L 3461.73,1135.24 L 3461.44,1127.88 L 3460.96,1120.54 L 3460.28,1116.91 L 3457.14,1106.32 L 3455.73,1102.91 L 3450.46,1093.2 L 3448.37,1090.16 L 3438.52,1079.22 L 3436.19,1077.3 L 3270.79,911.895 L 3268.87,909.569 L 3257.93,899.717 L 3254.89,897.629 L 3245.18,892.355 L 3241.77,890.945 L 3231.18,887.805 L 3227.55,887.133 L 3212.85,886.363 L 3209.85,886.653 L 2065.77,886.653 L 2059.3,885.175 L 2054.11,881.035 L 2051.41,876.761 L 2042.53,867.877 L 2031.72,861.481 L 2019.65,857.977 L 2016.83,857.755 L 1943.8,857.755 L 1940.98,857.977 L 1928.91,861.481 L 1918.1,867.877 L 1909.22,876.761 L 1902.82,887.575 L 1899.32,899.639 L 1899.09,902.457 L 1899.09,1010.93 L 1899.32,1013.74 L 1902.82,1025.81 L 1909.22,1036.62 L 1918.1,1045.51 L 1928.91,1051.9 L 1940.98,1055.41 L 1943.8,1055.63 L 2016.83,1055.63 L 2019.65,1055.41 L 2031.72,1051.9 L 2042.53,1045.51 L 2051.41,1036.62 L 2052.93,1034.06 L 2057.5,1029.24 L 2063.7,1026.88 L 2065.77,1026.73 L 3181.34,1026.73 L 3187.82,1028.21 L 3191.89,1031.1 L 3316.99,1156.2 L 3320.52,1161.82 L 3321.36,1166.75 L 3321.36,1339.67 L 3319.88,1346.15 L 3316.05,1351.08 L 3314.2,1352.65 L 3302.8,1366.16 L 3297.5,1370.16 L 3290.99,1371.46 L 3284.56,1369.81 L 3279.99,1366.16 L 3268.59,1352.65 L 3266.74,1351.08 L 3262.74,1345.78 L 3261.44,1339.67 L 3261.44,1276.82 L 3261.73,1273.82 L 3260.96,1259.12 L 3260.28,1255.5 L 3257.14,1244.9 L 3255.73,1241.49 L 3250.46,1231.78 L 3248.37,1228.74 L 3238.52,1217.8 L 3236.19,1215.88 L 3168.43,1148.12 L 3166.51,1145.79 L 3155.57,1135.94 L 3152.53,1133.85 L 3142.82,1128.58 L 3139.41,1127.17 L 3128.81,1124.03 L 3125.19,1123.36 L 3110.49,1122.58 L 3107.49,1122.87 L 2065.77,1122.87 L 2059.3,1121.4 L 2054.11,1117.26 L 2051.41,1112.98 L 2042.53,1104.1 L 2031.72,1097.7 L 2019.65,1094.2 L 2016.83,1093.98 L 1943.8,1093.98 L 1940.98,1094.2 L 1928.91,1097.7 L 1918.1,1104.1 L 1909.22,1112.98 L 1902.82,1123.8 L 1899.32,1135.86 L 1899.09,1138.68 L 1899.09,1247.15 L 1899.32,1249.97 L 1902.82,1262.03 L 1909.22,1272.84 L 1918.1,1281.73 L 1928.91,1288.12 L 1940.98,1291.63 L 1943.8,1291.85 L 2016.83,1291.85 L 2019.65,1291.63 L 2031.72,1288.12 L 2042.53,1281.73 L 2051.41,1272.84 L 2052.93,1270.28 L 2057.5,1265.46 L 2063.7,1263.1 L 2065.77,1262.95 L 3078.98,1262.95 L 3085.45,1264.43 L 3089.53,1267.32 L 3116.99,1294.78 L 3120.52,1300.4 L 3121.36,1305.33 L 3121.36,1339.67 L 3119.88,1346.15 L 3116.05,1351.08 L 3114.2,1352.65 L 3102.8,1366.16 L 3097.5,1370.16 L 3090.99,1371.46 L 3084.56,1369.81 L 3079.99,1366.16 L 3068.59,1352.65 L 3054.44,1340.71 L 3038.47,1331.34 L 3021.14,1324.8 L 3002.96,1321.28 L 2998.8,1321.06 L 2979.83,1321.28 L 2961.65,1324.8 L 2944.33,1331.34 L 2928.36,1340.71 L 2914.2,1352.65 L 2902.8,1366.16 L 2897.5,1370.16 L 2890.99,1371.46 L 2884.56,1369.81 L 2879.99,1366.16 L 2868.59,1352.65 L 2854.44,1340.71 L 2838.47,1331.34 L 2821.14,1324.8 L 2802.96,1321.28 L 2798.8,1321.06 L 2779.83,1321.28 L 2761.65,1324.8 L 2744.33,1331.34 L 2728.36,1340.71 L 2714.2,1352.65 L 2702.8,1366.16 L 2697.5,1370.16 L 2690.99,1371.46 L 2684.56,1369.81 L 2679.99,1366.16 L 2668.59,1352.65 L 2654.44,1340.71 L 2638.47,1331.34 L 2621.14,1324.8 L 2602.96,1321.28 L 2598.8,1321.06 L 2579.83,1321.28 L 2561.65,1324.8 L 2544.33,1331.34 L 2528.36,1340.71 L 2514.2,1352.65 L 2502.26,1366.8 L 2492.89,1382.77 L 2490.29,1389.68 L 2486.62,1395.21 L 2480.91,1398.61 L 2476.33,1399.33 L 1821.68,1399.33 L 1817.98,1398.95 L 1812.72,1399.33 L 1803.11,1400.3 L 1790.67,1404.59 L 1778.01,1412.45 L 1731.47,1459.21 L 1725.85,1462.75 L 1720.92,1463.58 L 1366.58,1463.58 L 1360.1,1462.1 L 1356.28,1459.47 L 1347.27,1455.06 L 1341.43,1454.21 L 1154.63,1454.21 L 1148.79,1455.06 L 1139.78,1459.47 L 1132.69,1466.56 L 1128.29,1475.56 L 1127.44,1481.4 L 1127.44,1565.84 L 1128.29,1571.68 L 1132.69,1580.69 L 1139.78,1587.78 L 1148.79,1592.18 L 1154.63,1593.03 L 1341.43,1593.03 L 1347.27,1592.18 L 1356.28,1587.78 L 1361.65,1584.5 L 1366.58,1583.66 L 1746.51,1583.66 L 1750.21,1584.04 L 1764.19,1582.82 L 1778.3,1578.04 L 1790.17,1570.54 L 1836.72,1523.78 L 1842.34,1520.25 L 1847.27,1519.41 L 2319.72,1519.41 L 2326.2,1520.89 L 2331.39,1525.03 L 2334.27,1531.01 L 2334.65,1534.33 L 2334.65,1716.38 L 2333.17,1722.85 L 2329.03,1728.04 L 2323.04,1730.93 L 2319.72,1731.3 L 1855.85,1731.3 L 1852.15,1730.92 L 1838.17,1732.14 L 1836.45,1732.52 L 1824.04,1736.87 L 1812.17,1744.43 L 1597.61,1959.21 L 1591.99,1962.75 L 1587.06,1963.58 L 688.529,1963.58 L 682.055,1962.1 L 677.977,1959.21 L 552.597,1833.83 L 549.065,1828.21 L 548.227,1823.28 L 548.227,1617.5 L 549.705,1611.02 L 553.845,1605.83 L 559.273,1603.08 L 570.087,1596.69 L 577.761,1589.02 L 583.383,1585.48 L 588.311,1584.65 L 681.797,1584.65 L 688.271,1586.12 L 690.963,1587.78 L 699.969,1592.18 L 705.809,1593.03 L 892.613,1593.03 L 898.453,1592.18 L 907.459,1587.78 L 914.547,1580.69 L 918.951,1571.68 L 919.801,1565.84 L 919.801,1481.4 L 918.951,1475.56 L 914.547,1466.56 L 907.459,1459.47 L 898.453,1455.06 L 892.613,1454.21 L 705.809,1454.21 L 699.969,1455.06 L 690.963,1459.47 L 684.611,1463.73 L 679.683,1464.57 L 588.311,1464.57 L 581.837,1463.09 L 577.761,1460.2 L 570.087,1452.52 L 559.273,1446.13 L 547.209,1442.62 L 544.389,1442.4 L 431.985,1442.4 L 429.165,1442.62 L 417.101,1446.13 L 406.287,1452.52 L 397.403,1461.41 L 391.009,1472.22 L 387.503,1484.29 L 387.281,1487.1 L 387.281,1562.11 L 387.503,1564.93 L 391.009,1576.99 L 397.405,1587.81 L 406.287,1596.69 L 423.195,1606.39 L 427.025,1611.82 L 428.149,1617.5 L 428.149,1848.87 L 427.765,1852.57 L 429.117,1867.44 L 433.723,1880.69 L 441.881,1893.19 L 611.163,2062.21 L 613.511,2065.1 L 624.261,2074.13 L 625.745,2075.07 L 637.621,2080.72 L 650.461,2083.66 L 1612.65,2083.66 L 1616.35,2084.04 L 1630.33,2082.82 L 1644.44,2078.04 L 1656.33,2070.53 L 1870.89,1855.75 L 1876.51,1852.22 L 1881.44,1851.38 L 2319.72,1851.38 L 2326.2,1852.86 L 2331.39,1857 L 2334.27,1862.98 L 2334.65,1866.3 L 2334.65,2471.46 L 2333.17,2477.93 L 2329.03,2483.12 L 2323.04,2486 L 2319.72,2486.38 L 1303.93,2486.38 L 1297.45,2484.9 L 1292.26,2480.76 L 1287.63,2473.22 L 1278.75,2464.33 L 1267.94,2457.94 L 1255.87,2454.43 L 1253.05,2454.21 L 1140.65,2454.21 L 1137.83,2454.43 L 1125.76,2457.94 L 1114.95,2464.33 L 1106.07,2473.22 L 1101.1,2481.61 L 1096.54,2486.43 L 1090.33,2488.79 L 1010.98,2488.94 L 1004.51,2487.46 L 999.317,2483.32 L 996.435,2477.34 L 996.061,2474.02 L 996.061,2374.02 L 366.141,2374.02 L 366.141,3003.94 L 996.061,3003.94 L 996.062,2868.98 L 955.906,2868.98 L 955.906,2870.47 L 814.173,2870.47 L 814.173,2807.48 L 955.906,2807.48 L 955.906,2808.97 L 996.062,2808.98 L 996.061,2803.94 L 997.539,2797.46 L 1001.68,2792.27 L 1007.66,2789.39 L 1010.98,2789.02 L 1091.63,2789.02 L 1098.1,2790.49 L 1103.29,2794.63 L 1108.04,2802.37 L 1116.92,2811.26 L 1127.73,2817.65 L 1139.8,2821.16 L 1142.62,2821.38 L 1251.08,2821.38 L 1253.9,2821.16 L 1265.97,2817.65 L 1276.78,2811.26 L 1285.66,2802.37 L 1288.53,2797.52 L 1293.1,2792.7 L 1299.31,2790.34 L 1301.38,2790.2 L 1906.16,2790.2 L 1912.64,2791.67 L 1916.71,2794.57 L 2030.74,2908.84 L 2039.96,2917.5 L 2043.93,2920.11 L 2051.04,2923.59 L 2055.53,2925.13 L 2063.28,2926.73 L 2068.02,2927.11 L 2072.32,2926.73 L 2472.55,2926.73 L 2479.03,2928.21 L 2484.22,2932.35 L 2486.51,2936.39 L 2492.89,2953.29 L 2502.26,2969.26 L 2514.2,2983.42 L 2528.36,2995.35 L 2544.33,3004.72 L 2561.65,3011.26 L 2579.83,3014.78 L 2583.99,3015 L 2602.96,3014.78 L 2621.14,3011.26 L 2638.47,3004.72 L 2654.44,2995.35 L 2668.59,2983.42 L 2679.99,2969.9 L 2685.29,2965.9 L 2691.8,2964.6 L 2698.24,2966.26 L 2702.8,2969.9 L 2714.2,2983.42 L 2728.36,2995.35 L 2733.99,2998.66 L 2738.82,3003.21 L 2741.21,3009.41 L 2741.36,3011.53 L 2741.36,3047.84 L 2739.88,3054.31 L 2736.99,3058.39 L 2713.64,3081.73 L 2708.02,3085.26 L 2703.09,3086.1 L 2644.58,3086.1 L 2641.77,3086.32 L 2629.7,3089.83 L 2618.89,3096.22 L 2610,3105.11 L 2605.36,3112.96 L 2600.8,3117.78 L 2594.59,3120.14 L 2587.97,3119.57 L 2582.26,3116.19 L 2579.68,3112.96 L 2575.03,3105.11 L 2566.15,3096.22 L 2555.34,3089.83 L 2543.27,3086.32 L 2540.45,3086.1 L 2467.42,3086.1 L 2464.6,3086.32 L 2452.54,3089.83 L 2441.72,3096.22 L 2432.84,3105.11 L 2426.44,3115.92 L 2422.94,3127.99 L 2422.72,3130.81 L 2422.72,3239.27 L 2422.94,3242.09 L 2426.44,3254.14 L 2432.84,3264.97 L 2441.72,3273.85 L 2452.54,3280.25 L 2461.71,3282.92 L 2467.52,3286.14 L 2471.35,3291.56 L 2472.44,3298.11 L 2470.59,3304.49 L 2466.16,3309.43 L 2460.01,3311.96 L 2457.55,3312.17 L 2306.09,3312.17 L 2299.61,3310.69 L 2294.42,3306.55 L 2291.54,3300.56 L 2291.54,3293.92 L 2294.42,3287.94 L 2299.61,3283.8 L 2311.23,3280.21 L 2322.03,3273.82 L 2330.91,3264.95 L 2337.3,3254.14 L 2340.8,3242.09 L 2341.02,3239.27 L 2341.02,3205.04 L 2311.02,3205.04 L 2311.02,3234.25 L 2310.59,3238.34 L 2309.32,3242.26 L 2307.26,3245.82 L 2304.51,3248.88 L 2301.18,3251.3 L 2297.42,3252.97 L 2293.4,3253.83 L 2291.34,3253.94 L 2228.35,3253.94 L 2226.29,3253.83 L 2222.26,3252.97 L 2218.5,3251.3 L 2215.17,3248.88 L 2212.42,3245.82 L 2210.36,3242.26 L 2209.09,3238.34 L 2208.66,3234.25 L 2208.66,3205.04 L 2178.66,3205.04 L 2178.66,3239.27 L 2178.88,3242.09 L 2182.38,3254.14 L 2188.78,3264.95 L 2197.65,3273.82 L 2208.46,3280.21 L 2217.76,3282.92 L 2223.56,3286.14 L 2227.39,3291.56 L 2228.49,3298.11 L 2226.64,3304.49 L 2222.2,3309.43 L 2216.06,3311.96 L 2156.83,3312.17 L 2150.35,3310.69 L 2146.28,3307.79 L 2030.79,3192.3 L 2027.25,3186.68 L 2026.42,3181.75 L 2026.59,3099.23 L 2026.19,3086.6 L 2025.23,3081.94 L 2022.67,3074.46 L 2020.58,3070.19 L 2016.23,3063.57 L 2013.14,3059.96 L 2009.84,3057.19 L 1905,2952.1 L 1895.79,2943.45 L 1891.82,2940.84 L 1884.71,2937.36 L 1880.21,2935.82 L 1872.46,2934.21 L 1867.73,2933.84 L 1863.43,2934.21 L 1301.38,2934.21 L 1294.9,2932.73 L 1289.71,2928.59 L 1285.66,2922.04 L 1276.78,2913.15 L 1265.97,2906.76 L 1253.9,2903.25 L 1251.08,2903.03 L 1142.62,2903.03 L 1139.8,2903.25 L 1127.73,2906.76 L 1116.92,2913.15 L 1108.03,2922.04 L 1101.64,2932.85 L 1098.13,2944.92 L 1097.91,2947.73 L 1097.91,3020.77 L 1098.13,3023.59 L 1101.64,3035.65 L 1108.04,3046.47 L 1116.92,3055.35 L 1127.73,3061.75 L 1139.8,3065.25 L 1142.62,3065.47 L 1251.08,3065.47 L 1253.9,3065.25 L 1265.97,3061.75 L 1276.78,3055.35 L 1285.66,3046.47 L 1288.53,3041.62 L 1293.1,3036.8 L 1299.31,3034.44 L 1301.38,3034.29 L 1839.23,3034.29 L 1845.71,3035.77 L 1849.78,3038.66 L 1921.97,3110.84 L 1925.5,3116.47 L 1926.34,3121.4 L 1926.16,3203.91 L 1926.56,3216.55 L 1927.52,3221.2 L 1930.09,3228.69 L 1932.18,3232.96 L 1936.52,3239.57 L 1939.61,3243.19 L 1942.91,3245.96 L 2096.76,3399.81 L 2100.27,3403.01 L 2104.25,3405.62 L 2111.35,3409.1 L 2115.85,3410.64 L 2123.6,3412.24 L 2128.34,3412.62 L 2132.63,3412.24 L 2743.28,3412.42 L 2755.92,3412.02 L 2760.57,3411.06 L 2768.06,3408.49 L 2772.33,3406.4 L 2778.94,3402.06 L 2782.56,3398.97 L 2785.33,3395.67 L 2892.66,3288.35 L 2898.28,3284.81 L 2903.21,3283.98 L 2961.71,3283.98 L 2964.53,3283.75 L 2976.6,3280.25 L 2987.41,3273.85 L 2996.29,3264.97 L 3003.17,3253.35 L 3006.65,3248.72 L 3012.51,3245.6 L 3016.42,3245.08 L 3285.88,3245.08 L 3289.58,3245.46 L 3304.44,3244.11 L 3316.88,3239.82 L 3328.83,3232.46 L 3330.19,3231.35 L 3429.99,3131.3 L 3432.88,3128.95 L 3441.9,3118.2 L 3442.85,3116.71 L 3448.5,3104.84 L 3451.59,3091.12 L 3451.44,3004.82 L 3452.91,2998.35 L 3456.74,2993.41 L 3468.59,2983.42 L 3480.02,2969.87 L 3485.32,2965.87 L 3491.83,2964.57 L 3498.26,2966.23 L 3502.83,2969.87 L 3514.23,2983.39 L 3528.38,2995.32 L 3544.34,3004.69 L 3551.4,3007.35 L 3551.4,2973.95 L 3538.71,2964.74 L 3527.7,2952.5 L 3519.46,2938.25 L 3514.38,2922.59 L 3512.66,2906.22 L 3512.66,2847.17 L 3514.38,2830.79 L 3519.46,2815.14 L 3527.7,2800.88 L 3538.71,2788.65 L 3552.03,2778.97 L 3567.07,2772.28 L 3583.17,2768.86 L 3599.63,2768.86 L 3615.73,2772.28 L 3630.77,2778.97 L 3644.09,2788.65 L 3655.1,2800.88 L 3663.33,2815.14 L 3668.42,2830.79 L 3670.14,2847.17 L 3670.14,2906.22 L 3668.42,2922.59 L 3663.33,2938.25 L 3655.1,2952.5 L 3644.09,2964.74 L 3631.4,2973.95 L 3631.4,3007.35 L 3638.45,3004.69 L 3654.41,2995.32 L 3668.57,2983.39 L 3679.96,2969.87 L 3685.27,2965.87 L 3691.78,2964.57 L 3698.21,2966.23 L 3702.78,2969.87 L 3714.2,2983.42 L 3728.36,2995.35 L 3744.33,3004.72 L 3761.65,3011.26 L 3779.83,3014.78 L 3783.99,3015 L 3802.96,3014.78 L 3821.14,3011.26 L 3838.47,3004.72 L 3854.44,2995.35 L 3868.59,2983.42 L 3880.53,2969.26 L 3889.9,2953.29 L 3896.44,2935.97 L 3899.96,2917.79 L 3900.18,2900.75 L 3901.65,2894.27 L 3905.79,2889.08 L 3911.78,2886.2 L 3915.1,2885.83 L 3992.6,2885.83 L 3999.07,2887.3 L 4004.26,2891.44 L 4007.15,2897.43 L 4007.52,2900.75 L 4007.52,3520.16 L 4006.04,3526.63 L 4001.9,3531.82 L 3995.92,3534.7 L 3992.6,3535.08 L 125.511,3535.08 L 119.037,3533.6 L 113.845,3529.46 L 110.963,3523.48 L 110.589,3520.16M 247.609,3318.9 L 249.131,3334.34 L 253.635,3349.19 L 260.951,3362.88 L 270.795,3374.87 L 282.791,3384.72 L 296.477,3392.03 L 311.327,3396.54 L 326.771,3398.06 L 342.213,3396.54 L 357.063,3392.03 L 370.749,3384.72 L 382.745,3374.87 L 392.589,3362.88 L 399.905,3349.19 L 404.409,3334.34 L 405.931,3318.9 L 404.409,3303.45 L 399.905,3288.6 L 392.589,3274.92 L 382.745,3262.92 L 370.749,3253.08 L 357.063,3245.76 L 342.213,3241.26 L 326.771,3239.74 L 311.327,3241.26 L 296.477,3245.76 L 282.791,3253.08 L 270.795,3262.92 L 260.951,3274.92 L 253.635,3288.6 L 249.131,3303.45 L 247.609,3318.9M 247.609,326.771 L 249.131,342.215 L 253.635,357.065 L 260.951,370.749 L 270.795,382.745 L 282.791,392.591 L 296.477,399.905 L 311.327,404.411 L 326.771,405.931 L 342.213,404.411 L 357.063,399.905 L 370.749,392.591 L 382.745,382.745 L 392.589,370.749 L 399.905,357.065 L 404.409,342.215 L 405.931,326.771 L 404.409,311.327 L 399.905,296.477 L 392.589,282.791 L 382.745,270.795 L 370.749,260.951 L 357.063,253.635 L 342.213,249.131 L 326.771,247.609 L 311.327,249.131 L 296.477,253.635 L 282.791,260.951 L 270.795,270.795 L 260.951,282.791 L 253.635,296.477 L 249.131,311.327 L 247.609,326.771M 387.321,1298.54 L 387.543,1318.86 L 391.045,1330.91 L 397.435,1341.72 L 406.311,1350.59 L 417.117,1356.98 L 429.171,1360.49 L 431.989,1360.71 L 468.187,1360.71 L 468.187,1330.71 L 437.008,1330.71 L 434.95,1330.6 L 430.925,1329.75 L 427.165,1328.07 L 423.836,1325.65 L 421.082,1322.59 L 419.025,1319.03 L 417.753,1315.12 L 417.323,1311.02 L 417.323,1298.54 L 387.321,1298.54M 387.321,1258.54 L 417.323,1258.54 L 417.323,1246.06 L 417.753,1241.97 L 419.025,1238.06 L 421.082,1234.49 L 423.836,1231.43 L 427.165,1229.02 L 430.925,1227.34 L 434.95,1226.49 L 437.008,1226.38 L 468.187,1226.38 L 468.187,1196.38 L 431.987,1196.38 L 429.173,1196.6 L 417.117,1200.1 L 406.311,1206.49 L 397.435,1215.37 L 391.045,1226.17 L 387.543,1238.23 L 387.321,1258.54M 508.187,1360.71 L 544.385,1360.71 L 547.203,1360.49 L 559.257,1356.98 L 570.063,1350.59 L 578.939,1341.72 L 585.329,1330.91 L 588.831,1318.86 L 589.053,1298.54 L 559.055,1298.54 L 559.055,1311.02 L 558.625,1315.12 L 557.353,1319.03 L 555.296,1322.59 L 552.542,1325.65 L 549.213,1328.07 L 545.453,1329.75 L 541.428,1330.6 L 539.37,1330.71 L 508.187,1330.71 L 508.187,1360.71M 508.187,1226.38 L 539.37,1226.38 L 541.428,1226.49 L 545.453,1227.34 L 549.213,1229.02 L 552.542,1231.43 L 555.296,1234.49 L 557.353,1238.06 L 558.625,1241.97 L 559.055,1246.06 L 559.055,1258.54 L 589.053,1258.54 L 588.831,1238.23 L 585.329,1226.17 L 578.939,1215.37 L 570.063,1206.49 L 559.257,1200.1 L 547.203,1196.6 L 544.387,1196.38 L 508.187,1196.38 L 508.187,1226.38M 678.621,1817.81 L 679.471,1823.65 L 683.875,1832.66 L 690.963,1839.75 L 699.969,1844.15 L 705.809,1845 L 892.613,1845 L 898.453,1844.15 L 907.459,1839.75 L 914.547,1832.66 L 918.951,1823.65 L 919.801,1817.81 L 919.801,1733.37 L 918.951,1727.53 L 914.547,1718.52 L 907.459,1711.43 L 898.453,1707.03 L 892.613,1706.18 L 705.809,1706.18 L 699.969,1707.03 L 690.963,1711.43 L 683.875,1718.52 L 679.471,1727.53 L 678.621,1733.37 L 678.621,1817.81M 1095.98,2310.35 L 1096.21,2330.67 L 1099.71,2342.72 L 1106.1,2353.53 L 1114.97,2362.41 L 1125.78,2368.8 L 1137.83,2372.3 L 1140.65,2372.52 L 1176.85,2372.52 L 1176.85,2342.52 L 1145.67,2342.52 L 1143.61,2342.41 L 1139.59,2341.56 L 1135.83,2339.88 L 1132.5,2337.46 L 1129.74,2334.41 L 1127.69,2330.84 L 1126.41,2326.93 L 1125.98,2322.83 L 1125.98,2310.35 L 1095.98,2310.35M 1095.98,2270.35 L 1125.98,2270.35 L 1125.98,2257.87 L 1126.41,2253.78 L 1127.69,2249.87 L 1129.74,2246.3 L 1132.5,2243.25 L 1135.83,2240.83 L 1139.59,2239.15 L 1143.61,2238.3 L 1145.67,2238.19 L 1176.85,2238.19 L 1176.85,2208.19 L 1140.65,2208.19 L 1137.84,2208.41 L 1125.78,2211.91 L 1114.97,2218.3 L 1106.1,2227.18 L 1099.71,2237.99 L 1096.21,2250.04 L 1095.98,2270.35M 1127.48,1817.81 L 1128.33,1823.64 L 1132.73,1832.63 L 1139.81,1839.71 L 1148.8,1844.11 L 1154.63,1844.96 L 1228.03,1844.96 L 1228.03,1814.96 L 1157.48,1814.96 L 1157.48,1795.59 L 1127.48,1795.59 L 1127.48,1817.81M 1127.48,1755.59 L 1157.48,1755.59 L 1157.48,1736.22 L 1228.03,1736.22 L 1228.03,1706.22 L 1154.63,1706.22 L 1148.8,1707.07 L 1139.81,1711.47 L 1132.73,1718.55 L 1128.33,1727.54 L 1127.48,1733.37 L 1127.48,1755.59M 1182.6,1247.14 L 1182.82,1249.96 L 1186.32,1262.01 L 1192.71,1272.82 L 1201.59,1281.7 L 1212.39,1288.09 L 1224.45,1291.59 L 1248.7,1291.81 L 1248.7,1261.81 L 1232.28,1261.81 L 1230.23,1261.7 L 1226.2,1260.85 L 1222.44,1259.17 L 1219.11,1256.75 L 1216.36,1253.7 L 1214.3,1250.13 L 1213.03,1246.22 L 1212.6,1242.13 L 1212.6,1212.91 L 1182.6,1212.91 L 1182.6,1247.14M 1182.6,1172.91 L 1212.6,1172.91 L 1212.6,1143.7 L 1213.03,1139.61 L 1214.3,1135.69 L 1216.36,1132.13 L 1219.11,1129.07 L 1222.44,1126.65 L 1226.2,1124.98 L 1230.23,1124.12 L 1232.28,1124.02 L 1248.7,1124.02 L 1248.7,1094.02 L 1224.45,1094.24 L 1212.39,1097.74 L 1201.59,1104.13 L 1192.71,1113.01 L 1186.32,1123.81 L 1182.82,1135.87 L 1182.6,1138.68 L 1182.6,1172.91M 1182.6,1010.92 L 1182.82,1013.74 L 1186.32,1025.79 L 1192.71,1036.6 L 1201.59,1045.48 L 1212.39,1051.87 L 1224.45,1055.37 L 1248.7,1055.59 L 1248.7,1025.59 L 1232.28,1025.59 L 1230.23,1025.48 L 1226.2,1024.63 L 1222.44,1022.95 L 1219.11,1020.53 L 1216.36,1017.48 L 1214.3,1013.91 L 1213.03,1010 L 1212.6,1005.91 L 1212.6,976.691 L 1182.6,976.691 L 1182.6,1010.92M 1182.6,936.691 L 1212.6,936.691 L 1212.6,907.48 L 1213.03,903.388 L 1214.3,899.474 L 1216.36,895.91 L 1219.11,892.852 L 1222.44,890.433 L 1226.2,888.759 L 1230.23,887.903 L 1232.28,887.795 L 1248.7,887.795 L 1248.7,857.795 L 1224.45,858.015 L 1212.39,861.519 L 1201.59,867.909 L 1192.71,876.785 L 1186.32,887.591 L 1182.82,899.645 L 1182.6,902.461 L 1182.6,936.691M 1182.6,774.701 L 1182.82,777.519 L 1186.32,789.573 L 1192.71,800.377 L 1201.59,809.255 L 1212.39,815.645 L 1224.45,819.147 L 1248.7,819.369 L 1248.7,789.37 L 1232.28,789.37 L 1230.23,789.262 L 1226.2,788.407 L 1222.44,786.733 L 1219.11,784.314 L 1216.36,781.256 L 1214.3,777.692 L 1213.03,773.778 L 1212.6,769.685 L 1212.6,740.471 L 1182.6,740.471 L 1182.6,774.701M 1182.6,700.471 L 1212.6,700.471 L 1212.6,671.26 L 1213.03,667.167 L 1214.3,663.253 L 1216.36,659.689 L 1219.11,656.631 L 1222.44,654.212 L 1226.2,652.538 L 1230.23,651.683 L 1232.28,651.575 L 1248.7,651.575 L 1248.7,621.573 L 1224.45,621.795 L 1212.39,625.297 L 1201.59,631.687 L 1192.71,640.565 L 1186.32,651.369 L 1182.82,663.425 L 1182.6,666.241 L 1182.6,700.471M 1182.6,538.481 L 1182.82,541.297 L 1186.32,553.353 L 1192.71,564.157 L 1201.59,573.035 L 1212.39,579.425 L 1224.45,582.927 L 1248.7,583.149 L 1248.7,553.15 L 1232.28,553.15 L 1230.23,553.042 L 1226.2,552.186 L 1222.44,550.512 L 1219.11,548.093 L 1216.36,545.035 L 1214.3,541.471 L 1213.03,537.557 L 1212.6,533.464 L 1212.6,504.251 L 1182.6,504.251 L 1182.6,538.481M 1182.6,464.251 L 1212.6,464.251 L 1212.6,435.039 L 1213.03,430.947 L 1214.3,427.033 L 1216.36,423.469 L 1219.11,420.411 L 1222.44,417.992 L 1226.2,416.318 L 1230.23,415.462 L 1232.28,415.354 L 1248.7,415.354 L 1248.7,385.353 L 1224.45,385.575 L 1212.39,389.077 L 1201.59,395.467 L 1192.71,404.345 L 1186.32,415.149 L 1182.82,427.203 L 1182.6,430.021 L 1182.6,464.251M 1216.85,2372.52 L 1253.05,2372.52 L 1255.86,2372.3 L 1267.92,2368.8 L 1278.73,2362.41 L 1287.6,2353.53 L 1293.99,2342.72 L 1297.49,2330.67 L 1297.72,2310.35 L 1267.72,2310.35 L 1267.72,2322.83 L 1267.29,2326.93 L 1266.01,2330.84 L 1263.96,2334.41 L 1261.2,2337.46 L 1257.87,2339.88 L 1254.11,2341.56 L 1250.09,2342.41 L 1248.03,2342.52 L 1216.85,2342.52 L 1216.85,2372.52M 1216.85,2238.19 L 1248.03,2238.19 L 1250.09,2238.3 L 1254.11,2239.15 L 1257.87,2240.83 L 1261.2,2243.25 L 1263.96,2246.3 L 1266.01,2249.87 L 1267.29,2253.78 L 1267.72,2257.87 L 1267.72,2270.35 L 1297.72,2270.35 L 1297.49,2250.04 L 1293.99,2237.98 L 1287.6,2227.18 L 1278.73,2218.3 L 1267.92,2211.91 L 1255.87,2208.41 L 1253.05,2208.19 L 1216.85,2208.19 L 1216.85,2238.19M 1268.03,1844.96 L 1341.43,1844.96 L 1347.26,1844.11 L 1356.26,1839.71 L 1363.34,1832.63 L 1367.73,1823.64 L 1368.58,1817.81 L 1368.58,1795.59 L 1338.58,1795.59 L 1338.58,1814.96 L 1268.03,1814.96 L 1268.03,1844.96M 1268.03,1736.22 L 1338.58,1736.22 L 1338.58,1755.59 L 1368.58,1755.59 L 1368.58,1733.37 L 1367.73,1727.54 L 1363.34,1718.55 L 1356.26,1711.47 L 1347.26,1707.07 L 1341.43,1706.22 L 1268.03,1706.22 L 1268.03,1736.22M 1288.7,1291.81 L 1312.95,1291.59 L 1325.01,1288.09 L 1335.81,1281.7 L 1344.69,1272.82 L 1351.08,1262.01 L 1354.58,1249.96 L 1354.8,1247.15 L 1354.8,1212.91 L 1324.8,1212.91 L 1324.8,1242.13 L 1324.37,1246.22 L 1323.1,1250.13 L 1321.04,1253.7 L 1318.29,1256.75 L 1314.96,1259.17 L 1311.2,1260.85 L 1307.18,1261.7 L 1305.12,1261.81 L 1288.7,1261.81 L 1288.7,1291.81M 1288.7,1094.02 L 1288.7,1124.02 L 1305.12,1124.02 L 1307.18,1124.12 L 1311.2,1124.98 L 1314.96,1126.65 L 1318.29,1129.07 L 1321.04,1132.13 L 1323.1,1135.69 L 1324.37,1139.61 L 1324.8,1143.7 L 1324.8,1172.91 L 1354.8,1172.91 L 1354.8,1138.68 L 1354.58,1135.87 L 1351.08,1123.81 L 1344.69,1113.01 L 1335.81,1104.13 L 1325.01,1097.74 L 1312.95,1094.24 L 1288.7,1094.02M 1288.7,1055.59 L 1312.95,1055.37 L 1325.01,1051.87 L 1335.81,1045.48 L 1344.69,1036.6 L 1351.08,1025.79 L 1354.58,1013.74 L 1354.8,1010.93 L 1354.8,976.691 L 1324.8,976.691 L 1324.8,1005.91 L 1324.37,1010 L 1323.1,1013.91 L 1321.04,1017.48 L 1318.29,1020.53 L 1314.96,1022.95 L 1311.2,1024.63 L 1307.18,1025.48 L 1305.12,1025.59 L 1288.7,1025.59 L 1288.7,1055.59M 1288.7,857.795 L 1288.7,887.795 L 1305.12,887.795 L 1307.18,887.903 L 1311.2,888.759 L 1314.96,890.433 L 1318.29,892.852 L 1321.04,895.91 L 1323.1,899.474 L 1324.37,903.388 L 1324.8,907.48 L 1324.8,936.691 L 1354.8,936.691 L 1354.8,902.461 L 1354.58,899.645 L 1351.08,887.591 L 1344.69,876.785 L 1335.81,867.907 L 1325.01,861.517 L 1312.95,858.015 L 1288.7,857.795M 1288.7,819.369 L 1312.95,819.147 L 1325.01,815.645 L 1335.81,809.255 L 1344.69,800.377 L 1351.08,789.573 L 1354.58,777.519 L 1354.8,774.705 L 1354.8,740.471 L 1324.8,740.471 L 1324.8,769.685 L 1324.37,773.778 L 1323.1,777.692 L 1321.04,781.256 L 1318.29,784.314 L 1314.96,786.733 L 1311.2,788.407 L 1307.18,789.262 L 1305.12,789.37 L 1288.7,789.37 L 1288.7,819.369M 1288.7,621.573 L 1288.7,651.575 L 1305.12,651.575 L 1307.18,651.683 L 1311.2,652.538 L 1314.96,654.212 L 1318.29,656.631 L 1321.04,659.689 L 1323.1,663.253 L 1324.37,667.167 L 1324.8,671.26 L 1324.8,700.471 L 1354.8,700.471 L 1354.8,666.241 L 1354.58,663.425 L 1351.08,651.369 L 1344.69,640.565 L 1335.81,631.687 L 1325.01,625.297 L 1312.95,621.795 L 1288.7,621.573M 1288.7,583.149 L 1312.95,582.927 L 1325.01,579.425 L 1335.81,573.035 L 1344.69,564.157 L 1351.08,553.353 L 1354.58,541.299 L 1354.8,538.485 L 1354.8,504.251 L 1324.8,504.251 L 1324.8,533.464 L 1324.37,537.557 L 1323.1,541.471 L 1321.04,545.035 L 1318.29,548.093 L 1314.96,550.512 L 1311.2,552.186 L 1307.18,553.042 L 1305.12,553.15 L 1288.7,553.15 L 1288.7,583.149M 1288.7,385.353 L 1288.7,415.354 L 1305.12,415.354 L 1307.18,415.462 L 1311.2,416.318 L 1314.96,417.992 L 1318.29,420.411 L 1321.04,423.469 L 1323.1,427.033 L 1324.37,430.947 L 1324.8,435.039 L 1324.8,464.251 L 1354.8,464.251 L 1354.8,430.021 L 1354.58,427.203 L 1351.08,415.149 L 1344.69,404.345 L 1335.81,395.467 L 1325.01,389.077 L 1312.95,385.575 L 1288.7,385.353M 1416.81,1247.15 L 1417.03,1249.97 L 1420.54,1262.03 L 1426.93,1272.84 L 1435.82,1281.73 L 1446.63,1288.12 L 1458.69,1291.63 L 1461.51,1291.85 L 1544.39,1291.85 L 1547.21,1291.63 L 1559.27,1288.12 L 1570.09,1281.73 L 1578.97,1272.84 L 1580.49,1270.28 L 1585.06,1265.46 L 1591.26,1263.1 L 1593.33,1262.95 L 1650.76,1262.95 L 1657.23,1264.43 L 1662.43,1268.57 L 1665.12,1272.84 L 1674.01,1281.73 L 1684.82,1288.12 L 1696.88,1291.63 L 1699.7,1291.85 L 1772.74,1291.85 L 1775.56,1291.63 L 1787.62,1288.12 L 1798.43,1281.73 L 1807.32,1272.84 L 1813.71,1262.03 L 1817.22,1249.97 L 1817.44,1247.15 L 1817.44,1138.68 L 1817.22,1135.86 L 1813.71,1123.8 L 1807.32,1112.98 L 1798.43,1104.1 L 1787.62,1097.7 L 1775.56,1094.2 L 1772.74,1093.98 L 1699.7,1093.98 L 1696.88,1094.2 L 1684.82,1097.7 L 1674.01,1104.1 L 1665.12,1112.98 L 1663.6,1115.55 L 1659.04,1120.37 L 1652.83,1122.73 L 1650.76,1122.87 L 1593.33,1122.87 L 1586.86,1121.4 L 1581.67,1117.26 L 1578.97,1112.98 L 1570.09,1104.1 L 1559.27,1097.7 L 1547.21,1094.2 L 1544.39,1093.98 L 1461.51,1093.98 L 1458.69,1094.2 L 1446.63,1097.7 L 1435.82,1104.1 L 1426.93,1112.98 L 1420.54,1123.8 L 1417.03,1135.86 L 1416.81,1138.68 L 1416.81,1247.15M 1416.81,1010.93 L 1417.03,1013.75 L 1420.54,1025.81 L 1426.93,1036.62 L 1435.82,1045.51 L 1446.63,1051.9 L 1458.69,1055.41 L 1461.51,1055.63 L 1544.39,1055.63 L 1547.21,1055.41 L 1559.27,1051.9 L 1570.09,1045.51 L 1578.97,1036.62 L 1580.49,1034.06 L 1585.06,1029.24 L 1591.26,1026.88 L 1593.33,1026.73 L 1650.76,1026.73 L 1657.23,1028.21 L 1662.43,1032.35 L 1665.12,1036.62 L 1674.01,1045.51 L 1684.82,1051.9 L 1696.88,1055.41 L 1699.7,1055.63 L 1772.74,1055.63 L 1775.56,1055.41 L 1787.62,1051.9 L 1798.43,1045.51 L 1807.32,1036.62 L 1813.71,1025.81 L 1817.22,1013.75 L 1817.44,1010.93 L 1817.44,902.457 L 1817.22,899.639 L 1813.71,887.575 L 1807.32,876.761 L 1798.43,867.877 L 1787.62,861.481 L 1775.56,857.977 L 1772.74,857.755 L 1699.7,857.755 L 1696.88,857.977 L 1684.82,861.481 L 1674.01,867.877 L 1665.12,876.761 L 1663.6,879.327 L 1659.04,884.147 L 1652.83,886.509 L 1650.76,886.653 L 1593.33,886.653 L 1586.86,885.175 L 1581.67,881.035 L 1578.97,876.761 L 1570.09,867.877 L 1559.27,861.481 L 1547.21,857.977 L 1544.39,857.755 L 1461.51,857.755 L 1458.69,857.977 L 1446.63,861.481 L 1435.82,867.877 L 1426.93,876.761 L 1420.54,887.575 L 1417.03,899.639 L 1416.81,902.459 L 1416.81,1010.93M 1416.81,774.705 L 1417.03,777.523 L 1420.54,789.589 L 1426.93,800.403 L 1435.82,809.287 L 1446.63,815.681 L 1458.69,819.187 L 1461.51,819.409 L 1544.39,819.409 L 1547.21,819.187 L 1559.27,815.681 L 1570.09,809.287 L 1578.97,800.403 L 1580.49,797.837 L 1585.06,793.017 L 1591.26,790.655 L 1593.33,790.511 L 1650.76,790.511 L 1657.23,791.989 L 1662.43,796.129 L 1665.12,800.403 L 1674.01,809.287 L 1684.82,815.681 L 1696.88,819.187 L 1699.7,819.409 L 1772.74,819.409 L 1775.56,819.187 L 1787.62,815.681 L 1798.43,809.287 L 1807.32,800.403 L 1813.71,789.589 L 1817.22,777.525 L 1817.44,774.705 L 1817.44,666.237 L 1817.22,663.419 L 1813.71,651.353 L 1807.32,640.541 L 1798.43,631.657 L 1787.62,625.261 L 1775.56,621.757 L 1772.74,621.535 L 1699.7,621.535 L 1696.88,621.757 L 1684.82,625.261 L 1674.01,631.657 L 1665.12,640.541 L 1663.6,643.107 L 1659.04,647.927 L 1652.83,650.287 L 1650.76,650.431 L 1593.33,650.431 L 1586.86,648.955 L 1581.67,644.813 L 1578.97,640.541 L 1570.09,631.657 L 1559.27,625.261 L 1547.21,621.757 L 1544.39,621.535 L 1461.51,621.535 L 1458.69,621.757 L 1446.63,625.261 L 1435.82,631.657 L 1426.93,640.541 L 1420.54,651.353 L 1417.03,663.419 L 1416.81,666.237 L 1416.81,774.705M 1416.81,538.485 L 1417.03,541.303 L 1420.54,553.369 L 1426.93,564.181 L 1435.82,573.065 L 1446.63,579.461 L 1458.69,582.965 L 1461.51,583.187 L 1544.39,583.187 L 1547.21,582.967 L 1559.27,579.461 L 1570.09,573.065 L 1578.97,564.183 L 1580.49,561.615 L 1585.06,556.795 L 1591.26,554.435 L 1593.33,554.291 L 1650.76,554.291 L 1657.23,555.767 L 1662.43,559.909 L 1665.12,564.183 L 1674.01,573.065 L 1684.82,579.461 L 1696.88,582.965 L 1699.7,583.187 L 1772.74,583.187 L 1775.56,582.965 L 1787.62,579.461 L 1798.43,573.065 L 1807.32,564.183 L 1813.71,553.369 L 1817.22,541.303 L 1817.44,538.485 L 1817.44,430.017 L 1817.22,427.197 L 1813.71,415.133 L 1807.32,404.319 L 1798.43,395.435 L 1787.62,389.041 L 1775.56,385.535 L 1772.74,385.313 L 1699.7,385.313 L 1696.88,385.535 L 1684.82,389.041 L 1674.01,395.435 L 1665.12,404.319 L 1663.6,406.885 L 1659.04,411.705 L 1652.83,414.067 L 1650.76,414.211 L 1593.33,414.211 L 1586.86,412.733 L 1581.67,408.593 L 1578.97,404.319 L 1570.09,395.435 L 1559.27,389.041 L 1547.21,385.535 L 1544.39,385.313 L 1461.51,385.313 L 1458.69,385.535 L 1446.63,389.041 L 1435.82,395.435 L 1426.93,404.319 L 1420.54,415.133 L 1417.03,427.197 L 1416.81,430.017 L 1416.81,538.485M 2178.66,3165.04 L 2208.66,3165.04 L 2208.66,3135.83 L 2209.09,3131.73 L 2210.36,3127.82 L 2212.42,3124.26 L 2215.17,3121.2 L 2218.5,3118.78 L 2222.26,3117.11 L 2226.29,3116.25 L 2239.84,3116.14 L 2239.84,3086.14 L 2220.51,3086.36 L 2208.46,3089.87 L 2197.65,3096.26 L 2188.78,3105.13 L 2182.38,3115.94 L 2178.88,3127.99 L 2178.66,3130.81 L 2178.66,3165.04M 2279.84,3116.14 L 2293.4,3116.25 L 2297.42,3117.11 L 2301.18,3118.78 L 2304.51,3121.2 L 2307.26,3124.26 L 2309.32,3127.82 L 2310.59,3131.73 L 2311.02,3135.83 L 2311.02,3165.04 L 2341.02,3165.04 L 2341.02,3130.81 L 2340.8,3127.99 L 2337.3,3115.94 L 2330.91,3105.13 L 2322.03,3096.26 L 2311.23,3089.87 L 2299.17,3086.36 L 2279.84,3086.14 L 2279.84,3116.14M 3712.18,3318.9 L 3713.7,3334.34 L 3718.2,3349.19 L 3725.52,3362.88 L 3735.36,3374.87 L 3747.36,3384.72 L 3761.04,3392.03 L 3775.89,3396.54 L 3791.34,3398.06 L 3806.78,3396.54 L 3821.63,3392.03 L 3835.32,3384.72 L 3847.31,3374.87 L 3857.16,3362.88 L 3864.47,3349.19 L 3868.98,3334.34 L 3870.5,3318.9 L 3868.98,3303.45 L 3864.47,3288.6 L 3857.16,3274.92 L 3847.31,3262.92 L 3835.32,3253.08 L 3821.63,3245.76 L 3806.78,3241.26 L 3791.34,3239.74 L 3775.89,3241.26 L 3761.04,3245.76 L 3747.36,3253.08 L 3735.36,3262.92 L 3725.52,3274.92 L 3718.2,3288.6 L 3713.7,3303.45 L 3712.18,3318.9M 3712.18,326.771 L 3713.7,342.215 L 3718.2,357.065 L 3725.52,370.749 L 3735.36,382.745 L 3747.36,392.591 L 3761.04,399.905 L 3775.89,404.411 L 3791.34,405.931 L 3806.78,404.411 L 3821.63,399.905 L 3835.32,392.591 L 3847.31,382.745 L 3857.16,370.749 L 3864.47,357.065 L 3868.98,342.215 L 3870.5,326.771 L 3868.98,311.327 L 3864.47,296.477 L 3857.16,282.791 L 3847.31,270.795 L 3835.32,260.951 L 3821.63,253.635 L 3806.78,249.131 L 3791.34,247.609 L 3775.89,249.131 L 3761.04,253.635 L 3747.36,260.951 L 3735.36,270.795 L 3725.52,282.791 L 3718.2,296.477 L 3713.7,311.327 L 3712.18,326.771 z " style="fill-opacity:1.000000;fill:rgb(103,198,105);stroke:rgb(0,0,0);stroke-width:2"/></g>
<g fill-rule="evenodd"><path d="M 287.402,3318.9 L 288.262,3310.71 L 290.805,3302.88 L 294.921,3295.76 L 300.428,3289.64 L 307.087,3284.8 L 314.606,3281.45 L 322.656,3279.74 L 330.887,3279.74 L 338.938,3281.45 L 346.457,3284.8 L 353.115,3289.64 L 358.623,3295.76 L 362.738,3302.88 L 365.281,3310.71 L 366.142,3318.9 L 365.281,3327.08 L 362.738,3334.91 L 358.623,3342.04 L 353.115,3348.16 L 346.457,3352.99 L 338.938,3356.34 L 330.887,3358.05 L 322.656,3358.05 L 314.606,3356.34 L 307.087,3352.99 L 300.428,3348.16 L 294.921,3342.04 L 290.805,3334.91 L 288.262,3327.08 L 287.402,3318.9 z " style="fill-opacity:1.000000;fill:rgb(115,81,255);stroke:rgb(0,0,0);stroke-width:2"/></g>
<g fill-rule="evenodd"><path d="M 287.402,326.772 L 288.262,318.586 L 290.805,310.758 L 294.921,303.631 L 300.428,297.514 L 307.087,292.676 L 314.606,289.328 L 322.656,287.617 L 330.887,287.617 L 338.938,289.328 L 346.457,292.676 L 353.115,297.514 L 358.623,303.631 L 362.738,310.758 L 365.281,318.586 L 366.142,326.772 L 365.281,334.957 L 362.738,342.785 L 358.623,349.913 L 353.115,356.029 L 346.457,360.867 L 338.938,364.215 L 330.887,365.926 L 322.656,365.926 L 314.606,364.215 L 307.087,360.867 L 300.428,356.029 L 294.921,349.913 L 290.805,342.785 L 288.262,334.957 L 287.402,326.772 z " style="fill-opacity:1.000000;fill:rgb(74,236,41);stroke:rgb(0,0,0);stroke-width:2"/></g>
<g fill-rule="evenodd"><path d="M 398.425,2870.47 L 398.425,2807.48 L 540.157,2807.48 L 540.157,2870.47 L 398.425,2870.47 z " style="fill-opacity:1.000000;fill:rgb(205,186,171);stroke:rgb(0,0,0);stroke-width:2"/></g>
<g fill-rule="evenodd"><path d="M 398.425,2770.47 L 398.425,2707.48 L 540.157,2707.48 L 540.157,2770.47 L 398.425,2770.47 z " style="fill-opacity:1.000000;fill:rgb(242,251,227);stroke:rgb(0,0,0);stroke-width:2"/></g>
<g fill-rule="evenodd"><path d="M 398.425,2670.47 L 398.425,2607.48 L 540.157,2607.48 L 540.157,2670.47 L 398.425,2670.47 z " style="fill-opacity:1.000000;fill:rgb(70,124,194);stroke:rgb(0,0,0);stroke-width:2"/></g>
<g fill-rule="evenodd"><path d="M 398.425,2570.47 L 398.425,2507.48 L 540.157,2507.48 L 540.157,2570.47 L 398.425,2570.47 z " style="fill-opacity:1.000000;fill:rgb(84,248,27);stroke:rgb(0,0,0);stroke-width:2"/></g>
<g fill-rule="evenodd"><path d="M 417.323,1557.09 L 417.323,1492.13 L 417.753,1488.03 L 419.025,1484.12 L 421.082,1480.56 L 423.836,1477.5 L 427.165,1475.08 L 430.925,1473.4 L 434.95,1472.55 L 539.37,1472.44 L 541.428,1472.55 L 545.453,1473.4 L 549.213,1475.08 L 552.542,1477.5 L 555.296,1480.56 L 557.353,1484.12 L 558.625,1488.03 L 559.055,1494.61 L 708.661,1494.61 L 708.661,1484.25 L 889.764,1484.25 L 889.764,1562.99 L 708.661,1562.99 L 708.661,1554.61 L 559.055,1554.61 L 558.625,1561.18 L 557.353,1565.09 L 555.296,1568.66 L 552.542,1571.72 L 549.213,1574.13 L 545.453,1575.81 L 541.428,1576.66 L 518.188,1576.77 L 518.187,1841.9 L 669.906,1993.62 L 1605.68,1993.62 L 1829.18,1770.12 L 1833.73,1766.39 L 1838.91,1763.62 L 1844.54,1761.91 L 1850.39,1761.34 L 2724.41,1761.34 L 2730.26,1761.91 L 2735.89,1763.62 L 2741.07,1766.39 L 2745.62,1770.12 L 2859.79,1884.3 L 2863.53,1888.84 L 2866.3,1894.03 L 2868.01,1899.66 L 2868.58,1905.51 L 2868.58,2070.25 L 3441.56,2643.23 L 3696.85,2643.23 L 3702.7,2643.8 L 3708.33,2645.51 L 3713.52,2648.28 L 3718.06,2652.01 L 3812.61,2746.56 L 3816.34,2751.11 L 3819.11,2756.29 L 3820.82,2761.92 L 3821.4,2767.78 L 3821.4,2774.8 L 3830.77,2778.97 L 3844.09,2788.65 L 3855.1,2800.88 L 3863.33,2815.14 L 3868.42,2830.79 L 3870.14,2847.17 L 3870.14,2906.22 L 3868.42,2922.59 L 3863.33,2938.25 L 3855.1,2952.5 L 3844.09,2964.74 L 3830.77,2974.41 L 3815.73,2981.11 L 3799.63,2984.53 L 3783.17,2984.53 L 3767.07,2981.11 L 3752.03,2974.41 L 3738.71,2964.74 L 3727.7,2952.5 L 3719.46,2938.25 L 3714.38,2922.59 L 3712.66,2906.22 L 3712.66,2847.17 L 3714.38,2830.79 L 3719.46,2815.14 L 3727.7,2800.88 L 3738.71,2788.65 L 3752.03,2778.97 L 3757.66,2776.47 L 3684.42,2703.23 L 3429.13,2703.23 L 3423.28,2702.65 L 3417.65,2700.94 L 3412.47,2698.17 L 3407.92,2694.44 L 2817.37,2103.89 L 2814.31,2100.31 L 2811.85,2096.3 L 2810.05,2091.95 L 2808.95,2087.37 L 2808.58,2082.68 L 2808.58,1917.94 L 2711.98,1821.34 L 1862.82,1821.34 L 1639.32,2044.83 L 1634.78,2048.57 L 1629.59,2051.34 L 1623.96,2053.04 L 1618.11,2053.62 L 657.479,2053.62 L 651.627,2053.04 L 645.999,2051.34 L 640.812,2048.57 L 636.266,2044.83 L 466.974,1875.54 L 463.243,1871 L 460.471,1865.81 L 458.764,1860.18 L 458.187,1854.33 L 458.187,1576.77 L 437.008,1576.77 L 434.95,1576.66 L 430.925,1575.81 L 427.165,1574.13 L 423.836,1571.72 L 421.082,1568.66 L 419.025,1565.09 L 417.753,1561.18 L 417.323,1557.09 z " style="fill-opacity:1.000000;fill:rgb(232,231,141);stroke:rgb(0,0,0);stroke-width:2"/></g>
<g fill-rule="evenodd"><path d="M 708.661,1814.96 L 708.661,1736.22 L 889.764,1736.22 L 889.764,1814.96 L 708.661,1814.96 z " style="fill-opacity:1.000000;fill:rgb(118,90,46);stroke:rgb(0,0,0);stroke-width:2"/></g>
<g fill-rule="evenodd"><path d="M 814.173,2770.47 L 814.173,2707.48 L 955.906,2707.48 L 955.906,2718.98 L 1127.95,2718.98 L 1127.95,2708.66 L 1128.38,2704.57 L 1129.65,2700.65 L 1131.71,2697.09 L 1134.47,2694.03 L 1137.8,2691.61 L 1141.55,2689.94 L 1145.58,2689.08 L 1147.64,2688.98 L 1246.06,2688.98 L 1248.12,2689.08 L 1252.15,2689.94 L 1255.91,2691.61 L 1259.23,2694.03 L 1261.99,2697.09 L 1264.05,2700.65 L 1265.32,2704.57 L 1265.75,2708.66 L 1265.75,2720.16 L 1933.07,2720.16 L 1936.97,2720.54 L 1940.72,2721.68 L 1944.18,2723.53 L 1947.21,2726.01 L 2077.89,2856.69 L 2512.66,2856.69 L 2512.66,2847.17 L 2514.38,2830.79 L 2519.46,2815.14 L 2527.7,2800.88 L 2538.71,2788.65 L 2552.03,2778.97 L 2567.07,2772.28 L 2583.17,2768.86 L 2599.63,2768.86 L 2615.73,2772.28 L 2630.77,2778.97 L 2644.09,2788.65 L 2655.1,2800.88 L 2663.33,2815.14 L 2668.42,2830.79 L 2670.14,2847.17 L 2670.14,2906.22 L 2668.42,2922.59 L 2663.33,2938.25 L 2655.1,2952.5 L 2644.09,2964.74 L 2630.77,2974.41 L 2615.73,2981.11 L 2599.63,2984.53 L 2583.17,2984.53 L 2567.07,2981.11 L 2552.03,2974.41 L 2538.71,2964.74 L 2527.7,2952.5 L 2519.46,2938.25 L 2514.38,2922.59 L 2512.66,2906.22 L 2512.66,2896.69 L 2069.61,2896.69 L 2065.7,2896.31 L 2061.95,2895.17 L 2058.49,2893.32 L 2055.46,2890.83 L 1924.79,2760.16 L 1265.75,2760.16 L 1265.75,2771.65 L 1265.32,2775.75 L 1264.05,2779.66 L 1261.99,2783.22 L 1259.23,2786.28 L 1255.91,2788.7 L 1252.15,2790.38 L 1248.12,2791.23 L 1246.06,2791.34 L 1147.64,2791.34 L 1145.58,2791.23 L 1141.55,2790.38 L 1137.8,2788.7 L 1134.47,2786.28 L 1131.71,2783.22 L 1129.65,2779.66 L 1128.38,2775.75 L 1127.95,2771.65 L 1127.95,2758.97 L 955.906,2758.97 L 955.906,2770.47 L 814.173,2770.47 z " style="fill-opacity:1.000000;fill:rgb(99,51,159);stroke:rgb(0,0,0);stroke-width:2"/></g>
<g fill-rule="evenodd"><path d="M 814.173,2670.47 L 814.173,2607.48 L 955.906,2607.48 L 955.906,2618.98 L 3079.92,2618.98 L 3083.82,2619.36 L 3087.57,2620.5 L 3091.03,2622.35 L 3094.06,2624.83 L 3205.54,2736.31 L 3207.58,2738.7 L 3209.22,2741.37 L 3210.42,2744.27 L 3211.15,2747.32 L 3211.4,2750.45 L 3211.4,2771.36 L 3215.73,2772.28 L 3230.77,2778.97 L 3244.09,2788.65 L 3255.1,2800.88 L 3263.33,2815.14 L 3268.42,2830.79 L 3270.14,2847.17 L 3270.14,2906.22 L 3268.42,2922.59 L 3263.33,2938.25 L 3255.1,2952.5 L 3244.09,2964.74 L 3230.77,2974.41 L 3215.73,2981.11 L 3199.63,2984.53 L 3183.17,2984.53 L 3167.07,2981.11 L 3152.03,2974.41 L 3138.71,2964.74 L 3127.7,2952.5 L 3119.46,2938.25 L 3114.38,2922.59 L 3112.66,2906.22 L 3112.66,2847.17 L 3114.38,2830.79 L 3119.46,2815.14 L 3127.7,2800.88 L 3138.71,2788.65 L 3152.03,2778.97 L 3167.07,2772.28 L 3171.4,2771.36 L 3171.4,2758.74 L 3071.64,2658.98 L 955.906,2658.97 L 955.906,2670.47 L 814.173,2670.47 z " style="fill-opacity:1.000000;fill:rgb(201,154,102);stroke:rgb(0,0,0);stroke-width:2"/></g>
<g fill-rule="evenodd"><path d="M 814.173,2570.47 L 814.173,2507.48 L 955.906,2507.48 L 955.906,2518.98 L 1125.98,2518.97 L 1125.98,2503.94 L 1126.41,2499.84 L 1127.69,2495.93 L 1129.74,2492.37 L 1132.5,2489.31 L 1135.83,2486.89 L 1139.59,2485.22 L 1143.61,2484.36 L 1145.67,2484.25 L 1248.03,2484.25 L 1250.09,2484.36 L 1254.11,2485.22 L 1257.87,2486.89 L 1261.2,2489.31 L 1263.96,2492.37 L 1266.01,2495.93 L 1267.29,2499.84 L 1267.72,2503.94 L 1267.72,2516.42 L 3130.91,2516.42 L 3134.81,2516.8 L 3138.56,2517.94 L 3142.02,2519.79 L 3145.05,2522.27 L 3391.63,2768.86 L 3399.63,2768.86 L 3415.73,2772.28 L 3430.77,2778.97 L 3444.09,2788.65 L 3455.1,2800.88 L 3463.33,2815.14 L 3468.42,2830.79 L 3470.14,2847.17 L 3470.14,2906.22 L 3468.42,2922.59 L 3463.33,2938.25 L 3455.1,2952.5 L 3444.09,2964.74 L 3430.77,2974.41 L 3421.4,2978.58 L 3421.4,3084.98 L 3420.82,3090.83 L 3419.11,3096.46 L 3416.34,3101.65 L 3412.61,3106.19 L 3312.55,3206.25 L 3308,3209.98 L 3302.82,3212.76 L 3297.19,3214.46 L 3291.34,3215.04 L 2976.38,3215.04 L 2976.38,3234.25 L 2975.95,3238.34 L 2974.68,3242.26 L 2972.62,3245.82 L 2969.86,3248.88 L 2966.54,3251.3 L 2962.78,3252.97 L 2958.75,3253.83 L 2956.69,3253.94 L 2893.7,3253.94 L 2891.64,3253.83 L 2887.62,3252.97 L 2886.18,3252.33 L 2762.17,3376.34 L 2759.14,3378.83 L 2755.69,3380.68 L 2751.93,3381.82 L 2748.03,3382.2 L 2129.92,3382.2 L 2126.02,3381.82 L 2122.27,3380.68 L 2118.81,3378.83 L 2115.78,3376.34 L 1962.24,3222.8 L 1960.2,3220.42 L 1958.56,3217.74 L 1957.36,3214.84 L 1956.62,3211.79 L 1956.38,3208.66 L 1956.38,3102.77 L 1857.86,3004.25 L 1265.75,3004.25 L 1265.75,3015.75 L 1265.32,3019.84 L 1264.05,3023.75 L 1261.99,3027.32 L 1259.23,3030.38 L 1255.91,3032.8 L 1252.15,3034.47 L 1248.12,3035.33 L 1246.06,3035.43 L 1145.58,3035.33 L 1141.55,3034.47 L 1137.8,3032.8 L 1134.47,3030.38 L 1131.71,3027.32 L 1129.65,3023.75 L 1128.38,3019.84 L 1127.95,3015.75 L 1127.95,2952.76 L 1128.38,2948.66 L 1129.65,2944.75 L 1131.71,2941.19 L 1134.47,2938.13 L 1137.8,2935.71 L 1141.55,2934.03 L 1145.58,2933.18 L 1248.12,2933.18 L 1252.15,2934.03 L 1255.91,2935.71 L 1259.23,2938.13 L 1261.99,2941.19 L 1264.05,2944.75 L 1265.32,2948.66 L 1265.75,2952.76 L 1265.75,2964.25 L 1866.14,2964.25 L 1870.04,2964.64 L 1873.8,2965.77 L 1877.25,2967.62 L 1880.28,2970.11 L 1990.52,3080.34 L 1992.56,3082.73 L 1994.2,3085.41 L 1995.4,3088.3 L 1996.13,3091.36 L 1996.38,3094.49 L 1996.38,3200.38 L 2138.2,3342.2 L 2739.75,3342.2 L 2874.02,3207.93 L 2874.02,3135.83 L 2874.45,3131.73 L 2875.72,3127.82 L 2877.78,3124.26 L 2880.53,3121.2 L 2883.86,3118.78 L 2887.62,3117.11 L 2891.64,3116.25 L 2893.7,3116.14 L 2956.69,3116.14 L 2958.75,3116.25 L 2962.78,3117.11 L 2966.54,3118.78 L 2969.86,3121.2 L 2972.62,3124.26 L 2974.68,3127.82 L 2975.95,3131.73 L 2976.38,3135.83 L 2976.38,3155.04 L 3278.91,3155.04 L 3361.4,3072.55 L 3361.4,2978.58 L 3352.03,2974.41 L 3338.71,2964.74 L 3327.7,2952.5 L 3319.46,2938.25 L 3314.38,2922.59 L 3312.66,2906.22 L 3312.66,2847.17 L 3314.38,2830.79 L 3319.46,2815.14 L 3327.7,2800.88 L 3338.71,2788.65 L 3348.06,2781.86 L 3122.62,2556.42 L 1267.72,2556.42 L 1267.72,2568.9 L 1267.29,2572.99 L 1266.01,2576.9 L 1263.96,2580.47 L 1261.2,2583.53 L 1257.87,2585.95 L 1254.11,2587.62 L 1250.09,2588.47 L 1248.03,2588.58 L 1145.67,2588.58 L 1143.61,2588.47 L 1139.59,2587.62 L 1135.83,2585.95 L 1132.5,2583.53 L 1129.74,2580.47 L 1127.69,2576.9 L 1126.41,2572.99 L 1125.98,2568.9 L 1125.98,2558.98 L 955.906,2558.98 L 955.906,2570.47 L 814.173,2570.47 z " style="fill-opacity:1.000000;fill:rgb(50,13,183);stroke:rgb(0,0,0);stroke-width:2"/></g>
<g fill-rule="evenodd"><path d="M 1157.48,1562.99 L 1157.48,1484.25 L 1338.58,1484.25 L 1338.58,1493.62 L 1739.54,1493.62 L 1795.01,1438.16 L 1799.55,1434.43 L 1804.74,1431.65 L 1810.37,1429.95 L 1816.22,1429.37 L 2512.71,1429.37 L 2514.38,1413.47 L 2519.46,1397.82 L 2527.7,1383.56 L 2538.71,1371.33 L 2552.03,1361.65 L 2567.07,1354.96 L 2583.17,1351.53 L 2599.63,1351.53 L 2615.73,1354.96 L 2630.77,1361.65 L 2644.09,1371.33 L 2655.1,1383.56 L 2663.33,1397.82 L 2668.42,1413.47 L 2670.14,1429.84 L 2670.14,1488.9 L 2668.42,1505.27 L 2663.33,1520.92 L 2655.1,1535.18 L 2644.09,1547.41 L 2630.77,1557.09 L 2615.73,1563.78 L 2599.63,1567.21 L 2583.17,1567.21 L 2567.07,1563.78 L 2552.03,1557.09 L 2538.71,1547.41 L 2527.7,1535.18 L 2519.46,1520.92 L 2514.38,1505.27 L 2512.71,1489.37 L 1828.65,1489.37 L 1773.18,1544.83 L 1768.63,1548.57 L 1763.45,1551.34 L 1757.82,1553.04 L 1751.97,1553.62 L 1338.58,1553.62 L 1338.58,1562.99 L 1157.48,1562.99 z " style="fill-opacity:1.000000;fill:rgb(49,88,163);stroke:rgb(0,0,0);stroke-width:2"/></g>
<g fill-rule="evenodd"><path d="M 1446.85,1242.13 L 1446.85,1143.7 L 1447.28,1139.61 L 1448.55,1135.69 L 1450.61,1132.13 L 1453.36,1129.07 L 1456.69,1126.65 L 1460.45,1124.98 L 1464.48,1124.12 L 1466.54,1124.02 L 1539.37,1124.02 L 1541.43,1124.12 L 1545.45,1124.98 L 1549.21,1126.65 L 1552.54,1129.07 L 1555.3,1132.13 L 1557.35,1135.69 L 1558.62,1139.61 L 1559.06,1143.7 L 1559.06,1152.91 L 1685.04,1152.91 L 1685.04,1143.7 L 1685.47,1139.61 L 1686.74,1135.69 L 1688.8,1132.13 L 1691.55,1129.07 L 1694.88,1126.65 L 1698.64,1124.98 L 1702.67,1124.12 L 1769.77,1124.12 L 1773.8,1124.98 L 1777.56,1126.65 L 1780.89,1129.07 L 1783.64,1132.13 L 1785.7,1135.69 L 1786.97,1139.61 L 1787.4,1143.7 L 1787.4,1242.13 L 1786.97,1246.22 L 1785.7,1250.13 L 1783.64,1253.7 L 1780.89,1256.75 L 1777.56,1259.17 L 1773.8,1260.85 L 1769.77,1261.7 L 1767.72,1261.81 L 1704.72,1261.81 L 1702.67,1261.7 L 1698.64,1260.85 L 1694.88,1259.17 L 1691.55,1256.75 L 1688.8,1253.7 L 1686.74,1250.13 L 1685.47,1246.22 L 1685.04,1242.13 L 1685.04,1232.91 L 1559.06,1232.91 L 1559.06,1242.13 L 1558.62,1246.22 L 1557.35,1250.13 L 1555.3,1253.7 L 1552.54,1256.75 L 1549.21,1259.17 L 1545.45,1260.85 L 1541.43,1261.7 L 1464.48,1261.7 L 1460.45,1260.85 L 1456.69,1259.17 L 1453.36,1256.75 L 1450.61,1253.7 L 1448.55,1250.13 L 1447.28,1246.22 L 1446.85,1242.13 z " style="fill-opacity:1.000000;fill:rgb(90,37,93);stroke:rgb(0,0,0);stroke-width:2"/></g>
<g fill-rule="evenodd"><path d="M 1446.85,1005.91 L 1446.85,907.48 L 1447.28,903.388 L 1448.55,899.474 L 1450.61,895.91 L 1453.36,892.852 L 1456.69,890.433 L 1460.45,888.759 L 1464.48,887.903 L 1541.43,887.903 L 1545.45,888.759 L 1549.21,890.433 L 1552.54,892.852 L 1555.3,895.91 L 1557.35,899.474 L 1558.62,903.388 L 1559.06,907.48 L 1559.06,916.691 L 1685.04,916.691 L 1685.04,907.48 L 1685.47,903.388 L 1686.74,899.474 L 1688.8,895.91 L 1691.55,892.851 L 1694.88,890.433 L 1698.64,888.759 L 1702.67,887.903 L 1704.72,887.795 L 1767.72,887.795 L 1769.77,887.903 L 1773.8,888.759 L 1777.56,890.433 L 1780.89,892.851 L 1783.64,895.91 L 1785.7,899.474 L 1786.97,903.388 L 1787.4,907.48 L 1787.4,1005.91 L 1786.97,1010 L 1785.7,1013.91 L 1783.64,1017.48 L 1780.89,1020.53 L 1777.56,1022.95 L 1773.8,1024.63 L 1769.77,1025.48 L 1702.67,1025.48 L 1698.64,1024.63 L 1694.88,1022.95 L 1691.55,1020.53 L 1688.8,1017.48 L 1686.74,1013.91 L 1685.47,1010 L 1685.04,1005.91 L 1685.04,996.691 L 1559.06,996.691 L 1559.06,1005.91 L 1558.62,1010 L 1557.35,1013.91 L 1555.3,1017.48 L 1552.54,1020.53 L 1549.21,1022.95 L 1545.45,1024.63 L 1541.43,1025.48 L 1539.37,1025.59 L 1466.54,1025.59 L 1464.48,1025.48 L 1460.45,1024.63 L 1456.69,1022.95 L 1453.36,1020.53 L 1450.61,1017.48 L 1448.55,1013.91 L 1447.28,1010 L 1446.85,1005.91 z " style="fill-opacity:1.000000;fill:rgb(5,23,88);stroke:rgb(0,0,0);stroke-width:2"/></g>
<g fill-rule="evenodd"><path d="M 1446.85,769.685 L 1446.85,671.26 L 1447.28,667.167 L 1448.55,663.253 L 1450.61,659.689 L 1453.36,656.631 L 1456.69,654.212 L 1460.45,652.538 L 1464.48,651.683 L 1466.54,651.575 L 1539.37,651.575 L 1541.43,651.683 L 1545.45,652.538 L 1549.21,654.212 L 1552.54,656.631 L 1555.3,659.689 L 1557.35,663.253 L 1558.62,667.167 L 1559.06,671.26 L 1559.06,680.471 L 1685.04,680.471 L 1685.04,671.26 L 1685.47,667.167 L 1686.74,663.253 L 1688.8,659.689 L 1691.55,656.631 L 1694.88,654.212 L 1698.64,652.538 L 1702.67,651.683 L 1769.77,651.683 L 1773.8,652.538 L 1777.56,654.212 L 1780.89,656.631 L 1783.64,659.689 L 1785.7,663.253 L 1786.97,667.167 L 1787.4,671.26 L 1787.4,769.685 L 1786.97,773.778 L 1785.7,777.692 L 1783.64,781.256 L 1780.89,784.314 L 1777.56,786.733 L 1773.8,788.407 L 1769.77,789.262 L 1767.72,789.37 L 1704.72,789.37 L 1702.67,789.262 L 1698.64,788.407 L 1694.88,786.733 L 1691.55,784.314 L 1688.8,781.256 L 1686.74,777.692 L 1685.47,773.778 L 1685.04,769.685 L 1685.04,760.471 L 1559.06,760.471 L 1559.06,769.685 L 1558.62,773.778 L 1557.35,777.692 L 1555.3,781.256 L 1552.54,784.314 L 1549.21,786.733 L 1545.45,788.407 L 1541.43,789.262 L 1464.48,789.262 L 1460.45,788.407 L 1456.69,786.733 L 1453.36,784.314 L 1450.61,781.256 L 1448.55,777.692 L 1447.28,773.778 L 1446.85,769.685 z " style="fill-opacity:1.000000;fill:rgb(233,94,212);stroke:rgb(0,0,0);stroke-width:2"/></g>
<g fill-rule="evenodd"><path d="M 1446.85,533.464 L 1446.85,435.039 L 1447.28,430.947 L 1448.55,427.033 L 1450.61,423.469 L 1453.36,420.411 L 1456.69,417.992 L 1460.45,416.318 L 1464.48,415.462 L 1466.54,415.354 L 1539.37,415.354 L 1541.43,415.462 L 1545.45,416.318 L 1549.21,417.992 L 1552.54,420.411 L 1555.3,423.469 L 1557.35,427.033 L 1558.62,430.947 L 1559.06,435.039 L 1559.06,444.251 L 1685.04,444.251 L 1685.04,435.039 L 1685.47,430.947 L 1686.74,427.033 L 1688.8,423.469 L 1691.55,420.411 L 1694.88,417.992 L 1698.64,416.318 L 1702.67,415.462 L 1769.77,415.462 L 1773.8,416.318 L 1777.56,417.992 L 1780.89,420.411 L 1783.64,423.469 L 1785.7,427.033 L 1786.97,430.947 L 1787.4,435.039 L 1787.4,533.465 L 1786.97,537.557 L 1785.7,541.471 L 1783.64,545.035 L 1780.89,548.093 L 1777.56,550.512 L 1773.8,552.186 L 1769.77,553.042 L 1767.72,553.15 L 1704.72,553.15 L 1702.67,553.042 L 1698.64,552.186 L 1694.88,550.512 L 1691.55,548.093 L 1688.8,545.035 L 1686.74,541.471 L 1685.47,537.557 L 1685.04,533.465 L 1685.04,524.251 L 1559.06,524.251 L 1559.06,533.464 L 1558.62,537.557 L 1557.35,541.471 L 1555.3,545.035 L 1552.54,548.093 L 1549.21,550.512 L 1545.45,552.186 L 1541.43,553.042 L 1464.48,553.042 L 1460.45,552.186 L 1456.69,550.512 L 1453.36,548.093 L 1450.61,545.035 L 1448.55,541.471 L 1447.28,537.557 L 1446.85,533.464 z " style="fill-opacity:1.000000;fill:rgb(171,178,205);stroke:rgb(0,0,0);stroke-width:2"/></g>
<g fill-rule="evenodd"><path d="M 1929.13,1242.13 L 1929.13,1143.7 L 1929.56,1139.61 L 1930.84,1135.69 L 1932.89,1132.13 L 1935.65,1129.07 L 1938.98,1126.65 L 1942.74,1124.98 L 1946.76,1124.12 L 2011.81,1124.02 L 2013.87,1124.12 L 2017.89,1124.98 L 2021.65,1126.65 L 2024.98,1129.07 L 2027.74,1132.13 L 2029.79,1135.69 L 2031.07,1139.61 L 2031.5,1143.7 L 2031.5,1152.91 L 3114.17,1152.91 L 3121.97,1153.68 L 3129.48,1155.96 L 3136.39,1159.65 L 3142.46,1164.63 L 3219.68,1241.85 L 3223.76,1246.63 L 3227.04,1251.98 L 3229.44,1257.78 L 3230.91,1263.88 L 3231.4,1270.14 L 3231.4,1362.11 L 3244.09,1371.33 L 3255.1,1383.56 L 3263.33,1397.82 L 3268.42,1413.47 L 3270.14,1429.84 L 3270.14,1488.9 L 3268.42,1505.27 L 3263.33,1520.92 L 3255.1,1535.18 L 3244.09,1547.41 L 3230.77,1557.09 L 3215.73,1563.78 L 3199.63,1567.21 L 3183.17,1567.21 L 3167.07,1563.78 L 3152.03,1557.09 L 3138.71,1547.41 L 3127.7,1535.18 L 3119.46,1520.92 L 3114.38,1505.27 L 3112.66,1488.9 L 3112.66,1429.84 L 3114.38,1413.47 L 3119.46,1397.82 L 3127.7,1383.56 L 3138.71,1371.33 L 3151.4,1362.11 L 3151.4,1286.71 L 3097.6,1232.91 L 2031.5,1232.91 L 2031.5,1242.13 L 2031.07,1246.22 L 2029.79,1250.13 L 2027.74,1253.7 L 2024.98,1256.75 L 2021.65,1259.17 L 2017.89,1260.85 L 2013.87,1261.7 L 2011.81,1261.81 L 1946.76,1261.7 L 1942.74,1260.85 L 1938.98,1259.17 L 1935.65,1256.75 L 1932.89,1253.7 L 1930.84,1250.13 L 1929.56,1246.22 L 1929.13,1242.13 z " style="fill-opacity:1.000000;fill:rgb(198,155,180);stroke:rgb(0,0,0);stroke-width:2"/></g>
<g fill-rule="evenodd"><path d="M 1929.13,1005.91 L 1929.13,907.48 L 1929.56,903.388 L 1930.84,899.474 L 1932.89,895.91 L 1935.65,892.851 L 1938.98,890.433 L 1942.74,888.759 L 1946.76,887.903 L 2011.81,887.795 L 2013.87,887.903 L 2017.89,888.759 L 2021.65,890.433 L 2024.98,892.851 L 2027.74,895.91 L 2029.79,899.474 L 2031.07,903.388 L 2031.5,907.48 L 2031.5,916.691 L 3216.53,916.691 L 3224.34,917.46 L 3231.84,919.736 L 3238.76,923.432 L 3244.82,928.407 L 3419.68,1103.27 L 3423.76,1108.04 L 3427.04,1113.4 L 3429.44,1119.19 L 3430.91,1125.3 L 3431.4,1131.56 L 3431.4,1362.11 L 3444.09,1371.33 L 3455.1,1383.56 L 3463.33,1397.82 L 3468.42,1413.47 L 3470.14,1429.84 L 3470.14,1488.9 L 3468.42,1505.27 L 3463.33,1520.92 L 3455.1,1535.18 L 3444.09,1547.41 L 3430.77,1557.09 L 3415.73,1563.78 L 3399.63,1567.21 L 3383.17,1567.21 L 3367.07,1563.78 L 3352.03,1557.09 L 3338.71,1547.41 L 3327.7,1535.18 L 3319.46,1520.92 L 3314.38,1505.27 L 3312.66,1488.9 L 3312.66,1429.84 L 3314.38,1413.47 L 3319.46,1397.82 L 3327.7,1383.56 L 3338.71,1371.33 L 3351.4,1362.11 L 3351.4,1148.12 L 3199.96,996.691 L 2031.5,996.691 L 2031.5,1005.91 L 2031.07,1010 L 2029.79,1013.91 L 2027.74,1017.48 L 2024.98,1020.53 L 2021.65,1022.95 L 2017.89,1024.63 L 2013.87,1025.48 L 2011.81,1025.59 L 1946.76,1025.48 L 1942.74,1024.63 L 1938.98,1022.95 L 1935.65,1020.53 L 1932.89,1017.48 L 1930.84,1013.91 L 1929.56,1010 L 1929.13,1005.91 z " style="fill-opacity:1.000000;fill:rgb(84,17,14);stroke:rgb(0,0,0);stroke-width:2"/></g>
<g fill-rule="evenodd"><path d="M 1929.13,769.685 L 1929.13,671.26 L 1929.56,667.167 L 1930.84,663.253 L 1932.89,659.689 L 1935.65,656.631 L 1938.98,654.212 L 1942.74,652.538 L 1946.76,651.683 L 2013.87,651.683 L 2017.89,652.538 L 2021.65,654.212 L 2024.98,656.631 L 2027.74,659.689 L 2029.79,663.253 L 2031.07,667.167 L 2031.5,671.26 L 2031.5,680.471 L 3377.95,680.471 L 3385.76,681.24 L 3393.26,683.516 L 3400.17,687.212 L 3406.24,692.187 L 3619.68,905.633 L 3623.76,910.406 L 3627.04,915.757 L 3629.44,921.556 L 3630.91,927.66 L 3631.4,933.917 L 3631.4,1362.11 L 3644.09,1371.33 L 3655.1,1383.56 L 3663.33,1397.82 L 3668.42,1413.47 L 3670.14,1429.84 L 3670.14,1488.9 L 3668.42,1505.27 L 3663.33,1520.92 L 3655.1,1535.18 L 3644.09,1547.41 L 3630.77,1557.09 L 3615.73,1563.78 L 3599.63,1567.21 L 3583.17,1567.21 L 3567.07,1563.78 L 3552.03,1557.09 L 3538.71,1547.41 L 3527.7,1535.18 L 3519.46,1520.92 L 3514.38,1505.27 L 3512.66,1488.9 L 3512.66,1429.84 L 3514.38,1413.47 L 3519.46,1397.82 L 3527.7,1383.56 L 3538.71,1371.33 L 3551.4,1362.11 L 3551.4,950.486 L 3361.38,760.471 L 2031.5,760.471 L 2031.5,769.685 L 2031.07,773.778 L 2029.79,777.692 L 2027.74,781.256 L 2024.98,784.314 L 2021.65,786.733 L 2017.89,788.407 L 2013.87,789.262 L 2011.81,789.37 L 1946.76,789.262 L 1942.74,788.407 L 1938.98,786.733 L 1935.65,784.314 L 1932.89,781.256 L 1930.84,777.692 L 1929.56,773.778 L 1929.13,769.685 z " style="fill-opacity:1.000000;fill:rgb(130,116,65);stroke:rgb(0,0,0);stroke-width:2"/></g>
<g fill-rule="evenodd"><path d="M 1929.13,533.465 L 1929.13,435.039 L 1929.56,430.947 L 1930.84,427.033 L 1932.89,423.469 L 1935.65,420.411 L 1938.98,417.992 L 1942.74,416.318 L 1946.76,415.462 L 2013.87,415.462 L 2017.89,416.318 L 2021.65,417.992 L 2024.98,420.411 L 2027.74,423.469 L 2029.79,427.033 L 2031.07,430.947 L 2031.5,435.039 L 2031.5,444.251 L 3456.69,444.251 L 3464.5,445.02 L 3472,447.296 L 3478.91,450.992 L 3484.98,455.967 L 3819.68,790.671 L 3823.76,795.444 L 3827.04,800.795 L 3829.44,806.594 L 3830.91,812.698 L 3831.4,818.955 L 3831.4,1362.11 L 3844.09,1371.33 L 3855.1,1383.56 L 3863.33,1397.82 L 3868.42,1413.47 L 3870.14,1429.84 L 3870.14,1488.9 L 3868.42,1505.27 L 3863.33,1520.92 L 3855.1,1535.18 L 3844.09,1547.41 L 3830.77,1557.09 L 3815.73,1563.78 L 3799.63,1567.21 L 3783.17,1567.21 L 3767.07,1563.78 L 3752.03,1557.09 L 3738.71,1547.41 L 3727.7,1535.18 L 3719.46,1520.92 L 3714.38,1505.27 L 3712.66,1488.9 L 3712.66,1429.84 L 3714.38,1413.47 L 3719.46,1397.82 L 3727.7,1383.56 L 3738.71,1371.33 L 3751.4,1362.11 L 3751.4,835.524 L 3440.12,524.251 L 2031.5,524.251 L 2031.5,533.465 L 2031.07,537.557 L 2029.79,541.471 L 2027.74,545.035 L 2024.98,548.093 L 2021.65,550.512 L 2017.89,552.186 L 2013.87,553.042 L 2011.81,553.15 L 1946.76,553.042 L 1942.74,552.186 L 1938.98,550.512 L 1935.65,548.093 L 1932.89,545.035 L 1930.84,541.471 L 1929.56,537.557 L 1929.13,533.465 z " style="fill-opacity:1.000000;fill:rgb(33,61,220);stroke:rgb(0,0,0);stroke-width:2"/></g>
<g fill-rule="evenodd"><path d="M 2452.76,3234.25 L 2452.76,3135.83 L 2453.19,3131.73 L 2454.46,3127.82 L 2456.52,3124.26 L 2459.27,3121.2 L 2462.6,3118.78 L 2466.36,3117.11 L 2470.38,3116.25 L 2472.44,3116.14 L 2535.43,3116.14 L 2537.49,3116.25 L 2541.52,3117.11 L 2545.28,3118.78 L 2548.6,3121.2 L 2551.36,3124.26 L 2553.42,3127.82 L 2554.69,3131.73 L 2555.12,3135.83 L 2555.12,3165.04 L 2629.92,3165.04 L 2629.92,3135.83 L 2630.35,3131.73 L 2631.62,3127.82 L 2633.68,3124.26 L 2636.43,3121.2 L 2639.76,3118.78 L 2643.52,3117.11 L 2647.55,3116.25 L 2649.61,3116.14 L 2712.6,3116.14 L 2714.66,3116.25 L 2718.68,3117.11 L 2720.11,3117.74 L 2771.4,3066.46 L 2771.4,2982.03 L 2767.07,2981.11 L 2752.03,2974.41 L 2738.71,2964.74 L 2727.7,2952.5 L 2719.46,2938.25 L 2714.38,2922.59 L 2712.66,2906.22 L 2712.66,2847.17 L 2714.38,2830.79 L 2719.46,2815.14 L 2727.7,2800.88 L 2738.71,2788.65 L 2752.03,2778.97 L 2767.07,2772.28 L 2783.17,2768.86 L 2799.63,2768.86 L 2815.73,2772.28 L 2830.77,2778.97 L 2844.09,2788.65 L 2855.1,2800.88 L 2863.33,2815.14 L 2868.42,2830.79 L 2870.14,2847.17 L 2870.14,2906.22 L 2868.42,2922.59 L 2863.33,2938.25 L 2855.1,2952.5 L 2844.09,2964.74 L 2830.77,2974.41 L 2815.73,2981.11 L 2811.4,2982.03 L 2811.4,3074.74 L 2811.01,3078.64 L 2809.88,3082.4 L 2808.03,3085.85 L 2805.54,3088.89 L 2732.28,3162.14 L 2732.28,3234.25 L 2731.85,3238.34 L 2730.58,3242.26 L 2728.52,3245.82 L 2725.77,3248.88 L 2722.44,3251.3 L 2718.68,3252.97 L 2714.66,3253.83 L 2649.61,3253.94 L 2647.55,3253.83 L 2643.52,3252.97 L 2639.76,3251.3 L 2636.43,3248.88 L 2633.68,3245.82 L 2631.62,3242.26 L 2630.35,3238.34 L 2629.92,3234.25 L 2629.92,3205.04 L 2555.12,3205.04 L 2555.12,3234.25 L 2554.69,3238.34 L 2553.42,3242.26 L 2551.36,3245.82 L 2548.6,3248.88 L 2545.28,3251.3 L 2541.52,3252.97 L 2537.49,3253.83 L 2535.43,3253.94 L 2470.38,3253.83 L 2466.36,3252.97 L 2462.6,3251.3 L 2459.27,3248.88 L 2456.52,3245.82 L 2454.46,3242.26 L 2453.19,3238.34 L 2452.76,3234.25 z " style="fill-opacity:1.000000;fill:rgb(135,112,233);stroke:rgb(0,0,0);stroke-width:2"/></g>
<g fill-rule="evenodd"><path d="M 2712.66,1488.9 L 2712.66,1429.84 L 2714.38,1413.47 L 2719.46,1397.82 L 2727.7,1383.56 L 2738.71,1371.33 L 2752.03,1361.65 L 2767.07,1354.96 L 2783.17,1351.53 L 2799.63,1351.53 L 2815.73,1354.96 L 2830.77,1361.65 L 2844.09,1371.33 L 2855.1,1383.56 L 2863.33,1397.82 L 2868.42,1413.47 L 2870.14,1429.84 L 2870.14,1488.9 L 2868.42,1505.27 L 2863.33,1520.92 L 2855.1,1535.18 L 2844.09,1547.41 L 2830.77,1557.09 L 2815.73,1563.78 L 2799.63,1567.21 L 2783.17,1567.21 L 2767.07,1563.78 L 2752.03,1557.09 L 2738.71,1547.41 L 2727.7,1535.18 L 2719.46,1520.92 L 2714.38,1505.27 L 2712.66,1488.9 z " style="fill-opacity:1.000000;fill:rgb(62,161,65);stroke:rgb(0,0,0);stroke-width:2"/></g>
<g fill-rule="evenodd"><path d="M 2912.66,2906.22 L 2912.66,2847.17 L 2914.38,2830.79 L 2919.46,2815.14 L 2927.7,2800.88 L 2938.71,2788.65 L 2952.03,2778.97 L 2967.07,2772.28 L 2983.17,2768.86 L 2999.63,2768.86 L 3015.73,2772.28 L 3030.77,2778.97 L 3044.09,2788.65 L 3055.1,2800.88 L 3063.33,2815.14 L 3068.42,2830.79 L 3070.14,2847.17 L 3070.14,2906.22 L 3068.42,2922.59 L 3063.33,2938.25 L 3055.1,2952.5 L 3044.09,2964.74 L 3030.77,2974.41 L 3015.73,2981.11 L 2999.63,2984.53 L 2983.17,2984.53 L 2967.07,2981.11 L 2952.03,2974.41 L 2938.71,2964.74 L 2927.7,2952.5 L 2919.46,2938.25 L 2914.38,2922.59 L 2912.66,2906.22 z " style="fill-opacity:1.000000;fill:rgb(225,252,103);stroke:rgb(0,0,0);stroke-width:2"/></g>
<g fill-rule="evenodd"><path d="M 2912.66,1488.9 L 2912.66,1429.84 L 2914.38,1413.47 L 2919.46,1397.82 L 2927.7,1383.56 L 2938.71,1371.33 L 2952.03,1361.65 L 2967.07,1354.96 L 2983.17,1351.53 L 2999.63,1351.53 L 3015.73,1354.96 L 3030.77,1361.65 L 3044.09,1371.33 L 3055.1,1383.56 L 3063.33,1397.82 L 3068.42,1413.47 L 3070.14,1429.84 L 3070.14,1488.9 L 3068.42,1505.27 L 3063.33,1520.92 L 3055.1,1535.18 L 3044.09,1547.41 L 3030.77,1557.09 L 3015.73,1563.78 L 2999.63,1567.21 L 2983.17,1567.21 L 2967.07,1563.78 L 2952.03,1557.09 L 2938.71,1547.41 L 2927.7,1535.18 L 2919.46,1520.92 L 2914.38,1505.27 L 2912.66,1488.9 z " style="fill-opacity:1.000000;fill:rgb(62,1,126);stroke:rgb(0,0,0);stroke-width:2"/></g>
<g fill-rule="evenodd"><path d="M 3751.97,3318.9 L 3752.83,3310.71 L 3755.37,3302.88 L 3759.49,3295.76 L 3764.99,3289.64 L 3771.65,3284.8 L 3779.17,3281.45 L 3787.22,3279.74 L 3795.45,3279.74 L 3803.5,3281.45 L 3811.02,3284.8 L 3817.68,3289.64 L 3823.19,3295.76 L 3827.3,3302.88 L 3829.85,3310.71 L 3830.71,3318.9 L 3829.85,3327.08 L 3827.3,3334.91 L 3823.19,3342.04 L 3817.68,3348.16 L 3811.02,3352.99 L 3803.5,3356.34 L 3795.45,3358.05 L 3787.22,3358.05 L 3779.17,3356.34 L 3771.65,3352.99 L 3764.99,3348.16 L 3759.49,3342.04 L 3755.37,3334.91 L 3752.83,3327.08 L 3751.97,3318.9 z " style="fill-opacity:1.000000;fill:rgb(151,234,220);stroke:rgb(0,0,0);stroke-width:2"/></g>
<g fill-rule="evenodd"><path d="M 3751.97,326.772 L 3752.83,318.586 L 3755.37,310.758 L 3759.49,303.631 L 3764.99,297.514 L 3771.65,292.676 L 3779.17,289.328 L 3787.22,287.617 L 3795.45,287.617 L 3803.5,289.328 L 3811.02,292.676 L 3817.68,297.514 L 3823.19,303.631 L 3827.3,310.758 L 3829.85,318.586 L 3830.71,326.772 L 3829.85,334.957 L 3827.3,342.785 L 3823.19,349.913 L 3817.68,356.029 L 3811.02,360.867 L 3803.5,364.215 L 3795.45,365.926 L 3787.22,365.926 L 3779.17,364.215 L 3771.65,360.867 L 3764.99,356.029 L 3759.49,349.913 L 3755.37,342.785 L 3752.83,334.957 L 3751.97,326.772 z " style="fill-opacity:1.000000;fill:rgb(107,150,143);stroke:rgb(0,0,0);stroke-width:2"/></g>
</svg>
