<?xml version="1.0" standalone="no"?>
<!DOCTYPE svg PUBLIC "-//W3C//DTD SVG 1.1//EN"
"http://www.w3.org/Graphics/SVG/1.1/DTD/svg11.dtd">
<svg width="195.402" height="172.724" viewBox="0 0 4070.87 3598.43" version="1.1"
xmlns="http://www.w3.org/2000/svg"
xmlns:xlink="http://www.w3.org/1999/xlink">
<g fill-rule="evenodd"><path d="M 86.9671,3496.54 L 86.9671,101.89 L 88.4451,95.4161 L 92.5851,90.2241 L 98.5691,87.3441 L 101.889,86.9701 L 3968.98,86.9701 L 3975.45,88.4481 L 3980.64,92.5881 L 3983.52,98.5701 L 3983.9,101.89 L 3983.9,1390.59 L 3982.42,1397.07 L 3978.28,1402.26 L 3972.3,1405.14 L 3968.98,1405.51 L 3890.75,1405.51 L 3884.27,1404.04 L 3879.08,1399.89 L 3876.2,1393.91 L 3872.82,1376.48 L 3866.28,1359.15 L 3856.91,1343.18 L 3844.97,1329.02 L 3830.82,1317.09 L 3825.18,1313.78 L 3820.35,1309.23 L 3817.97,1303.03 L 3817.99,673.31 L 3817.59,660.674 L 3816.63,656.02 L 3814.06,648.532 L 3811.97,644.266 L 3807.63,637.65 L 3804.54,634.038 L 3801.24,631.264 L 3396.34,226.118 L 3387.13,217.464 L 3383.15,214.856 L 3376.05,211.374 L 3371.55,209.834 L 3363.8,208.23 L 3359.06,207.856 L 3354.77,208.23 L 2305.69,208.23 L 2299.21,206.752 L 2294.02,202.612 L 2291.36,197.472 L 2288.71,188.364 L 2282.32,177.55 L 2273.44,168.666 L 2262.62,162.272 L 2250.56,158.766 L 2247.74,158.544 L 2174.7,158.544 L 2171.88,158.766 L 2159.82,162.272 L 2149.01,168.666 L 2140.12,177.55 L 2133.73,188.364 L 2130.22,200.428 L 2130,203.248 L 2130,311.716 L 2130.22,314.534 L 2133.73,326.598 L 2140.12,337.412 L 2149.01,346.296 L 2159.82,352.692 L 2171.88,356.196 L 2174.7,356.418 L 2247.74,356.418 L 2250.56,356.196 L 2262.62,352.692 L 2273.44,346.296 L 2282.32,337.412 L 2288.71,326.598 L 2290.9,319.066 L 2294.13,313.262 L 2299.55,309.432 L 2305.23,308.308 L 3330.57,308.308 L 3337.05,309.786 L 3341.12,312.678 L 3713.37,684.92 L 3716.9,690.544 L 3717.74,695.472 L 3717.74,1300.91 L 3716.26,1307.39 L 3712.12,1312.58 L 3704.74,1317.09 L 3690.58,1329.02 L 3679.18,1342.54 L 3673.88,1346.54 L 3667.37,1347.84 L 3660.94,1346.18 L 3656.37,1342.54 L 3644.97,1329.02 L 3630.82,1317.09 L 3625.18,1313.78 L 3620.35,1309.23 L 3617.97,1303.03 L 3617.99,735.514 L 3617.59,722.878 L 3616.63,718.224 L 3614.06,710.738 L 3611.97,706.47 L 3607.63,699.856 L 3604.54,696.242 L 3601.24,693.468 L 3370.36,462.34 L 3361.14,453.684 L 3357.17,451.076 L 3350.06,447.594 L 3345.57,446.054 L 3337.82,444.45 L 3333.08,444.076 L 3328.78,444.45 L 2305.69,444.45 L 2299.21,442.972 L 2294.02,438.832 L 2291.36,433.692 L 2288.71,424.584 L 2282.32,413.77 L 2273.44,404.886 L 2262.62,398.492 L 2250.56,394.986 L 2247.74,394.764 L 2174.7,394.764 L 2171.88,394.986 L 2159.82,398.492 L 2149.01,404.886 L 2140.12,413.77 L 2133.73,424.584 L 2130.22,436.648 L 2130,439.468 L 2130,547.936 L 2130.22,550.754 L 2133.73,562.82 L 2140.12,573.632 L 2149.01,582.516 L 2159.82,588.912 L 2171.88,592.416 L 2174.7,592.638 L 2247.74,592.638 L 2250.56,592.416 L 2262.62,588.912 L 2273.44,582.516 L 2282.32,573.632 L 2288.71,562.82 L 2290.9,555.286 L 2294.13,549.482 L 2299.55,545.652 L 2305.23,544.528 L 3304.59,544.528 L 3311.06,546.006 L 3315.14,548.898 L 3513.37,747.126 L 3516.9,752.748 L 3517.74,757.676 L 3517.74,1300.91 L 3516.26,1307.39 L 3512.12,1312.58 L 3504.74,1317.09 L 3490.58,1329.02 L 3479.18,1342.54 L 3473.88,1346.54 L 3467.37,1347.84 L 3460.94,1346.18 L 3456.37,1342.54 L 3444.97,1329.02 L 3430.82,1317.09 L 3425.18,1313.78 L 3420.35,1309.23 L 3417.97,1303.03 L 3417.99,889.058 L 3417.59,876.422 L 3416.63,871.768 L 3414.06,864.282 L 3411.97,860.014 L 3407.63,853.398 L 3404.54,849.786 L 3401.24,847.012 L 3247.33,693.1 L 3243.82,689.904 L 3239.85,687.296 L 3232.74,683.814 L 3228.24,682.276 L 3220.49,680.67 L 3215.76,680.298 L 3211.46,680.67 L 2305.69,680.67 L 2299.21,679.192 L 2294.02,675.052 L 2291.36,669.912 L 2288.71,660.804 L 2282.32,649.99 L 2273.44,641.108 L 2262.62,634.712 L 2250.56,631.208 L 2247.74,630.986 L 2174.7,630.986 L 2171.88,631.208 L 2159.82,634.712 L 2149.01,641.108 L 2140.12,649.992 L 2133.73,660.804 L 2130.22,672.87 L 2130,675.688 L 2130,784.156 L 2130.22,786.976 L 2133.73,799.04 L 2140.12,809.854 L 2149.01,818.738 L 2159.82,825.132 L 2171.88,828.638 L 2174.7,828.86 L 2247.74,828.86 L 2250.56,828.638 L 2262.62,825.132 L 2273.44,818.738 L 2282.32,809.854 L 2288.71,799.04 L 2290.9,791.508 L 2294.13,785.702 L 2299.55,781.872 L 2305.23,780.748 L 3187.27,780.748 L 3193.74,782.226 L 3197.82,785.12 L 3313.37,900.668 L 3316.9,906.292 L 3317.74,911.22 L 3317.74,1300.91 L 3316.26,1307.39 L 3312.12,1312.58 L 3304.74,1317.09 L 3290.58,1329.02 L 3279.18,1342.54 L 3273.88,1346.54 L 3267.37,1347.84 L 3260.94,1346.18 L 3256.37,1342.54 L 3244.97,1329.02 L 3230.82,1317.09 L 3225.18,1313.78 L 3220.35,1309.23 L 3217.97,1303.03 L 3217.81,1094.55 L 3217.59,1089.81 L 3216.63,1085.15 L 3214.06,1077.67 L 3211.97,1073.4 L 3207.63,1066.78 L 3204.54,1063.17 L 3201.24,1060.4 L 3070.16,929.32 L 3066.65,926.126 L 3062.68,923.516 L 3055.57,920.034 L 3051.08,918.496 L 3043.33,916.89 L 3038.59,916.518 L 3034.3,916.89 L 2305.69,916.89 L 2299.21,915.414 L 2294.02,911.272 L 2291.36,906.132 L 2288.71,897.026 L 2282.32,886.212 L 2273.44,877.328 L 2262.62,870.932 L 2250.56,867.428 L 2247.74,867.206 L 2174.7,867.206 L 2171.88,867.428 L 2159.82,870.932 L 2149.01,877.328 L 2140.12,886.212 L 2133.73,897.026 L 2130.22,909.09 L 2130,911.908 L 2130,1020.38 L 2130.22,1023.2 L 2133.73,1035.26 L 2140.12,1046.07 L 2149.01,1054.96 L 2159.82,1061.35 L 2171.88,1064.86 L 2174.7,1065.08 L 2247.74,1065.08 L 2250.56,1064.86 L 2262.62,1061.35 L 2273.44,1054.96 L 2282.32,1046.07 L 2288.71,1035.26 L 2290.9,1027.73 L 2294.13,1021.92 L 2299.55,1018.09 L 2305.23,1016.97 L 3010.1,1016.97 L 3016.57,1018.45 L 3020.65,1021.34 L 3113.37,1114.05 L 3116.9,1119.68 L 3117.74,1124.61 L 3117.74,1300.91 L 3116.26,1307.39 L 3112.12,1312.58 L 3104.74,1317.09 L 3090.58,1329.02 L 3079.18,1342.54 L 3073.88,1346.54 L 3067.37,1347.84 L 3060.94,1346.18 L 3056.37,1342.54 L 3044.97,1329.02 L 3030.82,1317.09 L 3014.84,1307.72 L 2997.52,1301.18 L 2979.34,1297.66 L 2960.37,1297.44 L 2956.21,1297.66 L 2938.03,1301.18 L 2930.73,1303.93 L 2924.15,1304.84 L 2917.83,1302.8 L 2914.91,1300.52 L 2756.31,1141.92 L 2752.79,1138.72 L 2748.82,1136.12 L 2741.72,1132.63 L 2737.22,1131.09 L 2729.47,1129.49 L 2724.73,1129.12 L 2720.44,1129.49 L 1815.77,1129.32 L 1803.13,1129.71 L 1798.48,1130.68 L 1790.99,1133.24 L 1786.73,1135.33 L 1780.11,1139.68 L 1776.5,1142.76 L 1773.72,1146.06 L 1574.19,1345.59 L 1568.57,1349.12 L 1563.64,1349.96 L 1369.09,1349.96 L 1362.62,1348.48 L 1357.43,1344.34 L 1353.38,1337.79 L 1344.5,1328.9 L 1333.68,1322.51 L 1321.62,1319 L 1318.8,1318.78 L 1210.33,1318.78 L 1207.51,1319 L 1195.45,1322.51 L 1184.64,1328.9 L 1175.75,1337.79 L 1172.88,1342.64 L 1168.32,1347.46 L 1162.11,1349.82 L 1120.61,1349.96 L 1114.13,1348.48 L 1110.06,1345.59 L 1007.89,1243.42 L 1004.35,1237.8 L 1003.61,1231.2 L 1005.57,1225.23 L 1006.42,1219.39 L 1006.42,1087.7 L 1005.57,1081.86 L 1001.16,1072.86 L 994.073,1065.77 L 985.067,1061.36 L 979.227,1060.51 L 918.407,1060.51 L 912.569,1061.36 L 905.327,1064.9 L 898.861,1066.42 L 892.379,1064.98 L 885.055,1061.4 L 879.225,1060.55 L 873.817,1060.55 L 873.817,1090.55 L 876.378,1090.55 L 876.378,1216.54 L 821.26,1216.54 L 821.26,1090.55 L 823.817,1090.55 L 823.817,1060.55 L 818.411,1060.55 L 815.929,1060.91 L 809.311,1060.38 L 803.575,1057.04 L 799.861,1051.53 L 798.857,1046.15 L 798.857,930.058 L 800.335,923.584 L 803.227,919.508 L 826.591,896.142 L 832.215,892.61 L 837.143,891.772 L 1082.54,891.772 L 1089.02,893.25 L 1093.09,896.142 L 1210.16,1013.21 L 1213.69,1018.83 L 1214.53,1023.76 L 1214.53,1061.67 L 1213.05,1068.14 L 1208.91,1073.33 L 1203.77,1076 L 1195.45,1078.41 L 1184.64,1084.81 L 1175.75,1093.69 L 1169.36,1104.51 L 1165.85,1116.57 L 1165.63,1119.39 L 1165.63,1192.42 L 1165.85,1195.24 L 1169.36,1207.31 L 1175.75,1218.12 L 1184.64,1227 L 1195.45,1233.4 L 1207.51,1236.91 L 1210.33,1237.13 L 1318.8,1237.13 L 1321.62,1236.91 L 1333.68,1233.4 L 1344.5,1227 L 1353.38,1218.12 L 1359.78,1207.31 L 1363.28,1195.24 L 1363.5,1192.42 L 1363.5,1119.39 L 1363.28,1116.57 L 1359.78,1104.51 L 1353.38,1093.69 L 1344.5,1084.81 L 1333.68,1078.41 L 1325.36,1076 L 1319.56,1072.77 L 1315.73,1067.35 L 1314.61,1061.67 L 1314.78,1001.6 L 1314.38,988.962 L 1313.42,984.308 L 1310.86,976.82 L 1308.76,972.552 L 1304.42,965.938 L 1301.33,962.324 L 1298.03,959.55 L 1142.61,804.124 L 1139.09,800.928 L 1135.12,798.32 L 1128.02,794.838 L 1123.52,793.298 L 1115.77,791.694 L 1111.03,791.32 L 1106.74,791.694 L 814.981,791.52 L 802.345,791.916 L 797.691,792.88 L 790.205,795.444 L 785.937,797.534 L 779.323,801.88 L 775.709,804.966 L 772.935,808.268 L 732.461,848.74 L 726.839,852.274 L 721.911,853.112 L 473.249,852.938 L 460.613,853.334 L 455.959,854.298 L 448.471,856.862 L 444.205,858.952 L 437.589,863.298 L 433.975,866.384 L 431.203,869.684 L 349.791,951.096 L 346.595,954.608 L 343.987,958.578 L 340.505,965.686 L 338.967,970.182 L 337.361,977.932 L 336.989,982.668 L 337.361,986.964 L 337.187,1662.97 L 337.585,1675.61 L 338.547,1680.26 L 341.111,1687.75 L 343.203,1692.02 L 347.547,1698.63 L 350.633,1702.24 L 353.935,1705.02 L 467.435,1818.76 L 476.653,1827.42 L 480.623,1830.03 L 487.731,1833.51 L 492.227,1835.05 L 499.977,1836.65 L 504.713,1837.03 L 509.009,1836.65 L 545.079,1836.65 L 551.553,1838.13 L 556.745,1842.27 L 560.791,1848.83 L 569.673,1857.71 L 580.487,1864.11 L 592.553,1867.61 L 595.371,1867.84 L 703.839,1867.84 L 706.659,1867.61 L 718.723,1864.11 L 729.537,1857.71 L 738.421,1848.83 L 742.219,1842.41 L 746.787,1837.59 L 752.993,1835.22 L 760.091,1835.08 L 766.565,1836.56 L 771.757,1840.7 L 774.419,1845.84 L 776.835,1854.16 L 783.231,1864.97 L 792.115,1873.86 L 802.929,1880.25 L 814.993,1883.76 L 817.813,1883.98 L 890.847,1883.98 L 893.667,1883.76 L 905.731,1880.25 L 916.545,1873.86 L 925.427,1864.97 L 931.823,1854.16 L 935.329,1842.09 L 935.551,1839.27 L 935.551,1730.81 L 935.329,1727.99 L 931.823,1715.92 L 925.427,1705.11 L 916.545,1696.23 L 905.731,1689.83 L 893.667,1686.33 L 890.847,1686.1 L 817.813,1686.1 L 814.993,1686.33 L 802.929,1689.83 L 792.115,1696.23 L 783.231,1705.11 L 776.835,1715.92 L 774.419,1724.24 L 771.193,1730.05 L 765.769,1733.88 L 760.091,1735 L 753.201,1735 L 746.727,1733.52 L 741.535,1729.38 L 738.421,1724.4 L 729.537,1715.52 L 718.723,1709.12 L 706.659,1705.62 L 703.839,1705.39 L 595.371,1705.39 L 592.553,1705.62 L 580.487,1709.12 L 569.675,1715.52 L 560.791,1724.4 L 557.923,1729.25 L 553.355,1734.07 L 547.149,1736.43 L 533.205,1736.58 L 526.731,1735.1 L 522.655,1732.21 L 441.811,1651.36 L 438.277,1645.74 L 437.439,1640.81 L 437.439,1011.16 L 438.917,1004.69 L 441.811,1000.61 L 484.859,957.56 L 490.483,954.028 L 495.411,953.19 L 683.857,953.19 L 690.331,954.668 L 695.523,958.808 L 698.405,964.79 L 698.779,968.112 L 698.779,1046.11 L 697.301,1052.58 L 693.161,1057.77 L 687.177,1060.66 L 681.705,1060.87 L 679.227,1060.51 L 618.407,1060.51 L 612.569,1061.36 L 603.563,1065.77 L 596.473,1072.86 L 592.071,1081.86 L 591.219,1087.7 L 591.219,1219.39 L 592.071,1225.23 L 596.789,1234.67 L 599.347,1240.8 L 599.565,1243.34 L 599.565,1448.28 L 598.089,1454.76 L 593.947,1459.95 L 588.807,1462.61 L 580.487,1465.03 L 569.675,1471.42 L 560.791,1480.31 L 554.395,1491.12 L 550.891,1503.18 L 550.669,1506 L 550.669,1579.04 L 550.891,1581.86 L 554.395,1593.92 L 560.791,1604.74 L 569.673,1613.62 L 580.487,1620.01 L 592.553,1623.52 L 595.371,1623.74 L 703.839,1623.74 L 706.659,1623.52 L 718.723,1620.01 L 729.537,1613.62 L 738.421,1604.74 L 741.289,1599.89 L 745.855,1595.07 L 752.063,1592.7 L 754.131,1592.56 L 1566.91,1592.73 L 1579.54,1592.34 L 1584.2,1591.37 L 1591.68,1588.81 L 1595.95,1586.72 L 1602.57,1582.37 L 1606.18,1579.29 L 1608.95,1575.99 L 1853.36,1331.58 L 1858.99,1328.04 L 1863.92,1327.21 L 2461.96,1327.21 L 2468.43,1328.68 L 2473.63,1332.82 L 2476.51,1338.81 L 2476.51,1345.45 L 2474.83,1349.68 L 2469.27,1359.15 L 2462.89,1376.06 L 2459.22,1381.59 L 2453.52,1384.99 L 2448.93,1385.71 L 2026.46,1385.71 L 2021.72,1385.93 L 2017.06,1386.9 L 2009.57,1389.46 L 2005.31,1391.55 L 1998.69,1395.9 L 1995.08,1398.98 L 1992.31,1402.28 L 1819.03,1575.31 L 1810.38,1584.53 L 1807.77,1588.5 L 1804.29,1595.61 L 1802.75,1600.1 L 1801.14,1607.85 L 1800.77,1612.59 L 1801.14,1616.89 L 1801.14,1693.23 L 1799.66,1699.7 L 1795.52,1704.89 L 1794.11,1705.92 L 1787.03,1713.01 L 1782.62,1722.02 L 1781.77,1727.86 L 1781.77,1914.66 L 1782.62,1920.5 L 1787.03,1929.51 L 1794.11,1936.6 L 1803.12,1941 L 1808.96,1941.85 L 1893.4,1941.85 L 1899.24,1941 L 1908.25,1936.6 L 1915.34,1929.51 L 1919.74,1920.5 L 1920.59,1914.66 L 1920.59,1727.86 L 1919.74,1722.02 L 1915.34,1713.01 L 1907.47,1705.37 L 1903.06,1700.41 L 1901.24,1694.02 L 1901.22,1641.08 L 1902.7,1634.61 L 1905.59,1630.53 L 2045.96,1490.16 L 2051.59,1486.63 L 2056.51,1485.79 L 2296.1,1485.79 L 2302.58,1487.27 L 2307.77,1491.41 L 2310.65,1497.39 L 2311.02,1500.71 L 2311.02,1708.12 L 2309.55,1714.6 L 2306.65,1718.68 L 2244.87,1780.46 L 2241.98,1782.8 L 2238.54,1786.79 L 2232.43,1794.27 L 2226.32,1806.9 L 2223.27,1820.63 L 2223.43,1920.13 L 2221.95,1926.61 L 2219.05,1930.68 L 2155.88,1993.86 L 2150.26,1997.39 L 2145.33,1998.23 L 1913.34,1998.23 L 1909.63,1997.85 L 1894.79,1999.19 L 1880.74,2004.25 L 1869.02,2011.96 L 1812.59,2068.65 L 1809.7,2070.99 L 1800.14,2082.46 L 1794.02,2095.11 L 1790.99,2108.8 L 1791.14,2151.54 L 1789.66,2158.01 L 1787.03,2161.83 L 1782.62,2170.84 L 1781.77,2176.68 L 1781.77,2195.12 L 1780.29,2201.59 L 1776.15,2206.78 L 1770.17,2209.67 L 1766.85,2210.04 L 1721.97,2210.04 L 1715.5,2208.56 L 1711.42,2205.67 L 1702.37,2196.62 L 1691.56,2190.22 L 1679.49,2186.72 L 1676.67,2186.5 L 1564.27,2186.5 L 1561.45,2186.72 L 1549.39,2190.22 L 1538.57,2196.62 L 1529.69,2205.5 L 1523.29,2216.32 L 1519.79,2228.38 L 1519.57,2231.2 L 1519.57,2306.2 L 1519.79,2309.02 L 1523.29,2321.09 L 1529.69,2331.9 L 1538.57,2340.78 L 1549.39,2347.18 L 1561.45,2350.68 L 1564.27,2350.91 L 1676.67,2350.91 L 1679.49,2350.68 L 1691.56,2347.18 L 1702.37,2340.78 L 1708.67,2334.49 L 1714.29,2330.96 L 1719.22,2330.12 L 1766.85,2330.12 L 1773.32,2331.6 L 1778.52,2335.74 L 1781.4,2341.72 L 1781.77,2345.04 L 1781.77,2363.48 L 1782.62,2369.32 L 1787.03,2378.33 L 1794.11,2385.42 L 1803.12,2389.82 L 1808.96,2390.67 L 1893.4,2390.67 L 1899.24,2389.82 L 1908.25,2385.42 L 1915.34,2378.33 L 1919.74,2369.32 L 1920.59,2363.48 L 1920.59,2176.68 L 1919.74,2170.84 L 1915.34,2161.83 L 1912.06,2156.46 L 1911.22,2151.54 L 1911.22,2146.01 L 1912.7,2139.54 L 1915.59,2135.46 L 1928.37,2122.68 L 1934,2119.15 L 1938.92,2118.31 L 2170.92,2118.31 L 2174.62,2118.69 L 2189.48,2117.34 L 2202.71,2112.69 L 2214.6,2105.17 L 2285.55,2034 L 2291.17,2030.47 L 2297.77,2029.73 L 2304.04,2031.92 L 2308.74,2036.62 L 2310.93,2042.88 L 2311.02,2044.55 L 2311.02,2447.84 L 2309.55,2454.31 L 2305.41,2459.5 L 2299.42,2462.38 L 2296.1,2462.76 L 1455.51,2462.76 L 1449.04,2461.28 L 1443.85,2457.14 L 1440.96,2451.16 L 1440.59,2447.84 L 1440.76,2081.91 L 1440.37,2069.28 L 1439.4,2064.62 L 1436.84,2057.14 L 1434.75,2052.87 L 1430.4,2046.25 L 1427.32,2042.64 L 1424.02,2039.87 L 1184.02,1799.86 L 1180.48,1794.24 L 1179.65,1789.31 L 1179.65,1730.81 L 1179.42,1727.99 L 1175.92,1715.92 L 1169.52,1705.11 L 1160.64,1696.23 L 1149.83,1689.83 L 1137.76,1686.33 L 1134.94,1686.1 L 1061.91,1686.1 L 1059.09,1686.33 L 1047.02,1689.83 L 1036.21,1696.23 L 1027.33,1705.11 L 1020.93,1715.92 L 1017.43,1727.99 L 1017.2,1730.81 L 1017.2,1839.27 L 1017.43,1842.09 L 1020.93,1854.16 L 1027.33,1864.97 L 1036.21,1873.86 L 1047.02,1880.25 L 1059.09,1883.76 L 1061.91,1883.98 L 1120.42,1883.98 L 1126.89,1885.45 L 1130.97,1888.35 L 1336.14,2093.52 L 1339.67,2099.15 L 1340.51,2104.07 L 1340.51,2447.84 L 1339.03,2454.31 L 1334.89,2459.5 L 1328.91,2462.38 L 1325.59,2462.76 L 1280.31,2462.76 L 1273.83,2461.28 L 1268.64,2457.14 L 1264.01,2449.6 L 1255.13,2440.71 L 1244.31,2434.32 L 1232.25,2430.81 L 1229.43,2430.59 L 1117.03,2430.59 L 1114.21,2430.81 L 1102.14,2434.32 L 1091.33,2440.71 L 1082.44,2449.6 L 1077.48,2457.99 L 1072.91,2462.81 L 1066.71,2465.17 L 987.361,2465.32 L 980.887,2463.84 L 975.695,2459.7 L 972.813,2453.71 L 972.439,2450.39 L 972.439,2350.39 L 342.519,2350.39 L 342.519,2980.32 L 972.439,2980.32 L 972.439,2845.36 L 932.283,2845.36 L 932.283,2846.85 L 790.551,2846.85 L 790.551,2783.86 L 932.283,2783.86 L 932.283,2785.36 L 972.439,2785.36 L 972.439,2780.32 L 973.917,2773.84 L 978.057,2768.65 L 984.041,2765.77 L 987.361,2765.39 L 1068,2765.39 L 1074.48,2766.87 L 1079.67,2771.01 L 1084.41,2778.75 L 1093.3,2787.63 L 1104.11,2794.03 L 1116.18,2797.53 L 1118.99,2797.76 L 1227.46,2797.76 L 1230.28,2797.53 L 1242.35,2794.03 L 1253.16,2787.63 L 1262.04,2778.75 L 1264.91,2773.9 L 1269.48,2769.08 L 1275.69,2766.72 L 1277.75,2766.58 L 1882.54,2766.58 L 1889.02,2768.05 L 1893.09,2770.95 L 2007.12,2885.22 L 2016.34,2893.88 L 2020.31,2896.49 L 2027.42,2899.97 L 2031.91,2901.51 L 2039.66,2903.11 L 2044.4,2903.48 L 2048.7,2903.11 L 2448.93,2903.11 L 2455.41,2904.59 L 2460.6,2908.73 L 2462.89,2912.76 L 2469.27,2929.67 L 2478.64,2945.64 L 2490.58,2959.8 L 2504.74,2971.73 L 2520.71,2981.1 L 2538.03,2987.64 L 2556.21,2991.16 L 2560.37,2991.38 L 2579.34,2991.16 L 2597.52,2987.64 L 2614.85,2981.1 L 2630.82,2971.73 L 2644.97,2959.8 L 2656.37,2946.28 L 2661.67,2942.28 L 2668.18,2940.98 L 2674.61,2942.64 L 2679.18,2946.28 L 2690.58,2959.8 L 2704.74,2971.73 L 2710.37,2975.04 L 2715.2,2979.59 L 2717.58,2985.79 L 2717.74,2987.91 L 2717.74,3024.22 L 2716.26,3030.69 L 2713.37,3034.77 L 2690.02,3058.11 L 2684.4,3061.64 L 2679.47,3062.48 L 2620.96,3062.48 L 2618.14,3062.7 L 2606.08,3066.21 L 2595.27,3072.6 L 2586.38,3081.49 L 2581.74,3089.33 L 2577.17,3094.15 L 2570.97,3096.52 L 2564.35,3095.95 L 2558.63,3092.57 L 2556.05,3089.33 L 2551.41,3081.49 L 2542.53,3072.6 L 2531.72,3066.21 L 2519.65,3062.7 L 2516.83,3062.48 L 2443.8,3062.48 L 2440.98,3062.7 L 2428.91,3066.21 L 2418.1,3072.6 L 2409.22,3081.49 L 2402.82,3092.3 L 2399.32,3104.37 L 2399.09,3107.18 L 2399.09,3215.65 L 2399.32,3218.47 L 2402.82,3230.52 L 2409.22,3241.35 L 2418.1,3250.23 L 2428.91,3256.63 L 2438.09,3259.29 L 2443.89,3262.52 L 2447.73,3267.94 L 2448.82,3274.49 L 2446.97,3280.87 L 2442.53,3285.81 L 2436.39,3288.34 L 2433.93,3288.54 L 2282.47,3288.54 L 2275.99,3287.07 L 2270.8,3282.93 L 2267.92,3276.94 L 2267.92,3270.3 L 2270.8,3264.32 L 2275.99,3260.18 L 2287.61,3256.59 L 2298.41,3250.2 L 2307.29,3241.33 L 2313.68,3230.52 L 2317.18,3218.47 L 2317.4,3215.65 L 2317.4,3181.42 L 2287.4,3181.42 L 2287.4,3210.63 L 2286.97,3214.72 L 2285.7,3218.64 L 2283.64,3222.2 L 2280.89,3225.26 L 2277.56,3227.68 L 2273.8,3229.35 L 2269.77,3230.21 L 2267.72,3230.31 L 2204.72,3230.31 L 2202.67,3230.21 L 2198.64,3229.35 L 2194.88,3227.68 L 2191.55,3225.26 L 2188.8,3222.2 L 2186.74,3218.64 L 2185.47,3214.72 L 2185.04,3210.63 L 2185.04,3181.42 L 2155.04,3181.42 L 2155.04,3215.65 L 2155.26,3218.46 L 2158.76,3230.52 L 2165.15,3241.33 L 2174.03,3250.2 L 2184.83,3256.59 L 2194.14,3259.29 L 2199.94,3262.52 L 2203.77,3267.94 L 2204.87,3274.49 L 2203.02,3280.87 L 2198.58,3285.81 L 2192.44,3288.34 L 2133.21,3288.54 L 2126.73,3287.07 L 2122.66,3284.17 L 2007.17,3168.68 L 2003.63,3163.06 L 2002.8,3158.13 L 2002.97,3075.61 L 2002.57,3062.98 L 2001.61,3058.32 L 1999.04,3050.84 L 1996.95,3046.57 L 1992.61,3039.95 L 1989.52,3036.34 L 1986.22,3033.57 L 1875.68,2923.02 L 1872.17,2919.83 L 1868.19,2917.22 L 1861.09,2913.74 L 1856.59,2912.2 L 1848.84,2910.59 L 1844.1,2910.22 L 1839.81,2910.59 L 1277.75,2910.59 L 1271.28,2909.11 L 1266.09,2904.97 L 1262.04,2898.42 L 1253.16,2889.53 L 1242.35,2883.14 L 1230.28,2879.63 L 1227.46,2879.41 L 1118.99,2879.41 L 1116.18,2879.63 L 1104.11,2883.14 L 1093.3,2889.53 L 1084.41,2898.42 L 1078.02,2909.23 L 1074.51,2921.29 L 1074.29,2924.11 L 1074.29,2997.15 L 1074.51,2999.97 L 1078.02,3012.03 L 1084.41,3022.85 L 1093.3,3031.73 L 1104.11,3038.12 L 1116.18,3041.63 L 1118.99,3041.85 L 1227.46,3041.85 L 1230.28,3041.63 L 1242.35,3038.12 L 1253.16,3031.73 L 1262.04,3022.85 L 1264.91,3018 L 1269.48,3013.18 L 1275.69,3010.81 L 1277.75,3010.67 L 1815.61,3010.67 L 1822.09,3012.15 L 1826.16,3015.04 L 1898.35,3087.22 L 1901.88,3092.85 L 1902.72,3097.77 L 1902.54,3180.29 L 1902.94,3192.93 L 1903.9,3197.58 L 1906.47,3205.07 L 1908.56,3209.34 L 1912.9,3215.95 L 1915.99,3219.57 L 1919.29,3222.34 L 2067.44,3370.73 L 2076.65,3379.39 L 2080.62,3382 L 2087.73,3385.48 L 2092.23,3387.02 L 2099.98,3388.62 L 2104.71,3389 L 2109.01,3388.62 L 2719.66,3388.8 L 2732.3,3388.4 L 2736.95,3387.44 L 2744.44,3384.87 L 2748.71,3382.78 L 2755.32,3378.44 L 2758.94,3375.35 L 2761.71,3372.05 L 2869.03,3264.73 L 2874.66,3261.19 L 2879.58,3260.36 L 2938.09,3260.36 L 2940.91,3260.13 L 2952.98,3256.63 L 2963.79,3250.23 L 2972.67,3241.35 L 2979.55,3229.73 L 2983.03,3225.1 L 2988.89,3221.98 L 2992.8,3221.46 L 3262.26,3221.46 L 3265.96,3221.84 L 3279.94,3220.62 L 3281.66,3220.24 L 3294.05,3215.84 L 3305.92,3208.34 L 3406.37,3107.67 L 3409.26,3105.33 L 3418.28,3094.58 L 3419.22,3093.09 L 3424.88,3081.22 L 3427.97,3067.52 L 3427.81,2981.2 L 3429.29,2974.72 L 3433.12,2969.79 L 3444.97,2959.8 L 3456.39,2946.25 L 3461.7,2942.25 L 3468.21,2940.95 L 3474.64,2942.61 L 3479.21,2946.25 L 3490.61,2959.77 L 3504.76,2971.7 L 3520.72,2981.07 L 3527.78,2983.73 L 3527.78,2950.33 L 3515.09,2941.11 L 3504.07,2928.88 L 3495.84,2914.62 L 3490.76,2898.97 L 3489.04,2882.6 L 3489.04,2823.54 L 3490.76,2807.17 L 3495.84,2791.52 L 3504.07,2777.26 L 3515.09,2765.03 L 3528.41,2755.35 L 3543.44,2748.66 L 3559.55,2745.23 L 3576.01,2745.23 L 3592.11,2748.66 L 3607.15,2755.35 L 3620.46,2765.03 L 3631.48,2777.26 L 3639.71,2791.52 L 3644.8,2807.17 L 3646.52,2823.54 L 3646.52,2882.6 L 3644.8,2898.97 L 3639.71,2914.62 L 3631.48,2928.88 L 3620.46,2941.11 L 3607.78,2950.33 L 3607.78,2983.73 L 3614.83,2981.07 L 3630.79,2971.7 L 3644.94,2959.77 L 3656.34,2946.25 L 3661.64,2942.25 L 3668.16,2940.95 L 3674.59,2942.61 L 3679.16,2946.25 L 3690.58,2959.8 L 3704.74,2971.73 L 3720.71,2981.1 L 3738.03,2987.64 L 3756.21,2991.16 L 3760.37,2991.38 L 3779.34,2991.16 L 3797.52,2987.64 L 3814.85,2981.1 L 3830.82,2971.73 L 3844.97,2959.8 L 3856.91,2945.64 L 3866.28,2929.67 L 3872.82,2912.34 L 3876.33,2894.17 L 3876.55,2877.13 L 3878.03,2870.65 L 3882.17,2865.46 L 3888.16,2862.58 L 3891.48,2862.21 L 3968.98,2862.21 L 3975.45,2863.68 L 3980.64,2867.82 L 3983.52,2873.81 L 3983.9,2877.13 L 3983.9,3496.54 L 3982.42,3503.01 L 3978.28,3508.2 L 3972.3,3511.08 L 3968.98,3511.46 L 101.889,3511.46 L 95.4151,3509.98 L 90.2231,3505.84 L 87.3411,3499.86 L 86.9671,3496.54M 223.987,3295.28 L 225.509,3310.72 L 230.013,3325.57 L 237.329,3339.26 L 247.173,3351.25 L 259.169,3361.1 L 272.855,3368.41 L 287.705,3372.92 L 303.149,3374.44 L 318.591,3372.92 L 333.441,3368.41 L 347.127,3361.1 L 359.123,3351.25 L 368.969,3339.26 L 376.283,3325.57 L 380.789,3310.72 L 382.309,3295.28 L 380.789,3279.83 L 376.283,3264.98 L 368.969,3251.3 L 359.123,3239.3 L 347.127,3229.46 L 333.441,3222.14 L 318.593,3217.64 L 303.149,3216.12 L 287.705,3217.64 L 272.855,3222.14 L 259.169,3229.46 L 247.173,3239.3 L 237.329,3251.3 L 230.013,3264.98 L 225.509,3279.83 L 223.987,3295.28M 223.987,303.15 L 225.509,318.594 L 230.013,333.444 L 237.329,347.13 L 247.173,359.126 L 259.169,368.97 L 272.855,376.286 L 287.705,380.79 L 303.149,382.312 L 318.591,380.79 L 333.441,376.286 L 347.127,368.97 L 359.123,359.126 L 368.969,347.13 L 376.283,333.444 L 380.789,318.594 L 382.309,303.15 L 380.789,287.706 L 376.283,272.856 L 368.969,259.172 L 359.123,247.176 L 347.127,237.33 L 333.441,230.016 L 318.593,225.51 L 303.149,223.99 L 287.705,225.51 L 272.855,230.016 L 259.169,237.33 L 247.173,247.176 L 237.329,259.172 L 230.013,272.856 L 225.509,287.706 L 223.987,303.15M 1072.36,2286.73 L 1072.58,2307.05 L 1076.09,2319.1 L 1082.48,2329.91 L 1091.35,2338.78 L 1102.16,2345.17 L 1114.21,2348.68 L 1117.03,2348.9 L 1153.23,2348.9 L 1153.23,2318.9 L 1122.05,2318.9 L 1119.99,2318.79 L 1115.96,2317.93 L 1112.2,2316.26 L 1108.88,2313.84 L 1106.12,2310.78 L 1104.06,2307.22 L 1102.79,2303.31 L 1102.36,2299.21 L 1102.36,2286.73 L 1072.36,2286.73M 1072.36,2246.73 L 1102.36,2246.73 L 1102.36,2234.25 L 1102.79,2230.16 L 1104.06,2226.25 L 1106.12,2222.68 L 1108.88,2219.62 L 1112.2,2217.2 L 1115.96,2215.53 L 1119.99,2214.67 L 1122.05,2214.57 L 1153.23,2214.57 L 1153.23,2184.57 L 1117.03,2184.57 L 1114.21,2184.79 L 1102.16,2188.29 L 1091.35,2194.68 L 1082.48,2203.56 L 1076.09,2214.36 L 1072.58,2226.42 L 1072.36,2246.73M 1193.23,2348.9 L 1229.43,2348.9 L 1232.24,2348.68 L 1244.3,2345.17 L 1255.1,2338.78 L 1263.98,2329.91 L 1270.37,2319.1 L 1273.87,2307.05 L 1274.09,2286.73 L 1244.09,2286.73 L 1244.09,2299.21 L 1243.66,2303.31 L 1242.39,2307.22 L 1240.33,2310.78 L 1237.58,2313.84 L 1234.25,2316.26 L 1230.49,2317.93 L 1226.47,2318.79 L 1224.41,2318.9 L 1193.23,2318.9 L 1193.23,2348.9M 1193.23,2214.57 L 1224.41,2214.57 L 1226.47,2214.67 L 1230.49,2215.53 L 1234.25,2217.2 L 1237.58,2219.62 L 1240.33,2222.68 L 1242.39,2226.25 L 1243.66,2230.16 L 1244.09,2234.25 L 1244.09,2246.73 L 1274.09,2246.73 L 1273.87,2226.42 L 1270.37,2214.36 L 1263.98,2203.56 L 1255.1,2194.68 L 1244.3,2188.29 L 1232.24,2184.79 L 1229.43,2184.57 L 1193.23,2184.57 L 1193.23,2214.57M 1413.5,1020.37 L 1413.73,1023.19 L 1417.23,1035.24 L 1423.62,1046.05 L 1432.49,1054.93 L 1443.3,1061.32 L 1455.35,1064.82 L 1479.61,1065.04 L 1479.61,1035.04 L 1463.19,1035.04 L 1461.13,1034.93 L 1457.11,1034.08 L 1453.35,1032.4 L 1450.02,1029.98 L 1447.26,1026.92 L 1445.21,1023.36 L 1443.93,1019.45 L 1443.5,1015.35 L 1443.5,986.142 L 1413.5,986.142 L 1413.5,1020.37M 1413.5,946.142 L 1443.5,946.142 L 1443.5,916.929 L 1443.93,912.836 L 1445.21,908.923 L 1447.26,905.359 L 1450.02,902.3 L 1453.35,899.881 L 1457.11,898.208 L 1461.13,897.352 L 1463.19,897.244 L 1479.61,897.244 L 1479.61,867.246 L 1455.35,867.466 L 1443.3,870.968 L 1432.49,877.358 L 1423.62,886.236 L 1417.23,897.042 L 1413.73,909.096 L 1413.5,911.912 L 1413.5,946.142M 1413.5,784.152 L 1413.73,786.97 L 1417.23,799.024 L 1423.62,809.828 L 1432.49,818.706 L 1443.3,825.096 L 1455.35,828.598 L 1479.61,828.82 L 1479.61,798.819 L 1463.19,798.819 L 1461.13,798.711 L 1457.11,797.855 L 1453.35,796.182 L 1450.02,793.763 L 1447.26,790.704 L 1445.21,787.14 L 1443.93,783.227 L 1443.5,779.134 L 1443.5,749.922 L 1413.5,749.922 L 1413.5,784.152M 1413.5,709.922 L 1443.5,709.922 L 1443.5,680.709 L 1443.93,676.616 L 1445.21,672.702 L 1447.26,669.138 L 1450.02,666.08 L 1453.35,663.661 L 1457.11,661.987 L 1461.13,661.131 L 1463.19,661.024 L 1479.61,661.024 L 1479.61,631.024 L 1455.35,631.246 L 1443.3,634.748 L 1432.49,641.138 L 1423.62,650.016 L 1417.23,660.82 L 1413.73,672.876 L 1413.5,675.692 L 1413.5,709.922M 1413.5,547.932 L 1413.73,550.748 L 1417.23,562.804 L 1423.62,573.608 L 1432.49,582.486 L 1443.3,588.876 L 1455.35,592.378 L 1479.61,592.6 L 1479.61,562.598 L 1463.19,562.598 L 1461.13,562.491 L 1457.11,561.635 L 1453.35,559.961 L 1450.02,557.542 L 1447.26,554.484 L 1445.21,550.92 L 1443.93,547.006 L 1443.5,542.913 L 1443.5,513.702 L 1413.5,513.702 L 1413.5,547.932M 1413.5,473.702 L 1443.5,473.702 L 1443.5,444.488 L 1443.93,440.396 L 1445.21,436.482 L 1447.26,432.918 L 1450.02,429.859 L 1453.35,427.44 L 1457.11,425.767 L 1461.13,424.911 L 1463.19,424.803 L 1479.61,424.803 L 1479.61,394.804 L 1455.35,395.026 L 1443.3,398.528 L 1432.49,404.918 L 1423.62,413.796 L 1417.23,424.6 L 1413.73,436.654 L 1413.5,439.472 L 1413.5,473.702M 1413.5,311.712 L 1413.73,314.528 L 1417.23,326.582 L 1423.62,337.388 L 1432.49,346.264 L 1443.3,352.654 L 1455.35,356.158 L 1479.61,356.378 L 1479.61,326.378 L 1463.19,326.378 L 1461.13,326.27 L 1457.11,325.414 L 1453.35,323.741 L 1450.02,321.322 L 1447.26,318.263 L 1445.21,314.699 L 1443.93,310.786 L 1443.5,306.693 L 1443.5,277.482 L 1413.5,277.482 L 1413.5,311.712M 1413.5,237.482 L 1443.5,237.482 L 1443.5,208.268 L 1443.93,204.175 L 1445.21,200.261 L 1447.26,196.697 L 1450.02,193.639 L 1453.35,191.22 L 1457.11,189.546 L 1461.13,188.691 L 1463.19,188.583 L 1479.61,188.583 L 1479.61,158.584 L 1455.35,158.806 L 1443.3,162.308 L 1432.49,168.698 L 1423.62,177.574 L 1417.23,188.38 L 1413.73,200.434 L 1413.5,203.252 L 1413.5,237.482M 1519.61,2042.64 L 1519.83,2062.95 L 1523.33,2075.01 L 1529.72,2085.81 L 1538.6,2094.69 L 1549.4,2101.08 L 1561.46,2104.58 L 1564.27,2104.8 L 1600.47,2104.8 L 1600.47,2074.8 L 1569.29,2074.8 L 1567.23,2074.7 L 1563.21,2073.84 L 1559.45,2072.17 L 1556.12,2069.75 L 1553.37,2066.69 L 1551.31,2063.12 L 1550.04,2059.21 L 1549.61,2055.12 L 1549.61,2042.64 L 1519.61,2042.64M 1519.61,2002.64 L 1549.61,2002.64 L 1549.61,1990.16 L 1550.04,1986.06 L 1551.31,1982.15 L 1553.37,1978.59 L 1556.12,1975.53 L 1559.45,1973.11 L 1563.21,1971.44 L 1567.23,1970.58 L 1569.29,1970.47 L 1600.47,1970.47 L 1600.47,1940.47 L 1564.27,1940.47 L 1561.46,1940.69 L 1549.4,1944.2 L 1538.6,1950.59 L 1529.72,1959.46 L 1523.33,1970.27 L 1519.83,1982.32 L 1519.61,2002.64M 1519.61,1065.04 L 1543.86,1064.82 L 1555.91,1061.32 L 1566.72,1054.93 L 1575.59,1046.05 L 1581.98,1035.24 L 1585.49,1023.19 L 1585.71,1020.38 L 1585.71,986.142 L 1555.71,986.142 L 1555.71,1015.35 L 1555.28,1019.45 L 1554.01,1023.36 L 1551.95,1026.92 L 1549.2,1029.98 L 1545.87,1032.4 L 1542.11,1034.08 L 1538.08,1034.93 L 1536.02,1035.04 L 1519.61,1035.04 L 1519.61,1065.04M 1519.61,867.246 L 1519.61,897.244 L 1536.02,897.244 L 1538.08,897.352 L 1542.11,898.208 L 1545.87,899.881 L 1549.2,902.3 L 1551.95,905.359 L 1554.01,908.923 L 1555.28,912.836 L 1555.71,916.929 L 1555.71,946.142 L 1585.71,946.142 L 1585.71,911.912 L 1585.49,909.096 L 1581.98,897.042 L 1575.59,886.236 L 1566.72,877.358 L 1555.91,870.968 L 1543.86,867.466 L 1519.61,867.246M 1519.61,828.82 L 1543.86,828.598 L 1555.91,825.096 L 1566.72,818.706 L 1575.59,809.828 L 1581.98,799.024 L 1585.49,786.97 L 1585.71,784.156 L 1585.71,749.922 L 1555.71,749.922 L 1555.71,779.134 L 1555.28,783.227 L 1554.01,787.14 L 1551.95,790.704 L 1549.2,793.763 L 1545.87,796.182 L 1542.11,797.855 L 1538.08,798.711 L 1536.02,798.819 L 1519.61,798.819 L 1519.61,828.82M 1519.61,631.024 L 1519.61,661.024 L 1536.02,661.024 L 1538.08,661.131 L 1542.11,661.987 L 1545.87,663.661 L 1549.2,666.08 L 1551.95,669.138 L 1554.01,672.702 L 1555.28,676.616 L 1555.71,680.709 L 1555.71,709.922 L 1585.71,709.922 L 1585.71,675.692 L 1585.49,672.874 L 1581.98,660.82 L 1575.59,650.016 L 1566.72,641.138 L 1555.91,634.748 L 1543.86,631.246 L 1519.61,631.024M 1519.61,592.6 L 1543.86,592.378 L 1555.91,588.876 L 1566.72,582.486 L 1575.59,573.608 L 1581.98,562.804 L 1585.49,550.748 L 1585.71,547.936 L 1585.71,513.702 L 1555.71,513.702 L 1555.71,542.913 L 1555.28,547.006 L 1554.01,550.92 L 1551.95,554.484 L 1549.2,557.542 L 1545.87,559.961 L 1542.11,561.635 L 1538.08,562.491 L 1536.02,562.598 L 1519.61,562.598 L 1519.61,592.6M 1519.61,394.804 L 1519.61,424.803 L 1536.02,424.803 L 1538.08,424.911 L 1542.11,425.767 L 1545.87,427.44 L 1549.2,429.859 L 1551.95,432.918 L 1554.01,436.482 L 1555.28,440.396 L 1555.71,444.488 L 1555.71,473.702 L 1585.71,473.702 L 1585.71,439.472 L 1585.49,436.654 L 1581.98,424.6 L 1575.59,413.796 L 1566.72,404.918 L 1555.91,398.528 L 1543.86,395.026 L 1519.61,394.804M 1519.61,356.378 L 1543.86,356.158 L 1555.91,352.656 L 1566.72,346.266 L 1575.59,337.388 L 1581.98,326.582 L 1585.49,314.528 L 1585.71,311.714 L 1585.71,277.482 L 1555.71,277.482 L 1555.71,306.693 L 1555.28,310.786 L 1554.01,314.699 L 1551.95,318.263 L 1549.2,321.322 L 1545.87,323.741 L 1542.11,325.414 L 1538.08,326.27 L 1536.02,326.378 L 1519.61,326.378 L 1519.61,356.378M 1519.61,158.584 L 1519.61,188.583 L 1536.02,188.583 L 1538.08,188.691 L 1542.11,189.546 L 1545.87,191.22 L 1549.2,193.639 L 1551.95,196.697 L 1554.01,200.261 L 1555.28,204.175 L 1555.71,208.268 L 1555.71,237.482 L 1585.71,237.482 L 1585.71,203.252 L 1585.49,200.434 L 1581.98,188.38 L 1575.59,177.574 L 1566.72,168.698 L 1555.91,162.308 L 1543.86,158.806 L 1519.61,158.584M 1640.47,2104.8 L 1676.67,2104.8 L 1679.49,2104.58 L 1691.54,2101.08 L 1702.35,2094.69 L 1711.22,2085.81 L 1717.61,2075.01 L 1721.12,2062.95 L 1721.34,2042.64 L 1691.34,2042.64 L 1691.34,2055.12 L 1690.91,2059.21 L 1689.64,2063.12 L 1687.58,2066.69 L 1684.83,2069.75 L 1681.5,2072.17 L 1677.74,2073.84 L 1673.71,2074.7 L 1671.65,2074.8 L 1640.47,2074.8 L 1640.47,2104.8M 1640.47,1970.47 L 1671.65,1970.47 L 1673.71,1970.58 L 1677.74,1971.44 L 1681.5,1973.11 L 1684.83,1975.53 L 1687.58,1978.59 L 1689.64,1982.15 L 1690.91,1986.06 L 1691.34,1990.16 L 1691.34,2002.64 L 1721.34,2002.64 L 1721.12,1982.32 L 1717.61,1970.27 L 1711.22,1959.46 L 1702.35,1950.59 L 1691.54,1944.2 L 1679.49,1940.7 L 1676.67,1940.47 L 1640.47,1940.47 L 1640.47,1970.47M 1647.72,1020.38 L 1647.94,1023.19 L 1651.44,1035.26 L 1657.84,1046.07 L 1666.72,1054.96 L 1677.54,1061.35 L 1689.6,1064.86 L 1692.42,1065.08 L 1775.3,1065.08 L 1778.12,1064.86 L 1790.18,1061.35 L 1800.99,1054.96 L 1809.88,1046.07 L 1816.27,1035.26 L 1818.69,1026.94 L 1821.92,1021.14 L 1827.34,1017.31 L 1833.02,1016.18 L 1872.89,1016.18 L 1879.36,1017.66 L 1884.55,1021.8 L 1887.22,1026.94 L 1889.63,1035.26 L 1896.03,1046.07 L 1904.91,1054.96 L 1915.72,1061.35 L 1927.79,1064.86 L 1930.61,1065.08 L 2003.64,1065.08 L 2006.46,1064.86 L 2018.53,1061.35 L 2029.34,1054.96 L 2038.22,1046.07 L 2044.62,1035.26 L 2048.12,1023.2 L 2048.35,1020.38 L 2048.35,911.908 L 2048.12,909.09 L 2044.62,897.026 L 2038.22,886.212 L 2029.34,877.328 L 2018.53,870.932 L 2006.46,867.428 L 2003.64,867.206 L 1930.61,867.206 L 1927.79,867.428 L 1915.72,870.932 L 1904.91,877.328 L 1896.03,886.212 L 1889.63,897.026 L 1887.22,905.344 L 1883.99,911.15 L 1878.57,914.98 L 1872.89,916.104 L 1833.02,916.104 L 1826.54,914.626 L 1821.35,910.486 L 1818.69,905.344 L 1816.27,897.026 L 1809.88,886.212 L 1800.99,877.328 L 1790.18,870.932 L 1778.12,867.428 L 1775.3,867.206 L 1692.42,867.206 L 1689.6,867.428 L 1677.54,870.932 L 1666.72,877.328 L 1657.84,886.212 L 1651.44,897.024 L 1647.94,909.09 L 1647.72,911.908 L 1647.72,1020.38M 1647.72,784.156 L 1647.94,786.974 L 1651.44,799.04 L 1657.84,809.854 L 1666.72,818.736 L 1677.54,825.132 L 1689.6,828.638 L 1692.42,828.86 L 1775.3,828.86 L 1778.12,828.638 L 1790.18,825.132 L 1800.99,818.736 L 1809.88,809.854 L 1816.27,799.04 L 1818.69,790.72 L 1821.92,784.916 L 1827.34,781.084 L 1833.02,779.962 L 1872.89,779.962 L 1879.36,781.44 L 1884.55,785.58 L 1887.22,790.72 L 1889.63,799.04 L 1896.03,809.854 L 1904.91,818.738 L 1915.72,825.132 L 1927.79,828.638 L 1930.61,828.86 L 2003.64,828.86 L 2006.46,828.638 L 2018.53,825.132 L 2029.34,818.738 L 2038.22,809.854 L 2044.62,799.04 L 2048.12,786.976 L 2048.35,784.156 L 2048.35,675.688 L 2048.12,672.87 L 2044.62,660.804 L 2038.22,649.99 L 2029.34,641.108 L 2018.53,634.712 L 2006.46,631.208 L 2003.64,630.986 L 1930.61,630.986 L 1927.79,631.208 L 1915.72,634.712 L 1904.91,641.108 L 1896.03,649.992 L 1889.63,660.804 L 1887.22,669.124 L 1883.99,674.93 L 1878.57,678.76 L 1872.89,679.882 L 1833.02,679.882 L 1826.54,678.406 L 1821.35,674.264 L 1818.69,669.124 L 1816.27,660.804 L 1809.88,649.99 L 1800.99,641.108 L 1790.18,634.712 L 1778.12,631.208 L 1775.3,630.986 L 1692.42,630.986 L 1689.6,631.206 L 1677.54,634.712 L 1666.72,641.108 L 1657.84,649.992 L 1651.44,660.804 L 1647.94,672.87 L 1647.72,675.688 L 1647.72,784.156M 1647.72,547.936 L 1647.94,550.754 L 1651.44,562.82 L 1657.84,573.632 L 1666.72,582.516 L 1677.54,588.912 L 1689.6,592.416 L 1692.42,592.638 L 1775.3,592.638 L 1778.12,592.416 L 1790.18,588.912 L 1800.99,582.516 L 1809.88,573.632 L 1816.27,562.82 L 1818.69,554.5 L 1821.92,548.694 L 1827.34,544.864 L 1833.02,543.742 L 1872.89,543.742 L 1879.36,545.218 L 1884.55,549.36 L 1887.22,554.5 L 1889.63,562.82 L 1896.03,573.632 L 1904.91,582.516 L 1915.72,588.912 L 1927.79,592.416 L 1930.61,592.638 L 2003.64,592.638 L 2006.46,592.416 L 2018.53,588.912 L 2029.34,582.516 L 2038.22,573.632 L 2044.62,562.82 L 2048.12,550.754 L 2048.35,547.936 L 2048.35,439.468 L 2048.12,436.648 L 2044.62,424.584 L 2038.22,413.77 L 2029.34,404.886 L 2018.53,398.492 L 2006.46,394.986 L 2003.64,394.764 L 1930.61,394.764 L 1927.79,394.986 L 1915.72,398.492 L 1904.91,404.886 L 1896.03,413.77 L 1889.63,424.584 L 1887.22,432.904 L 1883.99,438.708 L 1878.57,442.54 L 1872.89,443.662 L 1833.02,443.662 L 1826.54,442.184 L 1821.35,438.044 L 1818.69,432.904 L 1816.27,424.584 L 1809.88,413.77 L 1800.99,404.886 L 1790.18,398.492 L 1778.12,394.986 L 1775.3,394.764 L 1692.42,394.764 L 1689.6,394.986 L 1677.54,398.492 L 1666.72,404.886 L 1657.84,413.77 L 1651.44,424.584 L 1647.94,436.648 L 1647.72,439.468 L 1647.72,547.936M 1647.72,311.714 L 1647.94,314.534 L 1651.44,326.598 L 1657.84,337.412 L 1666.72,346.296 L 1677.54,352.692 L 1689.6,356.196 L 1692.42,356.418 L 1775.3,356.418 L 1778.12,356.196 L 1790.18,352.692 L 1800.99,346.296 L 1809.88,337.412 L 1816.27,326.598 L 1818.69,318.278 L 1821.92,312.474 L 1827.34,308.644 L 1833.02,307.52 L 1872.89,307.52 L 1879.36,308.998 L 1884.55,313.138 L 1887.22,318.278 L 1889.63,326.598 L 1896.03,337.412 L 1904.91,346.296 L 1915.72,352.692 L 1927.79,356.196 L 1930.61,356.418 L 2003.64,356.418 L 2006.46,356.196 L 2018.53,352.692 L 2029.34,346.296 L 2038.22,337.412 L 2044.62,326.598 L 2048.12,314.534 L 2048.35,311.716 L 2048.35,203.248 L 2048.12,200.428 L 2044.62,188.364 L 2038.22,177.55 L 2029.34,168.666 L 2018.53,162.272 L 2006.46,158.766 L 2003.64,158.544 L 1930.61,158.544 L 1927.79,158.766 L 1915.72,162.272 L 1904.91,168.666 L 1896.03,177.55 L 1889.63,188.364 L 1887.22,196.684 L 1883.99,202.488 L 1878.57,206.318 L 1872.89,207.442 L 1833.02,207.442 L 1826.54,205.964 L 1821.35,201.824 L 1818.69,196.684 L 1816.27,188.364 L 1809.88,177.55 L 1800.99,168.666 L 1790.18,162.272 L 1778.12,158.766 L 1775.3,158.544 L 1692.42,158.544 L 1689.6,158.766 L 1677.54,162.272 L 1666.72,168.666 L 1657.84,177.55 L 1651.44,188.364 L 1647.94,200.428 L 1647.72,203.248 L 1647.72,311.714M 2033.74,2363.48 L 2034.59,2369.32 L 2038.99,2378.33 L 2046.08,2385.42 L 2055.09,2389.82 L 2060.93,2390.67 L 2145.37,2390.67 L 2151.21,2389.82 L 2160.22,2385.42 L 2167.31,2378.33 L 2171.71,2369.32 L 2172.56,2363.48 L 2172.56,2176.68 L 2171.71,2170.84 L 2167.31,2161.83 L 2160.22,2154.74 L 2151.21,2150.34 L 2145.37,2149.49 L 2060.93,2149.49 L 2055.09,2150.34 L 2046.08,2154.74 L 2038.99,2161.83 L 2034.59,2170.84 L 2033.74,2176.68 L 2033.74,2363.48M 2033.78,1914.66 L 2034.63,1920.49 L 2039.03,1929.48 L 2046.11,1936.57 L 2055.1,1940.96 L 2060.93,1941.81 L 2083.15,1941.81 L 2083.15,1911.81 L 2063.78,1911.81 L 2063.78,1841.26 L 2033.78,1841.26 L 2033.78,1914.66M 2033.78,1801.26 L 2063.78,1801.26 L 2063.78,1730.71 L 2083.15,1730.71 L 2083.15,1700.71 L 2060.93,1700.71 L 2055.1,1701.56 L 2046.11,1705.96 L 2039.03,1713.04 L 2034.63,1722.03 L 2033.78,1727.86 L 2033.78,1801.26M 2123.15,1911.81 L 2123.15,1941.81 L 2145.37,1941.81 L 2151.2,1940.96 L 2160.19,1936.57 L 2167.27,1929.49 L 2171.67,1920.49 L 2172.52,1914.66 L 2172.52,1841.26 L 2142.52,1841.26 L 2142.52,1911.81 L 2123.15,1911.81M 2123.15,1730.71 L 2142.52,1730.71 L 2142.52,1801.26 L 2172.52,1801.26 L 2172.52,1727.86 L 2171.67,1722.03 L 2167.27,1713.04 L 2160.19,1705.96 L 2151.2,1701.56 L 2145.37,1700.71 L 2123.15,1700.71 L 2123.15,1730.71M 2155.04,3141.42 L 2185.04,3141.42 L 2185.04,3112.2 L 2185.47,3108.11 L 2186.74,3104.2 L 2188.8,3100.63 L 2191.55,3097.58 L 2194.88,3095.16 L 2198.64,3093.48 L 2202.67,3092.63 L 2216.22,3092.52 L 2216.22,3062.52 L 2196.89,3062.74 L 2184.83,3066.24 L 2174.03,3072.63 L 2165.15,3081.51 L 2158.76,3092.32 L 2155.26,3104.37 L 2155.04,3107.19 L 2155.04,3141.42M 2256.22,3092.52 L 2269.77,3092.63 L 2273.8,3093.48 L 2277.56,3095.16 L 2280.89,3097.58 L 2283.64,3100.63 L 2285.7,3104.2 L 2286.97,3108.11 L 2287.4,3112.2 L 2287.4,3141.42 L 2317.4,3141.42 L 2317.4,3107.19 L 2317.18,3104.37 L 2313.68,3092.32 L 2307.29,3081.51 L 2298.41,3072.63 L 2287.61,3066.24 L 2275.55,3062.74 L 2256.22,3062.52 L 2256.22,3092.52M 3688.56,3295.28 L 3690.08,3310.72 L 3694.58,3325.57 L 3701.9,3339.26 L 3711.74,3351.25 L 3723.74,3361.1 L 3737.42,3368.41 L 3752.27,3372.92 L 3767.72,3374.44 L 3783.16,3372.92 L 3798.01,3368.41 L 3811.7,3361.1 L 3823.69,3351.25 L 3833.54,3339.26 L 3840.85,3325.57 L 3845.36,3310.72 L 3846.88,3295.28 L 3845.36,3279.83 L 3840.85,3264.98 L 3833.54,3251.3 L 3823.69,3239.3 L 3811.7,3229.46 L 3798.01,3222.14 L 3783.16,3217.64 L 3767.72,3216.12 L 3752.27,3217.64 L 3737.42,3222.14 L 3723.74,3229.46 L 3711.74,3239.3 L 3701.9,3251.3 L 3694.58,3264.98 L 3690.08,3279.83 L 3688.56,3295.28M 3688.56,303.15 L 3690.08,318.594 L 3694.58,333.444 L 3701.9,347.13 L 3711.74,359.126 L 3723.74,368.97 L 3737.42,376.286 L 3752.27,380.79 L 3767.72,382.312 L 3783.16,380.79 L 3798.01,376.286 L 3811.7,368.97 L 3823.69,359.126 L 3833.54,347.13 L 3840.85,333.444 L 3845.36,318.594 L 3846.88,303.15 L 3845.36,287.706 L 3840.85,272.856 L 3833.54,259.172 L 3823.69,247.176 L 3811.7,237.33 L 3798.01,230.016 L 3783.16,225.51 L 3767.72,223.99 L 3752.27,225.51 L 3737.42,230.016 L 3723.74,237.33 L 3711.74,247.176 L 3701.9,259.172 L 3694.58,272.856 L 3690.08,287.706 L 3688.56,303.15 z " style="fill-opacity:1.000000;fill:rgb(103,198,105);stroke:rgb(0,0,0);stroke-width:2"/></g>
<g fill-rule="evenodd"><path d="M 263.78,3295.28 L 264.64,3287.09 L 267.183,3279.26 L 271.299,3272.13 L 276.806,3266.02 L 283.465,3261.18 L 290.984,3257.83 L 299.034,3256.12 L 307.265,3256.12 L 315.316,3257.83 L 322.835,3261.18 L 329.493,3266.02 L 335.001,3272.13 L 339.116,3279.26 L 341.659,3287.09 L 342.52,3295.28 L 341.659,3303.46 L 339.116,3311.29 L 335.001,3318.42 L 329.493,3324.53 L 322.835,3329.37 L 315.316,3332.72 L 307.265,3334.43 L 299.034,3334.43 L 290.984,3332.72 L 283.465,3329.37 L 276.806,3324.53 L 271.299,3318.42 L 267.183,3311.29 L 264.64,3303.46 L 263.78,3295.28 z " style="fill-opacity:1.000000;fill:rgb(115,81,255);stroke:rgb(0,0,0);stroke-width:2"/></g>
<g fill-rule="evenodd"><path d="M 263.78,303.15 L 264.64,294.964 L 267.183,287.136 L 271.299,280.008 L 276.806,273.892 L 283.465,269.054 L 290.984,265.706 L 299.034,263.995 L 307.265,263.995 L 315.316,265.706 L 322.835,269.054 L 329.493,273.892 L 335.001,280.008 L 339.116,287.136 L 341.659,294.964 L 342.52,303.15 L 341.659,311.335 L 339.116,319.163 L 335.001,326.291 L 329.493,332.407 L 322.835,337.245 L 315.316,340.593 L 307.265,342.304 L 299.034,342.304 L 290.984,340.593 L 283.465,337.245 L 276.806,332.407 L 271.299,326.291 L 267.183,319.163 L 264.64,311.335 L 263.78,303.15 z " style="fill-opacity:1.000000;fill:rgb(74,236,41);stroke:rgb(0,0,0);stroke-width:2"/></g>
<g fill-rule="evenodd"><path d="M 367.401,1667.72 L 367.401,984.252 L 367.647,981.123 L 368.38,978.072 L 369.581,975.172 L 371.221,972.496 L 373.259,970.11 L 454.361,889.008 L 457.392,886.521 L 460.849,884.672 L 464.601,883.534 L 468.503,883.15 L 740.533,883.15 L 796.093,827.592 L 799.124,825.105 L 802.582,823.256 L 806.333,822.118 L 810.235,821.734 L 1109.45,821.734 L 1113.35,822.118 L 1117.1,823.256 L 1120.56,825.105 L 1123.59,827.592 L 1278.71,982.71 L 1281.19,985.741 L 1283.04,989.198 L 1284.18,992.95 L 1284.57,996.852 L 1284.57,1104.72 L 1313.78,1104.72 L 1315.84,1104.83 L 1319.86,1105.69 L 1323.62,1107.36 L 1326.95,1109.78 L 1329.71,1112.84 L 1331.76,1116.4 L 1333.03,1120.32 L 1333.46,1124.41 L 1333.46,1187.4 L 1333.03,1191.49 L 1331.76,1195.41 L 1329.71,1198.97 L 1326.95,1202.03 L 1323.62,1204.45 L 1319.86,1206.12 L 1315.84,1206.98 L 1313.78,1207.09 L 1215.35,1207.09 L 1213.3,1206.98 L 1209.27,1206.12 L 1205.51,1204.45 L 1202.18,1202.03 L 1199.43,1198.97 L 1197.37,1195.41 L 1196.1,1191.49 L 1195.67,1187.4 L 1195.67,1124.41 L 1196.1,1120.32 L 1197.37,1116.4 L 1199.43,1112.84 L 1202.18,1109.78 L 1205.51,1107.36 L 1209.27,1105.69 L 1213.3,1104.83 L 1215.35,1104.72 L 1244.56,1104.72 L 1244.57,1005.14 L 1101.16,861.734 L 818.519,861.734 L 768.817,911.434 L 768.817,1090.55 L 776.378,1090.55 L 776.378,1216.54 L 721.26,1216.54 L 721.26,1090.55 L 728.817,1090.55 L 728.817,923.15 L 476.787,923.15 L 407.401,992.536 L 407.401,1659.43 L 514.583,1766.62 L 580.709,1766.62 L 580.709,1755.12 L 581.139,1751.03 L 582.411,1747.11 L 584.468,1743.55 L 587.222,1740.49 L 590.551,1738.07 L 594.311,1736.4 L 598.336,1735.54 L 600.394,1735.43 L 700.877,1735.54 L 704.902,1736.4 L 708.661,1738.07 L 711.991,1740.49 L 714.744,1743.55 L 716.802,1747.11 L 718.074,1751.03 L 718.504,1755.12 L 718.504,1765.04 L 803.15,1765.04 L 803.15,1735.83 L 803.58,1731.73 L 804.851,1727.82 L 806.909,1724.26 L 809.663,1721.2 L 812.992,1718.78 L 816.752,1717.11 L 820.777,1716.25 L 822.835,1716.14 L 887.884,1716.25 L 891.91,1717.11 L 895.669,1718.78 L 898.999,1721.2 L 901.752,1724.26 L 903.81,1727.82 L 905.082,1731.73 L 905.512,1735.83 L 905.512,1834.25 L 905.082,1838.34 L 903.81,1842.26 L 901.752,1845.82 L 898.999,1848.88 L 895.669,1851.3 L 891.91,1852.97 L 887.884,1853.83 L 822.835,1853.94 L 820.777,1853.83 L 816.752,1852.97 L 812.992,1851.3 L 809.663,1848.88 L 806.909,1845.82 L 804.851,1842.26 L 803.58,1838.34 L 803.15,1834.25 L 803.15,1805.04 L 718.504,1805.04 L 718.504,1818.11 L 718.074,1822.2 L 716.802,1826.12 L 714.744,1829.68 L 711.991,1832.74 L 708.661,1835.16 L 704.902,1836.83 L 700.877,1837.69 L 600.394,1837.8 L 598.336,1837.69 L 594.311,1836.83 L 590.551,1835.16 L 587.222,1832.74 L 584.468,1829.68 L 582.411,1826.12 L 581.139,1822.2 L 580.709,1818.11 L 580.709,1806.62 L 506.299,1806.62 L 502.397,1806.23 L 498.645,1805.09 L 495.188,1803.25 L 492.157,1800.76 L 373.259,1681.86 L 371.221,1679.47 L 369.581,1676.8 L 368.38,1673.9 L 367.647,1670.85 L 367.401,1667.72 z " style="fill-opacity:1.000000;fill:rgb(205,186,171);stroke:rgb(0,0,0);stroke-width:2"/></g>
<g fill-rule="evenodd"><path d="M 374.803,2846.85 L 374.803,2783.86 L 516.535,2783.86 L 516.535,2846.85 L 374.803,2846.85 z " style="fill-opacity:1.000000;fill:rgb(242,251,227);stroke:rgb(0,0,0);stroke-width:2"/></g>
<g fill-rule="evenodd"><path d="M 374.803,2746.85 L 374.803,2683.86 L 516.535,2683.86 L 516.535,2746.85 L 374.803,2746.85 z " style="fill-opacity:1.000000;fill:rgb(70,124,194);stroke:rgb(0,0,0);stroke-width:2"/></g>
<g fill-rule="evenodd"><path d="M 374.803,2646.85 L 374.803,2583.86 L 516.535,2583.86 L 516.535,2646.85 L 374.803,2646.85 z " style="fill-opacity:1.000000;fill:rgb(84,248,27);stroke:rgb(0,0,0);stroke-width:2"/></g>
<g fill-rule="evenodd"><path d="M 374.803,2546.85 L 374.803,2483.86 L 516.535,2483.86 L 516.535,2546.85 L 374.803,2546.85 z " style="fill-opacity:1.000000;fill:rgb(232,231,141);stroke:rgb(0,0,0);stroke-width:2"/></g>
<g fill-rule="evenodd"><path d="M 580.709,1574.02 L 580.709,1511.02 L 581.139,1506.93 L 582.411,1503.02 L 584.468,1499.45 L 587.222,1496.39 L 590.551,1493.98 L 594.311,1492.3 L 598.336,1491.45 L 629.605,1491.34 L 629.605,1216.54 L 621.26,1216.54 L 621.26,1090.55 L 676.378,1090.55 L 676.378,1216.54 L 669.605,1216.54 L 669.605,1491.34 L 700.877,1491.45 L 704.902,1492.3 L 708.661,1493.98 L 711.991,1496.39 L 714.744,1499.45 L 716.802,1503.02 L 718.074,1506.93 L 718.504,1511.02 L 718.504,1522.52 L 1563.37,1522.52 L 1822.86,1263.02 L 1825.9,1260.54 L 1829.35,1258.69 L 1833.11,1257.55 L 1837.01,1257.17 L 2620.79,1257.17 L 2624.69,1257.55 L 2628.44,1258.69 L 2631.9,1260.54 L 2634.93,1263.02 L 2717.71,1345.8 L 2728.41,1338.03 L 2743.44,1331.33 L 2759.55,1327.91 L 2776.01,1327.91 L 2792.11,1331.33 L 2807.15,1338.03 L 2820.46,1347.71 L 2831.48,1359.94 L 2839.71,1374.19 L 2844.8,1389.85 L 2846.52,1406.22 L 2846.52,1465.28 L 2844.8,1481.65 L 2839.71,1497.3 L 2831.48,1511.56 L 2820.46,1523.79 L 2807.15,1533.47 L 2792.11,1540.16 L 2776.01,1543.58 L 2759.55,1543.58 L 2743.44,1540.16 L 2728.41,1533.47 L 2715.09,1523.79 L 2704.07,1511.56 L 2695.84,1497.3 L 2690.76,1481.65 L 2689.04,1465.28 L 2689.04,1406.22 L 2690.76,1389.85 L 2694.29,1378.96 L 2612.5,1297.17 L 1845.29,1297.17 L 1585.8,1556.66 L 1582.76,1559.15 L 1579.31,1561 L 1575.55,1562.14 L 1571.65,1562.52 L 718.504,1562.52 L 718.504,1574.02 L 718.074,1578.11 L 716.802,1582.02 L 714.744,1585.59 L 711.991,1588.64 L 708.661,1591.06 L 704.902,1592.74 L 700.877,1593.59 L 698.819,1593.7 L 598.336,1593.59 L 594.311,1592.74 L 590.551,1591.06 L 587.222,1588.64 L 584.468,1585.59 L 582.411,1582.02 L 581.139,1578.11 L 580.709,1574.02 z " style="fill-opacity:1.000000;fill:rgb(118,90,46);stroke:rgb(0,0,0);stroke-width:2"/></g>
<g fill-rule="evenodd"><path d="M 790.551,2746.85 L 790.551,2683.86 L 932.283,2683.86 L 932.283,2695.36 L 1104.33,2695.36 L 1104.33,2685.04 L 1104.76,2680.95 L 1106.03,2677.03 L 1108.09,2673.47 L 1110.84,2670.41 L 1114.17,2667.99 L 1117.93,2666.32 L 1121.96,2665.46 L 1124.02,2665.35 L 1222.44,2665.35 L 1224.5,2665.46 L 1228.52,2666.32 L 1232.28,2667.99 L 1235.61,2670.41 L 1238.37,2673.47 L 1240.42,2677.03 L 1241.7,2680.95 L 1242.13,2685.04 L 1242.13,2696.54 L 1909.45,2696.54 L 1912.58,2696.78 L 1915.63,2697.51 L 1918.53,2698.72 L 1921.2,2700.36 L 1923.59,2702.39 L 2054.27,2833.07 L 2489.04,2833.07 L 2489.04,2823.54 L 2490.76,2807.17 L 2495.84,2791.52 L 2504.07,2777.26 L 2515.09,2765.03 L 2528.41,2755.35 L 2543.44,2748.66 L 2559.55,2745.23 L 2576.01,2745.23 L 2592.11,2748.66 L 2607.15,2755.35 L 2620.46,2765.03 L 2631.48,2777.26 L 2639.71,2791.52 L 2644.8,2807.17 L 2646.52,2823.54 L 2646.52,2882.6 L 2644.8,2898.97 L 2639.71,2914.62 L 2631.48,2928.88 L 2620.46,2941.11 L 2607.15,2950.79 L 2592.11,2957.48 L 2576.01,2960.91 L 2559.55,2960.91 L 2543.44,2957.48 L 2528.41,2950.79 L 2515.09,2941.11 L 2504.07,2928.88 L 2495.84,2914.62 L 2490.76,2898.97 L 2489.04,2882.6 L 2489.04,2873.07 L 2045.98,2873.07 L 2042.85,2872.83 L 2039.8,2872.09 L 2036.9,2870.89 L 2034.23,2869.25 L 2031.84,2867.21 L 1901.16,2736.54 L 1242.13,2736.54 L 1242.13,2748.03 L 1241.7,2752.12 L 1240.42,2756.04 L 1238.37,2759.6 L 1235.61,2762.66 L 1232.28,2765.08 L 1228.52,2766.75 L 1224.5,2767.61 L 1222.44,2767.72 L 1124.02,2767.72 L 1121.96,2767.61 L 1117.93,2766.75 L 1114.17,2765.08 L 1110.84,2762.66 L 1108.09,2759.6 L 1106.03,2756.04 L 1104.76,2752.12 L 1104.33,2748.03 L 1104.33,2735.36 L 932.283,2735.36 L 932.283,2746.85 L 790.551,2746.85 z " style="fill-opacity:1.000000;fill:rgb(99,51,159);stroke:rgb(0,0,0);stroke-width:2"/></g>
<g fill-rule="evenodd"><path d="M 790.551,2646.85 L 790.551,2583.86 L 932.283,2583.86 L 932.283,2595.36 L 3056.3,2595.36 L 3060.2,2595.74 L 3063.95,2596.88 L 3067.41,2598.73 L 3070.44,2601.21 L 3181.92,2712.69 L 3184.4,2715.72 L 3186.25,2719.18 L 3187.39,2722.93 L 3187.78,2726.83 L 3187.77,2747.74 L 3192.11,2748.66 L 3207.15,2755.35 L 3220.46,2765.03 L 3231.48,2777.26 L 3239.71,2791.52 L 3244.8,2807.17 L 3246.52,2823.54 L 3246.52,2882.6 L 3244.8,2898.97 L 3239.71,2914.62 L 3231.48,2928.88 L 3220.46,2941.11 L 3207.15,2950.79 L 3192.11,2957.48 L 3176.01,2960.91 L 3159.55,2960.91 L 3143.44,2957.48 L 3128.41,2950.79 L 3115.09,2941.11 L 3104.07,2928.88 L 3095.84,2914.62 L 3090.76,2898.97 L 3089.04,2882.6 L 3089.04,2823.54 L 3090.76,2807.17 L 3095.84,2791.52 L 3104.07,2777.26 L 3115.09,2765.03 L 3128.41,2755.35 L 3143.44,2748.66 L 3147.78,2747.74 L 3147.78,2735.12 L 3048.01,2635.36 L 932.283,2635.36 L 932.283,2646.85 L 790.551,2646.85 z " style="fill-opacity:1.000000;fill:rgb(201,154,102);stroke:rgb(0,0,0);stroke-width:2"/></g>
<g fill-rule="evenodd"><path d="M 790.551,2546.85 L 790.551,2483.86 L 932.283,2483.86 L 932.283,2495.36 L 1102.36,2495.36 L 1102.36,2480.31 L 1102.79,2476.22 L 1104.06,2472.31 L 1106.12,2468.74 L 1108.88,2465.69 L 1112.2,2463.27 L 1115.96,2461.59 L 1119.99,2460.74 L 1122.05,2460.63 L 1224.41,2460.63 L 1226.47,2460.74 L 1230.49,2461.59 L 1234.25,2463.27 L 1237.58,2465.69 L 1240.33,2468.74 L 1242.39,2472.31 L 1243.66,2476.22 L 1244.09,2480.31 L 1244.09,2492.8 L 1370.55,2492.8 L 1370.55,2085.45 L 1137.44,1852.34 L 1136,1852.97 L 1131.98,1853.83 L 1129.92,1853.94 L 1064.87,1853.83 L 1060.85,1852.97 L 1057.09,1851.3 L 1053.76,1848.88 L 1051,1845.82 L 1048.95,1842.26 L 1047.67,1838.34 L 1047.24,1834.25 L 1047.24,1735.83 L 1047.67,1731.73 L 1048.95,1727.82 L 1051,1724.26 L 1053.76,1721.2 L 1057.09,1718.78 L 1060.85,1717.11 L 1064.87,1716.25 L 1131.98,1716.25 L 1136,1717.11 L 1139.76,1718.78 L 1143.09,1721.2 L 1145.85,1724.26 L 1147.9,1727.82 L 1149.18,1731.73 L 1149.61,1735.83 L 1149.61,1807.94 L 1404.69,2063.02 L 1407.18,2066.05 L 1409.03,2069.51 L 1410.17,2073.26 L 1410.55,2077.17 L 1410.55,2492.8 L 3107.28,2492.8 L 3111.18,2493.18 L 3114.94,2494.32 L 3118.39,2496.17 L 3121.43,2498.66 L 3368.01,2745.23 L 3376.01,2745.23 L 3392.11,2748.66 L 3407.15,2755.35 L 3420.46,2765.03 L 3431.48,2777.26 L 3439.71,2791.52 L 3444.8,2807.17 L 3446.52,2823.54 L 3446.52,2882.6 L 3444.8,2898.97 L 3439.71,2914.62 L 3431.48,2928.88 L 3420.46,2941.11 L 3407.15,2950.79 L 3397.78,2954.96 L 3397.78,3061.36 L 3397.41,3066.05 L 3396.31,3070.63 L 3394.51,3074.98 L 3392.05,3078.99 L 3388.99,3082.57 L 3288.93,3182.63 L 3284.38,3186.36 L 3279.2,3189.13 L 3273.57,3190.84 L 3267.72,3191.42 L 2952.76,3191.42 L 2952.76,3210.63 L 2952.33,3214.72 L 2951.05,3218.64 L 2949,3222.2 L 2946.24,3225.26 L 2942.91,3227.68 L 2939.15,3229.35 L 2935.13,3230.21 L 2933.07,3230.31 L 2870.08,3230.31 L 2868.02,3230.21 L 2864,3229.35 L 2862.56,3228.71 L 2738.55,3352.73 L 2736.16,3354.76 L 2733.49,3356.4 L 2730.59,3357.61 L 2727.54,3358.34 L 2724.41,3358.58 L 2106.3,3358.58 L 2103.17,3358.34 L 2100.12,3357.61 L 2097.22,3356.4 L 2094.54,3354.76 L 2092.16,3352.73 L 1938.61,3199.18 L 1936.13,3196.15 L 1934.28,3192.69 L 1933.14,3188.94 L 1932.76,3185.04 L 1932.76,3079.15 L 1834.23,2980.63 L 1242.13,2980.63 L 1242.13,2992.13 L 1241.7,2996.22 L 1240.42,3000.13 L 1238.37,3003.7 L 1235.61,3006.75 L 1232.28,3009.17 L 1228.52,3010.85 L 1224.5,3011.7 L 1222.44,3011.81 L 1121.96,3011.7 L 1117.93,3010.85 L 1114.17,3009.17 L 1110.84,3006.75 L 1108.09,3003.7 L 1106.03,3000.13 L 1104.76,2996.22 L 1104.33,2992.13 L 1104.33,2929.13 L 1104.76,2925.04 L 1106.03,2921.13 L 1108.09,2917.56 L 1110.84,2914.51 L 1114.17,2912.09 L 1117.93,2910.41 L 1121.96,2909.56 L 1224.5,2909.56 L 1228.52,2910.41 L 1232.28,2912.09 L 1235.61,2914.51 L 1238.37,2917.56 L 1240.42,2921.13 L 1241.7,2925.04 L 1242.13,2929.13 L 1242.13,2940.63 L 1842.52,2940.63 L 1845.65,2940.88 L 1848.7,2941.61 L 1851.6,2942.81 L 1854.27,2944.45 L 1856.66,2946.49 L 1966.9,3056.73 L 1969.38,3059.76 L 1971.23,3063.21 L 1972.37,3066.97 L 1972.76,3070.87 L 1972.76,3176.76 L 2114.58,3318.58 L 2716.12,3318.58 L 2850.39,3184.31 L 2850.39,3112.2 L 2850.82,3108.11 L 2852.1,3104.2 L 2854.15,3100.63 L 2856.91,3097.58 L 2860.24,3095.16 L 2864,3093.48 L 2868.02,3092.63 L 2870.08,3092.52 L 2933.07,3092.52 L 2935.13,3092.63 L 2939.15,3093.48 L 2942.91,3095.16 L 2946.24,3097.58 L 2949,3100.63 L 2951.05,3104.2 L 2952.33,3108.11 L 2952.76,3112.2 L 2952.76,3131.42 L 3255.29,3131.42 L 3337.78,3048.93 L 3337.78,2954.96 L 3328.41,2950.79 L 3315.09,2941.11 L 3304.07,2928.88 L 3295.84,2914.62 L 3290.76,2898.97 L 3289.04,2882.6 L 3289.04,2823.54 L 3290.76,2807.17 L 3295.84,2791.52 L 3304.07,2777.26 L 3315.09,2765.03 L 3324.44,2758.23 L 3099,2532.8 L 1244.09,2532.8 L 1244.09,2545.28 L 1243.66,2549.37 L 1242.39,2553.28 L 1240.33,2556.85 L 1237.58,2559.9 L 1234.25,2562.32 L 1230.49,2564 L 1226.47,2564.85 L 1224.41,2564.96 L 1122.05,2564.96 L 1119.99,2564.85 L 1115.96,2564 L 1112.2,2562.32 L 1108.88,2559.9 L 1106.12,2556.85 L 1104.06,2553.28 L 1102.79,2549.37 L 1102.36,2545.28 L 1102.36,2535.36 L 932.283,2535.36 L 932.283,2546.85 L 790.551,2546.85 z " style="fill-opacity:1.000000;fill:rgb(50,13,183);stroke:rgb(0,0,0);stroke-width:2"/></g>
<g fill-rule="evenodd"><path d="M 921.26,1216.54 L 921.26,1090.55 L 976.378,1090.55 L 976.378,1216.54 L 968.817,1216.54 L 968.817,1246.84 L 1101.98,1380 L 1195.67,1380 L 1195.67,1368.5 L 1196.1,1364.41 L 1197.37,1360.5 L 1199.43,1356.93 L 1202.18,1353.88 L 1205.51,1351.46 L 1209.27,1349.78 L 1213.3,1348.93 L 1215.35,1348.82 L 1313.78,1348.82 L 1315.84,1348.93 L 1319.86,1349.78 L 1323.62,1351.46 L 1326.95,1353.88 L 1329.71,1356.93 L 1331.76,1360.5 L 1333.03,1364.41 L 1333.46,1368.5 L 1333.46,1380 L 1582.27,1380 L 1796.88,1165.39 L 1799.91,1162.9 L 1803.37,1161.05 L 1807.12,1159.91 L 1811.02,1159.53 L 2723.15,1159.53 L 2727.05,1159.91 L 2730.8,1161.05 L 2734.26,1162.9 L 2737.29,1165.39 L 2917.71,1345.8 L 2928.41,1338.03 L 2943.44,1331.33 L 2959.55,1327.91 L 2976.01,1327.91 L 2992.11,1331.33 L 3007.15,1338.03 L 3020.46,1347.71 L 3031.48,1359.94 L 3039.71,1374.19 L 3044.8,1389.85 L 3046.52,1406.22 L 3046.52,1465.28 L 3044.8,1481.65 L 3039.71,1497.3 L 3031.48,1511.56 L 3020.46,1523.79 L 3007.15,1533.47 L 2992.11,1540.16 L 2976.01,1543.58 L 2959.55,1543.58 L 2943.44,1540.16 L 2928.41,1533.47 L 2915.09,1523.79 L 2904.07,1511.56 L 2895.84,1497.3 L 2890.76,1481.65 L 2889.04,1465.28 L 2889.04,1406.22 L 2890.76,1389.85 L 2894.29,1378.96 L 2714.86,1199.53 L 1819.31,1199.53 L 1604.69,1414.14 L 1601.66,1416.63 L 1598.2,1418.48 L 1594.45,1419.62 L 1590.55,1420 L 1333.46,1420 L 1333.46,1431.5 L 1333.03,1435.59 L 1331.76,1439.5 L 1329.71,1443.07 L 1326.95,1446.12 L 1323.62,1448.54 L 1319.86,1450.22 L 1315.84,1451.07 L 1313.78,1451.18 L 1213.3,1451.07 L 1209.27,1450.22 L 1205.51,1448.54 L 1202.18,1446.12 L 1199.43,1443.07 L 1197.37,1439.5 L 1196.1,1435.59 L 1195.67,1431.5 L 1195.67,1420 L 1093.7,1420 L 1089.8,1419.62 L 1086.05,1418.48 L 1082.59,1416.63 L 1079.56,1414.14 L 934.675,1269.26 L 932.637,1266.88 L 930.997,1264.2 L 929.796,1261.3 L 929.063,1258.25 L 928.817,1255.12 L 928.817,1216.54 L 921.26,1216.54 z " style="fill-opacity:1.000000;fill:rgb(49,88,163);stroke:rgb(0,0,0);stroke-width:2"/></g>
<g fill-rule="evenodd"><path d="M 1549.61,2301.18 L 1549.61,2236.22 L 1550.04,2232.13 L 1551.31,2228.21 L 1553.37,2224.65 L 1556.12,2221.59 L 1559.45,2219.17 L 1563.21,2217.5 L 1567.23,2216.64 L 1671.65,2216.54 L 1673.71,2216.64 L 1677.74,2217.5 L 1681.5,2219.17 L 1684.83,2221.59 L 1687.58,2224.65 L 1689.64,2228.21 L 1690.91,2232.13 L 1691.34,2236.22 L 1691.34,2240.08 L 1811.81,2240.08 L 1811.81,2179.53 L 1821.18,2179.53 L 1821.18,2114.96 L 1821.76,2109.11 L 1823.46,2103.48 L 1826.24,2098.29 L 1829.97,2093.75 L 1886.66,2037.05 L 1891.21,2033.32 L 1896.39,2030.55 L 1902.02,2028.84 L 1907.87,2028.27 L 2163.95,2028.27 L 2253.46,1938.76 L 2253.46,1826.77 L 2253.83,1822.08 L 2254.93,1817.5 L 2256.73,1813.15 L 2259.19,1809.14 L 2262.25,1805.56 L 2378,1689.81 L 2382.54,1686.08 L 2387.73,1683.31 L 2393.36,1681.6 L 2399.21,1681.02 L 2702.36,1681.02 L 2708.21,1681.6 L 2713.84,1683.31 L 2719.03,1686.08 L 2723.57,1689.81 L 2836.17,1802.41 L 2839.9,1806.95 L 2842.68,1812.14 L 2844.38,1817.77 L 2844.96,1823.62 L 2844.96,2046.63 L 3417.94,2619.61 L 3673.23,2619.61 L 3679.08,2620.18 L 3684.71,2621.89 L 3689.89,2624.66 L 3694.44,2628.39 L 3788.99,2722.94 L 3792.05,2726.52 L 3794.51,2730.53 L 3796.31,2734.88 L 3797.41,2739.46 L 3797.78,2744.15 L 3797.78,2751.18 L 3807.15,2755.35 L 3820.46,2765.03 L 3831.48,2777.26 L 3839.71,2791.52 L 3844.8,2807.17 L 3846.52,2823.54 L 3846.52,2882.6 L 3844.8,2898.97 L 3839.71,2914.62 L 3831.48,2928.88 L 3820.46,2941.11 L 3807.15,2950.79 L 3792.11,2957.48 L 3776.01,2960.91 L 3759.55,2960.91 L 3743.44,2957.48 L 3728.41,2950.79 L 3715.09,2941.11 L 3704.07,2928.88 L 3695.84,2914.62 L 3690.76,2898.97 L 3689.04,2882.6 L 3689.04,2823.54 L 3690.76,2807.17 L 3695.84,2791.52 L 3704.07,2777.26 L 3715.09,2765.03 L 3728.41,2755.35 L 3734.04,2752.84 L 3660.8,2679.61 L 3405.51,2679.61 L 3399.66,2679.03 L 3394.03,2677.32 L 3388.84,2674.55 L 3384.3,2670.82 L 2793.75,2080.27 L 2790.69,2076.69 L 2788.23,2072.68 L 2786.43,2068.33 L 2785.33,2063.75 L 2784.96,2059.06 L 2784.96,1836.05 L 2689.93,1741.02 L 2411.64,1741.02 L 2313.46,1839.2 L 2313.46,1951.18 L 2312.89,1957.03 L 2311.18,1962.66 L 2308.41,1967.85 L 2304.68,1972.4 L 2197.59,2079.48 L 2193.04,2083.21 L 2187.86,2085.98 L 2182.23,2087.69 L 2176.38,2088.27 L 1920.3,2088.27 L 1881.18,2127.39 L 1881.18,2179.53 L 1890.55,2179.53 L 1890.55,2360.63 L 1811.81,2360.63 L 1811.81,2300.08 L 1691.34,2300.08 L 1690.91,2305.27 L 1689.64,2309.19 L 1687.58,2312.75 L 1684.83,2315.81 L 1681.5,2318.23 L 1677.74,2319.9 L 1673.71,2320.76 L 1569.29,2320.87 L 1567.23,2320.76 L 1563.21,2319.9 L 1559.45,2318.23 L 1556.12,2315.81 L 1553.37,2312.75 L 1551.31,2309.19 L 1550.04,2305.27 L 1549.61,2301.18 z " style="fill-opacity:1.000000;fill:rgb(90,37,93);stroke:rgb(0,0,0);stroke-width:2"/></g>
<g fill-rule="evenodd"><path d="M 1677.76,1015.35 L 1677.76,916.929 L 1678.19,912.836 L 1679.46,908.923 L 1681.52,905.359 L 1684.27,902.3 L 1687.6,899.881 L 1691.36,898.208 L 1695.38,897.352 L 1697.44,897.244 L 1770.28,897.244 L 1772.33,897.352 L 1776.36,898.208 L 1780.12,899.881 L 1783.45,902.3 L 1786.2,905.359 L 1788.26,908.923 L 1789.53,912.836 L 1789.96,916.929 L 1789.96,946.142 L 1915.94,946.142 L 1915.94,916.929 L 1916.38,912.836 L 1917.65,908.923 L 1919.7,905.359 L 1922.46,902.3 L 1925.79,899.881 L 1929.55,898.208 L 1933.57,897.352 L 2000.68,897.352 L 2004.71,898.208 L 2008.46,899.881 L 2011.79,902.3 L 2014.55,905.359 L 2016.61,908.923 L 2017.88,912.836 L 2018.31,916.929 L 2018.31,1015.35 L 2017.88,1019.45 L 2016.61,1023.36 L 2014.55,1026.92 L 2011.79,1029.98 L 2008.46,1032.4 L 2004.71,1034.08 L 2000.68,1034.93 L 1998.62,1035.04 L 1935.63,1035.04 L 1933.57,1034.93 L 1929.55,1034.08 L 1925.79,1032.4 L 1922.46,1029.98 L 1919.7,1026.92 L 1917.65,1023.36 L 1916.38,1019.45 L 1915.94,1015.35 L 1915.94,986.142 L 1789.96,986.142 L 1789.96,1015.35 L 1789.53,1019.45 L 1788.26,1023.36 L 1786.2,1026.92 L 1783.45,1029.98 L 1780.12,1032.4 L 1776.36,1034.08 L 1772.33,1034.93 L 1695.38,1034.93 L 1691.36,1034.08 L 1687.6,1032.4 L 1684.27,1029.98 L 1681.52,1026.92 L 1679.46,1023.36 L 1678.19,1019.45 L 1677.76,1015.35 z " style="fill-opacity:1.000000;fill:rgb(5,23,88);stroke:rgb(0,0,0);stroke-width:2"/></g>
<g fill-rule="evenodd"><path d="M 1677.76,779.134 L 1677.76,680.709 L 1678.19,676.616 L 1679.46,672.702 L 1681.52,669.138 L 1684.27,666.08 L 1687.6,663.661 L 1691.36,661.987 L 1695.38,661.131 L 1697.44,661.024 L 1770.28,661.024 L 1772.33,661.131 L 1776.36,661.987 L 1780.12,663.661 L 1783.45,666.08 L 1786.2,669.138 L 1788.26,672.702 L 1789.53,676.616 L 1789.96,680.709 L 1789.96,709.922 L 1915.94,709.922 L 1915.94,680.709 L 1916.38,676.616 L 1917.65,672.702 L 1919.7,669.138 L 1922.46,666.08 L 1925.79,663.661 L 1929.55,661.987 L 1933.57,661.131 L 2000.68,661.131 L 2004.71,661.987 L 2008.46,663.661 L 2011.79,666.08 L 2014.55,669.138 L 2016.61,672.702 L 2017.88,676.616 L 2018.31,680.709 L 2018.31,779.134 L 2017.88,783.227 L 2016.61,787.14 L 2014.55,790.704 L 2011.79,793.763 L 2008.46,796.182 L 2004.71,797.855 L 2000.68,798.711 L 1998.62,798.819 L 1935.63,798.819 L 1933.57,798.711 L 1929.55,797.855 L 1925.79,796.182 L 1922.46,793.763 L 1919.7,790.704 L 1917.65,787.14 L 1916.38,783.227 L 1915.94,779.134 L 1915.94,749.922 L 1789.96,749.922 L 1789.96,779.134 L 1789.53,783.227 L 1788.26,787.14 L 1786.2,790.704 L 1783.45,793.763 L 1780.12,796.182 L 1776.36,797.855 L 1772.33,798.711 L 1695.38,798.711 L 1691.36,797.855 L 1687.6,796.182 L 1684.27,793.763 L 1681.52,790.704 L 1679.46,787.14 L 1678.19,783.227 L 1677.76,779.134 z " style="fill-opacity:1.000000;fill:rgb(233,94,212);stroke:rgb(0,0,0);stroke-width:2"/></g>
<g fill-rule="evenodd"><path d="M 1677.76,542.913 L 1677.76,444.488 L 1678.19,440.396 L 1679.46,436.482 L 1681.52,432.918 L 1684.27,429.859 L 1687.6,427.44 L 1691.36,425.767 L 1695.38,424.911 L 1772.33,424.911 L 1776.36,425.767 L 1780.12,427.44 L 1783.45,429.859 L 1786.2,432.918 L 1788.26,436.482 L 1789.53,440.396 L 1789.96,444.488 L 1789.96,473.702 L 1915.94,473.702 L 1915.94,444.488 L 1916.38,440.395 L 1917.65,436.482 L 1919.7,432.918 L 1922.46,429.859 L 1925.79,427.44 L 1929.55,425.767 L 1933.57,424.911 L 1935.63,424.803 L 1998.62,424.803 L 2000.68,424.911 L 2004.71,425.767 L 2008.46,427.44 L 2011.79,429.859 L 2014.55,432.918 L 2016.61,436.482 L 2017.88,440.395 L 2018.31,444.488 L 2018.31,542.913 L 2017.88,547.006 L 2016.61,550.92 L 2014.55,554.484 L 2011.79,557.542 L 2008.46,559.961 L 2004.71,561.635 L 2000.68,562.491 L 1933.57,562.491 L 1929.55,561.635 L 1925.79,559.961 L 1922.46,557.542 L 1919.7,554.484 L 1917.65,550.92 L 1916.38,547.006 L 1915.94,542.913 L 1915.94,513.702 L 1789.96,513.702 L 1789.96,542.913 L 1789.53,547.006 L 1788.26,550.92 L 1786.2,554.484 L 1783.45,557.542 L 1780.12,559.961 L 1776.36,561.635 L 1772.33,562.491 L 1770.28,562.598 L 1697.44,562.598 L 1695.38,562.491 L 1691.36,561.635 L 1687.6,559.961 L 1684.27,557.542 L 1681.52,554.484 L 1679.46,550.92 L 1678.19,547.006 L 1677.76,542.913 z " style="fill-opacity:1.000000;fill:rgb(171,178,205);stroke:rgb(0,0,0);stroke-width:2"/></g>
<g fill-rule="evenodd"><path d="M 1677.76,306.693 L 1677.76,208.268 L 1678.19,204.175 L 1679.46,200.261 L 1681.52,196.697 L 1684.27,193.639 L 1687.6,191.22 L 1691.36,189.546 L 1695.38,188.691 L 1697.44,188.583 L 1770.28,188.583 L 1772.33,188.691 L 1776.36,189.546 L 1780.12,191.22 L 1783.45,193.639 L 1786.2,196.697 L 1788.26,200.261 L 1789.53,204.175 L 1789.96,208.268 L 1789.96,237.482 L 1915.94,237.482 L 1915.94,208.268 L 1916.38,204.175 L 1917.65,200.261 L 1919.7,196.697 L 1922.46,193.639 L 1925.79,191.22 L 1929.55,189.546 L 1933.57,188.691 L 2000.68,188.691 L 2004.71,189.546 L 2008.46,191.22 L 2011.79,193.639 L 2014.55,196.697 L 2016.61,200.261 L 2017.88,204.175 L 2018.31,208.268 L 2018.31,306.693 L 2017.88,310.786 L 2016.61,314.7 L 2014.55,318.263 L 2011.79,321.322 L 2008.46,323.741 L 2004.71,325.414 L 2000.68,326.27 L 1998.62,326.378 L 1935.63,326.378 L 1933.57,326.27 L 1929.55,325.414 L 1925.79,323.741 L 1922.46,321.322 L 1919.7,318.263 L 1917.65,314.7 L 1916.38,310.786 L 1915.94,306.693 L 1915.94,277.482 L 1789.96,277.482 L 1789.96,306.693 L 1789.53,310.786 L 1788.26,314.699 L 1786.2,318.263 L 1783.45,321.322 L 1780.12,323.741 L 1776.36,325.414 L 1772.33,326.27 L 1695.38,326.27 L 1691.36,325.414 L 1687.6,323.741 L 1684.27,321.322 L 1681.52,318.263 L 1679.46,314.699 L 1678.19,310.786 L 1677.76,306.693 z " style="fill-opacity:1.000000;fill:rgb(198,155,180);stroke:rgb(0,0,0);stroke-width:2"/></g>
<g fill-rule="evenodd"><path d="M 1811.81,1911.81 L 1811.81,1730.71 L 1831.18,1730.71 L 1831.18,1614.17 L 1831.56,1610.27 L 1832.7,1606.52 L 1834.55,1603.06 L 1837.04,1600.03 L 2015.46,1421.61 L 2018.49,1419.12 L 2021.95,1417.27 L 2025.7,1416.13 L 2029.61,1415.75 L 2489.04,1415.75 L 2489.04,1406.22 L 2490.76,1389.85 L 2495.84,1374.19 L 2504.07,1359.94 L 2515.09,1347.71 L 2528.41,1338.03 L 2543.44,1331.33 L 2559.55,1327.91 L 2576.01,1327.91 L 2592.11,1331.33 L 2607.15,1338.03 L 2620.46,1347.71 L 2631.48,1359.94 L 2639.71,1374.19 L 2644.8,1389.85 L 2646.52,1406.22 L 2646.52,1465.28 L 2644.8,1481.65 L 2639.71,1497.3 L 2631.48,1511.56 L 2620.46,1523.79 L 2607.15,1533.47 L 2592.11,1540.16 L 2576.01,1543.58 L 2559.55,1543.58 L 2543.44,1540.16 L 2528.41,1533.47 L 2515.09,1523.79 L 2504.07,1511.56 L 2495.84,1497.3 L 2490.76,1481.65 L 2489.04,1465.28 L 2489.04,1455.75 L 2037.89,1455.75 L 1871.18,1622.46 L 1871.18,1730.71 L 1890.55,1730.71 L 1890.55,1911.81 L 1811.81,1911.81 z " style="fill-opacity:1.000000;fill:rgb(84,17,14);stroke:rgb(0,0,0);stroke-width:2"/></g>
<g fill-rule="evenodd"><path d="M 2063.78,2360.63 L 2063.78,2179.53 L 2142.52,2179.53 L 2142.52,2360.63 L 2063.78,2360.63 z " style="fill-opacity:1.000000;fill:rgb(130,116,65);stroke:rgb(0,0,0);stroke-width:2"/></g>
<g fill-rule="evenodd"><path d="M 2160.04,1015.35 L 2160.04,916.929 L 2160.47,912.836 L 2161.74,908.923 L 2163.8,905.359 L 2166.55,902.3 L 2169.88,899.881 L 2173.64,898.208 L 2177.67,897.352 L 2242.72,897.244 L 2244.77,897.352 L 2248.8,898.208 L 2252.56,899.881 L 2255.89,902.3 L 2258.64,905.359 L 2260.7,908.923 L 2261.97,912.836 L 2262.4,916.929 L 2262.4,946.93 L 3037.01,946.93 L 3040.91,947.314 L 3044.66,948.452 L 3048.12,950.301 L 3051.15,952.788 L 3181.92,1083.56 L 3184.4,1086.59 L 3186.25,1090.04 L 3187.39,1093.8 L 3187.78,1097.7 L 3187.77,1330.41 L 3192.11,1331.33 L 3207.15,1338.03 L 3220.46,1347.71 L 3231.48,1359.94 L 3239.71,1374.19 L 3244.8,1389.85 L 3246.52,1406.22 L 3246.52,1465.28 L 3244.8,1481.65 L 3239.71,1497.3 L 3231.48,1511.56 L 3220.46,1523.79 L 3207.15,1533.47 L 3192.11,1540.16 L 3176.01,1543.58 L 3159.55,1543.58 L 3143.44,1540.16 L 3128.41,1533.47 L 3115.09,1523.79 L 3104.07,1511.56 L 3095.84,1497.3 L 3090.76,1481.65 L 3089.04,1465.28 L 3089.04,1406.22 L 3090.76,1389.85 L 3095.84,1374.19 L 3104.07,1359.94 L 3115.09,1347.71 L 3128.41,1338.03 L 3143.44,1331.33 L 3147.78,1330.41 L 3147.78,1105.98 L 3028.72,986.93 L 2262.4,986.93 L 2262.4,1015.35 L 2261.97,1019.45 L 2260.7,1023.36 L 2258.64,1026.92 L 2255.89,1029.98 L 2252.56,1032.4 L 2248.8,1034.08 L 2244.77,1034.93 L 2242.72,1035.04 L 2177.67,1034.93 L 2173.64,1034.08 L 2169.88,1032.4 L 2166.55,1029.98 L 2163.8,1026.92 L 2161.74,1023.36 L 2160.47,1019.45 L 2160.04,1015.35 z " style="fill-opacity:1.000000;fill:rgb(33,61,220);stroke:rgb(0,0,0);stroke-width:2"/></g>
<g fill-rule="evenodd"><path d="M 2160.04,779.134 L 2160.04,680.709 L 2160.47,676.616 L 2161.74,672.702 L 2163.8,669.138 L 2166.55,666.08 L 2169.88,663.661 L 2173.64,661.987 L 2177.67,661.131 L 2242.72,661.024 L 2244.77,661.131 L 2248.8,661.987 L 2252.56,663.661 L 2255.89,666.08 L 2258.64,669.138 L 2260.7,672.702 L 2261.97,676.616 L 2262.4,680.709 L 2262.4,710.71 L 3214.17,710.71 L 3218.07,711.094 L 3221.83,712.232 L 3225.28,714.081 L 3228.32,716.568 L 3381.92,870.17 L 3384.4,873.201 L 3386.25,876.658 L 3387.39,880.41 L 3387.78,884.312 L 3387.78,1330.41 L 3392.11,1331.33 L 3407.15,1338.03 L 3420.46,1347.71 L 3431.48,1359.94 L 3439.71,1374.19 L 3444.8,1389.85 L 3446.52,1406.22 L 3446.52,1465.28 L 3444.8,1481.65 L 3439.71,1497.3 L 3431.48,1511.56 L 3420.46,1523.79 L 3407.15,1533.47 L 3392.11,1540.16 L 3376.01,1543.58 L 3359.55,1543.58 L 3343.44,1540.16 L 3328.41,1533.47 L 3315.09,1523.79 L 3304.07,1511.56 L 3295.84,1497.3 L 3290.76,1481.65 L 3289.04,1465.28 L 3289.04,1406.22 L 3290.76,1389.85 L 3295.84,1374.19 L 3304.07,1359.94 L 3315.09,1347.71 L 3328.41,1338.03 L 3343.44,1331.33 L 3347.78,1330.41 L 3347.78,892.596 L 3205.89,750.71 L 2262.4,750.71 L 2262.4,779.134 L 2261.97,783.227 L 2260.7,787.14 L 2258.64,790.704 L 2255.89,793.763 L 2252.56,796.182 L 2248.8,797.855 L 2244.77,798.711 L 2242.72,798.819 L 2177.67,798.711 L 2173.64,797.855 L 2169.88,796.182 L 2166.55,793.763 L 2163.8,790.704 L 2161.74,787.14 L 2160.47,783.227 L 2160.04,779.134 z " style="fill-opacity:1.000000;fill:rgb(135,112,233);stroke:rgb(0,0,0);stroke-width:2"/></g>
<g fill-rule="evenodd"><path d="M 2160.04,542.913 L 2160.04,444.488 L 2160.47,440.395 L 2161.74,436.482 L 2163.8,432.918 L 2166.55,429.859 L 2169.88,427.44 L 2173.64,425.767 L 2177.67,424.911 L 2242.72,424.803 L 2244.77,424.911 L 2248.8,425.767 L 2252.56,427.44 L 2255.89,429.859 L 2258.64,432.918 L 2260.7,436.482 L 2261.97,440.395 L 2262.4,444.488 L 2262.4,474.49 L 3331.5,474.49 L 3335.4,474.874 L 3339.15,476.012 L 3342.61,477.861 L 3345.64,480.348 L 3581.92,716.626 L 3583.96,719.012 L 3585.6,721.688 L 3586.8,724.588 L 3587.53,727.639 L 3587.78,730.768 L 3587.77,1330.41 L 3592.11,1331.33 L 3607.15,1338.03 L 3620.46,1347.71 L 3631.48,1359.94 L 3639.71,1374.19 L 3644.8,1389.85 L 3646.52,1406.22 L 3646.52,1465.28 L 3644.8,1481.65 L 3639.71,1497.3 L 3631.48,1511.56 L 3620.46,1523.79 L 3607.15,1533.47 L 3592.11,1540.16 L 3576.01,1543.58 L 3559.55,1543.58 L 3543.44,1540.16 L 3528.41,1533.47 L 3515.09,1523.79 L 3504.07,1511.56 L 3495.84,1497.3 L 3490.76,1481.65 L 3489.04,1465.28 L 3489.04,1406.22 L 3490.76,1389.85 L 3495.84,1374.19 L 3504.07,1359.94 L 3515.09,1347.71 L 3528.41,1338.03 L 3543.44,1331.33 L 3547.78,1330.41 L 3547.78,739.052 L 3323.21,514.49 L 2262.4,514.49 L 2262.4,542.913 L 2261.97,547.006 L 2260.7,550.92 L 2258.64,554.484 L 2255.89,557.542 L 2252.56,559.961 L 2248.8,561.635 L 2244.77,562.491 L 2242.72,562.598 L 2177.67,562.491 L 2173.64,561.635 L 2169.88,559.961 L 2166.55,557.542 L 2163.8,554.484 L 2161.74,550.92 L 2160.47,547.006 L 2160.04,542.913 z " style="fill-opacity:1.000000;fill:rgb(62,161,65);stroke:rgb(0,0,0);stroke-width:2"/></g>
<g fill-rule="evenodd"><path d="M 2160.04,306.693 L 2160.04,208.268 L 2160.47,204.175 L 2161.74,200.261 L 2163.8,196.697 L 2166.55,193.639 L 2169.88,191.22 L 2173.64,189.546 L 2177.67,188.691 L 2242.72,188.583 L 2244.77,188.691 L 2248.8,189.546 L 2252.56,191.22 L 2255.89,193.639 L 2258.64,196.697 L 2260.7,200.261 L 2261.97,204.175 L 2262.4,208.268 L 2262.4,238.268 L 3357.48,238.268 L 3361.38,238.652 L 3365.13,239.79 L 3368.59,241.639 L 3371.62,244.126 L 3781.92,654.422 L 3784.4,657.453 L 3786.25,660.91 L 3787.39,664.662 L 3787.78,668.564 L 3787.78,1330.41 L 3792.11,1331.33 L 3807.15,1338.03 L 3820.46,1347.71 L 3831.48,1359.94 L 3839.71,1374.19 L 3844.8,1389.85 L 3846.52,1406.22 L 3846.52,1465.28 L 3844.8,1481.65 L 3839.71,1497.3 L 3831.48,1511.56 L 3820.46,1523.79 L 3807.15,1533.47 L 3792.11,1540.16 L 3776.01,1543.58 L 3759.55,1543.58 L 3743.44,1540.16 L 3728.41,1533.47 L 3715.09,1523.79 L 3704.07,1511.56 L 3695.84,1497.3 L 3690.76,1481.65 L 3689.04,1465.28 L 3689.04,1406.22 L 3690.76,1389.85 L 3695.84,1374.19 L 3704.07,1359.94 L 3715.09,1347.71 L 3728.41,1338.03 L 3743.44,1331.33 L 3747.78,1330.41 L 3747.78,676.848 L 3349.19,278.268 L 2262.4,278.268 L 2262.4,306.693 L 2261.97,310.786 L 2260.7,314.7 L 2258.64,318.263 L 2255.89,321.322 L 2252.56,323.741 L 2248.8,325.414 L 2244.77,326.27 L 2242.72,326.378 L 2177.67,326.27 L 2173.64,325.414 L 2169.88,323.741 L 2166.55,321.322 L 2163.8,318.263 L 2161.74,314.7 L 2160.47,310.786 L 2160.04,306.693 z " style="fill-opacity:1.000000;fill:rgb(225,252,103);stroke:rgb(0,0,0);stroke-width:2"/></g>
<g fill-rule="evenodd"><path d="M 2429.13,3210.63 L 2429.13,3112.2 L 2429.56,3108.11 L 2430.84,3104.2 L 2432.89,3100.63 L 2435.65,3097.58 L 2438.98,3095.16 L 2442.74,3093.48 L 2446.76,3092.63 L 2448.82,3092.52 L 2511.81,3092.52 L 2513.87,3092.63 L 2517.89,3093.48 L 2521.65,3095.16 L 2524.98,3097.58 L 2527.74,3100.63 L 2529.79,3104.2 L 2531.07,3108.11 L 2531.5,3112.2 L 2531.5,3141.42 L 2606.3,3141.42 L 2606.3,3112.2 L 2606.73,3108.11 L 2608,3104.2 L 2610.06,3100.63 L 2612.81,3097.58 L 2616.14,3095.16 L 2619.9,3093.48 L 2623.93,3092.63 L 2625.98,3092.52 L 2688.98,3092.52 L 2691.03,3092.63 L 2695.06,3093.48 L 2696.49,3094.12 L 2747.78,3042.84 L 2747.78,2958.41 L 2743.44,2957.48 L 2728.41,2950.79 L 2715.09,2941.11 L 2704.07,2928.88 L 2695.84,2914.62 L 2690.76,2898.97 L 2689.04,2882.6 L 2689.04,2823.54 L 2690.76,2807.17 L 2695.84,2791.52 L 2704.07,2777.26 L 2715.09,2765.03 L 2728.41,2755.35 L 2743.44,2748.66 L 2759.55,2745.23 L 2776.01,2745.23 L 2792.11,2748.66 L 2807.15,2755.35 L 2820.46,2765.03 L 2831.48,2777.26 L 2839.71,2791.52 L 2844.8,2807.17 L 2846.52,2823.54 L 2846.52,2882.6 L 2844.8,2898.97 L 2839.71,2914.62 L 2831.48,2928.88 L 2820.46,2941.11 L 2807.15,2950.79 L 2792.11,2957.48 L 2787.77,2958.41 L 2787.78,3051.12 L 2787.39,3055.02 L 2786.25,3058.78 L 2784.4,3062.23 L 2781.92,3065.26 L 2708.66,3138.52 L 2708.66,3210.63 L 2708.23,3214.72 L 2706.96,3218.64 L 2704.9,3222.2 L 2702.15,3225.26 L 2698.82,3227.68 L 2695.06,3229.35 L 2691.03,3230.21 L 2625.98,3230.31 L 2623.93,3230.21 L 2619.9,3229.35 L 2616.14,3227.68 L 2612.81,3225.26 L 2610.06,3222.2 L 2608,3218.64 L 2606.73,3214.72 L 2606.3,3210.63 L 2606.3,3181.42 L 2531.5,3181.42 L 2531.5,3210.63 L 2531.07,3214.72 L 2529.79,3218.64 L 2527.74,3222.2 L 2524.98,3225.26 L 2521.65,3227.68 L 2517.89,3229.35 L 2513.87,3230.21 L 2511.81,3230.31 L 2448.82,3230.31 L 2446.76,3230.21 L 2442.74,3229.35 L 2438.98,3227.68 L 2435.65,3225.26 L 2432.89,3222.2 L 2430.84,3218.64 L 2429.56,3214.72 L 2429.13,3210.63 z " style="fill-opacity:1.000000;fill:rgb(62,1,126);stroke:rgb(0,0,0);stroke-width:2"/></g>
<g fill-rule="evenodd"><path d="M 2889.04,2882.6 L 2889.04,2823.54 L 2890.76,2807.17 L 2895.84,2791.52 L 2904.07,2777.26 L 2915.09,2765.03 L 2928.41,2755.35 L 2943.44,2748.66 L 2959.55,2745.23 L 2976.01,2745.23 L 2992.11,2748.66 L 3007.15,2755.35 L 3020.46,2765.03 L 3031.48,2777.26 L 3039.71,2791.52 L 3044.8,2807.17 L 3046.52,2823.54 L 3046.52,2882.6 L 3044.8,2898.97 L 3039.71,2914.62 L 3031.48,2928.88 L 3020.46,2941.11 L 3007.15,2950.79 L 2992.11,2957.48 L 2976.01,2960.91 L 2959.55,2960.91 L 2943.44,2957.48 L 2928.41,2950.79 L 2915.09,2941.11 L 2904.07,2928.88 L 2895.84,2914.62 L 2890.76,2898.97 L 2889.04,2882.6 z " style="fill-opacity:1.000000;fill:rgb(151,234,220);stroke:rgb(0,0,0);stroke-width:2"/></g>
<g fill-rule="evenodd"><path d="M 3728.35,3295.28 L 3729.21,3287.09 L 3731.75,3279.26 L 3735.87,3272.13 L 3741.37,3266.02 L 3748.03,3261.18 L 3755.55,3257.83 L 3763.6,3256.12 L 3771.83,3256.12 L 3779.88,3257.83 L 3787.4,3261.18 L 3794.06,3266.02 L 3799.57,3272.13 L 3803.68,3279.26 L 3806.23,3287.09 L 3807.09,3295.28 L 3806.23,3303.46 L 3803.68,3311.29 L 3799.57,3318.42 L 3794.06,3324.53 L 3787.4,3329.37 L 3779.88,3332.72 L 3771.83,3334.43 L 3763.6,3334.43 L 3755.55,3332.72 L 3748.03,3329.37 L 3741.37,3324.53 L 3735.87,3318.42 L 3731.75,3311.29 L 3729.21,3303.46 L 3728.35,3295.28 z " style="fill-opacity:1.000000;fill:rgb(107,150,143);stroke:rgb(0,0,0);stroke-width:2"/></g>
<g fill-rule="evenodd"><path d="M 3728.35,303.15 L 3729.21,294.964 L 3731.75,287.136 L 3735.87,280.008 L 3741.37,273.892 L 3748.03,269.054 L 3755.55,265.706 L 3763.6,263.995 L 3771.83,263.995 L 3779.88,265.706 L 3787.4,269.054 L 3794.06,273.892 L 3799.57,280.008 L 3803.68,287.136 L 3806.23,294.964 L 3807.09,303.15 L 3806.23,311.335 L 3803.68,319.163 L 3799.57,326.291 L 3794.06,332.407 L 3787.4,337.245 L 3779.88,340.593 L 3771.83,342.304 L 3763.6,342.304 L 3755.55,340.593 L 3748.03,337.245 L 3741.37,332.407 L 3735.87,326.291 L 3731.75,319.163 L 3729.21,311.335 L 3728.35,303.15 z " style="fill-opacity:1.000000;fill:rgb(56,92,42);stroke:rgb(0,0,0);stroke-width:2"/></g>
</svg>
