<?xml version="1.0" standalone="no"?>
<!DOCTYPE svg PUBLIC "-//W3C//DTD SVG 1.1//EN"
"http://www.w3.org/Graphics/SVG/1.1/DTD/svg11.dtd">
<svg width="195.402" height="172.724" viewBox="0 0 4070.87 3598.43" version="1.1"
xmlns="http://www.w3.org/2000/svg"
xmlns:xlink="http://www.w3.org/1999/xlink">
<g fill-rule="evenodd"><path d="M -2.13163e-13,3598.43 L -2.13163e-13,0 L 4070.87,0 L 4070.87,3598.43 L -2.13163e-13,3598.43 z " style="fill-opacity:0.200000;fill:rgb(103,198,105);"/></g>
<polyline points="35.4331,3531.5 36.0391,3537.64 37.8311,3543.55 40.7411,3548.99 44.6591,3553.77 49.4311,3557.68 54.8771,3560.59 60.7851,3562.39 66.9291,3562.99 4003.94,3562.99 4010.08,3562.39 4015.99,3560.59 4021.43,3557.68 4026.21,3553.77 4030.12,3548.99 4033.03,3543.55 4034.83,3537.64 4035.43,3531.5 4035.43,2507.87 4034.83,2501.73 4033.03,2495.82 4030.12,2490.38 4026.21,2485.6 4021.43,2481.69 4015.99,2478.78 4010.08,2476.98 4003.94,2476.38 3562.99,2476.38 3562.99,1830.71 4003.94,1830.71 4010.08,1830.11 4015.99,1828.31 4021.43,1825.4 4026.21,1821.49 4030.12,1816.71 4033.03,1811.27 4034.83,1805.36 4035.43,1799.21 4035.43,66.9301 4034.83,60.7861 4033.03,54.8781 4030.12,49.4321 4026.21,44.6601 4021.43,40.7421 4015.99,37.8321 4010.08,36.0401 4003.94,35.4341 66.9291,35.4341 60.7851,36.0401 54.8771,37.8321 49.4311,40.7421 44.6591,44.6601 40.7411,49.4321 37.8311,54.8781 36.0391,60.7861 35.4331,66.9301 35.4331,3531.5" style="stroke:rgb(103,198,105);stroke-width:62.992126;fill:none;stroke-opacity:0.5;stroke-linecap:round;stroke-linejoin:round;;fill:none"/>
<polyline points="35.4331,3531.5 36.0391,3537.64 37.8311,3543.55 40.7411,3548.99 44.6591,3553.77 49.4311,3557.68 54.8771,3560.59 60.7851,3562.39 66.9291,3562.99 4003.94,3562.99 4010.08,3562.39 4015.99,3560.59 4021.43,3557.68 4026.21,3553.77 4030.12,3548.99 4033.03,3543.55 4034.83,3537.64 4035.43,3531.5 4035.43,2507.87 4034.83,2501.73 4033.03,2495.82 4030.12,2490.38 4026.21,2485.6 4021.43,2481.69 4015.99,2478.78 4010.08,2476.98 4003.94,2476.38 3562.99,2476.38 3562.99,1830.71 4003.94,1830.71 4010.08,1830.11 4015.99,1828.31 4021.43,1825.4 4026.21,1821.49 4030.12,1816.71 4033.03,1811.27 4034.83,1805.36 4035.43,1799.21 4035.43,66.9301 4034.83,60.7861 4033.03,54.8781 4030.12,49.4321 4026.21,44.6601 4021.43,40.7421 4015.99,37.8321 4010.08,36.0401 4003.94,35.4341 66.9291,35.4341 60.7851,36.0401 54.8771,37.8321 49.4311,40.7421 44.6591,44.6601 40.7411,49.4321 37.8311,54.8781 36.0391,60.7861 35.4331,66.9301 35.4331,3531.5" style="stroke:rgb(0,0,0);stroke-width:1px;fill:none;stroke-opacity:1;stroke-linecap:round;stroke-linejoin:round;;fill:none"/>
<g fill-rule="evenodd"><path d="M 66.9291,3531.5 L 66.9291,66.9301 L 4003.94,66.9301 L 4003.94,1799.21 L 3531.5,1799.21 L 3531.5,2507.87 L 4003.94,2507.87 L 4003.94,3531.5 L 66.9291,3531.5 z " style="fill-opacity:1.000000;fill:rgb(103,198,105);stroke:rgb(0,0,0);stroke-width:2"/></g>
</svg>
