<?xml version="1.0" standalone="no"?>
<!DOCTYPE svg PUBLIC "-//W3C//DTD SVG 1.1//EN"
"http://www.w3.org/Graphics/SVG/1.1/DTD/svg11.dtd">
<svg width="197.669" height="174.992" viewBox="0 0 4118.11 3645.67" version="1.1"
xmlns="http://www.w3.org/2000/svg"
xmlns:xlink="http://www.w3.org/1999/xlink">
<polyline points="47.2415,3555.12 48.0735,3563.57 50.5375,3571.69 54.5395,3579.18 59.9255,3585.74 66.4875,3591.13 73.9755,3595.13 82.0995,3597.59 90.5495,3598.42 4027.56,3598.42 4036.01,3597.59 4044.13,3595.13 4051.62,3591.13 4058.18,3585.74 4063.57,3579.18 4067.57,3571.69 4070.03,3563.57 4070.86,3555.12 4070.86,2531.5 4070.03,2523.05 4067.57,2514.92 4063.57,2507.43 4058.18,2500.87 4051.62,2495.49 4044.13,2491.48 4036.01,2489.02 4027.56,2488.19 3598.42,2488.19 3598.42,1866.14 4027.56,1866.14 4036.01,1865.31 4044.13,1862.84 4051.62,1858.84 4058.18,1853.46 4063.57,1846.89 4067.57,1839.41 4070.03,1831.28 4070.86,1822.83 4070.86,90.5511 4070.03,82.1011 4067.57,73.9771 4063.57,66.4891 4058.18,59.9271 4051.62,54.5411 4044.13,50.5391 4036.01,48.0751 4027.56,47.2431 90.5495,47.2431 82.0995,48.0751 73.9755,50.5391 66.4875,54.5411 59.9255,59.9271 54.5395,66.4891 50.5375,73.9771 48.0735,82.1011 47.2415,90.5511 47.2415,3555.12" style="stroke:rgb(103,198,105);stroke-width:86.614173;fill:none;stroke-opacity:0.5;stroke-linecap:round;stroke-linejoin:round;;fill:none"/>
<polyline points="47.2415,3555.12 48.0735,3563.57 50.5375,3571.69 54.5395,3579.18 59.9255,3585.74 66.4875,3591.13 73.9755,3595.13 82.0995,3597.59 90.5495,3598.42 4027.56,3598.42 4036.01,3597.59 4044.13,3595.13 4051.62,3591.13 4058.18,3585.74 4063.57,3579.18 4067.57,3571.69 4070.03,3563.57 4070.86,3555.12 4070.86,2531.5 4070.03,2523.05 4067.57,2514.92 4063.57,2507.43 4058.18,2500.87 4051.62,2495.49 4044.13,2491.48 4036.01,2489.02 4027.56,2488.19 3598.42,2488.19 3598.42,1866.14 4027.56,1866.14 4036.01,1865.31 4044.13,1862.84 4051.62,1858.84 4058.18,1853.46 4063.57,1846.89 4067.57,1839.41 4070.03,1831.28 4070.86,1822.83 4070.86,90.5511 4070.03,82.1011 4067.57,73.9771 4063.57,66.4891 4058.18,59.9271 4051.62,54.5411 4044.13,50.5391 4036.01,48.0751 4027.56,47.2431 90.5495,47.2431 82.0995,48.0751 73.9755,50.5391 66.4875,54.5411 59.9255,59.9271 54.5395,66.4891 50.5375,73.9771 48.0735,82.1011 47.2415,90.5511 47.2415,3555.12" style="stroke:rgb(0,0,0);stroke-width:1px;fill:none;stroke-opacity:1;stroke-linecap:round;stroke-linejoin:round;;fill:none"/>
</svg>
