<?xml version="1.0" standalone="no"?>
<!DOCTYPE svg PUBLIC "-//W3C//DTD SVG 1.1//EN"
"http://www.w3.org/Graphics/SVG/1.1/DTD/svg11.dtd">
<svg width="197.669" height="174.992" viewBox="0 0 4118.11 3645.67" version="1.1"
xmlns="http://www.w3.org/2000/svg"
xmlns:xlink="http://www.w3.org/1999/xlink">
<g fill-rule="evenodd"><path d="M 110.589,3520.16 L 110.589,125.511 L 112.067,119.037 L 116.207,113.845 L 122.191,110.963 L 125.511,110.589 L 3992.6,110.589 L 3999.07,112.067 L 4004.26,116.207 L 4007.15,122.191 L 4007.52,125.511 L 4007.52,1414.21 L 4006.04,1420.69 L 4001.9,1425.88 L 3995.92,1428.76 L 3992.6,1429.13 L 3914.37,1429.13 L 3907.89,1427.66 L 3902.7,1423.52 L 3899.82,1417.53 L 3896.44,1400.1 L 3889.9,1382.77 L 3880.53,1366.8 L 3868.59,1352.65 L 3854.44,1340.71 L 3848.81,1337.4 L 3843.97,1332.85 L 3841.59,1326.66 L 3841.61,696.931 L 3841.21,684.293 L 3840.25,679.641 L 3837.69,672.153 L 3835.6,667.885 L 3831.25,661.271 L 3828.16,657.657 L 3824.86,654.883 L 3419.96,249.739 L 3410.75,241.083 L 3406.78,238.475 L 3399.67,234.993 L 3395.17,233.455 L 3387.42,231.849 L 3382.69,231.477 L 3378.39,231.849 L 2329.31,231.849 L 2322.84,230.371 L 2317.64,226.231 L 2314.98,221.091 L 2312.34,211.983 L 2305.94,201.171 L 2297.06,192.287 L 2286.24,185.891 L 2274.18,182.387 L 2271.36,182.165 L 2198.32,182.165 L 2195.51,182.387 L 2183.44,185.891 L 2172.63,192.287 L 2163.74,201.171 L 2157.35,211.983 L 2153.84,224.049 L 2153.62,226.867 L 2153.62,335.335 L 2153.84,338.155 L 2157.35,350.219 L 2163.74,361.033 L 2172.63,369.917 L 2183.44,376.311 L 2195.51,379.817 L 2198.32,380.039 L 2271.36,380.039 L 2274.18,379.817 L 2286.24,376.311 L 2297.06,369.917 L 2305.94,361.033 L 2312.34,350.219 L 2314.52,342.687 L 2317.75,336.881 L 2323.17,333.051 L 2328.85,331.929 L 3354.19,331.929 L 3360.67,333.405 L 3364.75,336.299 L 3736.99,708.541 L 3740.52,714.163 L 3741.36,719.091 L 3741.36,1324.54 L 3739.88,1331.01 L 3735.74,1336.2 L 3728.36,1340.71 L 3714.2,1352.65 L 3702.8,1366.16 L 3697.5,1370.16 L 3690.99,1371.46 L 3684.56,1369.81 L 3679.99,1366.16 L 3668.59,1352.65 L 3654.44,1340.71 L 3648.81,1337.4 L 3643.97,1332.85 L 3641.59,1326.66 L 3641.61,759.135 L 3641.21,746.499 L 3640.25,741.845 L 3637.69,734.357 L 3635.6,730.091 L 3631.25,723.475 L 3628.16,719.861 L 3624.86,717.089 L 3393.98,485.959 L 3384.76,477.305 L 3380.79,474.695 L 3373.68,471.213 L 3369.19,469.675 L 3361.44,468.069 L 3356.7,467.697 L 3352.41,468.069 L 2329.31,468.069 L 2322.84,466.593 L 2317.64,462.451 L 2314.98,457.311 L 2312.34,448.205 L 2305.94,437.391 L 2297.06,428.507 L 2286.24,422.111 L 2274.18,418.607 L 2271.36,418.385 L 2198.32,418.385 L 2195.51,418.607 L 2183.44,422.111 L 2172.63,428.507 L 2163.74,437.391 L 2157.35,448.205 L 2153.84,460.269 L 2153.62,463.087 L 2153.62,571.555 L 2153.84,574.375 L 2157.35,586.439 L 2163.74,597.253 L 2172.63,606.137 L 2183.44,612.531 L 2195.51,616.037 L 2198.32,616.259 L 2271.36,616.259 L 2274.18,616.037 L 2286.24,612.531 L 2297.06,606.137 L 2305.94,597.253 L 2312.34,586.439 L 2314.52,578.907 L 2317.75,573.103 L 2323.17,569.271 L 2328.85,568.149 L 3328.21,568.149 L 3334.68,569.627 L 3338.76,572.519 L 3536.99,770.745 L 3540.52,776.369 L 3541.36,781.297 L 3541.36,1324.54 L 3539.88,1331.01 L 3535.74,1336.2 L 3528.36,1340.71 L 3514.2,1352.65 L 3502.8,1366.16 L 3497.5,1370.16 L 3490.99,1371.46 L 3484.56,1369.81 L 3479.99,1366.16 L 3468.59,1352.65 L 3454.44,1340.71 L 3448.81,1337.4 L 3443.97,1332.85 L 3441.59,1326.66 L 3441.61,912.679 L 3441.21,900.041 L 3440.25,895.389 L 3437.69,887.901 L 3435.6,883.633 L 3431.25,877.019 L 3428.16,873.405 L 3424.86,870.631 L 3270.95,716.721 L 3267.44,713.525 L 3263.47,710.917 L 3256.36,707.435 L 3251.87,705.895 L 3244.12,704.291 L 3239.38,703.917 L 3235.08,704.291 L 2329.31,704.291 L 2322.84,702.813 L 2317.64,698.673 L 2314.98,693.533 L 2312.34,684.425 L 2305.94,673.611 L 2297.06,664.727 L 2286.24,658.333 L 2274.18,654.827 L 2271.36,654.605 L 2198.32,654.605 L 2195.51,654.827 L 2183.44,658.333 L 2172.63,664.727 L 2163.74,673.611 L 2157.35,684.425 L 2153.84,696.489 L 2153.62,699.309 L 2153.62,807.777 L 2153.84,810.595 L 2157.35,822.659 L 2163.74,833.473 L 2172.63,842.357 L 2183.44,848.753 L 2195.51,852.257 L 2198.32,852.479 L 2271.36,852.479 L 2274.18,852.257 L 2286.24,848.753 L 2297.06,842.357 L 2305.94,833.473 L 2312.34,822.659 L 2314.52,815.127 L 2317.75,809.323 L 2323.17,805.491 L 2328.85,804.369 L 3210.89,804.369 L 3217.36,805.847 L 3221.44,808.739 L 3336.99,924.289 L 3340.52,929.911 L 3341.36,934.839 L 3341.36,1324.54 L 3339.88,1331.01 L 3335.74,1336.2 L 3328.36,1340.71 L 3314.2,1352.65 L 3302.8,1366.16 L 3297.5,1370.16 L 3290.99,1371.46 L 3284.56,1369.81 L 3279.99,1366.16 L 3268.59,1352.65 L 3254.44,1340.71 L 3248.81,1337.4 L 3243.97,1332.85 L 3241.59,1326.66 L 3241.44,1118.17 L 3241.21,1113.43 L 3240.25,1108.78 L 3237.69,1101.29 L 3235.6,1097.02 L 3231.25,1090.41 L 3228.16,1086.79 L 3224.86,1084.02 L 3093.79,952.941 L 3090.28,949.745 L 3086.3,947.137 L 3079.2,943.655 L 3074.7,942.115 L 3066.95,940.511 L 3062.21,940.137 L 3057.92,940.511 L 2329.31,940.511 L 2322.84,939.033 L 2317.64,934.893 L 2314.98,929.753 L 2312.34,920.645 L 2305.94,909.831 L 2297.06,900.947 L 2286.24,894.553 L 2274.18,891.047 L 2271.36,890.825 L 2198.32,890.825 L 2195.51,891.047 L 2183.44,894.553 L 2172.63,900.947 L 2163.74,909.831 L 2157.35,920.645 L 2153.84,932.709 L 2153.62,935.529 L 2153.62,1044 L 2153.84,1046.82 L 2157.35,1058.88 L 2163.74,1069.69 L 2172.63,1078.58 L 2183.44,1084.97 L 2195.51,1088.48 L 2198.32,1088.7 L 2271.36,1088.7 L 2274.18,1088.48 L 2286.24,1084.97 L 2297.06,1078.58 L 2305.94,1069.69 L 2312.34,1058.88 L 2314.52,1051.35 L 2317.75,1045.54 L 2323.17,1041.71 L 2328.85,1040.59 L 3033.72,1040.59 L 3040.2,1042.07 L 3044.27,1044.96 L 3136.99,1137.68 L 3140.52,1143.3 L 3141.36,1148.23 L 3141.36,1324.54 L 3139.88,1331.01 L 3135.74,1336.2 L 3128.36,1340.71 L 3114.2,1352.65 L 3102.8,1366.16 L 3097.5,1370.16 L 3090.99,1371.46 L 3084.56,1369.81 L 3079.99,1366.16 L 3068.59,1352.65 L 3054.44,1340.71 L 3038.47,1331.34 L 3021.14,1324.8 L 3002.96,1321.28 L 2983.99,1321.06 L 2979.83,1321.28 L 2961.65,1324.8 L 2954.35,1327.55 L 2947.77,1328.46 L 2941.45,1326.42 L 2938.53,1324.15 L 2779.93,1165.54 L 2776.42,1162.34 L 2772.44,1159.74 L 2765.34,1156.25 L 2760.84,1154.71 L 2753.09,1153.11 L 2748.35,1152.74 L 2744.06,1153.11 L 1839.39,1152.94 L 1826.76,1153.33 L 1822.1,1154.3 L 1814.61,1156.86 L 1810.35,1158.95 L 1803.73,1163.3 L 1800.12,1166.38 L 1797.34,1169.68 L 1597.82,1369.21 L 1592.19,1372.75 L 1587.27,1373.58 L 1392.71,1373.58 L 1386.24,1372.1 L 1381.05,1367.96 L 1377,1361.41 L 1368.12,1352.52 L 1357.31,1346.13 L 1345.24,1342.62 L 1342.42,1342.4 L 1233.95,1342.4 L 1231.14,1342.62 L 1219.07,1346.13 L 1208.26,1352.52 L 1199.37,1361.41 L 1196.51,1366.26 L 1191.94,1371.08 L 1185.73,1373.44 L 1144.23,1373.58 L 1137.76,1372.1 L 1133.68,1369.21 L 1031.51,1267.04 L 1027.98,1261.42 L 1027.23,1254.82 L 1029.19,1248.85 L 1030.04,1243.01 L 1030.04,1111.32 L 1029.19,1105.48 L 1024.79,1096.48 L 1017.7,1089.39 L 1008.69,1084.98 L 1002.85,1084.13 L 942.029,1084.13 L 936.191,1084.98 L 928.947,1088.53 L 922.483,1090.04 L 916.001,1088.6 L 908.677,1085.02 L 902.847,1084.17 L 897.44,1084.17 L 897.44,1114.17 L 900,1114.17 L 900,1240.16 L 844.882,1240.16 L 844.882,1114.17 L 847.439,1114.17 L 847.439,1084.17 L 842.033,1084.17 L 839.551,1084.53 L 832.931,1084.01 L 827.197,1080.66 L 823.483,1075.15 L 822.479,1069.77 L 822.479,953.679 L 823.957,947.205 L 826.849,943.127 L 850.213,919.763 L 855.837,916.229 L 860.765,915.393 L 1106.16,915.393 L 1112.64,916.871 L 1116.71,919.763 L 1233.78,1036.83 L 1237.31,1042.45 L 1238.15,1047.38 L 1238.15,1085.29 L 1236.67,1091.76 L 1232.53,1096.95 L 1227.39,1099.62 L 1219.07,1102.03 L 1208.26,1108.43 L 1199.37,1117.31 L 1192.98,1128.13 L 1189.47,1140.19 L 1189.25,1143.01 L 1189.25,1216.04 L 1189.47,1218.86 L 1192.98,1230.93 L 1199.37,1241.74 L 1208.26,1250.63 L 1219.07,1257.02 L 1231.14,1260.53 L 1233.95,1260.75 L 1342.42,1260.75 L 1345.24,1260.53 L 1357.31,1257.02 L 1368.12,1250.63 L 1377,1241.74 L 1383.4,1230.93 L 1386.9,1218.86 L 1387.13,1216.04 L 1387.13,1143.01 L 1386.9,1140.19 L 1383.4,1128.13 L 1377,1117.31 L 1368.12,1108.43 L 1357.31,1102.03 L 1348.99,1099.62 L 1343.18,1096.39 L 1339.35,1090.97 L 1338.23,1085.29 L 1338.4,1025.22 L 1338,1012.58 L 1337.04,1007.93 L 1334.48,1000.44 L 1332.39,996.173 L 1328.04,989.559 L 1324.96,985.945 L 1321.65,983.171 L 1171.93,833.203 L 1162.72,824.549 L 1158.74,821.939 L 1151.64,818.457 L 1147.14,816.919 L 1139.39,815.313 L 1134.65,814.941 L 1130.36,815.313 L 838.603,815.139 L 825.967,815.537 L 821.313,816.501 L 813.825,819.065 L 809.559,821.155 L 802.943,825.499 L 799.331,828.587 L 796.557,831.887 L 782.991,845.453 L 777.367,848.987 L 770.769,849.729 L 764.501,847.537 L 761.889,845.453 L 744.645,828.209 L 741.111,822.587 L 740.275,817.659 L 740.275,742.813 L 740.053,739.993 L 736.547,727.929 L 730.151,717.115 L 721.269,708.231 L 710.455,701.837 L 698.391,698.331 L 695.571,698.109 L 583.167,698.109 L 580.347,698.331 L 568.283,701.837 L 557.469,708.231 L 548.585,717.115 L 542.191,727.929 L 538.685,739.993 L 538.463,742.813 L 538.463,804.273 L 536.985,810.747 L 534.093,814.823 L 464.471,884.445 L 457.597,890.003 L 454.823,893.305 L 378.873,969.011 L 370.217,978.227 L 367.609,982.199 L 364.127,989.305 L 362.587,993.801 L 360.983,1001.55 L 360.609,1006.29 L 360.983,1010.59 L 360.809,1686.59 L 361.205,1699.23 L 362.169,1703.88 L 364.733,1711.37 L 366.823,1715.64 L 371.169,1722.25 L 374.255,1725.86 L 377.557,1728.64 L 491.057,1842.39 L 500.273,1851.04 L 504.245,1853.65 L 511.353,1857.13 L 515.849,1858.67 L 523.599,1860.28 L 528.335,1860.65 L 532.631,1860.28 L 568.701,1860.28 L 575.175,1861.75 L 580.367,1865.89 L 584.411,1872.45 L 593.295,1881.33 L 604.109,1887.73 L 616.173,1891.23 L 618.993,1891.46 L 727.461,1891.46 L 730.279,1891.23 L 742.345,1887.73 L 753.159,1881.33 L 762.041,1872.45 L 765.841,1866.03 L 770.409,1861.21 L 776.615,1858.84 L 783.711,1858.7 L 790.185,1860.18 L 795.377,1864.32 L 798.041,1869.46 L 800.457,1877.78 L 806.853,1888.59 L 815.737,1897.48 L 826.551,1903.87 L 838.615,1907.38 L 841.433,1907.6 L 914.469,1907.6 L 917.287,1907.38 L 929.353,1903.87 L 940.165,1897.48 L 949.049,1888.59 L 955.445,1877.78 L 958.949,1865.71 L 959.171,1862.9 L 959.171,1754.43 L 958.949,1751.61 L 955.445,1739.54 L 949.049,1728.73 L 940.165,1719.85 L 929.353,1713.45 L 917.287,1709.95 L 914.469,1709.72 L 841.433,1709.72 L 838.615,1709.95 L 826.551,1713.45 L 815.737,1719.85 L 806.853,1728.73 L 800.457,1739.54 L 798.041,1747.86 L 794.815,1753.67 L 789.391,1757.5 L 783.711,1758.62 L 776.821,1758.62 L 770.347,1757.14 L 765.155,1753 L 762.041,1748.02 L 753.159,1739.14 L 742.345,1732.74 L 730.279,1729.24 L 727.461,1729.02 L 618.993,1729.02 L 616.173,1729.24 L 604.109,1732.74 L 593.295,1739.14 L 584.411,1748.02 L 581.543,1752.87 L 576.977,1757.69 L 570.769,1760.05 L 556.827,1760.2 L 550.353,1758.72 L 546.277,1755.83 L 465.431,1674.98 L 461.899,1669.36 L 461.061,1664.43 L 461.061,1034.78 L 462.539,1028.31 L 465.431,1024.23 L 520.565,969.095 L 527.439,963.537 L 530.213,960.235 L 622.125,868.323 L 627.747,864.791 L 634.347,864.047 L 640.615,866.241 L 643.227,868.323 L 718.029,943.127 L 721.563,948.749 L 722.399,953.679 L 722.401,1069.73 L 720.923,1076.2 L 716.783,1081.4 L 710.799,1084.28 L 705.327,1084.49 L 702.849,1084.13 L 642.029,1084.13 L 636.191,1084.98 L 627.183,1089.39 L 620.095,1096.48 L 615.691,1105.48 L 614.841,1111.32 L 614.841,1243.01 L 615.691,1248.85 L 620.411,1258.3 L 622.969,1264.42 L 623.187,1266.97 L 623.187,1471.9 L 621.709,1478.38 L 617.569,1483.57 L 612.429,1486.23 L 604.109,1488.65 L 593.295,1495.04 L 584.411,1503.93 L 578.017,1514.74 L 574.511,1526.81 L 574.289,1529.62 L 574.289,1602.66 L 574.511,1605.48 L 578.017,1617.54 L 584.411,1628.36 L 593.295,1637.24 L 604.109,1643.64 L 616.173,1647.14 L 618.993,1647.36 L 727.461,1647.36 L 730.279,1647.14 L 742.345,1643.64 L 753.159,1637.24 L 762.041,1628.36 L 764.909,1623.51 L 769.477,1618.69 L 775.683,1616.33 L 777.753,1616.18 L 1590.53,1616.35 L 1603.17,1615.96 L 1607.82,1614.99 L 1615.31,1612.43 L 1619.57,1610.34 L 1626.19,1605.99 L 1629.8,1602.91 L 1632.58,1599.61 L 1876.99,1355.2 L 1882.61,1351.66 L 1887.54,1350.83 L 2485.58,1350.83 L 2492.06,1352.3 L 2497.25,1356.44 L 2500.13,1362.43 L 2500.13,1369.07 L 2498.45,1373.3 L 2492.89,1382.77 L 2486.51,1399.68 L 2482.84,1405.21 L 2477.14,1408.61 L 2472.55,1409.33 L 2050.08,1409.33 L 2045.34,1409.55 L 2040.68,1410.52 L 2033.2,1413.08 L 2028.93,1415.17 L 2022.31,1419.52 L 2018.7,1422.6 L 2015.93,1425.9 L 1842.65,1598.93 L 1834,1608.15 L 1831.39,1612.12 L 1827.91,1619.23 L 1826.37,1623.72 L 1824.76,1631.47 L 1824.39,1636.21 L 1824.76,1640.51 L 1824.76,1716.85 L 1823.29,1723.32 L 1819.15,1728.51 L 1817.74,1729.54 L 1810.65,1736.63 L 1806.24,1745.64 L 1805.39,1751.48 L 1805.39,1938.28 L 1806.24,1944.12 L 1810.65,1953.13 L 1817.74,1960.22 L 1826.74,1964.62 L 1832.58,1965.47 L 1917.02,1965.47 L 1922.86,1964.62 L 1931.87,1960.22 L 1938.96,1953.13 L 1943.36,1944.12 L 1944.21,1938.28 L 1944.21,1751.48 L 1943.36,1745.64 L 1938.96,1736.63 L 1931.09,1728.99 L 1926.68,1724.03 L 1924.86,1717.64 L 1924.84,1664.7 L 1926.32,1658.23 L 1929.21,1654.15 L 2069.58,1513.78 L 2075.21,1510.25 L 2080.14,1509.41 L 2319.72,1509.41 L 2326.2,1510.89 L 2331.39,1515.03 L 2334.27,1521.01 L 2334.65,1524.33 L 2334.65,1731.75 L 2333.17,1738.22 L 2330.27,1742.3 L 2268.49,1804.08 L 2265.6,1806.43 L 2262.16,1810.41 L 2256.05,1817.89 L 2249.94,1830.52 L 2246.89,1844.25 L 2247.05,1943.75 L 2245.57,1950.23 L 2242.68,1954.3 L 2179.5,2017.48 L 2173.88,2021.01 L 2168.95,2021.85 L 1936.96,2021.85 L 1933.25,2021.47 L 1918.39,2022.82 L 1904.37,2027.87 L 1892.64,2035.58 L 1836.21,2092.27 L 1833.32,2094.61 L 1823.77,2106.08 L 1817.65,2118.73 L 1814.61,2132.42 L 1814.76,2175.16 L 1813.29,2181.63 L 1810.65,2185.45 L 1806.24,2194.46 L 1805.39,2200.3 L 1805.39,2218.74 L 1803.92,2225.21 L 1799.78,2230.41 L 1793.79,2233.29 L 1790.47,2233.66 L 1745.6,2233.66 L 1739.12,2232.18 L 1735.04,2229.29 L 1725.99,2220.24 L 1715.18,2213.84 L 1703.12,2210.34 L 1700.3,2210.12 L 1587.89,2210.12 L 1585.07,2210.34 L 1573.01,2213.85 L 1562.19,2220.24 L 1553.31,2229.12 L 1546.92,2239.94 L 1543.41,2252 L 1543.19,2254.82 L 1543.19,2329.82 L 1543.41,2332.64 L 1546.92,2344.71 L 1553.31,2355.52 L 1562.19,2364.41 L 1573.01,2370.8 L 1585.07,2374.31 L 1587.89,2374.53 L 1700.3,2374.53 L 1703.12,2374.31 L 1715.18,2370.8 L 1725.99,2364.41 L 1732.29,2358.11 L 1737.91,2354.58 L 1742.84,2353.74 L 1790.47,2353.74 L 1796.95,2355.22 L 1802.14,2359.36 L 1805.02,2365.34 L 1805.39,2368.66 L 1805.39,2387.1 L 1806.24,2392.94 L 1810.65,2401.95 L 1817.74,2409.04 L 1826.74,2413.44 L 1832.58,2414.29 L 1917.02,2414.29 L 1922.86,2413.44 L 1931.87,2409.04 L 1938.96,2401.95 L 1943.36,2392.94 L 1944.21,2387.1 L 1944.21,2200.3 L 1943.36,2194.46 L 1938.96,2185.45 L 1935.68,2180.08 L 1934.84,2175.16 L 1934.84,2169.63 L 1936.32,2163.16 L 1939.21,2159.08 L 1951.99,2146.3 L 1957.62,2142.77 L 1962.55,2141.93 L 2194.54,2141.93 L 2198.24,2142.31 L 2213.11,2140.96 L 2226.33,2136.31 L 2238.22,2128.8 L 2309.17,2057.62 L 2314.8,2054.09 L 2321.39,2053.35 L 2327.66,2055.54 L 2332.36,2060.24 L 2334.55,2066.5 L 2334.65,2068.18 L 2334.65,2471.46 L 2333.17,2477.93 L 2329.03,2483.12 L 2323.04,2486 L 2319.72,2486.38 L 1479.13,2486.38 L 1472.66,2484.9 L 1467.47,2480.76 L 1464.59,2474.78 L 1464.21,2471.46 L 1464.39,2105.53 L 1463.99,2092.9 L 1463.03,2088.24 L 1460.46,2080.76 L 1458.37,2076.49 L 1454.03,2069.87 L 1450.94,2066.26 L 1447.64,2063.49 L 1207.64,1823.49 L 1204.1,1817.86 L 1203.27,1812.93 L 1203.27,1754.43 L 1203.05,1751.61 L 1199.54,1739.54 L 1193.15,1728.73 L 1184.26,1719.85 L 1173.45,1713.45 L 1161.38,1709.95 L 1158.56,1709.72 L 1085.53,1709.72 L 1082.71,1709.95 L 1070.65,1713.45 L 1059.83,1719.85 L 1050.95,1728.73 L 1044.55,1739.54 L 1041.05,1751.61 L 1040.83,1754.43 L 1040.83,1862.9 L 1041.05,1865.71 L 1044.55,1877.78 L 1050.95,1888.59 L 1059.83,1897.48 L 1070.65,1903.87 L 1082.71,1907.38 L 1085.53,1907.6 L 1144.04,1907.6 L 1150.51,1909.08 L 1154.59,1911.97 L 1359.76,2117.14 L 1363.3,2122.77 L 1364.13,2127.69 L 1364.13,2471.46 L 1362.66,2477.93 L 1358.52,2483.12 L 1352.53,2486 L 1349.21,2486.38 L 1303.93,2486.38 L 1297.45,2484.9 L 1292.26,2480.76 L 1287.63,2473.22 L 1278.75,2464.33 L 1267.94,2457.94 L 1255.87,2454.43 L 1253.05,2454.21 L 1140.65,2454.21 L 1137.83,2454.43 L 1125.76,2457.94 L 1114.95,2464.33 L 1106.07,2473.22 L 1101.1,2481.61 L 1096.54,2486.43 L 1090.33,2488.79 L 1010.98,2488.94 L 1004.51,2487.46 L 999.317,2483.32 L 996.435,2477.34 L 996.061,2474.02 L 996.061,2374.02 L 366.141,2374.02 L 366.141,3003.94 L 996.061,3003.94 L 996.062,2868.98 L 955.906,2868.98 L 955.906,2870.47 L 814.173,2870.47 L 814.173,2807.48 L 955.906,2807.48 L 955.906,2808.97 L 996.062,2808.98 L 996.061,2803.94 L 997.539,2797.46 L 1001.68,2792.27 L 1007.66,2789.39 L 1010.98,2789.02 L 1091.63,2789.02 L 1098.1,2790.49 L 1103.29,2794.63 L 1108.04,2802.37 L 1116.92,2811.26 L 1127.73,2817.65 L 1139.8,2821.16 L 1142.62,2821.38 L 1251.08,2821.38 L 1253.9,2821.16 L 1265.97,2817.65 L 1276.78,2811.26 L 1285.66,2802.37 L 1288.53,2797.52 L 1293.1,2792.7 L 1299.31,2790.34 L 1301.38,2790.2 L 1906.16,2790.2 L 1912.64,2791.67 L 1916.71,2794.57 L 2030.74,2908.84 L 2039.96,2917.5 L 2043.93,2920.11 L 2051.04,2923.59 L 2055.53,2925.13 L 2063.28,2926.73 L 2068.02,2927.11 L 2072.32,2926.73 L 2472.55,2926.73 L 2479.03,2928.21 L 2484.22,2932.35 L 2486.51,2936.39 L 2492.89,2953.29 L 2502.26,2969.26 L 2514.2,2983.42 L 2528.36,2995.35 L 2544.33,3004.72 L 2561.65,3011.26 L 2579.83,3014.78 L 2583.99,3015 L 2602.96,3014.78 L 2621.14,3011.26 L 2638.47,3004.72 L 2654.44,2995.35 L 2668.59,2983.42 L 2679.99,2969.9 L 2685.29,2965.9 L 2691.8,2964.6 L 2698.24,2966.26 L 2702.8,2969.9 L 2714.2,2983.42 L 2728.36,2995.35 L 2733.99,2998.66 L 2738.82,3003.21 L 2741.21,3009.41 L 2741.36,3011.53 L 2741.36,3047.84 L 2739.88,3054.31 L 2736.99,3058.39 L 2713.64,3081.73 L 2708.02,3085.26 L 2703.09,3086.1 L 2644.58,3086.1 L 2641.77,3086.32 L 2629.7,3089.83 L 2618.89,3096.22 L 2610,3105.11 L 2605.36,3112.96 L 2600.8,3117.78 L 2594.59,3120.14 L 2587.97,3119.57 L 2582.26,3116.19 L 2579.68,3112.96 L 2575.03,3105.11 L 2566.15,3096.22 L 2555.34,3089.83 L 2543.27,3086.32 L 2540.45,3086.1 L 2467.42,3086.1 L 2464.6,3086.32 L 2452.54,3089.83 L 2441.72,3096.22 L 2432.84,3105.11 L 2426.44,3115.92 L 2422.94,3127.99 L 2422.72,3130.81 L 2422.72,3239.27 L 2422.94,3242.09 L 2426.44,3254.14 L 2432.84,3264.97 L 2441.72,3273.85 L 2452.54,3280.25 L 2461.71,3282.92 L 2467.52,3286.14 L 2471.35,3291.56 L 2472.44,3298.11 L 2470.59,3304.49 L 2466.16,3309.43 L 2460.01,3311.96 L 2457.55,3312.17 L 2306.09,3312.17 L 2299.61,3310.69 L 2294.42,3306.55 L 2291.54,3300.56 L 2291.54,3293.92 L 2294.42,3287.94 L 2299.61,3283.8 L 2311.23,3280.21 L 2322.03,3273.82 L 2330.91,3264.95 L 2337.3,3254.14 L 2340.8,3242.09 L 2341.02,3239.27 L 2341.02,3205.04 L 2311.02,3205.04 L 2311.02,3234.25 L 2310.59,3238.34 L 2309.32,3242.26 L 2307.26,3245.82 L 2304.51,3248.88 L 2301.18,3251.3 L 2297.42,3252.97 L 2293.4,3253.83 L 2291.34,3253.94 L 2228.35,3253.94 L 2226.29,3253.83 L 2222.26,3252.97 L 2218.5,3251.3 L 2215.17,3248.88 L 2212.42,3245.82 L 2210.36,3242.26 L 2209.09,3238.34 L 2208.66,3234.25 L 2208.66,3205.04 L 2178.66,3205.04 L 2178.66,3239.27 L 2178.88,3242.09 L 2182.38,3254.14 L 2188.78,3264.95 L 2197.65,3273.82 L 2208.46,3280.21 L 2217.76,3282.92 L 2223.56,3286.14 L 2227.39,3291.56 L 2228.49,3298.11 L 2226.64,3304.49 L 2222.2,3309.43 L 2216.06,3311.96 L 2156.83,3312.17 L 2150.35,3310.69 L 2146.28,3307.79 L 2030.79,3192.3 L 2027.25,3186.68 L 2026.42,3181.75 L 2026.59,3099.23 L 2026.19,3086.6 L 2025.23,3081.94 L 2022.67,3074.46 L 2020.58,3070.19 L 2016.23,3063.57 L 2013.14,3059.96 L 2009.84,3057.19 L 1899.3,2946.64 L 1895.79,2943.45 L 1891.82,2940.84 L 1884.71,2937.36 L 1880.21,2935.82 L 1872.46,2934.21 L 1867.73,2933.84 L 1863.43,2934.21 L 1301.38,2934.21 L 1294.9,2932.73 L 1289.71,2928.59 L 1285.66,2922.04 L 1276.78,2913.15 L 1265.97,2906.76 L 1253.9,2903.25 L 1251.08,2903.03 L 1142.62,2903.03 L 1139.8,2903.25 L 1127.73,2906.76 L 1116.92,2913.15 L 1108.03,2922.04 L 1101.64,2932.85 L 1098.13,2944.92 L 1097.91,2947.73 L 1097.91,3020.77 L 1098.13,3023.59 L 1101.64,3035.65 L 1108.04,3046.47 L 1116.92,3055.35 L 1127.73,3061.75 L 1139.8,3065.25 L 1142.62,3065.47 L 1251.08,3065.47 L 1253.9,3065.25 L 1265.97,3061.75 L 1276.78,3055.35 L 1285.66,3046.47 L 1288.53,3041.62 L 1293.1,3036.8 L 1299.31,3034.44 L 1301.38,3034.29 L 1839.23,3034.29 L 1845.71,3035.77 L 1849.78,3038.66 L 1921.97,3110.84 L 1925.5,3116.47 L 1926.34,3121.4 L 1926.16,3203.91 L 1926.56,3216.55 L 1927.52,3221.2 L 1930.09,3228.69 L 1932.18,3232.96 L 1936.52,3239.57 L 1939.61,3243.19 L 1942.91,3245.96 L 2091.06,3394.35 L 2100.27,3403.01 L 2104.25,3405.62 L 2111.35,3409.1 L 2115.85,3410.64 L 2123.6,3412.24 L 2128.34,3412.62 L 2132.63,3412.24 L 2743.28,3412.42 L 2755.92,3412.02 L 2760.57,3411.06 L 2768.06,3408.49 L 2772.33,3406.4 L 2778.94,3402.06 L 2782.56,3398.97 L 2785.33,3395.67 L 2892.66,3288.35 L 2898.28,3284.81 L 2903.21,3283.98 L 2961.71,3283.98 L 2964.53,3283.75 L 2976.6,3280.25 L 2987.41,3273.85 L 2996.29,3264.97 L 3003.17,3253.35 L 3006.65,3248.72 L 3012.51,3245.6 L 3016.42,3245.08 L 3285.88,3245.08 L 3289.58,3245.46 L 3303.56,3244.24 L 3305.28,3243.86 L 3317.67,3239.46 L 3329.54,3231.96 L 3429.99,3131.3 L 3432.88,3128.95 L 3441.9,3118.2 L 3442.85,3116.71 L 3448.5,3104.84 L 3451.59,3091.14 L 3451.44,3004.82 L 3452.91,2998.35 L 3456.74,2993.41 L 3468.59,2983.42 L 3480.02,2969.87 L 3485.32,2965.87 L 3491.83,2964.57 L 3498.26,2966.23 L 3502.83,2969.87 L 3514.23,2983.39 L 3528.38,2995.32 L 3544.34,3004.69 L 3551.4,3007.35 L 3551.4,2973.95 L 3538.71,2964.74 L 3527.7,2952.5 L 3519.46,2938.25 L 3514.38,2922.59 L 3512.66,2906.22 L 3512.66,2847.17 L 3514.38,2830.79 L 3519.46,2815.14 L 3527.7,2800.88 L 3538.71,2788.65 L 3552.03,2778.97 L 3567.07,2772.28 L 3583.17,2768.86 L 3599.63,2768.86 L 3615.73,2772.28 L 3630.77,2778.97 L 3644.09,2788.65 L 3655.1,2800.88 L 3663.33,2815.14 L 3668.42,2830.79 L 3670.14,2847.17 L 3670.14,2906.22 L 3668.42,2922.59 L 3663.33,2938.25 L 3655.1,2952.5 L 3644.09,2964.74 L 3631.4,2973.95 L 3631.4,3007.35 L 3638.45,3004.69 L 3654.41,2995.32 L 3668.57,2983.39 L 3679.96,2969.87 L 3685.27,2965.87 L 3691.78,2964.57 L 3698.21,2966.23 L 3702.78,2969.87 L 3714.2,2983.42 L 3728.36,2995.35 L 3744.33,3004.72 L 3761.65,3011.26 L 3779.83,3014.78 L 3783.99,3015 L 3802.96,3014.78 L 3821.14,3011.26 L 3838.47,3004.72 L 3854.44,2995.35 L 3868.59,2983.42 L 3880.53,2969.26 L 3889.9,2953.29 L 3896.44,2935.97 L 3899.96,2917.79 L 3900.18,2900.75 L 3901.65,2894.27 L 3905.79,2889.08 L 3911.78,2886.2 L 3915.1,2885.83 L 3992.6,2885.83 L 3999.07,2887.3 L 4004.26,2891.44 L 4007.15,2897.43 L 4007.52,2900.75 L 4007.52,3520.16 L 4006.04,3526.63 L 4001.9,3531.82 L 3995.92,3534.7 L 3992.6,3535.08 L 125.511,3535.08 L 119.037,3533.6 L 113.845,3529.46 L 110.963,3523.48 L 110.589,3520.16M 247.609,3318.9 L 249.131,3334.34 L 253.635,3349.19 L 260.951,3362.88 L 270.795,3374.87 L 282.791,3384.72 L 296.477,3392.03 L 311.327,3396.54 L 326.771,3398.06 L 342.213,3396.54 L 357.063,3392.03 L 370.749,3384.72 L 382.745,3374.87 L 392.589,3362.88 L 399.905,3349.19 L 404.409,3334.34 L 405.931,3318.9 L 404.409,3303.45 L 399.905,3288.6 L 392.589,3274.92 L 382.745,3262.92 L 370.749,3253.08 L 357.063,3245.76 L 342.213,3241.26 L 326.771,3239.74 L 311.327,3241.26 L 296.477,3245.76 L 282.791,3253.08 L 270.795,3262.92 L 260.951,3274.92 L 253.635,3288.6 L 249.131,3303.45 L 247.609,3318.9M 247.609,326.771 L 249.131,342.215 L 253.635,357.065 L 260.951,370.749 L 270.795,382.745 L 282.791,392.591 L 296.477,399.905 L 311.327,404.411 L 326.771,405.931 L 342.213,404.411 L 357.063,399.905 L 370.749,392.591 L 382.745,382.745 L 392.589,370.749 L 399.905,357.065 L 404.409,342.215 L 405.931,326.771 L 404.409,311.327 L 399.905,296.477 L 392.589,282.791 L 382.745,270.795 L 370.749,260.951 L 357.063,253.635 L 342.213,249.131 L 326.771,247.609 L 311.327,249.131 L 296.477,253.635 L 282.791,260.951 L 270.795,270.795 L 260.951,282.791 L 253.635,296.477 L 249.131,311.327 L 247.609,326.771M 538.503,554.251 L 538.723,574.565 L 542.227,586.621 L 548.617,597.425 L 557.493,606.301 L 568.299,612.693 L 580.353,616.195 L 583.169,616.417 L 619.369,616.417 L 619.369,586.417 L 588.189,586.417 L 586.131,586.309 L 582.106,585.454 L 578.346,583.78 L 575.017,581.361 L 572.263,578.303 L 570.206,574.739 L 568.934,570.825 L 568.504,566.732 L 568.504,554.251 L 538.503,554.251M 538.503,514.251 L 568.504,514.251 L 568.504,501.772 L 568.934,497.679 L 570.206,493.765 L 572.263,490.201 L 575.017,487.143 L 578.346,484.724 L 582.106,483.05 L 586.131,482.194 L 588.189,482.087 L 619.369,482.087 L 619.369,452.085 L 583.169,452.085 L 580.353,452.307 L 568.299,455.809 L 557.493,462.199 L 548.617,471.077 L 542.227,481.881 L 538.725,493.935 L 538.503,514.251M 659.369,616.417 L 695.567,616.417 L 698.383,616.195 L 710.439,612.693 L 721.243,606.303 L 730.121,597.425 L 736.511,586.621 L 740.013,574.565 L 740.235,554.251 L 710.236,554.251 L 710.236,566.732 L 709.806,570.825 L 708.534,574.739 L 706.477,578.303 L 703.723,581.361 L 700.394,583.78 L 696.634,585.454 L 692.609,586.309 L 690.551,586.417 L 659.369,586.417 L 659.369,616.417M 659.369,482.087 L 690.551,482.087 L 692.609,482.194 L 696.634,483.05 L 700.394,484.724 L 703.723,487.143 L 706.477,490.201 L 708.534,493.765 L 709.806,497.679 L 710.236,501.772 L 710.236,514.251 L 740.235,514.251 L 740.013,493.937 L 736.511,481.881 L 730.121,471.077 L 721.243,462.199 L 710.439,455.809 L 698.385,452.307 L 695.567,452.085 L 659.369,452.085 L 659.369,482.087M 1095.98,2310.35 L 1096.21,2330.67 L 1099.71,2342.72 L 1106.1,2353.53 L 1114.97,2362.41 L 1125.78,2368.8 L 1137.83,2372.3 L 1140.65,2372.52 L 1176.85,2372.52 L 1176.85,2342.52 L 1145.67,2342.52 L 1143.61,2342.41 L 1139.59,2341.56 L 1135.83,2339.88 L 1132.5,2337.46 L 1129.74,2334.41 L 1127.69,2330.84 L 1126.41,2326.93 L 1125.98,2322.83 L 1125.98,2310.35 L 1095.98,2310.35M 1095.98,2270.35 L 1125.98,2270.35 L 1125.98,2257.87 L 1126.41,2253.78 L 1127.69,2249.87 L 1129.74,2246.3 L 1132.5,2243.25 L 1135.83,2240.83 L 1139.59,2239.15 L 1143.61,2238.3 L 1145.67,2238.19 L 1176.85,2238.19 L 1176.85,2208.19 L 1140.65,2208.19 L 1137.84,2208.41 L 1125.78,2211.91 L 1114.97,2218.3 L 1106.1,2227.18 L 1099.71,2237.99 L 1096.21,2250.04 L 1095.98,2270.35M 1216.85,2372.52 L 1253.05,2372.52 L 1255.86,2372.3 L 1267.92,2368.8 L 1278.73,2362.41 L 1287.6,2353.53 L 1293.99,2342.72 L 1297.49,2330.67 L 1297.72,2310.35 L 1267.72,2310.35 L 1267.72,2322.83 L 1267.29,2326.93 L 1266.01,2330.84 L 1263.96,2334.41 L 1261.2,2337.46 L 1257.87,2339.88 L 1254.11,2341.56 L 1250.09,2342.41 L 1248.03,2342.52 L 1216.85,2342.52 L 1216.85,2372.52M 1216.85,2238.19 L 1248.03,2238.19 L 1250.09,2238.3 L 1254.11,2239.15 L 1257.87,2240.83 L 1261.2,2243.25 L 1263.96,2246.3 L 1266.01,2249.87 L 1267.29,2253.78 L 1267.72,2257.87 L 1267.72,2270.35 L 1297.72,2270.35 L 1297.49,2250.04 L 1293.99,2237.98 L 1287.6,2227.18 L 1278.73,2218.3 L 1267.92,2211.91 L 1255.87,2208.41 L 1253.05,2208.19 L 1216.85,2208.19 L 1216.85,2238.19M 1437.13,1043.99 L 1437.35,1046.81 L 1440.85,1058.87 L 1447.24,1069.67 L 1456.12,1078.55 L 1466.92,1084.94 L 1478.98,1088.44 L 1503.23,1088.66 L 1503.23,1058.66 L 1486.81,1058.66 L 1484.75,1058.55 L 1480.73,1057.7 L 1476.97,1056.02 L 1473.64,1053.61 L 1470.89,1050.55 L 1468.83,1046.98 L 1467.56,1043.07 L 1467.13,1038.98 L 1467.13,1009.76 L 1437.13,1009.76 L 1437.13,1043.99M 1437.13,969.763 L 1467.13,969.763 L 1467.13,940.551 L 1467.56,936.458 L 1468.83,932.545 L 1470.89,928.981 L 1473.64,925.922 L 1476.97,923.503 L 1480.73,921.83 L 1484.75,920.974 L 1486.81,920.866 L 1503.23,920.866 L 1503.23,890.865 L 1478.98,891.087 L 1466.92,894.589 L 1456.12,900.979 L 1447.24,909.857 L 1440.85,920.661 L 1437.35,932.715 L 1437.13,935.533 L 1437.13,969.763M 1437.13,807.773 L 1437.35,810.589 L 1440.85,822.643 L 1447.24,833.449 L 1456.12,842.325 L 1466.92,848.715 L 1478.98,852.219 L 1503.23,852.439 L 1503.23,822.441 L 1486.81,822.441 L 1484.75,822.333 L 1480.73,821.477 L 1476.97,819.804 L 1473.64,817.385 L 1470.89,814.326 L 1468.83,810.762 L 1467.56,806.849 L 1467.13,802.756 L 1467.13,773.543 L 1437.13,773.543 L 1437.13,807.773M 1437.13,733.543 L 1467.13,733.543 L 1467.13,704.331 L 1467.56,700.238 L 1468.83,696.324 L 1470.89,692.76 L 1473.64,689.702 L 1476.97,687.283 L 1480.73,685.609 L 1484.75,684.754 L 1486.81,684.646 L 1503.23,684.646 L 1503.23,654.645 L 1478.98,654.867 L 1466.92,658.369 L 1456.12,664.759 L 1447.24,673.635 L 1440.85,684.441 L 1437.35,696.495 L 1437.13,699.313 L 1437.13,733.543M 1437.13,571.551 L 1437.35,574.369 L 1440.85,586.423 L 1447.24,597.229 L 1456.12,606.105 L 1466.92,612.495 L 1478.98,615.997 L 1503.23,616.219 L 1503.23,586.22 L 1486.81,586.22 L 1484.75,586.113 L 1480.73,585.257 L 1476.97,583.583 L 1473.64,581.164 L 1470.89,578.106 L 1468.83,574.542 L 1467.56,570.628 L 1467.13,566.535 L 1467.13,537.321 L 1437.13,537.321 L 1437.13,571.551M 1437.13,497.321 L 1467.13,497.321 L 1467.13,468.11 L 1467.56,464.018 L 1468.83,460.104 L 1470.89,456.54 L 1473.64,453.481 L 1476.97,451.063 L 1480.73,449.389 L 1484.75,448.533 L 1486.81,448.425 L 1503.23,448.425 L 1503.23,418.425 L 1478.98,418.645 L 1466.92,422.147 L 1456.12,428.539 L 1447.24,437.415 L 1440.85,448.221 L 1437.35,460.275 L 1437.13,463.091 L 1437.13,497.321M 1437.13,335.331 L 1437.35,338.149 L 1440.85,350.203 L 1447.24,361.007 L 1456.12,369.885 L 1466.92,376.275 L 1478.98,379.777 L 1503.23,379.999 L 1503.23,350 L 1486.81,350 L 1484.75,349.892 L 1480.73,349.037 L 1476.97,347.363 L 1473.64,344.944 L 1470.89,341.886 L 1468.83,338.322 L 1467.56,334.408 L 1467.13,330.315 L 1467.13,301.101 L 1437.13,301.101 L 1437.13,335.331M 1437.13,261.101 L 1467.13,261.101 L 1467.13,231.89 L 1467.56,227.797 L 1468.83,223.883 L 1470.89,220.319 L 1473.64,217.261 L 1476.97,214.842 L 1480.73,213.168 L 1484.75,212.313 L 1486.81,212.205 L 1503.23,212.205 L 1503.23,182.203 L 1478.98,182.425 L 1466.92,185.927 L 1456.12,192.317 L 1447.24,201.195 L 1440.85,211.999 L 1437.35,224.055 L 1437.13,226.871 L 1437.13,261.101M 1543.23,2066.26 L 1543.45,2086.57 L 1546.95,2098.63 L 1553.34,2109.43 L 1562.22,2118.31 L 1573.02,2124.7 L 1585.08,2128.2 L 1587.9,2128.43 L 1624.09,2128.43 L 1624.09,2098.43 L 1592.91,2098.43 L 1590.86,2098.32 L 1586.83,2097.46 L 1583.07,2095.79 L 1579.74,2093.37 L 1576.99,2090.31 L 1574.93,2086.75 L 1573.66,2082.83 L 1573.23,2078.74 L 1573.23,2066.26 L 1543.23,2066.26M 1543.23,2026.26 L 1573.23,2026.26 L 1573.23,2013.78 L 1573.66,2009.69 L 1574.93,2005.77 L 1576.99,2002.21 L 1579.74,1999.15 L 1583.07,1996.73 L 1586.83,1995.06 L 1590.86,1994.2 L 1592.91,1994.09 L 1624.09,1994.09 L 1624.09,1964.09 L 1587.89,1964.09 L 1585.08,1964.32 L 1573.02,1967.82 L 1562.22,1974.21 L 1553.34,1983.09 L 1546.95,1993.89 L 1543.45,2005.94 L 1543.23,2026.26M 1543.23,1088.66 L 1567.48,1088.44 L 1579.53,1084.94 L 1590.34,1078.55 L 1599.22,1069.67 L 1605.61,1058.87 L 1609.11,1046.81 L 1609.33,1044 L 1609.33,1009.76 L 1579.33,1009.76 L 1579.33,1038.98 L 1578.9,1043.07 L 1577.63,1046.98 L 1575.57,1050.55 L 1572.82,1053.61 L 1569.49,1056.02 L 1565.73,1057.7 L 1561.7,1058.55 L 1559.65,1058.66 L 1543.23,1058.66 L 1543.23,1088.66M 1543.23,890.865 L 1543.23,920.866 L 1559.65,920.866 L 1561.7,920.974 L 1565.73,921.83 L 1569.49,923.503 L 1572.82,925.922 L 1575.57,928.981 L 1577.63,932.545 L 1578.9,936.458 L 1579.33,940.551 L 1579.33,969.763 L 1609.33,969.763 L 1609.33,935.533 L 1609.11,932.715 L 1605.61,920.661 L 1599.22,909.855 L 1590.34,900.979 L 1579.53,894.589 L 1567.48,891.087 L 1543.23,890.865M 1543.23,852.439 L 1567.48,852.219 L 1579.53,848.715 L 1590.34,842.325 L 1599.22,833.449 L 1605.61,822.643 L 1609.11,810.589 L 1609.33,807.775 L 1609.33,773.543 L 1579.33,773.543 L 1579.33,802.756 L 1578.9,806.849 L 1577.63,810.762 L 1575.57,814.326 L 1572.82,817.385 L 1569.49,819.804 L 1565.73,821.477 L 1561.7,822.333 L 1559.65,822.441 L 1543.23,822.441 L 1543.23,852.439M 1543.23,654.645 L 1543.23,684.646 L 1559.65,684.646 L 1561.7,684.754 L 1565.73,685.609 L 1569.49,687.283 L 1572.82,689.702 L 1575.57,692.76 L 1577.63,696.324 L 1578.9,700.238 L 1579.33,704.331 L 1579.33,733.543 L 1609.33,733.543 L 1609.33,699.313 L 1609.11,696.495 L 1605.61,684.441 L 1599.22,673.635 L 1590.34,664.759 L 1579.53,658.369 L 1567.48,654.867 L 1543.23,654.645M 1543.23,616.219 L 1567.48,615.997 L 1579.53,612.495 L 1590.34,606.105 L 1599.22,597.229 L 1605.61,586.423 L 1609.11,574.369 L 1609.33,571.555 L 1609.33,537.321 L 1579.33,537.321 L 1579.33,566.535 L 1578.9,570.628 L 1577.63,574.542 L 1575.57,578.106 L 1572.82,581.164 L 1569.49,583.583 L 1565.73,585.257 L 1561.7,586.113 L 1559.65,586.22 L 1543.23,586.22 L 1543.23,616.219M 1543.23,418.425 L 1543.23,448.425 L 1559.65,448.425 L 1561.7,448.533 L 1565.73,449.389 L 1569.49,451.063 L 1572.82,453.481 L 1575.57,456.54 L 1577.63,460.104 L 1578.9,464.018 L 1579.33,468.11 L 1579.33,497.321 L 1609.33,497.321 L 1609.33,463.091 L 1609.11,460.275 L 1605.61,448.221 L 1599.22,437.415 L 1590.34,428.537 L 1579.53,422.147 L 1567.48,418.645 L 1543.23,418.425M 1543.23,379.999 L 1567.48,379.777 L 1579.53,376.275 L 1590.34,369.885 L 1599.22,361.007 L 1605.61,350.203 L 1609.11,338.149 L 1609.33,335.335 L 1609.33,301.101 L 1579.33,301.101 L 1579.33,330.315 L 1578.9,334.408 L 1577.63,338.322 L 1575.57,341.886 L 1572.82,344.944 L 1569.49,347.363 L 1565.73,349.037 L 1561.7,349.892 L 1559.65,350 L 1543.23,350 L 1543.23,379.999M 1543.23,182.203 L 1543.23,212.205 L 1559.65,212.205 L 1561.7,212.313 L 1565.73,213.168 L 1569.49,214.842 L 1572.82,217.261 L 1575.57,220.319 L 1577.63,223.883 L 1578.9,227.797 L 1579.33,231.89 L 1579.33,261.101 L 1609.33,261.101 L 1609.33,226.871 L 1609.11,224.053 L 1605.61,211.999 L 1599.22,201.195 L 1590.34,192.317 L 1579.53,185.927 L 1567.48,182.425 L 1543.23,182.203M 1664.09,2128.42 L 1700.29,2128.43 L 1703.11,2128.2 L 1715.16,2124.7 L 1725.97,2118.31 L 1734.85,2109.43 L 1741.24,2098.63 L 1744.74,2086.57 L 1744.96,2066.26 L 1714.96,2066.26 L 1714.96,2078.74 L 1714.53,2082.83 L 1713.26,2086.75 L 1711.2,2090.31 L 1708.45,2093.37 L 1705.12,2095.79 L 1701.36,2097.46 L 1697.33,2098.32 L 1695.28,2098.43 L 1664.09,2098.43 L 1664.09,2128.42M 1664.09,1994.09 L 1695.28,1994.09 L 1697.33,1994.2 L 1701.36,1995.06 L 1705.12,1996.73 L 1708.45,1999.15 L 1711.2,2002.21 L 1713.26,2005.77 L 1714.53,2009.69 L 1714.96,2013.78 L 1714.96,2026.26 L 1744.96,2026.26 L 1744.74,2005.95 L 1741.24,1993.89 L 1734.85,1983.08 L 1725.97,1974.21 L 1715.16,1967.82 L 1703.11,1964.32 L 1700.29,1964.09 L 1664.09,1964.09 L 1664.09,1994.09M 1671.34,1044 L 1671.56,1046.82 L 1675.07,1058.88 L 1681.46,1069.69 L 1690.34,1078.58 L 1701.16,1084.97 L 1713.22,1088.48 L 1716.04,1088.7 L 1798.92,1088.7 L 1801.74,1088.48 L 1813.8,1084.97 L 1824.62,1078.58 L 1833.5,1069.69 L 1839.89,1058.88 L 1842.31,1050.56 L 1845.54,1044.76 L 1850.96,1040.93 L 1856.64,1039.8 L 1896.51,1039.8 L 1902.98,1041.28 L 1908.17,1045.42 L 1910.84,1050.56 L 1913.25,1058.88 L 1919.65,1069.69 L 1928.53,1078.58 L 1939.35,1084.97 L 1951.41,1088.48 L 1954.23,1088.7 L 2027.26,1088.7 L 2030.08,1088.48 L 2042.15,1084.97 L 2052.96,1078.58 L 2061.85,1069.69 L 2068.24,1058.88 L 2071.75,1046.82 L 2071.97,1044 L 2071.97,935.529 L 2071.75,932.709 L 2068.24,920.645 L 2061.85,909.831 L 2052.96,900.947 L 2042.15,894.553 L 2030.08,891.047 L 2027.26,890.825 L 1954.23,890.825 L 1951.41,891.047 L 1939.35,894.553 L 1928.53,900.947 L 1919.65,909.831 L 1913.25,920.645 L 1910.84,928.965 L 1907.61,934.769 L 1902.19,938.601 L 1896.51,939.723 L 1856.64,939.723 L 1850.17,938.245 L 1844.97,934.105 L 1842.31,928.965 L 1839.89,920.645 L 1833.5,909.831 L 1824.62,900.947 L 1813.8,894.553 L 1801.74,891.047 L 1798.92,890.825 L 1716.04,890.825 L 1713.22,891.047 L 1701.16,894.553 L 1690.34,900.947 L 1681.46,909.831 L 1675.07,920.645 L 1671.56,932.709 L 1671.34,935.529 L 1671.34,1044M 1671.34,807.775 L 1671.56,810.595 L 1675.07,822.659 L 1681.46,833.473 L 1690.34,842.357 L 1701.16,848.753 L 1713.22,852.257 L 1716.04,852.479 L 1798.92,852.479 L 1801.74,852.257 L 1813.8,848.753 L 1824.62,842.357 L 1833.5,833.473 L 1839.89,822.659 L 1842.31,814.339 L 1845.54,808.535 L 1850.96,804.705 L 1856.64,803.581 L 1896.51,803.581 L 1902.98,805.059 L 1908.17,809.199 L 1910.84,814.339 L 1913.25,822.659 L 1919.65,833.473 L 1928.53,842.357 L 1939.35,848.753 L 1951.41,852.257 L 1954.23,852.479 L 2027.26,852.479 L 2030.08,852.257 L 2042.15,848.753 L 2052.96,842.357 L 2061.85,833.473 L 2068.24,822.659 L 2071.75,810.595 L 2071.97,807.777 L 2071.97,699.309 L 2071.75,696.489 L 2068.24,684.425 L 2061.85,673.611 L 2052.96,664.727 L 2042.15,658.333 L 2030.08,654.827 L 2027.26,654.605 L 1954.23,654.605 L 1951.41,654.827 L 1939.35,658.333 L 1928.53,664.727 L 1919.65,673.611 L 1913.25,684.425 L 1910.84,692.745 L 1907.61,698.549 L 1902.19,702.379 L 1896.51,703.503 L 1856.64,703.503 L 1850.17,702.025 L 1844.97,697.885 L 1842.31,692.745 L 1839.89,684.425 L 1833.5,673.611 L 1824.62,664.727 L 1813.8,658.333 L 1801.74,654.827 L 1798.92,654.605 L 1716.04,654.605 L 1713.22,654.827 L 1701.16,658.333 L 1690.34,664.727 L 1681.46,673.611 L 1675.07,684.425 L 1671.56,696.489 L 1671.34,699.309 L 1671.34,807.775M 1671.34,571.555 L 1671.56,574.375 L 1675.07,586.439 L 1681.46,597.253 L 1690.34,606.137 L 1701.16,612.531 L 1713.22,616.037 L 1716.04,616.259 L 1798.92,616.259 L 1801.74,616.037 L 1813.8,612.531 L 1824.62,606.137 L 1833.5,597.253 L 1839.89,586.439 L 1842.31,578.119 L 1845.54,572.315 L 1850.96,568.485 L 1856.64,567.361 L 1896.51,567.361 L 1902.98,568.839 L 1908.17,572.979 L 1910.84,578.119 L 1913.25,586.439 L 1919.65,597.253 L 1928.53,606.137 L 1939.35,612.531 L 1951.41,616.037 L 1954.23,616.259 L 2027.26,616.259 L 2030.08,616.037 L 2042.15,612.531 L 2052.96,606.137 L 2061.85,597.253 L 2068.24,586.439 L 2071.75,574.375 L 2071.97,571.555 L 2071.97,463.087 L 2071.75,460.269 L 2068.24,448.205 L 2061.85,437.391 L 2052.96,428.507 L 2042.15,422.111 L 2030.08,418.607 L 2027.26,418.385 L 1954.23,418.385 L 1951.41,418.607 L 1939.35,422.111 L 1928.53,428.507 L 1919.65,437.391 L 1913.25,448.205 L 1910.84,456.525 L 1907.61,462.329 L 1902.19,466.159 L 1896.51,467.283 L 1856.64,467.283 L 1850.17,465.805 L 1844.97,461.665 L 1842.31,456.525 L 1839.89,448.205 L 1833.5,437.391 L 1824.62,428.507 L 1813.8,422.111 L 1801.74,418.607 L 1798.92,418.385 L 1716.04,418.385 L 1713.22,418.607 L 1701.16,422.111 L 1690.34,428.507 L 1681.46,437.391 L 1675.07,448.205 L 1671.56,460.269 L 1671.34,463.089 L 1671.34,571.555M 1671.34,335.335 L 1671.56,338.153 L 1675.07,350.219 L 1681.46,361.033 L 1690.34,369.917 L 1701.16,376.311 L 1713.22,379.817 L 1716.04,380.039 L 1798.92,380.039 L 1801.74,379.817 L 1813.8,376.311 L 1824.62,369.917 L 1833.5,361.033 L 1839.89,350.219 L 1842.31,341.899 L 1845.54,336.095 L 1850.96,332.263 L 1856.64,331.141 L 1896.51,331.141 L 1902.98,332.619 L 1908.17,336.759 L 1910.84,341.899 L 1913.25,350.219 L 1919.65,361.033 L 1928.53,369.917 L 1939.35,376.311 L 1951.41,379.817 L 1954.23,380.039 L 2027.26,380.039 L 2030.08,379.817 L 2042.15,376.311 L 2052.96,369.917 L 2061.85,361.033 L 2068.24,350.219 L 2071.75,338.155 L 2071.97,335.335 L 2071.97,226.867 L 2071.75,224.049 L 2068.24,211.983 L 2061.85,201.171 L 2052.96,192.287 L 2042.15,185.891 L 2030.08,182.387 L 2027.26,182.165 L 1954.23,182.165 L 1951.41,182.387 L 1939.35,185.891 L 1928.53,192.287 L 1919.65,201.171 L 1913.25,211.983 L 1910.84,220.303 L 1907.61,226.109 L 1902.19,229.939 L 1896.51,231.061 L 1856.64,231.061 L 1850.17,229.585 L 1844.97,225.443 L 1842.31,220.303 L 1839.89,211.983 L 1833.5,201.171 L 1824.62,192.287 L 1813.8,185.891 L 1801.74,182.387 L 1798.92,182.165 L 1716.04,182.165 L 1713.22,182.387 L 1701.16,185.891 L 1690.34,192.287 L 1681.46,201.171 L 1675.07,211.983 L 1671.56,224.049 L 1671.34,226.867 L 1671.34,335.335M 2057.36,2387.1 L 2058.21,2392.94 L 2062.62,2401.95 L 2069.7,2409.04 L 2078.71,2413.44 L 2084.55,2414.29 L 2168.99,2414.29 L 2174.83,2413.44 L 2183.84,2409.04 L 2190.93,2401.95 L 2195.33,2392.94 L 2196.18,2387.1 L 2196.18,2200.3 L 2195.33,2194.46 L 2190.93,2185.45 L 2183.84,2178.36 L 2174.83,2173.96 L 2168.99,2173.11 L 2084.55,2173.11 L 2078.71,2173.96 L 2069.7,2178.36 L 2062.62,2185.45 L 2058.21,2194.46 L 2057.36,2200.3 L 2057.36,2387.1M 2057.4,1938.28 L 2058.25,1944.11 L 2062.65,1953.11 L 2069.73,1960.19 L 2078.72,1964.58 L 2084.55,1965.43 L 2106.77,1965.43 L 2106.77,1935.43 L 2087.4,1935.43 L 2087.4,1864.88 L 2057.4,1864.88 L 2057.4,1938.28M 2057.4,1824.88 L 2087.4,1824.88 L 2087.4,1754.33 L 2106.77,1754.33 L 2106.77,1724.33 L 2084.55,1724.33 L 2078.72,1725.18 L 2069.73,1729.58 L 2062.65,1736.66 L 2058.25,1745.65 L 2057.4,1751.48 L 2057.4,1824.88M 2146.77,1935.43 L 2146.77,1965.43 L 2168.99,1965.43 L 2174.82,1964.58 L 2183.81,1960.19 L 2190.89,1953.11 L 2195.29,1944.11 L 2196.14,1938.28 L 2196.14,1864.88 L 2166.14,1864.88 L 2166.14,1935.43 L 2146.77,1935.43M 2146.77,1754.33 L 2166.14,1754.33 L 2166.14,1824.88 L 2196.14,1824.88 L 2196.14,1751.48 L 2195.29,1745.65 L 2190.89,1736.66 L 2183.81,1729.58 L 2174.82,1725.18 L 2168.99,1724.33 L 2146.77,1724.33 L 2146.77,1754.33M 2178.66,3165.04 L 2208.66,3165.04 L 2208.66,3135.83 L 2209.09,3131.73 L 2210.36,3127.82 L 2212.42,3124.26 L 2215.17,3121.2 L 2218.5,3118.78 L 2222.26,3117.11 L 2226.29,3116.25 L 2239.84,3116.14 L 2239.84,3086.14 L 2220.51,3086.36 L 2208.46,3089.87 L 2197.65,3096.26 L 2188.78,3105.13 L 2182.38,3115.94 L 2178.88,3127.99 L 2178.66,3130.81 L 2178.66,3165.04M 2279.84,3116.14 L 2293.4,3116.25 L 2297.42,3117.11 L 2301.18,3118.78 L 2304.51,3121.2 L 2307.26,3124.26 L 2309.32,3127.82 L 2310.59,3131.73 L 2311.02,3135.83 L 2311.02,3165.04 L 2341.02,3165.04 L 2341.02,3130.81 L 2340.8,3127.99 L 2337.3,3115.94 L 2330.91,3105.13 L 2322.03,3096.26 L 2311.23,3089.87 L 2299.17,3086.36 L 2279.84,3086.14 L 2279.84,3116.14M 3712.18,3318.9 L 3713.7,3334.34 L 3718.2,3349.19 L 3725.52,3362.88 L 3735.36,3374.87 L 3747.36,3384.72 L 3761.04,3392.03 L 3775.89,3396.54 L 3791.34,3398.06 L 3806.78,3396.54 L 3821.63,3392.03 L 3835.32,3384.72 L 3847.31,3374.87 L 3857.16,3362.88 L 3864.47,3349.19 L 3868.98,3334.34 L 3870.5,3318.9 L 3868.98,3303.45 L 3864.47,3288.6 L 3857.16,3274.92 L 3847.31,3262.92 L 3835.32,3253.08 L 3821.63,3245.76 L 3806.78,3241.26 L 3791.34,3239.74 L 3775.89,3241.26 L 3761.04,3245.76 L 3747.36,3253.08 L 3735.36,3262.92 L 3725.52,3274.92 L 3718.2,3288.6 L 3713.7,3303.45 L 3712.18,3318.9M 3712.18,326.771 L 3713.7,342.215 L 3718.2,357.065 L 3725.52,370.749 L 3735.36,382.745 L 3747.36,392.591 L 3761.04,399.905 L 3775.89,404.411 L 3791.34,405.931 L 3806.78,404.411 L 3821.63,399.905 L 3835.32,392.591 L 3847.31,382.745 L 3857.16,370.749 L 3864.47,357.065 L 3868.98,342.215 L 3870.5,326.771 L 3868.98,311.327 L 3864.47,296.477 L 3857.16,282.791 L 3847.31,270.795 L 3835.32,260.951 L 3821.63,253.635 L 3806.78,249.131 L 3791.34,247.609 L 3775.89,249.131 L 3761.04,253.635 L 3747.36,260.951 L 3735.36,270.795 L 3725.52,282.791 L 3718.2,296.477 L 3713.7,311.327 L 3712.18,326.771 z " style="fill-opacity:1.000000;fill:rgb(103,198,105);stroke:rgb(0,0,0);stroke-width:2"/></g>
<g fill-rule="evenodd"><path d="M 287.402,3318.9 L 288.262,3310.71 L 290.805,3302.88 L 294.921,3295.76 L 300.428,3289.64 L 307.087,3284.8 L 314.606,3281.45 L 322.656,3279.74 L 330.887,3279.74 L 338.938,3281.45 L 346.457,3284.8 L 353.115,3289.64 L 358.623,3295.76 L 362.738,3302.88 L 365.281,3310.71 L 366.142,3318.9 L 365.281,3327.08 L 362.738,3334.91 L 358.623,3342.04 L 353.115,3348.16 L 346.457,3352.99 L 338.938,3356.34 L 330.887,3358.05 L 322.656,3358.05 L 314.606,3356.34 L 307.087,3352.99 L 300.428,3348.16 L 294.921,3342.04 L 290.805,3334.91 L 288.262,3327.08 L 287.402,3318.9 z " style="fill-opacity:1.000000;fill:rgb(115,81,255);stroke:rgb(0,0,0);stroke-width:2"/></g>
<g fill-rule="evenodd"><path d="M 287.402,326.772 L 288.262,318.586 L 290.805,310.758 L 294.921,303.631 L 300.428,297.514 L 307.087,292.676 L 314.606,289.328 L 322.656,287.617 L 330.887,287.617 L 338.938,289.328 L 346.457,292.676 L 353.115,297.514 L 358.623,303.631 L 362.738,310.758 L 365.281,318.586 L 366.142,326.772 L 365.281,334.957 L 362.738,342.785 L 358.623,349.913 L 353.115,356.029 L 346.457,360.867 L 338.938,364.215 L 330.887,365.926 L 322.656,365.926 L 314.606,364.215 L 307.087,360.867 L 300.428,356.029 L 294.921,349.913 L 290.805,342.785 L 288.262,334.957 L 287.402,326.772 z " style="fill-opacity:1.000000;fill:rgb(74,236,41);stroke:rgb(0,0,0);stroke-width:2"/></g>
<g fill-rule="evenodd"><path d="M 391.023,1691.34 L 391.023,1007.87 L 391.27,1004.74 L 392.002,1001.69 L 393.203,998.793 L 394.843,996.117 L 396.881,993.731 L 477.983,912.629 L 481.535,909.863 L 570.349,821.05 L 568.934,816.888 L 568.504,812.795 L 568.504,747.835 L 568.934,743.742 L 570.206,739.828 L 572.263,736.264 L 575.017,733.206 L 578.346,730.787 L 582.106,729.113 L 586.131,728.257 L 690.551,728.15 L 692.609,728.257 L 696.634,729.113 L 700.394,730.787 L 703.723,733.206 L 706.477,736.264 L 708.534,739.828 L 709.806,743.742 L 710.236,747.835 L 710.236,812.795 L 709.806,816.888 L 708.534,820.802 L 706.477,824.366 L 703.723,827.424 L 702.365,828.411 L 772.44,898.487 L 819.715,851.211 L 822.746,848.724 L 826.204,846.876 L 829.956,845.737 L 833.857,845.353 L 1133.07,845.353 L 1136.97,845.737 L 1140.72,846.876 L 1144.18,848.724 L 1147.21,851.211 L 1302.33,1006.33 L 1304.82,1009.36 L 1306.67,1012.82 L 1307.8,1016.57 L 1308.19,1020.47 L 1308.19,1128.35 L 1337.4,1128.35 L 1339.46,1128.45 L 1343.48,1129.31 L 1347.24,1130.98 L 1350.57,1133.4 L 1353.33,1136.46 L 1355.38,1140.02 L 1356.66,1143.94 L 1357.09,1148.03 L 1357.09,1211.02 L 1356.66,1215.12 L 1355.38,1219.03 L 1353.33,1222.59 L 1350.57,1225.65 L 1347.24,1228.07 L 1343.48,1229.75 L 1339.46,1230.6 L 1337.4,1230.71 L 1238.98,1230.71 L 1236.92,1230.6 L 1232.89,1229.75 L 1229.13,1228.07 L 1225.8,1225.65 L 1223.05,1222.59 L 1220.99,1219.03 L 1219.72,1215.12 L 1219.29,1211.02 L 1219.29,1148.03 L 1219.72,1143.94 L 1220.99,1140.02 L 1223.05,1136.46 L 1225.8,1133.4 L 1229.13,1130.98 L 1232.89,1129.31 L 1236.92,1128.45 L 1238.98,1128.35 L 1268.19,1128.35 L 1268.19,1028.76 L 1124.79,885.353 L 842.142,885.353 L 792.44,935.055 L 792.44,1114.17 L 800,1114.17 L 800,1240.16 L 744.882,1240.16 L 744.882,1114.17 L 752.44,1114.17 L 752.44,935.055 L 649.866,832.48 L 615.486,832.48 L 507.054,940.913 L 503.502,943.679 L 431.023,1016.16 L 431.023,1683.05 L 538.204,1790.24 L 604.331,1790.24 L 604.331,1778.74 L 604.761,1774.65 L 606.033,1770.73 L 608.09,1767.17 L 610.844,1764.11 L 614.173,1761.69 L 617.933,1760.02 L 621.958,1759.16 L 624.016,1759.06 L 724.499,1759.16 L 728.524,1760.02 L 732.283,1761.69 L 735.613,1764.11 L 738.366,1767.17 L 740.424,1770.73 L 741.696,1774.65 L 742.126,1778.74 L 742.126,1788.66 L 826.772,1788.66 L 826.772,1759.45 L 827.202,1755.36 L 828.474,1751.44 L 830.531,1747.88 L 833.285,1744.82 L 836.614,1742.4 L 840.374,1740.73 L 844.399,1739.87 L 846.457,1739.76 L 911.506,1739.87 L 915.532,1740.73 L 919.291,1742.4 L 922.621,1744.82 L 925.374,1747.88 L 927.432,1751.44 L 928.704,1755.36 L 929.134,1759.45 L 929.134,1857.87 L 928.704,1861.97 L 927.432,1865.88 L 925.374,1869.44 L 922.621,1872.5 L 919.291,1874.92 L 915.532,1876.6 L 911.506,1877.45 L 846.457,1877.56 L 844.399,1877.45 L 840.374,1876.6 L 836.614,1874.92 L 833.285,1872.5 L 830.531,1869.44 L 828.474,1865.88 L 827.202,1861.97 L 826.772,1857.87 L 826.772,1828.66 L 742.126,1828.66 L 742.126,1841.73 L 741.696,1845.83 L 740.424,1849.74 L 738.366,1853.3 L 735.613,1856.36 L 732.283,1858.78 L 728.524,1860.45 L 724.499,1861.31 L 624.016,1861.42 L 621.958,1861.31 L 617.933,1860.45 L 614.173,1858.78 L 610.844,1856.36 L 608.09,1853.3 L 606.033,1849.74 L 604.761,1845.83 L 604.331,1841.73 L 604.331,1830.24 L 529.919,1830.24 L 526.791,1829.99 L 523.739,1829.26 L 520.84,1828.06 L 518.164,1826.42 L 515.777,1824.38 L 396.881,1705.48 L 394.394,1702.45 L 392.546,1698.99 L 391.408,1695.24 L 391.023,1691.34 z " style="fill-opacity:1.000000;fill:rgb(205,186,171);stroke:rgb(0,0,0);stroke-width:2"/></g>
<g fill-rule="evenodd"><path d="M 398.425,2870.47 L 398.425,2807.48 L 540.157,2807.48 L 540.157,2870.47 L 398.425,2870.47 z " style="fill-opacity:1.000000;fill:rgb(242,251,227);stroke:rgb(0,0,0);stroke-width:2"/></g>
<g fill-rule="evenodd"><path d="M 398.425,2770.47 L 398.425,2707.48 L 540.157,2707.48 L 540.157,2770.47 L 398.425,2770.47 z " style="fill-opacity:1.000000;fill:rgb(70,124,194);stroke:rgb(0,0,0);stroke-width:2"/></g>
<g fill-rule="evenodd"><path d="M 398.425,2670.47 L 398.425,2607.48 L 540.157,2607.48 L 540.157,2670.47 L 398.425,2670.47 z " style="fill-opacity:1.000000;fill:rgb(84,248,27);stroke:rgb(0,0,0);stroke-width:2"/></g>
<g fill-rule="evenodd"><path d="M 398.425,2570.47 L 398.425,2507.48 L 540.157,2507.48 L 540.157,2570.47 L 398.425,2570.47 z " style="fill-opacity:1.000000;fill:rgb(232,231,141);stroke:rgb(0,0,0);stroke-width:2"/></g>
<g fill-rule="evenodd"><path d="M 604.331,1597.64 L 604.331,1534.65 L 604.761,1530.55 L 606.033,1526.64 L 608.09,1523.08 L 610.844,1520.02 L 614.173,1517.6 L 617.933,1515.92 L 621.958,1515.07 L 653.228,1514.96 L 653.228,1240.16 L 644.882,1240.16 L 644.882,1114.17 L 700,1114.17 L 700,1240.16 L 693.227,1240.16 L 693.227,1514.96 L 724.499,1515.07 L 728.524,1515.92 L 732.283,1517.6 L 735.613,1520.02 L 738.366,1523.08 L 740.424,1526.64 L 741.696,1530.55 L 742.126,1534.65 L 742.126,1546.14 L 1586.99,1546.14 L 1846.49,1286.64 L 1849.52,1284.16 L 1852.98,1282.31 L 1856.73,1281.17 L 1860.63,1280.79 L 2644.41,1280.79 L 2648.31,1281.17 L 2652.06,1282.31 L 2655.52,1284.16 L 2658.55,1286.64 L 2741.33,1369.42 L 2752.03,1361.65 L 2767.07,1354.96 L 2783.17,1351.53 L 2799.63,1351.53 L 2815.73,1354.96 L 2830.77,1361.65 L 2844.09,1371.33 L 2855.1,1383.56 L 2863.33,1397.82 L 2868.42,1413.47 L 2870.14,1429.84 L 2870.14,1488.9 L 2868.42,1505.27 L 2863.33,1520.92 L 2855.1,1535.18 L 2844.09,1547.41 L 2830.77,1557.09 L 2815.73,1563.78 L 2799.63,1567.21 L 2783.17,1567.21 L 2767.07,1563.78 L 2752.03,1557.09 L 2738.71,1547.41 L 2727.7,1535.18 L 2719.46,1520.92 L 2714.38,1505.27 L 2712.66,1488.9 L 2712.66,1429.84 L 2714.38,1413.47 L 2717.92,1402.58 L 2636.12,1320.79 L 1868.91,1320.79 L 1609.42,1580.28 L 1606.39,1582.77 L 1602.93,1584.62 L 1599.18,1585.76 L 1595.28,1586.14 L 742.126,1586.14 L 742.126,1597.64 L 741.696,1601.73 L 740.424,1605.64 L 738.366,1609.21 L 735.613,1612.27 L 732.283,1614.69 L 728.524,1616.36 L 724.499,1617.21 L 722.441,1617.32 L 621.958,1617.21 L 617.933,1616.36 L 614.173,1614.69 L 610.844,1612.27 L 608.09,1609.21 L 606.033,1605.64 L 604.761,1601.73 L 604.331,1597.64 z " style="fill-opacity:1.000000;fill:rgb(118,90,46);stroke:rgb(0,0,0);stroke-width:2"/></g>
<g fill-rule="evenodd"><path d="M 814.173,2770.47 L 814.173,2707.48 L 955.906,2707.48 L 955.906,2718.98 L 1127.95,2718.98 L 1127.95,2708.66 L 1128.38,2704.57 L 1129.65,2700.65 L 1131.71,2697.09 L 1134.47,2694.03 L 1137.8,2691.61 L 1141.55,2689.94 L 1145.58,2689.08 L 1147.64,2688.98 L 1246.06,2688.98 L 1248.12,2689.08 L 1252.15,2689.94 L 1255.91,2691.61 L 1259.23,2694.03 L 1261.99,2697.09 L 1264.05,2700.65 L 1265.32,2704.57 L 1265.75,2708.66 L 1265.75,2720.16 L 1933.07,2720.16 L 1936.97,2720.54 L 1940.72,2721.68 L 1944.18,2723.53 L 1947.21,2726.01 L 2077.89,2856.69 L 2512.66,2856.69 L 2512.66,2847.17 L 2514.38,2830.79 L 2519.46,2815.14 L 2527.7,2800.88 L 2538.71,2788.65 L 2552.03,2778.97 L 2567.07,2772.28 L 2583.17,2768.86 L 2599.63,2768.86 L 2615.73,2772.28 L 2630.77,2778.97 L 2644.09,2788.65 L 2655.1,2800.88 L 2663.33,2815.14 L 2668.42,2830.79 L 2670.14,2847.17 L 2670.14,2906.22 L 2668.42,2922.59 L 2663.33,2938.25 L 2655.1,2952.5 L 2644.09,2964.74 L 2630.77,2974.41 L 2615.73,2981.11 L 2599.63,2984.53 L 2583.17,2984.53 L 2567.07,2981.11 L 2552.03,2974.41 L 2538.71,2964.74 L 2527.7,2952.5 L 2519.46,2938.25 L 2514.38,2922.59 L 2512.66,2906.22 L 2512.66,2896.69 L 2069.61,2896.69 L 2065.7,2896.31 L 2061.95,2895.17 L 2058.49,2893.32 L 2055.46,2890.83 L 1924.79,2760.16 L 1265.75,2760.16 L 1265.75,2771.65 L 1265.32,2775.75 L 1264.05,2779.66 L 1261.99,2783.22 L 1259.23,2786.28 L 1255.91,2788.7 L 1252.15,2790.38 L 1248.12,2791.23 L 1246.06,2791.34 L 1147.64,2791.34 L 1145.58,2791.23 L 1141.55,2790.38 L 1137.8,2788.7 L 1134.47,2786.28 L 1131.71,2783.22 L 1129.65,2779.66 L 1128.38,2775.75 L 1127.95,2771.65 L 1127.95,2758.97 L 955.906,2758.97 L 955.906,2770.47 L 814.173,2770.47 z " style="fill-opacity:1.000000;fill:rgb(99,51,159);stroke:rgb(0,0,0);stroke-width:2"/></g>
<g fill-rule="evenodd"><path d="M 814.173,2670.47 L 814.173,2607.48 L 955.906,2607.48 L 955.906,2618.98 L 3079.92,2618.98 L 3083.82,2619.36 L 3087.57,2620.5 L 3091.03,2622.35 L 3094.06,2624.83 L 3205.54,2736.31 L 3207.58,2738.7 L 3209.22,2741.37 L 3210.42,2744.27 L 3211.15,2747.32 L 3211.4,2750.45 L 3211.4,2771.36 L 3215.73,2772.28 L 3230.77,2778.97 L 3244.09,2788.65 L 3255.1,2800.88 L 3263.33,2815.14 L 3268.42,2830.79 L 3270.14,2847.17 L 3270.14,2906.22 L 3268.42,2922.59 L 3263.33,2938.25 L 3255.1,2952.5 L 3244.09,2964.74 L 3230.77,2974.41 L 3215.73,2981.11 L 3199.63,2984.53 L 3183.17,2984.53 L 3167.07,2981.11 L 3152.03,2974.41 L 3138.71,2964.74 L 3127.7,2952.5 L 3119.46,2938.25 L 3114.38,2922.59 L 3112.66,2906.22 L 3112.66,2847.17 L 3114.38,2830.79 L 3119.46,2815.14 L 3127.7,2800.88 L 3138.71,2788.65 L 3152.03,2778.97 L 3167.07,2772.28 L 3171.4,2771.36 L 3171.4,2758.74 L 3071.64,2658.98 L 955.906,2658.97 L 955.906,2670.47 L 814.173,2670.47 z " style="fill-opacity:1.000000;fill:rgb(201,154,102);stroke:rgb(0,0,0);stroke-width:2"/></g>
<g fill-rule="evenodd"><path d="M 814.173,2570.47 L 814.173,2507.48 L 955.906,2507.48 L 955.906,2518.98 L 1125.98,2518.97 L 1125.98,2503.94 L 1126.41,2499.84 L 1127.69,2495.93 L 1129.74,2492.37 L 1132.5,2489.31 L 1135.83,2486.89 L 1139.59,2485.22 L 1143.61,2484.36 L 1145.67,2484.25 L 1248.03,2484.25 L 1250.09,2484.36 L 1254.11,2485.22 L 1257.87,2486.89 L 1261.2,2489.31 L 1263.96,2492.37 L 1266.01,2495.93 L 1267.29,2499.84 L 1267.72,2503.94 L 1267.72,2516.42 L 1394.17,2516.42 L 1394.17,2109.07 L 1161.06,1875.96 L 1159.63,1876.6 L 1155.6,1877.45 L 1153.54,1877.56 L 1088.49,1877.45 L 1084.47,1876.6 L 1080.71,1874.92 L 1077.38,1872.5 L 1074.63,1869.44 L 1072.57,1865.88 L 1071.3,1861.97 L 1070.87,1857.87 L 1070.87,1759.45 L 1071.3,1755.36 L 1072.57,1751.44 L 1074.63,1747.88 L 1077.38,1744.82 L 1080.71,1742.4 L 1084.47,1740.73 L 1088.49,1739.87 L 1155.6,1739.87 L 1159.63,1740.73 L 1163.39,1742.4 L 1166.72,1744.82 L 1169.47,1747.88 L 1171.53,1751.44 L 1172.8,1755.36 L 1173.23,1759.45 L 1173.23,1831.56 L 1428.31,2086.64 L 1430.8,2089.68 L 1432.65,2093.13 L 1433.79,2096.89 L 1434.17,2100.79 L 1434.17,2516.42 L 3130.91,2516.42 L 3134.81,2516.8 L 3138.56,2517.94 L 3142.02,2519.79 L 3145.05,2522.27 L 3391.63,2768.86 L 3399.63,2768.86 L 3415.73,2772.28 L 3430.77,2778.97 L 3444.09,2788.65 L 3455.1,2800.88 L 3463.33,2815.14 L 3468.42,2830.79 L 3470.14,2847.17 L 3470.14,2906.22 L 3468.42,2922.59 L 3463.33,2938.25 L 3455.1,2952.5 L 3444.09,2964.74 L 3430.77,2974.41 L 3421.4,2978.58 L 3421.4,3084.98 L 3420.82,3090.83 L 3419.11,3096.46 L 3416.34,3101.65 L 3412.61,3106.19 L 3312.55,3206.25 L 3308,3209.98 L 3302.82,3212.76 L 3297.19,3214.46 L 3291.34,3215.04 L 2976.38,3215.04 L 2976.38,3234.25 L 2975.95,3238.34 L 2974.68,3242.26 L 2972.62,3245.82 L 2969.86,3248.88 L 2966.54,3251.3 L 2962.78,3252.97 L 2958.75,3253.83 L 2956.69,3253.94 L 2893.7,3253.94 L 2891.64,3253.83 L 2887.62,3252.97 L 2886.18,3252.34 L 2762.17,3376.34 L 2759.14,3378.83 L 2755.69,3380.68 L 2751.93,3381.82 L 2748.03,3382.2 L 2129.92,3382.2 L 2126.02,3381.82 L 2122.27,3380.68 L 2118.81,3378.83 L 2115.78,3376.34 L 1962.24,3222.8 L 1960.2,3220.42 L 1958.56,3217.74 L 1957.36,3214.84 L 1956.62,3211.79 L 1956.38,3208.66 L 1956.38,3102.77 L 1857.86,3004.25 L 1265.75,3004.25 L 1265.75,3015.75 L 1265.32,3019.84 L 1264.05,3023.75 L 1261.99,3027.32 L 1259.23,3030.38 L 1255.91,3032.8 L 1252.15,3034.47 L 1248.12,3035.33 L 1246.06,3035.43 L 1145.58,3035.33 L 1141.55,3034.47 L 1137.8,3032.8 L 1134.47,3030.38 L 1131.71,3027.32 L 1129.65,3023.75 L 1128.38,3019.84 L 1127.95,3015.75 L 1127.95,2952.76 L 1128.38,2948.66 L 1129.65,2944.75 L 1131.71,2941.19 L 1134.47,2938.13 L 1137.8,2935.71 L 1141.55,2934.03 L 1145.58,2933.18 L 1248.12,2933.18 L 1252.15,2934.03 L 1255.91,2935.71 L 1259.23,2938.13 L 1261.99,2941.19 L 1264.05,2944.75 L 1265.32,2948.66 L 1265.75,2952.76 L 1265.75,2964.25 L 1866.14,2964.25 L 1870.04,2964.64 L 1873.8,2965.77 L 1877.25,2967.62 L 1880.28,2970.11 L 1990.52,3080.34 L 1992.56,3082.73 L 1994.2,3085.41 L 1995.4,3088.3 L 1996.13,3091.36 L 1996.38,3094.49 L 1996.38,3200.38 L 2138.2,3342.2 L 2739.75,3342.2 L 2874.02,3207.93 L 2874.02,3135.83 L 2874.45,3131.73 L 2875.72,3127.82 L 2877.78,3124.26 L 2880.53,3121.2 L 2883.86,3118.78 L 2887.62,3117.11 L 2891.64,3116.25 L 2893.7,3116.14 L 2956.69,3116.14 L 2958.75,3116.25 L 2962.78,3117.11 L 2966.54,3118.78 L 2969.86,3121.2 L 2972.62,3124.26 L 2974.68,3127.82 L 2975.95,3131.73 L 2976.38,3135.83 L 2976.38,3155.04 L 3278.91,3155.04 L 3361.4,3072.55 L 3361.4,2978.58 L 3352.03,2974.41 L 3338.71,2964.74 L 3327.7,2952.5 L 3319.46,2938.25 L 3314.38,2922.59 L 3312.66,2906.22 L 3312.66,2847.17 L 3314.38,2830.79 L 3319.46,2815.14 L 3327.7,2800.88 L 3338.71,2788.65 L 3348.06,2781.86 L 3122.62,2556.42 L 1267.72,2556.42 L 1267.72,2568.9 L 1267.29,2572.99 L 1266.01,2576.9 L 1263.96,2580.47 L 1261.2,2583.53 L 1257.87,2585.95 L 1254.11,2587.62 L 1250.09,2588.47 L 1248.03,2588.58 L 1145.67,2588.58 L 1143.61,2588.47 L 1139.59,2587.62 L 1135.83,2585.95 L 1132.5,2583.53 L 1129.74,2580.47 L 1127.69,2576.9 L 1126.41,2572.99 L 1125.98,2568.9 L 1125.98,2558.98 L 955.906,2558.98 L 955.906,2570.47 L 814.173,2570.47 z " style="fill-opacity:1.000000;fill:rgb(50,13,183);stroke:rgb(0,0,0);stroke-width:2"/></g>
<g fill-rule="evenodd"><path d="M 944.882,1240.16 L 944.882,1114.17 L 1000,1114.17 L 1000,1240.16 L 992.44,1240.16 L 992.439,1270.45 L 1125.61,1403.62 L 1219.29,1403.62 L 1219.29,1392.13 L 1219.72,1388.03 L 1220.99,1384.12 L 1223.05,1380.56 L 1225.8,1377.5 L 1229.13,1375.08 L 1232.89,1373.4 L 1236.92,1372.55 L 1337.4,1372.44 L 1339.46,1372.55 L 1343.48,1373.4 L 1347.24,1375.08 L 1350.57,1377.5 L 1353.33,1380.56 L 1355.38,1384.12 L 1356.66,1388.03 L 1357.09,1392.13 L 1357.09,1403.62 L 1605.89,1403.62 L 1820.5,1189.01 L 1823.53,1186.52 L 1826.99,1184.67 L 1830.74,1183.53 L 1834.65,1183.15 L 2746.77,1183.15 L 2750.67,1183.53 L 2754.42,1184.67 L 2757.88,1186.52 L 2760.91,1189.01 L 2941.33,1369.42 L 2952.03,1361.65 L 2967.07,1354.96 L 2983.17,1351.53 L 2999.63,1351.53 L 3015.73,1354.96 L 3030.77,1361.65 L 3044.09,1371.33 L 3055.1,1383.56 L 3063.33,1397.82 L 3068.42,1413.47 L 3070.14,1429.84 L 3070.14,1488.9 L 3068.42,1505.27 L 3063.33,1520.92 L 3055.1,1535.18 L 3044.09,1547.41 L 3030.77,1557.09 L 3015.73,1563.78 L 2999.63,1567.21 L 2983.17,1567.21 L 2967.07,1563.78 L 2952.03,1557.09 L 2938.71,1547.41 L 2927.7,1535.18 L 2919.46,1520.92 L 2914.38,1505.27 L 2912.66,1488.9 L 2912.66,1429.84 L 2914.38,1413.47 L 2917.92,1402.58 L 2738.49,1223.15 L 1842.93,1223.15 L 1628.31,1437.76 L 1625.28,1440.25 L 1621.83,1442.1 L 1618.07,1443.24 L 1614.17,1443.62 L 1357.09,1443.62 L 1357.09,1455.12 L 1356.66,1459.21 L 1355.38,1463.12 L 1353.33,1466.69 L 1350.57,1469.75 L 1347.24,1472.17 L 1343.48,1473.84 L 1339.46,1474.7 L 1337.4,1474.8 L 1236.92,1474.7 L 1232.89,1473.84 L 1229.13,1472.17 L 1225.8,1469.75 L 1223.05,1466.69 L 1220.99,1463.12 L 1219.72,1459.21 L 1219.29,1455.12 L 1219.29,1443.62 L 1117.32,1443.62 L 1113.42,1443.24 L 1109.67,1442.1 L 1106.21,1440.25 L 1103.18,1437.76 L 958.297,1292.88 L 955.81,1289.85 L 953.962,1286.39 L 952.824,1282.64 L 952.439,1278.74 L 952.44,1240.16 L 944.882,1240.16 z " style="fill-opacity:1.000000;fill:rgb(49,88,163);stroke:rgb(0,0,0);stroke-width:2"/></g>
<g fill-rule="evenodd"><path d="M 1573.23,2324.8 L 1573.23,2259.84 L 1573.66,2255.75 L 1574.93,2251.84 L 1576.99,2248.27 L 1579.74,2245.21 L 1583.07,2242.79 L 1586.83,2241.12 L 1590.86,2240.27 L 1695.28,2240.16 L 1697.33,2240.27 L 1701.36,2241.12 L 1705.12,2242.79 L 1708.45,2245.21 L 1711.2,2248.27 L 1713.26,2251.84 L 1714.53,2255.75 L 1714.96,2259.84 L 1714.96,2263.7 L 1835.43,2263.7 L 1835.43,2203.15 L 1844.8,2203.15 L 1844.8,2138.58 L 1845.17,2133.89 L 1846.27,2129.31 L 1848.07,2124.96 L 1850.53,2120.95 L 1853.59,2117.37 L 1910.28,2060.68 L 1914.83,2056.94 L 1920.02,2054.17 L 1925.64,2052.47 L 1931.5,2051.89 L 2187.57,2051.89 L 2277.09,1962.38 L 2277.09,1850.39 L 2277.66,1844.54 L 2279.37,1838.91 L 2282.14,1833.73 L 2285.87,1829.18 L 2401.62,1713.43 L 2406.17,1709.7 L 2411.35,1706.93 L 2416.98,1705.22 L 2422.83,1704.65 L 2725.98,1704.65 L 2731.84,1705.22 L 2737.46,1706.93 L 2742.65,1709.7 L 2747.2,1713.43 L 2859.79,1826.03 L 2863.53,1830.58 L 2866.3,1835.76 L 2868.01,1841.39 L 2868.58,1847.24 L 2868.58,2070.25 L 3441.56,2643.23 L 3696.85,2643.23 L 3702.7,2643.8 L 3708.33,2645.51 L 3713.52,2648.28 L 3718.06,2652.01 L 3812.61,2746.56 L 3816.34,2751.11 L 3819.11,2756.29 L 3820.82,2761.92 L 3821.4,2767.78 L 3821.4,2774.8 L 3830.77,2778.97 L 3844.09,2788.65 L 3855.1,2800.88 L 3863.33,2815.14 L 3868.42,2830.79 L 3870.14,2847.17 L 3870.14,2906.22 L 3868.42,2922.59 L 3863.33,2938.25 L 3855.1,2952.5 L 3844.09,2964.74 L 3830.77,2974.41 L 3815.73,2981.11 L 3799.63,2984.53 L 3783.17,2984.53 L 3767.07,2981.11 L 3752.03,2974.41 L 3738.71,2964.74 L 3727.7,2952.5 L 3719.46,2938.25 L 3714.38,2922.59 L 3712.66,2906.22 L 3712.66,2847.17 L 3714.38,2830.79 L 3719.46,2815.14 L 3727.7,2800.88 L 3738.71,2788.65 L 3752.03,2778.97 L 3757.66,2776.47 L 3684.42,2703.23 L 3429.13,2703.23 L 3423.28,2702.65 L 3417.65,2700.94 L 3412.47,2698.17 L 3407.92,2694.44 L 2817.37,2103.89 L 2814.31,2100.31 L 2811.85,2096.3 L 2810.05,2091.95 L 2808.95,2087.37 L 2808.58,2082.68 L 2808.58,1859.67 L 2713.56,1764.64 L 2435.26,1764.64 L 2337.09,1862.82 L 2337.09,1974.8 L 2336.51,1980.66 L 2334.8,1986.28 L 2332.03,1991.47 L 2328.3,1996.02 L 2221.21,2103.1 L 2216.67,2106.83 L 2211.48,2109.61 L 2205.85,2111.31 L 2200,2111.89 L 1943.92,2111.89 L 1904.8,2151.01 L 1904.8,2203.15 L 1914.17,2203.15 L 1914.17,2384.25 L 1835.43,2384.25 L 1835.43,2323.7 L 1714.96,2323.7 L 1714.53,2328.9 L 1713.26,2332.81 L 1711.2,2336.37 L 1708.45,2339.43 L 1705.12,2341.85 L 1701.36,2343.52 L 1697.33,2344.38 L 1592.91,2344.49 L 1590.86,2344.38 L 1586.83,2343.52 L 1583.07,2341.85 L 1579.74,2339.43 L 1576.99,2336.37 L 1574.93,2332.81 L 1573.66,2328.9 L 1573.23,2324.8 z " style="fill-opacity:1.000000;fill:rgb(90,37,93);stroke:rgb(0,0,0);stroke-width:2"/></g>
<g fill-rule="evenodd"><path d="M 1701.38,1038.98 L 1701.38,940.551 L 1701.81,936.458 L 1703.08,932.545 L 1705.14,928.981 L 1707.89,925.922 L 1711.22,923.503 L 1714.98,921.83 L 1719.01,920.974 L 1721.06,920.866 L 1793.9,920.866 L 1795.96,920.974 L 1799.98,921.83 L 1803.74,923.503 L 1807.07,925.922 L 1809.82,928.981 L 1811.88,932.545 L 1813.15,936.458 L 1813.58,940.551 L 1813.58,969.763 L 1939.57,969.763 L 1939.57,940.551 L 1940,936.458 L 1941.27,932.545 L 1943.33,928.981 L 1946.08,925.922 L 1949.41,923.503 L 1953.17,921.83 L 1957.19,920.974 L 2024.3,920.974 L 2028.33,921.83 L 2032.09,923.503 L 2035.42,925.922 L 2038.17,928.981 L 2040.23,932.545 L 2041.5,936.458 L 2041.93,940.551 L 2041.93,1038.98 L 2041.5,1043.07 L 2040.23,1046.98 L 2038.17,1050.55 L 2035.42,1053.61 L 2032.09,1056.02 L 2028.33,1057.7 L 2024.3,1058.55 L 2022.24,1058.66 L 1959.25,1058.66 L 1957.19,1058.55 L 1953.17,1057.7 L 1949.41,1056.02 L 1946.08,1053.61 L 1943.33,1050.55 L 1941.27,1046.98 L 1940,1043.07 L 1939.57,1038.98 L 1939.57,1009.76 L 1813.58,1009.76 L 1813.58,1038.98 L 1813.15,1043.07 L 1811.88,1046.98 L 1809.82,1050.55 L 1807.07,1053.61 L 1803.74,1056.02 L 1799.98,1057.7 L 1795.96,1058.55 L 1719.01,1058.55 L 1714.98,1057.7 L 1711.22,1056.02 L 1707.89,1053.61 L 1705.14,1050.55 L 1703.08,1046.98 L 1701.81,1043.07 L 1701.38,1038.98 z " style="fill-opacity:1.000000;fill:rgb(5,23,88);stroke:rgb(0,0,0);stroke-width:2"/></g>
<g fill-rule="evenodd"><path d="M 1701.38,802.756 L 1701.38,704.331 L 1701.81,700.238 L 1703.08,696.324 L 1705.14,692.76 L 1707.89,689.702 L 1711.22,687.283 L 1714.98,685.609 L 1719.01,684.754 L 1721.06,684.646 L 1793.9,684.646 L 1795.96,684.754 L 1799.98,685.609 L 1803.74,687.283 L 1807.07,689.702 L 1809.82,692.76 L 1811.88,696.324 L 1813.15,700.238 L 1813.58,704.331 L 1813.58,733.543 L 1939.57,733.543 L 1939.57,704.331 L 1940,700.238 L 1941.27,696.324 L 1943.33,692.76 L 1946.08,689.702 L 1949.41,687.283 L 1953.17,685.609 L 1957.19,684.754 L 2024.3,684.754 L 2028.33,685.609 L 2032.09,687.283 L 2035.42,689.702 L 2038.17,692.76 L 2040.23,696.324 L 2041.5,700.238 L 2041.93,704.331 L 2041.93,802.756 L 2041.5,806.849 L 2040.23,810.763 L 2038.17,814.326 L 2035.42,817.385 L 2032.09,819.804 L 2028.33,821.477 L 2024.3,822.333 L 2022.24,822.441 L 1959.25,822.441 L 1957.19,822.333 L 1953.17,821.477 L 1949.41,819.804 L 1946.08,817.385 L 1943.33,814.326 L 1941.27,810.763 L 1940,806.849 L 1939.57,802.756 L 1939.57,773.543 L 1813.58,773.543 L 1813.58,802.756 L 1813.15,806.849 L 1811.88,810.762 L 1809.82,814.326 L 1807.07,817.385 L 1803.74,819.804 L 1799.98,821.477 L 1795.96,822.333 L 1719.01,822.333 L 1714.98,821.477 L 1711.22,819.804 L 1707.89,817.385 L 1705.14,814.326 L 1703.08,810.762 L 1701.81,806.849 L 1701.38,802.756 z " style="fill-opacity:1.000000;fill:rgb(233,94,212);stroke:rgb(0,0,0);stroke-width:2"/></g>
<g fill-rule="evenodd"><path d="M 1701.38,566.535 L 1701.38,468.11 L 1701.81,464.018 L 1703.08,460.104 L 1705.14,456.54 L 1707.89,453.481 L 1711.22,451.063 L 1714.98,449.389 L 1719.01,448.533 L 1795.96,448.533 L 1799.98,449.389 L 1803.74,451.063 L 1807.07,453.481 L 1809.82,456.54 L 1811.88,460.104 L 1813.15,464.018 L 1813.58,468.11 L 1813.58,497.321 L 1939.57,497.321 L 1939.57,468.11 L 1940,464.017 L 1941.27,460.104 L 1943.33,456.54 L 1946.08,453.481 L 1949.41,451.062 L 1953.17,449.389 L 1957.19,448.533 L 1959.25,448.425 L 2022.24,448.425 L 2024.3,448.533 L 2028.33,449.389 L 2032.09,451.062 L 2035.42,453.481 L 2038.17,456.54 L 2040.23,460.104 L 2041.5,464.017 L 2041.93,468.11 L 2041.93,566.535 L 2041.5,570.628 L 2040.23,574.542 L 2038.17,578.106 L 2035.42,581.164 L 2032.09,583.583 L 2028.33,585.257 L 2024.3,586.113 L 1957.19,586.113 L 1953.17,585.257 L 1949.41,583.583 L 1946.08,581.164 L 1943.33,578.106 L 1941.27,574.542 L 1940,570.628 L 1939.57,566.535 L 1939.57,537.321 L 1813.58,537.321 L 1813.58,566.535 L 1813.15,570.628 L 1811.88,574.542 L 1809.82,578.106 L 1807.07,581.164 L 1803.74,583.583 L 1799.98,585.257 L 1795.96,586.113 L 1793.9,586.22 L 1721.06,586.22 L 1719.01,586.113 L 1714.98,585.257 L 1711.22,583.583 L 1707.89,581.164 L 1705.14,578.106 L 1703.08,574.542 L 1701.81,570.628 L 1701.38,566.535 z " style="fill-opacity:1.000000;fill:rgb(171,178,205);stroke:rgb(0,0,0);stroke-width:2"/></g>
<g fill-rule="evenodd"><path d="M 1701.38,330.315 L 1701.38,231.89 L 1701.81,227.797 L 1703.08,223.883 L 1705.14,220.319 L 1707.89,217.261 L 1711.22,214.842 L 1714.98,213.168 L 1719.01,212.313 L 1721.06,212.205 L 1793.9,212.205 L 1795.96,212.313 L 1799.98,213.168 L 1803.74,214.842 L 1807.07,217.261 L 1809.82,220.319 L 1811.88,223.883 L 1813.15,227.797 L 1813.58,231.89 L 1813.58,261.101 L 1939.57,261.101 L 1939.57,231.89 L 1940,227.797 L 1941.27,223.883 L 1943.33,220.319 L 1946.08,217.261 L 1949.41,214.842 L 1953.17,213.168 L 1957.19,212.313 L 2024.3,212.313 L 2028.33,213.168 L 2032.09,214.842 L 2035.42,217.261 L 2038.17,220.319 L 2040.23,223.883 L 2041.5,227.797 L 2041.93,231.89 L 2041.93,330.315 L 2041.5,334.408 L 2040.23,338.322 L 2038.17,341.886 L 2035.42,344.944 L 2032.09,347.363 L 2028.33,349.037 L 2024.3,349.892 L 2022.24,350 L 1959.25,350 L 1957.19,349.892 L 1953.17,349.037 L 1949.41,347.363 L 1946.08,344.944 L 1943.33,341.886 L 1941.27,338.322 L 1940,334.408 L 1939.57,330.315 L 1939.57,301.101 L 1813.58,301.101 L 1813.58,330.315 L 1813.15,334.408 L 1811.88,338.322 L 1809.82,341.886 L 1807.07,344.944 L 1803.74,347.363 L 1799.98,349.037 L 1795.96,349.892 L 1719.01,349.892 L 1714.98,349.037 L 1711.22,347.363 L 1707.89,344.944 L 1705.14,341.886 L 1703.08,338.322 L 1701.81,334.408 L 1701.38,330.315 z " style="fill-opacity:1.000000;fill:rgb(198,155,180);stroke:rgb(0,0,0);stroke-width:2"/></g>
<g fill-rule="evenodd"><path d="M 1835.43,1935.43 L 1835.43,1754.33 L 1854.8,1754.33 L 1854.8,1637.8 L 1855.19,1633.89 L 1856.32,1630.14 L 1858.17,1626.68 L 1860.66,1623.65 L 2039.09,1445.23 L 2042.12,1442.74 L 2045.57,1440.89 L 2049.33,1439.75 L 2053.23,1439.37 L 2512.66,1439.37 L 2512.66,1429.84 L 2514.38,1413.47 L 2519.46,1397.82 L 2527.7,1383.56 L 2538.71,1371.33 L 2552.03,1361.65 L 2567.07,1354.96 L 2583.17,1351.53 L 2599.63,1351.53 L 2615.73,1354.96 L 2630.77,1361.65 L 2644.09,1371.33 L 2655.1,1383.56 L 2663.33,1397.82 L 2668.42,1413.47 L 2670.14,1429.84 L 2670.14,1488.9 L 2668.42,1505.27 L 2663.33,1520.92 L 2655.1,1535.18 L 2644.09,1547.41 L 2630.77,1557.09 L 2615.73,1563.78 L 2599.63,1567.21 L 2583.17,1567.21 L 2567.07,1563.78 L 2552.03,1557.09 L 2538.71,1547.41 L 2527.7,1535.18 L 2519.46,1520.92 L 2514.38,1505.27 L 2512.66,1488.9 L 2512.66,1479.37 L 2061.51,1479.37 L 1894.8,1646.08 L 1894.8,1754.33 L 1914.17,1754.33 L 1914.17,1935.43 L 1835.43,1935.43 z " style="fill-opacity:1.000000;fill:rgb(84,17,14);stroke:rgb(0,0,0);stroke-width:2"/></g>
<g fill-rule="evenodd"><path d="M 2087.4,2384.25 L 2087.4,2203.15 L 2166.14,2203.15 L 2166.14,2384.25 L 2087.4,2384.25 z " style="fill-opacity:1.000000;fill:rgb(130,116,65);stroke:rgb(0,0,0);stroke-width:2"/></g>
<g fill-rule="evenodd"><path d="M 2183.66,1038.98 L 2183.66,940.551 L 2184.09,936.458 L 2185.36,932.545 L 2187.42,928.981 L 2190.17,925.922 L 2193.5,923.503 L 2197.26,921.83 L 2201.29,920.974 L 2266.34,920.866 L 2268.4,920.974 L 2272.42,921.83 L 2276.18,923.503 L 2279.51,925.922 L 2282.26,928.981 L 2284.32,932.545 L 2285.59,936.458 L 2286.02,940.551 L 2286.02,970.551 L 3060.63,970.551 L 3064.53,970.935 L 3068.28,972.073 L 3071.74,973.922 L 3074.77,976.409 L 3205.54,1107.17 L 3207.58,1109.56 L 3209.22,1112.24 L 3210.42,1115.14 L 3211.15,1118.19 L 3211.4,1121.32 L 3211.4,1354.04 L 3215.73,1354.96 L 3230.77,1361.65 L 3244.09,1371.33 L 3255.1,1383.56 L 3263.33,1397.82 L 3268.42,1413.47 L 3270.14,1429.84 L 3270.14,1488.9 L 3268.42,1505.27 L 3263.33,1520.92 L 3255.1,1535.18 L 3244.09,1547.41 L 3230.77,1557.09 L 3215.73,1563.78 L 3199.63,1567.21 L 3183.17,1567.21 L 3167.07,1563.78 L 3152.03,1557.09 L 3138.71,1547.41 L 3127.7,1535.18 L 3119.46,1520.92 L 3114.38,1505.27 L 3112.66,1488.9 L 3112.66,1429.84 L 3114.38,1413.47 L 3119.46,1397.82 L 3127.7,1383.56 L 3138.71,1371.33 L 3152.03,1361.65 L 3167.07,1354.96 L 3171.4,1354.04 L 3171.4,1129.6 L 3052.35,1010.55 L 2286.02,1010.55 L 2286.02,1038.98 L 2285.59,1043.07 L 2284.32,1046.98 L 2282.26,1050.55 L 2279.51,1053.61 L 2276.18,1056.02 L 2272.42,1057.7 L 2268.4,1058.55 L 2266.34,1058.66 L 2201.29,1058.55 L 2197.26,1057.7 L 2193.5,1056.02 L 2190.17,1053.61 L 2187.42,1050.55 L 2185.36,1046.98 L 2184.09,1043.07 L 2183.66,1038.98 z " style="fill-opacity:1.000000;fill:rgb(33,61,220);stroke:rgb(0,0,0);stroke-width:2"/></g>
<g fill-rule="evenodd"><path d="M 2183.66,802.756 L 2183.66,704.331 L 2184.09,700.238 L 2185.36,696.324 L 2187.42,692.76 L 2190.17,689.702 L 2193.5,687.283 L 2197.26,685.609 L 2201.29,684.754 L 2266.34,684.646 L 2268.4,684.754 L 2272.42,685.609 L 2276.18,687.283 L 2279.51,689.702 L 2282.26,692.76 L 2284.32,696.324 L 2285.59,700.238 L 2286.02,704.331 L 2286.02,734.329 L 3237.79,734.329 L 3241.7,734.713 L 3245.45,735.851 L 3248.9,737.7 L 3251.94,740.187 L 3405.54,893.789 L 3407.58,896.175 L 3409.22,898.851 L 3410.42,901.751 L 3411.15,904.802 L 3411.4,907.931 L 3411.4,1354.04 L 3415.73,1354.96 L 3430.77,1361.65 L 3444.09,1371.33 L 3455.1,1383.56 L 3463.33,1397.82 L 3468.42,1413.47 L 3470.14,1429.84 L 3470.14,1488.9 L 3468.42,1505.27 L 3463.33,1520.92 L 3455.1,1535.18 L 3444.09,1547.41 L 3430.77,1557.09 L 3415.73,1563.78 L 3399.63,1567.21 L 3383.17,1567.21 L 3367.07,1563.78 L 3352.03,1557.09 L 3338.71,1547.41 L 3327.7,1535.18 L 3319.46,1520.92 L 3314.38,1505.27 L 3312.66,1488.9 L 3312.66,1429.84 L 3314.38,1413.47 L 3319.46,1397.82 L 3327.7,1383.56 L 3338.71,1371.33 L 3352.03,1361.65 L 3367.07,1354.96 L 3371.4,1354.04 L 3371.4,916.215 L 3229.51,774.329 L 2286.02,774.329 L 2286.02,802.756 L 2285.59,806.849 L 2284.32,810.763 L 2282.26,814.326 L 2279.51,817.385 L 2276.18,819.804 L 2272.42,821.477 L 2268.4,822.333 L 2266.34,822.441 L 2201.29,822.333 L 2197.26,821.477 L 2193.5,819.804 L 2190.17,817.385 L 2187.42,814.326 L 2185.36,810.763 L 2184.09,806.849 L 2183.66,802.756 z " style="fill-opacity:1.000000;fill:rgb(135,112,233);stroke:rgb(0,0,0);stroke-width:2"/></g>
<g fill-rule="evenodd"><path d="M 2183.66,566.535 L 2183.66,468.11 L 2184.09,464.017 L 2185.36,460.104 L 2187.42,456.54 L 2190.17,453.481 L 2193.5,451.062 L 2197.26,449.389 L 2201.29,448.533 L 2266.34,448.425 L 2268.4,448.533 L 2272.42,449.389 L 2276.18,451.062 L 2279.51,453.481 L 2282.26,456.54 L 2284.32,460.104 L 2285.59,464.017 L 2286.02,468.11 L 2286.02,498.109 L 3355.12,498.109 L 3359.02,498.493 L 3362.77,499.632 L 3366.23,501.48 L 3369.26,503.967 L 3605.54,740.247 L 3608.03,743.278 L 3609.88,746.735 L 3611.01,750.487 L 3611.4,754.389 L 3611.4,1354.04 L 3615.73,1354.96 L 3630.77,1361.65 L 3644.09,1371.33 L 3655.1,1383.56 L 3663.33,1397.82 L 3668.42,1413.47 L 3670.14,1429.84 L 3670.14,1488.9 L 3668.42,1505.27 L 3663.33,1520.92 L 3655.1,1535.18 L 3644.09,1547.41 L 3630.77,1557.09 L 3615.73,1563.78 L 3599.63,1567.21 L 3583.17,1567.21 L 3567.07,1563.78 L 3552.03,1557.09 L 3538.71,1547.41 L 3527.7,1535.18 L 3519.46,1520.92 L 3514.38,1505.27 L 3512.66,1488.9 L 3512.66,1429.84 L 3514.38,1413.47 L 3519.46,1397.82 L 3527.7,1383.56 L 3538.71,1371.33 L 3552.03,1361.65 L 3567.07,1354.96 L 3571.4,1354.04 L 3571.4,762.673 L 3346.83,538.109 L 2286.02,538.109 L 2286.02,566.535 L 2285.59,570.628 L 2284.32,574.542 L 2282.26,578.106 L 2279.51,581.164 L 2276.18,583.583 L 2272.42,585.257 L 2268.4,586.113 L 2266.34,586.22 L 2201.29,586.113 L 2197.26,585.257 L 2193.5,583.583 L 2190.17,581.164 L 2187.42,578.106 L 2185.36,574.542 L 2184.09,570.628 L 2183.66,566.535 z " style="fill-opacity:1.000000;fill:rgb(62,161,65);stroke:rgb(0,0,0);stroke-width:2"/></g>
<g fill-rule="evenodd"><path d="M 2183.66,330.315 L 2183.66,231.89 L 2184.09,227.797 L 2185.36,223.883 L 2187.42,220.319 L 2190.17,217.261 L 2193.5,214.842 L 2197.26,213.168 L 2201.29,212.313 L 2266.34,212.205 L 2268.4,212.313 L 2272.42,213.168 L 2276.18,214.842 L 2279.51,217.261 L 2282.26,220.319 L 2284.32,223.883 L 2285.59,227.797 L 2286.02,231.89 L 2286.02,261.889 L 3381.1,261.889 L 3385,262.273 L 3388.76,263.412 L 3392.21,265.26 L 3395.24,267.747 L 3805.54,678.041 L 3807.58,680.427 L 3809.22,683.103 L 3810.42,686.003 L 3811.15,689.054 L 3811.4,692.183 L 3811.4,1354.04 L 3815.73,1354.96 L 3830.77,1361.65 L 3844.09,1371.33 L 3855.1,1383.56 L 3863.33,1397.82 L 3868.42,1413.47 L 3870.14,1429.84 L 3870.14,1488.9 L 3868.42,1505.27 L 3863.33,1520.92 L 3855.1,1535.18 L 3844.09,1547.41 L 3830.77,1557.09 L 3815.73,1563.78 L 3799.63,1567.21 L 3783.17,1567.21 L 3767.07,1563.78 L 3752.03,1557.09 L 3738.71,1547.41 L 3727.7,1535.18 L 3719.46,1520.92 L 3714.38,1505.27 L 3712.66,1488.9 L 3712.66,1429.84 L 3714.38,1413.47 L 3719.46,1397.82 L 3727.7,1383.56 L 3738.71,1371.33 L 3752.03,1361.65 L 3767.07,1354.96 L 3771.4,1354.04 L 3771.4,700.467 L 3372.82,301.889 L 2286.02,301.889 L 2286.02,330.315 L 2285.59,334.408 L 2284.32,338.322 L 2282.26,341.886 L 2279.51,344.944 L 2276.18,347.363 L 2272.42,349.037 L 2268.4,349.892 L 2266.34,350 L 2201.29,349.892 L 2197.26,349.037 L 2193.5,347.363 L 2190.17,344.944 L 2187.42,341.886 L 2185.36,338.322 L 2184.09,334.408 L 2183.66,330.315 z " style="fill-opacity:1.000000;fill:rgb(225,252,103);stroke:rgb(0,0,0);stroke-width:2"/></g>
<g fill-rule="evenodd"><path d="M 2452.76,3234.25 L 2452.76,3135.83 L 2453.19,3131.73 L 2454.46,3127.82 L 2456.52,3124.26 L 2459.27,3121.2 L 2462.6,3118.78 L 2466.36,3117.11 L 2470.38,3116.25 L 2472.44,3116.14 L 2535.43,3116.14 L 2537.49,3116.25 L 2541.52,3117.11 L 2545.28,3118.78 L 2548.6,3121.2 L 2551.36,3124.26 L 2553.42,3127.82 L 2554.69,3131.73 L 2555.12,3135.83 L 2555.12,3165.04 L 2629.92,3165.04 L 2629.92,3135.83 L 2630.35,3131.73 L 2631.62,3127.82 L 2633.68,3124.26 L 2636.43,3121.2 L 2639.76,3118.78 L 2643.52,3117.11 L 2647.55,3116.25 L 2649.61,3116.14 L 2712.6,3116.14 L 2714.66,3116.25 L 2718.68,3117.11 L 2720.11,3117.74 L 2771.4,3066.46 L 2771.4,2982.03 L 2767.07,2981.11 L 2752.03,2974.41 L 2738.71,2964.74 L 2727.7,2952.5 L 2719.46,2938.25 L 2714.38,2922.59 L 2712.66,2906.22 L 2712.66,2847.17 L 2714.38,2830.79 L 2719.46,2815.14 L 2727.7,2800.88 L 2738.71,2788.65 L 2752.03,2778.97 L 2767.07,2772.28 L 2783.17,2768.86 L 2799.63,2768.86 L 2815.73,2772.28 L 2830.77,2778.97 L 2844.09,2788.65 L 2855.1,2800.88 L 2863.33,2815.14 L 2868.42,2830.79 L 2870.14,2847.17 L 2870.14,2906.22 L 2868.42,2922.59 L 2863.33,2938.25 L 2855.1,2952.5 L 2844.09,2964.74 L 2830.77,2974.41 L 2815.73,2981.11 L 2811.4,2982.03 L 2811.4,3074.74 L 2811.01,3078.64 L 2809.88,3082.4 L 2808.03,3085.85 L 2805.54,3088.89 L 2732.28,3162.14 L 2732.28,3234.25 L 2731.85,3238.34 L 2730.58,3242.26 L 2728.52,3245.82 L 2725.77,3248.88 L 2722.44,3251.3 L 2718.68,3252.97 L 2714.66,3253.83 L 2649.61,3253.94 L 2647.55,3253.83 L 2643.52,3252.97 L 2639.76,3251.3 L 2636.43,3248.88 L 2633.68,3245.82 L 2631.62,3242.26 L 2630.35,3238.34 L 2629.92,3234.25 L 2629.92,3205.04 L 2555.12,3205.04 L 2555.12,3234.25 L 2554.69,3238.34 L 2553.42,3242.26 L 2551.36,3245.82 L 2548.6,3248.88 L 2545.28,3251.3 L 2541.52,3252.97 L 2537.49,3253.83 L 2535.43,3253.94 L 2472.44,3253.94 L 2470.38,3253.83 L 2466.36,3252.97 L 2462.6,3251.3 L 2459.27,3248.88 L 2456.52,3245.82 L 2454.46,3242.26 L 2453.19,3238.34 L 2452.76,3234.25 z " style="fill-opacity:1.000000;fill:rgb(62,1,126);stroke:rgb(0,0,0);stroke-width:2"/></g>
<g fill-rule="evenodd"><path d="M 2912.66,2906.22 L 2912.66,2847.17 L 2914.38,2830.79 L 2919.46,2815.14 L 2927.7,2800.88 L 2938.71,2788.65 L 2952.03,2778.97 L 2967.07,2772.28 L 2983.17,2768.86 L 2999.63,2768.86 L 3015.73,2772.28 L 3030.77,2778.97 L 3044.09,2788.65 L 3055.1,2800.88 L 3063.33,2815.14 L 3068.42,2830.79 L 3070.14,2847.17 L 3070.14,2906.22 L 3068.42,2922.59 L 3063.33,2938.25 L 3055.1,2952.5 L 3044.09,2964.74 L 3030.77,2974.41 L 3015.73,2981.11 L 2999.63,2984.53 L 2983.17,2984.53 L 2967.07,2981.11 L 2952.03,2974.41 L 2938.71,2964.74 L 2927.7,2952.5 L 2919.46,2938.25 L 2914.38,2922.59 L 2912.66,2906.22 z " style="fill-opacity:1.000000;fill:rgb(151,234,220);stroke:rgb(0,0,0);stroke-width:2"/></g>
<g fill-rule="evenodd"><path d="M 3751.97,3318.9 L 3752.83,3310.71 L 3755.37,3302.88 L 3759.49,3295.76 L 3764.99,3289.64 L 3771.65,3284.8 L 3779.17,3281.45 L 3787.22,3279.74 L 3795.45,3279.74 L 3803.5,3281.45 L 3811.02,3284.8 L 3817.68,3289.64 L 3823.19,3295.76 L 3827.3,3302.88 L 3829.85,3310.71 L 3830.71,3318.9 L 3829.85,3327.08 L 3827.3,3334.91 L 3823.19,3342.04 L 3817.68,3348.16 L 3811.02,3352.99 L 3803.5,3356.34 L 3795.45,3358.05 L 3787.22,3358.05 L 3779.17,3356.34 L 3771.65,3352.99 L 3764.99,3348.16 L 3759.49,3342.04 L 3755.37,3334.91 L 3752.83,3327.08 L 3751.97,3318.9 z " style="fill-opacity:1.000000;fill:rgb(107,150,143);stroke:rgb(0,0,0);stroke-width:2"/></g>
<g fill-rule="evenodd"><path d="M 3751.97,326.772 L 3752.83,318.586 L 3755.37,310.758 L 3759.49,303.631 L 3764.99,297.514 L 3771.65,292.676 L 3779.17,289.328 L 3787.22,287.617 L 3795.45,287.617 L 3803.5,289.328 L 3811.02,292.676 L 3817.68,297.514 L 3823.19,303.631 L 3827.3,310.758 L 3829.85,318.586 L 3830.71,326.772 L 3829.85,334.957 L 3827.3,342.785 L 3823.19,349.913 L 3817.68,356.029 L 3811.02,360.867 L 3803.5,364.215 L 3795.45,365.926 L 3787.22,365.926 L 3779.17,364.215 L 3771.65,360.867 L 3764.99,356.029 L 3759.49,349.913 L 3755.37,342.785 L 3752.83,334.957 L 3751.97,326.772 z " style="fill-opacity:1.000000;fill:rgb(56,92,42);stroke:rgb(0,0,0);stroke-width:2"/></g>
</svg>
