%TF.GenerationSoftware,KiCad,Pcbnew,7.0.5*%
%TF.CreationDate,2023-07-11T15:00:58-04:00*%
%TF.ProjectId,StepperMotor_module_V2_XIAO_RP2040,53746570-7065-4724-9d6f-746f725f6d6f,rev?*%
%TF.SameCoordinates,Original*%
%TF.FileFunction,Soldermask,Bot*%
%TF.FilePolarity,Negative*%
%FSLAX46Y46*%
G04 Gerber Fmt 4.6, Leading zero omitted, Abs format (unit mm)*
G04 Created by KiCad (PCBNEW 7.0.5) date 2023-07-11 15:00:58*
%MOMM*%
%LPD*%
G01*
G04 APERTURE LIST*
G04 Aperture macros list*
%AMRoundRect*
0 Rectangle with rounded corners*
0 $1 Rounding radius*
0 $2 $3 $4 $5 $6 $7 $8 $9 X,Y pos of 4 corners*
0 Add a 4 corners polygon primitive as box body*
4,1,4,$2,$3,$4,$5,$6,$7,$8,$9,$2,$3,0*
0 Add four circle primitives for the rounded corners*
1,1,$1+$1,$2,$3*
1,1,$1+$1,$4,$5*
1,1,$1+$1,$6,$7*
1,1,$1+$1,$8,$9*
0 Add four rect primitives between the rounded corners*
20,1,$1+$1,$2,$3,$4,$5,0*
20,1,$1+$1,$4,$5,$6,$7,0*
20,1,$1+$1,$6,$7,$8,$9,0*
20,1,$1+$1,$8,$9,$2,$3,0*%
G04 Aperture macros list end*
%ADD10C,0.025400*%
%ADD11R,1.700000X1.700000*%
%ADD12O,1.700000X1.700000*%
%ADD13C,3.500000*%
%ADD14R,1.600000X1.600000*%
%ADD15O,1.600000X1.600000*%
%ADD16RoundRect,0.250000X0.574524X0.097227X0.097227X0.574524X-0.574524X-0.097227X-0.097227X-0.574524X0*%
%ADD17RoundRect,0.250000X0.337500X0.475000X-0.337500X0.475000X-0.337500X-0.475000X0.337500X-0.475000X0*%
G04 APERTURE END LIST*
D10*
X159200000Y-63400000D02*
X159500000Y-63800000D01*
X159500000Y-64500000D01*
X159300000Y-64900000D01*
X158700000Y-65300000D01*
X157300000Y-65300000D01*
X154800000Y-67800000D01*
X154800000Y-87700000D01*
X154600000Y-88200000D01*
X154100000Y-88500000D01*
X150800000Y-88500000D01*
X150300000Y-88100000D01*
X150200000Y-87500000D01*
X150300000Y-87000000D01*
X150700000Y-86600000D01*
X151300000Y-86400000D01*
X152700000Y-86400000D01*
X152700000Y-67400000D01*
X152800000Y-66900000D01*
X153200000Y-66400000D01*
X156300000Y-63300000D01*
X156600000Y-63200000D01*
X158800000Y-63200000D01*
X159200000Y-63400000D01*
G36*
X159200000Y-63400000D02*
G01*
X159500000Y-63800000D01*
X159500000Y-64500000D01*
X159300000Y-64900000D01*
X158700000Y-65300000D01*
X157300000Y-65300000D01*
X154800000Y-67800000D01*
X154800000Y-87700000D01*
X154600000Y-88200000D01*
X154100000Y-88500000D01*
X150800000Y-88500000D01*
X150300000Y-88100000D01*
X150200000Y-87500000D01*
X150300000Y-87000000D01*
X150700000Y-86600000D01*
X151300000Y-86400000D01*
X152700000Y-86400000D01*
X152700000Y-67400000D01*
X152800000Y-66900000D01*
X153200000Y-66400000D01*
X156300000Y-63300000D01*
X156600000Y-63200000D01*
X158800000Y-63200000D01*
X159200000Y-63400000D01*
G37*
D11*
%TO.C,J3*%
X145260000Y-59900000D03*
D12*
X147800000Y-59900000D03*
X150340000Y-59900000D03*
%TD*%
D13*
%TO.C,H3*%
X162500000Y-87000000D03*
%TD*%
D11*
%TO.C,J7*%
X137340000Y-59900000D03*
D12*
X139880000Y-59900000D03*
%TD*%
D11*
%TO.C,J5*%
X153775000Y-87500000D03*
D12*
X151235000Y-87500000D03*
X148695000Y-87500000D03*
X146155000Y-87500000D03*
X143615000Y-87500000D03*
X141075000Y-87500000D03*
X138535000Y-87500000D03*
X135995000Y-87500000D03*
X133455000Y-87500000D03*
%TD*%
D14*
%TO.C,A1*%
X158500000Y-82000000D03*
D15*
X158500000Y-79460000D03*
X158500000Y-76920000D03*
X158500000Y-74380000D03*
X158500000Y-71840000D03*
X158500000Y-69300000D03*
X158500000Y-66760000D03*
X158500000Y-64220000D03*
X145800000Y-64220000D03*
X145800000Y-66760000D03*
X145800000Y-69300000D03*
X145800000Y-71840000D03*
X145800000Y-74380000D03*
X145800000Y-76920000D03*
X145800000Y-79460000D03*
X145800000Y-82000000D03*
%TD*%
D11*
%TO.C,J6*%
X133700000Y-59900000D03*
D12*
X131160000Y-59900000D03*
%TD*%
D13*
%TO.C,H2*%
X124750000Y-60500000D03*
%TD*%
%TO.C,H4*%
X162500000Y-60500000D03*
%TD*%
%TO.C,H1*%
X124750000Y-87000000D03*
%TD*%
D11*
%TO.C,J4*%
X162990000Y-76920000D03*
D12*
X162990000Y-74380000D03*
X162990000Y-71840000D03*
X162990000Y-69300000D03*
%TD*%
D16*
%TO.C,C1*%
X155000000Y-65600000D03*
X153532754Y-64132754D03*
%TD*%
D17*
%TO.C,C3*%
X148687500Y-84600000D03*
X146612500Y-84600000D03*
%TD*%
M02*
