%TF.GenerationSoftware,KiCad,Pcbnew,7.0.5*%
%TF.CreationDate,2023-10-22T13:56:58-04:00*%
%TF.ProjectId,PWR_module,5057525f-6d6f-4647-956c-652e6b696361,rev?*%
%TF.SameCoordinates,PX7270e00PY6a55ae0*%
%TF.FileFunction,Drillmap*%
%TF.FilePolarity,Positive*%
%FSLAX45Y45*%
G04 Gerber Fmt 4.5, Leading zero omitted, Abs format (unit mm)*
G04 Created by KiCad (PCBNEW 7.0.5) date 2023-10-22 13:56:58*
%MOMM*%
%LPD*%
G01*
G04 APERTURE LIST*
%ADD10C,0.050000*%
%ADD11C,0.200000*%
%ADD12C,0.160000*%
%ADD13C,0.180000*%
%ADD14C,0.220000*%
G04 APERTURE END LIST*
D10*
X20000Y3480000D02*
X3480000Y3480000D01*
X3480000Y20000D01*
X20000Y20000D01*
X20000Y3480000D01*
D11*
D12*
X170000Y1630000D02*
X330000Y1470000D01*
X330000Y1630000D02*
X170000Y1470000D01*
D13*
X790000Y1550000D02*
G75*
G03*
X790000Y1550000I-90000J0D01*
G01*
D14*
X3200000Y3310000D02*
X3200000Y3090000D01*
X3090000Y3200000D02*
X3310000Y3200000D01*
X3200000Y610000D02*
X3200000Y390000D01*
X3090000Y500000D02*
X3310000Y500000D01*
D11*
X278277Y-293984D02*
X278277Y-93984D01*
X278277Y-93984D02*
X325896Y-93984D01*
X325896Y-93984D02*
X354467Y-103508D01*
X354467Y-103508D02*
X373515Y-122555D01*
X373515Y-122555D02*
X383039Y-141603D01*
X383039Y-141603D02*
X392562Y-179698D01*
X392562Y-179698D02*
X392562Y-208269D01*
X392562Y-208269D02*
X383039Y-246365D01*
X383039Y-246365D02*
X373515Y-265412D01*
X373515Y-265412D02*
X354467Y-284460D01*
X354467Y-284460D02*
X325896Y-293984D01*
X325896Y-293984D02*
X278277Y-293984D01*
X478277Y-293984D02*
X478277Y-160650D01*
X478277Y-198746D02*
X487801Y-179698D01*
X487801Y-179698D02*
X497324Y-170174D01*
X497324Y-170174D02*
X516372Y-160650D01*
X516372Y-160650D02*
X535420Y-160650D01*
X602086Y-293984D02*
X602086Y-160650D01*
X602086Y-93984D02*
X592563Y-103508D01*
X592563Y-103508D02*
X602086Y-113031D01*
X602086Y-113031D02*
X611610Y-103508D01*
X611610Y-103508D02*
X602086Y-93984D01*
X602086Y-93984D02*
X602086Y-113031D01*
X725896Y-293984D02*
X706848Y-284460D01*
X706848Y-284460D02*
X697324Y-265412D01*
X697324Y-265412D02*
X697324Y-93984D01*
X830658Y-293984D02*
X811610Y-284460D01*
X811610Y-284460D02*
X802086Y-265412D01*
X802086Y-265412D02*
X802086Y-93984D01*
X1059229Y-293984D02*
X1059229Y-93984D01*
X1059229Y-93984D02*
X1125896Y-236841D01*
X1125896Y-236841D02*
X1192563Y-93984D01*
X1192563Y-93984D02*
X1192563Y-293984D01*
X1373515Y-293984D02*
X1373515Y-189222D01*
X1373515Y-189222D02*
X1363991Y-170174D01*
X1363991Y-170174D02*
X1344944Y-160650D01*
X1344944Y-160650D02*
X1306848Y-160650D01*
X1306848Y-160650D02*
X1287801Y-170174D01*
X1373515Y-284460D02*
X1354467Y-293984D01*
X1354467Y-293984D02*
X1306848Y-293984D01*
X1306848Y-293984D02*
X1287801Y-284460D01*
X1287801Y-284460D02*
X1278277Y-265412D01*
X1278277Y-265412D02*
X1278277Y-246365D01*
X1278277Y-246365D02*
X1287801Y-227317D01*
X1287801Y-227317D02*
X1306848Y-217793D01*
X1306848Y-217793D02*
X1354467Y-217793D01*
X1354467Y-217793D02*
X1373515Y-208269D01*
X1468753Y-160650D02*
X1468753Y-360650D01*
X1468753Y-170174D02*
X1487801Y-160650D01*
X1487801Y-160650D02*
X1525896Y-160650D01*
X1525896Y-160650D02*
X1544943Y-170174D01*
X1544943Y-170174D02*
X1554467Y-179698D01*
X1554467Y-179698D02*
X1563991Y-198746D01*
X1563991Y-198746D02*
X1563991Y-255888D01*
X1563991Y-255888D02*
X1554467Y-274936D01*
X1554467Y-274936D02*
X1544943Y-284460D01*
X1544943Y-284460D02*
X1525896Y-293984D01*
X1525896Y-293984D02*
X1487801Y-293984D01*
X1487801Y-293984D02*
X1468753Y-284460D01*
X1649705Y-274936D02*
X1659229Y-284460D01*
X1659229Y-284460D02*
X1649705Y-293984D01*
X1649705Y-293984D02*
X1640182Y-284460D01*
X1640182Y-284460D02*
X1649705Y-274936D01*
X1649705Y-274936D02*
X1649705Y-293984D01*
X1649705Y-170174D02*
X1659229Y-179698D01*
X1659229Y-179698D02*
X1649705Y-189222D01*
X1649705Y-189222D02*
X1640182Y-179698D01*
X1640182Y-179698D02*
X1649705Y-170174D01*
X1649705Y-170174D02*
X1649705Y-189222D01*
D12*
X-142500Y-542500D02*
X17500Y-702500D01*
X17500Y-542500D02*
X-142500Y-702500D01*
D11*
X383039Y-713984D02*
X268753Y-713984D01*
X325896Y-713984D02*
X325896Y-513984D01*
X325896Y-513984D02*
X306848Y-542555D01*
X306848Y-542555D02*
X287801Y-561603D01*
X287801Y-561603D02*
X268753Y-571127D01*
X468753Y-694936D02*
X478277Y-704460D01*
X478277Y-704460D02*
X468753Y-713984D01*
X468753Y-713984D02*
X459229Y-704460D01*
X459229Y-704460D02*
X468753Y-694936D01*
X468753Y-694936D02*
X468753Y-713984D01*
X649705Y-513984D02*
X611610Y-513984D01*
X611610Y-513984D02*
X592563Y-523508D01*
X592563Y-523508D02*
X583039Y-533031D01*
X583039Y-533031D02*
X563991Y-561603D01*
X563991Y-561603D02*
X554467Y-599698D01*
X554467Y-599698D02*
X554467Y-675889D01*
X554467Y-675889D02*
X563991Y-694936D01*
X563991Y-694936D02*
X573515Y-704460D01*
X573515Y-704460D02*
X592563Y-713984D01*
X592563Y-713984D02*
X630658Y-713984D01*
X630658Y-713984D02*
X649705Y-704460D01*
X649705Y-704460D02*
X659229Y-694936D01*
X659229Y-694936D02*
X668753Y-675889D01*
X668753Y-675889D02*
X668753Y-628270D01*
X668753Y-628270D02*
X659229Y-609222D01*
X659229Y-609222D02*
X649705Y-599698D01*
X649705Y-599698D02*
X630658Y-590174D01*
X630658Y-590174D02*
X592563Y-590174D01*
X592563Y-590174D02*
X573515Y-599698D01*
X573515Y-599698D02*
X563991Y-609222D01*
X563991Y-609222D02*
X554467Y-628270D01*
X792562Y-513984D02*
X811610Y-513984D01*
X811610Y-513984D02*
X830658Y-523508D01*
X830658Y-523508D02*
X840182Y-533031D01*
X840182Y-533031D02*
X849705Y-552079D01*
X849705Y-552079D02*
X859229Y-590174D01*
X859229Y-590174D02*
X859229Y-637793D01*
X859229Y-637793D02*
X849705Y-675889D01*
X849705Y-675889D02*
X840182Y-694936D01*
X840182Y-694936D02*
X830658Y-704460D01*
X830658Y-704460D02*
X811610Y-713984D01*
X811610Y-713984D02*
X792562Y-713984D01*
X792562Y-713984D02*
X773515Y-704460D01*
X773515Y-704460D02*
X763991Y-694936D01*
X763991Y-694936D02*
X754467Y-675889D01*
X754467Y-675889D02*
X744943Y-637793D01*
X744943Y-637793D02*
X744943Y-590174D01*
X744943Y-590174D02*
X754467Y-552079D01*
X754467Y-552079D02*
X763991Y-533031D01*
X763991Y-533031D02*
X773515Y-523508D01*
X773515Y-523508D02*
X792562Y-513984D01*
X983039Y-513984D02*
X1002086Y-513984D01*
X1002086Y-513984D02*
X1021134Y-523508D01*
X1021134Y-523508D02*
X1030658Y-533031D01*
X1030658Y-533031D02*
X1040182Y-552079D01*
X1040182Y-552079D02*
X1049705Y-590174D01*
X1049705Y-590174D02*
X1049705Y-637793D01*
X1049705Y-637793D02*
X1040182Y-675889D01*
X1040182Y-675889D02*
X1030658Y-694936D01*
X1030658Y-694936D02*
X1021134Y-704460D01*
X1021134Y-704460D02*
X1002086Y-713984D01*
X1002086Y-713984D02*
X983039Y-713984D01*
X983039Y-713984D02*
X963991Y-704460D01*
X963991Y-704460D02*
X954467Y-694936D01*
X954467Y-694936D02*
X944943Y-675889D01*
X944943Y-675889D02*
X935420Y-637793D01*
X935420Y-637793D02*
X935420Y-590174D01*
X935420Y-590174D02*
X944943Y-552079D01*
X944943Y-552079D02*
X954467Y-533031D01*
X954467Y-533031D02*
X963991Y-523508D01*
X963991Y-523508D02*
X983039Y-513984D01*
X1135420Y-713984D02*
X1135420Y-580650D01*
X1135420Y-599698D02*
X1144944Y-590174D01*
X1144944Y-590174D02*
X1163991Y-580650D01*
X1163991Y-580650D02*
X1192563Y-580650D01*
X1192563Y-580650D02*
X1211610Y-590174D01*
X1211610Y-590174D02*
X1221134Y-609222D01*
X1221134Y-609222D02*
X1221134Y-713984D01*
X1221134Y-609222D02*
X1230658Y-590174D01*
X1230658Y-590174D02*
X1249705Y-580650D01*
X1249705Y-580650D02*
X1278277Y-580650D01*
X1278277Y-580650D02*
X1297325Y-590174D01*
X1297325Y-590174D02*
X1306848Y-609222D01*
X1306848Y-609222D02*
X1306848Y-713984D01*
X1402086Y-713984D02*
X1402086Y-580650D01*
X1402086Y-599698D02*
X1411610Y-590174D01*
X1411610Y-590174D02*
X1430658Y-580650D01*
X1430658Y-580650D02*
X1459229Y-580650D01*
X1459229Y-580650D02*
X1478277Y-590174D01*
X1478277Y-590174D02*
X1487801Y-609222D01*
X1487801Y-609222D02*
X1487801Y-713984D01*
X1487801Y-609222D02*
X1497324Y-590174D01*
X1497324Y-590174D02*
X1516372Y-580650D01*
X1516372Y-580650D02*
X1544943Y-580650D01*
X1544943Y-580650D02*
X1563991Y-590174D01*
X1563991Y-590174D02*
X1573515Y-609222D01*
X1573515Y-609222D02*
X1573515Y-713984D01*
X1963991Y-504460D02*
X1792563Y-761603D01*
X2221134Y-513984D02*
X2240182Y-513984D01*
X2240182Y-513984D02*
X2259229Y-523508D01*
X2259229Y-523508D02*
X2268753Y-533031D01*
X2268753Y-533031D02*
X2278277Y-552079D01*
X2278277Y-552079D02*
X2287801Y-590174D01*
X2287801Y-590174D02*
X2287801Y-637793D01*
X2287801Y-637793D02*
X2278277Y-675889D01*
X2278277Y-675889D02*
X2268753Y-694936D01*
X2268753Y-694936D02*
X2259229Y-704460D01*
X2259229Y-704460D02*
X2240182Y-713984D01*
X2240182Y-713984D02*
X2221134Y-713984D01*
X2221134Y-713984D02*
X2202087Y-704460D01*
X2202087Y-704460D02*
X2192563Y-694936D01*
X2192563Y-694936D02*
X2183039Y-675889D01*
X2183039Y-675889D02*
X2173515Y-637793D01*
X2173515Y-637793D02*
X2173515Y-590174D01*
X2173515Y-590174D02*
X2183039Y-552079D01*
X2183039Y-552079D02*
X2192563Y-533031D01*
X2192563Y-533031D02*
X2202087Y-523508D01*
X2202087Y-523508D02*
X2221134Y-513984D01*
X2373515Y-694936D02*
X2383039Y-704460D01*
X2383039Y-704460D02*
X2373515Y-713984D01*
X2373515Y-713984D02*
X2363991Y-704460D01*
X2363991Y-704460D02*
X2373515Y-694936D01*
X2373515Y-694936D02*
X2373515Y-713984D01*
X2506848Y-513984D02*
X2525896Y-513984D01*
X2525896Y-513984D02*
X2544944Y-523508D01*
X2544944Y-523508D02*
X2554468Y-533031D01*
X2554468Y-533031D02*
X2563991Y-552079D01*
X2563991Y-552079D02*
X2573515Y-590174D01*
X2573515Y-590174D02*
X2573515Y-637793D01*
X2573515Y-637793D02*
X2563991Y-675889D01*
X2563991Y-675889D02*
X2554468Y-694936D01*
X2554468Y-694936D02*
X2544944Y-704460D01*
X2544944Y-704460D02*
X2525896Y-713984D01*
X2525896Y-713984D02*
X2506848Y-713984D01*
X2506848Y-713984D02*
X2487801Y-704460D01*
X2487801Y-704460D02*
X2478277Y-694936D01*
X2478277Y-694936D02*
X2468753Y-675889D01*
X2468753Y-675889D02*
X2459229Y-637793D01*
X2459229Y-637793D02*
X2459229Y-590174D01*
X2459229Y-590174D02*
X2468753Y-552079D01*
X2468753Y-552079D02*
X2478277Y-533031D01*
X2478277Y-533031D02*
X2487801Y-523508D01*
X2487801Y-523508D02*
X2506848Y-513984D01*
X2744944Y-513984D02*
X2706848Y-513984D01*
X2706848Y-513984D02*
X2687801Y-523508D01*
X2687801Y-523508D02*
X2678277Y-533031D01*
X2678277Y-533031D02*
X2659229Y-561603D01*
X2659229Y-561603D02*
X2649706Y-599698D01*
X2649706Y-599698D02*
X2649706Y-675889D01*
X2649706Y-675889D02*
X2659229Y-694936D01*
X2659229Y-694936D02*
X2668753Y-704460D01*
X2668753Y-704460D02*
X2687801Y-713984D01*
X2687801Y-713984D02*
X2725896Y-713984D01*
X2725896Y-713984D02*
X2744944Y-704460D01*
X2744944Y-704460D02*
X2754468Y-694936D01*
X2754468Y-694936D02*
X2763991Y-675889D01*
X2763991Y-675889D02*
X2763991Y-628270D01*
X2763991Y-628270D02*
X2754468Y-609222D01*
X2754468Y-609222D02*
X2744944Y-599698D01*
X2744944Y-599698D02*
X2725896Y-590174D01*
X2725896Y-590174D02*
X2687801Y-590174D01*
X2687801Y-590174D02*
X2668753Y-599698D01*
X2668753Y-599698D02*
X2659229Y-609222D01*
X2659229Y-609222D02*
X2649706Y-628270D01*
X2830658Y-513984D02*
X2954467Y-513984D01*
X2954467Y-513984D02*
X2887801Y-590174D01*
X2887801Y-590174D02*
X2916372Y-590174D01*
X2916372Y-590174D02*
X2935420Y-599698D01*
X2935420Y-599698D02*
X2944944Y-609222D01*
X2944944Y-609222D02*
X2954467Y-628270D01*
X2954467Y-628270D02*
X2954467Y-675889D01*
X2954467Y-675889D02*
X2944944Y-694936D01*
X2944944Y-694936D02*
X2935420Y-704460D01*
X2935420Y-704460D02*
X2916372Y-713984D01*
X2916372Y-713984D02*
X2859229Y-713984D01*
X2859229Y-713984D02*
X2840182Y-704460D01*
X2840182Y-704460D02*
X2830658Y-694936D01*
X3078277Y-513984D02*
X3097325Y-513984D01*
X3097325Y-513984D02*
X3116372Y-523508D01*
X3116372Y-523508D02*
X3125896Y-533031D01*
X3125896Y-533031D02*
X3135420Y-552079D01*
X3135420Y-552079D02*
X3144944Y-590174D01*
X3144944Y-590174D02*
X3144944Y-637793D01*
X3144944Y-637793D02*
X3135420Y-675889D01*
X3135420Y-675889D02*
X3125896Y-694936D01*
X3125896Y-694936D02*
X3116372Y-704460D01*
X3116372Y-704460D02*
X3097325Y-713984D01*
X3097325Y-713984D02*
X3078277Y-713984D01*
X3078277Y-713984D02*
X3059229Y-704460D01*
X3059229Y-704460D02*
X3049706Y-694936D01*
X3049706Y-694936D02*
X3040182Y-675889D01*
X3040182Y-675889D02*
X3030658Y-637793D01*
X3030658Y-637793D02*
X3030658Y-590174D01*
X3030658Y-590174D02*
X3040182Y-552079D01*
X3040182Y-552079D02*
X3049706Y-533031D01*
X3049706Y-533031D02*
X3059229Y-523508D01*
X3059229Y-523508D02*
X3078277Y-513984D01*
X3221134Y-513984D02*
X3221134Y-552079D01*
X3297325Y-513984D02*
X3297325Y-552079D01*
X3592563Y-790174D02*
X3583039Y-780650D01*
X3583039Y-780650D02*
X3563991Y-752079D01*
X3563991Y-752079D02*
X3554468Y-733031D01*
X3554468Y-733031D02*
X3544944Y-704460D01*
X3544944Y-704460D02*
X3535420Y-656841D01*
X3535420Y-656841D02*
X3535420Y-618746D01*
X3535420Y-618746D02*
X3544944Y-571127D01*
X3544944Y-571127D02*
X3554468Y-542555D01*
X3554468Y-542555D02*
X3563991Y-523508D01*
X3563991Y-523508D02*
X3583039Y-494936D01*
X3583039Y-494936D02*
X3592563Y-485412D01*
X3773515Y-713984D02*
X3659229Y-713984D01*
X3716372Y-713984D02*
X3716372Y-513984D01*
X3716372Y-513984D02*
X3697325Y-542555D01*
X3697325Y-542555D02*
X3678277Y-561603D01*
X3678277Y-561603D02*
X3659229Y-571127D01*
X4011610Y-713984D02*
X4011610Y-513984D01*
X4097325Y-713984D02*
X4097325Y-609222D01*
X4097325Y-609222D02*
X4087801Y-590174D01*
X4087801Y-590174D02*
X4068753Y-580650D01*
X4068753Y-580650D02*
X4040182Y-580650D01*
X4040182Y-580650D02*
X4021134Y-590174D01*
X4021134Y-590174D02*
X4011610Y-599698D01*
X4221134Y-713984D02*
X4202087Y-704460D01*
X4202087Y-704460D02*
X4192563Y-694936D01*
X4192563Y-694936D02*
X4183039Y-675889D01*
X4183039Y-675889D02*
X4183039Y-618746D01*
X4183039Y-618746D02*
X4192563Y-599698D01*
X4192563Y-599698D02*
X4202087Y-590174D01*
X4202087Y-590174D02*
X4221134Y-580650D01*
X4221134Y-580650D02*
X4249706Y-580650D01*
X4249706Y-580650D02*
X4268753Y-590174D01*
X4268753Y-590174D02*
X4278277Y-599698D01*
X4278277Y-599698D02*
X4287801Y-618746D01*
X4287801Y-618746D02*
X4287801Y-675889D01*
X4287801Y-675889D02*
X4278277Y-694936D01*
X4278277Y-694936D02*
X4268753Y-704460D01*
X4268753Y-704460D02*
X4249706Y-713984D01*
X4249706Y-713984D02*
X4221134Y-713984D01*
X4402087Y-713984D02*
X4383039Y-704460D01*
X4383039Y-704460D02*
X4373515Y-685412D01*
X4373515Y-685412D02*
X4373515Y-513984D01*
X4554468Y-704460D02*
X4535420Y-713984D01*
X4535420Y-713984D02*
X4497325Y-713984D01*
X4497325Y-713984D02*
X4478277Y-704460D01*
X4478277Y-704460D02*
X4468753Y-685412D01*
X4468753Y-685412D02*
X4468753Y-609222D01*
X4468753Y-609222D02*
X4478277Y-590174D01*
X4478277Y-590174D02*
X4497325Y-580650D01*
X4497325Y-580650D02*
X4535420Y-580650D01*
X4535420Y-580650D02*
X4554468Y-590174D01*
X4554468Y-590174D02*
X4563992Y-609222D01*
X4563992Y-609222D02*
X4563992Y-628270D01*
X4563992Y-628270D02*
X4468753Y-647317D01*
X4630658Y-790174D02*
X4640182Y-780650D01*
X4640182Y-780650D02*
X4659230Y-752079D01*
X4659230Y-752079D02*
X4668753Y-733031D01*
X4668753Y-733031D02*
X4678277Y-704460D01*
X4678277Y-704460D02*
X4687801Y-656841D01*
X4687801Y-656841D02*
X4687801Y-618746D01*
X4687801Y-618746D02*
X4678277Y-571127D01*
X4678277Y-571127D02*
X4668753Y-542555D01*
X4668753Y-542555D02*
X4659230Y-523508D01*
X4659230Y-523508D02*
X4640182Y-494936D01*
X4640182Y-494936D02*
X4630658Y-485412D01*
X4992563Y-790174D02*
X4983039Y-780650D01*
X4983039Y-780650D02*
X4963992Y-752079D01*
X4963992Y-752079D02*
X4954468Y-733031D01*
X4954468Y-733031D02*
X4944944Y-704460D01*
X4944944Y-704460D02*
X4935420Y-656841D01*
X4935420Y-656841D02*
X4935420Y-618746D01*
X4935420Y-618746D02*
X4944944Y-571127D01*
X4944944Y-571127D02*
X4954468Y-542555D01*
X4954468Y-542555D02*
X4963992Y-523508D01*
X4963992Y-523508D02*
X4983039Y-494936D01*
X4983039Y-494936D02*
X4992563Y-485412D01*
X5068753Y-580650D02*
X5068753Y-713984D01*
X5068753Y-599698D02*
X5078277Y-590174D01*
X5078277Y-590174D02*
X5097325Y-580650D01*
X5097325Y-580650D02*
X5125896Y-580650D01*
X5125896Y-580650D02*
X5144944Y-590174D01*
X5144944Y-590174D02*
X5154468Y-609222D01*
X5154468Y-609222D02*
X5154468Y-713984D01*
X5278277Y-713984D02*
X5259230Y-704460D01*
X5259230Y-704460D02*
X5249706Y-694936D01*
X5249706Y-694936D02*
X5240182Y-675889D01*
X5240182Y-675889D02*
X5240182Y-618746D01*
X5240182Y-618746D02*
X5249706Y-599698D01*
X5249706Y-599698D02*
X5259230Y-590174D01*
X5259230Y-590174D02*
X5278277Y-580650D01*
X5278277Y-580650D02*
X5306849Y-580650D01*
X5306849Y-580650D02*
X5325896Y-590174D01*
X5325896Y-590174D02*
X5335420Y-599698D01*
X5335420Y-599698D02*
X5344944Y-618746D01*
X5344944Y-618746D02*
X5344944Y-675889D01*
X5344944Y-675889D02*
X5335420Y-694936D01*
X5335420Y-694936D02*
X5325896Y-704460D01*
X5325896Y-704460D02*
X5306849Y-713984D01*
X5306849Y-713984D02*
X5278277Y-713984D01*
X5402087Y-580650D02*
X5478277Y-580650D01*
X5430658Y-513984D02*
X5430658Y-685412D01*
X5430658Y-685412D02*
X5440182Y-704460D01*
X5440182Y-704460D02*
X5459230Y-713984D01*
X5459230Y-713984D02*
X5478277Y-713984D01*
X5697325Y-580650D02*
X5697325Y-780650D01*
X5697325Y-590174D02*
X5716372Y-580650D01*
X5716372Y-580650D02*
X5754468Y-580650D01*
X5754468Y-580650D02*
X5773515Y-590174D01*
X5773515Y-590174D02*
X5783039Y-599698D01*
X5783039Y-599698D02*
X5792563Y-618746D01*
X5792563Y-618746D02*
X5792563Y-675889D01*
X5792563Y-675889D02*
X5783039Y-694936D01*
X5783039Y-694936D02*
X5773515Y-704460D01*
X5773515Y-704460D02*
X5754468Y-713984D01*
X5754468Y-713984D02*
X5716372Y-713984D01*
X5716372Y-713984D02*
X5697325Y-704460D01*
X5906849Y-713984D02*
X5887801Y-704460D01*
X5887801Y-704460D02*
X5878277Y-685412D01*
X5878277Y-685412D02*
X5878277Y-513984D01*
X6068753Y-713984D02*
X6068753Y-609222D01*
X6068753Y-609222D02*
X6059230Y-590174D01*
X6059230Y-590174D02*
X6040182Y-580650D01*
X6040182Y-580650D02*
X6002087Y-580650D01*
X6002087Y-580650D02*
X5983039Y-590174D01*
X6068753Y-704460D02*
X6049706Y-713984D01*
X6049706Y-713984D02*
X6002087Y-713984D01*
X6002087Y-713984D02*
X5983039Y-704460D01*
X5983039Y-704460D02*
X5973515Y-685412D01*
X5973515Y-685412D02*
X5973515Y-666365D01*
X5973515Y-666365D02*
X5983039Y-647317D01*
X5983039Y-647317D02*
X6002087Y-637793D01*
X6002087Y-637793D02*
X6049706Y-637793D01*
X6049706Y-637793D02*
X6068753Y-628270D01*
X6135420Y-580650D02*
X6211611Y-580650D01*
X6163992Y-513984D02*
X6163992Y-685412D01*
X6163992Y-685412D02*
X6173515Y-704460D01*
X6173515Y-704460D02*
X6192563Y-713984D01*
X6192563Y-713984D02*
X6211611Y-713984D01*
X6354468Y-704460D02*
X6335420Y-713984D01*
X6335420Y-713984D02*
X6297325Y-713984D01*
X6297325Y-713984D02*
X6278277Y-704460D01*
X6278277Y-704460D02*
X6268753Y-685412D01*
X6268753Y-685412D02*
X6268753Y-609222D01*
X6268753Y-609222D02*
X6278277Y-590174D01*
X6278277Y-590174D02*
X6297325Y-580650D01*
X6297325Y-580650D02*
X6335420Y-580650D01*
X6335420Y-580650D02*
X6354468Y-590174D01*
X6354468Y-590174D02*
X6363992Y-609222D01*
X6363992Y-609222D02*
X6363992Y-628270D01*
X6363992Y-628270D02*
X6268753Y-647317D01*
X6535420Y-713984D02*
X6535420Y-513984D01*
X6535420Y-704460D02*
X6516373Y-713984D01*
X6516373Y-713984D02*
X6478277Y-713984D01*
X6478277Y-713984D02*
X6459230Y-704460D01*
X6459230Y-704460D02*
X6449706Y-694936D01*
X6449706Y-694936D02*
X6440182Y-675889D01*
X6440182Y-675889D02*
X6440182Y-618746D01*
X6440182Y-618746D02*
X6449706Y-599698D01*
X6449706Y-599698D02*
X6459230Y-590174D01*
X6459230Y-590174D02*
X6478277Y-580650D01*
X6478277Y-580650D02*
X6516373Y-580650D01*
X6516373Y-580650D02*
X6535420Y-590174D01*
X6611611Y-790174D02*
X6621134Y-780650D01*
X6621134Y-780650D02*
X6640182Y-752079D01*
X6640182Y-752079D02*
X6649706Y-733031D01*
X6649706Y-733031D02*
X6659230Y-704460D01*
X6659230Y-704460D02*
X6668753Y-656841D01*
X6668753Y-656841D02*
X6668753Y-618746D01*
X6668753Y-618746D02*
X6659230Y-571127D01*
X6659230Y-571127D02*
X6649706Y-542555D01*
X6649706Y-542555D02*
X6640182Y-523508D01*
X6640182Y-523508D02*
X6621134Y-494936D01*
X6621134Y-494936D02*
X6611611Y-485412D01*
D13*
X17500Y-902500D02*
G75*
G03*
X17500Y-902500I-90000J0D01*
G01*
D11*
X383039Y-993984D02*
X268753Y-993984D01*
X325896Y-993984D02*
X325896Y-793984D01*
X325896Y-793984D02*
X306848Y-822555D01*
X306848Y-822555D02*
X287801Y-841603D01*
X287801Y-841603D02*
X268753Y-851127D01*
X468753Y-974936D02*
X478277Y-984460D01*
X478277Y-984460D02*
X468753Y-993984D01*
X468753Y-993984D02*
X459229Y-984460D01*
X459229Y-984460D02*
X468753Y-974936D01*
X468753Y-974936D02*
X468753Y-993984D01*
X592563Y-879698D02*
X573515Y-870174D01*
X573515Y-870174D02*
X563991Y-860650D01*
X563991Y-860650D02*
X554467Y-841603D01*
X554467Y-841603D02*
X554467Y-832079D01*
X554467Y-832079D02*
X563991Y-813031D01*
X563991Y-813031D02*
X573515Y-803508D01*
X573515Y-803508D02*
X592563Y-793984D01*
X592563Y-793984D02*
X630658Y-793984D01*
X630658Y-793984D02*
X649705Y-803508D01*
X649705Y-803508D02*
X659229Y-813031D01*
X659229Y-813031D02*
X668753Y-832079D01*
X668753Y-832079D02*
X668753Y-841603D01*
X668753Y-841603D02*
X659229Y-860650D01*
X659229Y-860650D02*
X649705Y-870174D01*
X649705Y-870174D02*
X630658Y-879698D01*
X630658Y-879698D02*
X592563Y-879698D01*
X592563Y-879698D02*
X573515Y-889222D01*
X573515Y-889222D02*
X563991Y-898746D01*
X563991Y-898746D02*
X554467Y-917793D01*
X554467Y-917793D02*
X554467Y-955888D01*
X554467Y-955888D02*
X563991Y-974936D01*
X563991Y-974936D02*
X573515Y-984460D01*
X573515Y-984460D02*
X592563Y-993984D01*
X592563Y-993984D02*
X630658Y-993984D01*
X630658Y-993984D02*
X649705Y-984460D01*
X649705Y-984460D02*
X659229Y-974936D01*
X659229Y-974936D02*
X668753Y-955888D01*
X668753Y-955888D02*
X668753Y-917793D01*
X668753Y-917793D02*
X659229Y-898746D01*
X659229Y-898746D02*
X649705Y-889222D01*
X649705Y-889222D02*
X630658Y-879698D01*
X792562Y-793984D02*
X811610Y-793984D01*
X811610Y-793984D02*
X830658Y-803508D01*
X830658Y-803508D02*
X840182Y-813031D01*
X840182Y-813031D02*
X849705Y-832079D01*
X849705Y-832079D02*
X859229Y-870174D01*
X859229Y-870174D02*
X859229Y-917793D01*
X859229Y-917793D02*
X849705Y-955888D01*
X849705Y-955888D02*
X840182Y-974936D01*
X840182Y-974936D02*
X830658Y-984460D01*
X830658Y-984460D02*
X811610Y-993984D01*
X811610Y-993984D02*
X792562Y-993984D01*
X792562Y-993984D02*
X773515Y-984460D01*
X773515Y-984460D02*
X763991Y-974936D01*
X763991Y-974936D02*
X754467Y-955888D01*
X754467Y-955888D02*
X744943Y-917793D01*
X744943Y-917793D02*
X744943Y-870174D01*
X744943Y-870174D02*
X754467Y-832079D01*
X754467Y-832079D02*
X763991Y-813031D01*
X763991Y-813031D02*
X773515Y-803508D01*
X773515Y-803508D02*
X792562Y-793984D01*
X983039Y-793984D02*
X1002086Y-793984D01*
X1002086Y-793984D02*
X1021134Y-803508D01*
X1021134Y-803508D02*
X1030658Y-813031D01*
X1030658Y-813031D02*
X1040182Y-832079D01*
X1040182Y-832079D02*
X1049705Y-870174D01*
X1049705Y-870174D02*
X1049705Y-917793D01*
X1049705Y-917793D02*
X1040182Y-955888D01*
X1040182Y-955888D02*
X1030658Y-974936D01*
X1030658Y-974936D02*
X1021134Y-984460D01*
X1021134Y-984460D02*
X1002086Y-993984D01*
X1002086Y-993984D02*
X983039Y-993984D01*
X983039Y-993984D02*
X963991Y-984460D01*
X963991Y-984460D02*
X954467Y-974936D01*
X954467Y-974936D02*
X944943Y-955888D01*
X944943Y-955888D02*
X935420Y-917793D01*
X935420Y-917793D02*
X935420Y-870174D01*
X935420Y-870174D02*
X944943Y-832079D01*
X944943Y-832079D02*
X954467Y-813031D01*
X954467Y-813031D02*
X963991Y-803508D01*
X963991Y-803508D02*
X983039Y-793984D01*
X1135420Y-993984D02*
X1135420Y-860650D01*
X1135420Y-879698D02*
X1144944Y-870174D01*
X1144944Y-870174D02*
X1163991Y-860650D01*
X1163991Y-860650D02*
X1192563Y-860650D01*
X1192563Y-860650D02*
X1211610Y-870174D01*
X1211610Y-870174D02*
X1221134Y-889222D01*
X1221134Y-889222D02*
X1221134Y-993984D01*
X1221134Y-889222D02*
X1230658Y-870174D01*
X1230658Y-870174D02*
X1249705Y-860650D01*
X1249705Y-860650D02*
X1278277Y-860650D01*
X1278277Y-860650D02*
X1297325Y-870174D01*
X1297325Y-870174D02*
X1306848Y-889222D01*
X1306848Y-889222D02*
X1306848Y-993984D01*
X1402086Y-993984D02*
X1402086Y-860650D01*
X1402086Y-879698D02*
X1411610Y-870174D01*
X1411610Y-870174D02*
X1430658Y-860650D01*
X1430658Y-860650D02*
X1459229Y-860650D01*
X1459229Y-860650D02*
X1478277Y-870174D01*
X1478277Y-870174D02*
X1487801Y-889222D01*
X1487801Y-889222D02*
X1487801Y-993984D01*
X1487801Y-889222D02*
X1497324Y-870174D01*
X1497324Y-870174D02*
X1516372Y-860650D01*
X1516372Y-860650D02*
X1544943Y-860650D01*
X1544943Y-860650D02*
X1563991Y-870174D01*
X1563991Y-870174D02*
X1573515Y-889222D01*
X1573515Y-889222D02*
X1573515Y-993984D01*
X1963991Y-784460D02*
X1792563Y-1041603D01*
X2221134Y-793984D02*
X2240182Y-793984D01*
X2240182Y-793984D02*
X2259229Y-803508D01*
X2259229Y-803508D02*
X2268753Y-813031D01*
X2268753Y-813031D02*
X2278277Y-832079D01*
X2278277Y-832079D02*
X2287801Y-870174D01*
X2287801Y-870174D02*
X2287801Y-917793D01*
X2287801Y-917793D02*
X2278277Y-955888D01*
X2278277Y-955888D02*
X2268753Y-974936D01*
X2268753Y-974936D02*
X2259229Y-984460D01*
X2259229Y-984460D02*
X2240182Y-993984D01*
X2240182Y-993984D02*
X2221134Y-993984D01*
X2221134Y-993984D02*
X2202087Y-984460D01*
X2202087Y-984460D02*
X2192563Y-974936D01*
X2192563Y-974936D02*
X2183039Y-955888D01*
X2183039Y-955888D02*
X2173515Y-917793D01*
X2173515Y-917793D02*
X2173515Y-870174D01*
X2173515Y-870174D02*
X2183039Y-832079D01*
X2183039Y-832079D02*
X2192563Y-813031D01*
X2192563Y-813031D02*
X2202087Y-803508D01*
X2202087Y-803508D02*
X2221134Y-793984D01*
X2373515Y-974936D02*
X2383039Y-984460D01*
X2383039Y-984460D02*
X2373515Y-993984D01*
X2373515Y-993984D02*
X2363991Y-984460D01*
X2363991Y-984460D02*
X2373515Y-974936D01*
X2373515Y-974936D02*
X2373515Y-993984D01*
X2506848Y-793984D02*
X2525896Y-793984D01*
X2525896Y-793984D02*
X2544944Y-803508D01*
X2544944Y-803508D02*
X2554468Y-813031D01*
X2554468Y-813031D02*
X2563991Y-832079D01*
X2563991Y-832079D02*
X2573515Y-870174D01*
X2573515Y-870174D02*
X2573515Y-917793D01*
X2573515Y-917793D02*
X2563991Y-955888D01*
X2563991Y-955888D02*
X2554468Y-974936D01*
X2554468Y-974936D02*
X2544944Y-984460D01*
X2544944Y-984460D02*
X2525896Y-993984D01*
X2525896Y-993984D02*
X2506848Y-993984D01*
X2506848Y-993984D02*
X2487801Y-984460D01*
X2487801Y-984460D02*
X2478277Y-974936D01*
X2478277Y-974936D02*
X2468753Y-955888D01*
X2468753Y-955888D02*
X2459229Y-917793D01*
X2459229Y-917793D02*
X2459229Y-870174D01*
X2459229Y-870174D02*
X2468753Y-832079D01*
X2468753Y-832079D02*
X2478277Y-813031D01*
X2478277Y-813031D02*
X2487801Y-803508D01*
X2487801Y-803508D02*
X2506848Y-793984D01*
X2640182Y-793984D02*
X2773515Y-793984D01*
X2773515Y-793984D02*
X2687801Y-993984D01*
X2887801Y-793984D02*
X2906848Y-793984D01*
X2906848Y-793984D02*
X2925896Y-803508D01*
X2925896Y-803508D02*
X2935420Y-813031D01*
X2935420Y-813031D02*
X2944944Y-832079D01*
X2944944Y-832079D02*
X2954467Y-870174D01*
X2954467Y-870174D02*
X2954467Y-917793D01*
X2954467Y-917793D02*
X2944944Y-955888D01*
X2944944Y-955888D02*
X2935420Y-974936D01*
X2935420Y-974936D02*
X2925896Y-984460D01*
X2925896Y-984460D02*
X2906848Y-993984D01*
X2906848Y-993984D02*
X2887801Y-993984D01*
X2887801Y-993984D02*
X2868753Y-984460D01*
X2868753Y-984460D02*
X2859229Y-974936D01*
X2859229Y-974936D02*
X2849706Y-955888D01*
X2849706Y-955888D02*
X2840182Y-917793D01*
X2840182Y-917793D02*
X2840182Y-870174D01*
X2840182Y-870174D02*
X2849706Y-832079D01*
X2849706Y-832079D02*
X2859229Y-813031D01*
X2859229Y-813031D02*
X2868753Y-803508D01*
X2868753Y-803508D02*
X2887801Y-793984D01*
X3049706Y-993984D02*
X3087801Y-993984D01*
X3087801Y-993984D02*
X3106848Y-984460D01*
X3106848Y-984460D02*
X3116372Y-974936D01*
X3116372Y-974936D02*
X3135420Y-946365D01*
X3135420Y-946365D02*
X3144944Y-908269D01*
X3144944Y-908269D02*
X3144944Y-832079D01*
X3144944Y-832079D02*
X3135420Y-813031D01*
X3135420Y-813031D02*
X3125896Y-803508D01*
X3125896Y-803508D02*
X3106848Y-793984D01*
X3106848Y-793984D02*
X3068753Y-793984D01*
X3068753Y-793984D02*
X3049706Y-803508D01*
X3049706Y-803508D02*
X3040182Y-813031D01*
X3040182Y-813031D02*
X3030658Y-832079D01*
X3030658Y-832079D02*
X3030658Y-879698D01*
X3030658Y-879698D02*
X3040182Y-898746D01*
X3040182Y-898746D02*
X3049706Y-908269D01*
X3049706Y-908269D02*
X3068753Y-917793D01*
X3068753Y-917793D02*
X3106848Y-917793D01*
X3106848Y-917793D02*
X3125896Y-908269D01*
X3125896Y-908269D02*
X3135420Y-898746D01*
X3135420Y-898746D02*
X3144944Y-879698D01*
X3221134Y-793984D02*
X3221134Y-832079D01*
X3297325Y-793984D02*
X3297325Y-832079D01*
X3592563Y-1070174D02*
X3583039Y-1060650D01*
X3583039Y-1060650D02*
X3563991Y-1032079D01*
X3563991Y-1032079D02*
X3554468Y-1013031D01*
X3554468Y-1013031D02*
X3544944Y-984460D01*
X3544944Y-984460D02*
X3535420Y-936841D01*
X3535420Y-936841D02*
X3535420Y-898746D01*
X3535420Y-898746D02*
X3544944Y-851127D01*
X3544944Y-851127D02*
X3554468Y-822555D01*
X3554468Y-822555D02*
X3563991Y-803508D01*
X3563991Y-803508D02*
X3583039Y-774936D01*
X3583039Y-774936D02*
X3592563Y-765412D01*
X3773515Y-993984D02*
X3659229Y-993984D01*
X3716372Y-993984D02*
X3716372Y-793984D01*
X3716372Y-793984D02*
X3697325Y-822555D01*
X3697325Y-822555D02*
X3678277Y-841603D01*
X3678277Y-841603D02*
X3659229Y-851127D01*
X4011610Y-993984D02*
X4011610Y-793984D01*
X4097325Y-993984D02*
X4097325Y-889222D01*
X4097325Y-889222D02*
X4087801Y-870174D01*
X4087801Y-870174D02*
X4068753Y-860650D01*
X4068753Y-860650D02*
X4040182Y-860650D01*
X4040182Y-860650D02*
X4021134Y-870174D01*
X4021134Y-870174D02*
X4011610Y-879698D01*
X4221134Y-993984D02*
X4202087Y-984460D01*
X4202087Y-984460D02*
X4192563Y-974936D01*
X4192563Y-974936D02*
X4183039Y-955888D01*
X4183039Y-955888D02*
X4183039Y-898746D01*
X4183039Y-898746D02*
X4192563Y-879698D01*
X4192563Y-879698D02*
X4202087Y-870174D01*
X4202087Y-870174D02*
X4221134Y-860650D01*
X4221134Y-860650D02*
X4249706Y-860650D01*
X4249706Y-860650D02*
X4268753Y-870174D01*
X4268753Y-870174D02*
X4278277Y-879698D01*
X4278277Y-879698D02*
X4287801Y-898746D01*
X4287801Y-898746D02*
X4287801Y-955888D01*
X4287801Y-955888D02*
X4278277Y-974936D01*
X4278277Y-974936D02*
X4268753Y-984460D01*
X4268753Y-984460D02*
X4249706Y-993984D01*
X4249706Y-993984D02*
X4221134Y-993984D01*
X4402087Y-993984D02*
X4383039Y-984460D01*
X4383039Y-984460D02*
X4373515Y-965412D01*
X4373515Y-965412D02*
X4373515Y-793984D01*
X4554468Y-984460D02*
X4535420Y-993984D01*
X4535420Y-993984D02*
X4497325Y-993984D01*
X4497325Y-993984D02*
X4478277Y-984460D01*
X4478277Y-984460D02*
X4468753Y-965412D01*
X4468753Y-965412D02*
X4468753Y-889222D01*
X4468753Y-889222D02*
X4478277Y-870174D01*
X4478277Y-870174D02*
X4497325Y-860650D01*
X4497325Y-860650D02*
X4535420Y-860650D01*
X4535420Y-860650D02*
X4554468Y-870174D01*
X4554468Y-870174D02*
X4563992Y-889222D01*
X4563992Y-889222D02*
X4563992Y-908269D01*
X4563992Y-908269D02*
X4468753Y-927317D01*
X4630658Y-1070174D02*
X4640182Y-1060650D01*
X4640182Y-1060650D02*
X4659230Y-1032079D01*
X4659230Y-1032079D02*
X4668753Y-1013031D01*
X4668753Y-1013031D02*
X4678277Y-984460D01*
X4678277Y-984460D02*
X4687801Y-936841D01*
X4687801Y-936841D02*
X4687801Y-898746D01*
X4687801Y-898746D02*
X4678277Y-851127D01*
X4678277Y-851127D02*
X4668753Y-822555D01*
X4668753Y-822555D02*
X4659230Y-803508D01*
X4659230Y-803508D02*
X4640182Y-774936D01*
X4640182Y-774936D02*
X4630658Y-765412D01*
X4992563Y-1070174D02*
X4983039Y-1060650D01*
X4983039Y-1060650D02*
X4963992Y-1032079D01*
X4963992Y-1032079D02*
X4954468Y-1013031D01*
X4954468Y-1013031D02*
X4944944Y-984460D01*
X4944944Y-984460D02*
X4935420Y-936841D01*
X4935420Y-936841D02*
X4935420Y-898746D01*
X4935420Y-898746D02*
X4944944Y-851127D01*
X4944944Y-851127D02*
X4954468Y-822555D01*
X4954468Y-822555D02*
X4963992Y-803508D01*
X4963992Y-803508D02*
X4983039Y-774936D01*
X4983039Y-774936D02*
X4992563Y-765412D01*
X5068753Y-860650D02*
X5068753Y-993984D01*
X5068753Y-879698D02*
X5078277Y-870174D01*
X5078277Y-870174D02*
X5097325Y-860650D01*
X5097325Y-860650D02*
X5125896Y-860650D01*
X5125896Y-860650D02*
X5144944Y-870174D01*
X5144944Y-870174D02*
X5154468Y-889222D01*
X5154468Y-889222D02*
X5154468Y-993984D01*
X5278277Y-993984D02*
X5259230Y-984460D01*
X5259230Y-984460D02*
X5249706Y-974936D01*
X5249706Y-974936D02*
X5240182Y-955888D01*
X5240182Y-955888D02*
X5240182Y-898746D01*
X5240182Y-898746D02*
X5249706Y-879698D01*
X5249706Y-879698D02*
X5259230Y-870174D01*
X5259230Y-870174D02*
X5278277Y-860650D01*
X5278277Y-860650D02*
X5306849Y-860650D01*
X5306849Y-860650D02*
X5325896Y-870174D01*
X5325896Y-870174D02*
X5335420Y-879698D01*
X5335420Y-879698D02*
X5344944Y-898746D01*
X5344944Y-898746D02*
X5344944Y-955888D01*
X5344944Y-955888D02*
X5335420Y-974936D01*
X5335420Y-974936D02*
X5325896Y-984460D01*
X5325896Y-984460D02*
X5306849Y-993984D01*
X5306849Y-993984D02*
X5278277Y-993984D01*
X5402087Y-860650D02*
X5478277Y-860650D01*
X5430658Y-793984D02*
X5430658Y-965412D01*
X5430658Y-965412D02*
X5440182Y-984460D01*
X5440182Y-984460D02*
X5459230Y-993984D01*
X5459230Y-993984D02*
X5478277Y-993984D01*
X5697325Y-860650D02*
X5697325Y-1060650D01*
X5697325Y-870174D02*
X5716372Y-860650D01*
X5716372Y-860650D02*
X5754468Y-860650D01*
X5754468Y-860650D02*
X5773515Y-870174D01*
X5773515Y-870174D02*
X5783039Y-879698D01*
X5783039Y-879698D02*
X5792563Y-898746D01*
X5792563Y-898746D02*
X5792563Y-955888D01*
X5792563Y-955888D02*
X5783039Y-974936D01*
X5783039Y-974936D02*
X5773515Y-984460D01*
X5773515Y-984460D02*
X5754468Y-993984D01*
X5754468Y-993984D02*
X5716372Y-993984D01*
X5716372Y-993984D02*
X5697325Y-984460D01*
X5906849Y-993984D02*
X5887801Y-984460D01*
X5887801Y-984460D02*
X5878277Y-965412D01*
X5878277Y-965412D02*
X5878277Y-793984D01*
X6068753Y-993984D02*
X6068753Y-889222D01*
X6068753Y-889222D02*
X6059230Y-870174D01*
X6059230Y-870174D02*
X6040182Y-860650D01*
X6040182Y-860650D02*
X6002087Y-860650D01*
X6002087Y-860650D02*
X5983039Y-870174D01*
X6068753Y-984460D02*
X6049706Y-993984D01*
X6049706Y-993984D02*
X6002087Y-993984D01*
X6002087Y-993984D02*
X5983039Y-984460D01*
X5983039Y-984460D02*
X5973515Y-965412D01*
X5973515Y-965412D02*
X5973515Y-946365D01*
X5973515Y-946365D02*
X5983039Y-927317D01*
X5983039Y-927317D02*
X6002087Y-917793D01*
X6002087Y-917793D02*
X6049706Y-917793D01*
X6049706Y-917793D02*
X6068753Y-908269D01*
X6135420Y-860650D02*
X6211611Y-860650D01*
X6163992Y-793984D02*
X6163992Y-965412D01*
X6163992Y-965412D02*
X6173515Y-984460D01*
X6173515Y-984460D02*
X6192563Y-993984D01*
X6192563Y-993984D02*
X6211611Y-993984D01*
X6354468Y-984460D02*
X6335420Y-993984D01*
X6335420Y-993984D02*
X6297325Y-993984D01*
X6297325Y-993984D02*
X6278277Y-984460D01*
X6278277Y-984460D02*
X6268753Y-965412D01*
X6268753Y-965412D02*
X6268753Y-889222D01*
X6268753Y-889222D02*
X6278277Y-870174D01*
X6278277Y-870174D02*
X6297325Y-860650D01*
X6297325Y-860650D02*
X6335420Y-860650D01*
X6335420Y-860650D02*
X6354468Y-870174D01*
X6354468Y-870174D02*
X6363992Y-889222D01*
X6363992Y-889222D02*
X6363992Y-908269D01*
X6363992Y-908269D02*
X6268753Y-927317D01*
X6535420Y-993984D02*
X6535420Y-793984D01*
X6535420Y-984460D02*
X6516373Y-993984D01*
X6516373Y-993984D02*
X6478277Y-993984D01*
X6478277Y-993984D02*
X6459230Y-984460D01*
X6459230Y-984460D02*
X6449706Y-974936D01*
X6449706Y-974936D02*
X6440182Y-955888D01*
X6440182Y-955888D02*
X6440182Y-898746D01*
X6440182Y-898746D02*
X6449706Y-879698D01*
X6449706Y-879698D02*
X6459230Y-870174D01*
X6459230Y-870174D02*
X6478277Y-860650D01*
X6478277Y-860650D02*
X6516373Y-860650D01*
X6516373Y-860650D02*
X6535420Y-870174D01*
X6611611Y-1070174D02*
X6621134Y-1060650D01*
X6621134Y-1060650D02*
X6640182Y-1032079D01*
X6640182Y-1032079D02*
X6649706Y-1013031D01*
X6649706Y-1013031D02*
X6659230Y-984460D01*
X6659230Y-984460D02*
X6668753Y-936841D01*
X6668753Y-936841D02*
X6668753Y-898746D01*
X6668753Y-898746D02*
X6659230Y-851127D01*
X6659230Y-851127D02*
X6649706Y-822555D01*
X6649706Y-822555D02*
X6640182Y-803508D01*
X6640182Y-803508D02*
X6621134Y-774936D01*
X6621134Y-774936D02*
X6611611Y-765412D01*
X-82500Y-1102500D02*
X-82500Y-1302500D01*
X-182500Y-1202500D02*
X17500Y-1202500D01*
X268753Y-1113031D02*
X278277Y-1103508D01*
X278277Y-1103508D02*
X297324Y-1093984D01*
X297324Y-1093984D02*
X344944Y-1093984D01*
X344944Y-1093984D02*
X363991Y-1103508D01*
X363991Y-1103508D02*
X373515Y-1113031D01*
X373515Y-1113031D02*
X383039Y-1132079D01*
X383039Y-1132079D02*
X383039Y-1151127D01*
X383039Y-1151127D02*
X373515Y-1179698D01*
X373515Y-1179698D02*
X259229Y-1293984D01*
X259229Y-1293984D02*
X383039Y-1293984D01*
X468753Y-1274936D02*
X478277Y-1284460D01*
X478277Y-1284460D02*
X468753Y-1293984D01*
X468753Y-1293984D02*
X459229Y-1284460D01*
X459229Y-1284460D02*
X468753Y-1274936D01*
X468753Y-1274936D02*
X468753Y-1293984D01*
X554467Y-1113031D02*
X563991Y-1103508D01*
X563991Y-1103508D02*
X583039Y-1093984D01*
X583039Y-1093984D02*
X630658Y-1093984D01*
X630658Y-1093984D02*
X649705Y-1103508D01*
X649705Y-1103508D02*
X659229Y-1113031D01*
X659229Y-1113031D02*
X668753Y-1132079D01*
X668753Y-1132079D02*
X668753Y-1151127D01*
X668753Y-1151127D02*
X659229Y-1179698D01*
X659229Y-1179698D02*
X544944Y-1293984D01*
X544944Y-1293984D02*
X668753Y-1293984D01*
X792562Y-1093984D02*
X811610Y-1093984D01*
X811610Y-1093984D02*
X830658Y-1103508D01*
X830658Y-1103508D02*
X840182Y-1113031D01*
X840182Y-1113031D02*
X849705Y-1132079D01*
X849705Y-1132079D02*
X859229Y-1170174D01*
X859229Y-1170174D02*
X859229Y-1217793D01*
X859229Y-1217793D02*
X849705Y-1255889D01*
X849705Y-1255889D02*
X840182Y-1274936D01*
X840182Y-1274936D02*
X830658Y-1284460D01*
X830658Y-1284460D02*
X811610Y-1293984D01*
X811610Y-1293984D02*
X792562Y-1293984D01*
X792562Y-1293984D02*
X773515Y-1284460D01*
X773515Y-1284460D02*
X763991Y-1274936D01*
X763991Y-1274936D02*
X754467Y-1255889D01*
X754467Y-1255889D02*
X744943Y-1217793D01*
X744943Y-1217793D02*
X744943Y-1170174D01*
X744943Y-1170174D02*
X754467Y-1132079D01*
X754467Y-1132079D02*
X763991Y-1113031D01*
X763991Y-1113031D02*
X773515Y-1103508D01*
X773515Y-1103508D02*
X792562Y-1093984D01*
X983039Y-1093984D02*
X1002086Y-1093984D01*
X1002086Y-1093984D02*
X1021134Y-1103508D01*
X1021134Y-1103508D02*
X1030658Y-1113031D01*
X1030658Y-1113031D02*
X1040182Y-1132079D01*
X1040182Y-1132079D02*
X1049705Y-1170174D01*
X1049705Y-1170174D02*
X1049705Y-1217793D01*
X1049705Y-1217793D02*
X1040182Y-1255889D01*
X1040182Y-1255889D02*
X1030658Y-1274936D01*
X1030658Y-1274936D02*
X1021134Y-1284460D01*
X1021134Y-1284460D02*
X1002086Y-1293984D01*
X1002086Y-1293984D02*
X983039Y-1293984D01*
X983039Y-1293984D02*
X963991Y-1284460D01*
X963991Y-1284460D02*
X954467Y-1274936D01*
X954467Y-1274936D02*
X944943Y-1255889D01*
X944943Y-1255889D02*
X935420Y-1217793D01*
X935420Y-1217793D02*
X935420Y-1170174D01*
X935420Y-1170174D02*
X944943Y-1132079D01*
X944943Y-1132079D02*
X954467Y-1113031D01*
X954467Y-1113031D02*
X963991Y-1103508D01*
X963991Y-1103508D02*
X983039Y-1093984D01*
X1135420Y-1293984D02*
X1135420Y-1160650D01*
X1135420Y-1179698D02*
X1144944Y-1170174D01*
X1144944Y-1170174D02*
X1163991Y-1160650D01*
X1163991Y-1160650D02*
X1192563Y-1160650D01*
X1192563Y-1160650D02*
X1211610Y-1170174D01*
X1211610Y-1170174D02*
X1221134Y-1189222D01*
X1221134Y-1189222D02*
X1221134Y-1293984D01*
X1221134Y-1189222D02*
X1230658Y-1170174D01*
X1230658Y-1170174D02*
X1249705Y-1160650D01*
X1249705Y-1160650D02*
X1278277Y-1160650D01*
X1278277Y-1160650D02*
X1297325Y-1170174D01*
X1297325Y-1170174D02*
X1306848Y-1189222D01*
X1306848Y-1189222D02*
X1306848Y-1293984D01*
X1402086Y-1293984D02*
X1402086Y-1160650D01*
X1402086Y-1179698D02*
X1411610Y-1170174D01*
X1411610Y-1170174D02*
X1430658Y-1160650D01*
X1430658Y-1160650D02*
X1459229Y-1160650D01*
X1459229Y-1160650D02*
X1478277Y-1170174D01*
X1478277Y-1170174D02*
X1487801Y-1189222D01*
X1487801Y-1189222D02*
X1487801Y-1293984D01*
X1487801Y-1189222D02*
X1497324Y-1170174D01*
X1497324Y-1170174D02*
X1516372Y-1160650D01*
X1516372Y-1160650D02*
X1544943Y-1160650D01*
X1544943Y-1160650D02*
X1563991Y-1170174D01*
X1563991Y-1170174D02*
X1573515Y-1189222D01*
X1573515Y-1189222D02*
X1573515Y-1293984D01*
X1963991Y-1084460D02*
X1792563Y-1341603D01*
X2221134Y-1093984D02*
X2240182Y-1093984D01*
X2240182Y-1093984D02*
X2259229Y-1103508D01*
X2259229Y-1103508D02*
X2268753Y-1113031D01*
X2268753Y-1113031D02*
X2278277Y-1132079D01*
X2278277Y-1132079D02*
X2287801Y-1170174D01*
X2287801Y-1170174D02*
X2287801Y-1217793D01*
X2287801Y-1217793D02*
X2278277Y-1255889D01*
X2278277Y-1255889D02*
X2268753Y-1274936D01*
X2268753Y-1274936D02*
X2259229Y-1284460D01*
X2259229Y-1284460D02*
X2240182Y-1293984D01*
X2240182Y-1293984D02*
X2221134Y-1293984D01*
X2221134Y-1293984D02*
X2202087Y-1284460D01*
X2202087Y-1284460D02*
X2192563Y-1274936D01*
X2192563Y-1274936D02*
X2183039Y-1255889D01*
X2183039Y-1255889D02*
X2173515Y-1217793D01*
X2173515Y-1217793D02*
X2173515Y-1170174D01*
X2173515Y-1170174D02*
X2183039Y-1132079D01*
X2183039Y-1132079D02*
X2192563Y-1113031D01*
X2192563Y-1113031D02*
X2202087Y-1103508D01*
X2202087Y-1103508D02*
X2221134Y-1093984D01*
X2373515Y-1274936D02*
X2383039Y-1284460D01*
X2383039Y-1284460D02*
X2373515Y-1293984D01*
X2373515Y-1293984D02*
X2363991Y-1284460D01*
X2363991Y-1284460D02*
X2373515Y-1274936D01*
X2373515Y-1274936D02*
X2373515Y-1293984D01*
X2506848Y-1093984D02*
X2525896Y-1093984D01*
X2525896Y-1093984D02*
X2544944Y-1103508D01*
X2544944Y-1103508D02*
X2554468Y-1113031D01*
X2554468Y-1113031D02*
X2563991Y-1132079D01*
X2563991Y-1132079D02*
X2573515Y-1170174D01*
X2573515Y-1170174D02*
X2573515Y-1217793D01*
X2573515Y-1217793D02*
X2563991Y-1255889D01*
X2563991Y-1255889D02*
X2554468Y-1274936D01*
X2554468Y-1274936D02*
X2544944Y-1284460D01*
X2544944Y-1284460D02*
X2525896Y-1293984D01*
X2525896Y-1293984D02*
X2506848Y-1293984D01*
X2506848Y-1293984D02*
X2487801Y-1284460D01*
X2487801Y-1284460D02*
X2478277Y-1274936D01*
X2478277Y-1274936D02*
X2468753Y-1255889D01*
X2468753Y-1255889D02*
X2459229Y-1217793D01*
X2459229Y-1217793D02*
X2459229Y-1170174D01*
X2459229Y-1170174D02*
X2468753Y-1132079D01*
X2468753Y-1132079D02*
X2478277Y-1113031D01*
X2478277Y-1113031D02*
X2487801Y-1103508D01*
X2487801Y-1103508D02*
X2506848Y-1093984D01*
X2687801Y-1179698D02*
X2668753Y-1170174D01*
X2668753Y-1170174D02*
X2659229Y-1160650D01*
X2659229Y-1160650D02*
X2649706Y-1141603D01*
X2649706Y-1141603D02*
X2649706Y-1132079D01*
X2649706Y-1132079D02*
X2659229Y-1113031D01*
X2659229Y-1113031D02*
X2668753Y-1103508D01*
X2668753Y-1103508D02*
X2687801Y-1093984D01*
X2687801Y-1093984D02*
X2725896Y-1093984D01*
X2725896Y-1093984D02*
X2744944Y-1103508D01*
X2744944Y-1103508D02*
X2754468Y-1113031D01*
X2754468Y-1113031D02*
X2763991Y-1132079D01*
X2763991Y-1132079D02*
X2763991Y-1141603D01*
X2763991Y-1141603D02*
X2754468Y-1160650D01*
X2754468Y-1160650D02*
X2744944Y-1170174D01*
X2744944Y-1170174D02*
X2725896Y-1179698D01*
X2725896Y-1179698D02*
X2687801Y-1179698D01*
X2687801Y-1179698D02*
X2668753Y-1189222D01*
X2668753Y-1189222D02*
X2659229Y-1198746D01*
X2659229Y-1198746D02*
X2649706Y-1217793D01*
X2649706Y-1217793D02*
X2649706Y-1255889D01*
X2649706Y-1255889D02*
X2659229Y-1274936D01*
X2659229Y-1274936D02*
X2668753Y-1284460D01*
X2668753Y-1284460D02*
X2687801Y-1293984D01*
X2687801Y-1293984D02*
X2725896Y-1293984D01*
X2725896Y-1293984D02*
X2744944Y-1284460D01*
X2744944Y-1284460D02*
X2754468Y-1274936D01*
X2754468Y-1274936D02*
X2763991Y-1255889D01*
X2763991Y-1255889D02*
X2763991Y-1217793D01*
X2763991Y-1217793D02*
X2754468Y-1198746D01*
X2754468Y-1198746D02*
X2744944Y-1189222D01*
X2744944Y-1189222D02*
X2725896Y-1179698D01*
X2935420Y-1093984D02*
X2897325Y-1093984D01*
X2897325Y-1093984D02*
X2878277Y-1103508D01*
X2878277Y-1103508D02*
X2868753Y-1113031D01*
X2868753Y-1113031D02*
X2849706Y-1141603D01*
X2849706Y-1141603D02*
X2840182Y-1179698D01*
X2840182Y-1179698D02*
X2840182Y-1255889D01*
X2840182Y-1255889D02*
X2849706Y-1274936D01*
X2849706Y-1274936D02*
X2859229Y-1284460D01*
X2859229Y-1284460D02*
X2878277Y-1293984D01*
X2878277Y-1293984D02*
X2916372Y-1293984D01*
X2916372Y-1293984D02*
X2935420Y-1284460D01*
X2935420Y-1284460D02*
X2944944Y-1274936D01*
X2944944Y-1274936D02*
X2954467Y-1255889D01*
X2954467Y-1255889D02*
X2954467Y-1208270D01*
X2954467Y-1208270D02*
X2944944Y-1189222D01*
X2944944Y-1189222D02*
X2935420Y-1179698D01*
X2935420Y-1179698D02*
X2916372Y-1170174D01*
X2916372Y-1170174D02*
X2878277Y-1170174D01*
X2878277Y-1170174D02*
X2859229Y-1179698D01*
X2859229Y-1179698D02*
X2849706Y-1189222D01*
X2849706Y-1189222D02*
X2840182Y-1208270D01*
X3125896Y-1093984D02*
X3087801Y-1093984D01*
X3087801Y-1093984D02*
X3068753Y-1103508D01*
X3068753Y-1103508D02*
X3059229Y-1113031D01*
X3059229Y-1113031D02*
X3040182Y-1141603D01*
X3040182Y-1141603D02*
X3030658Y-1179698D01*
X3030658Y-1179698D02*
X3030658Y-1255889D01*
X3030658Y-1255889D02*
X3040182Y-1274936D01*
X3040182Y-1274936D02*
X3049706Y-1284460D01*
X3049706Y-1284460D02*
X3068753Y-1293984D01*
X3068753Y-1293984D02*
X3106848Y-1293984D01*
X3106848Y-1293984D02*
X3125896Y-1284460D01*
X3125896Y-1284460D02*
X3135420Y-1274936D01*
X3135420Y-1274936D02*
X3144944Y-1255889D01*
X3144944Y-1255889D02*
X3144944Y-1208270D01*
X3144944Y-1208270D02*
X3135420Y-1189222D01*
X3135420Y-1189222D02*
X3125896Y-1179698D01*
X3125896Y-1179698D02*
X3106848Y-1170174D01*
X3106848Y-1170174D02*
X3068753Y-1170174D01*
X3068753Y-1170174D02*
X3049706Y-1179698D01*
X3049706Y-1179698D02*
X3040182Y-1189222D01*
X3040182Y-1189222D02*
X3030658Y-1208270D01*
X3221134Y-1093984D02*
X3221134Y-1132079D01*
X3297325Y-1093984D02*
X3297325Y-1132079D01*
X3592563Y-1370174D02*
X3583039Y-1360650D01*
X3583039Y-1360650D02*
X3563991Y-1332079D01*
X3563991Y-1332079D02*
X3554468Y-1313031D01*
X3554468Y-1313031D02*
X3544944Y-1284460D01*
X3544944Y-1284460D02*
X3535420Y-1236841D01*
X3535420Y-1236841D02*
X3535420Y-1198746D01*
X3535420Y-1198746D02*
X3544944Y-1151127D01*
X3544944Y-1151127D02*
X3554468Y-1122555D01*
X3554468Y-1122555D02*
X3563991Y-1103508D01*
X3563991Y-1103508D02*
X3583039Y-1074936D01*
X3583039Y-1074936D02*
X3592563Y-1065412D01*
X3659229Y-1113031D02*
X3668753Y-1103508D01*
X3668753Y-1103508D02*
X3687801Y-1093984D01*
X3687801Y-1093984D02*
X3735420Y-1093984D01*
X3735420Y-1093984D02*
X3754468Y-1103508D01*
X3754468Y-1103508D02*
X3763991Y-1113031D01*
X3763991Y-1113031D02*
X3773515Y-1132079D01*
X3773515Y-1132079D02*
X3773515Y-1151127D01*
X3773515Y-1151127D02*
X3763991Y-1179698D01*
X3763991Y-1179698D02*
X3649706Y-1293984D01*
X3649706Y-1293984D02*
X3773515Y-1293984D01*
X4011610Y-1293984D02*
X4011610Y-1093984D01*
X4097325Y-1293984D02*
X4097325Y-1189222D01*
X4097325Y-1189222D02*
X4087801Y-1170174D01*
X4087801Y-1170174D02*
X4068753Y-1160650D01*
X4068753Y-1160650D02*
X4040182Y-1160650D01*
X4040182Y-1160650D02*
X4021134Y-1170174D01*
X4021134Y-1170174D02*
X4011610Y-1179698D01*
X4221134Y-1293984D02*
X4202087Y-1284460D01*
X4202087Y-1284460D02*
X4192563Y-1274936D01*
X4192563Y-1274936D02*
X4183039Y-1255889D01*
X4183039Y-1255889D02*
X4183039Y-1198746D01*
X4183039Y-1198746D02*
X4192563Y-1179698D01*
X4192563Y-1179698D02*
X4202087Y-1170174D01*
X4202087Y-1170174D02*
X4221134Y-1160650D01*
X4221134Y-1160650D02*
X4249706Y-1160650D01*
X4249706Y-1160650D02*
X4268753Y-1170174D01*
X4268753Y-1170174D02*
X4278277Y-1179698D01*
X4278277Y-1179698D02*
X4287801Y-1198746D01*
X4287801Y-1198746D02*
X4287801Y-1255889D01*
X4287801Y-1255889D02*
X4278277Y-1274936D01*
X4278277Y-1274936D02*
X4268753Y-1284460D01*
X4268753Y-1284460D02*
X4249706Y-1293984D01*
X4249706Y-1293984D02*
X4221134Y-1293984D01*
X4402087Y-1293984D02*
X4383039Y-1284460D01*
X4383039Y-1284460D02*
X4373515Y-1265412D01*
X4373515Y-1265412D02*
X4373515Y-1093984D01*
X4554468Y-1284460D02*
X4535420Y-1293984D01*
X4535420Y-1293984D02*
X4497325Y-1293984D01*
X4497325Y-1293984D02*
X4478277Y-1284460D01*
X4478277Y-1284460D02*
X4468753Y-1265412D01*
X4468753Y-1265412D02*
X4468753Y-1189222D01*
X4468753Y-1189222D02*
X4478277Y-1170174D01*
X4478277Y-1170174D02*
X4497325Y-1160650D01*
X4497325Y-1160650D02*
X4535420Y-1160650D01*
X4535420Y-1160650D02*
X4554468Y-1170174D01*
X4554468Y-1170174D02*
X4563992Y-1189222D01*
X4563992Y-1189222D02*
X4563992Y-1208270D01*
X4563992Y-1208270D02*
X4468753Y-1227317D01*
X4640182Y-1284460D02*
X4659230Y-1293984D01*
X4659230Y-1293984D02*
X4697325Y-1293984D01*
X4697325Y-1293984D02*
X4716373Y-1284460D01*
X4716373Y-1284460D02*
X4725896Y-1265412D01*
X4725896Y-1265412D02*
X4725896Y-1255889D01*
X4725896Y-1255889D02*
X4716373Y-1236841D01*
X4716373Y-1236841D02*
X4697325Y-1227317D01*
X4697325Y-1227317D02*
X4668753Y-1227317D01*
X4668753Y-1227317D02*
X4649706Y-1217793D01*
X4649706Y-1217793D02*
X4640182Y-1198746D01*
X4640182Y-1198746D02*
X4640182Y-1189222D01*
X4640182Y-1189222D02*
X4649706Y-1170174D01*
X4649706Y-1170174D02*
X4668753Y-1160650D01*
X4668753Y-1160650D02*
X4697325Y-1160650D01*
X4697325Y-1160650D02*
X4716373Y-1170174D01*
X4792563Y-1370174D02*
X4802087Y-1360650D01*
X4802087Y-1360650D02*
X4821134Y-1332079D01*
X4821134Y-1332079D02*
X4830658Y-1313031D01*
X4830658Y-1313031D02*
X4840182Y-1284460D01*
X4840182Y-1284460D02*
X4849706Y-1236841D01*
X4849706Y-1236841D02*
X4849706Y-1198746D01*
X4849706Y-1198746D02*
X4840182Y-1151127D01*
X4840182Y-1151127D02*
X4830658Y-1122555D01*
X4830658Y-1122555D02*
X4821134Y-1103508D01*
X4821134Y-1103508D02*
X4802087Y-1074936D01*
X4802087Y-1074936D02*
X4792563Y-1065412D01*
X5154468Y-1370174D02*
X5144944Y-1360650D01*
X5144944Y-1360650D02*
X5125896Y-1332079D01*
X5125896Y-1332079D02*
X5116373Y-1313031D01*
X5116373Y-1313031D02*
X5106849Y-1284460D01*
X5106849Y-1284460D02*
X5097325Y-1236841D01*
X5097325Y-1236841D02*
X5097325Y-1198746D01*
X5097325Y-1198746D02*
X5106849Y-1151127D01*
X5106849Y-1151127D02*
X5116373Y-1122555D01*
X5116373Y-1122555D02*
X5125896Y-1103508D01*
X5125896Y-1103508D02*
X5144944Y-1074936D01*
X5144944Y-1074936D02*
X5154468Y-1065412D01*
X5230658Y-1160650D02*
X5230658Y-1293984D01*
X5230658Y-1179698D02*
X5240182Y-1170174D01*
X5240182Y-1170174D02*
X5259230Y-1160650D01*
X5259230Y-1160650D02*
X5287801Y-1160650D01*
X5287801Y-1160650D02*
X5306849Y-1170174D01*
X5306849Y-1170174D02*
X5316373Y-1189222D01*
X5316373Y-1189222D02*
X5316373Y-1293984D01*
X5440182Y-1293984D02*
X5421134Y-1284460D01*
X5421134Y-1284460D02*
X5411611Y-1274936D01*
X5411611Y-1274936D02*
X5402087Y-1255889D01*
X5402087Y-1255889D02*
X5402087Y-1198746D01*
X5402087Y-1198746D02*
X5411611Y-1179698D01*
X5411611Y-1179698D02*
X5421134Y-1170174D01*
X5421134Y-1170174D02*
X5440182Y-1160650D01*
X5440182Y-1160650D02*
X5468754Y-1160650D01*
X5468754Y-1160650D02*
X5487801Y-1170174D01*
X5487801Y-1170174D02*
X5497325Y-1179698D01*
X5497325Y-1179698D02*
X5506849Y-1198746D01*
X5506849Y-1198746D02*
X5506849Y-1255889D01*
X5506849Y-1255889D02*
X5497325Y-1274936D01*
X5497325Y-1274936D02*
X5487801Y-1284460D01*
X5487801Y-1284460D02*
X5468754Y-1293984D01*
X5468754Y-1293984D02*
X5440182Y-1293984D01*
X5563992Y-1160650D02*
X5640182Y-1160650D01*
X5592563Y-1093984D02*
X5592563Y-1265412D01*
X5592563Y-1265412D02*
X5602087Y-1284460D01*
X5602087Y-1284460D02*
X5621134Y-1293984D01*
X5621134Y-1293984D02*
X5640182Y-1293984D01*
X5859230Y-1160650D02*
X5859230Y-1360650D01*
X5859230Y-1170174D02*
X5878277Y-1160650D01*
X5878277Y-1160650D02*
X5916373Y-1160650D01*
X5916373Y-1160650D02*
X5935420Y-1170174D01*
X5935420Y-1170174D02*
X5944944Y-1179698D01*
X5944944Y-1179698D02*
X5954468Y-1198746D01*
X5954468Y-1198746D02*
X5954468Y-1255889D01*
X5954468Y-1255889D02*
X5944944Y-1274936D01*
X5944944Y-1274936D02*
X5935420Y-1284460D01*
X5935420Y-1284460D02*
X5916373Y-1293984D01*
X5916373Y-1293984D02*
X5878277Y-1293984D01*
X5878277Y-1293984D02*
X5859230Y-1284460D01*
X6068753Y-1293984D02*
X6049706Y-1284460D01*
X6049706Y-1284460D02*
X6040182Y-1265412D01*
X6040182Y-1265412D02*
X6040182Y-1093984D01*
X6230658Y-1293984D02*
X6230658Y-1189222D01*
X6230658Y-1189222D02*
X6221134Y-1170174D01*
X6221134Y-1170174D02*
X6202087Y-1160650D01*
X6202087Y-1160650D02*
X6163992Y-1160650D01*
X6163992Y-1160650D02*
X6144944Y-1170174D01*
X6230658Y-1284460D02*
X6211611Y-1293984D01*
X6211611Y-1293984D02*
X6163992Y-1293984D01*
X6163992Y-1293984D02*
X6144944Y-1284460D01*
X6144944Y-1284460D02*
X6135420Y-1265412D01*
X6135420Y-1265412D02*
X6135420Y-1246365D01*
X6135420Y-1246365D02*
X6144944Y-1227317D01*
X6144944Y-1227317D02*
X6163992Y-1217793D01*
X6163992Y-1217793D02*
X6211611Y-1217793D01*
X6211611Y-1217793D02*
X6230658Y-1208270D01*
X6297325Y-1160650D02*
X6373515Y-1160650D01*
X6325896Y-1093984D02*
X6325896Y-1265412D01*
X6325896Y-1265412D02*
X6335420Y-1284460D01*
X6335420Y-1284460D02*
X6354468Y-1293984D01*
X6354468Y-1293984D02*
X6373515Y-1293984D01*
X6516373Y-1284460D02*
X6497325Y-1293984D01*
X6497325Y-1293984D02*
X6459230Y-1293984D01*
X6459230Y-1293984D02*
X6440182Y-1284460D01*
X6440182Y-1284460D02*
X6430658Y-1265412D01*
X6430658Y-1265412D02*
X6430658Y-1189222D01*
X6430658Y-1189222D02*
X6440182Y-1170174D01*
X6440182Y-1170174D02*
X6459230Y-1160650D01*
X6459230Y-1160650D02*
X6497325Y-1160650D01*
X6497325Y-1160650D02*
X6516373Y-1170174D01*
X6516373Y-1170174D02*
X6525896Y-1189222D01*
X6525896Y-1189222D02*
X6525896Y-1208270D01*
X6525896Y-1208270D02*
X6430658Y-1227317D01*
X6697325Y-1293984D02*
X6697325Y-1093984D01*
X6697325Y-1284460D02*
X6678277Y-1293984D01*
X6678277Y-1293984D02*
X6640182Y-1293984D01*
X6640182Y-1293984D02*
X6621134Y-1284460D01*
X6621134Y-1284460D02*
X6611611Y-1274936D01*
X6611611Y-1274936D02*
X6602087Y-1255889D01*
X6602087Y-1255889D02*
X6602087Y-1198746D01*
X6602087Y-1198746D02*
X6611611Y-1179698D01*
X6611611Y-1179698D02*
X6621134Y-1170174D01*
X6621134Y-1170174D02*
X6640182Y-1160650D01*
X6640182Y-1160650D02*
X6678277Y-1160650D01*
X6678277Y-1160650D02*
X6697325Y-1170174D01*
X6773515Y-1370174D02*
X6783039Y-1360650D01*
X6783039Y-1360650D02*
X6802087Y-1332079D01*
X6802087Y-1332079D02*
X6811611Y-1313031D01*
X6811611Y-1313031D02*
X6821134Y-1284460D01*
X6821134Y-1284460D02*
X6830658Y-1236841D01*
X6830658Y-1236841D02*
X6830658Y-1198746D01*
X6830658Y-1198746D02*
X6821134Y-1151127D01*
X6821134Y-1151127D02*
X6811611Y-1122555D01*
X6811611Y-1122555D02*
X6802087Y-1103508D01*
X6802087Y-1103508D02*
X6783039Y-1074936D01*
X6783039Y-1074936D02*
X6773515Y-1065412D01*
M02*
