%TF.GenerationSoftware,KiCad,Pcbnew,7.0.5*%
%TF.CreationDate,2023-10-22T13:56:58-04:00*%
%TF.ProjectId,PWR_module,5057525f-6d6f-4647-956c-652e6b696361,rev?*%
%TF.SameCoordinates,PX7270e00PY6a55ae0*%
%TF.FileFunction,Drillmap*%
%TF.FilePolarity,Positive*%
%FSLAX45Y45*%
G04 Gerber Fmt 4.5, Leading zero omitted, Abs format (unit mm)*
G04 Created by KiCad (PCBNEW 7.0.5) date 2023-10-22 13:56:58*
%MOMM*%
%LPD*%
G01*
G04 APERTURE LIST*
%ADD10C,0.050000*%
%ADD11C,0.200000*%
G04 APERTURE END LIST*
D10*
X20000Y3480000D02*
X3480000Y3480000D01*
X3480000Y20000D01*
X20000Y20000D01*
X20000Y3480000D01*
D11*
X278277Y-293984D02*
X278277Y-93984D01*
X278277Y-93984D02*
X325896Y-93984D01*
X325896Y-93984D02*
X354467Y-103508D01*
X354467Y-103508D02*
X373515Y-122555D01*
X373515Y-122555D02*
X383039Y-141603D01*
X383039Y-141603D02*
X392562Y-179698D01*
X392562Y-179698D02*
X392562Y-208269D01*
X392562Y-208269D02*
X383039Y-246365D01*
X383039Y-246365D02*
X373515Y-265412D01*
X373515Y-265412D02*
X354467Y-284460D01*
X354467Y-284460D02*
X325896Y-293984D01*
X325896Y-293984D02*
X278277Y-293984D01*
X478277Y-293984D02*
X478277Y-160650D01*
X478277Y-198746D02*
X487801Y-179698D01*
X487801Y-179698D02*
X497324Y-170174D01*
X497324Y-170174D02*
X516372Y-160650D01*
X516372Y-160650D02*
X535420Y-160650D01*
X602086Y-293984D02*
X602086Y-160650D01*
X602086Y-93984D02*
X592563Y-103508D01*
X592563Y-103508D02*
X602086Y-113031D01*
X602086Y-113031D02*
X611610Y-103508D01*
X611610Y-103508D02*
X602086Y-93984D01*
X602086Y-93984D02*
X602086Y-113031D01*
X725896Y-293984D02*
X706848Y-284460D01*
X706848Y-284460D02*
X697324Y-265412D01*
X697324Y-265412D02*
X697324Y-93984D01*
X830658Y-293984D02*
X811610Y-284460D01*
X811610Y-284460D02*
X802086Y-265412D01*
X802086Y-265412D02*
X802086Y-93984D01*
X1059229Y-293984D02*
X1059229Y-93984D01*
X1059229Y-93984D02*
X1125896Y-236841D01*
X1125896Y-236841D02*
X1192563Y-93984D01*
X1192563Y-93984D02*
X1192563Y-293984D01*
X1373515Y-293984D02*
X1373515Y-189222D01*
X1373515Y-189222D02*
X1363991Y-170174D01*
X1363991Y-170174D02*
X1344944Y-160650D01*
X1344944Y-160650D02*
X1306848Y-160650D01*
X1306848Y-160650D02*
X1287801Y-170174D01*
X1373515Y-284460D02*
X1354467Y-293984D01*
X1354467Y-293984D02*
X1306848Y-293984D01*
X1306848Y-293984D02*
X1287801Y-284460D01*
X1287801Y-284460D02*
X1278277Y-265412D01*
X1278277Y-265412D02*
X1278277Y-246365D01*
X1278277Y-246365D02*
X1287801Y-227317D01*
X1287801Y-227317D02*
X1306848Y-217793D01*
X1306848Y-217793D02*
X1354467Y-217793D01*
X1354467Y-217793D02*
X1373515Y-208269D01*
X1468753Y-160650D02*
X1468753Y-360650D01*
X1468753Y-170174D02*
X1487801Y-160650D01*
X1487801Y-160650D02*
X1525896Y-160650D01*
X1525896Y-160650D02*
X1544943Y-170174D01*
X1544943Y-170174D02*
X1554467Y-179698D01*
X1554467Y-179698D02*
X1563991Y-198746D01*
X1563991Y-198746D02*
X1563991Y-255888D01*
X1563991Y-255888D02*
X1554467Y-274936D01*
X1554467Y-274936D02*
X1544943Y-284460D01*
X1544943Y-284460D02*
X1525896Y-293984D01*
X1525896Y-293984D02*
X1487801Y-293984D01*
X1487801Y-293984D02*
X1468753Y-284460D01*
X1649705Y-274936D02*
X1659229Y-284460D01*
X1659229Y-284460D02*
X1649705Y-293984D01*
X1649705Y-293984D02*
X1640182Y-284460D01*
X1640182Y-284460D02*
X1649705Y-274936D01*
X1649705Y-274936D02*
X1649705Y-293984D01*
X1649705Y-170174D02*
X1659229Y-179698D01*
X1659229Y-179698D02*
X1649705Y-189222D01*
X1649705Y-189222D02*
X1640182Y-179698D01*
X1640182Y-179698D02*
X1649705Y-170174D01*
X1649705Y-170174D02*
X1649705Y-189222D01*
M02*
