<?xml version="1.0" standalone="no"?>
<!DOCTYPE svg PUBLIC "-//W3C//DTD SVG 1.1//EN"
"http://www.w3.org/Graphics/SVG/1.1/DTD/svg11.dtd">
<svg width="102.992" height="32.126" viewBox="0 0 2145.67 669.291" version="1.1"
xmlns="http://www.w3.org/2000/svg"
xmlns:xlink="http://www.w3.org/1999/xlink">
<g fill-rule="evenodd"><path d="M 108.267,551.261 L 108.267,118.033 L 109.817,112.755 L 113.975,109.151 L 118.031,108.269 L 669.369,108.269 L 674.649,109.819 L 678.251,113.977 L 679.133,118.033 L 679.133,551.261 L 677.583,556.539 L 673.425,560.143 L 669.369,561.025 L 118.031,561.025 L 112.753,559.475 L 109.149,555.317 L 108.267,551.261 z " style="fill-opacity:1.000000;fill:rgb(103,198,105);stroke:rgb(0,0,0);stroke-width:2"/></g>
<g fill-rule="evenodd"><path d="M 757.873,551.261 L 757.873,118.033 L 759.423,112.755 L 763.581,109.151 L 767.637,108.269 L 1023.7,108.269 L 1028.98,109.819 L 1032.58,113.977 L 1033.46,118.033 L 1033.46,551.261 L 1031.91,556.539 L 1027.76,560.143 L 1023.7,561.025 L 767.637,561.025 L 762.359,559.475 L 758.755,555.317 L 757.873,551.261 z " style="fill-opacity:1.000000;fill:rgb(115,81,255);stroke:rgb(0,0,0);stroke-width:2"/></g>
<g fill-rule="evenodd"><path d="M 1112.2,551.261 L 1112.2,118.033 L 1113.75,112.755 L 1117.91,109.151 L 1121.97,108.269 L 1378.03,108.269 L 1383.31,109.819 L 1386.91,113.977 L 1387.79,118.033 L 1387.79,551.261 L 1386.24,556.539 L 1382.09,560.143 L 1378.03,561.025 L 1121.97,561.025 L 1116.69,559.475 L 1113.09,555.317 L 1112.2,551.261 z " style="fill-opacity:1.000000;fill:rgb(74,236,41);stroke:rgb(0,0,0);stroke-width:2"/></g>
<g fill-rule="evenodd"><path d="M 1466.53,551.261 L 1466.53,118.033 L 1468.08,112.755 L 1472.24,109.151 L 1476.3,108.269 L 2027.64,108.269 L 2032.91,109.819 L 2036.52,113.977 L 2037.4,118.033 L 2037.4,551.261 L 2035.85,556.539 L 2031.69,560.143 L 2027.64,561.025 L 1476.3,561.025 L 1471.02,559.475 L 1467.42,555.317 L 1466.53,551.261 z " style="fill-opacity:1.000000;fill:rgb(205,186,171);stroke:rgb(0,0,0);stroke-width:2"/></g>
</svg>
