<?xml version="1.0" standalone="no"?>
<!DOCTYPE svg PUBLIC "-//W3C//DTD SVG 1.1//EN"
"http://www.w3.org/Graphics/SVG/1.1/DTD/svg11.dtd">
<svg width="62.9291" height="93.1654" viewBox="0 0 1311.02 1940.94" version="1.1"
xmlns="http://www.w3.org/2000/svg"
xmlns:xlink="http://www.w3.org/1999/xlink">
<g fill-rule="evenodd"><path d="M 84.6446,1846.54 L 84.6446,94.4103 L 86.1946,89.1323 L 90.3526,85.5283 L 94.4086,84.6463 L 527.637,84.6463 L 532.915,86.1963 L 536.519,90.3543 L 537.401,94.4103 L 537.401,1846.54 L 535.851,1851.81 L 531.693,1855.42 L 527.637,1856.3 L 94.4086,1856.3 L 89.1306,1854.75 L 85.5266,1850.59 L 84.6446,1846.54 z " style="fill-opacity:1.000000;fill:rgb(103,198,105);stroke:rgb(0,0,0);stroke-width:2"/></g>
<g fill-rule="evenodd"><path d="M 773.621,1846.54 L 773.621,94.4103 L 775.171,89.1323 L 779.329,85.5283 L 783.385,84.6463 L 1216.61,84.6463 L 1221.89,86.1963 L 1225.49,90.3543 L 1226.38,94.4103 L 1226.38,1846.54 L 1224.83,1851.81 L 1220.67,1855.42 L 1216.61,1856.3 L 783.385,1856.3 L 778.107,1854.75 L 774.503,1850.59 L 773.621,1846.54 z " style="fill-opacity:1.000000;fill:rgb(115,81,255);stroke:rgb(0,0,0);stroke-width:2"/></g>
</svg>
