<?xml version="1.0" standalone="no"?>
<!DOCTYPE svg PUBLIC "-//W3C//DTD SVG 1.1//EN"
"http://www.w3.org/Graphics/SVG/1.1/DTD/svg11.dtd">
<svg width="62.9291" height="93.1654" viewBox="0 0 1311.02 1940.94" version="1.1"
xmlns="http://www.w3.org/2000/svg"
xmlns:xlink="http://www.w3.org/1999/xlink">
<g fill-rule="evenodd"><path d="M 655.385,0.000142246 L 655.662,54.0359 L 655.628,59.7591 L 655.547,64.4708 L 655.511,68.7266 L 655.511,94.4103 L 655.511,1846.54 L 655.511,1872.22 L 655.474,1876.48 L 655.394,1881.19 L 655.359,1886.91 L 655.636,1940.95 L -9.9476e-14,1940.94 L -9.9476e-14,0 L 655.385,0.000142246 z " style="fill-opacity:0.200000;fill:rgb(103,198,105);"/></g>
<g fill-rule="evenodd"><path d="M 655.636,1940.95 L 655.359,1886.91 L 655.394,1881.19 L 655.474,1876.48 L 655.511,1872.22 L 655.511,1846.54 L 655.511,94.4103 L 655.511,68.7266 L 655.547,64.4708 L 655.628,59.7591 L 655.662,54.0359 L 655.385,0.000142246 L 1311.02,0 L 1311.02,1940.94 L 655.636,1940.95 z " style="fill-opacity:0.200000;fill:rgb(115,81,255);"/></g>
<polyline points="64.9606,1875.98 648.391,1875.98 648.423,1872.22 648.423,68.7283 648.423,68.6663 648.455,64.9623 64.9606,64.9623 64.9606,1875.98 64.9606,1875.98 648.391,1875.98 648.423,1872.22 648.423,68.7283 648.423,68.6663 648.455,64.9643 64.9606,64.9623 64.9606,1875.98 64.9606,1875.98 648.391,1875.98 648.423,1872.22 648.423,68.7283 648.423,68.6663 648.455,64.9623 64.9606,64.9623 64.9606,1875.98 64.9606,1875.98 648.391,1875.98 648.423,1872.22 648.423,68.7283 648.423,68.6663 648.455,64.9623 64.9606,64.9623 64.9606,1875.98 64.9606,1875.98 648.391,1875.98 648.423,1872.22 648.423,68.7283 648.423,68.6663 648.455,64.9623 64.9606,64.9623 64.9606,1875.98 64.9606,1875.98 648.391,1875.98 648.423,1872.22 648.423,68.7283 648.423,68.6663 648.455,64.9643 64.9606,64.9623 64.9606,1875.98 64.9606,1875.98 648.391,1875.98 648.423,1872.22 648.423,68.7283 648.423,68.6663 648.455,64.9643 64.9606,64.9623 64.9606,1875.98 64.9606,1875.98 648.391,1875.98 648.423,1872.22 648.423,68.7283 648.423,68.6663 648.455,64.9643 64.9606,64.9623 64.9606,1875.98 64.9606,1875.98 648.391,1875.98 648.423,1872.22 648.423,68.7283 648.423,68.6663 648.455,64.9623 64.9606,64.9623 64.9606,1875.98 64.9606,1875.98 648.391,1875.98 648.423,1872.22 648.423,68.7283 648.423,68.6663 648.455,64.9643 64.9606,64.9623 64.9606,1875.98 64.9606,1875.98 648.391,1875.98 648.423,1872.22 648.423,68.7283 648.423,68.6663 648.455,64.9643 64.9606,64.9623 64.9606,1875.98 64.9606,1875.98 648.391,1875.98 648.423,1872.22 648.423,68.7283 648.423,68.6663 648.455,64.9623 64.9606,64.9623 64.9606,1875.98 64.9606,1875.98 648.391,1875.98 648.423,1872.22 648.423,68.7283 648.423,68.6663 648.455,64.9643 64.9606,64.9623 64.9606,1875.98 64.9606,1875.98 648.391,1875.98 648.423,1872.22 648.423,68.7283 648.423,68.6663 648.455,64.9623 64.9606,64.9623 64.9606,1875.98 64.9606,1875.98 648.391,1875.98 648.423,1872.22 648.423,68.7283 648.423,68.6663 648.455,64.9623 64.9606,64.9623 64.9606,1875.98 64.9606,1875.98 648.391,1875.98 648.423,1872.22 648.423,68.7283 648.423,68.6663 648.455,64.9643 64.9606,64.9623 64.9606,1875.98 64.9606,1875.98 648.391,1875.98 648.423,1872.22 648.423,68.7283 648.423,68.6663 648.455,64.9623 64.9606,64.9623 64.9606,1875.98 64.9606,1875.98 648.391,1875.98 648.423,1872.22 648.423,68.7283 648.423,68.6663 648.455,64.9643 64.9606,64.9623 64.9606,1875.98 64.9606,1875.98 648.391,1875.98 648.423,1872.22 648.423,68.7283 648.423,68.6663 648.455,64.9643 64.9606,64.9623 64.9606,1875.98 64.9606,1875.98 648.391,1875.98 648.423,1872.22 648.423,68.7283 648.423,68.6663 648.455,64.9643 64.9606,64.9623 64.9606,1875.98 64.9606,1875.98 648.391,1875.98 648.423,1872.22 648.423,68.7283 648.423,68.6663 648.455,64.9623 64.9606,64.9623 64.9606,1875.98 64.9606,1875.98 648.391,1875.98 648.423,1872.22 648.423,68.7283 648.423,68.6663 648.455,64.9643 64.9606,64.9623 64.9606,1875.98 64.9606,1875.98 648.391,1875.98 648.423,1872.22 648.423,68.7283 648.423,68.6663 648.455,64.9643 64.9606,64.9623 64.9606,1875.98 64.9606,1875.98 648.391,1875.98 648.423,1872.22 648.423,68.7283 648.423,68.6663 648.455,64.9643 64.9606,64.9623 64.9606,1875.98 64.9606,1875.98 648.391,1875.98 648.423,1872.22 648.423,68.7283 648.423,68.6663 648.455,64.9623 64.9606,64.9623 64.9606,1875.98 64.9606,1875.98 648.391,1875.98 648.423,1872.22 648.423,68.7283 648.423,68.6663 648.455,64.9643 64.9606,64.9623 64.9606,1875.98 64.9606,1875.98 648.391,1875.98 648.423,1872.22 648.423,68.7283 648.423,68.6663 648.455,64.9623 64.9606,64.9623 64.9606,1875.98 64.9606,1875.98 648.391,1875.98 648.423,1872.22 648.423,68.7283 648.423,68.6663 648.455,64.9623 64.9606,64.9623 64.9606,1875.98 64.9606,1875.98 648.391,1875.98 648.423,1872.22 648.423,68.7283 648.423,68.6663 648.455,64.9623 64.9606,64.9623 64.9606,1875.98 64.9606,1875.98 648.391,1875.98 648.423,1872.22 648.423,68.7283 648.423,68.6663 648.455,64.9623 64.9606,64.9623 64.9606,1875.98 64.9606,1875.98 648.391,1875.98 648.423,1872.22 648.423,68.7283 648.423,68.6663 648.455,64.9623 64.9606,64.9623 64.9606,1875.98 64.9606,1875.98 648.391,1875.98 648.423,1872.22 648.423,68.7283 648.423,68.6663 648.455,64.9623 64.9606,64.9623 64.9606,1875.98 64.9606,1875.98 648.391,1875.98 648.423,1872.22 648.423,68.7283 648.423,68.6663 648.455,64.9623 64.9606,64.9623 64.9606,1875.98 64.9606,1875.98 648.391,1875.98 648.423,1872.22 648.423,68.7283 648.423,68.6663 648.455,64.9643 64.9606,64.9623 64.9606,1875.98 64.9606,1875.98 648.391,1875.98 648.423,1872.22 648.423,68.7283 648.423,68.6663 648.455,64.9623 64.9606,64.9623 64.9606,1875.98 64.9606,1875.98 648.391,1875.98 648.423,1872.22 648.423,68.7283 648.423,68.6663 648.455,64.9643 64.9606,64.9623 64.9606,1875.98 64.9606,1875.98 648.391,1875.98 648.423,1872.22 648.423,68.7283 648.423,68.6663 648.455,64.9623 64.9606,64.9623 64.9606,1875.98 64.9606,1875.98 648.391,1875.98 648.423,1872.22 648.423,68.7283 648.423,68.6663 648.455,64.9623 64.9606,64.9623 64.9606,1875.98 64.9606,1875.98 648.391,1875.98 648.423,1872.22 648.423,68.7283 648.423,68.6663 648.455,64.9623 64.9606,64.9623 64.9606,1875.98 64.9606,1875.98 648.391,1875.98 648.423,1872.22 648.423,68.7283 648.423,68.6663 648.455,64.9623 64.9606,64.9623 64.9606,1875.98 64.9606,1875.98 648.391,1875.98 648.423,1872.22 648.423,68.7283 648.423,68.6663 648.455,64.9643 64.9606,64.9623 64.9606,1875.98 64.9606,1875.98 648.391,1875.98 648.423,1872.22 648.423,68.7283 648.423,68.6663 648.455,64.9623 64.9606,64.9623 64.9606,1875.98 64.9606,1875.98 648.391,1875.98 648.423,1872.22 648.423,68.7283 648.423,68.6663 648.455,64.9623 64.9606,64.9623 64.9606,1875.98 64.9606,1875.98 648.391,1875.98 648.423,1872.22 648.423,68.7283 648.423,68.6663 648.455,64.9643 64.9606,64.9623 64.9606,1875.98 64.9606,1875.98 648.391,1875.98 648.423,1872.22 648.423,68.7283 648.423,68.6663 648.455,64.9623 64.9606,64.9623 64.9606,1875.98 64.9606,1875.98 648.391,1875.98 648.423,1872.22 648.423,68.7283 648.423,68.6663 648.455,64.9623 64.9606,64.9623 64.9606,1875.98 64.9606,1875.98 648.391,1875.98 648.423,1872.22 648.423,68.7283 648.423,68.6663 648.455,64.9643 64.9606,64.9623 64.9606,1875.98 64.9606,1875.98 648.391,1875.98 648.423,1872.22 648.423,68.7283 648.423,68.6663 648.455,64.9623 64.9606,64.9623 64.9606,1875.98 64.9606,1875.98 648.391,1875.98 648.423,1872.22 648.423,68.7283 648.423,68.6663 648.455,64.9623 64.9606,64.9623 64.9606,1875.98 64.9606,1875.98 648.391,1875.98 648.423,1872.22 648.423,68.7283 648.423,68.6663 648.455,64.9643 64.9606,64.9623 64.9606,1875.98 64.9606,1875.98 648.391,1875.98 648.423,1872.22 648.423,68.7283 648.423,68.6663 648.455,64.9623 64.9606,64.9623 64.9606,1875.98 64.9606,1875.98 648.391,1875.98 648.423,1872.22 648.423,68.7283 648.423,68.6663 648.455,64.9643 64.9606,64.9623 64.9606,1875.98 64.9606,1875.98 648.391,1875.98 648.423,1872.22 648.423,68.7283 648.423,68.6663 648.455,64.9643 64.9606,64.9623 64.9606,1875.98 64.9606,1875.98 648.391,1875.98 648.423,1872.22 648.423,68.7283 648.423,68.6663 648.455,64.9623 64.9606,64.9623 64.9606,1875.98 64.9606,1875.98 648.391,1875.98 648.423,1872.22 648.423,68.7283 648.423,68.6663 648.455,64.9643 64.9606,64.9623 64.9606,1875.98 64.9606,1875.98 648.391,1875.98 648.423,1872.22 648.423,68.7283 648.423,68.6663 648.455,64.9623 64.9606,64.9623 64.9606,1875.98 64.9606,1875.98 648.391,1875.98 648.423,1872.22 648.423,68.7283 648.423,68.6663 648.455,64.9643 64.9606,64.9623 64.9606,1875.98 64.9606,1875.98 648.391,1875.98 648.423,1872.22 648.423,68.7283 648.423,68.6663 648.455,64.9643 64.9606,64.9623 64.9606,1875.98 64.9606,1875.98 648.391,1875.98 648.423,1872.22 648.423,68.7283 648.423,68.6663 648.455,64.9623 64.9606,64.9623 64.9606,1875.98 64.9606,1875.98 648.391,1875.98 648.423,1872.22 648.423,68.7283 648.423,68.6663 648.455,64.9643 64.9606,64.9623 64.9606,1875.98 64.9606,1875.98 648.391,1875.98 648.423,1872.22 648.423,68.7283 648.423,68.6663 648.455,64.9643 64.9606,64.9623 64.9606,1875.98 64.9606,1875.98 648.391,1875.98 648.423,1872.22 648.423,68.7283 648.423,68.6663 648.455,64.9623 64.9606,64.9623 64.9606,1875.98 64.9606,1875.98 648.391,1875.98 648.423,1872.22 648.423,68.7283 648.423,68.6663 648.455,64.9643 64.9606,64.9623 64.9606,1875.98 64.9606,1875.98 648.391,1875.98 648.423,1872.22 648.423,68.7283 648.423,68.6663 648.455,64.9623 64.9606,64.9623 64.9606,1875.98 64.9606,1875.98 648.391,1875.98 648.423,1872.22 648.423,68.7283 648.423,68.6663 648.455,64.9643 64.9606,64.9623 64.9606,1875.98 64.9606,1875.98 648.391,1875.98 648.423,1872.22 648.423,68.7283 648.423,68.6663 648.455,64.9623 64.9606,64.9623 64.9606,1875.98 64.9606,1875.98 648.391,1875.98 648.423,1872.22 648.423,68.7283 648.423,68.6663 648.455,64.9643 64.9606,64.9623 64.9606,1875.98 64.9606,1875.98 648.391,1875.98 648.423,1872.22 648.423,68.7283 648.423,68.6663 648.455,64.9643 64.9606,64.9623 64.9606,1875.98 64.9606,1875.98 648.391,1875.98 648.423,1872.22 648.423,68.7283 648.423,68.6663 648.455,64.9643 64.9606,64.9623 64.9606,1875.98 64.9606,1875.98 648.391,1875.98 648.423,1872.22 648.423,68.7283 648.423,68.6663 648.455,64.9623 64.9606,64.9623 64.9606,1875.98 64.9606,1875.98 648.391,1875.98 648.423,1872.22 648.423,68.7283 648.423,68.6663 648.455,64.9623 64.9606,64.9623 64.9606,1875.98 64.9606,1875.98 648.391,1875.98 648.423,1872.22 648.423,68.7283 648.423,68.6663 648.455,64.9643 64.9606,64.9623 64.9606,1875.98 64.9606,1875.98 648.391,1875.98 648.423,1872.22 648.423,68.7283 648.423,68.6663 648.455,64.9643 64.9606,64.9623 64.9606,1875.98 64.9606,1875.98 648.391,1875.98 648.423,1872.22 648.423,68.7283 648.423,68.6663 648.455,64.9623 64.9606,64.9623 64.9606,1875.98 64.9606,1875.98 648.391,1875.98 648.423,1872.22 648.423,68.7283 648.423,68.6663 648.455,64.9623 64.9606,64.9623 64.9606,1875.98 64.9606,1875.98 648.391,1875.98 648.423,1872.22 648.423,68.7283 648.423,68.6663 648.455,64.9643 64.9606,64.9623 64.9606,1875.98 64.9606,1875.98 648.391,1875.98 648.423,1872.22 648.423,68.7283 648.423,68.6663 648.455,64.9623 64.9606,64.9623 64.9606,1875.98 64.9606,1875.98 648.391,1875.98 648.423,1872.22 648.423,68.7283 648.423,68.6663 648.455,64.9643 64.9606,64.9623 64.9606,1875.98 64.9606,1875.98 648.391,1875.98 648.423,1872.22 648.423,68.7283 648.423,68.6663 648.455,64.9623 64.9606,64.9623 64.9606,1875.98 64.9606,1875.98 648.391,1875.98 648.423,1872.22 648.423,68.7283 648.423,68.6663 648.455,64.9623 64.9606,64.9623 64.9606,1875.98 64.9606,1875.98 648.391,1875.98 648.423,1872.22 648.423,68.7283 648.423,68.6663 648.455,64.9643 64.9606,64.9623 64.9606,1875.98 64.9606,1875.98 648.391,1875.98 648.423,1872.22 648.423,68.7283 648.423,68.6663 648.455,64.9643 64.9606,64.9623 64.9606,1875.98 64.9606,1875.98 648.391,1875.98 648.423,1872.22 648.423,68.7283 648.423,68.6663 648.455,64.9643 64.9606,64.9623 64.9606,1875.98 64.9606,1875.98 648.391,1875.98 648.423,1872.22 648.423,68.7283 648.423,68.6663 648.455,64.9643 64.9606,64.9623 64.9606,1875.98 64.9606,1875.98 648.391,1875.98 648.423,1872.22 648.423,68.7283 648.423,68.6663 648.455,64.9623 64.9606,64.9623 64.9606,1875.98 64.9606,1875.98 648.391,1875.98 648.423,1872.22 648.423,68.7283 648.423,68.6663 648.455,64.9643 64.9606,64.9623 64.9606,1875.98 64.9606,1875.98 648.391,1875.98 648.423,1872.22 648.423,68.7283 648.423,68.6663 648.455,64.9643 64.9606,64.9623 64.9606,1875.98 64.9606,1875.98 648.391,1875.98 648.423,1872.22 648.423,68.7283 648.423,68.6663 648.455,64.9623 64.9606,64.9623 64.9606,1875.98 64.9606,1875.98 648.391,1875.98 648.423,1872.22 648.423,68.7283 648.423,68.6663 648.455,64.9643 64.9606,64.9623 64.9606,1875.98 64.9606,1875.98 648.391,1875.98 648.423,1872.22 648.423,68.7283 648.423,68.6663 648.455,64.9623 64.9606,64.9623 64.9606,1875.98 64.9606,1875.98 648.391,1875.98 648.423,1872.22 648.423,68.7283 648.423,68.6663 648.455,64.9623 64.9606,64.9623 64.9606,1875.98 64.9606,1875.98 648.391,1875.98 648.423,1872.22 648.423,68.7283 648.423,68.6663 648.455,64.9623 64.9606,64.9623 64.9606,1875.98 64.9606,1875.98 648.391,1875.98 648.423,1872.22 648.423,68.7283 648.423,68.6663 648.455,64.9623 64.9606,64.9623 64.9606,1875.98 64.9606,1875.98 646.735,1875.98 648.423,1868.23 648.423,71.7183 648.197,70.3183 647.315,66.2623 646.917,64.9623 64.9606,64.9623 64.9606,1875.98 64.9606,1875.98 632.155,1875.98 632.593,1874.49 635.603,1860.66 636.613,1846.54 636.613,94.4103 636.045,83.8103 634.347,73.3303 633.465,69.2743 632.143,64.9623 64.9606,64.9623 64.9606,1875.98 64.9606,1875.98 617.361,1875.98 617.443,1875.78 618.993,1870.5 621.573,1858.64 622.439,1846.54 622.439,94.4103 621.953,85.3243 620.497,76.3423 619.615,72.2863 617.371,64.9623 64.9606,64.9623 64.9606,1875.98 64.9606,1875.98 602.163,1875.98 603.845,1871.78 605.395,1866.51 607.545,1856.62 608.267,1846.54 608.267,94.4103 607.861,86.8383 606.647,79.3523 605.765,75.2963 602.597,64.9623 64.9606,64.9623 64.9606,1875.98 64.9606,1875.98 586.965,1875.98 590.245,1867.79 591.795,1862.51 593.515,1854.61 594.093,1846.54 594.093,94.4103 593.769,88.3523 592.799,82.3643 591.917,78.3083 589.149,69.2843 586.987,64.9643 64.9606,64.9623 64.9606,1875.98 64.9606,1875.98 570.631,1875.98 573.643,1871.3 576.647,1863.8 578.197,1858.52 579.487,1852.59 579.919,1846.54 579.919,94.4103 579.677,89.8683 578.949,85.3763 578.067,81.3203 575.991,74.5523 572.823,68.2223 570.443,64.9623 64.9606,64.9623 64.9606,1875.98 64.9606,1870.14 67.7086,1873.32 70.5086,1875.98 551.243,1875.98 554.417,1873.24 558.133,1869.34 561.045,1864.8 563.047,1859.8 564.597,1854.52 565.457,1850.57 565.747,1846.54 565.747,94.4103 565.585,91.3823 565.099,88.3883 564.217,84.3323 562.833,79.8203 560.721,75.6003 557.939,71.7883 554.335,67.6303 551.535,64.9643 70.8006,64.9623 67.6266,67.7123 64.9606,70.5123 64.9606,1870.14 70.4706,1846.54 70.5506,1848.05 70.7946,1849.55 71.6766,1853.6 72.3686,1855.86 73.4246,1857.97 74.8146,1859.88 78.4186,1864.03 80.3686,1865.89 82.6346,1867.35 85.1366,1868.35 90.4146,1869.9 92.3906,1870.33 94.4086,1870.47 527.637,1870.47 529.151,1870.39 530.647,1870.15 534.703,1869.27 536.959,1868.58 539.069,1867.52 540.975,1866.13 545.133,1862.53 546.991,1860.58 548.447,1858.31 549.449,1855.81 550.999,1850.53 551.429,1848.55 551.573,1846.54 551.573,94.4103 551.493,92.8963 551.249,91.4003 550.367,87.3443 549.675,85.0883 548.619,82.9783 547.229,81.0723 543.625,76.9143 541.675,75.0563 539.409,73.6003 536.907,72.5983 531.629,71.0483 529.653,70.6183 527.637,70.4743 94.4086,70.4743 92.8926,70.5543 91.3966,70.7983 87.3406,71.6803 85.0846,72.3723 82.9746,73.4283 81.0686,74.8183 76.9106,78.4223 75.0526,80.3723 73.5966,82.6383 72.5946,85.1403 71.0446,90.4183 70.6146,92.3943 70.4706,94.4103 70.4706,1846.54" style="stroke:rgb(103,198,105);stroke-width:28.346457;fill:none;stroke-opacity:0.5;stroke-linecap:round;stroke-linejoin:round;;fill:none"/>
<polyline points="64.9606,1875.98 648.391,1875.98 648.423,1872.22 648.423,68.7283 648.423,68.6663 648.455,64.9623 64.9606,64.9623 64.9606,1875.98 64.9606,1875.98 648.391,1875.98 648.423,1872.22 648.423,68.7283 648.423,68.6663 648.455,64.9643 64.9606,64.9623 64.9606,1875.98 64.9606,1875.98 648.391,1875.98 648.423,1872.22 648.423,68.7283 648.423,68.6663 648.455,64.9623 64.9606,64.9623 64.9606,1875.98 64.9606,1875.98 648.391,1875.98 648.423,1872.22 648.423,68.7283 648.423,68.6663 648.455,64.9623 64.9606,64.9623 64.9606,1875.98 64.9606,1875.98 648.391,1875.98 648.423,1872.22 648.423,68.7283 648.423,68.6663 648.455,64.9623 64.9606,64.9623 64.9606,1875.98 64.9606,1875.98 648.391,1875.98 648.423,1872.22 648.423,68.7283 648.423,68.6663 648.455,64.9643 64.9606,64.9623 64.9606,1875.98 64.9606,1875.98 648.391,1875.98 648.423,1872.22 648.423,68.7283 648.423,68.6663 648.455,64.9643 64.9606,64.9623 64.9606,1875.98 64.9606,1875.98 648.391,1875.98 648.423,1872.22 648.423,68.7283 648.423,68.6663 648.455,64.9643 64.9606,64.9623 64.9606,1875.98 64.9606,1875.98 648.391,1875.98 648.423,1872.22 648.423,68.7283 648.423,68.6663 648.455,64.9623 64.9606,64.9623 64.9606,1875.98 64.9606,1875.98 648.391,1875.98 648.423,1872.22 648.423,68.7283 648.423,68.6663 648.455,64.9643 64.9606,64.9623 64.9606,1875.98 64.9606,1875.98 648.391,1875.98 648.423,1872.22 648.423,68.7283 648.423,68.6663 648.455,64.9643 64.9606,64.9623 64.9606,1875.98 64.9606,1875.98 648.391,1875.98 648.423,1872.22 648.423,68.7283 648.423,68.6663 648.455,64.9623 64.9606,64.9623 64.9606,1875.98 64.9606,1875.98 648.391,1875.98 648.423,1872.22 648.423,68.7283 648.423,68.6663 648.455,64.9643 64.9606,64.9623 64.9606,1875.98 64.9606,1875.98 648.391,1875.98 648.423,1872.22 648.423,68.7283 648.423,68.6663 648.455,64.9623 64.9606,64.9623 64.9606,1875.98 64.9606,1875.98 648.391,1875.98 648.423,1872.22 648.423,68.7283 648.423,68.6663 648.455,64.9623 64.9606,64.9623 64.9606,1875.98 64.9606,1875.98 648.391,1875.98 648.423,1872.22 648.423,68.7283 648.423,68.6663 648.455,64.9643 64.9606,64.9623 64.9606,1875.98 64.9606,1875.98 648.391,1875.98 648.423,1872.22 648.423,68.7283 648.423,68.6663 648.455,64.9623 64.9606,64.9623 64.9606,1875.98 64.9606,1875.98 648.391,1875.98 648.423,1872.22 648.423,68.7283 648.423,68.6663 648.455,64.9643 64.9606,64.9623 64.9606,1875.98 64.9606,1875.98 648.391,1875.98 648.423,1872.22 648.423,68.7283 648.423,68.6663 648.455,64.9643 64.9606,64.9623 64.9606,1875.98 64.9606,1875.98 648.391,1875.98 648.423,1872.22 648.423,68.7283 648.423,68.6663 648.455,64.9643 64.9606,64.9623 64.9606,1875.98 64.9606,1875.98 648.391,1875.98 648.423,1872.22 648.423,68.7283 648.423,68.6663 648.455,64.9623 64.9606,64.9623 64.9606,1875.98 64.9606,1875.98 648.391,1875.98 648.423,1872.22 648.423,68.7283 648.423,68.6663 648.455,64.9643 64.9606,64.9623 64.9606,1875.98 64.9606,1875.98 648.391,1875.98 648.423,1872.22 648.423,68.7283 648.423,68.6663 648.455,64.9643 64.9606,64.9623 64.9606,1875.98 64.9606,1875.98 648.391,1875.98 648.423,1872.22 648.423,68.7283 648.423,68.6663 648.455,64.9643 64.9606,64.9623 64.9606,1875.98 64.9606,1875.98 648.391,1875.98 648.423,1872.22 648.423,68.7283 648.423,68.6663 648.455,64.9623 64.9606,64.9623 64.9606,1875.98 64.9606,1875.98 648.391,1875.98 648.423,1872.22 648.423,68.7283 648.423,68.6663 648.455,64.9643 64.9606,64.9623 64.9606,1875.98 64.9606,1875.98 648.391,1875.98 648.423,1872.22 648.423,68.7283 648.423,68.6663 648.455,64.9623 64.9606,64.9623 64.9606,1875.98 64.9606,1875.98 648.391,1875.98 648.423,1872.22 648.423,68.7283 648.423,68.6663 648.455,64.9623 64.9606,64.9623 64.9606,1875.98 64.9606,1875.98 648.391,1875.98 648.423,1872.22 648.423,68.7283 648.423,68.6663 648.455,64.9623 64.9606,64.9623 64.9606,1875.98 64.9606,1875.98 648.391,1875.98 648.423,1872.22 648.423,68.7283 648.423,68.6663 648.455,64.9623 64.9606,64.9623 64.9606,1875.98 64.9606,1875.98 648.391,1875.98 648.423,1872.22 648.423,68.7283 648.423,68.6663 648.455,64.9623 64.9606,64.9623 64.9606,1875.98 64.9606,1875.98 648.391,1875.98 648.423,1872.22 648.423,68.7283 648.423,68.6663 648.455,64.9623 64.9606,64.9623 64.9606,1875.98 64.9606,1875.98 648.391,1875.98 648.423,1872.22 648.423,68.7283 648.423,68.6663 648.455,64.9623 64.9606,64.9623 64.9606,1875.98 64.9606,1875.98 648.391,1875.98 648.423,1872.22 648.423,68.7283 648.423,68.6663 648.455,64.9643 64.9606,64.9623 64.9606,1875.98 64.9606,1875.98 648.391,1875.98 648.423,1872.22 648.423,68.7283 648.423,68.6663 648.455,64.9623 64.9606,64.9623 64.9606,1875.98 64.9606,1875.98 648.391,1875.98 648.423,1872.22 648.423,68.7283 648.423,68.6663 648.455,64.9643 64.9606,64.9623 64.9606,1875.98 64.9606,1875.98 648.391,1875.98 648.423,1872.22 648.423,68.7283 648.423,68.6663 648.455,64.9623 64.9606,64.9623 64.9606,1875.98 64.9606,1875.98 648.391,1875.98 648.423,1872.22 648.423,68.7283 648.423,68.6663 648.455,64.9623 64.9606,64.9623 64.9606,1875.98 64.9606,1875.98 648.391,1875.98 648.423,1872.22 648.423,68.7283 648.423,68.6663 648.455,64.9623 64.9606,64.9623 64.9606,1875.98 64.9606,1875.98 648.391,1875.98 648.423,1872.22 648.423,68.7283 648.423,68.6663 648.455,64.9623 64.9606,64.9623 64.9606,1875.98 64.9606,1875.98 648.391,1875.98 648.423,1872.22 648.423,68.7283 648.423,68.6663 648.455,64.9643 64.9606,64.9623 64.9606,1875.98 64.9606,1875.98 648.391,1875.98 648.423,1872.22 648.423,68.7283 648.423,68.6663 648.455,64.9623 64.9606,64.9623 64.9606,1875.98 64.9606,1875.98 648.391,1875.98 648.423,1872.22 648.423,68.7283 648.423,68.6663 648.455,64.9623 64.9606,64.9623 64.9606,1875.98 64.9606,1875.98 648.391,1875.98 648.423,1872.22 648.423,68.7283 648.423,68.6663 648.455,64.9643 64.9606,64.9623 64.9606,1875.98 64.9606,1875.98 648.391,1875.98 648.423,1872.22 648.423,68.7283 648.423,68.6663 648.455,64.9623 64.9606,64.9623 64.9606,1875.98 64.9606,1875.98 648.391,1875.98 648.423,1872.22 648.423,68.7283 648.423,68.6663 648.455,64.9623 64.9606,64.9623 64.9606,1875.98 64.9606,1875.98 648.391,1875.98 648.423,1872.22 648.423,68.7283 648.423,68.6663 648.455,64.9643 64.9606,64.9623 64.9606,1875.98 64.9606,1875.98 648.391,1875.98 648.423,1872.22 648.423,68.7283 648.423,68.6663 648.455,64.9623 64.9606,64.9623 64.9606,1875.98 64.9606,1875.98 648.391,1875.98 648.423,1872.22 648.423,68.7283 648.423,68.6663 648.455,64.9623 64.9606,64.9623 64.9606,1875.98 64.9606,1875.98 648.391,1875.98 648.423,1872.22 648.423,68.7283 648.423,68.6663 648.455,64.9643 64.9606,64.9623 64.9606,1875.98 64.9606,1875.98 648.391,1875.98 648.423,1872.22 648.423,68.7283 648.423,68.6663 648.455,64.9623 64.9606,64.9623 64.9606,1875.98 64.9606,1875.98 648.391,1875.98 648.423,1872.22 648.423,68.7283 648.423,68.6663 648.455,64.9643 64.9606,64.9623 64.9606,1875.98 64.9606,1875.98 648.391,1875.98 648.423,1872.22 648.423,68.7283 648.423,68.6663 648.455,64.9643 64.9606,64.9623 64.9606,1875.98 64.9606,1875.98 648.391,1875.98 648.423,1872.22 648.423,68.7283 648.423,68.6663 648.455,64.9623 64.9606,64.9623 64.9606,1875.98 64.9606,1875.98 648.391,1875.98 648.423,1872.22 648.423,68.7283 648.423,68.6663 648.455,64.9643 64.9606,64.9623 64.9606,1875.98 64.9606,1875.98 648.391,1875.98 648.423,1872.22 648.423,68.7283 648.423,68.6663 648.455,64.9623 64.9606,64.9623 64.9606,1875.98 64.9606,1875.98 648.391,1875.98 648.423,1872.22 648.423,68.7283 648.423,68.6663 648.455,64.9643 64.9606,64.9623 64.9606,1875.98 64.9606,1875.98 648.391,1875.98 648.423,1872.22 648.423,68.7283 648.423,68.6663 648.455,64.9643 64.9606,64.9623 64.9606,1875.98 64.9606,1875.98 648.391,1875.98 648.423,1872.22 648.423,68.7283 648.423,68.6663 648.455,64.9623 64.9606,64.9623 64.9606,1875.98 64.9606,1875.98 648.391,1875.98 648.423,1872.22 648.423,68.7283 648.423,68.6663 648.455,64.9643 64.9606,64.9623 64.9606,1875.98 64.9606,1875.98 648.391,1875.98 648.423,1872.22 648.423,68.7283 648.423,68.6663 648.455,64.9643 64.9606,64.9623 64.9606,1875.98 64.9606,1875.98 648.391,1875.98 648.423,1872.22 648.423,68.7283 648.423,68.6663 648.455,64.9623 64.9606,64.9623 64.9606,1875.98 64.9606,1875.98 648.391,1875.98 648.423,1872.22 648.423,68.7283 648.423,68.6663 648.455,64.9643 64.9606,64.9623 64.9606,1875.98 64.9606,1875.98 648.391,1875.98 648.423,1872.22 648.423,68.7283 648.423,68.6663 648.455,64.9623 64.9606,64.9623 64.9606,1875.98 64.9606,1875.98 648.391,1875.98 648.423,1872.22 648.423,68.7283 648.423,68.6663 648.455,64.9643 64.9606,64.9623 64.9606,1875.98 64.9606,1875.98 648.391,1875.98 648.423,1872.22 648.423,68.7283 648.423,68.6663 648.455,64.9623 64.9606,64.9623 64.9606,1875.98 64.9606,1875.98 648.391,1875.98 648.423,1872.22 648.423,68.7283 648.423,68.6663 648.455,64.9643 64.9606,64.9623 64.9606,1875.98 64.9606,1875.98 648.391,1875.98 648.423,1872.22 648.423,68.7283 648.423,68.6663 648.455,64.9643 64.9606,64.9623 64.9606,1875.98 64.9606,1875.98 648.391,1875.98 648.423,1872.22 648.423,68.7283 648.423,68.6663 648.455,64.9643 64.9606,64.9623 64.9606,1875.98 64.9606,1875.98 648.391,1875.98 648.423,1872.22 648.423,68.7283 648.423,68.6663 648.455,64.9623 64.9606,64.9623 64.9606,1875.98 64.9606,1875.98 648.391,1875.98 648.423,1872.22 648.423,68.7283 648.423,68.6663 648.455,64.9623 64.9606,64.9623 64.9606,1875.98 64.9606,1875.98 648.391,1875.98 648.423,1872.22 648.423,68.7283 648.423,68.6663 648.455,64.9643 64.9606,64.9623 64.9606,1875.98 64.9606,1875.98 648.391,1875.98 648.423,1872.22 648.423,68.7283 648.423,68.6663 648.455,64.9643 64.9606,64.9623 64.9606,1875.98 64.9606,1875.98 648.391,1875.98 648.423,1872.22 648.423,68.7283 648.423,68.6663 648.455,64.9623 64.9606,64.9623 64.9606,1875.98 64.9606,1875.98 648.391,1875.98 648.423,1872.22 648.423,68.7283 648.423,68.6663 648.455,64.9623 64.9606,64.9623 64.9606,1875.98 64.9606,1875.98 648.391,1875.98 648.423,1872.22 648.423,68.7283 648.423,68.6663 648.455,64.9643 64.9606,64.9623 64.9606,1875.98 64.9606,1875.98 648.391,1875.98 648.423,1872.22 648.423,68.7283 648.423,68.6663 648.455,64.9623 64.9606,64.9623 64.9606,1875.98 64.9606,1875.98 648.391,1875.98 648.423,1872.22 648.423,68.7283 648.423,68.6663 648.455,64.9643 64.9606,64.9623 64.9606,1875.98 64.9606,1875.98 648.391,1875.98 648.423,1872.22 648.423,68.7283 648.423,68.6663 648.455,64.9623 64.9606,64.9623 64.9606,1875.98 64.9606,1875.98 648.391,1875.98 648.423,1872.22 648.423,68.7283 648.423,68.6663 648.455,64.9623 64.9606,64.9623 64.9606,1875.98 64.9606,1875.98 648.391,1875.98 648.423,1872.22 648.423,68.7283 648.423,68.6663 648.455,64.9643 64.9606,64.9623 64.9606,1875.98 64.9606,1875.98 648.391,1875.98 648.423,1872.22 648.423,68.7283 648.423,68.6663 648.455,64.9643 64.9606,64.9623 64.9606,1875.98 64.9606,1875.98 648.391,1875.98 648.423,1872.22 648.423,68.7283 648.423,68.6663 648.455,64.9643 64.9606,64.9623 64.9606,1875.98 64.9606,1875.98 648.391,1875.98 648.423,1872.22 648.423,68.7283 648.423,68.6663 648.455,64.9643 64.9606,64.9623 64.9606,1875.98 64.9606,1875.98 648.391,1875.98 648.423,1872.22 648.423,68.7283 648.423,68.6663 648.455,64.9623 64.9606,64.9623 64.9606,1875.98 64.9606,1875.98 648.391,1875.98 648.423,1872.22 648.423,68.7283 648.423,68.6663 648.455,64.9643 64.9606,64.9623 64.9606,1875.98 64.9606,1875.98 648.391,1875.98 648.423,1872.22 648.423,68.7283 648.423,68.6663 648.455,64.9643 64.9606,64.9623 64.9606,1875.98 64.9606,1875.98 648.391,1875.98 648.423,1872.22 648.423,68.7283 648.423,68.6663 648.455,64.9623 64.9606,64.9623 64.9606,1875.98 64.9606,1875.98 648.391,1875.98 648.423,1872.22 648.423,68.7283 648.423,68.6663 648.455,64.9643 64.9606,64.9623 64.9606,1875.98 64.9606,1875.98 648.391,1875.98 648.423,1872.22 648.423,68.7283 648.423,68.6663 648.455,64.9623 64.9606,64.9623 64.9606,1875.98 64.9606,1875.98 648.391,1875.98 648.423,1872.22 648.423,68.7283 648.423,68.6663 648.455,64.9623 64.9606,64.9623 64.9606,1875.98 64.9606,1875.98 648.391,1875.98 648.423,1872.22 648.423,68.7283 648.423,68.6663 648.455,64.9623 64.9606,64.9623 64.9606,1875.98 64.9606,1875.98 648.391,1875.98 648.423,1872.22 648.423,68.7283 648.423,68.6663 648.455,64.9623 64.9606,64.9623 64.9606,1875.98 64.9606,1875.98 646.735,1875.98 648.423,1868.23 648.423,71.7183 648.197,70.3183 647.315,66.2623 646.917,64.9623 64.9606,64.9623 64.9606,1875.98 64.9606,1875.98 632.155,1875.98 632.593,1874.49 635.603,1860.66 636.613,1846.54 636.613,94.4103 636.045,83.8103 634.347,73.3303 633.465,69.2743 632.143,64.9623 64.9606,64.9623 64.9606,1875.98 64.9606,1875.98 617.361,1875.98 617.443,1875.78 618.993,1870.5 621.573,1858.64 622.439,1846.54 622.439,94.4103 621.953,85.3243 620.497,76.3423 619.615,72.2863 617.371,64.9623 64.9606,64.9623 64.9606,1875.98 64.9606,1875.98 602.163,1875.98 603.845,1871.78 605.395,1866.51 607.545,1856.62 608.267,1846.54 608.267,94.4103 607.861,86.8383 606.647,79.3523 605.765,75.2963 602.597,64.9623 64.9606,64.9623 64.9606,1875.98 64.9606,1875.98 586.965,1875.98 590.245,1867.79 591.795,1862.51 593.515,1854.61 594.093,1846.54 594.093,94.4103 593.769,88.3523 592.799,82.3643 591.917,78.3083 589.149,69.2843 586.987,64.9643 64.9606,64.9623 64.9606,1875.98 64.9606,1875.98 570.631,1875.98 573.643,1871.3 576.647,1863.8 578.197,1858.52 579.487,1852.59 579.919,1846.54 579.919,94.4103 579.677,89.8683 578.949,85.3763 578.067,81.3203 575.991,74.5523 572.823,68.2223 570.443,64.9623 64.9606,64.9623 64.9606,1875.98 64.9606,1870.14 67.7086,1873.32 70.5086,1875.98 551.243,1875.98 554.417,1873.24 558.133,1869.34 561.045,1864.8 563.047,1859.8 564.597,1854.52 565.457,1850.57 565.747,1846.54 565.747,94.4103 565.585,91.3823 565.099,88.3883 564.217,84.3323 562.833,79.8203 560.721,75.6003 557.939,71.7883 554.335,67.6303 551.535,64.9643 70.8006,64.9623 67.6266,67.7123 64.9606,70.5123 64.9606,1870.14 70.4706,1846.54 70.5506,1848.05 70.7946,1849.55 71.6766,1853.6 72.3686,1855.86 73.4246,1857.97 74.8146,1859.88 78.4186,1864.03 80.3686,1865.89 82.6346,1867.35 85.1366,1868.35 90.4146,1869.9 92.3906,1870.33 94.4086,1870.47 527.637,1870.47 529.151,1870.39 530.647,1870.15 534.703,1869.27 536.959,1868.58 539.069,1867.52 540.975,1866.13 545.133,1862.53 546.991,1860.58 548.447,1858.31 549.449,1855.81 550.999,1850.53 551.429,1848.55 551.573,1846.54 551.573,94.4103 551.493,92.8963 551.249,91.4003 550.367,87.3443 549.675,85.0883 548.619,82.9783 547.229,81.0723 543.625,76.9143 541.675,75.0563 539.409,73.6003 536.907,72.5983 531.629,71.0483 529.653,70.6183 527.637,70.4743 94.4086,70.4743 92.8926,70.5543 91.3966,70.7983 87.3406,71.6803 85.0846,72.3723 82.9746,73.4283 81.0686,74.8183 76.9106,78.4223 75.0526,80.3723 73.5966,82.6383 72.5946,85.1403 71.0446,90.4183 70.6146,92.3943 70.4706,94.4103 70.4706,1846.54" style="stroke:rgb(0,0,0);stroke-width:1px;fill:none;stroke-opacity:1;stroke-linecap:round;stroke-linejoin:round;;fill:none"/>
<polyline points="662.597,1872.22 662.597,68.7883 662.629,64.9623 1246.06,64.9623 1246.06,1875.98 662.565,1875.98 662.597,1872.28 662.597,1872.22 662.597,1872.22 662.597,68.7883 662.629,64.9623 1246.06,64.9623 1246.06,1875.98 662.565,1875.98 662.597,1872.28 662.597,1872.22 662.597,1872.22 662.597,68.7883 662.629,64.9623 1246.06,64.9623 1246.06,1875.98 662.565,1875.98 662.597,1872.28 662.597,1872.22 662.597,1872.22 662.597,68.7883 662.629,64.9623 1246.06,64.9623 1246.06,1875.98 662.565,1875.98 662.597,1872.28 662.597,1872.22 662.597,1872.22 662.597,68.7883 662.629,64.9623 1246.06,64.9623 1246.06,1875.98 662.565,1875.98 662.597,1872.28 662.597,1872.22 662.597,1872.22 662.597,68.7883 662.629,64.9643 1246.06,64.9623 1246.06,1875.98 662.565,1875.98 662.597,1872.28 662.597,1872.22 662.597,1872.22 662.597,68.7883 662.629,64.9623 1246.06,64.9623 1246.06,1875.98 662.565,1875.98 662.597,1872.28 662.597,1872.22 662.597,1872.22 662.597,68.7883 662.629,64.9623 1246.06,64.9623 1246.06,1875.98 662.565,1875.98 662.597,1872.28 662.597,1872.22 662.597,1872.22 662.597,68.7883 662.629,64.9643 1246.06,64.9623 1246.06,1875.98 662.565,1875.98 662.597,1872.28 662.597,1872.22 662.597,1872.22 662.597,68.7883 662.629,64.9643 1246.06,64.9623 1246.06,1875.98 662.565,1875.98 662.597,1872.28 662.597,1872.22 662.597,1872.22 662.597,68.7883 662.629,64.9623 1246.06,64.9623 1246.06,1875.98 662.565,1875.98 662.597,1872.28 662.597,1872.22 662.597,1872.22 662.597,68.7883 662.629,64.9643 1246.06,64.9623 1246.06,1875.98 662.565,1875.98 662.597,1872.28 662.597,1872.22 662.597,1872.22 662.597,68.7883 662.629,64.9643 1246.06,64.9623 1246.06,1875.98 662.565,1875.98 662.597,1872.28 662.597,1872.22 662.597,1872.22 662.597,68.7883 662.629,64.9623 1246.06,64.9623 1246.06,1875.98 662.565,1875.98 662.597,1872.28 662.597,1872.22 662.597,1872.22 662.597,68.7883 662.629,64.9623 1246.06,64.9623 1246.06,1875.98 662.565,1875.98 662.597,1872.28 662.597,1872.22 662.597,1872.22 662.597,68.7883 662.629,64.9643 1246.06,64.9623 1246.06,1875.98 662.565,1875.98 662.597,1872.28 662.597,1872.22 662.597,1872.22 662.597,68.7883 662.629,64.9623 1246.06,64.9623 1246.06,1875.98 662.565,1875.98 662.597,1872.28 662.597,1872.22 662.597,1872.22 662.597,68.7883 662.629,64.9643 1246.06,64.9623 1246.06,1875.98 662.565,1875.98 662.597,1872.28 662.597,1872.22 662.597,1872.22 662.597,68.7883 662.629,64.9643 1246.06,64.9623 1246.06,1875.98 662.565,1875.98 662.597,1872.28 662.597,1872.22 662.597,1872.22 662.597,68.7883 662.629,64.9623 1246.06,64.9623 1246.06,1875.98 662.565,1875.98 662.597,1872.28 662.597,1872.22 662.597,1872.22 662.597,68.7883 662.629,64.9623 1246.06,64.9623 1246.06,1875.98 662.565,1875.98 662.597,1872.28 662.597,1872.22 662.597,1872.22 662.597,68.7883 662.629,64.9623 1246.06,64.9623 1246.06,1875.98 662.565,1875.98 662.597,1872.28 662.597,1872.22 662.597,1872.22 662.597,68.7883 662.629,64.9643 1246.06,64.9623 1246.06,1875.98 662.565,1875.98 662.597,1872.28 662.597,1872.22 662.597,1872.22 662.597,68.7883 662.629,64.9643 1246.06,64.9623 1246.06,1875.98 662.565,1875.98 662.597,1872.28 662.597,1872.22 662.597,1872.22 662.597,68.7883 662.629,64.9623 1246.06,64.9623 1246.06,1875.98 662.565,1875.98 662.597,1872.28 662.597,1872.22 662.597,1872.22 662.597,68.7883 662.629,64.9623 1246.06,64.9623 1246.06,1875.98 662.565,1875.98 662.597,1872.28 662.597,1872.22 662.597,1872.22 662.597,68.7883 662.629,64.9623 1246.06,64.9623 1246.06,1875.98 662.565,1875.98 662.597,1872.28 662.597,1872.22 662.597,1872.22 662.597,68.7883 662.629,64.9623 1246.06,64.9623 1246.06,1875.98 662.565,1875.98 662.597,1872.28 662.597,1872.22 662.597,1872.22 662.597,68.7883 662.629,64.9623 1246.06,64.9623 1246.06,1875.98 662.565,1875.98 662.597,1872.28 662.597,1872.22 662.597,1872.22 662.597,68.7883 662.629,64.9623 1246.06,64.9623 1246.06,1875.98 662.565,1875.98 662.597,1872.28 662.597,1872.22 662.597,1872.22 662.597,68.7883 662.629,64.9623 1246.06,64.9623 1246.06,1875.98 662.565,1875.98 662.597,1872.28 662.597,1872.22 662.597,1872.22 662.597,68.7883 662.629,64.9643 1246.06,64.9623 1246.06,1875.98 662.565,1875.98 662.597,1872.28 662.597,1872.22 662.597,1872.22 662.597,68.7883 662.629,64.9623 1246.06,64.9623 1246.06,1875.98 662.565,1875.98 662.597,1872.28 662.597,1872.22 662.597,1872.22 662.597,68.7883 662.629,64.9643 1246.06,64.9623 1246.06,1875.98 662.565,1875.98 662.597,1872.28 662.597,1872.22 662.597,1872.22 662.597,68.7883 662.629,64.9643 1246.06,64.9623 1246.06,1875.98 662.565,1875.98 662.597,1872.28 662.597,1872.22 662.597,1872.22 662.597,68.7883 662.629,64.9643 1246.06,64.9623 1246.06,1875.98 662.565,1875.98 662.597,1872.28 662.597,1872.22 662.597,1872.22 662.597,68.7883 662.629,64.9643 1246.06,64.9623 1246.06,1875.98 662.565,1875.98 662.597,1872.28 662.597,1872.22 662.597,1872.22 662.597,68.7883 662.629,64.9623 1246.06,64.9623 1246.06,1875.98 662.565,1875.98 662.597,1872.28 662.597,1872.22 662.597,1872.22 662.597,68.7883 662.629,64.9623 1246.06,64.9623 1246.06,1875.98 662.565,1875.98 662.597,1872.28 662.597,1872.22 662.597,1872.22 662.597,68.7883 662.629,64.9623 1246.06,64.9623 1246.06,1875.98 662.565,1875.98 662.597,1872.28 662.597,1872.22 662.597,1872.22 662.597,68.7883 662.629,64.9643 1246.06,64.9623 1246.06,1875.98 662.565,1875.98 662.597,1872.28 662.597,1872.22 662.597,1872.22 662.597,68.7883 662.629,64.9623 1246.06,64.9623 1246.06,1875.98 662.565,1875.98 662.597,1872.28 662.597,1872.22 662.597,1872.22 662.597,68.7883 662.629,64.9623 1246.06,64.9623 1246.06,1875.98 662.565,1875.98 662.597,1872.28 662.597,1872.22 662.597,1872.22 662.597,68.7883 662.629,64.9643 1246.06,64.9623 1246.06,1875.98 662.565,1875.98 662.597,1872.28 662.597,1872.22 662.597,1872.22 662.597,68.7883 662.629,64.9643 1246.06,64.9623 1246.06,1875.98 662.565,1875.98 662.597,1872.28 662.597,1872.22 662.597,1872.22 662.597,68.7883 662.629,64.9623 1246.06,64.9623 1246.06,1875.98 662.565,1875.98 662.597,1872.28 662.597,1872.22 662.597,1872.22 662.597,68.7883 662.629,64.9643 1246.06,64.9623 1246.06,1875.98 662.565,1875.98 662.597,1872.28 662.597,1872.22 662.597,1872.22 662.597,68.7883 662.629,64.9623 1246.06,64.9623 1246.06,1875.98 662.565,1875.98 662.597,1872.28 662.597,1872.22 662.597,1872.22 662.597,68.7883 662.629,64.9623 1246.06,64.9623 1246.06,1875.98 662.565,1875.98 662.597,1872.28 662.597,1872.22 662.597,1872.22 662.597,68.7883 662.629,64.9643 1246.06,64.9623 1246.06,1875.98 662.565,1875.98 662.597,1872.28 662.597,1872.22 662.597,1872.22 662.597,68.7883 662.629,64.9643 1246.06,64.9623 1246.06,1875.98 662.565,1875.98 662.597,1872.28 662.597,1872.22 662.597,1872.22 662.597,68.7883 662.629,64.9623 1246.06,64.9623 1246.06,1875.98 662.565,1875.98 662.597,1872.28 662.597,1872.22 662.597,1872.22 662.597,68.7883 662.629,64.9643 1246.06,64.9623 1246.06,1875.98 662.565,1875.98 662.597,1872.28 662.597,1872.22 662.597,1872.22 662.597,68.7883 662.629,64.9623 1246.06,64.9623 1246.06,1875.98 662.565,1875.98 662.597,1872.28 662.597,1872.22 662.597,1872.22 662.597,68.7883 662.629,64.9643 1246.06,64.9623 1246.06,1875.98 662.565,1875.98 662.597,1872.28 662.597,1872.22 662.597,1872.22 662.597,68.7883 662.629,64.9643 1246.06,64.9623 1246.06,1875.98 662.565,1875.98 662.597,1872.28 662.597,1872.22 662.597,1872.22 662.597,68.7883 662.629,64.9623 1246.06,64.9623 1246.06,1875.98 662.565,1875.98 662.597,1872.28 662.597,1872.22 662.597,1872.22 662.597,68.7883 662.629,64.9643 1246.06,64.9623 1246.06,1875.98 662.565,1875.98 662.597,1872.28 662.597,1872.22 662.597,1872.22 662.597,68.7883 662.629,64.9623 1246.06,64.9623 1246.06,1875.98 662.565,1875.98 662.597,1872.28 662.597,1872.22 662.597,1872.22 662.597,68.7883 662.629,64.9623 1246.06,64.9623 1246.06,1875.98 662.565,1875.98 662.597,1872.28 662.597,1872.22 662.597,1872.22 662.597,68.7883 662.629,64.9623 1246.06,64.9623 1246.06,1875.98 662.565,1875.98 662.597,1872.28 662.597,1872.22 662.597,1872.22 662.597,68.7883 662.629,64.9643 1246.06,64.9623 1246.06,1875.98 662.565,1875.98 662.597,1872.28 662.597,1872.22 662.597,1872.22 662.597,68.7883 662.629,64.9643 1246.06,64.9623 1246.06,1875.98 662.565,1875.98 662.597,1872.28 662.597,1872.22 662.597,1872.22 662.597,68.7883 662.629,64.9643 1246.06,64.9623 1246.06,1875.98 662.565,1875.98 662.597,1872.28 662.597,1872.22 662.597,1872.22 662.597,68.7883 662.629,64.9643 1246.06,64.9623 1246.06,1875.98 662.565,1875.98 662.597,1872.28 662.597,1872.22 662.597,1872.22 662.597,68.7883 662.629,64.9623 1246.06,64.9623 1246.06,1875.98 662.565,1875.98 662.597,1872.28 662.597,1872.22 662.597,1872.22 662.597,68.7883 662.629,64.9623 1246.06,64.9623 1246.06,1875.98 662.565,1875.98 662.597,1872.28 662.597,1872.22 662.597,1872.22 662.597,68.7883 662.629,64.9643 1246.06,64.9623 1246.06,1875.98 662.565,1875.98 662.597,1872.28 662.597,1872.22 662.597,1872.22 662.597,68.7883 662.629,64.9643 1246.06,64.9623 1246.06,1875.98 662.565,1875.98 662.597,1872.28 662.597,1872.22 662.597,1872.22 662.597,68.7883 662.629,64.9623 1246.06,64.9623 1246.06,1875.98 662.565,1875.98 662.597,1872.28 662.597,1872.22 662.597,1872.22 662.597,68.7883 662.629,64.9643 1246.06,64.9623 1246.06,1875.98 662.565,1875.98 662.597,1872.28 662.597,1872.22 662.597,1872.22 662.597,68.7883 662.629,64.9643 1246.06,64.9623 1246.06,1875.98 662.565,1875.98 662.597,1872.28 662.597,1872.22 662.597,1872.22 662.597,68.7883 662.629,64.9643 1246.06,64.9623 1246.06,1875.98 662.565,1875.98 662.597,1872.28 662.597,1872.22 662.597,1872.22 662.597,68.7883 662.629,64.9623 1246.06,64.9623 1246.06,1875.98 662.565,1875.98 662.597,1872.28 662.597,1872.22 662.597,1872.22 662.597,68.7883 662.629,64.9623 1246.06,64.9623 1246.06,1875.98 662.565,1875.98 662.597,1872.28 662.597,1872.22 662.597,1872.22 662.597,68.7883 662.629,64.9643 1246.06,64.9623 1246.06,1875.98 662.565,1875.98 662.597,1872.28 662.597,1872.22 662.597,1872.22 662.597,68.7883 662.629,64.9623 1246.06,64.9623 1246.06,1875.98 662.565,1875.98 662.597,1872.28 662.597,1872.22 662.597,1872.22 662.597,68.7883 662.629,64.9643 1246.06,64.9623 1246.06,1875.98 662.565,1875.98 662.597,1872.28 662.597,1872.22 662.597,1872.22 662.597,68.7883 662.629,64.9643 1246.06,64.9623 1246.06,1875.98 662.565,1875.98 662.597,1872.28 662.597,1872.22 662.597,1872.22 662.597,68.7883 662.629,64.9623 1246.06,64.9623 1246.06,1875.98 662.565,1875.98 662.597,1872.28 662.597,1872.22 662.597,1872.22 662.597,68.7883 662.629,64.9623 1246.06,64.9623 1246.06,1875.98 662.565,1875.98 662.597,1872.28 662.597,1872.22 662.597,1872.22 662.597,68.7883 662.629,64.9623 1246.06,64.9623 1246.06,1875.98 662.565,1875.98 662.597,1872.28 662.597,1872.22 662.597,1872.22 662.597,68.7883 662.629,64.9623 1246.06,64.9623 1246.06,1875.98 662.565,1875.98 662.597,1872.28 662.597,1872.22 662.597,1872.22 662.597,68.7883 662.629,64.9643 1246.06,64.9623 1246.06,1875.98 662.565,1875.98 662.597,1872.28 662.597,1872.22 662.597,1872.22 662.597,68.7883 662.629,64.9623 1246.06,64.9623 1246.06,1875.98 662.565,1875.98 662.597,1872.28 662.597,1872.22 662.597,1872.22 662.597,68.7883 662.629,64.9643 1246.06,64.9623 1246.06,1875.98 662.565,1875.98 662.597,1872.28 662.597,1872.22 662.597,1872.22 662.597,68.7883 662.629,64.9643 1246.06,64.9623 1246.06,1875.98 662.565,1875.98 662.597,1872.28 662.597,1872.22 662.597,1872.22 662.597,68.7883 662.629,64.9643 1246.06,64.9623 1246.06,1875.98 662.565,1875.98 662.597,1872.28 662.597,1872.22 662.597,1872.22 662.597,68.7883 662.629,64.9643 1246.06,64.9623 1246.06,1875.98 662.565,1875.98 662.597,1872.28 662.597,1872.22 662.597,1872.22 662.597,68.7883 662.629,64.9623 1246.06,64.9623 1246.06,1875.98 662.565,1875.98 662.597,1872.28 662.597,1872.22 662.597,1872.22 662.597,68.7883 662.629,64.9643 1246.06,64.9623 1246.06,1875.98 662.565,1875.98 662.597,1872.28 662.597,1872.22 662.597,1872.22 662.597,68.7883 662.629,64.9643 1246.06,64.9623 1246.06,1875.98 662.565,1875.98 662.597,1872.28 662.597,1872.22 662.597,1872.22 662.597,68.7883 662.629,64.9623 1246.06,64.9623 1246.06,1875.98 662.565,1875.98 662.597,1872.28 662.597,1872.22 662.597,1869.23 662.823,1870.63 663.705,1874.69 664.103,1875.98 1246.06,1875.98 1246.06,64.9623 664.285,64.9643 662.597,72.7203 662.597,1869.23 674.407,1846.54 674.975,1857.14 676.673,1867.62 677.555,1871.67 678.877,1875.98 1246.06,1875.98 1246.06,64.9623 678.865,64.9623 678.427,66.4563 675.417,80.2903 674.407,94.4103 674.407,1846.54 688.581,1846.54 689.067,1855.62 690.523,1864.61 691.405,1868.66 693.649,1875.98 1246.06,1875.98 1246.06,64.9623 693.659,64.9623 693.577,65.1723 692.027,70.4503 689.447,82.3063 688.581,94.4103 688.581,1846.54 702.753,1846.54 703.159,1854.11 704.373,1861.6 705.255,1865.65 708.423,1875.98 1246.06,1875.98 1246.06,64.9623 708.857,64.9623 707.175,69.1643 705.625,74.4423 703.475,84.3243 702.753,94.4103 702.753,1846.54 716.927,1846.54 717.251,1852.6 718.221,1858.58 719.103,1862.64 721.871,1871.66 724.033,1875.98 1246.06,1875.98 1246.06,64.9623 724.055,64.9643 720.775,73.1583 719.225,78.4363 717.505,86.3423 716.927,94.4103 716.927,1846.54 731.101,1846.54 731.343,1851.08 732.071,1855.57 732.953,1859.63 735.029,1866.4 738.197,1872.73 740.577,1875.98 1246.06,1875.98 1246.06,64.9623 740.389,64.9623 737.377,69.6503 734.373,77.1523 732.823,82.4303 731.533,88.3583 731.101,94.4103 731.101,1846.54 745.273,1846.54 745.435,1849.57 745.921,1852.56 746.803,1856.62 748.187,1861.13 750.299,1865.35 753.081,1869.16 756.685,1873.32 759.485,1875.98 1240.22,1875.98 1243.39,1873.24 1246.06,1870.43 1246.06,70.8063 1243.32,67.6363 1240.51,64.9623 759.777,64.9643 756.603,67.7123 752.887,71.6123 749.975,76.1443 747.973,81.1463 746.423,86.4243 745.563,90.3763 745.273,94.4103 745.273,1846.54 759.447,1846.54 759.527,1848.05 759.771,1849.55 760.653,1853.6 761.345,1855.86 762.401,1857.97 763.791,1859.88 767.395,1864.03 769.345,1865.89 771.611,1867.35 774.113,1868.35 779.391,1869.9 781.367,1870.33 783.385,1870.47 1216.61,1870.47 1218.13,1870.39 1219.62,1870.15 1223.68,1869.27 1225.93,1868.58 1228.04,1867.52 1229.95,1866.13 1234.11,1862.53 1235.97,1860.58 1237.42,1858.31 1238.42,1855.81 1239.97,1850.53 1240.4,1848.55 1240.55,1846.54 1240.55,94.4103 1240.47,92.8963 1240.22,91.4003 1239.34,87.3443 1238.65,85.0883 1237.6,82.9803 1236.21,81.0743 1232.6,76.9163 1230.65,75.0563 1228.39,73.6003 1225.88,72.5983 1220.6,71.0483 1218.63,70.6183 1216.61,70.4743 783.385,70.4743 781.869,70.5543 780.373,70.7983 776.317,71.6803 774.061,72.3723 771.951,73.4283 770.045,74.8183 765.887,78.4223 764.029,80.3723 762.573,82.6383 761.571,85.1403 760.021,90.4183 759.591,92.3943 759.447,94.4103 759.447,1846.54" style="stroke:rgb(115,81,255);stroke-width:28.346457;fill:none;stroke-opacity:0.5;stroke-linecap:round;stroke-linejoin:round;;fill:none"/>
<polyline points="662.597,1872.22 662.597,68.7883 662.629,64.9623 1246.06,64.9623 1246.06,1875.98 662.565,1875.98 662.597,1872.28 662.597,1872.22 662.597,1872.22 662.597,68.7883 662.629,64.9623 1246.06,64.9623 1246.06,1875.98 662.565,1875.98 662.597,1872.28 662.597,1872.22 662.597,1872.22 662.597,68.7883 662.629,64.9623 1246.06,64.9623 1246.06,1875.98 662.565,1875.98 662.597,1872.28 662.597,1872.22 662.597,1872.22 662.597,68.7883 662.629,64.9623 1246.06,64.9623 1246.06,1875.98 662.565,1875.98 662.597,1872.28 662.597,1872.22 662.597,1872.22 662.597,68.7883 662.629,64.9623 1246.06,64.9623 1246.06,1875.98 662.565,1875.98 662.597,1872.28 662.597,1872.22 662.597,1872.22 662.597,68.7883 662.629,64.9643 1246.06,64.9623 1246.06,1875.98 662.565,1875.98 662.597,1872.28 662.597,1872.22 662.597,1872.22 662.597,68.7883 662.629,64.9623 1246.06,64.9623 1246.06,1875.98 662.565,1875.98 662.597,1872.28 662.597,1872.22 662.597,1872.22 662.597,68.7883 662.629,64.9623 1246.06,64.9623 1246.06,1875.98 662.565,1875.98 662.597,1872.28 662.597,1872.22 662.597,1872.22 662.597,68.7883 662.629,64.9643 1246.06,64.9623 1246.06,1875.98 662.565,1875.98 662.597,1872.28 662.597,1872.22 662.597,1872.22 662.597,68.7883 662.629,64.9643 1246.06,64.9623 1246.06,1875.98 662.565,1875.98 662.597,1872.28 662.597,1872.22 662.597,1872.22 662.597,68.7883 662.629,64.9623 1246.06,64.9623 1246.06,1875.98 662.565,1875.98 662.597,1872.28 662.597,1872.22 662.597,1872.22 662.597,68.7883 662.629,64.9643 1246.06,64.9623 1246.06,1875.98 662.565,1875.98 662.597,1872.28 662.597,1872.22 662.597,1872.22 662.597,68.7883 662.629,64.9643 1246.06,64.9623 1246.06,1875.98 662.565,1875.98 662.597,1872.28 662.597,1872.22 662.597,1872.22 662.597,68.7883 662.629,64.9623 1246.06,64.9623 1246.06,1875.98 662.565,1875.98 662.597,1872.28 662.597,1872.22 662.597,1872.22 662.597,68.7883 662.629,64.9623 1246.06,64.9623 1246.06,1875.98 662.565,1875.98 662.597,1872.28 662.597,1872.22 662.597,1872.22 662.597,68.7883 662.629,64.9643 1246.06,64.9623 1246.06,1875.98 662.565,1875.98 662.597,1872.28 662.597,1872.22 662.597,1872.22 662.597,68.7883 662.629,64.9623 1246.06,64.9623 1246.06,1875.98 662.565,1875.98 662.597,1872.28 662.597,1872.22 662.597,1872.22 662.597,68.7883 662.629,64.9643 1246.06,64.9623 1246.06,1875.98 662.565,1875.98 662.597,1872.28 662.597,1872.22 662.597,1872.22 662.597,68.7883 662.629,64.9643 1246.06,64.9623 1246.06,1875.98 662.565,1875.98 662.597,1872.28 662.597,1872.22 662.597,1872.22 662.597,68.7883 662.629,64.9623 1246.06,64.9623 1246.06,1875.98 662.565,1875.98 662.597,1872.28 662.597,1872.22 662.597,1872.22 662.597,68.7883 662.629,64.9623 1246.06,64.9623 1246.06,1875.98 662.565,1875.98 662.597,1872.28 662.597,1872.22 662.597,1872.22 662.597,68.7883 662.629,64.9623 1246.06,64.9623 1246.06,1875.98 662.565,1875.98 662.597,1872.28 662.597,1872.22 662.597,1872.22 662.597,68.7883 662.629,64.9643 1246.06,64.9623 1246.06,1875.98 662.565,1875.98 662.597,1872.28 662.597,1872.22 662.597,1872.22 662.597,68.7883 662.629,64.9643 1246.06,64.9623 1246.06,1875.98 662.565,1875.98 662.597,1872.28 662.597,1872.22 662.597,1872.22 662.597,68.7883 662.629,64.9623 1246.06,64.9623 1246.06,1875.98 662.565,1875.98 662.597,1872.28 662.597,1872.22 662.597,1872.22 662.597,68.7883 662.629,64.9623 1246.06,64.9623 1246.06,1875.98 662.565,1875.98 662.597,1872.28 662.597,1872.22 662.597,1872.22 662.597,68.7883 662.629,64.9623 1246.06,64.9623 1246.06,1875.98 662.565,1875.98 662.597,1872.28 662.597,1872.22 662.597,1872.22 662.597,68.7883 662.629,64.9623 1246.06,64.9623 1246.06,1875.98 662.565,1875.98 662.597,1872.28 662.597,1872.22 662.597,1872.22 662.597,68.7883 662.629,64.9623 1246.06,64.9623 1246.06,1875.98 662.565,1875.98 662.597,1872.28 662.597,1872.22 662.597,1872.22 662.597,68.7883 662.629,64.9623 1246.06,64.9623 1246.06,1875.98 662.565,1875.98 662.597,1872.28 662.597,1872.22 662.597,1872.22 662.597,68.7883 662.629,64.9623 1246.06,64.9623 1246.06,1875.98 662.565,1875.98 662.597,1872.28 662.597,1872.22 662.597,1872.22 662.597,68.7883 662.629,64.9643 1246.06,64.9623 1246.06,1875.98 662.565,1875.98 662.597,1872.28 662.597,1872.22 662.597,1872.22 662.597,68.7883 662.629,64.9623 1246.06,64.9623 1246.06,1875.98 662.565,1875.98 662.597,1872.28 662.597,1872.22 662.597,1872.22 662.597,68.7883 662.629,64.9643 1246.06,64.9623 1246.06,1875.98 662.565,1875.98 662.597,1872.28 662.597,1872.22 662.597,1872.22 662.597,68.7883 662.629,64.9643 1246.06,64.9623 1246.06,1875.98 662.565,1875.98 662.597,1872.28 662.597,1872.22 662.597,1872.22 662.597,68.7883 662.629,64.9643 1246.06,64.9623 1246.06,1875.98 662.565,1875.98 662.597,1872.28 662.597,1872.22 662.597,1872.22 662.597,68.7883 662.629,64.9643 1246.06,64.9623 1246.06,1875.98 662.565,1875.98 662.597,1872.28 662.597,1872.22 662.597,1872.22 662.597,68.7883 662.629,64.9623 1246.06,64.9623 1246.06,1875.98 662.565,1875.98 662.597,1872.28 662.597,1872.22 662.597,1872.22 662.597,68.7883 662.629,64.9623 1246.06,64.9623 1246.06,1875.98 662.565,1875.98 662.597,1872.28 662.597,1872.22 662.597,1872.22 662.597,68.7883 662.629,64.9623 1246.06,64.9623 1246.06,1875.98 662.565,1875.98 662.597,1872.28 662.597,1872.22 662.597,1872.22 662.597,68.7883 662.629,64.9643 1246.06,64.9623 1246.06,1875.98 662.565,1875.98 662.597,1872.28 662.597,1872.22 662.597,1872.22 662.597,68.7883 662.629,64.9623 1246.06,64.9623 1246.06,1875.98 662.565,1875.98 662.597,1872.28 662.597,1872.22 662.597,1872.22 662.597,68.7883 662.629,64.9623 1246.06,64.9623 1246.06,1875.98 662.565,1875.98 662.597,1872.28 662.597,1872.22 662.597,1872.22 662.597,68.7883 662.629,64.9643 1246.06,64.9623 1246.06,1875.98 662.565,1875.98 662.597,1872.28 662.597,1872.22 662.597,1872.22 662.597,68.7883 662.629,64.9643 1246.06,64.9623 1246.06,1875.98 662.565,1875.98 662.597,1872.28 662.597,1872.22 662.597,1872.22 662.597,68.7883 662.629,64.9623 1246.06,64.9623 1246.06,1875.98 662.565,1875.98 662.597,1872.28 662.597,1872.22 662.597,1872.22 662.597,68.7883 662.629,64.9643 1246.06,64.9623 1246.06,1875.98 662.565,1875.98 662.597,1872.28 662.597,1872.22 662.597,1872.22 662.597,68.7883 662.629,64.9623 1246.06,64.9623 1246.06,1875.98 662.565,1875.98 662.597,1872.28 662.597,1872.22 662.597,1872.22 662.597,68.7883 662.629,64.9623 1246.06,64.9623 1246.06,1875.98 662.565,1875.98 662.597,1872.28 662.597,1872.22 662.597,1872.22 662.597,68.7883 662.629,64.9643 1246.06,64.9623 1246.06,1875.98 662.565,1875.98 662.597,1872.28 662.597,1872.22 662.597,1872.22 662.597,68.7883 662.629,64.9643 1246.06,64.9623 1246.06,1875.98 662.565,1875.98 662.597,1872.28 662.597,1872.22 662.597,1872.22 662.597,68.7883 662.629,64.9623 1246.06,64.9623 1246.06,1875.98 662.565,1875.98 662.597,1872.28 662.597,1872.22 662.597,1872.22 662.597,68.7883 662.629,64.9643 1246.06,64.9623 1246.06,1875.98 662.565,1875.98 662.597,1872.28 662.597,1872.22 662.597,1872.22 662.597,68.7883 662.629,64.9623 1246.06,64.9623 1246.06,1875.98 662.565,1875.98 662.597,1872.28 662.597,1872.22 662.597,1872.22 662.597,68.7883 662.629,64.9643 1246.06,64.9623 1246.06,1875.98 662.565,1875.98 662.597,1872.28 662.597,1872.22 662.597,1872.22 662.597,68.7883 662.629,64.9643 1246.06,64.9623 1246.06,1875.98 662.565,1875.98 662.597,1872.28 662.597,1872.22 662.597,1872.22 662.597,68.7883 662.629,64.9623 1246.06,64.9623 1246.06,1875.98 662.565,1875.98 662.597,1872.28 662.597,1872.22 662.597,1872.22 662.597,68.7883 662.629,64.9643 1246.06,64.9623 1246.06,1875.98 662.565,1875.98 662.597,1872.28 662.597,1872.22 662.597,1872.22 662.597,68.7883 662.629,64.9623 1246.06,64.9623 1246.06,1875.98 662.565,1875.98 662.597,1872.28 662.597,1872.22 662.597,1872.22 662.597,68.7883 662.629,64.9623 1246.06,64.9623 1246.06,1875.98 662.565,1875.98 662.597,1872.28 662.597,1872.22 662.597,1872.22 662.597,68.7883 662.629,64.9623 1246.06,64.9623 1246.06,1875.98 662.565,1875.98 662.597,1872.28 662.597,1872.22 662.597,1872.22 662.597,68.7883 662.629,64.9643 1246.06,64.9623 1246.06,1875.98 662.565,1875.98 662.597,1872.28 662.597,1872.22 662.597,1872.22 662.597,68.7883 662.629,64.9643 1246.06,64.9623 1246.06,1875.98 662.565,1875.98 662.597,1872.28 662.597,1872.22 662.597,1872.22 662.597,68.7883 662.629,64.9643 1246.06,64.9623 1246.06,1875.98 662.565,1875.98 662.597,1872.28 662.597,1872.22 662.597,1872.22 662.597,68.7883 662.629,64.9643 1246.06,64.9623 1246.06,1875.98 662.565,1875.98 662.597,1872.28 662.597,1872.22 662.597,1872.22 662.597,68.7883 662.629,64.9623 1246.06,64.9623 1246.06,1875.98 662.565,1875.98 662.597,1872.28 662.597,1872.22 662.597,1872.22 662.597,68.7883 662.629,64.9623 1246.06,64.9623 1246.06,1875.98 662.565,1875.98 662.597,1872.28 662.597,1872.22 662.597,1872.22 662.597,68.7883 662.629,64.9643 1246.06,64.9623 1246.06,1875.98 662.565,1875.98 662.597,1872.28 662.597,1872.22 662.597,1872.22 662.597,68.7883 662.629,64.9643 1246.06,64.9623 1246.06,1875.98 662.565,1875.98 662.597,1872.28 662.597,1872.22 662.597,1872.22 662.597,68.7883 662.629,64.9623 1246.06,64.9623 1246.06,1875.98 662.565,1875.98 662.597,1872.28 662.597,1872.22 662.597,1872.22 662.597,68.7883 662.629,64.9643 1246.06,64.9623 1246.06,1875.98 662.565,1875.98 662.597,1872.28 662.597,1872.22 662.597,1872.22 662.597,68.7883 662.629,64.9643 1246.06,64.9623 1246.06,1875.98 662.565,1875.98 662.597,1872.28 662.597,1872.22 662.597,1872.22 662.597,68.7883 662.629,64.9643 1246.06,64.9623 1246.06,1875.98 662.565,1875.98 662.597,1872.28 662.597,1872.22 662.597,1872.22 662.597,68.7883 662.629,64.9623 1246.06,64.9623 1246.06,1875.98 662.565,1875.98 662.597,1872.28 662.597,1872.22 662.597,1872.22 662.597,68.7883 662.629,64.9623 1246.06,64.9623 1246.06,1875.98 662.565,1875.98 662.597,1872.28 662.597,1872.22 662.597,1872.22 662.597,68.7883 662.629,64.9643 1246.06,64.9623 1246.06,1875.98 662.565,1875.98 662.597,1872.28 662.597,1872.22 662.597,1872.22 662.597,68.7883 662.629,64.9623 1246.06,64.9623 1246.06,1875.98 662.565,1875.98 662.597,1872.28 662.597,1872.22 662.597,1872.22 662.597,68.7883 662.629,64.9643 1246.06,64.9623 1246.06,1875.98 662.565,1875.98 662.597,1872.28 662.597,1872.22 662.597,1872.22 662.597,68.7883 662.629,64.9643 1246.06,64.9623 1246.06,1875.98 662.565,1875.98 662.597,1872.28 662.597,1872.22 662.597,1872.22 662.597,68.7883 662.629,64.9623 1246.06,64.9623 1246.06,1875.98 662.565,1875.98 662.597,1872.28 662.597,1872.22 662.597,1872.22 662.597,68.7883 662.629,64.9623 1246.06,64.9623 1246.06,1875.98 662.565,1875.98 662.597,1872.28 662.597,1872.22 662.597,1872.22 662.597,68.7883 662.629,64.9623 1246.06,64.9623 1246.06,1875.98 662.565,1875.98 662.597,1872.28 662.597,1872.22 662.597,1872.22 662.597,68.7883 662.629,64.9623 1246.06,64.9623 1246.06,1875.98 662.565,1875.98 662.597,1872.28 662.597,1872.22 662.597,1872.22 662.597,68.7883 662.629,64.9643 1246.06,64.9623 1246.06,1875.98 662.565,1875.98 662.597,1872.28 662.597,1872.22 662.597,1872.22 662.597,68.7883 662.629,64.9623 1246.06,64.9623 1246.06,1875.98 662.565,1875.98 662.597,1872.28 662.597,1872.22 662.597,1872.22 662.597,68.7883 662.629,64.9643 1246.06,64.9623 1246.06,1875.98 662.565,1875.98 662.597,1872.28 662.597,1872.22 662.597,1872.22 662.597,68.7883 662.629,64.9643 1246.06,64.9623 1246.06,1875.98 662.565,1875.98 662.597,1872.28 662.597,1872.22 662.597,1872.22 662.597,68.7883 662.629,64.9643 1246.06,64.9623 1246.06,1875.98 662.565,1875.98 662.597,1872.28 662.597,1872.22 662.597,1872.22 662.597,68.7883 662.629,64.9643 1246.06,64.9623 1246.06,1875.98 662.565,1875.98 662.597,1872.28 662.597,1872.22 662.597,1872.22 662.597,68.7883 662.629,64.9623 1246.06,64.9623 1246.06,1875.98 662.565,1875.98 662.597,1872.28 662.597,1872.22 662.597,1872.22 662.597,68.7883 662.629,64.9643 1246.06,64.9623 1246.06,1875.98 662.565,1875.98 662.597,1872.28 662.597,1872.22 662.597,1872.22 662.597,68.7883 662.629,64.9643 1246.06,64.9623 1246.06,1875.98 662.565,1875.98 662.597,1872.28 662.597,1872.22 662.597,1872.22 662.597,68.7883 662.629,64.9623 1246.06,64.9623 1246.06,1875.98 662.565,1875.98 662.597,1872.28 662.597,1872.22 662.597,1869.23 662.823,1870.63 663.705,1874.69 664.103,1875.98 1246.06,1875.98 1246.06,64.9623 664.285,64.9643 662.597,72.7203 662.597,1869.23 674.407,1846.54 674.975,1857.14 676.673,1867.62 677.555,1871.67 678.877,1875.98 1246.06,1875.98 1246.06,64.9623 678.865,64.9623 678.427,66.4563 675.417,80.2903 674.407,94.4103 674.407,1846.54 688.581,1846.54 689.067,1855.62 690.523,1864.61 691.405,1868.66 693.649,1875.98 1246.06,1875.98 1246.06,64.9623 693.659,64.9623 693.577,65.1723 692.027,70.4503 689.447,82.3063 688.581,94.4103 688.581,1846.54 702.753,1846.54 703.159,1854.11 704.373,1861.6 705.255,1865.65 708.423,1875.98 1246.06,1875.98 1246.06,64.9623 708.857,64.9623 707.175,69.1643 705.625,74.4423 703.475,84.3243 702.753,94.4103 702.753,1846.54 716.927,1846.54 717.251,1852.6 718.221,1858.58 719.103,1862.64 721.871,1871.66 724.033,1875.98 1246.06,1875.98 1246.06,64.9623 724.055,64.9643 720.775,73.1583 719.225,78.4363 717.505,86.3423 716.927,94.4103 716.927,1846.54 731.101,1846.54 731.343,1851.08 732.071,1855.57 732.953,1859.63 735.029,1866.4 738.197,1872.73 740.577,1875.98 1246.06,1875.98 1246.06,64.9623 740.389,64.9623 737.377,69.6503 734.373,77.1523 732.823,82.4303 731.533,88.3583 731.101,94.4103 731.101,1846.54 745.273,1846.54 745.435,1849.57 745.921,1852.56 746.803,1856.62 748.187,1861.13 750.299,1865.35 753.081,1869.16 756.685,1873.32 759.485,1875.98 1240.22,1875.98 1243.39,1873.24 1246.06,1870.43 1246.06,70.8063 1243.32,67.6363 1240.51,64.9623 759.777,64.9643 756.603,67.7123 752.887,71.6123 749.975,76.1443 747.973,81.1463 746.423,86.4243 745.563,90.3763 745.273,94.4103 745.273,1846.54 759.447,1846.54 759.527,1848.05 759.771,1849.55 760.653,1853.6 761.345,1855.86 762.401,1857.97 763.791,1859.88 767.395,1864.03 769.345,1865.89 771.611,1867.35 774.113,1868.35 779.391,1869.9 781.367,1870.33 783.385,1870.47 1216.61,1870.47 1218.13,1870.39 1219.62,1870.15 1223.68,1869.27 1225.93,1868.58 1228.04,1867.52 1229.95,1866.13 1234.11,1862.53 1235.97,1860.58 1237.42,1858.31 1238.42,1855.81 1239.97,1850.53 1240.4,1848.55 1240.55,1846.54 1240.55,94.4103 1240.47,92.8963 1240.22,91.4003 1239.34,87.3443 1238.65,85.0883 1237.6,82.9803 1236.21,81.0743 1232.6,76.9163 1230.65,75.0563 1228.39,73.6003 1225.88,72.5983 1220.6,71.0483 1218.63,70.6183 1216.61,70.4743 783.385,70.4743 781.869,70.5543 780.373,70.7983 776.317,71.6803 774.061,72.3723 771.951,73.4283 770.045,74.8183 765.887,78.4223 764.029,80.3723 762.573,82.6383 761.571,85.1403 760.021,90.4183 759.591,92.3943 759.447,94.4103 759.447,1846.54" style="stroke:rgb(0,0,0);stroke-width:1px;fill:none;stroke-opacity:1;stroke-linecap:round;stroke-linejoin:round;;fill:none"/>
<g fill-rule="evenodd"><path d="M 84.6446,1846.54 L 84.6446,94.4103 L 86.1946,89.1323 L 90.3526,85.5283 L 94.4086,84.6463 L 527.637,84.6463 L 532.915,86.1963 L 536.519,90.3543 L 537.401,94.4103 L 537.401,1846.54 L 535.851,1851.81 L 531.693,1855.42 L 527.637,1856.3 L 94.4086,1856.3 L 89.1306,1854.75 L 85.5266,1850.59 L 84.6446,1846.54 z " style="fill-opacity:1.000000;fill:rgb(103,198,105);stroke:rgb(0,0,0);stroke-width:2"/></g>
<g fill-rule="evenodd"><path d="M 773.621,1846.54 L 773.621,94.4103 L 775.171,89.1323 L 779.329,85.5283 L 783.385,84.6463 L 1216.61,84.6463 L 1221.89,86.1963 L 1225.49,90.3543 L 1226.38,94.4103 L 1226.38,1846.54 L 1224.83,1851.81 L 1220.67,1855.42 L 1216.61,1856.3 L 783.385,1856.3 L 778.107,1854.75 L 774.503,1850.59 L 773.621,1846.54 z " style="fill-opacity:1.000000;fill:rgb(115,81,255);stroke:rgb(0,0,0);stroke-width:2"/></g>
</svg>
