<?xml version="1.0" standalone="no"?>
<!DOCTYPE svg PUBLIC "-//W3C//DTD SVG 1.1//EN"
"http://www.w3.org/Graphics/SVG/1.1/DTD/svg11.dtd">
<svg width="62.9291" height="93.1654" viewBox="0 0 1311.02 1940.94" version="1.1"
xmlns="http://www.w3.org/2000/svg"
xmlns:xlink="http://www.w3.org/1999/xlink">
<g fill-rule="evenodd"><path d="M -9.9476e-14,1940.94 L -9.9476e-14,0 L 1311.02,0 L 1311.02,1940.94 L -9.9476e-14,1940.94 z " style="fill-opacity:0.200000;fill:rgb(103,198,105);"/></g>
<polyline points="33.4646,1875.98 34.0706,1882.13 35.8626,1888.04 38.7726,1893.48 42.6906,1898.25 47.4626,1902.17 52.9086,1905.08 58.8166,1906.87 64.9606,1907.48 1246.06,1907.48 1252.21,1906.87 1258.11,1905.08 1263.56,1902.17 1268.33,1898.25 1272.25,1893.48 1275.16,1888.04 1276.95,1882.13 1277.56,1875.98 1277.56,64.9623 1276.95,58.8183 1275.16,52.9103 1272.25,47.4643 1268.33,42.6923 1263.56,38.7743 1258.11,35.8643 1252.21,34.0723 1246.06,33.4663 64.9606,33.4663 58.8166,34.0723 52.9086,35.8643 47.4626,38.7743 42.6906,42.6923 38.7726,47.4643 35.8626,52.9103 34.0706,58.8183 33.4646,64.9623 33.4646,1875.98" style="stroke:rgb(103,198,105);stroke-width:62.992126;fill:none;stroke-opacity:0.5;stroke-linecap:round;stroke-linejoin:round;;fill:none"/>
<polyline points="33.4646,1875.98 34.0706,1882.13 35.8626,1888.04 38.7726,1893.48 42.6906,1898.25 47.4626,1902.17 52.9086,1905.08 58.8166,1906.87 64.9606,1907.48 1246.06,1907.48 1252.21,1906.87 1258.11,1905.08 1263.56,1902.17 1268.33,1898.25 1272.25,1893.48 1275.16,1888.04 1276.95,1882.13 1277.56,1875.98 1277.56,64.9623 1276.95,58.8183 1275.16,52.9103 1272.25,47.4643 1268.33,42.6923 1263.56,38.7743 1258.11,35.8643 1252.21,34.0723 1246.06,33.4663 64.9606,33.4663 58.8166,34.0723 52.9086,35.8643 47.4626,38.7743 42.6906,42.6923 38.7726,47.4643 35.8626,52.9103 34.0706,58.8183 33.4646,64.9623 33.4646,1875.98" style="stroke:rgb(0,0,0);stroke-width:1px;fill:none;stroke-opacity:1;stroke-linecap:round;stroke-linejoin:round;;fill:none"/>
<g fill-rule="evenodd"><path d="M 64.9606,1875.98 L 64.9606,64.9623 L 1246.06,64.9623 L 1246.06,1875.98 L 64.9606,1875.98 z " style="fill-opacity:1.000000;fill:rgb(103,198,105);stroke:rgb(0,0,0);stroke-width:2"/></g>
</svg>
