<?xml version="1.0" standalone="no"?>
<!DOCTYPE svg PUBLIC "-//W3C//DTD SVG 1.1//EN"
"http://www.w3.org/Graphics/SVG/1.1/DTD/svg11.dtd">
<svg width="102.992" height="32.126" viewBox="0 0 2145.67 669.291" version="1.1"
xmlns="http://www.w3.org/2000/svg"
xmlns:xlink="http://www.w3.org/1999/xlink">
<g fill-rule="evenodd"><path d="M 718.292,-0.00014852 L 718.723,57.3981 L 718.615,65.6745 L 718.399,71.9184 L 718.323,79.2625 L 718.647,100.78 L 718.602,105.202 L 718.556,106.487 L 718.503,109.471 L 718.503,118.033 L 718.503,551.261 L 718.503,559.822 L 718.449,562.807 L 718.403,564.091 L 718.358,568.513 L 718.682,590.05 L 718.606,597.397 L 718.391,603.62 L 718.283,611.896 L 718.714,669.291 L -1.42109e-13,669.291 L -1.42109e-13,0 L 718.292,-0.00014852 z " style="fill-opacity:0.200000;fill:rgb(103,198,105);"/></g>
<g fill-rule="evenodd"><path d="M 1072.62,0.000119561 L 1073.05,57.4232 L 1072.95,65.6952 L 1072.73,71.9176 L 1072.65,79.2616 L 1072.98,100.78 L 1072.93,105.202 L 1072.89,106.486 L 1072.83,109.471 L 1072.83,118.033 L 1072.83,551.261 L 1072.83,559.822 L 1072.78,562.807 L 1072.73,564.092 L 1072.69,568.514 L 1073.01,590.032 L 1072.94,597.376 L 1072.72,603.598 L 1072.61,611.87 L 1073.05,669.291 L 718.714,669.291 L 718.283,611.896 L 718.391,603.62 L 718.606,597.397 L 718.682,590.05 L 718.358,568.513 L 718.403,564.091 L 718.449,562.807 L 718.503,559.822 L 718.503,551.261 L 718.503,118.033 L 718.503,109.471 L 718.556,106.487 L 718.602,105.202 L 718.647,100.78 L 718.323,79.2625 L 718.399,71.9184 L 718.615,65.6745 L 718.723,57.3981 L 718.292,8.5826e-05 L 1072.62,0.000119561 z " style="fill-opacity:0.200000;fill:rgb(115,81,255);"/></g>
<g fill-rule="evenodd"><path d="M 1426.95,-2.60932e-05 L 1427.38,57.3969 L 1427.28,65.6734 L 1427.06,71.8959 L 1426.98,79.2435 L 1427.31,100.78 L 1427.26,105.202 L 1427.22,106.487 L 1427.16,109.471 L 1427.16,118.033 L 1427.16,551.261 L 1427.16,559.822 L 1427.11,562.807 L 1427.07,564.091 L 1427.02,568.513 L 1427.34,590.031 L 1427.27,597.375 L 1427.05,603.619 L 1426.94,611.895 L 1427.38,669.291 L 1073.05,669.291 L 1072.61,611.87 L 1072.72,603.598 L 1072.94,597.376 L 1073.01,590.032 L 1072.69,568.514 L 1072.73,564.092 L 1072.78,562.807 L 1072.83,559.822 L 1072.83,551.261 L 1072.83,118.033 L 1072.83,109.471 L 1072.89,106.486 L 1072.93,105.202 L 1072.98,100.78 L 1072.65,79.2616 L 1072.73,71.9176 L 1072.95,65.6952 L 1073.05,57.4232 L 1072.62,0.000119561 L 1426.95,-2.60932e-05 z " style="fill-opacity:0.200000;fill:rgb(74,236,41);"/></g>
<g fill-rule="evenodd"><path d="M 1427.38,669.291 L 1426.94,611.895 L 1427.05,603.619 L 1427.27,597.375 L 1427.34,590.031 L 1427.02,568.513 L 1427.07,564.091 L 1427.11,562.807 L 1427.16,559.822 L 1427.16,551.261 L 1427.16,118.033 L 1427.16,109.471 L 1427.22,106.487 L 1427.26,105.202 L 1427.31,100.78 L 1426.98,79.2435 L 1427.06,71.8959 L 1427.28,65.6734 L 1427.38,57.3969 L 1426.95,-0.000199282 L 2145.67,0 L 2145.67,669.291 L 1427.38,669.291 z " style="fill-opacity:0.200000;fill:rgb(205,186,171);"/></g>
<polyline points="693.269,88.5867 696.073,91.2587 699.675,95.4167 702.457,99.2267 704.567,103.445 706.831,112.011 707.479,118.033 707.479,551.261 707.189,555.297 706.329,559.249 704.779,564.529 702.777,569.529 699.865,574.061 696.149,577.961 692.975,580.709 743.737,580.709 740.937,578.043 737.333,573.885 734.551,570.073 732.439,565.853 730.173,557.285 729.525,551.261 725.589,559.823 729.525,551.261 743.699,551.261 744.023,554.273 745.597,560.585 748.043,564.601 751.647,568.759 753.597,570.617 755.863,572.073 763.643,574.625 767.637,575.199 1023.7,575.199 1030.77,573.993 1035.13,572.245 1041.2,567.247 1043.05,565.299 1044.51,563.033 1045.51,560.533 1047.06,555.255 1047.63,551.261 1047.63,118.033 1046.43,110.967 1044.68,106.603 1039.69,100.539 1037.74,98.6787 1035.47,97.2227 1027.69,94.6707 1023.7,94.0967 767.637,94.0967 760.569,95.3027 756.203,97.0507 750.139,102.045 748.281,103.995 746.825,106.261 745.823,108.763 744.273,114.041 743.699,118.033 743.699,551.261 729.525,551.261 729.525,118.033 729.815,113.999 730.675,110.047 732.225,104.769 734.227,99.7667 737.139,95.2347 740.855,91.3347 744.025,88.5867 1065.71,88.5847 1065.78,580.709 1098.07,580.709 1095.26,578.037 1091.66,573.879 1088.88,570.069 1086.77,565.851 1084.5,557.285 1083.86,551.261 1079.92,559.823 1083.86,551.261 1098.03,551.261 1098.35,554.273 1099.93,560.585 1102.37,564.599 1105.97,568.757 1107.92,570.617 1110.19,572.073 1117.97,574.625 1121.97,575.199 1378.03,575.199 1385.1,573.993 1389.46,572.245 1395.53,567.251 1397.38,565.301 1398.84,563.035 1399.84,560.533 1401.39,555.255 1401.97,551.261 1401.97,118.033 1400.76,110.967 1399.01,106.601 1394.02,100.537 1392.07,98.6787 1389.8,97.2227 1382.02,94.6707 1378.03,94.0967 1121.97,94.0967 1114.9,95.3027 1110.53,97.0507 1104.47,102.049 1102.61,103.997 1101.15,106.263 1100.15,108.763 1098.6,114.041 1098.03,118.033 1098.03,551.261 1083.86,551.261 1083.86,118.033 1084.15,113.999 1085.01,110.047 1086.56,104.769 1088.56,99.7687 1091.47,95.2387 1095.18,91.3407 1098.35,88.5867 1401.93,88.5847 1420.04,88.5867 1420.11,580.709 1434.29,580.709 1401.64,580.709 1404.81,577.961 1408.53,574.061 1411.44,569.529 1413.44,564.529 1414.99,559.249 1415.85,555.297 1416.14,551.261 1416.14,118.033 1415.49,112.011 1413.23,103.443 1411.11,99.2227 1408.33,95.4107 1404.73,91.2527 1401.93,88.5847 1079.88,88.5867 1079.96,580.709 1047.31,580.709 1050.48,577.955 1054.2,574.057 1057.11,569.527 1059.11,564.529 1060.66,559.249 1061.52,555.297 1061.81,551.261 1061.81,118.033 1061.16,112.011 1058.9,103.445 1056.79,99.2267 1054,95.4167 1050.4,91.2587 1047.6,88.5867 725.551,88.5867 725.629,580.709 711.453,580.709 711.375,88.5867 94.4207,88.5867 88.5827,94.1347 94.4207,88.5867 88.5827,88.5847 88.5827,574.869 94.1307,580.709 88.5827,574.869 94.0927,551.261 94.0927,118.033 94.6667,114.041 97.2187,106.261 98.6747,103.995 100.533,102.045 104.691,98.4407 108.707,95.9947 115.019,94.4207 118.031,94.0967 669.369,94.0967 673.361,94.6707 681.143,97.2227 683.411,98.6787 685.361,100.539 688.963,104.697 691.409,108.711 692.981,115.023 693.305,118.033 693.305,551.261 692.731,555.255 690.179,563.035 688.723,565.301 686.865,567.251 682.707,570.855 678.691,573.301 672.379,574.875 669.369,575.199 118.031,575.199 114.037,574.625 106.257,572.073 103.991,570.617 102.041,568.759 98.4367,564.601 95.9907,560.585 94.4167,554.273 94.0927,551.261 88.5827,574.869 88.5827,580.709 2057.08,580.709 2057.08,88.5847 1434.21,88.5867 1434.25,559.823 1438.19,551.261 1452.36,551.261 1452.68,554.273 1454.26,560.585 1456.7,564.599 1460.3,568.757 1462.25,570.617 1464.52,572.073 1472.3,574.625 1476.3,575.199 2027.64,575.199 2030.65,574.875 2036.96,573.301 2040.97,570.855 2045.13,567.251 2046.99,565.301 2048.45,563.035 2051,555.255 2051.57,551.261 2051.57,118.033 2051.25,115.023 2049.67,108.711 2047.23,104.695 2043.62,100.537 2041.67,98.6787 2039.41,97.2227 2031.63,94.6707 2027.64,94.0967 1476.3,94.0967 1473.29,94.4207 1466.97,95.9947 1462.96,98.4407 1458.8,102.045 1456.94,103.995 1455.49,106.261 1452.93,114.041 1452.36,118.033 1452.36,551.261 1438.19,551.261 1434.25,559.823 1434.29,580.709 1452.4,580.709 1449.59,578.037 1445.99,573.879 1443.21,570.069 1441.1,565.851 1438.83,557.285 1438.19,551.261 1438.19,118.033 1438.48,113.999 1439.34,110.047 1440.89,104.769 1442.89,99.7667 1445.8,95.2347 1449.52,91.3347 1452.69,88.5867" style="stroke:rgb(103,198,105);stroke-width:28.346457;fill:none;stroke-opacity:0.5;stroke-linecap:round;stroke-linejoin:round;;fill:none"/>
<polyline points="693.269,88.5867 696.073,91.2587 699.675,95.4167 702.457,99.2267 704.567,103.445 706.831,112.011 707.479,118.033 707.479,551.261 707.189,555.297 706.329,559.249 704.779,564.529 702.777,569.529 699.865,574.061 696.149,577.961 692.975,580.709 743.737,580.709 740.937,578.043 737.333,573.885 734.551,570.073 732.439,565.853 730.173,557.285 729.525,551.261 725.589,559.823 729.525,551.261 743.699,551.261 744.023,554.273 745.597,560.585 748.043,564.601 751.647,568.759 753.597,570.617 755.863,572.073 763.643,574.625 767.637,575.199 1023.7,575.199 1030.77,573.993 1035.13,572.245 1041.2,567.247 1043.05,565.299 1044.51,563.033 1045.51,560.533 1047.06,555.255 1047.63,551.261 1047.63,118.033 1046.43,110.967 1044.68,106.603 1039.69,100.539 1037.74,98.6787 1035.47,97.2227 1027.69,94.6707 1023.7,94.0967 767.637,94.0967 760.569,95.3027 756.203,97.0507 750.139,102.045 748.281,103.995 746.825,106.261 745.823,108.763 744.273,114.041 743.699,118.033 743.699,551.261 729.525,551.261 729.525,118.033 729.815,113.999 730.675,110.047 732.225,104.769 734.227,99.7667 737.139,95.2347 740.855,91.3347 744.025,88.5867 1065.71,88.5847 1065.78,580.709 1098.07,580.709 1095.26,578.037 1091.66,573.879 1088.88,570.069 1086.77,565.851 1084.5,557.285 1083.86,551.261 1079.92,559.823 1083.86,551.261 1098.03,551.261 1098.35,554.273 1099.93,560.585 1102.37,564.599 1105.97,568.757 1107.92,570.617 1110.19,572.073 1117.97,574.625 1121.97,575.199 1378.03,575.199 1385.1,573.993 1389.46,572.245 1395.53,567.251 1397.38,565.301 1398.84,563.035 1399.84,560.533 1401.39,555.255 1401.97,551.261 1401.97,118.033 1400.76,110.967 1399.01,106.601 1394.02,100.537 1392.07,98.6787 1389.8,97.2227 1382.02,94.6707 1378.03,94.0967 1121.97,94.0967 1114.9,95.3027 1110.53,97.0507 1104.47,102.049 1102.61,103.997 1101.15,106.263 1100.15,108.763 1098.6,114.041 1098.03,118.033 1098.03,551.261 1083.86,551.261 1083.86,118.033 1084.15,113.999 1085.01,110.047 1086.56,104.769 1088.56,99.7687 1091.47,95.2387 1095.18,91.3407 1098.35,88.5867 1401.93,88.5847 1420.04,88.5867 1420.11,580.709 1434.29,580.709 1401.64,580.709 1404.81,577.961 1408.53,574.061 1411.44,569.529 1413.44,564.529 1414.99,559.249 1415.85,555.297 1416.14,551.261 1416.14,118.033 1415.49,112.011 1413.23,103.443 1411.11,99.2227 1408.33,95.4107 1404.73,91.2527 1401.93,88.5847 1079.88,88.5867 1079.96,580.709 1047.31,580.709 1050.48,577.955 1054.2,574.057 1057.11,569.527 1059.11,564.529 1060.66,559.249 1061.52,555.297 1061.81,551.261 1061.81,118.033 1061.16,112.011 1058.9,103.445 1056.79,99.2267 1054,95.4167 1050.4,91.2587 1047.6,88.5867 725.551,88.5867 725.629,580.709 711.453,580.709 711.375,88.5867 94.4207,88.5867 88.5827,94.1347 94.4207,88.5867 88.5827,88.5847 88.5827,574.869 94.1307,580.709 88.5827,574.869 94.0927,551.261 94.0927,118.033 94.6667,114.041 97.2187,106.261 98.6747,103.995 100.533,102.045 104.691,98.4407 108.707,95.9947 115.019,94.4207 118.031,94.0967 669.369,94.0967 673.361,94.6707 681.143,97.2227 683.411,98.6787 685.361,100.539 688.963,104.697 691.409,108.711 692.981,115.023 693.305,118.033 693.305,551.261 692.731,555.255 690.179,563.035 688.723,565.301 686.865,567.251 682.707,570.855 678.691,573.301 672.379,574.875 669.369,575.199 118.031,575.199 114.037,574.625 106.257,572.073 103.991,570.617 102.041,568.759 98.4367,564.601 95.9907,560.585 94.4167,554.273 94.0927,551.261 88.5827,574.869 88.5827,580.709 2057.08,580.709 2057.08,88.5847 1434.21,88.5867 1434.25,559.823 1438.19,551.261 1452.36,551.261 1452.68,554.273 1454.26,560.585 1456.7,564.599 1460.3,568.757 1462.25,570.617 1464.52,572.073 1472.3,574.625 1476.3,575.199 2027.64,575.199 2030.65,574.875 2036.96,573.301 2040.97,570.855 2045.13,567.251 2046.99,565.301 2048.45,563.035 2051,555.255 2051.57,551.261 2051.57,118.033 2051.25,115.023 2049.67,108.711 2047.23,104.695 2043.62,100.537 2041.67,98.6787 2039.41,97.2227 2031.63,94.6707 2027.64,94.0967 1476.3,94.0967 1473.29,94.4207 1466.97,95.9947 1462.96,98.4407 1458.8,102.045 1456.94,103.995 1455.49,106.261 1452.93,114.041 1452.36,118.033 1452.36,551.261 1438.19,551.261 1434.25,559.823 1434.29,580.709 1452.4,580.709 1449.59,578.037 1445.99,573.879 1443.21,570.069 1441.1,565.851 1438.83,557.285 1438.19,551.261 1438.19,118.033 1438.48,113.999 1439.34,110.047 1440.89,104.769 1442.89,99.7667 1445.8,95.2347 1449.52,91.3347 1452.69,88.5867" style="stroke:rgb(0,0,0);stroke-width:1px;fill:none;stroke-opacity:1;stroke-linecap:round;stroke-linejoin:round;;fill:none"/>
<polyline points="2051.24,580.709 2057.08,575.161 2057.08,94.4267 2051.53,88.5867" style="stroke:rgb(103,198,105);stroke-width:28.346457;fill:none;stroke-opacity:0.5;stroke-linecap:round;stroke-linejoin:round;;fill:none"/>
<polyline points="2051.24,580.709 2057.08,575.161 2057.08,94.4267 2051.53,88.5867" style="stroke:rgb(0,0,0);stroke-width:1px;fill:none;stroke-opacity:1;stroke-linecap:round;stroke-linejoin:round;;fill:none"/>
<g fill-rule="evenodd"><path d="M 108.267,551.261 L 108.267,118.033 L 109.817,112.755 L 113.975,109.151 L 118.031,108.269 L 669.369,108.269 L 674.649,109.819 L 678.251,113.977 L 679.133,118.033 L 679.133,551.261 L 677.583,556.539 L 673.425,560.143 L 669.369,561.025 L 118.031,561.025 L 112.753,559.475 L 109.149,555.317 L 108.267,551.261 z " style="fill-opacity:1.000000;fill:rgb(103,198,105);stroke:rgb(0,0,0);stroke-width:2"/></g>
<g fill-rule="evenodd"><path d="M 757.873,551.261 L 757.873,118.033 L 759.423,112.755 L 763.581,109.151 L 767.637,108.269 L 1023.7,108.269 L 1028.98,109.819 L 1032.58,113.977 L 1033.46,118.033 L 1033.46,551.261 L 1031.91,556.539 L 1027.76,560.143 L 1023.7,561.025 L 767.637,561.025 L 762.359,559.475 L 758.755,555.317 L 757.873,551.261 z " style="fill-opacity:1.000000;fill:rgb(115,81,255);stroke:rgb(0,0,0);stroke-width:2"/></g>
<g fill-rule="evenodd"><path d="M 1112.2,551.261 L 1112.2,118.033 L 1113.75,112.755 L 1117.91,109.151 L 1121.97,108.269 L 1378.03,108.269 L 1383.31,109.819 L 1386.91,113.977 L 1387.79,118.033 L 1387.79,551.261 L 1386.24,556.539 L 1382.09,560.143 L 1378.03,561.025 L 1121.97,561.025 L 1116.69,559.475 L 1113.09,555.317 L 1112.2,551.261 z " style="fill-opacity:1.000000;fill:rgb(74,236,41);stroke:rgb(0,0,0);stroke-width:2"/></g>
<g fill-rule="evenodd"><path d="M 1466.53,551.261 L 1466.53,118.033 L 1468.08,112.755 L 1472.24,109.151 L 1476.3,108.269 L 2027.64,108.269 L 2032.91,109.819 L 2036.52,113.977 L 2037.4,118.033 L 2037.4,551.261 L 2035.85,556.539 L 2031.69,560.143 L 2027.64,561.025 L 1476.3,561.025 L 1471.02,559.475 L 1467.42,555.317 L 1466.53,551.261 z " style="fill-opacity:1.000000;fill:rgb(205,186,171);stroke:rgb(0,0,0);stroke-width:2"/></g>
</svg>
