<?xml version="1.0" standalone="no"?>
<!DOCTYPE svg PUBLIC "-//W3C//DTD SVG 1.1//EN"
"http://www.w3.org/Graphics/SVG/1.1/DTD/svg11.dtd">
<svg width="62.9291" height="93.1654" viewBox="0 0 1311.02 1940.94" version="1.1"
xmlns="http://www.w3.org/2000/svg"
xmlns:xlink="http://www.w3.org/1999/xlink">
<g fill-rule="evenodd"><path d="M 655.385,0.000142246 L 655.662,54.0359 L 655.628,59.7591 L 655.547,64.4708 L 655.511,68.7266 L 655.511,94.4103 L 655.511,1846.54 L 655.511,1872.22 L 655.474,1876.48 L 655.394,1881.19 L 655.359,1886.91 L 655.636,1940.95 L -9.9476e-14,1940.94 L -9.9476e-14,0 L 655.385,0.000142246 z " style="fill-opacity:0.200000;fill:rgb(103,198,105);"/></g>
<g fill-rule="evenodd"><path d="M 655.636,1940.95 L 655.359,1886.91 L 655.394,1881.19 L 655.474,1876.48 L 655.511,1872.22 L 655.511,1846.54 L 655.511,94.4103 L 655.511,68.7266 L 655.547,64.4708 L 655.628,59.7591 L 655.662,54.0359 L 655.385,0.000142246 L 1311.02,0 L 1311.02,1940.94 L 655.636,1940.95 z " style="fill-opacity:0.200000;fill:rgb(115,81,255);"/></g>
<polyline points="646.917,64.9643 648.455,64.9643 648.423,1868.23 646.735,1875.98 648.423,1868.23 648.391,1875.98 64.9606,1875.98 64.9606,1870.14 70.5086,1875.98 64.9606,1870.14 70.4706,1846.54 70.4706,94.4103 71.0446,90.4183 72.5946,85.1403 73.5966,82.6383 75.0526,80.3723 81.0686,74.8183 85.0846,72.3723 91.3966,70.7983 94.4086,70.4743 527.637,70.4743 531.629,71.0483 539.409,73.6003 541.675,75.0563 543.625,76.9143 547.229,81.0723 549.675,85.0883 551.249,91.4003 551.573,94.4103 551.573,1846.54 550.999,1850.53 549.449,1855.81 548.447,1858.31 546.991,1860.58 540.975,1866.13 536.959,1868.58 530.647,1870.15 527.637,1870.47 94.4086,1870.47 90.4146,1869.9 82.6346,1867.35 80.3686,1865.89 78.4186,1864.03 74.8146,1859.88 72.3686,1855.86 70.7946,1849.55 70.4706,1846.54 64.9606,1870.14 64.9606,70.5123 70.7986,64.9643 64.9606,70.5123 64.9606,64.9623 551.535,64.9643 554.335,67.6303 557.939,71.7883 560.721,75.6003 562.833,79.8203 564.217,84.3323 565.583,91.3823 565.745,94.4103 565.745,1846.54 565.457,1850.57 564.597,1854.52 563.047,1859.8 561.045,1864.8 558.133,1869.34 554.417,1873.24 551.243,1875.98 570.629,1875.98 573.641,1871.3 576.647,1863.8 578.197,1858.52 579.487,1852.59 579.919,1846.54 579.919,94.4103 579.675,89.8683 578.949,85.3763 578.065,81.3203 575.991,74.5523 572.823,68.2223 570.443,64.9643 551.535,64.9643 586.987,64.9643 589.149,69.2843 591.917,78.3083 593.769,88.3523 594.093,94.4103 594.093,1846.54 593.515,1854.61 591.795,1862.51 590.245,1867.79 586.965,1875.98 602.163,1875.98 603.845,1871.78 605.395,1866.51 607.545,1856.62 608.267,1846.54 608.267,94.4103 607.861,86.8383 606.647,79.3523 605.765,75.2963 602.597,64.9643 586.987,64.9643 617.371,64.9643 619.615,72.2863 620.497,76.3423 621.953,85.3243 622.439,94.4103 622.439,1846.54 621.573,1858.64 618.993,1870.5 617.361,1875.98 632.155,1875.98 635.603,1860.66 636.613,1846.54 636.613,94.4103 636.045,83.8103 634.347,73.3303 632.143,64.9643 617.371,64.9643 646.917,64.9643 648.423,71.7183 663.007,70.8343 662.597,72.7203 664.285,64.9643 663.007,70.8343 677.667,69.9463 675.417,80.2903 674.407,94.4103 674.407,1846.54 662.597,1869.23 664.103,1875.98 662.597,1869.23 674.407,1846.54 702.753,1846.54 702.753,94.4103 703.475,84.3243 705.625,74.4423 707.175,69.1643 708.855,64.9643 724.055,64.9643 720.775,73.1583 719.225,78.4363 717.505,86.3423 716.927,94.4103 716.927,1846.54 717.251,1852.6 719.103,1862.64 721.871,1871.66 724.033,1875.98 708.423,1875.98 705.255,1865.65 704.373,1861.6 703.159,1854.11 702.753,1846.54 759.447,1846.54 759.771,1849.55 761.345,1855.86 763.791,1859.88 767.395,1864.03 769.345,1865.89 771.611,1867.35 779.391,1869.9 783.385,1870.47 1216.61,1870.47 1219.62,1870.15 1225.93,1868.58 1229.95,1866.13 1235.97,1860.58 1237.42,1858.31 1238.42,1855.81 1239.97,1850.53 1240.55,1846.54 1240.55,94.4103 1240.22,91.4003 1238.65,85.0883 1236.21,81.0743 1232.6,76.9163 1230.65,75.0563 1228.39,73.6003 1220.6,71.0483 1216.61,70.4743 783.385,70.4743 776.317,71.6803 771.951,73.4283 765.887,78.4223 764.029,80.3723 762.573,82.6383 761.571,85.1403 760.021,90.4183 759.447,94.4103 759.447,1846.54 674.407,1846.54 674.975,1857.14 676.673,1867.62 678.877,1875.98 693.649,1875.98 691.405,1868.66 690.523,1864.61 689.067,1855.62 688.581,1846.54 688.581,94.4103 689.447,82.3063 692.027,70.4503 693.657,64.9643 678.863,64.9643 678.427,66.4563 677.667,69.9463 759.777,64.9643 1240.51,64.9643 1246.06,70.8063 1240.51,64.9643 1246.06,64.9623 1246.06,1870.43 1240.22,1875.98 1246.06,1870.43 1246.06,1875.98 662.565,1875.98 662.629,64.9643 759.777,64.9643 756.603,67.7123 752.887,71.6123 749.975,76.1443 747.973,81.1463 746.423,86.4243 745.563,90.3763 745.273,94.4103 745.273,1846.54 745.921,1852.56 748.187,1861.13 750.299,1865.35 753.081,1869.16 756.685,1873.32 759.485,1875.98 740.577,1875.98 738.197,1872.73 735.029,1866.4 732.953,1859.63 732.071,1855.57 731.343,1851.08 731.101,1846.54 731.101,94.4103 731.533,88.3583 732.823,82.4303 734.373,77.1523 737.377,69.6503 740.387,64.9643" style="stroke:rgb(103,198,105);stroke-width:28.346457;fill:none;stroke-opacity:0.5;stroke-linecap:round;stroke-linejoin:round;;fill:none"/>
<polyline points="646.917,64.9643 648.455,64.9643 648.423,1868.23 646.735,1875.98 648.423,1868.23 648.391,1875.98 64.9606,1875.98 64.9606,1870.14 70.5086,1875.98 64.9606,1870.14 70.4706,1846.54 70.4706,94.4103 71.0446,90.4183 72.5946,85.1403 73.5966,82.6383 75.0526,80.3723 81.0686,74.8183 85.0846,72.3723 91.3966,70.7983 94.4086,70.4743 527.637,70.4743 531.629,71.0483 539.409,73.6003 541.675,75.0563 543.625,76.9143 547.229,81.0723 549.675,85.0883 551.249,91.4003 551.573,94.4103 551.573,1846.54 550.999,1850.53 549.449,1855.81 548.447,1858.31 546.991,1860.58 540.975,1866.13 536.959,1868.58 530.647,1870.15 527.637,1870.47 94.4086,1870.47 90.4146,1869.9 82.6346,1867.35 80.3686,1865.89 78.4186,1864.03 74.8146,1859.88 72.3686,1855.86 70.7946,1849.55 70.4706,1846.54 64.9606,1870.14 64.9606,70.5123 70.7986,64.9643 64.9606,70.5123 64.9606,64.9623 551.535,64.9643 554.335,67.6303 557.939,71.7883 560.721,75.6003 562.833,79.8203 564.217,84.3323 565.583,91.3823 565.745,94.4103 565.745,1846.54 565.457,1850.57 564.597,1854.52 563.047,1859.8 561.045,1864.8 558.133,1869.34 554.417,1873.24 551.243,1875.98 570.629,1875.98 573.641,1871.3 576.647,1863.8 578.197,1858.52 579.487,1852.59 579.919,1846.54 579.919,94.4103 579.675,89.8683 578.949,85.3763 578.065,81.3203 575.991,74.5523 572.823,68.2223 570.443,64.9643 551.535,64.9643 586.987,64.9643 589.149,69.2843 591.917,78.3083 593.769,88.3523 594.093,94.4103 594.093,1846.54 593.515,1854.61 591.795,1862.51 590.245,1867.79 586.965,1875.98 602.163,1875.98 603.845,1871.78 605.395,1866.51 607.545,1856.62 608.267,1846.54 608.267,94.4103 607.861,86.8383 606.647,79.3523 605.765,75.2963 602.597,64.9643 586.987,64.9643 617.371,64.9643 619.615,72.2863 620.497,76.3423 621.953,85.3243 622.439,94.4103 622.439,1846.54 621.573,1858.64 618.993,1870.5 617.361,1875.98 632.155,1875.98 635.603,1860.66 636.613,1846.54 636.613,94.4103 636.045,83.8103 634.347,73.3303 632.143,64.9643 617.371,64.9643 646.917,64.9643 648.423,71.7183 663.007,70.8343 662.597,72.7203 664.285,64.9643 663.007,70.8343 677.667,69.9463 675.417,80.2903 674.407,94.4103 674.407,1846.54 662.597,1869.23 664.103,1875.98 662.597,1869.23 674.407,1846.54 702.753,1846.54 702.753,94.4103 703.475,84.3243 705.625,74.4423 707.175,69.1643 708.855,64.9643 724.055,64.9643 720.775,73.1583 719.225,78.4363 717.505,86.3423 716.927,94.4103 716.927,1846.54 717.251,1852.6 719.103,1862.64 721.871,1871.66 724.033,1875.98 708.423,1875.98 705.255,1865.65 704.373,1861.6 703.159,1854.11 702.753,1846.54 759.447,1846.54 759.771,1849.55 761.345,1855.86 763.791,1859.88 767.395,1864.03 769.345,1865.89 771.611,1867.35 779.391,1869.9 783.385,1870.47 1216.61,1870.47 1219.62,1870.15 1225.93,1868.58 1229.95,1866.13 1235.97,1860.58 1237.42,1858.31 1238.42,1855.81 1239.97,1850.53 1240.55,1846.54 1240.55,94.4103 1240.22,91.4003 1238.65,85.0883 1236.21,81.0743 1232.6,76.9163 1230.65,75.0563 1228.39,73.6003 1220.6,71.0483 1216.61,70.4743 783.385,70.4743 776.317,71.6803 771.951,73.4283 765.887,78.4223 764.029,80.3723 762.573,82.6383 761.571,85.1403 760.021,90.4183 759.447,94.4103 759.447,1846.54 674.407,1846.54 674.975,1857.14 676.673,1867.62 678.877,1875.98 693.649,1875.98 691.405,1868.66 690.523,1864.61 689.067,1855.62 688.581,1846.54 688.581,94.4103 689.447,82.3063 692.027,70.4503 693.657,64.9643 678.863,64.9643 678.427,66.4563 677.667,69.9463 759.777,64.9643 1240.51,64.9643 1246.06,70.8063 1240.51,64.9643 1246.06,64.9623 1246.06,1870.43 1240.22,1875.98 1246.06,1870.43 1246.06,1875.98 662.565,1875.98 662.629,64.9643 759.777,64.9643 756.603,67.7123 752.887,71.6123 749.975,76.1443 747.973,81.1463 746.423,86.4243 745.563,90.3763 745.273,94.4103 745.273,1846.54 745.921,1852.56 748.187,1861.13 750.299,1865.35 753.081,1869.16 756.685,1873.32 759.485,1875.98 740.577,1875.98 738.197,1872.73 735.029,1866.4 732.953,1859.63 732.071,1855.57 731.343,1851.08 731.101,1846.54 731.101,94.4103 731.533,88.3583 732.823,82.4303 734.373,77.1523 737.377,69.6503 740.387,64.9643" style="stroke:rgb(0,0,0);stroke-width:1px;fill:none;stroke-opacity:1;stroke-linecap:round;stroke-linejoin:round;;fill:none"/>
<g fill-rule="evenodd"><path d="M 84.6446,1846.54 L 84.6446,94.4103 L 86.1946,89.1323 L 90.3526,85.5283 L 94.4086,84.6463 L 527.637,84.6463 L 532.915,86.1963 L 536.519,90.3543 L 537.401,94.4103 L 537.401,1846.54 L 535.851,1851.81 L 531.693,1855.42 L 527.637,1856.3 L 94.4086,1856.3 L 89.1306,1854.75 L 85.5266,1850.59 L 84.6446,1846.54 z " style="fill-opacity:1.000000;fill:rgb(103,198,105);stroke:rgb(0,0,0);stroke-width:2"/></g>
<g fill-rule="evenodd"><path d="M 773.621,1846.54 L 773.621,94.4103 L 775.171,89.1323 L 779.329,85.5283 L 783.385,84.6463 L 1216.61,84.6463 L 1221.89,86.1963 L 1225.49,90.3543 L 1226.38,94.4103 L 1226.38,1846.54 L 1224.83,1851.81 L 1220.67,1855.42 L 1216.61,1856.3 L 783.385,1856.3 L 778.107,1854.75 L 774.503,1850.59 L 773.621,1846.54 z " style="fill-opacity:1.000000;fill:rgb(115,81,255);stroke:rgb(0,0,0);stroke-width:2"/></g>
</svg>
