<?xml version="1.0" standalone="no"?>
<!DOCTYPE svg PUBLIC "-//W3C//DTD SVG 1.1//EN"
"http://www.w3.org/Graphics/SVG/1.1/DTD/svg11.dtd">
<svg width="102.992" height="32.126" viewBox="0 0 2145.67 669.291" version="1.1"
xmlns="http://www.w3.org/2000/svg"
xmlns:xlink="http://www.w3.org/1999/xlink">
<polyline points="45.2767,580.709 46.1087,589.157 48.5727,597.281 52.5747,604.769 57.9607,611.331 64.5227,616.717 72.0107,620.719 80.1347,623.183 88.5827,624.015 2057.08,624.015 2065.53,623.183 2073.66,620.719 2081.14,616.717 2087.71,611.331 2093.09,604.769 2097.09,597.281 2099.56,589.157 2100.39,580.709 2100.39,88.5847 2099.56,80.1367 2097.09,72.0127 2093.09,64.5247 2087.71,57.9627 2081.14,52.5767 2073.66,48.5747 2065.53,46.1107 2057.08,45.2787 88.5827,45.2787 80.1347,46.1107 72.0107,48.5747 64.5227,52.5767 57.9607,57.9627 52.5747,64.5247 48.5727,72.0127 46.1087,80.1367 45.2767,88.5847 45.2767,580.709" style="stroke:rgb(103,198,105);stroke-width:86.614173;fill:none;stroke-opacity:0.5;stroke-linecap:round;stroke-linejoin:round;;fill:none"/>
<polyline points="45.2767,580.709 46.1087,589.157 48.5727,597.281 52.5747,604.769 57.9607,611.331 64.5227,616.717 72.0107,620.719 80.1347,623.183 88.5827,624.015 2057.08,624.015 2065.53,623.183 2073.66,620.719 2081.14,616.717 2087.71,611.331 2093.09,604.769 2097.09,597.281 2099.56,589.157 2100.39,580.709 2100.39,88.5847 2099.56,80.1367 2097.09,72.0127 2093.09,64.5247 2087.71,57.9627 2081.14,52.5767 2073.66,48.5747 2065.53,46.1107 2057.08,45.2787 88.5827,45.2787 80.1347,46.1107 72.0107,48.5747 64.5227,52.5767 57.9607,57.9627 52.5747,64.5247 48.5727,72.0127 46.1087,80.1367 45.2767,88.5847 45.2767,580.709" style="stroke:rgb(0,0,0);stroke-width:1px;fill:none;stroke-opacity:1;stroke-linecap:round;stroke-linejoin:round;;fill:none"/>
</svg>
