%TF.GenerationSoftware,KiCad,Pcbnew,7.0.5*%
%TF.CreationDate,2023-10-11T12:23:55-04:00*%
%TF.ProjectId,Board_To_Be_Tested,426f6172-645f-4546-9f5f-42655f546573,rev?*%
%TF.SameCoordinates,Original*%
%TF.FileFunction,Soldermask,Top*%
%TF.FilePolarity,Negative*%
%FSLAX46Y46*%
G04 Gerber Fmt 4.6, Leading zero omitted, Abs format (unit mm)*
G04 Created by KiCad (PCBNEW 7.0.5) date 2023-10-11 12:23:55*
%MOMM*%
%LPD*%
G01*
G04 APERTURE LIST*
G04 Aperture macros list*
%AMRoundRect*
0 Rectangle with rounded corners*
0 $1 Rounding radius*
0 $2 $3 $4 $5 $6 $7 $8 $9 X,Y pos of 4 corners*
0 Add a 4 corners polygon primitive as box body*
4,1,4,$2,$3,$4,$5,$6,$7,$8,$9,$2,$3,0*
0 Add four circle primitives for the rounded corners*
1,1,$1+$1,$2,$3*
1,1,$1+$1,$4,$5*
1,1,$1+$1,$6,$7*
1,1,$1+$1,$8,$9*
0 Add four rect primitives between the rounded corners*
20,1,$1+$1,$2,$3,$4,$5,0*
20,1,$1+$1,$4,$5,$6,$7,0*
20,1,$1+$1,$6,$7,$8,$9,0*
20,1,$1+$1,$8,$9,$2,$3,0*%
G04 Aperture macros list end*
%ADD10C,2.000000*%
%ADD11RoundRect,0.250000X0.625000X-0.400000X0.625000X0.400000X-0.625000X0.400000X-0.625000X-0.400000X0*%
%ADD12RoundRect,0.250000X-0.400000X-0.625000X0.400000X-0.625000X0.400000X0.625000X-0.400000X0.625000X0*%
%ADD13RoundRect,0.250001X-0.462499X-0.624999X0.462499X-0.624999X0.462499X0.624999X-0.462499X0.624999X0*%
%ADD14RoundRect,0.250000X0.650000X-0.412500X0.650000X0.412500X-0.650000X0.412500X-0.650000X-0.412500X0*%
%ADD15R,1.000000X2.300000*%
%ADD16R,1.800000X0.800000*%
%ADD17RoundRect,1.000000X0.000000X0.375000X0.000000X-0.375000X0.000000X-0.375000X0.000000X0.375000X0*%
%ADD18R,0.700000X1.600000*%
G04 APERTURE END LIST*
D10*
%TO.C,FID1*%
X128000000Y-67000000D03*
%TD*%
D11*
%TO.C,R7*%
X139050000Y-100750000D03*
X139050000Y-97650000D03*
%TD*%
%TO.C,R8*%
X132400000Y-85840000D03*
X132400000Y-82740000D03*
%TD*%
D12*
%TO.C,R5*%
X152550000Y-103300000D03*
X155650000Y-103300000D03*
%TD*%
D10*
%TO.C,FID2*%
X172000000Y-67000000D03*
%TD*%
D13*
%TO.C,D3*%
X143195000Y-69420000D03*
X146170000Y-69420000D03*
%TD*%
D12*
%TO.C,R1*%
X149132500Y-66420000D03*
X152232500Y-66420000D03*
%TD*%
D10*
%TO.C,FID4*%
X172000000Y-105000000D03*
%TD*%
D12*
%TO.C,R4*%
X157900000Y-103300000D03*
X161000000Y-103300000D03*
%TD*%
%TO.C,R2*%
X149132500Y-69420000D03*
X152232500Y-69420000D03*
%TD*%
D14*
%TO.C,C2*%
X144730000Y-91962500D03*
X144730000Y-88837500D03*
%TD*%
D13*
%TO.C,D4*%
X143195000Y-72420000D03*
X146170000Y-72420000D03*
%TD*%
D12*
%TO.C,R6*%
X149132500Y-75420000D03*
X152232500Y-75420000D03*
%TD*%
D13*
%TO.C,D5*%
X143195000Y-75420000D03*
X146170000Y-75420000D03*
%TD*%
D15*
%TO.C,D1*%
X150860000Y-86280000D03*
X147660000Y-86280000D03*
X147660000Y-91980000D03*
X150860000Y-91980000D03*
%TD*%
D16*
%TO.C,U1*%
X135090000Y-98905000D03*
X135090000Y-97635000D03*
X135090000Y-96365000D03*
X135090000Y-95095000D03*
X129810000Y-95095000D03*
X129810000Y-96365000D03*
X129810000Y-97635000D03*
X129810000Y-98905000D03*
%TD*%
D11*
%TO.C,R9*%
X140210000Y-80930000D03*
X140210000Y-77830000D03*
%TD*%
D17*
%TO.C,U2*%
X172000750Y-81384000D03*
X169460750Y-81384000D03*
X166920750Y-81384000D03*
X164380750Y-81384000D03*
X161840750Y-81384000D03*
X159300750Y-81384000D03*
X156760750Y-81384000D03*
X156760750Y-99384000D03*
X159300750Y-99384000D03*
X161840750Y-99384000D03*
X164380750Y-99384000D03*
X166920750Y-99384000D03*
X169460750Y-99384000D03*
X172000750Y-99384000D03*
%TD*%
D13*
%TO.C,D2*%
X143195000Y-66420000D03*
X146170000Y-66420000D03*
%TD*%
D12*
%TO.C,R10*%
X135000000Y-85820000D03*
X138100000Y-85820000D03*
%TD*%
D10*
%TO.C,FID3*%
X128000000Y-105000000D03*
%TD*%
D14*
%TO.C,C1*%
X139050000Y-95062500D03*
X139050000Y-91937500D03*
%TD*%
D18*
%TO.C,IC1*%
X132390000Y-77800000D03*
X133660000Y-77800000D03*
X134930000Y-77800000D03*
X136200000Y-77800000D03*
%TD*%
D12*
%TO.C,R3*%
X149132500Y-72420000D03*
X152232500Y-72420000D03*
%TD*%
M02*
