%TF.GenerationSoftware,KiCad,Pcbnew,7.0.5*%
%TF.CreationDate,2023-10-11T12:23:55-04:00*%
%TF.ProjectId,Board_To_Be_Tested,426f6172-645f-4546-9f5f-42655f546573,rev?*%
%TF.SameCoordinates,Original*%
%TF.FileFunction,Copper,L1,Top*%
%TF.FilePolarity,Positive*%
%FSLAX46Y46*%
G04 Gerber Fmt 4.6, Leading zero omitted, Abs format (unit mm)*
G04 Created by KiCad (PCBNEW 7.0.5) date 2023-10-11 12:23:55*
%MOMM*%
%LPD*%
G01*
G04 APERTURE LIST*
G04 Aperture macros list*
%AMRoundRect*
0 Rectangle with rounded corners*
0 $1 Rounding radius*
0 $2 $3 $4 $5 $6 $7 $8 $9 X,Y pos of 4 corners*
0 Add a 4 corners polygon primitive as box body*
4,1,4,$2,$3,$4,$5,$6,$7,$8,$9,$2,$3,0*
0 Add four circle primitives for the rounded corners*
1,1,$1+$1,$2,$3*
1,1,$1+$1,$4,$5*
1,1,$1+$1,$6,$7*
1,1,$1+$1,$8,$9*
0 Add four rect primitives between the rounded corners*
20,1,$1+$1,$2,$3,$4,$5,0*
20,1,$1+$1,$4,$5,$6,$7,0*
20,1,$1+$1,$6,$7,$8,$9,0*
20,1,$1+$1,$8,$9,$2,$3,0*%
G04 Aperture macros list end*
%TA.AperFunction,SMDPad,CuDef*%
%ADD10C,1.000000*%
%TD*%
%TA.AperFunction,SMDPad,CuDef*%
%ADD11RoundRect,0.250000X0.625000X-0.400000X0.625000X0.400000X-0.625000X0.400000X-0.625000X-0.400000X0*%
%TD*%
%TA.AperFunction,SMDPad,CuDef*%
%ADD12RoundRect,0.250000X-0.400000X-0.625000X0.400000X-0.625000X0.400000X0.625000X-0.400000X0.625000X0*%
%TD*%
%TA.AperFunction,SMDPad,CuDef*%
%ADD13RoundRect,0.250001X-0.462499X-0.624999X0.462499X-0.624999X0.462499X0.624999X-0.462499X0.624999X0*%
%TD*%
%TA.AperFunction,SMDPad,CuDef*%
%ADD14RoundRect,0.250000X0.650000X-0.412500X0.650000X0.412500X-0.650000X0.412500X-0.650000X-0.412500X0*%
%TD*%
%TA.AperFunction,SMDPad,CuDef*%
%ADD15R,1.000000X2.300000*%
%TD*%
%TA.AperFunction,SMDPad,CuDef*%
%ADD16R,1.800000X0.800000*%
%TD*%
%TA.AperFunction,SMDPad,CuDef*%
%ADD17RoundRect,1.000000X0.000000X0.375000X0.000000X-0.375000X0.000000X-0.375000X0.000000X0.375000X0*%
%TD*%
%TA.AperFunction,SMDPad,CuDef*%
%ADD18R,0.700000X1.600000*%
%TD*%
%TA.AperFunction,Conductor*%
%ADD19C,1.016000*%
%TD*%
%TA.AperFunction,Conductor*%
%ADD20C,0.635000*%
%TD*%
%TA.AperFunction,Conductor*%
%ADD21C,0.762000*%
%TD*%
%TA.AperFunction,Conductor*%
%ADD22C,0.508000*%
%TD*%
G04 APERTURE END LIST*
D10*
%TO.P,FID1,*%
%TO.N,*%
X128000000Y-67000000D03*
%TD*%
D11*
%TO.P,R7,1*%
%TO.N,+3V3*%
X139050000Y-100750000D03*
%TO.P,R7,2*%
%TO.N,/SHT_DATA*%
X139050000Y-97650000D03*
%TD*%
%TO.P,R8,1*%
%TO.N,/PWR*%
X132400000Y-85840000D03*
%TO.P,R8,2*%
%TO.N,/SCL*%
X132400000Y-82740000D03*
%TD*%
D12*
%TO.P,R5,1*%
%TO.N,GND*%
X152550000Y-103300000D03*
%TO.P,R5,2*%
%TO.N,/A0*%
X155650000Y-103300000D03*
%TD*%
D10*
%TO.P,FID2,*%
%TO.N,*%
X172000000Y-67000000D03*
%TD*%
D13*
%TO.P,D3,1,K*%
%TO.N,GND*%
X143195000Y-69420000D03*
%TO.P,D3,2,A*%
%TO.N,Net-(D3-A)*%
X146170000Y-69420000D03*
%TD*%
D12*
%TO.P,R1,1*%
%TO.N,Net-(D2-A)*%
X149132500Y-66420000D03*
%TO.P,R1,2*%
%TO.N,/LED1*%
X152232500Y-66420000D03*
%TD*%
D10*
%TO.P,FID4,*%
%TO.N,*%
X172000000Y-105000000D03*
%TD*%
D12*
%TO.P,R4,1*%
%TO.N,/A0*%
X157900000Y-103300000D03*
%TO.P,R4,2*%
%TO.N,+3V3*%
X161000000Y-103300000D03*
%TD*%
%TO.P,R2,1*%
%TO.N,Net-(D3-A)*%
X149132500Y-69420000D03*
%TO.P,R2,2*%
%TO.N,/LED2*%
X152232500Y-69420000D03*
%TD*%
D14*
%TO.P,C2,1*%
%TO.N,VBUS*%
X144730000Y-91962500D03*
%TO.P,C2,2*%
%TO.N,GND*%
X144730000Y-88837500D03*
%TD*%
D13*
%TO.P,D4,1,K*%
%TO.N,GND*%
X143195000Y-72420000D03*
%TO.P,D4,2,A*%
%TO.N,Net-(D4-A)*%
X146170000Y-72420000D03*
%TD*%
D12*
%TO.P,R6,1*%
%TO.N,Net-(D5-A)*%
X149132500Y-75420000D03*
%TO.P,R6,2*%
%TO.N,/LED4*%
X152232500Y-75420000D03*
%TD*%
D13*
%TO.P,D5,1,K*%
%TO.N,GND*%
X143195000Y-75420000D03*
%TO.P,D5,2,A*%
%TO.N,Net-(D5-A)*%
X146170000Y-75420000D03*
%TD*%
D15*
%TO.P,D1,1,VSS*%
%TO.N,GND*%
X150860000Y-86280000D03*
%TO.P,D1,2,DIN*%
%TO.N,/DIN*%
X147660000Y-86280000D03*
%TO.P,D1,3,VDD*%
%TO.N,VBUS*%
X147660000Y-91980000D03*
%TO.P,D1,4,DOUT*%
%TO.N,unconnected-(D1-DOUT-Pad4)*%
X150860000Y-91980000D03*
%TD*%
D16*
%TO.P,U1,1,GND*%
%TO.N,GND*%
X135090000Y-98905000D03*
%TO.P,U1,2,DATA*%
%TO.N,/SHT_DATA*%
X135090000Y-97635000D03*
%TO.P,U1,3,SCK*%
%TO.N,/SHT_CLK*%
X135090000Y-96365000D03*
%TO.P,U1,4,VDD*%
%TO.N,+3V3*%
X135090000Y-95095000D03*
%TO.P,U1,5*%
%TO.N,N/C*%
X129810000Y-95095000D03*
%TO.P,U1,6*%
X129810000Y-96365000D03*
%TO.P,U1,7*%
X129810000Y-97635000D03*
%TO.P,U1,8*%
X129810000Y-98905000D03*
%TD*%
D11*
%TO.P,R9,1*%
%TO.N,/SDA*%
X140210000Y-80930000D03*
%TO.P,R9,2*%
%TO.N,/PWR*%
X140210000Y-77830000D03*
%TD*%
D17*
%TO.P,U2,1,PA02_A0_D0*%
%TO.N,/LED1*%
X172000750Y-81384000D03*
%TO.P,U2,2,PA4_A1_D1*%
%TO.N,/LED2*%
X169460750Y-81384000D03*
%TO.P,U2,3,PA10_A2_D2*%
%TO.N,/LED3*%
X166920750Y-81384000D03*
%TO.P,U2,4,PA11_A3_D3*%
%TO.N,/LED4*%
X164380750Y-81384000D03*
%TO.P,U2,5,PA8_A4_D4_SDA*%
%TO.N,/SDA*%
X161840750Y-81384000D03*
%TO.P,U2,6,PA9_A5_D5_SCL*%
%TO.N,/SCL*%
X159300750Y-81384000D03*
%TO.P,U2,7,PB08_A6_D6_TX*%
%TO.N,/DIN*%
X156760750Y-81384000D03*
%TO.P,U2,8,PB09_A7_D7_RX*%
%TO.N,/SHT_DATA*%
X156760750Y-99384000D03*
%TO.P,U2,9,PA7_A8_D8_SCK*%
%TO.N,/A0*%
X159300750Y-99384000D03*
%TO.P,U2,10,PA5_A9_D9_MISO*%
%TO.N,unconnected-(U2-PA5_A9_D9_MISO-Pad10)*%
X161840750Y-99384000D03*
%TO.P,U2,11,PA6_A10_D10_MOSI*%
%TO.N,/SHT_CLK*%
X164380750Y-99384000D03*
%TO.P,U2,12,3V3*%
%TO.N,+3V3*%
X166920750Y-99384000D03*
%TO.P,U2,13,GND*%
%TO.N,GND*%
X169460750Y-99384000D03*
%TO.P,U2,14,5V*%
%TO.N,VBUS*%
X172000750Y-99384000D03*
%TD*%
D13*
%TO.P,D2,1,K*%
%TO.N,GND*%
X143195000Y-66420000D03*
%TO.P,D2,2,A*%
%TO.N,Net-(D2-A)*%
X146170000Y-66420000D03*
%TD*%
D12*
%TO.P,R10,1*%
%TO.N,/PWR*%
X135000000Y-85820000D03*
%TO.P,R10,2*%
%TO.N,+3V3*%
X138100000Y-85820000D03*
%TD*%
D10*
%TO.P,FID3,*%
%TO.N,*%
X128000000Y-105000000D03*
%TD*%
D14*
%TO.P,C1,1*%
%TO.N,+3V3*%
X139050000Y-95062500D03*
%TO.P,C1,2*%
%TO.N,GND*%
X139050000Y-91937500D03*
%TD*%
D18*
%TO.P,IC1,1,SCL*%
%TO.N,/SCL*%
X132390000Y-77800000D03*
%TO.P,IC1,2,VDD*%
%TO.N,/PWR*%
X133660000Y-77800000D03*
%TO.P,IC1,3,GND*%
%TO.N,GND*%
X134930000Y-77800000D03*
%TO.P,IC1,4,SDA*%
%TO.N,/SDA*%
X136200000Y-77800000D03*
%TD*%
D12*
%TO.P,R3,1*%
%TO.N,Net-(D4-A)*%
X149132500Y-72420000D03*
%TO.P,R3,2*%
%TO.N,/LED3*%
X152232500Y-72420000D03*
%TD*%
D19*
%TO.N,GND*%
X169460750Y-99384000D02*
X169460750Y-102339250D01*
D20*
X134930000Y-75620000D02*
X135580000Y-74970000D01*
D21*
X135090000Y-98905000D02*
X136905000Y-98905000D01*
D20*
X134930000Y-77800000D02*
X134930000Y-76410000D01*
X134930000Y-76410000D02*
X134930000Y-75620000D01*
D21*
%TO.N,VBUS*%
X144747500Y-91980000D02*
X144730000Y-91962500D01*
X167400000Y-96800000D02*
X159900000Y-89300000D01*
X147660000Y-91980000D02*
X144747500Y-91980000D01*
X172000750Y-98000750D02*
X170800000Y-96800000D01*
X159900000Y-89300000D02*
X159900000Y-86310000D01*
X172000750Y-99384000D02*
X172000750Y-98000750D01*
X159900000Y-86310000D02*
X158470000Y-84880000D01*
X154620000Y-84880000D02*
X153150000Y-86350000D01*
X147660000Y-90010000D02*
X147660000Y-91980000D01*
X151790000Y-89290000D02*
X148380000Y-89290000D01*
X148380000Y-89290000D02*
X147660000Y-90010000D01*
X158470000Y-84880000D02*
X154620000Y-84880000D01*
X170800000Y-96800000D02*
X167400000Y-96800000D01*
X153150000Y-87930000D02*
X151790000Y-89290000D01*
X153150000Y-86350000D02*
X153150000Y-87930000D01*
D22*
%TO.N,/DIN*%
X147660000Y-83650000D02*
X149926000Y-81384000D01*
X149926000Y-81384000D02*
X156760750Y-81384000D01*
X147660000Y-86280000D02*
X147660000Y-83650000D01*
%TO.N,Net-(D2-A)*%
X146170000Y-66420000D02*
X149132500Y-66420000D01*
%TO.N,Net-(D3-A)*%
X146170000Y-69420000D02*
X149132500Y-69420000D01*
%TO.N,Net-(D4-A)*%
X146170000Y-72420000D02*
X149132500Y-72420000D01*
%TO.N,Net-(D5-A)*%
X146170000Y-75420000D02*
X149132500Y-75420000D01*
%TO.N,/LED1*%
X166790000Y-66430000D02*
X152242500Y-66430000D01*
X172000750Y-71640750D02*
X166790000Y-66430000D01*
X152242500Y-66430000D02*
X152232500Y-66420000D01*
X172000750Y-81384000D02*
X172000750Y-71640750D01*
%TO.N,/LED2*%
X152242500Y-69430000D02*
X152232500Y-69420000D01*
X166460000Y-69430000D02*
X152242500Y-69430000D01*
X169460750Y-72430750D02*
X166460000Y-69430000D01*
X169460750Y-81384000D02*
X169460750Y-72430750D01*
%TO.N,/LED3*%
X164970000Y-72430000D02*
X152242500Y-72430000D01*
X152242500Y-72430000D02*
X152232500Y-72420000D01*
X166920750Y-81384000D02*
X166920750Y-74380750D01*
X166920750Y-74380750D02*
X164970000Y-72430000D01*
%TO.N,/A0*%
X155650000Y-103300000D02*
X157900000Y-103300000D01*
X157900000Y-103300000D02*
X159300750Y-101899250D01*
X159300750Y-101899250D02*
X159300750Y-99384000D01*
%TO.N,+3V3*%
X166920750Y-98370750D02*
X166920750Y-99384000D01*
D21*
X165650000Y-103300000D02*
X166920750Y-102029250D01*
D22*
X141810000Y-95062500D02*
X141810000Y-89530000D01*
X139050000Y-95062500D02*
X141810000Y-95062500D01*
X139050000Y-100750000D02*
X147550000Y-100750000D01*
X163612500Y-95062500D02*
X166920750Y-98370750D01*
X161000000Y-103300000D02*
X158750000Y-105550000D01*
X147550000Y-100750000D02*
X148950000Y-102150000D01*
X148950000Y-102150000D02*
X148950000Y-103600000D01*
X150900000Y-105550000D02*
X148950000Y-103600000D01*
D21*
X161037500Y-103337500D02*
X161000000Y-103300000D01*
D22*
X141810000Y-95062500D02*
X163612500Y-95062500D01*
X135090000Y-95095000D02*
X139017500Y-95095000D01*
D21*
X161000000Y-103300000D02*
X165650000Y-103300000D01*
D22*
X158750000Y-105550000D02*
X150900000Y-105550000D01*
X139017500Y-95095000D02*
X139050000Y-95062500D01*
D21*
X166920750Y-102029250D02*
X166920750Y-99384000D01*
D22*
X141810000Y-89530000D02*
X138100000Y-85820000D01*
%TO.N,/LED4*%
X162720000Y-75430000D02*
X152242500Y-75430000D01*
X164380750Y-81384000D02*
X164380750Y-77090750D01*
X152242500Y-75430000D02*
X152232500Y-75420000D01*
X164380750Y-77090750D02*
X162720000Y-75430000D01*
%TO.N,/SHT_DATA*%
X135090000Y-97635000D02*
X139035000Y-97635000D01*
X139035000Y-97635000D02*
X139050000Y-97650000D01*
X148400000Y-97650000D02*
X150134000Y-99384000D01*
X150134000Y-99384000D02*
X156760750Y-99384000D01*
X139050000Y-97650000D02*
X148400000Y-97650000D01*
%TO.N,/SHT_CLK*%
X164380750Y-97780750D02*
X164380750Y-99384000D01*
X162965000Y-96365000D02*
X164380750Y-97780750D01*
X135090000Y-96365000D02*
X162965000Y-96365000D01*
%TO.N,/SCL*%
X132400000Y-82740000D02*
X144110000Y-82740000D01*
X132400000Y-82740000D02*
X132400000Y-77810000D01*
X132400000Y-77810000D02*
X132390000Y-77800000D01*
X159300750Y-81236761D02*
X159300750Y-81384000D01*
X144110000Y-82740000D02*
X147480000Y-79370000D01*
X147480000Y-79370000D02*
X157433989Y-79370000D01*
X157433989Y-79370000D02*
X159300750Y-81236761D01*
%TO.N,/SDA*%
X158733989Y-78130000D02*
X161840750Y-81236761D01*
X138040000Y-80930000D02*
X140210000Y-80930000D01*
X144350000Y-80930000D02*
X147150000Y-78130000D01*
X140210000Y-80930000D02*
X144350000Y-80930000D01*
X136200000Y-79090000D02*
X138040000Y-80930000D01*
X147150000Y-78130000D02*
X158733989Y-78130000D01*
X161840750Y-81236761D02*
X161840750Y-81384000D01*
X136200000Y-77800000D02*
X136200000Y-79090000D01*
%TO.N,/PWR*%
X130580000Y-85840000D02*
X132400000Y-85840000D01*
X140210000Y-77830000D02*
X140210000Y-75810000D01*
X132420000Y-85820000D02*
X132400000Y-85840000D01*
X130100000Y-74620000D02*
X129070000Y-75650000D01*
X135000000Y-85820000D02*
X132420000Y-85820000D01*
X133660000Y-74620000D02*
X133660000Y-74990000D01*
X138240000Y-73840000D02*
X134440000Y-73840000D01*
X133660000Y-74990000D02*
X133660000Y-77800000D01*
X129070000Y-75650000D02*
X129070000Y-84330000D01*
X134440000Y-73840000D02*
X133660000Y-74620000D01*
X140210000Y-75810000D02*
X138240000Y-73840000D01*
X129070000Y-84330000D02*
X130580000Y-85840000D01*
X133660000Y-74620000D02*
X130100000Y-74620000D01*
%TD*%
%TA.AperFunction,Conductor*%
%TO.N,GND*%
G36*
X174392221Y-64519266D02*
G01*
X174458157Y-64571849D01*
X174494749Y-64647832D01*
X174499500Y-64690000D01*
X174499500Y-80810500D01*
X174480734Y-80892721D01*
X174428151Y-80958657D01*
X174352168Y-80995249D01*
X174310000Y-81000000D01*
X173381656Y-81000000D01*
X173299435Y-80981234D01*
X173233499Y-80928651D01*
X173196907Y-80852668D01*
X173195538Y-80845444D01*
X173194831Y-80842440D01*
X173194831Y-80842433D01*
X173143893Y-80625857D01*
X173054027Y-80422329D01*
X172928292Y-80238779D01*
X172770971Y-80081458D01*
X172670405Y-80012569D01*
X172587417Y-79955720D01*
X172568206Y-79947238D01*
X172500571Y-79896859D01*
X172461493Y-79822124D01*
X172455250Y-79773885D01*
X172455250Y-71671600D01*
X172455845Y-71660994D01*
X172460063Y-71623564D01*
X172449238Y-71566358D01*
X172448645Y-71562864D01*
X172439964Y-71505273D01*
X172439964Y-71505271D01*
X172439962Y-71505267D01*
X172437427Y-71497051D01*
X172434590Y-71488940D01*
X172407382Y-71437461D01*
X172405785Y-71434298D01*
X172391766Y-71405188D01*
X172380517Y-71381829D01*
X172380511Y-71381823D01*
X172375672Y-71374723D01*
X172370571Y-71367812D01*
X172370570Y-71367810D01*
X172329384Y-71326624D01*
X172326926Y-71324072D01*
X172287326Y-71281393D01*
X172275827Y-71272223D01*
X172267898Y-71265137D01*
X168002761Y-67000000D01*
X170994659Y-67000000D01*
X171013976Y-67196136D01*
X171071185Y-67384727D01*
X171164088Y-67558535D01*
X171164090Y-67558538D01*
X171289117Y-67710883D01*
X171441462Y-67835910D01*
X171441464Y-67835911D01*
X171615272Y-67928814D01*
X171803863Y-67986023D01*
X171803865Y-67986023D01*
X171803868Y-67986024D01*
X172000000Y-68005341D01*
X172196132Y-67986024D01*
X172196134Y-67986023D01*
X172196136Y-67986023D01*
X172384727Y-67928814D01*
X172558538Y-67835910D01*
X172710883Y-67710883D01*
X172835910Y-67558538D01*
X172928814Y-67384727D01*
X172955247Y-67297589D01*
X172986023Y-67196136D01*
X172986023Y-67196134D01*
X172986024Y-67196132D01*
X173005341Y-67000000D01*
X172986024Y-66803868D01*
X172986023Y-66803865D01*
X172986023Y-66803863D01*
X172928814Y-66615272D01*
X172835911Y-66441464D01*
X172835910Y-66441462D01*
X172710883Y-66289117D01*
X172558538Y-66164090D01*
X172558536Y-66164089D01*
X172558535Y-66164088D01*
X172384727Y-66071185D01*
X172196136Y-66013976D01*
X172000000Y-65994659D01*
X171803863Y-66013976D01*
X171615272Y-66071185D01*
X171441464Y-66164088D01*
X171289120Y-66289114D01*
X171289114Y-66289120D01*
X171164088Y-66441464D01*
X171071185Y-66615272D01*
X171013976Y-66803863D01*
X170994659Y-67000000D01*
X168002761Y-67000000D01*
X167133195Y-66130434D01*
X167126110Y-66122506D01*
X167125215Y-66121384D01*
X167102631Y-66093064D01*
X167054511Y-66060256D01*
X167051624Y-66058207D01*
X167025594Y-66038997D01*
X167004773Y-66023631D01*
X167004771Y-66023630D01*
X166997184Y-66019619D01*
X166989430Y-66015885D01*
X166989428Y-66015884D01*
X166989425Y-66015883D01*
X166989423Y-66015882D01*
X166933799Y-65998725D01*
X166930432Y-65997617D01*
X166875448Y-65978377D01*
X166867040Y-65976785D01*
X166858508Y-65975500D01*
X166858505Y-65975500D01*
X166800269Y-65975500D01*
X166796764Y-65975434D01*
X166738537Y-65973256D01*
X166738536Y-65973256D01*
X166738534Y-65973256D01*
X166723905Y-65974904D01*
X166713291Y-65975500D01*
X153272500Y-65975500D01*
X153190279Y-65956734D01*
X153124343Y-65904151D01*
X153087751Y-65828168D01*
X153083000Y-65786000D01*
X153083000Y-65740731D01*
X153082999Y-65740726D01*
X153080147Y-65710309D01*
X153080146Y-65710302D01*
X153080146Y-65710301D01*
X153035293Y-65582118D01*
X152954650Y-65472850D01*
X152954648Y-65472848D01*
X152921708Y-65448537D01*
X152845382Y-65392207D01*
X152845378Y-65392205D01*
X152717200Y-65347354D01*
X152717190Y-65347352D01*
X152686773Y-65344500D01*
X152686766Y-65344500D01*
X151778234Y-65344500D01*
X151778226Y-65344500D01*
X151747809Y-65347352D01*
X151747799Y-65347354D01*
X151619621Y-65392205D01*
X151619620Y-65392206D01*
X151619619Y-65392206D01*
X151619618Y-65392207D01*
X151589690Y-65414294D01*
X151510351Y-65472848D01*
X151510348Y-65472851D01*
X151459013Y-65542410D01*
X151429709Y-65582116D01*
X151429706Y-65582120D01*
X151429705Y-65582121D01*
X151384854Y-65710299D01*
X151384852Y-65710309D01*
X151382000Y-65740726D01*
X151382000Y-67099273D01*
X151384852Y-67129690D01*
X151384854Y-67129700D01*
X151429705Y-67257878D01*
X151429707Y-67257882D01*
X151486037Y-67334208D01*
X151510348Y-67367148D01*
X151510350Y-67367150D01*
X151619618Y-67447793D01*
X151747801Y-67492646D01*
X151747806Y-67492646D01*
X151747809Y-67492647D01*
X151763017Y-67494073D01*
X151778228Y-67495499D01*
X151778231Y-67495500D01*
X151778234Y-67495500D01*
X152686769Y-67495500D01*
X152686770Y-67495499D01*
X152707691Y-67493537D01*
X152717190Y-67492647D01*
X152717191Y-67492646D01*
X152717199Y-67492646D01*
X152845382Y-67447793D01*
X152954650Y-67367150D01*
X153035293Y-67257882D01*
X153080146Y-67129699D01*
X153083000Y-67099266D01*
X153083000Y-67074000D01*
X153101766Y-66991779D01*
X153154349Y-66925843D01*
X153230332Y-66889251D01*
X153272500Y-66884500D01*
X166523246Y-66884500D01*
X166605467Y-66903266D01*
X166657243Y-66940003D01*
X171490748Y-71773508D01*
X171535616Y-71844915D01*
X171546250Y-71907503D01*
X171546250Y-79773885D01*
X171527484Y-79856106D01*
X171474901Y-79922042D01*
X171433294Y-79947238D01*
X171414082Y-79955720D01*
X171230527Y-80081459D01*
X171073209Y-80238777D01*
X170947473Y-80422328D01*
X170937330Y-80445301D01*
X170904102Y-80520553D01*
X170853726Y-80588187D01*
X170778991Y-80627266D01*
X170694701Y-80630049D01*
X170617552Y-80595984D01*
X170562822Y-80531819D01*
X170557402Y-80520564D01*
X170514027Y-80422329D01*
X170388292Y-80238779D01*
X170230971Y-80081458D01*
X170130405Y-80012569D01*
X170047417Y-79955720D01*
X170028206Y-79947238D01*
X169960571Y-79896859D01*
X169921493Y-79822124D01*
X169915250Y-79773885D01*
X169915250Y-72461600D01*
X169915845Y-72450994D01*
X169920063Y-72413564D01*
X169909238Y-72356358D01*
X169908645Y-72352864D01*
X169899964Y-72295273D01*
X169899964Y-72295271D01*
X169899962Y-72295267D01*
X169897427Y-72287051D01*
X169894590Y-72278940D01*
X169867382Y-72227461D01*
X169865785Y-72224298D01*
X169860430Y-72213179D01*
X169840517Y-72171829D01*
X169840511Y-72171823D01*
X169835672Y-72164723D01*
X169830571Y-72157812D01*
X169830570Y-72157810D01*
X169789384Y-72116624D01*
X169786926Y-72114072D01*
X169747326Y-72071393D01*
X169735827Y-72062223D01*
X169727898Y-72055137D01*
X166803195Y-69130434D01*
X166796110Y-69122506D01*
X166795215Y-69121384D01*
X166772631Y-69093064D01*
X166724511Y-69060256D01*
X166721624Y-69058207D01*
X166695594Y-69038997D01*
X166674773Y-69023631D01*
X166674771Y-69023630D01*
X166667184Y-69019619D01*
X166659430Y-69015885D01*
X166659428Y-69015884D01*
X166659425Y-69015883D01*
X166659423Y-69015882D01*
X166603799Y-68998725D01*
X166600432Y-68997617D01*
X166545448Y-68978377D01*
X166537040Y-68976785D01*
X166528508Y-68975500D01*
X166528505Y-68975500D01*
X166470269Y-68975500D01*
X166466764Y-68975434D01*
X166408537Y-68973256D01*
X166408536Y-68973256D01*
X166408534Y-68973256D01*
X166393905Y-68974904D01*
X166383291Y-68975500D01*
X153272500Y-68975500D01*
X153190279Y-68956734D01*
X153124343Y-68904151D01*
X153087751Y-68828168D01*
X153083000Y-68786000D01*
X153083000Y-68740731D01*
X153082999Y-68740726D01*
X153080147Y-68710309D01*
X153080146Y-68710302D01*
X153080146Y-68710301D01*
X153035293Y-68582118D01*
X152954650Y-68472850D01*
X152954648Y-68472848D01*
X152921708Y-68448537D01*
X152845382Y-68392207D01*
X152845378Y-68392205D01*
X152717200Y-68347354D01*
X152717190Y-68347352D01*
X152686773Y-68344500D01*
X152686766Y-68344500D01*
X151778234Y-68344500D01*
X151778226Y-68344500D01*
X151747809Y-68347352D01*
X151747799Y-68347354D01*
X151619621Y-68392205D01*
X151619620Y-68392206D01*
X151619619Y-68392206D01*
X151619618Y-68392207D01*
X151589690Y-68414294D01*
X151510351Y-68472848D01*
X151510348Y-68472851D01*
X151459013Y-68542410D01*
X151429709Y-68582116D01*
X151429706Y-68582120D01*
X151429705Y-68582121D01*
X151384854Y-68710299D01*
X151384852Y-68710309D01*
X151382000Y-68740726D01*
X151382000Y-70099273D01*
X151384852Y-70129690D01*
X151384854Y-70129700D01*
X151429705Y-70257878D01*
X151429707Y-70257882D01*
X151486037Y-70334208D01*
X151510348Y-70367148D01*
X151510350Y-70367150D01*
X151619618Y-70447793D01*
X151747801Y-70492646D01*
X151747806Y-70492646D01*
X151747809Y-70492647D01*
X151763017Y-70494073D01*
X151778228Y-70495499D01*
X151778231Y-70495500D01*
X151778234Y-70495500D01*
X152686769Y-70495500D01*
X152686770Y-70495499D01*
X152707691Y-70493537D01*
X152717190Y-70492647D01*
X152717191Y-70492646D01*
X152717199Y-70492646D01*
X152845382Y-70447793D01*
X152954650Y-70367150D01*
X153035293Y-70257882D01*
X153080146Y-70129699D01*
X153083000Y-70099266D01*
X153083000Y-70073999D01*
X153101766Y-69991779D01*
X153154349Y-69925843D01*
X153230332Y-69889251D01*
X153272500Y-69884500D01*
X166193246Y-69884500D01*
X166275467Y-69903266D01*
X166327243Y-69940002D01*
X168950748Y-72563508D01*
X168995616Y-72634915D01*
X169006250Y-72697503D01*
X169006250Y-79773885D01*
X168987484Y-79856106D01*
X168934901Y-79922042D01*
X168893294Y-79947238D01*
X168874082Y-79955720D01*
X168690527Y-80081459D01*
X168533209Y-80238777D01*
X168407473Y-80422328D01*
X168397330Y-80445301D01*
X168364102Y-80520553D01*
X168313726Y-80588187D01*
X168238991Y-80627266D01*
X168154701Y-80630049D01*
X168077552Y-80595984D01*
X168022822Y-80531819D01*
X168017402Y-80520564D01*
X167974027Y-80422329D01*
X167848292Y-80238779D01*
X167690971Y-80081458D01*
X167590405Y-80012569D01*
X167507417Y-79955720D01*
X167488206Y-79947238D01*
X167420571Y-79896859D01*
X167381493Y-79822124D01*
X167375250Y-79773885D01*
X167375250Y-74411601D01*
X167375845Y-74400995D01*
X167380063Y-74363564D01*
X167369232Y-74306326D01*
X167368650Y-74302907D01*
X167359964Y-74245271D01*
X167359962Y-74245268D01*
X167357434Y-74237070D01*
X167354591Y-74228943D01*
X167327368Y-74177435D01*
X167325789Y-74174307D01*
X167300517Y-74121829D01*
X167295672Y-74114723D01*
X167290571Y-74107813D01*
X167290570Y-74107810D01*
X167290566Y-74107806D01*
X167249397Y-74066636D01*
X167246939Y-74064085D01*
X167207327Y-74021394D01*
X167195827Y-74012223D01*
X167187898Y-74005137D01*
X165313195Y-72130434D01*
X165306110Y-72122506D01*
X165299384Y-72114072D01*
X165282631Y-72093064D01*
X165234511Y-72060256D01*
X165231624Y-72058207D01*
X165205594Y-72038997D01*
X165184773Y-72023631D01*
X165184771Y-72023630D01*
X165177184Y-72019619D01*
X165169430Y-72015885D01*
X165169428Y-72015884D01*
X165169425Y-72015883D01*
X165169423Y-72015882D01*
X165113799Y-71998725D01*
X165110432Y-71997617D01*
X165055448Y-71978377D01*
X165047040Y-71976785D01*
X165038508Y-71975500D01*
X165038505Y-71975500D01*
X164980269Y-71975500D01*
X164976764Y-71975434D01*
X164918537Y-71973256D01*
X164918536Y-71973256D01*
X164918534Y-71973256D01*
X164903905Y-71974904D01*
X164893291Y-71975500D01*
X153272500Y-71975500D01*
X153190279Y-71956734D01*
X153124343Y-71904151D01*
X153087751Y-71828168D01*
X153083000Y-71786000D01*
X153083000Y-71740731D01*
X153082999Y-71740726D01*
X153080147Y-71710309D01*
X153080146Y-71710302D01*
X153080146Y-71710301D01*
X153035293Y-71582118D01*
X152954650Y-71472850D01*
X152954648Y-71472848D01*
X152904564Y-71435885D01*
X152845382Y-71392207D01*
X152845378Y-71392205D01*
X152717200Y-71347354D01*
X152717190Y-71347352D01*
X152686773Y-71344500D01*
X152686766Y-71344500D01*
X151778234Y-71344500D01*
X151778226Y-71344500D01*
X151747809Y-71347352D01*
X151747799Y-71347354D01*
X151619621Y-71392205D01*
X151619620Y-71392206D01*
X151619619Y-71392206D01*
X151619618Y-71392207D01*
X151589690Y-71414294D01*
X151510351Y-71472848D01*
X151510348Y-71472851D01*
X151459013Y-71542410D01*
X151429709Y-71582116D01*
X151429706Y-71582120D01*
X151429705Y-71582121D01*
X151384854Y-71710299D01*
X151384852Y-71710309D01*
X151382000Y-71740726D01*
X151382000Y-73099273D01*
X151384852Y-73129690D01*
X151384854Y-73129700D01*
X151429705Y-73257878D01*
X151429707Y-73257882D01*
X151486037Y-73334208D01*
X151510348Y-73367148D01*
X151510350Y-73367150D01*
X151619618Y-73447793D01*
X151747801Y-73492646D01*
X151747806Y-73492646D01*
X151747809Y-73492647D01*
X151763017Y-73494073D01*
X151778228Y-73495499D01*
X151778231Y-73495500D01*
X151778234Y-73495500D01*
X152686769Y-73495500D01*
X152686770Y-73495499D01*
X152707691Y-73493537D01*
X152717190Y-73492647D01*
X152717191Y-73492646D01*
X152717199Y-73492646D01*
X152845382Y-73447793D01*
X152954650Y-73367150D01*
X153035293Y-73257882D01*
X153080146Y-73129699D01*
X153083000Y-73099266D01*
X153083000Y-73074000D01*
X153101766Y-72991779D01*
X153154349Y-72925843D01*
X153230332Y-72889251D01*
X153272500Y-72884500D01*
X164703246Y-72884500D01*
X164785467Y-72903266D01*
X164837243Y-72940003D01*
X166410747Y-74513507D01*
X166455616Y-74584916D01*
X166466250Y-74647504D01*
X166466250Y-79773885D01*
X166447484Y-79856106D01*
X166394901Y-79922042D01*
X166353294Y-79947238D01*
X166334082Y-79955720D01*
X166150527Y-80081459D01*
X165993209Y-80238777D01*
X165867473Y-80422328D01*
X165857330Y-80445301D01*
X165824102Y-80520553D01*
X165773726Y-80588187D01*
X165698991Y-80627266D01*
X165614701Y-80630049D01*
X165537552Y-80595984D01*
X165482822Y-80531819D01*
X165477402Y-80520564D01*
X165434027Y-80422329D01*
X165308292Y-80238779D01*
X165150971Y-80081458D01*
X165050405Y-80012569D01*
X164967417Y-79955720D01*
X164948206Y-79947238D01*
X164880571Y-79896859D01*
X164841493Y-79822124D01*
X164835250Y-79773885D01*
X164835250Y-77121601D01*
X164835845Y-77110995D01*
X164840063Y-77073564D01*
X164829232Y-77016326D01*
X164828650Y-77012907D01*
X164819964Y-76955271D01*
X164819962Y-76955268D01*
X164817434Y-76947070D01*
X164814591Y-76938943D01*
X164787368Y-76887435D01*
X164785789Y-76884307D01*
X164760517Y-76831829D01*
X164755672Y-76824723D01*
X164750571Y-76817813D01*
X164750570Y-76817810D01*
X164732260Y-76799500D01*
X164709397Y-76776636D01*
X164706939Y-76774085D01*
X164667327Y-76731394D01*
X164655827Y-76722223D01*
X164647898Y-76715137D01*
X163063195Y-75130434D01*
X163056110Y-75122506D01*
X163055215Y-75121384D01*
X163032631Y-75093064D01*
X162984511Y-75060256D01*
X162981624Y-75058207D01*
X162955594Y-75038997D01*
X162934773Y-75023631D01*
X162934771Y-75023630D01*
X162927184Y-75019619D01*
X162919430Y-75015885D01*
X162919428Y-75015884D01*
X162919425Y-75015883D01*
X162919423Y-75015882D01*
X162863799Y-74998725D01*
X162860432Y-74997617D01*
X162805448Y-74978377D01*
X162797040Y-74976785D01*
X162788508Y-74975500D01*
X162788505Y-74975500D01*
X162730269Y-74975500D01*
X162726764Y-74975434D01*
X162668537Y-74973256D01*
X162668536Y-74973256D01*
X162668534Y-74973256D01*
X162653905Y-74974904D01*
X162643291Y-74975500D01*
X153272500Y-74975500D01*
X153190279Y-74956734D01*
X153124343Y-74904151D01*
X153087751Y-74828168D01*
X153083000Y-74786000D01*
X153083000Y-74740731D01*
X153082999Y-74740726D01*
X153080147Y-74710309D01*
X153080146Y-74710302D01*
X153080146Y-74710301D01*
X153035293Y-74582118D01*
X152954650Y-74472850D01*
X152954648Y-74472848D01*
X152921708Y-74448537D01*
X152845382Y-74392207D01*
X152845378Y-74392205D01*
X152717200Y-74347354D01*
X152717190Y-74347352D01*
X152686773Y-74344500D01*
X152686766Y-74344500D01*
X151778234Y-74344500D01*
X151778226Y-74344500D01*
X151747809Y-74347352D01*
X151747799Y-74347354D01*
X151619621Y-74392205D01*
X151619620Y-74392206D01*
X151619619Y-74392206D01*
X151619618Y-74392207D01*
X151593340Y-74411601D01*
X151510351Y-74472848D01*
X151510348Y-74472851D01*
X151459013Y-74542410D01*
X151429709Y-74582116D01*
X151429706Y-74582120D01*
X151429705Y-74582121D01*
X151384854Y-74710299D01*
X151384852Y-74710309D01*
X151382000Y-74740726D01*
X151382000Y-76099273D01*
X151384852Y-76129690D01*
X151384854Y-76129700D01*
X151429705Y-76257878D01*
X151429707Y-76257882D01*
X151486037Y-76334208D01*
X151510348Y-76367148D01*
X151510350Y-76367150D01*
X151619618Y-76447793D01*
X151747801Y-76492646D01*
X151747806Y-76492646D01*
X151747809Y-76492647D01*
X151763017Y-76494073D01*
X151778228Y-76495499D01*
X151778231Y-76495500D01*
X151778234Y-76495500D01*
X152686769Y-76495500D01*
X152686770Y-76495499D01*
X152707691Y-76493537D01*
X152717190Y-76492647D01*
X152717191Y-76492646D01*
X152717199Y-76492646D01*
X152845382Y-76447793D01*
X152954650Y-76367150D01*
X153035293Y-76257882D01*
X153080146Y-76129699D01*
X153083000Y-76099266D01*
X153083000Y-76073999D01*
X153101766Y-75991779D01*
X153154349Y-75925843D01*
X153230332Y-75889251D01*
X153272500Y-75884500D01*
X162453246Y-75884500D01*
X162535467Y-75903266D01*
X162587243Y-75940003D01*
X163870746Y-77223506D01*
X163915615Y-77294915D01*
X163926249Y-77357503D01*
X163926249Y-79773885D01*
X163907483Y-79856106D01*
X163854900Y-79922042D01*
X163813296Y-79947237D01*
X163794081Y-79955721D01*
X163610527Y-80081459D01*
X163453209Y-80238777D01*
X163327473Y-80422328D01*
X163317330Y-80445301D01*
X163284102Y-80520553D01*
X163233726Y-80588187D01*
X163158991Y-80627266D01*
X163074701Y-80630049D01*
X162997552Y-80595984D01*
X162942822Y-80531819D01*
X162937402Y-80520564D01*
X162894027Y-80422329D01*
X162768292Y-80238779D01*
X162610971Y-80081458D01*
X162427421Y-79955723D01*
X162427416Y-79955721D01*
X162223893Y-79865857D01*
X162223890Y-79865856D01*
X162172268Y-79853715D01*
X162007317Y-79814919D01*
X161961079Y-79811709D01*
X161914846Y-79808500D01*
X161914842Y-79808500D01*
X161766658Y-79808500D01*
X161766653Y-79808500D01*
X161708861Y-79812511D01*
X161674183Y-79814919D01*
X161550469Y-79844016D01*
X161457609Y-79865856D01*
X161457606Y-79865857D01*
X161337029Y-79919097D01*
X161254234Y-79935140D01*
X161172677Y-79913670D01*
X161126490Y-79879740D01*
X159077184Y-77830434D01*
X159070099Y-77822506D01*
X159069204Y-77821384D01*
X159046620Y-77793064D01*
X158998500Y-77760256D01*
X158995613Y-77758207D01*
X158969583Y-77738997D01*
X158948762Y-77723631D01*
X158948760Y-77723630D01*
X158941173Y-77719619D01*
X158933419Y-77715885D01*
X158933417Y-77715884D01*
X158933414Y-77715883D01*
X158933412Y-77715882D01*
X158877788Y-77698725D01*
X158874421Y-77697617D01*
X158819437Y-77678377D01*
X158811029Y-77676785D01*
X158802497Y-77675500D01*
X158802494Y-77675500D01*
X158744258Y-77675500D01*
X158740753Y-77675434D01*
X158682526Y-77673256D01*
X158682525Y-77673256D01*
X158682523Y-77673256D01*
X158667894Y-77674904D01*
X158657280Y-77675500D01*
X147180852Y-77675500D01*
X147170247Y-77674904D01*
X147132814Y-77670687D01*
X147132809Y-77670687D01*
X147075574Y-77681516D01*
X147072083Y-77682109D01*
X147014520Y-77690785D01*
X147006296Y-77693322D01*
X146998193Y-77696158D01*
X146946705Y-77723370D01*
X146943545Y-77724965D01*
X146891077Y-77750233D01*
X146883974Y-77755075D01*
X146877061Y-77760178D01*
X146835885Y-77801353D01*
X146833336Y-77803809D01*
X146790640Y-77843425D01*
X146781464Y-77854931D01*
X146774383Y-77862855D01*
X144217242Y-80419997D01*
X144145833Y-80464866D01*
X144083245Y-80475500D01*
X141427671Y-80475500D01*
X141345450Y-80456734D01*
X141279514Y-80404151D01*
X141248805Y-80348588D01*
X141237794Y-80317120D01*
X141157151Y-80207851D01*
X141157148Y-80207848D01*
X141124208Y-80183537D01*
X141047882Y-80127207D01*
X141047878Y-80127205D01*
X140919700Y-80082354D01*
X140919690Y-80082352D01*
X140889273Y-80079500D01*
X140889266Y-80079500D01*
X139530734Y-80079500D01*
X139530726Y-80079500D01*
X139500309Y-80082352D01*
X139500299Y-80082354D01*
X139372121Y-80127205D01*
X139372120Y-80127206D01*
X139372119Y-80127206D01*
X139372118Y-80127207D01*
X139343948Y-80147997D01*
X139262851Y-80207848D01*
X139262848Y-80207851D01*
X139240023Y-80238779D01*
X139182207Y-80317118D01*
X139182206Y-80317120D01*
X139182205Y-80317120D01*
X139171195Y-80348588D01*
X139126326Y-80419996D01*
X139054917Y-80464866D01*
X138992329Y-80475500D01*
X138306754Y-80475500D01*
X138224533Y-80456734D01*
X138172757Y-80419997D01*
X136725517Y-78972756D01*
X136680648Y-78901347D01*
X136671206Y-78817542D01*
X136699060Y-78737939D01*
X136701924Y-78733518D01*
X136738867Y-78678231D01*
X136750500Y-78619748D01*
X136750500Y-76980252D01*
X136738867Y-76921769D01*
X136726760Y-76903650D01*
X136694553Y-76855449D01*
X136694550Y-76855446D01*
X136628230Y-76811132D01*
X136569748Y-76799500D01*
X135830252Y-76799500D01*
X135753463Y-76814774D01*
X135752577Y-76810323D01*
X135704979Y-76818322D01*
X135623982Y-76794828D01*
X135581951Y-76763137D01*
X135504448Y-76685634D01*
X135504445Y-76685632D01*
X135390221Y-76629791D01*
X135390215Y-76629790D01*
X135316164Y-76619000D01*
X134543835Y-76619000D01*
X134469784Y-76629790D01*
X134469778Y-76629791D01*
X134387226Y-76670149D01*
X134305117Y-76689401D01*
X134222787Y-76671120D01*
X134156542Y-76618928D01*
X134119502Y-76543161D01*
X134114499Y-76499904D01*
X134114500Y-75889251D01*
X134114500Y-74955938D01*
X134114500Y-74955937D01*
X134114499Y-74886753D01*
X134133266Y-74804532D01*
X134170000Y-74752759D01*
X134572757Y-74350003D01*
X134644166Y-74305134D01*
X134706754Y-74294500D01*
X137973246Y-74294500D01*
X138055467Y-74313266D01*
X138107243Y-74350003D01*
X139699997Y-75942757D01*
X139744866Y-76014166D01*
X139755500Y-76076754D01*
X139755500Y-76790000D01*
X139736734Y-76872221D01*
X139684151Y-76938157D01*
X139608168Y-76974749D01*
X139566000Y-76979500D01*
X139530726Y-76979500D01*
X139500309Y-76982352D01*
X139500299Y-76982354D01*
X139372121Y-77027205D01*
X139372120Y-77027206D01*
X139372119Y-77027206D01*
X139372118Y-77027207D01*
X139342190Y-77049294D01*
X139262851Y-77107848D01*
X139262848Y-77107851D01*
X139182206Y-77217120D01*
X139182205Y-77217121D01*
X139137354Y-77345299D01*
X139137352Y-77345309D01*
X139134500Y-77375726D01*
X139134500Y-78284273D01*
X139137352Y-78314690D01*
X139137354Y-78314700D01*
X139182205Y-78442878D01*
X139182207Y-78442882D01*
X139238537Y-78519208D01*
X139262848Y-78552148D01*
X139262850Y-78552150D01*
X139372118Y-78632793D01*
X139500301Y-78677646D01*
X139500306Y-78677646D01*
X139500309Y-78677647D01*
X139515517Y-78679073D01*
X139530728Y-78680499D01*
X139530731Y-78680500D01*
X139530734Y-78680500D01*
X140889269Y-78680500D01*
X140889270Y-78680499D01*
X140910191Y-78678537D01*
X140919690Y-78677647D01*
X140919691Y-78677646D01*
X140919699Y-78677646D01*
X141047882Y-78632793D01*
X141157150Y-78552150D01*
X141237793Y-78442882D01*
X141282646Y-78314699D01*
X141285500Y-78284266D01*
X141285500Y-77375734D01*
X141282646Y-77345301D01*
X141237793Y-77217118D01*
X141157150Y-77107850D01*
X141157148Y-77107848D01*
X141124208Y-77083537D01*
X141047882Y-77027207D01*
X141047878Y-77027205D01*
X140919700Y-76982354D01*
X140919690Y-76982352D01*
X140889273Y-76979500D01*
X140889266Y-76979500D01*
X140854000Y-76979500D01*
X140771779Y-76960734D01*
X140705843Y-76908151D01*
X140669251Y-76832168D01*
X140664500Y-76790000D01*
X140664500Y-76108722D01*
X142101500Y-76108722D01*
X142104315Y-76144497D01*
X142104316Y-76144500D01*
X142148792Y-76297588D01*
X142148793Y-76297589D01*
X142229945Y-76434811D01*
X142229947Y-76434814D01*
X142342685Y-76547552D01*
X142342688Y-76547554D01*
X142479910Y-76628706D01*
X142479911Y-76628707D01*
X142632999Y-76673183D01*
X142633002Y-76673184D01*
X142668777Y-76676000D01*
X142940999Y-76676000D01*
X142941000Y-76675999D01*
X143449000Y-76675999D01*
X143449001Y-76676000D01*
X143721223Y-76676000D01*
X143756997Y-76673184D01*
X143757000Y-76673183D01*
X143910088Y-76628707D01*
X143910089Y-76628706D01*
X144047311Y-76547554D01*
X144047314Y-76547552D01*
X144160052Y-76434814D01*
X144160054Y-76434811D01*
X144241206Y-76297589D01*
X144241207Y-76297588D01*
X144285683Y-76144500D01*
X144285684Y-76144497D01*
X144288500Y-76108722D01*
X144288500Y-76099258D01*
X145257000Y-76099258D01*
X145259854Y-76129701D01*
X145304704Y-76257876D01*
X145304708Y-76257883D01*
X145385348Y-76367148D01*
X145385350Y-76367150D01*
X145494618Y-76447793D01*
X145494621Y-76447794D01*
X145494623Y-76447795D01*
X145552922Y-76468194D01*
X145622802Y-76492646D01*
X145622807Y-76492646D01*
X145622810Y-76492647D01*
X145632539Y-76493559D01*
X145653235Y-76495500D01*
X146686764Y-76495499D01*
X146717198Y-76492646D01*
X146845382Y-76447793D01*
X146954650Y-76367150D01*
X147035293Y-76257882D01*
X147080146Y-76129698D01*
X147083000Y-76099265D01*
X147083000Y-76064000D01*
X147101766Y-75981779D01*
X147154349Y-75915843D01*
X147230332Y-75879251D01*
X147272500Y-75874500D01*
X148092500Y-75874500D01*
X148174721Y-75893266D01*
X148240657Y-75945849D01*
X148277249Y-76021832D01*
X148282000Y-76064000D01*
X148282000Y-76099273D01*
X148284852Y-76129690D01*
X148284854Y-76129700D01*
X148329705Y-76257878D01*
X148329707Y-76257882D01*
X148386037Y-76334208D01*
X148410348Y-76367148D01*
X148410350Y-76367150D01*
X148519618Y-76447793D01*
X148647801Y-76492646D01*
X148647806Y-76492646D01*
X148647809Y-76492647D01*
X148663017Y-76494073D01*
X148678228Y-76495499D01*
X148678231Y-76495500D01*
X148678234Y-76495500D01*
X149586769Y-76495500D01*
X149586770Y-76495499D01*
X149607691Y-76493537D01*
X149617190Y-76492647D01*
X149617191Y-76492646D01*
X149617199Y-76492646D01*
X149745382Y-76447793D01*
X149854650Y-76367150D01*
X149935293Y-76257882D01*
X149980146Y-76129699D01*
X149983000Y-76099266D01*
X149983000Y-74740734D01*
X149980146Y-74710301D01*
X149935293Y-74582118D01*
X149854650Y-74472850D01*
X149854648Y-74472848D01*
X149821708Y-74448537D01*
X149745382Y-74392207D01*
X149745378Y-74392205D01*
X149617200Y-74347354D01*
X149617190Y-74347352D01*
X149586773Y-74344500D01*
X149586766Y-74344500D01*
X148678234Y-74344500D01*
X148678226Y-74344500D01*
X148647809Y-74347352D01*
X148647799Y-74347354D01*
X148519621Y-74392205D01*
X148519620Y-74392206D01*
X148519619Y-74392206D01*
X148519618Y-74392207D01*
X148493340Y-74411601D01*
X148410351Y-74472848D01*
X148410348Y-74472851D01*
X148359013Y-74542410D01*
X148329709Y-74582116D01*
X148329706Y-74582120D01*
X148329705Y-74582121D01*
X148284854Y-74710299D01*
X148284852Y-74710309D01*
X148282000Y-74740726D01*
X148282000Y-74776000D01*
X148263234Y-74858221D01*
X148210651Y-74924157D01*
X148134668Y-74960749D01*
X148092500Y-74965500D01*
X147272499Y-74965500D01*
X147190278Y-74946734D01*
X147124342Y-74894151D01*
X147087750Y-74818168D01*
X147082999Y-74776000D01*
X147082999Y-74740741D01*
X147082999Y-74740736D01*
X147080146Y-74710302D01*
X147074967Y-74695502D01*
X147035295Y-74582123D01*
X147035294Y-74582121D01*
X147035293Y-74582118D01*
X146954650Y-74472850D01*
X146954648Y-74472848D01*
X146871660Y-74411601D01*
X146845382Y-74392207D01*
X146845380Y-74392206D01*
X146845376Y-74392204D01*
X146717199Y-74347354D01*
X146717189Y-74347352D01*
X146686769Y-74344500D01*
X145653241Y-74344500D01*
X145622798Y-74347354D01*
X145494623Y-74392204D01*
X145494616Y-74392208D01*
X145385351Y-74472848D01*
X145385348Y-74472851D01*
X145304708Y-74582116D01*
X145304704Y-74582123D01*
X145259854Y-74710300D01*
X145259852Y-74710310D01*
X145257000Y-74740727D01*
X145257000Y-76099258D01*
X144288500Y-76099258D01*
X144288500Y-75674001D01*
X144288499Y-75674000D01*
X143449001Y-75674000D01*
X143449000Y-75674001D01*
X143449000Y-76675999D01*
X142941000Y-76675999D01*
X142941000Y-75674001D01*
X142940999Y-75674000D01*
X142101501Y-75674000D01*
X142101500Y-75674001D01*
X142101500Y-76108722D01*
X140664500Y-76108722D01*
X140664500Y-75840852D01*
X140665095Y-75830248D01*
X140669313Y-75792814D01*
X140658482Y-75735576D01*
X140657900Y-75732157D01*
X140649214Y-75674521D01*
X140649212Y-75674518D01*
X140646684Y-75666320D01*
X140643841Y-75658193D01*
X140616628Y-75606703D01*
X140615031Y-75603539D01*
X140600426Y-75573212D01*
X140589767Y-75551079D01*
X140589764Y-75551076D01*
X140584919Y-75543970D01*
X140579822Y-75537064D01*
X140579821Y-75537061D01*
X140579818Y-75537058D01*
X140538647Y-75495886D01*
X140536189Y-75493335D01*
X140496577Y-75450644D01*
X140485077Y-75441473D01*
X140477148Y-75434387D01*
X140208760Y-75165999D01*
X142101500Y-75165999D01*
X142101501Y-75166000D01*
X142940999Y-75166000D01*
X142941000Y-75165999D01*
X143449000Y-75165999D01*
X143449001Y-75166000D01*
X144288499Y-75166000D01*
X144288500Y-75165999D01*
X144288500Y-74731277D01*
X144285684Y-74695502D01*
X144285683Y-74695499D01*
X144241207Y-74542411D01*
X144241206Y-74542410D01*
X144160054Y-74405188D01*
X144160052Y-74405185D01*
X144047314Y-74292447D01*
X144047311Y-74292445D01*
X143910089Y-74211293D01*
X143910088Y-74211292D01*
X143757000Y-74166816D01*
X143756997Y-74166815D01*
X143721223Y-74164000D01*
X143449001Y-74164000D01*
X143449000Y-74164001D01*
X143449000Y-75165999D01*
X142941000Y-75165999D01*
X142941000Y-74164001D01*
X142940999Y-74164000D01*
X142668777Y-74164000D01*
X142633002Y-74166815D01*
X142632999Y-74166816D01*
X142479911Y-74211292D01*
X142479910Y-74211293D01*
X142342688Y-74292445D01*
X142342685Y-74292447D01*
X142229947Y-74405185D01*
X142229945Y-74405188D01*
X142148793Y-74542410D01*
X142148792Y-74542411D01*
X142104316Y-74695499D01*
X142104315Y-74695502D01*
X142101500Y-74731277D01*
X142101500Y-75165999D01*
X140208760Y-75165999D01*
X138583195Y-73540434D01*
X138576110Y-73532506D01*
X138575215Y-73531384D01*
X138552631Y-73503064D01*
X138504511Y-73470256D01*
X138501624Y-73468207D01*
X138456583Y-73434967D01*
X138454773Y-73433631D01*
X138454771Y-73433630D01*
X138447184Y-73429619D01*
X138439430Y-73425885D01*
X138439428Y-73425884D01*
X138439425Y-73425883D01*
X138439423Y-73425882D01*
X138383799Y-73408725D01*
X138380432Y-73407617D01*
X138325448Y-73388377D01*
X138317040Y-73386785D01*
X138308508Y-73385500D01*
X138308505Y-73385500D01*
X138250269Y-73385500D01*
X138246764Y-73385434D01*
X138188537Y-73383256D01*
X138188536Y-73383256D01*
X138188534Y-73383256D01*
X138173905Y-73384904D01*
X138163291Y-73385500D01*
X134470860Y-73385500D01*
X134460254Y-73384904D01*
X134422814Y-73380686D01*
X134422812Y-73380686D01*
X134365585Y-73391514D01*
X134362093Y-73392107D01*
X134304515Y-73400786D01*
X134296334Y-73403309D01*
X134288193Y-73406158D01*
X134236701Y-73433372D01*
X134233542Y-73434967D01*
X134181076Y-73460234D01*
X134173962Y-73465084D01*
X134167062Y-73470177D01*
X134125884Y-73511354D01*
X134123335Y-73513810D01*
X134080640Y-73553425D01*
X134071464Y-73564931D01*
X134064383Y-73572855D01*
X133527242Y-74109997D01*
X133455833Y-74154866D01*
X133393245Y-74165500D01*
X130130852Y-74165500D01*
X130120247Y-74164904D01*
X130082814Y-74160687D01*
X130082809Y-74160687D01*
X130025574Y-74171516D01*
X130022083Y-74172109D01*
X129964520Y-74180785D01*
X129956296Y-74183322D01*
X129948193Y-74186158D01*
X129896705Y-74213370D01*
X129893545Y-74214965D01*
X129841077Y-74240233D01*
X129833974Y-74245075D01*
X129827061Y-74250178D01*
X129785884Y-74291354D01*
X129783335Y-74293810D01*
X129740640Y-74333425D01*
X129731464Y-74344931D01*
X129724383Y-74352855D01*
X128770432Y-75306804D01*
X128762506Y-75313888D01*
X128733064Y-75337367D01*
X128700255Y-75385489D01*
X128698206Y-75388376D01*
X128663630Y-75435227D01*
X128659596Y-75442859D01*
X128655884Y-75450568D01*
X128638720Y-75506216D01*
X128637612Y-75509582D01*
X128618378Y-75564548D01*
X128616783Y-75572977D01*
X128615499Y-75581494D01*
X128615499Y-75639710D01*
X128615433Y-75643249D01*
X128613256Y-75701464D01*
X128614903Y-75716082D01*
X128615499Y-75726696D01*
X128615499Y-84299138D01*
X128614903Y-84309751D01*
X128610686Y-84347183D01*
X128621513Y-84404407D01*
X128622106Y-84407898D01*
X128630785Y-84465478D01*
X128633317Y-84473687D01*
X128636158Y-84481805D01*
X128663364Y-84533281D01*
X128664960Y-84536443D01*
X128690234Y-84588924D01*
X128695072Y-84596019D01*
X128700177Y-84602937D01*
X128741364Y-84644124D01*
X128743822Y-84646676D01*
X128783424Y-84689357D01*
X128794928Y-84698531D01*
X128802856Y-84705616D01*
X130236803Y-86139564D01*
X130243889Y-86147493D01*
X130267369Y-86176936D01*
X130315498Y-86209749D01*
X130318376Y-86211792D01*
X130357246Y-86240479D01*
X130365227Y-86246369D01*
X130365229Y-86246369D01*
X130372831Y-86250387D01*
X130380569Y-86254114D01*
X130380572Y-86254116D01*
X130436286Y-86271301D01*
X130439568Y-86272381D01*
X130494549Y-86291620D01*
X130494555Y-86291620D01*
X130503047Y-86293227D01*
X130511492Y-86294500D01*
X130511495Y-86294500D01*
X130569757Y-86294500D01*
X130573261Y-86294565D01*
X130631462Y-86296743D01*
X130631472Y-86296740D01*
X130646073Y-86295096D01*
X130656690Y-86294500D01*
X131182329Y-86294500D01*
X131264550Y-86313266D01*
X131330486Y-86365849D01*
X131361195Y-86421412D01*
X131372205Y-86452879D01*
X131372206Y-86452881D01*
X131372207Y-86452882D01*
X131384945Y-86470141D01*
X131452848Y-86562148D01*
X131452850Y-86562150D01*
X131562118Y-86642793D01*
X131690301Y-86687646D01*
X131690306Y-86687646D01*
X131690309Y-86687647D01*
X131705517Y-86689073D01*
X131720728Y-86690499D01*
X131720731Y-86690500D01*
X131720734Y-86690500D01*
X133079269Y-86690500D01*
X133079270Y-86690499D01*
X133100191Y-86688537D01*
X133109690Y-86687647D01*
X133109691Y-86687646D01*
X133109699Y-86687646D01*
X133237882Y-86642793D01*
X133347150Y-86562150D01*
X133427793Y-86452882D01*
X133445803Y-86401413D01*
X133490672Y-86330004D01*
X133562080Y-86285134D01*
X133624669Y-86274500D01*
X133960000Y-86274500D01*
X134042221Y-86293266D01*
X134108157Y-86345849D01*
X134144749Y-86421832D01*
X134149500Y-86464000D01*
X134149500Y-86499273D01*
X134152352Y-86529690D01*
X134152354Y-86529700D01*
X134197205Y-86657878D01*
X134197207Y-86657882D01*
X134253537Y-86734208D01*
X134277848Y-86767148D01*
X134277850Y-86767150D01*
X134387118Y-86847793D01*
X134515301Y-86892646D01*
X134515306Y-86892646D01*
X134515309Y-86892647D01*
X134530517Y-86894073D01*
X134545728Y-86895499D01*
X134545731Y-86895500D01*
X134545734Y-86895500D01*
X135454269Y-86895500D01*
X135454270Y-86895499D01*
X135475191Y-86893537D01*
X135484690Y-86892647D01*
X135484691Y-86892646D01*
X135484699Y-86892646D01*
X135612882Y-86847793D01*
X135722150Y-86767150D01*
X135802793Y-86657882D01*
X135847646Y-86529699D01*
X135850500Y-86499266D01*
X135850500Y-85140734D01*
X135847646Y-85110301D01*
X135802793Y-84982118D01*
X135722150Y-84872850D01*
X135722148Y-84872848D01*
X135685067Y-84845482D01*
X135612882Y-84792207D01*
X135612878Y-84792205D01*
X135484700Y-84747354D01*
X135484690Y-84747352D01*
X135454273Y-84744500D01*
X135454266Y-84744500D01*
X134545734Y-84744500D01*
X134545726Y-84744500D01*
X134515309Y-84747352D01*
X134515299Y-84747354D01*
X134387121Y-84792205D01*
X134387120Y-84792206D01*
X134387119Y-84792206D01*
X134387118Y-84792207D01*
X134357190Y-84814294D01*
X134277851Y-84872848D01*
X134277848Y-84872851D01*
X134197206Y-84982120D01*
X134197205Y-84982121D01*
X134152354Y-85110299D01*
X134152352Y-85110309D01*
X134149500Y-85140726D01*
X134149500Y-85176000D01*
X134130734Y-85258221D01*
X134078151Y-85324157D01*
X134002168Y-85360749D01*
X133960000Y-85365500D01*
X133610673Y-85365500D01*
X133528452Y-85346734D01*
X133462516Y-85294151D01*
X133431808Y-85238589D01*
X133427796Y-85227124D01*
X133427794Y-85227121D01*
X133427793Y-85227118D01*
X133347150Y-85117850D01*
X133347148Y-85117848D01*
X133314208Y-85093537D01*
X133237882Y-85037207D01*
X133237878Y-85037205D01*
X133109700Y-84992354D01*
X133109690Y-84992352D01*
X133079273Y-84989500D01*
X133079266Y-84989500D01*
X131720734Y-84989500D01*
X131720726Y-84989500D01*
X131690309Y-84992352D01*
X131690299Y-84992354D01*
X131562121Y-85037205D01*
X131562120Y-85037206D01*
X131562119Y-85037206D01*
X131562118Y-85037207D01*
X131542387Y-85051769D01*
X131452851Y-85117848D01*
X131452848Y-85117851D01*
X131394294Y-85197190D01*
X131372207Y-85227118D01*
X131372206Y-85227120D01*
X131372205Y-85227120D01*
X131361195Y-85258588D01*
X131316326Y-85329996D01*
X131244917Y-85374866D01*
X131182329Y-85385500D01*
X130846754Y-85385500D01*
X130764533Y-85366734D01*
X130712757Y-85329997D01*
X129580003Y-84197242D01*
X129535134Y-84125833D01*
X129524500Y-84063245D01*
X129524500Y-75916754D01*
X129543266Y-75834533D01*
X129580003Y-75782757D01*
X130232758Y-75130003D01*
X130304167Y-75085134D01*
X130366755Y-75074500D01*
X133016000Y-75074500D01*
X133098221Y-75093266D01*
X133164157Y-75145849D01*
X133200749Y-75221832D01*
X133205500Y-75264000D01*
X133205499Y-76718901D01*
X133186733Y-76801122D01*
X133134150Y-76867058D01*
X133058167Y-76903650D01*
X132973831Y-76903650D01*
X132897848Y-76867058D01*
X132885753Y-76856250D01*
X132818230Y-76811132D01*
X132759748Y-76799500D01*
X132020252Y-76799500D01*
X131961769Y-76811132D01*
X131895449Y-76855446D01*
X131895446Y-76855449D01*
X131851132Y-76921769D01*
X131839500Y-76980252D01*
X131839500Y-78619747D01*
X131851132Y-78678229D01*
X131851132Y-78678230D01*
X131851133Y-78678231D01*
X131895448Y-78744552D01*
X131895449Y-78744552D01*
X131905817Y-78760069D01*
X131903954Y-78761313D01*
X131934865Y-78810508D01*
X131945499Y-78873096D01*
X131945499Y-80328574D01*
X131945500Y-81700000D01*
X131926734Y-81782221D01*
X131874151Y-81848157D01*
X131798168Y-81884749D01*
X131756000Y-81889500D01*
X131720726Y-81889500D01*
X131690309Y-81892352D01*
X131690299Y-81892354D01*
X131562121Y-81937205D01*
X131562120Y-81937206D01*
X131562119Y-81937206D01*
X131562118Y-81937207D01*
X131532190Y-81959294D01*
X131452851Y-82017848D01*
X131452848Y-82017851D01*
X131372206Y-82127120D01*
X131372205Y-82127121D01*
X131327354Y-82255299D01*
X131327352Y-82255309D01*
X131324500Y-82285726D01*
X131324500Y-83194273D01*
X131327352Y-83224690D01*
X131327354Y-83224700D01*
X131372205Y-83352878D01*
X131372207Y-83352882D01*
X131398403Y-83388376D01*
X131452848Y-83462148D01*
X131452850Y-83462150D01*
X131562118Y-83542793D01*
X131690301Y-83587646D01*
X131690306Y-83587646D01*
X131690309Y-83587647D01*
X131705517Y-83589073D01*
X131720728Y-83590499D01*
X131720731Y-83590500D01*
X131720734Y-83590500D01*
X133079269Y-83590500D01*
X133079270Y-83590499D01*
X133100191Y-83588537D01*
X133109690Y-83587647D01*
X133109691Y-83587646D01*
X133109699Y-83587646D01*
X133237882Y-83542793D01*
X133347150Y-83462150D01*
X133427793Y-83352882D01*
X133438804Y-83321412D01*
X133483674Y-83250004D01*
X133555083Y-83205134D01*
X133617671Y-83194500D01*
X144079148Y-83194500D01*
X144089751Y-83195095D01*
X144127186Y-83199313D01*
X144184447Y-83188477D01*
X144187868Y-83187896D01*
X144245479Y-83179214D01*
X144245487Y-83179209D01*
X144253709Y-83176674D01*
X144261802Y-83173841D01*
X144261807Y-83173841D01*
X144313320Y-83146614D01*
X144316436Y-83145041D01*
X144368921Y-83119767D01*
X144368925Y-83119763D01*
X144376018Y-83114926D01*
X144382930Y-83109825D01*
X144382940Y-83109820D01*
X144424135Y-83068623D01*
X144426625Y-83066224D01*
X144469356Y-83026577D01*
X144469361Y-83026566D01*
X144478521Y-83015082D01*
X144485601Y-83007157D01*
X147612756Y-79880003D01*
X147684166Y-79835134D01*
X147746754Y-79824500D01*
X155789993Y-79824500D01*
X155872214Y-79843266D01*
X155938150Y-79895849D01*
X155974742Y-79971832D01*
X155974742Y-80056168D01*
X155938150Y-80132151D01*
X155923990Y-80147997D01*
X155833209Y-80238777D01*
X155707472Y-80422329D01*
X155707472Y-80422330D01*
X155617607Y-80625856D01*
X155617606Y-80625859D01*
X155580557Y-80783386D01*
X155543464Y-80859126D01*
X155477183Y-80911272D01*
X155396090Y-80929500D01*
X149956852Y-80929500D01*
X149946247Y-80928904D01*
X149908814Y-80924687D01*
X149908809Y-80924687D01*
X149851574Y-80935516D01*
X149848083Y-80936109D01*
X149790520Y-80944785D01*
X149782296Y-80947322D01*
X149774193Y-80950158D01*
X149722705Y-80977370D01*
X149719545Y-80978965D01*
X149667077Y-81004233D01*
X149659974Y-81009075D01*
X149653061Y-81014178D01*
X149611884Y-81055354D01*
X149609335Y-81057810D01*
X149566640Y-81097425D01*
X149557464Y-81108931D01*
X149550383Y-81116855D01*
X147360432Y-83306804D01*
X147352506Y-83313888D01*
X147323064Y-83337367D01*
X147290255Y-83385489D01*
X147288206Y-83388376D01*
X147253630Y-83435227D01*
X147249596Y-83442859D01*
X147245884Y-83450568D01*
X147228720Y-83506216D01*
X147227612Y-83509582D01*
X147208377Y-83564552D01*
X147206783Y-83572970D01*
X147205500Y-83581492D01*
X147205500Y-83639730D01*
X147205434Y-83643234D01*
X147204517Y-83667742D01*
X147203255Y-83701462D01*
X147204903Y-83716083D01*
X147205500Y-83726703D01*
X147205500Y-84763261D01*
X147186734Y-84845482D01*
X147134151Y-84911418D01*
X147088527Y-84938333D01*
X147081769Y-84941132D01*
X147015449Y-84985446D01*
X147015446Y-84985449D01*
X146971132Y-85051769D01*
X146959500Y-85110252D01*
X146959500Y-87449747D01*
X146971132Y-87508230D01*
X147015446Y-87574550D01*
X147015448Y-87574552D01*
X147081769Y-87618867D01*
X147140252Y-87630500D01*
X148179748Y-87630500D01*
X148238231Y-87618867D01*
X148304552Y-87574552D01*
X148348867Y-87508231D01*
X148357235Y-87466164D01*
X149979000Y-87466164D01*
X149989790Y-87540215D01*
X149989791Y-87540221D01*
X150045632Y-87654445D01*
X150045634Y-87654448D01*
X150135551Y-87744365D01*
X150135554Y-87744367D01*
X150249778Y-87800208D01*
X150249784Y-87800209D01*
X150323835Y-87810999D01*
X150323845Y-87811000D01*
X150605999Y-87811000D01*
X150606000Y-87810999D01*
X150606000Y-86534001D01*
X150605999Y-86534000D01*
X151114000Y-86534000D01*
X151114000Y-87810999D01*
X151114001Y-87811000D01*
X151396155Y-87811000D01*
X151396164Y-87810999D01*
X151470215Y-87800209D01*
X151470221Y-87800208D01*
X151584445Y-87744367D01*
X151584448Y-87744365D01*
X151674365Y-87654448D01*
X151674367Y-87654445D01*
X151730208Y-87540221D01*
X151730209Y-87540215D01*
X151740999Y-87466164D01*
X151741000Y-87466154D01*
X151741000Y-86534001D01*
X151740999Y-86534000D01*
X151114000Y-86534000D01*
X150605999Y-86534000D01*
X149979001Y-86534000D01*
X149979000Y-86534001D01*
X149979000Y-87466164D01*
X148357235Y-87466164D01*
X148360500Y-87449748D01*
X148360500Y-86025999D01*
X149979000Y-86025999D01*
X149979001Y-86026000D01*
X150605999Y-86026000D01*
X150606000Y-86025999D01*
X151114000Y-86025999D01*
X151114001Y-86026000D01*
X151740999Y-86026000D01*
X151741000Y-86025999D01*
X151741000Y-85093845D01*
X151740999Y-85093835D01*
X151730209Y-85019784D01*
X151730208Y-85019778D01*
X151674367Y-84905554D01*
X151674365Y-84905551D01*
X151584448Y-84815634D01*
X151584445Y-84815632D01*
X151470221Y-84759791D01*
X151470215Y-84759790D01*
X151396164Y-84749000D01*
X151114001Y-84749000D01*
X151114000Y-84749001D01*
X151114000Y-86025999D01*
X150606000Y-86025999D01*
X150606000Y-86025998D01*
X150606000Y-84749001D01*
X150605999Y-84749000D01*
X150323835Y-84749000D01*
X150249784Y-84759790D01*
X150249778Y-84759791D01*
X150135554Y-84815632D01*
X150135551Y-84815634D01*
X150045634Y-84905551D01*
X150045632Y-84905554D01*
X149989791Y-85019778D01*
X149989790Y-85019784D01*
X149979000Y-85093835D01*
X149979000Y-86025999D01*
X148360500Y-86025999D01*
X148360500Y-85110252D01*
X148348867Y-85051769D01*
X148339136Y-85037206D01*
X148304553Y-84985449D01*
X148304550Y-84985446D01*
X148238230Y-84941132D01*
X148231473Y-84938333D01*
X148162695Y-84889527D01*
X148121904Y-84815713D01*
X148114500Y-84763261D01*
X148114500Y-83916754D01*
X148133266Y-83834533D01*
X148170003Y-83782757D01*
X150058758Y-81894003D01*
X150130167Y-81849134D01*
X150192755Y-81838500D01*
X153310500Y-81838500D01*
X153392721Y-81857266D01*
X153458657Y-81909849D01*
X153495249Y-81985832D01*
X153500000Y-82028000D01*
X153500000Y-85099139D01*
X153481234Y-85181360D01*
X153444497Y-85233136D01*
X152770157Y-85907474D01*
X152760832Y-85915653D01*
X152735272Y-85935265D01*
X152735269Y-85935269D01*
X152711868Y-85965765D01*
X152711865Y-85965769D01*
X152711863Y-85965770D01*
X152642061Y-86056739D01*
X152642058Y-86056744D01*
X152583466Y-86198199D01*
X152563482Y-86350000D01*
X152567689Y-86381953D01*
X152568500Y-86394333D01*
X152568500Y-87610640D01*
X152549734Y-87692861D01*
X152512997Y-87744637D01*
X151604637Y-88652997D01*
X151533228Y-88697866D01*
X151470640Y-88708500D01*
X148424334Y-88708500D01*
X148411957Y-88707689D01*
X148380000Y-88703482D01*
X148379999Y-88703482D01*
X148228199Y-88723466D01*
X148086742Y-88782059D01*
X148000404Y-88848309D01*
X147965272Y-88875266D01*
X147965266Y-88875272D01*
X147945646Y-88900839D01*
X147937469Y-88910162D01*
X147280157Y-89567474D01*
X147270832Y-89575653D01*
X147245272Y-89595265D01*
X147245269Y-89595269D01*
X147221868Y-89625765D01*
X147221865Y-89625769D01*
X147221863Y-89625770D01*
X147152061Y-89716739D01*
X147152058Y-89716744D01*
X147093466Y-89858199D01*
X147073482Y-90010000D01*
X147077689Y-90041953D01*
X147078500Y-90054333D01*
X147078500Y-90543902D01*
X147059734Y-90626123D01*
X147022997Y-90677899D01*
X147015446Y-90685449D01*
X146971132Y-90751769D01*
X146959500Y-90810252D01*
X146959500Y-91209000D01*
X146940734Y-91291221D01*
X146888151Y-91357157D01*
X146812168Y-91393749D01*
X146770000Y-91398500D01*
X145923759Y-91398500D01*
X145841538Y-91379734D01*
X145775602Y-91327151D01*
X145771287Y-91321528D01*
X145702151Y-91227851D01*
X145702148Y-91227848D01*
X145669208Y-91203537D01*
X145592882Y-91147207D01*
X145592878Y-91147205D01*
X145464700Y-91102354D01*
X145464690Y-91102352D01*
X145434273Y-91099500D01*
X145434266Y-91099500D01*
X144025734Y-91099500D01*
X144025726Y-91099500D01*
X143995309Y-91102352D01*
X143995299Y-91102354D01*
X143867121Y-91147205D01*
X143867120Y-91147206D01*
X143867119Y-91147206D01*
X143867118Y-91147207D01*
X143837190Y-91169294D01*
X143757851Y-91227848D01*
X143757848Y-91227851D01*
X143677206Y-91337120D01*
X143677205Y-91337121D01*
X143632354Y-91465299D01*
X143632352Y-91465309D01*
X143629500Y-91495726D01*
X143629500Y-92429273D01*
X143632352Y-92459690D01*
X143632354Y-92459700D01*
X143677205Y-92587878D01*
X143677207Y-92587882D01*
X143710394Y-92632849D01*
X143757848Y-92697148D01*
X143757850Y-92697150D01*
X143867118Y-92777793D01*
X143995301Y-92822646D01*
X143995306Y-92822646D01*
X143995309Y-92822647D01*
X144010517Y-92824073D01*
X144025728Y-92825499D01*
X144025731Y-92825500D01*
X144025734Y-92825500D01*
X145434269Y-92825500D01*
X145434270Y-92825499D01*
X145455191Y-92823537D01*
X145464690Y-92822647D01*
X145464691Y-92822646D01*
X145464699Y-92822646D01*
X145592882Y-92777793D01*
X145702150Y-92697150D01*
X145745456Y-92638471D01*
X145809379Y-92583461D01*
X145890841Y-92561633D01*
X145897928Y-92561500D01*
X146770000Y-92561500D01*
X146852221Y-92580266D01*
X146918157Y-92632849D01*
X146954749Y-92708832D01*
X146959500Y-92751000D01*
X146959500Y-93149747D01*
X146971132Y-93208230D01*
X147015446Y-93274550D01*
X147015448Y-93274552D01*
X147081769Y-93318867D01*
X147140252Y-93330500D01*
X148179748Y-93330500D01*
X148238231Y-93318867D01*
X148304552Y-93274552D01*
X148348867Y-93208231D01*
X148360500Y-93149748D01*
X148360500Y-93149747D01*
X150159500Y-93149747D01*
X150171132Y-93208230D01*
X150215446Y-93274550D01*
X150215448Y-93274552D01*
X150281769Y-93318867D01*
X150340252Y-93330500D01*
X151379748Y-93330500D01*
X151438231Y-93318867D01*
X151504552Y-93274552D01*
X151548867Y-93208231D01*
X151560500Y-93149748D01*
X151560500Y-90810252D01*
X151548867Y-90751769D01*
X151504552Y-90685448D01*
X151504550Y-90685446D01*
X151438230Y-90641132D01*
X151379748Y-90629500D01*
X150340252Y-90629500D01*
X150281769Y-90641132D01*
X150215449Y-90685446D01*
X150215446Y-90685449D01*
X150171132Y-90751769D01*
X150159500Y-90810252D01*
X150159500Y-93149747D01*
X148360500Y-93149747D01*
X148360500Y-90810252D01*
X148348867Y-90751769D01*
X148304552Y-90685448D01*
X148297003Y-90677899D01*
X148252134Y-90606490D01*
X148241500Y-90543902D01*
X148241500Y-90329359D01*
X148260266Y-90247138D01*
X148297003Y-90195362D01*
X148565362Y-89927003D01*
X148636771Y-89882134D01*
X148699359Y-89871500D01*
X151745666Y-89871500D01*
X151758042Y-89872310D01*
X151790000Y-89876518D01*
X151941802Y-89856533D01*
X152083259Y-89797940D01*
X152174231Y-89728135D01*
X152174231Y-89728133D01*
X152184500Y-89720255D01*
X152184510Y-89720246D01*
X152204731Y-89704731D01*
X152224349Y-89679162D01*
X152232518Y-89669846D01*
X153176503Y-88725862D01*
X153247912Y-88680993D01*
X153331717Y-88671551D01*
X153411320Y-88699405D01*
X153470954Y-88759039D01*
X153498808Y-88838642D01*
X153500000Y-88859859D01*
X153500000Y-94418500D01*
X153481234Y-94500721D01*
X153428651Y-94566657D01*
X153352668Y-94603249D01*
X153310500Y-94608000D01*
X142454000Y-94608000D01*
X142371779Y-94589234D01*
X142305843Y-94536651D01*
X142269251Y-94460668D01*
X142264500Y-94418500D01*
X142264500Y-89560850D01*
X142265095Y-89550244D01*
X142269313Y-89512814D01*
X142258488Y-89455608D01*
X142257895Y-89452114D01*
X142249214Y-89394523D01*
X142249214Y-89394521D01*
X142249212Y-89394517D01*
X142246677Y-89386301D01*
X142243840Y-89378190D01*
X142216632Y-89326711D01*
X142215035Y-89323548D01*
X142209680Y-89312429D01*
X142189767Y-89271079D01*
X142189761Y-89271073D01*
X142184922Y-89263973D01*
X142179821Y-89257062D01*
X142179820Y-89257060D01*
X142138634Y-89215874D01*
X142136176Y-89213322D01*
X142096576Y-89170643D01*
X142085077Y-89161473D01*
X142077148Y-89154387D01*
X142014261Y-89091500D01*
X143449001Y-89091500D01*
X143449001Y-89313734D01*
X143451814Y-89349488D01*
X143451813Y-89349488D01*
X143496295Y-89502593D01*
X143496296Y-89502595D01*
X143577449Y-89639816D01*
X143577451Y-89639819D01*
X143690180Y-89752548D01*
X143690183Y-89752550D01*
X143827404Y-89833703D01*
X143827413Y-89833708D01*
X143980498Y-89878183D01*
X143980501Y-89878184D01*
X144016276Y-89880999D01*
X144476000Y-89880999D01*
X144476000Y-89880998D01*
X144984000Y-89880998D01*
X144984001Y-89880999D01*
X145443721Y-89880999D01*
X145443734Y-89880998D01*
X145479488Y-89878186D01*
X145632593Y-89833704D01*
X145632595Y-89833703D01*
X145769816Y-89752550D01*
X145769819Y-89752548D01*
X145882548Y-89639819D01*
X145882550Y-89639816D01*
X145963703Y-89502595D01*
X145963708Y-89502586D01*
X146008183Y-89349501D01*
X146008184Y-89349498D01*
X146011000Y-89313723D01*
X146011000Y-89091501D01*
X146010999Y-89091500D01*
X144984001Y-89091500D01*
X144984000Y-89091501D01*
X144984000Y-89880998D01*
X144476000Y-89880998D01*
X144476000Y-89091501D01*
X144475999Y-89091500D01*
X143449001Y-89091500D01*
X142014261Y-89091500D01*
X141506259Y-88583498D01*
X143449000Y-88583498D01*
X143449001Y-88583500D01*
X144475999Y-88583500D01*
X144476000Y-88583499D01*
X144984000Y-88583499D01*
X144984001Y-88583500D01*
X146010998Y-88583500D01*
X146010999Y-88583499D01*
X146010999Y-88361278D01*
X146010998Y-88361265D01*
X146008185Y-88325511D01*
X146008186Y-88325511D01*
X145963704Y-88172406D01*
X145963703Y-88172404D01*
X145882550Y-88035183D01*
X145882548Y-88035180D01*
X145769819Y-87922451D01*
X145769816Y-87922449D01*
X145632595Y-87841296D01*
X145632586Y-87841291D01*
X145479501Y-87796816D01*
X145479498Y-87796815D01*
X145443724Y-87794000D01*
X144984001Y-87794000D01*
X144984000Y-87794001D01*
X144984000Y-88583499D01*
X144476000Y-88583499D01*
X144476000Y-88583498D01*
X144476000Y-87794000D01*
X144016278Y-87794000D01*
X144016265Y-87794001D01*
X143980511Y-87796813D01*
X143827406Y-87841295D01*
X143827404Y-87841296D01*
X143690183Y-87922449D01*
X143690180Y-87922451D01*
X143577451Y-88035180D01*
X143577449Y-88035183D01*
X143496296Y-88172404D01*
X143496291Y-88172413D01*
X143451816Y-88325498D01*
X143451815Y-88325501D01*
X143449000Y-88361276D01*
X143449000Y-88583498D01*
X141506259Y-88583498D01*
X139006003Y-86083242D01*
X138961134Y-86011833D01*
X138950500Y-85949245D01*
X138950500Y-85140731D01*
X138950499Y-85140726D01*
X138947647Y-85110309D01*
X138947646Y-85110306D01*
X138947646Y-85110301D01*
X138902793Y-84982118D01*
X138822150Y-84872850D01*
X138822148Y-84872848D01*
X138785067Y-84845482D01*
X138712882Y-84792207D01*
X138712878Y-84792205D01*
X138584700Y-84747354D01*
X138584690Y-84747352D01*
X138554273Y-84744500D01*
X138554266Y-84744500D01*
X137645734Y-84744500D01*
X137645726Y-84744500D01*
X137615309Y-84747352D01*
X137615299Y-84747354D01*
X137487121Y-84792205D01*
X137487120Y-84792206D01*
X137487119Y-84792206D01*
X137487118Y-84792207D01*
X137457190Y-84814294D01*
X137377851Y-84872848D01*
X137377848Y-84872851D01*
X137297206Y-84982120D01*
X137297205Y-84982121D01*
X137252354Y-85110299D01*
X137252352Y-85110309D01*
X137249500Y-85140726D01*
X137249500Y-86499273D01*
X137252352Y-86529690D01*
X137252354Y-86529700D01*
X137297205Y-86657878D01*
X137297207Y-86657882D01*
X137353537Y-86734208D01*
X137377848Y-86767148D01*
X137377850Y-86767150D01*
X137487118Y-86847793D01*
X137615301Y-86892646D01*
X137615306Y-86892646D01*
X137615309Y-86892647D01*
X137630517Y-86894073D01*
X137645728Y-86895499D01*
X137645731Y-86895500D01*
X137645734Y-86895500D01*
X138454246Y-86895500D01*
X138536467Y-86914266D01*
X138588243Y-86951003D01*
X141299998Y-89662758D01*
X141344866Y-89734165D01*
X141355500Y-89796753D01*
X141355500Y-94418500D01*
X141336734Y-94500721D01*
X141284151Y-94566657D01*
X141208168Y-94603249D01*
X141166000Y-94608000D01*
X140297045Y-94608000D01*
X140214824Y-94589234D01*
X140148888Y-94536651D01*
X140118179Y-94481088D01*
X140102794Y-94437120D01*
X140022151Y-94327851D01*
X140022148Y-94327848D01*
X139989208Y-94303537D01*
X139912882Y-94247207D01*
X139912878Y-94247205D01*
X139784700Y-94202354D01*
X139784690Y-94202352D01*
X139754273Y-94199500D01*
X139754266Y-94199500D01*
X138345734Y-94199500D01*
X138345726Y-94199500D01*
X138315309Y-94202352D01*
X138315299Y-94202354D01*
X138187121Y-94247205D01*
X138187120Y-94247206D01*
X138187119Y-94247206D01*
X138187118Y-94247207D01*
X138157190Y-94269294D01*
X138077851Y-94327848D01*
X138077848Y-94327851D01*
X137997206Y-94437120D01*
X137997204Y-94437122D01*
X137970449Y-94513587D01*
X137925580Y-94584996D01*
X137854171Y-94629866D01*
X137791583Y-94640500D01*
X136689500Y-94640500D01*
X136607279Y-94621734D01*
X136541343Y-94569151D01*
X136504751Y-94493168D01*
X136500000Y-94451000D01*
X136500000Y-93000001D01*
X136500000Y-93000000D01*
X128500000Y-93000000D01*
X128500000Y-101000000D01*
X128500001Y-101000000D01*
X136499999Y-101000000D01*
X136500000Y-101000000D01*
X136500000Y-98278999D01*
X136518766Y-98196779D01*
X136571349Y-98130843D01*
X136647332Y-98094251D01*
X136689500Y-98089500D01*
X137827081Y-98089500D01*
X137909302Y-98108266D01*
X137975238Y-98160849D01*
X138005945Y-98216410D01*
X138017746Y-98250135D01*
X138022206Y-98262880D01*
X138102848Y-98372148D01*
X138102850Y-98372150D01*
X138212118Y-98452793D01*
X138340301Y-98497646D01*
X138340306Y-98497646D01*
X138340309Y-98497647D01*
X138355517Y-98499073D01*
X138370728Y-98500499D01*
X138370731Y-98500500D01*
X138370734Y-98500500D01*
X139729269Y-98500500D01*
X139729270Y-98500499D01*
X139750191Y-98498537D01*
X139759690Y-98497647D01*
X139759691Y-98497646D01*
X139759699Y-98497646D01*
X139887882Y-98452793D01*
X139997150Y-98372150D01*
X140077793Y-98262882D01*
X140088804Y-98231412D01*
X140133674Y-98160004D01*
X140205083Y-98115134D01*
X140267671Y-98104500D01*
X148133246Y-98104500D01*
X148215467Y-98123266D01*
X148267243Y-98160003D01*
X149790803Y-99683564D01*
X149797889Y-99691493D01*
X149821369Y-99720936D01*
X149869498Y-99753749D01*
X149872376Y-99755792D01*
X149919224Y-99790367D01*
X149919227Y-99790369D01*
X149919229Y-99790369D01*
X149926831Y-99794387D01*
X149934569Y-99798114D01*
X149934572Y-99798116D01*
X149990286Y-99815301D01*
X149993568Y-99816381D01*
X150048549Y-99835620D01*
X150048555Y-99835620D01*
X150057047Y-99837227D01*
X150065492Y-99838500D01*
X150065495Y-99838500D01*
X150123757Y-99838500D01*
X150127261Y-99838565D01*
X150185462Y-99840743D01*
X150185472Y-99840740D01*
X150200073Y-99839096D01*
X150210690Y-99838500D01*
X155396090Y-99838500D01*
X155478311Y-99857266D01*
X155544247Y-99909849D01*
X155580557Y-99984614D01*
X155617606Y-100142140D01*
X155617607Y-100142143D01*
X155707472Y-100345669D01*
X155707472Y-100345670D01*
X155707473Y-100345671D01*
X155833208Y-100529221D01*
X155990529Y-100686542D01*
X156174079Y-100812277D01*
X156377607Y-100902143D01*
X156594183Y-100953081D01*
X156686658Y-100959500D01*
X156686671Y-100959500D01*
X156834829Y-100959500D01*
X156834842Y-100959500D01*
X156927317Y-100953081D01*
X157143893Y-100902143D01*
X157347421Y-100812277D01*
X157530971Y-100686542D01*
X157688292Y-100529221D01*
X157814027Y-100345671D01*
X157857397Y-100247446D01*
X157907774Y-100179813D01*
X157982509Y-100140733D01*
X158066798Y-100137950D01*
X158143948Y-100172015D01*
X158198677Y-100236180D01*
X158204097Y-100247435D01*
X158225420Y-100295726D01*
X158247472Y-100345669D01*
X158247472Y-100345670D01*
X158247473Y-100345671D01*
X158373208Y-100529221D01*
X158530529Y-100686542D01*
X158714079Y-100812277D01*
X158714085Y-100812279D01*
X158714084Y-100812279D01*
X158733291Y-100820760D01*
X158800927Y-100871137D01*
X158840006Y-100945872D01*
X158846250Y-100994114D01*
X158846250Y-101632495D01*
X158827484Y-101714716D01*
X158790747Y-101766492D01*
X158388243Y-102168997D01*
X158316834Y-102213866D01*
X158254246Y-102224500D01*
X157445726Y-102224500D01*
X157415309Y-102227352D01*
X157415299Y-102227354D01*
X157287121Y-102272205D01*
X157287120Y-102272206D01*
X157287119Y-102272206D01*
X157287118Y-102272207D01*
X157269540Y-102285180D01*
X157177851Y-102352848D01*
X157177850Y-102352850D01*
X157110595Y-102443979D01*
X157097206Y-102462120D01*
X157097205Y-102462121D01*
X157052354Y-102590299D01*
X157052352Y-102590309D01*
X157049500Y-102620726D01*
X157049500Y-102656000D01*
X157030734Y-102738221D01*
X156978151Y-102804157D01*
X156902168Y-102840749D01*
X156860000Y-102845500D01*
X156690000Y-102845500D01*
X156607779Y-102826734D01*
X156541843Y-102774151D01*
X156505251Y-102698168D01*
X156500500Y-102656000D01*
X156500500Y-102620731D01*
X156500499Y-102620726D01*
X156497647Y-102590309D01*
X156497646Y-102590306D01*
X156497646Y-102590301D01*
X156452793Y-102462118D01*
X156372150Y-102352850D01*
X156372148Y-102352848D01*
X156331036Y-102322507D01*
X156262882Y-102272207D01*
X156262878Y-102272205D01*
X156134700Y-102227354D01*
X156134690Y-102227352D01*
X156104273Y-102224500D01*
X156104266Y-102224500D01*
X155195734Y-102224500D01*
X155195726Y-102224500D01*
X155165309Y-102227352D01*
X155165299Y-102227354D01*
X155037121Y-102272205D01*
X155037120Y-102272206D01*
X155037119Y-102272206D01*
X155037118Y-102272207D01*
X155019540Y-102285180D01*
X154927851Y-102352848D01*
X154927850Y-102352850D01*
X154860595Y-102443979D01*
X154847206Y-102462120D01*
X154847205Y-102462121D01*
X154802354Y-102590299D01*
X154802352Y-102590309D01*
X154799500Y-102620726D01*
X154799500Y-103979273D01*
X154802352Y-104009690D01*
X154802354Y-104009700D01*
X154847205Y-104137878D01*
X154847207Y-104137882D01*
X154903537Y-104214208D01*
X154927848Y-104247148D01*
X154927850Y-104247150D01*
X155037118Y-104327793D01*
X155165301Y-104372646D01*
X155165306Y-104372646D01*
X155165309Y-104372647D01*
X155180517Y-104374073D01*
X155195728Y-104375499D01*
X155195731Y-104375500D01*
X155195734Y-104375500D01*
X156104269Y-104375500D01*
X156104270Y-104375499D01*
X156125191Y-104373537D01*
X156134690Y-104372647D01*
X156134691Y-104372646D01*
X156134699Y-104372646D01*
X156262882Y-104327793D01*
X156372150Y-104247150D01*
X156452793Y-104137882D01*
X156497646Y-104009699D01*
X156500500Y-103979266D01*
X156500500Y-103944000D01*
X156519266Y-103861779D01*
X156571849Y-103795843D01*
X156647832Y-103759251D01*
X156690000Y-103754500D01*
X156860000Y-103754500D01*
X156942221Y-103773266D01*
X157008157Y-103825849D01*
X157044749Y-103901832D01*
X157049500Y-103944000D01*
X157049500Y-103979273D01*
X157052352Y-104009690D01*
X157052354Y-104009700D01*
X157097205Y-104137878D01*
X157097207Y-104137882D01*
X157153537Y-104214208D01*
X157177848Y-104247148D01*
X157177850Y-104247150D01*
X157287118Y-104327793D01*
X157415301Y-104372646D01*
X157415306Y-104372646D01*
X157415309Y-104372647D01*
X157430517Y-104374073D01*
X157445728Y-104375499D01*
X157445731Y-104375500D01*
X157445734Y-104375500D01*
X158354269Y-104375500D01*
X158354270Y-104375499D01*
X158375191Y-104373537D01*
X158384690Y-104372647D01*
X158384691Y-104372646D01*
X158384699Y-104372646D01*
X158512882Y-104327793D01*
X158622150Y-104247150D01*
X158702793Y-104137882D01*
X158747646Y-104009699D01*
X158750500Y-103979266D01*
X158750500Y-103170752D01*
X158769266Y-103088532D01*
X158806000Y-103036759D01*
X159600324Y-102242434D01*
X159608227Y-102235372D01*
X159637686Y-102211881D01*
X159670510Y-102163733D01*
X159672506Y-102160920D01*
X159707120Y-102114023D01*
X159707121Y-102114017D01*
X159711131Y-102106431D01*
X159714862Y-102098682D01*
X159714866Y-102098678D01*
X159732038Y-102043002D01*
X159733129Y-102039688D01*
X159752371Y-101984701D01*
X159752371Y-101984693D01*
X159753967Y-101976257D01*
X159755248Y-101967758D01*
X159755250Y-101967755D01*
X159755250Y-101909516D01*
X159755315Y-101906014D01*
X159757494Y-101847787D01*
X159757492Y-101847782D01*
X159755846Y-101833155D01*
X159755250Y-101822541D01*
X159755250Y-100994114D01*
X159774016Y-100911893D01*
X159826599Y-100845957D01*
X159868209Y-100820760D01*
X159873508Y-100818419D01*
X159887421Y-100812277D01*
X160070971Y-100686542D01*
X160228292Y-100529221D01*
X160354027Y-100345671D01*
X160397397Y-100247446D01*
X160447774Y-100179813D01*
X160522509Y-100140733D01*
X160606798Y-100137950D01*
X160683948Y-100172015D01*
X160738677Y-100236180D01*
X160744097Y-100247435D01*
X160765420Y-100295726D01*
X160787472Y-100345669D01*
X160787472Y-100345670D01*
X160787473Y-100345671D01*
X160913208Y-100529221D01*
X161070529Y-100686542D01*
X161254079Y-100812277D01*
X161457607Y-100902143D01*
X161674183Y-100953081D01*
X161766658Y-100959500D01*
X161766671Y-100959500D01*
X161914829Y-100959500D01*
X161914842Y-100959500D01*
X162007317Y-100953081D01*
X162223893Y-100902143D01*
X162427421Y-100812277D01*
X162610971Y-100686542D01*
X162768292Y-100529221D01*
X162894027Y-100345671D01*
X162937397Y-100247446D01*
X162987774Y-100179813D01*
X163062509Y-100140733D01*
X163146798Y-100137950D01*
X163223948Y-100172015D01*
X163278677Y-100236180D01*
X163284097Y-100247435D01*
X163305420Y-100295726D01*
X163327472Y-100345669D01*
X163327472Y-100345670D01*
X163327473Y-100345671D01*
X163453208Y-100529221D01*
X163610529Y-100686542D01*
X163794079Y-100812277D01*
X163997607Y-100902143D01*
X164214183Y-100953081D01*
X164306658Y-100959500D01*
X164306671Y-100959500D01*
X164454829Y-100959500D01*
X164454842Y-100959500D01*
X164547317Y-100953081D01*
X164763893Y-100902143D01*
X164967421Y-100812277D01*
X165150971Y-100686542D01*
X165308292Y-100529221D01*
X165434027Y-100345671D01*
X165477397Y-100247446D01*
X165527774Y-100179813D01*
X165602509Y-100140733D01*
X165686798Y-100137950D01*
X165763948Y-100172015D01*
X165818677Y-100236180D01*
X165824097Y-100247435D01*
X165845420Y-100295726D01*
X165867472Y-100345669D01*
X165867472Y-100345670D01*
X165867473Y-100345671D01*
X165993207Y-100529220D01*
X165993209Y-100529222D01*
X166150529Y-100686542D01*
X166256843Y-100759369D01*
X166314070Y-100821317D01*
X166338751Y-100901960D01*
X166339250Y-100915706D01*
X166339250Y-101709890D01*
X166320484Y-101792111D01*
X166283747Y-101843887D01*
X165464637Y-102662997D01*
X165393228Y-102707866D01*
X165330640Y-102718500D01*
X162026962Y-102718500D01*
X161944741Y-102699734D01*
X161878805Y-102647151D01*
X161848096Y-102591587D01*
X161839978Y-102568387D01*
X161802793Y-102462118D01*
X161722150Y-102352850D01*
X161722148Y-102352848D01*
X161681036Y-102322507D01*
X161612882Y-102272207D01*
X161612878Y-102272205D01*
X161484700Y-102227354D01*
X161484690Y-102227352D01*
X161454273Y-102224500D01*
X161454266Y-102224500D01*
X160545734Y-102224500D01*
X160545726Y-102224500D01*
X160515309Y-102227352D01*
X160515299Y-102227354D01*
X160387121Y-102272205D01*
X160387120Y-102272206D01*
X160387119Y-102272206D01*
X160387118Y-102272207D01*
X160369540Y-102285180D01*
X160277851Y-102352848D01*
X160277850Y-102352850D01*
X160210595Y-102443979D01*
X160197206Y-102462120D01*
X160197205Y-102462121D01*
X160152354Y-102590299D01*
X160152352Y-102590309D01*
X160149500Y-102620726D01*
X160149500Y-103429244D01*
X160130734Y-103511465D01*
X160093997Y-103563241D01*
X158617242Y-105039997D01*
X158545833Y-105084866D01*
X158483245Y-105095500D01*
X151166754Y-105095500D01*
X151084533Y-105076734D01*
X151032757Y-105039997D01*
X149546761Y-103554000D01*
X151519001Y-103554000D01*
X151519001Y-103988734D01*
X151521814Y-104024488D01*
X151521813Y-104024488D01*
X151566295Y-104177593D01*
X151566296Y-104177595D01*
X151647449Y-104314816D01*
X151647451Y-104314819D01*
X151760180Y-104427548D01*
X151760183Y-104427550D01*
X151897404Y-104508703D01*
X151897413Y-104508708D01*
X152050498Y-104553183D01*
X152050501Y-104553184D01*
X152086276Y-104555999D01*
X152296000Y-104555999D01*
X152296000Y-103554001D01*
X152295999Y-103554000D01*
X152804000Y-103554000D01*
X152804000Y-104555998D01*
X152804001Y-104555999D01*
X153013721Y-104555999D01*
X153013734Y-104555998D01*
X153049488Y-104553186D01*
X153202593Y-104508704D01*
X153202595Y-104508703D01*
X153339816Y-104427550D01*
X153339819Y-104427548D01*
X153452548Y-104314819D01*
X153452550Y-104314816D01*
X153533703Y-104177595D01*
X153533708Y-104177586D01*
X153578183Y-104024501D01*
X153578184Y-104024498D01*
X153581000Y-103988723D01*
X153581000Y-103554001D01*
X153580999Y-103554000D01*
X152804000Y-103554000D01*
X152295999Y-103554000D01*
X151519001Y-103554000D01*
X149546761Y-103554000D01*
X149460003Y-103467242D01*
X149415134Y-103395833D01*
X149404500Y-103333245D01*
X149404500Y-103045999D01*
X151519000Y-103045999D01*
X151519001Y-103046000D01*
X152295999Y-103046000D01*
X152296000Y-103045999D01*
X152296000Y-103045998D01*
X152804000Y-103045998D01*
X152804001Y-103046000D01*
X153580998Y-103046000D01*
X153580999Y-103045998D01*
X153580999Y-102611278D01*
X153580998Y-102611265D01*
X153578185Y-102575511D01*
X153578186Y-102575511D01*
X153533704Y-102422406D01*
X153533703Y-102422404D01*
X153452550Y-102285183D01*
X153452548Y-102285180D01*
X153339819Y-102172451D01*
X153339816Y-102172449D01*
X153202595Y-102091296D01*
X153202586Y-102091291D01*
X153049501Y-102046816D01*
X153049498Y-102046815D01*
X153013724Y-102044000D01*
X152804001Y-102044000D01*
X152804000Y-102044001D01*
X152804000Y-103045998D01*
X152296000Y-103045998D01*
X152296000Y-102044000D01*
X152086277Y-102044000D01*
X152086265Y-102044001D01*
X152050511Y-102046813D01*
X151897406Y-102091295D01*
X151897404Y-102091296D01*
X151760183Y-102172449D01*
X151760180Y-102172451D01*
X151647451Y-102285180D01*
X151647449Y-102285183D01*
X151566296Y-102422404D01*
X151566291Y-102422413D01*
X151521816Y-102575498D01*
X151521815Y-102575501D01*
X151519000Y-102611276D01*
X151519000Y-103045999D01*
X149404500Y-103045999D01*
X149404500Y-102180852D01*
X149405095Y-102170248D01*
X149409313Y-102132814D01*
X149398482Y-102075576D01*
X149397900Y-102072157D01*
X149389214Y-102014521D01*
X149389212Y-102014518D01*
X149386684Y-102006320D01*
X149383841Y-101998193D01*
X149356618Y-101946685D01*
X149355039Y-101943557D01*
X149329767Y-101891079D01*
X149324922Y-101883973D01*
X149319821Y-101877063D01*
X149319820Y-101877060D01*
X149319816Y-101877057D01*
X149278647Y-101835886D01*
X149276189Y-101833335D01*
X149236577Y-101790644D01*
X149225077Y-101781473D01*
X149217148Y-101774387D01*
X147893195Y-100450434D01*
X147886110Y-100442506D01*
X147885215Y-100441384D01*
X147862631Y-100413064D01*
X147814511Y-100380256D01*
X147811624Y-100378207D01*
X147767537Y-100345671D01*
X147764773Y-100343631D01*
X147764771Y-100343630D01*
X147757184Y-100339619D01*
X147749430Y-100335885D01*
X147749428Y-100335884D01*
X147749425Y-100335883D01*
X147749423Y-100335882D01*
X147693799Y-100318725D01*
X147690432Y-100317617D01*
X147635448Y-100298377D01*
X147627040Y-100296785D01*
X147618508Y-100295500D01*
X147618505Y-100295500D01*
X147560269Y-100295500D01*
X147556764Y-100295434D01*
X147498537Y-100293256D01*
X147498536Y-100293256D01*
X147498534Y-100293256D01*
X147483905Y-100294904D01*
X147473291Y-100295500D01*
X140267671Y-100295500D01*
X140185450Y-100276734D01*
X140119514Y-100224151D01*
X140088805Y-100168588D01*
X140077794Y-100137120D01*
X139997151Y-100027851D01*
X139997148Y-100027848D01*
X139964208Y-100003537D01*
X139887882Y-99947207D01*
X139887878Y-99947205D01*
X139759700Y-99902354D01*
X139759690Y-99902352D01*
X139729273Y-99899500D01*
X139729266Y-99899500D01*
X138370734Y-99899500D01*
X138370726Y-99899500D01*
X138340309Y-99902352D01*
X138340299Y-99902354D01*
X138212121Y-99947205D01*
X138212120Y-99947206D01*
X138212119Y-99947206D01*
X138212118Y-99947207D01*
X138182190Y-99969294D01*
X138102851Y-100027848D01*
X138102848Y-100027851D01*
X138022206Y-100137120D01*
X138022205Y-100137121D01*
X137977354Y-100265299D01*
X137977352Y-100265309D01*
X137974500Y-100295726D01*
X137974500Y-101204273D01*
X137977352Y-101234690D01*
X137977354Y-101234700D01*
X138022205Y-101362878D01*
X138022207Y-101362882D01*
X138078537Y-101439208D01*
X138102848Y-101472148D01*
X138102850Y-101472150D01*
X138212118Y-101552793D01*
X138340301Y-101597646D01*
X138340306Y-101597646D01*
X138340309Y-101597647D01*
X138355517Y-101599073D01*
X138370728Y-101600499D01*
X138370731Y-101600500D01*
X138370734Y-101600500D01*
X139729269Y-101600500D01*
X139729270Y-101600499D01*
X139750191Y-101598537D01*
X139759690Y-101597647D01*
X139759691Y-101597646D01*
X139759699Y-101597646D01*
X139887882Y-101552793D01*
X139997150Y-101472150D01*
X140077793Y-101362882D01*
X140088804Y-101331412D01*
X140133674Y-101260004D01*
X140205083Y-101215134D01*
X140267671Y-101204500D01*
X147283246Y-101204500D01*
X147365467Y-101223266D01*
X147417243Y-101260003D01*
X148439997Y-102282757D01*
X148484866Y-102354166D01*
X148495500Y-102416754D01*
X148495500Y-103569139D01*
X148494904Y-103579754D01*
X148490687Y-103617185D01*
X148501513Y-103674407D01*
X148502106Y-103677898D01*
X148510785Y-103735478D01*
X148513317Y-103743687D01*
X148516158Y-103751805D01*
X148516158Y-103751806D01*
X148516159Y-103751807D01*
X148539432Y-103795843D01*
X148543364Y-103803281D01*
X148544960Y-103806443D01*
X148570234Y-103858924D01*
X148575072Y-103866019D01*
X148580177Y-103872937D01*
X148621364Y-103914124D01*
X148623814Y-103916668D01*
X148649175Y-103944000D01*
X148663424Y-103959357D01*
X148674928Y-103968531D01*
X148682856Y-103975616D01*
X150556803Y-105849564D01*
X150563889Y-105857493D01*
X150587369Y-105886936D01*
X150635498Y-105919749D01*
X150638376Y-105921792D01*
X150685224Y-105956367D01*
X150685227Y-105956369D01*
X150685229Y-105956369D01*
X150692831Y-105960387D01*
X150700569Y-105964114D01*
X150700572Y-105964116D01*
X150756286Y-105981301D01*
X150759568Y-105982381D01*
X150814549Y-106001620D01*
X150814555Y-106001620D01*
X150823047Y-106003227D01*
X150831492Y-106004500D01*
X150831495Y-106004500D01*
X150889757Y-106004500D01*
X150893261Y-106004565D01*
X150951462Y-106006743D01*
X150951472Y-106006740D01*
X150966073Y-106005096D01*
X150976690Y-106004500D01*
X158719148Y-106004500D01*
X158729751Y-106005095D01*
X158767186Y-106009313D01*
X158824447Y-105998477D01*
X158827868Y-105997896D01*
X158885479Y-105989214D01*
X158885487Y-105989209D01*
X158893709Y-105986674D01*
X158901802Y-105983841D01*
X158901807Y-105983841D01*
X158953320Y-105956614D01*
X158956436Y-105955041D01*
X159008921Y-105929767D01*
X159008925Y-105929763D01*
X159016018Y-105924926D01*
X159022930Y-105919825D01*
X159022940Y-105919820D01*
X159064135Y-105878623D01*
X159066625Y-105876224D01*
X159109356Y-105836577D01*
X159109361Y-105836566D01*
X159118521Y-105825082D01*
X159125611Y-105817148D01*
X159942761Y-104999999D01*
X170994659Y-104999999D01*
X171013976Y-105196136D01*
X171071185Y-105384727D01*
X171164088Y-105558535D01*
X171164090Y-105558538D01*
X171289117Y-105710883D01*
X171441462Y-105835910D01*
X171441464Y-105835911D01*
X171615272Y-105928814D01*
X171803863Y-105986023D01*
X171803865Y-105986023D01*
X171803868Y-105986024D01*
X172000000Y-106005341D01*
X172196132Y-105986024D01*
X172196134Y-105986023D01*
X172196136Y-105986023D01*
X172384727Y-105928814D01*
X172399821Y-105920746D01*
X172558538Y-105835910D01*
X172710883Y-105710883D01*
X172835910Y-105558538D01*
X172928814Y-105384727D01*
X172986024Y-105196132D01*
X173005341Y-105000000D01*
X172986024Y-104803868D01*
X172986023Y-104803865D01*
X172986023Y-104803863D01*
X172928814Y-104615272D01*
X172835911Y-104441464D01*
X172835910Y-104441462D01*
X172710883Y-104289117D01*
X172558538Y-104164090D01*
X172558536Y-104164089D01*
X172558535Y-104164088D01*
X172384727Y-104071185D01*
X172196136Y-104013976D01*
X172039226Y-103998522D01*
X172000000Y-103994659D01*
X171999999Y-103994659D01*
X171803863Y-104013976D01*
X171615272Y-104071185D01*
X171441464Y-104164088D01*
X171289120Y-104289114D01*
X171289114Y-104289120D01*
X171164088Y-104441464D01*
X171071185Y-104615272D01*
X171013976Y-104803863D01*
X170994659Y-104999999D01*
X159942761Y-104999999D01*
X160511757Y-104431003D01*
X160583166Y-104386134D01*
X160645754Y-104375500D01*
X161454269Y-104375500D01*
X161454270Y-104375499D01*
X161475191Y-104373537D01*
X161484690Y-104372647D01*
X161484691Y-104372646D01*
X161484699Y-104372646D01*
X161612882Y-104327793D01*
X161722150Y-104247150D01*
X161802793Y-104137882D01*
X161847646Y-104009699D01*
X161847645Y-104009699D01*
X161848096Y-104008413D01*
X161892965Y-103937004D01*
X161964373Y-103892134D01*
X162026962Y-103881500D01*
X165605666Y-103881500D01*
X165618042Y-103882310D01*
X165650000Y-103886518D01*
X165801802Y-103866533D01*
X165943259Y-103807940D01*
X166034231Y-103738135D01*
X166034231Y-103738133D01*
X166044500Y-103730255D01*
X166044510Y-103730246D01*
X166064731Y-103714731D01*
X166084349Y-103689162D01*
X166092518Y-103679846D01*
X167300585Y-102471778D01*
X167309908Y-102463602D01*
X167335481Y-102443981D01*
X167405408Y-102352850D01*
X167428690Y-102322509D01*
X167487283Y-102181052D01*
X167495855Y-102115938D01*
X167502250Y-102067366D01*
X167502250Y-102067365D01*
X167507268Y-102029250D01*
X167503060Y-101997292D01*
X167502250Y-101984916D01*
X167502250Y-100915706D01*
X167521016Y-100833485D01*
X167573599Y-100767549D01*
X167584657Y-100759369D01*
X167614323Y-100739047D01*
X167690971Y-100686542D01*
X167848292Y-100529221D01*
X167929087Y-100411274D01*
X167991035Y-100354048D01*
X168071678Y-100329367D01*
X168155044Y-100342120D01*
X168224620Y-100389781D01*
X168248861Y-100422459D01*
X168329175Y-100559322D01*
X168480702Y-100739042D01*
X168480707Y-100739047D01*
X168660427Y-100890574D01*
X168863178Y-101009553D01*
X168863179Y-101009554D01*
X169083115Y-101092554D01*
X169083121Y-101092555D01*
X169206750Y-101116465D01*
X169206750Y-99689500D01*
X169225516Y-99607279D01*
X169278099Y-99541343D01*
X169354082Y-99504751D01*
X169396250Y-99500000D01*
X169525250Y-99500000D01*
X169607471Y-99518766D01*
X169673407Y-99571349D01*
X169709999Y-99647332D01*
X169714750Y-99689500D01*
X169714750Y-101116464D01*
X169838378Y-101092555D01*
X169838384Y-101092554D01*
X170058320Y-101009554D01*
X170058321Y-101009553D01*
X170261072Y-100890574D01*
X170440792Y-100739047D01*
X170440797Y-100739042D01*
X170592322Y-100559324D01*
X170672637Y-100422460D01*
X170730436Y-100361045D01*
X170809157Y-100330790D01*
X170893210Y-100337686D01*
X170965947Y-100380369D01*
X170992412Y-100411274D01*
X171025332Y-100459332D01*
X171073208Y-100529221D01*
X171230529Y-100686542D01*
X171414079Y-100812277D01*
X171617607Y-100902143D01*
X171834183Y-100953081D01*
X171926658Y-100959500D01*
X171926671Y-100959500D01*
X172074829Y-100959500D01*
X172074842Y-100959500D01*
X172167317Y-100953081D01*
X172383893Y-100902143D01*
X172587421Y-100812277D01*
X172770971Y-100686542D01*
X172928292Y-100529221D01*
X173054027Y-100345671D01*
X173143893Y-100142143D01*
X173194831Y-99925567D01*
X173201250Y-99833092D01*
X173201250Y-99689499D01*
X173220016Y-99607279D01*
X173272599Y-99541343D01*
X173348582Y-99504751D01*
X173390750Y-99500000D01*
X174310000Y-99500000D01*
X174392221Y-99518766D01*
X174458157Y-99571349D01*
X174494749Y-99647332D01*
X174499500Y-99689500D01*
X174499500Y-107310000D01*
X174480734Y-107392221D01*
X174428151Y-107458157D01*
X174352168Y-107494749D01*
X174310000Y-107499500D01*
X125690000Y-107499500D01*
X125607779Y-107480734D01*
X125541843Y-107428151D01*
X125505251Y-107352168D01*
X125500500Y-107310000D01*
X125500500Y-104999999D01*
X126994659Y-104999999D01*
X127013976Y-105196136D01*
X127071185Y-105384727D01*
X127164088Y-105558535D01*
X127164090Y-105558538D01*
X127289117Y-105710883D01*
X127441462Y-105835910D01*
X127441464Y-105835911D01*
X127615272Y-105928814D01*
X127803863Y-105986023D01*
X127803865Y-105986023D01*
X127803868Y-105986024D01*
X128000000Y-106005341D01*
X128196132Y-105986024D01*
X128196134Y-105986023D01*
X128196136Y-105986023D01*
X128384727Y-105928814D01*
X128399821Y-105920746D01*
X128558538Y-105835910D01*
X128710883Y-105710883D01*
X128835910Y-105558538D01*
X128928814Y-105384727D01*
X128986024Y-105196132D01*
X129005341Y-105000000D01*
X128986024Y-104803868D01*
X128986023Y-104803865D01*
X128986023Y-104803863D01*
X128928814Y-104615272D01*
X128835911Y-104441464D01*
X128835910Y-104441462D01*
X128710883Y-104289117D01*
X128558538Y-104164090D01*
X128558536Y-104164089D01*
X128558535Y-104164088D01*
X128384727Y-104071185D01*
X128196136Y-104013976D01*
X128039226Y-103998522D01*
X128000000Y-103994659D01*
X127999999Y-103994659D01*
X127803863Y-104013976D01*
X127615272Y-104071185D01*
X127441464Y-104164088D01*
X127289120Y-104289114D01*
X127289114Y-104289120D01*
X127164088Y-104441464D01*
X127071185Y-104615272D01*
X127013976Y-104803863D01*
X126994659Y-104999999D01*
X125500500Y-104999999D01*
X125500500Y-92413734D01*
X137769001Y-92413734D01*
X137771814Y-92449488D01*
X137771813Y-92449488D01*
X137816295Y-92602593D01*
X137816296Y-92602595D01*
X137897449Y-92739816D01*
X137897451Y-92739819D01*
X138010180Y-92852548D01*
X138010183Y-92852550D01*
X138147404Y-92933703D01*
X138147413Y-92933708D01*
X138300498Y-92978183D01*
X138300501Y-92978184D01*
X138336276Y-92980999D01*
X138796000Y-92980999D01*
X138796000Y-92191501D01*
X138795999Y-92191500D01*
X139304000Y-92191500D01*
X139304000Y-92980998D01*
X139304001Y-92980999D01*
X139763721Y-92980999D01*
X139763734Y-92980998D01*
X139799488Y-92978186D01*
X139952593Y-92933704D01*
X139952595Y-92933703D01*
X140089816Y-92852550D01*
X140089819Y-92852548D01*
X140202548Y-92739819D01*
X140202550Y-92739816D01*
X140283703Y-92602595D01*
X140283708Y-92602586D01*
X140328183Y-92449501D01*
X140328184Y-92449498D01*
X140331000Y-92413723D01*
X140331000Y-92191501D01*
X140330999Y-92191500D01*
X139304000Y-92191500D01*
X138795999Y-92191500D01*
X137769002Y-92191500D01*
X137769001Y-92191501D01*
X137769001Y-92413734D01*
X125500500Y-92413734D01*
X125500500Y-91683499D01*
X137769000Y-91683499D01*
X137769001Y-91683500D01*
X138795999Y-91683500D01*
X138796000Y-91683499D01*
X139304000Y-91683499D01*
X139304001Y-91683500D01*
X140330998Y-91683500D01*
X140330999Y-91683499D01*
X140330999Y-91461278D01*
X140330998Y-91461265D01*
X140328185Y-91425511D01*
X140328186Y-91425511D01*
X140283704Y-91272406D01*
X140283703Y-91272404D01*
X140202550Y-91135183D01*
X140202548Y-91135180D01*
X140089819Y-91022451D01*
X140089816Y-91022449D01*
X139952595Y-90941296D01*
X139952586Y-90941291D01*
X139799501Y-90896816D01*
X139799498Y-90896815D01*
X139763724Y-90894000D01*
X139304001Y-90894000D01*
X139304000Y-90894001D01*
X139304000Y-91683499D01*
X138796000Y-91683499D01*
X138796000Y-91683498D01*
X138796000Y-90894000D01*
X138336278Y-90894000D01*
X138336265Y-90894001D01*
X138300511Y-90896813D01*
X138147406Y-90941295D01*
X138147404Y-90941296D01*
X138010183Y-91022449D01*
X138010180Y-91022451D01*
X137897451Y-91135180D01*
X137897449Y-91135183D01*
X137816296Y-91272404D01*
X137816291Y-91272413D01*
X137771816Y-91425498D01*
X137771815Y-91425501D01*
X137769000Y-91461276D01*
X137769000Y-91683499D01*
X125500500Y-91683499D01*
X125500500Y-73108722D01*
X142101500Y-73108722D01*
X142104315Y-73144497D01*
X142104316Y-73144500D01*
X142148792Y-73297588D01*
X142148793Y-73297589D01*
X142229945Y-73434811D01*
X142229947Y-73434814D01*
X142342685Y-73547552D01*
X142342688Y-73547554D01*
X142479910Y-73628706D01*
X142479911Y-73628707D01*
X142632999Y-73673183D01*
X142633002Y-73673184D01*
X142668777Y-73676000D01*
X142940999Y-73676000D01*
X142941000Y-73675999D01*
X142941000Y-73675998D01*
X143449000Y-73675998D01*
X143449001Y-73676000D01*
X143721223Y-73676000D01*
X143756997Y-73673184D01*
X143757000Y-73673183D01*
X143910088Y-73628707D01*
X143910089Y-73628706D01*
X144047311Y-73547554D01*
X144047314Y-73547552D01*
X144160052Y-73434814D01*
X144160054Y-73434811D01*
X144241206Y-73297589D01*
X144241207Y-73297588D01*
X144285683Y-73144500D01*
X144285684Y-73144497D01*
X144288500Y-73108722D01*
X144288500Y-73099258D01*
X145257000Y-73099258D01*
X145259854Y-73129701D01*
X145304704Y-73257876D01*
X145304708Y-73257883D01*
X145385348Y-73367148D01*
X145385351Y-73367151D01*
X145411955Y-73386785D01*
X145494618Y-73447793D01*
X145494621Y-73447794D01*
X145494623Y-73447795D01*
X145544033Y-73465084D01*
X145622802Y-73492646D01*
X145622807Y-73492646D01*
X145622810Y-73492647D01*
X145632539Y-73493559D01*
X145653235Y-73495500D01*
X146686764Y-73495499D01*
X146717198Y-73492646D01*
X146845382Y-73447793D01*
X146954650Y-73367150D01*
X147035293Y-73257882D01*
X147080146Y-73129698D01*
X147083000Y-73099265D01*
X147083000Y-73063999D01*
X147101766Y-72981779D01*
X147154349Y-72915843D01*
X147230332Y-72879251D01*
X147272500Y-72874500D01*
X148092500Y-72874500D01*
X148174721Y-72893266D01*
X148240657Y-72945849D01*
X148277249Y-73021832D01*
X148282000Y-73064000D01*
X148282000Y-73099273D01*
X148284852Y-73129690D01*
X148284854Y-73129700D01*
X148329705Y-73257878D01*
X148329707Y-73257882D01*
X148386037Y-73334208D01*
X148410348Y-73367148D01*
X148410350Y-73367150D01*
X148519618Y-73447793D01*
X148647801Y-73492646D01*
X148647806Y-73492646D01*
X148647809Y-73492647D01*
X148663017Y-73494073D01*
X148678228Y-73495499D01*
X148678231Y-73495500D01*
X148678234Y-73495500D01*
X149586769Y-73495500D01*
X149586770Y-73495499D01*
X149607691Y-73493537D01*
X149617190Y-73492647D01*
X149617191Y-73492646D01*
X149617199Y-73492646D01*
X149745382Y-73447793D01*
X149854650Y-73367150D01*
X149935293Y-73257882D01*
X149980146Y-73129699D01*
X149983000Y-73099266D01*
X149983000Y-71740734D01*
X149980146Y-71710301D01*
X149935293Y-71582118D01*
X149854650Y-71472850D01*
X149854648Y-71472848D01*
X149804564Y-71435885D01*
X149745382Y-71392207D01*
X149745378Y-71392205D01*
X149617200Y-71347354D01*
X149617190Y-71347352D01*
X149586773Y-71344500D01*
X149586766Y-71344500D01*
X148678234Y-71344500D01*
X148678226Y-71344500D01*
X148647809Y-71347352D01*
X148647799Y-71347354D01*
X148519621Y-71392205D01*
X148519620Y-71392206D01*
X148519619Y-71392206D01*
X148519618Y-71392207D01*
X148489690Y-71414294D01*
X148410351Y-71472848D01*
X148410348Y-71472851D01*
X148359013Y-71542410D01*
X148329709Y-71582116D01*
X148329706Y-71582120D01*
X148329705Y-71582121D01*
X148284854Y-71710299D01*
X148284852Y-71710309D01*
X148282000Y-71740726D01*
X148282000Y-71776000D01*
X148263234Y-71858221D01*
X148210651Y-71924157D01*
X148134668Y-71960749D01*
X148092500Y-71965500D01*
X147272499Y-71965500D01*
X147190278Y-71946734D01*
X147124342Y-71894151D01*
X147087750Y-71818168D01*
X147082999Y-71776000D01*
X147082999Y-71740741D01*
X147082999Y-71740736D01*
X147080146Y-71710302D01*
X147074967Y-71695502D01*
X147035295Y-71582123D01*
X147035294Y-71582121D01*
X147035293Y-71582118D01*
X146972511Y-71497051D01*
X146954651Y-71472851D01*
X146954648Y-71472848D01*
X146862971Y-71405188D01*
X146845382Y-71392207D01*
X146845380Y-71392206D01*
X146845376Y-71392204D01*
X146717199Y-71347354D01*
X146717189Y-71347352D01*
X146686769Y-71344500D01*
X145653241Y-71344500D01*
X145622798Y-71347354D01*
X145494623Y-71392204D01*
X145494616Y-71392208D01*
X145385351Y-71472848D01*
X145385348Y-71472851D01*
X145304708Y-71582116D01*
X145304704Y-71582123D01*
X145259854Y-71710300D01*
X145259852Y-71710310D01*
X145257000Y-71740727D01*
X145257000Y-73099258D01*
X144288500Y-73099258D01*
X144288500Y-72674001D01*
X144288499Y-72674000D01*
X143449001Y-72674000D01*
X143449000Y-72674001D01*
X143449000Y-73675998D01*
X142941000Y-73675998D01*
X142941000Y-72674001D01*
X142940999Y-72674000D01*
X142101501Y-72674000D01*
X142101500Y-72674001D01*
X142101500Y-73108722D01*
X125500500Y-73108722D01*
X125500500Y-72165999D01*
X142101500Y-72165999D01*
X142101501Y-72166000D01*
X142940999Y-72166000D01*
X142941000Y-72165999D01*
X143449000Y-72165999D01*
X143449001Y-72166000D01*
X144288499Y-72166000D01*
X144288500Y-72165998D01*
X144288500Y-71731277D01*
X144285684Y-71695502D01*
X144285683Y-71695499D01*
X144241207Y-71542411D01*
X144241206Y-71542410D01*
X144160054Y-71405188D01*
X144160052Y-71405185D01*
X144047314Y-71292447D01*
X144047311Y-71292445D01*
X143910089Y-71211293D01*
X143910088Y-71211292D01*
X143757000Y-71166816D01*
X143756997Y-71166815D01*
X143721223Y-71164000D01*
X143449001Y-71164000D01*
X143449000Y-71164001D01*
X143449000Y-72165999D01*
X142941000Y-72165999D01*
X142941000Y-72165998D01*
X142941000Y-71164001D01*
X142940999Y-71164000D01*
X142668777Y-71164000D01*
X142633002Y-71166815D01*
X142632999Y-71166816D01*
X142479911Y-71211292D01*
X142479910Y-71211293D01*
X142342688Y-71292445D01*
X142342685Y-71292447D01*
X142229947Y-71405185D01*
X142229945Y-71405188D01*
X142148793Y-71542410D01*
X142148792Y-71542411D01*
X142104316Y-71695499D01*
X142104315Y-71695502D01*
X142101500Y-71731277D01*
X142101500Y-72165999D01*
X125500500Y-72165999D01*
X125500500Y-70108722D01*
X142101500Y-70108722D01*
X142104315Y-70144497D01*
X142104316Y-70144500D01*
X142148792Y-70297588D01*
X142148793Y-70297589D01*
X142229945Y-70434811D01*
X142229947Y-70434814D01*
X142342685Y-70547552D01*
X142342688Y-70547554D01*
X142479910Y-70628706D01*
X142479911Y-70628707D01*
X142632999Y-70673183D01*
X142633002Y-70673184D01*
X142668777Y-70676000D01*
X142940999Y-70676000D01*
X142941000Y-70675999D01*
X143449000Y-70675999D01*
X143449001Y-70676000D01*
X143721223Y-70676000D01*
X143756997Y-70673184D01*
X143757000Y-70673183D01*
X143910088Y-70628707D01*
X143910089Y-70628706D01*
X144047311Y-70547554D01*
X144047314Y-70547552D01*
X144160052Y-70434814D01*
X144160054Y-70434811D01*
X144241206Y-70297589D01*
X144241207Y-70297588D01*
X144285683Y-70144500D01*
X144285684Y-70144497D01*
X144288500Y-70108722D01*
X144288500Y-70099258D01*
X145257000Y-70099258D01*
X145259854Y-70129701D01*
X145304704Y-70257876D01*
X145304708Y-70257883D01*
X145385348Y-70367148D01*
X145385350Y-70367150D01*
X145494618Y-70447793D01*
X145494621Y-70447794D01*
X145494623Y-70447795D01*
X145552922Y-70468194D01*
X145622802Y-70492646D01*
X145622807Y-70492646D01*
X145622810Y-70492647D01*
X145632539Y-70493559D01*
X145653235Y-70495500D01*
X146686764Y-70495499D01*
X146717198Y-70492646D01*
X146845382Y-70447793D01*
X146954650Y-70367150D01*
X147035293Y-70257882D01*
X147080146Y-70129698D01*
X147083000Y-70099265D01*
X147083000Y-70063999D01*
X147101766Y-69981779D01*
X147154349Y-69915843D01*
X147230332Y-69879251D01*
X147272500Y-69874500D01*
X148092500Y-69874500D01*
X148174721Y-69893266D01*
X148240657Y-69945849D01*
X148277249Y-70021832D01*
X148282000Y-70064000D01*
X148282000Y-70099273D01*
X148284852Y-70129690D01*
X148284854Y-70129700D01*
X148329705Y-70257878D01*
X148329707Y-70257882D01*
X148386037Y-70334208D01*
X148410348Y-70367148D01*
X148410350Y-70367150D01*
X148519618Y-70447793D01*
X148647801Y-70492646D01*
X148647806Y-70492646D01*
X148647809Y-70492647D01*
X148663017Y-70494073D01*
X148678228Y-70495499D01*
X148678231Y-70495500D01*
X148678234Y-70495500D01*
X149586769Y-70495500D01*
X149586770Y-70495499D01*
X149607691Y-70493537D01*
X149617190Y-70492647D01*
X149617191Y-70492646D01*
X149617199Y-70492646D01*
X149745382Y-70447793D01*
X149854650Y-70367150D01*
X149935293Y-70257882D01*
X149980146Y-70129699D01*
X149983000Y-70099266D01*
X149983000Y-68740734D01*
X149980146Y-68710301D01*
X149935293Y-68582118D01*
X149854650Y-68472850D01*
X149854648Y-68472848D01*
X149821708Y-68448537D01*
X149745382Y-68392207D01*
X149745378Y-68392205D01*
X149617200Y-68347354D01*
X149617190Y-68347352D01*
X149586773Y-68344500D01*
X149586766Y-68344500D01*
X148678234Y-68344500D01*
X148678226Y-68344500D01*
X148647809Y-68347352D01*
X148647799Y-68347354D01*
X148519621Y-68392205D01*
X148519620Y-68392206D01*
X148519619Y-68392206D01*
X148519618Y-68392207D01*
X148489690Y-68414294D01*
X148410351Y-68472848D01*
X148410348Y-68472851D01*
X148359013Y-68542410D01*
X148329709Y-68582116D01*
X148329706Y-68582120D01*
X148329705Y-68582121D01*
X148284854Y-68710299D01*
X148284852Y-68710309D01*
X148282000Y-68740726D01*
X148282000Y-68776000D01*
X148263234Y-68858221D01*
X148210651Y-68924157D01*
X148134668Y-68960749D01*
X148092500Y-68965500D01*
X147272499Y-68965500D01*
X147190278Y-68946734D01*
X147124342Y-68894151D01*
X147087750Y-68818168D01*
X147082999Y-68776000D01*
X147082999Y-68740741D01*
X147082999Y-68740736D01*
X147080146Y-68710302D01*
X147074967Y-68695502D01*
X147035295Y-68582123D01*
X147035294Y-68582121D01*
X147035293Y-68582118D01*
X146954650Y-68472850D01*
X146954648Y-68472848D01*
X146862971Y-68405188D01*
X146845382Y-68392207D01*
X146845380Y-68392206D01*
X146845376Y-68392204D01*
X146717199Y-68347354D01*
X146717189Y-68347352D01*
X146686769Y-68344500D01*
X145653241Y-68344500D01*
X145622798Y-68347354D01*
X145494623Y-68392204D01*
X145494616Y-68392208D01*
X145385351Y-68472848D01*
X145385348Y-68472851D01*
X145304708Y-68582116D01*
X145304704Y-68582123D01*
X145259854Y-68710300D01*
X145259852Y-68710310D01*
X145257000Y-68740727D01*
X145257000Y-70099258D01*
X144288500Y-70099258D01*
X144288500Y-69674001D01*
X144288499Y-69674000D01*
X143449001Y-69674000D01*
X143449000Y-69674001D01*
X143449000Y-70675999D01*
X142941000Y-70675999D01*
X142941000Y-69674001D01*
X142940999Y-69674000D01*
X142101501Y-69674000D01*
X142101500Y-69674001D01*
X142101500Y-70108722D01*
X125500500Y-70108722D01*
X125500500Y-69165999D01*
X142101500Y-69165999D01*
X142101501Y-69166000D01*
X142940999Y-69166000D01*
X142941000Y-69165999D01*
X143449000Y-69165999D01*
X143449001Y-69166000D01*
X144288499Y-69166000D01*
X144288500Y-69165999D01*
X144288500Y-68731277D01*
X144285684Y-68695502D01*
X144285683Y-68695499D01*
X144241207Y-68542411D01*
X144241206Y-68542410D01*
X144160054Y-68405188D01*
X144160052Y-68405185D01*
X144047314Y-68292447D01*
X144047311Y-68292445D01*
X143910089Y-68211293D01*
X143910088Y-68211292D01*
X143757000Y-68166816D01*
X143756997Y-68166815D01*
X143721223Y-68164000D01*
X143449001Y-68164000D01*
X143449000Y-68164001D01*
X143449000Y-69165999D01*
X142941000Y-69165999D01*
X142941000Y-68164001D01*
X142940999Y-68164000D01*
X142668777Y-68164000D01*
X142633002Y-68166815D01*
X142632999Y-68166816D01*
X142479911Y-68211292D01*
X142479910Y-68211293D01*
X142342688Y-68292445D01*
X142342685Y-68292447D01*
X142229947Y-68405185D01*
X142229945Y-68405188D01*
X142148793Y-68542410D01*
X142148792Y-68542411D01*
X142104316Y-68695499D01*
X142104315Y-68695502D01*
X142101500Y-68731277D01*
X142101500Y-69165999D01*
X125500500Y-69165999D01*
X125500500Y-67000000D01*
X126994659Y-67000000D01*
X127013976Y-67196136D01*
X127071185Y-67384727D01*
X127164088Y-67558535D01*
X127164090Y-67558538D01*
X127289117Y-67710883D01*
X127441462Y-67835910D01*
X127441464Y-67835911D01*
X127615272Y-67928814D01*
X127803863Y-67986023D01*
X127803865Y-67986023D01*
X127803868Y-67986024D01*
X128000000Y-68005341D01*
X128196132Y-67986024D01*
X128196134Y-67986023D01*
X128196136Y-67986023D01*
X128384727Y-67928814D01*
X128384726Y-67928813D01*
X128558538Y-67835910D01*
X128710883Y-67710883D01*
X128835910Y-67558538D01*
X128928814Y-67384727D01*
X128955247Y-67297589D01*
X128986023Y-67196136D01*
X128986023Y-67196134D01*
X128986024Y-67196132D01*
X129005341Y-67000000D01*
X128986024Y-66803868D01*
X128986023Y-66803865D01*
X128986023Y-66803863D01*
X128946629Y-66674000D01*
X142101500Y-66674000D01*
X142101500Y-67108722D01*
X142104315Y-67144497D01*
X142104316Y-67144500D01*
X142148792Y-67297588D01*
X142148793Y-67297589D01*
X142229945Y-67434811D01*
X142229947Y-67434814D01*
X142342685Y-67547552D01*
X142342688Y-67547554D01*
X142479910Y-67628706D01*
X142479911Y-67628707D01*
X142632999Y-67673183D01*
X142633002Y-67673184D01*
X142668777Y-67676000D01*
X142940999Y-67676000D01*
X142941000Y-67675998D01*
X142941000Y-66674001D01*
X142940999Y-66674000D01*
X143449000Y-66674000D01*
X143449000Y-67675998D01*
X143449001Y-67676000D01*
X143721223Y-67676000D01*
X143756997Y-67673184D01*
X143757000Y-67673183D01*
X143910088Y-67628707D01*
X143910089Y-67628706D01*
X144047311Y-67547554D01*
X144047314Y-67547552D01*
X144160052Y-67434814D01*
X144160054Y-67434811D01*
X144241206Y-67297589D01*
X144241207Y-67297588D01*
X144285683Y-67144500D01*
X144285684Y-67144497D01*
X144288500Y-67108722D01*
X144288500Y-67099258D01*
X145257000Y-67099258D01*
X145259854Y-67129701D01*
X145304704Y-67257876D01*
X145304708Y-67257883D01*
X145385348Y-67367148D01*
X145385350Y-67367150D01*
X145494618Y-67447793D01*
X145494621Y-67447794D01*
X145494623Y-67447795D01*
X145552922Y-67468194D01*
X145622802Y-67492646D01*
X145622807Y-67492646D01*
X145622810Y-67492647D01*
X145632539Y-67493559D01*
X145653235Y-67495500D01*
X146686764Y-67495499D01*
X146717198Y-67492646D01*
X146845382Y-67447793D01*
X146954650Y-67367150D01*
X147035293Y-67257882D01*
X147080146Y-67129698D01*
X147083000Y-67099265D01*
X147083000Y-67063999D01*
X147101766Y-66981779D01*
X147154349Y-66915843D01*
X147230332Y-66879251D01*
X147272500Y-66874500D01*
X148092500Y-66874500D01*
X148174721Y-66893266D01*
X148240657Y-66945849D01*
X148277249Y-67021832D01*
X148282000Y-67064000D01*
X148282000Y-67099273D01*
X148284852Y-67129690D01*
X148284854Y-67129700D01*
X148329705Y-67257878D01*
X148329707Y-67257882D01*
X148386037Y-67334208D01*
X148410348Y-67367148D01*
X148410350Y-67367150D01*
X148519618Y-67447793D01*
X148647801Y-67492646D01*
X148647806Y-67492646D01*
X148647809Y-67492647D01*
X148663017Y-67494073D01*
X148678228Y-67495499D01*
X148678231Y-67495500D01*
X148678234Y-67495500D01*
X149586769Y-67495500D01*
X149586770Y-67495499D01*
X149607691Y-67493537D01*
X149617190Y-67492647D01*
X149617191Y-67492646D01*
X149617199Y-67492646D01*
X149745382Y-67447793D01*
X149854650Y-67367150D01*
X149935293Y-67257882D01*
X149980146Y-67129699D01*
X149983000Y-67099266D01*
X149983000Y-65740734D01*
X149980146Y-65710301D01*
X149935293Y-65582118D01*
X149854650Y-65472850D01*
X149854648Y-65472848D01*
X149821708Y-65448537D01*
X149745382Y-65392207D01*
X149745378Y-65392205D01*
X149617200Y-65347354D01*
X149617190Y-65347352D01*
X149586773Y-65344500D01*
X149586766Y-65344500D01*
X148678234Y-65344500D01*
X148678226Y-65344500D01*
X148647809Y-65347352D01*
X148647799Y-65347354D01*
X148519621Y-65392205D01*
X148519620Y-65392206D01*
X148519619Y-65392206D01*
X148519618Y-65392207D01*
X148489690Y-65414294D01*
X148410351Y-65472848D01*
X148410348Y-65472851D01*
X148359013Y-65542410D01*
X148329709Y-65582116D01*
X148329706Y-65582120D01*
X148329705Y-65582121D01*
X148284854Y-65710299D01*
X148284852Y-65710309D01*
X148282000Y-65740726D01*
X148282000Y-65776000D01*
X148263234Y-65858221D01*
X148210651Y-65924157D01*
X148134668Y-65960749D01*
X148092500Y-65965500D01*
X147272499Y-65965500D01*
X147190278Y-65946734D01*
X147124342Y-65894151D01*
X147087750Y-65818168D01*
X147082999Y-65776000D01*
X147082999Y-65740741D01*
X147082999Y-65740736D01*
X147080146Y-65710302D01*
X147074967Y-65695502D01*
X147035295Y-65582123D01*
X147035294Y-65582121D01*
X147035293Y-65582118D01*
X146954650Y-65472850D01*
X146954648Y-65472848D01*
X146862971Y-65405188D01*
X146845382Y-65392207D01*
X146845380Y-65392206D01*
X146845376Y-65392204D01*
X146717199Y-65347354D01*
X146717189Y-65347352D01*
X146686769Y-65344500D01*
X145653241Y-65344500D01*
X145622798Y-65347354D01*
X145494623Y-65392204D01*
X145494616Y-65392208D01*
X145385351Y-65472848D01*
X145385348Y-65472851D01*
X145304708Y-65582116D01*
X145304704Y-65582123D01*
X145259854Y-65710300D01*
X145259852Y-65710310D01*
X145257000Y-65740727D01*
X145257000Y-67099258D01*
X144288500Y-67099258D01*
X144288500Y-66674001D01*
X144288499Y-66674000D01*
X143449000Y-66674000D01*
X142940999Y-66674000D01*
X142101500Y-66674000D01*
X128946629Y-66674000D01*
X128928814Y-66615272D01*
X128835911Y-66441464D01*
X128835910Y-66441462D01*
X128710883Y-66289117D01*
X128560864Y-66165999D01*
X142101500Y-66165999D01*
X142101501Y-66166000D01*
X142940999Y-66166000D01*
X142941000Y-66165999D01*
X142941000Y-66165998D01*
X143449000Y-66165998D01*
X143449001Y-66166000D01*
X144288499Y-66166000D01*
X144288500Y-66165998D01*
X144288500Y-65731277D01*
X144285684Y-65695502D01*
X144285683Y-65695499D01*
X144241207Y-65542411D01*
X144241206Y-65542410D01*
X144160054Y-65405188D01*
X144160052Y-65405185D01*
X144047314Y-65292447D01*
X144047311Y-65292445D01*
X143910089Y-65211293D01*
X143910088Y-65211292D01*
X143757000Y-65166816D01*
X143756997Y-65166815D01*
X143721223Y-65164000D01*
X143449001Y-65164000D01*
X143449000Y-65164001D01*
X143449000Y-66165998D01*
X142941000Y-66165998D01*
X142941000Y-65164001D01*
X142940999Y-65164000D01*
X142668777Y-65164000D01*
X142633002Y-65166815D01*
X142632999Y-65166816D01*
X142479911Y-65211292D01*
X142479910Y-65211293D01*
X142342688Y-65292445D01*
X142342685Y-65292447D01*
X142229947Y-65405185D01*
X142229945Y-65405188D01*
X142148793Y-65542410D01*
X142148792Y-65542411D01*
X142104316Y-65695499D01*
X142104315Y-65695502D01*
X142101500Y-65731277D01*
X142101500Y-66165999D01*
X128560864Y-66165999D01*
X128558538Y-66164090D01*
X128558536Y-66164089D01*
X128558535Y-66164088D01*
X128384727Y-66071185D01*
X128196136Y-66013976D01*
X128000000Y-65994659D01*
X127803863Y-66013976D01*
X127615272Y-66071185D01*
X127441464Y-66164088D01*
X127289120Y-66289114D01*
X127289114Y-66289120D01*
X127164088Y-66441464D01*
X127071185Y-66615272D01*
X127013976Y-66803863D01*
X126994659Y-67000000D01*
X125500500Y-67000000D01*
X125500500Y-64690000D01*
X125519266Y-64607779D01*
X125571849Y-64541843D01*
X125647832Y-64505251D01*
X125690000Y-64500500D01*
X174310000Y-64500500D01*
X174392221Y-64519266D01*
G37*
%TD.AperFunction*%
%TD*%
M02*
