<?xml version="1.0" standalone="no"?>
<!DOCTYPE svg PUBLIC "-//W3C//DTD SVG 1.1//EN"
"http://www.w3.org/Graphics/SVG/1.1/DTD/svg11.dtd">
<svg width="81.8268" height="146.079" viewBox="0 0 1704.72 3043.31" version="1.1"
xmlns="http://www.w3.org/2000/svg"
xmlns:xlink="http://www.w3.org/1999/xlink">
<g fill-rule="evenodd"><path d="M -0.000127871,2808.54 L 3.81782,2796.79 L 10.8138,2784.68 L 20.1763,2774.28 L 31.4961,2766.05 L 44.2784,2760.36 L 57.9646,2757.45 L 71.9566,2757.45 L 85.6429,2760.36 L 98.4252,2766.05 L 109.745,2774.28 L 119.107,2784.68 L 126.103,2796.79 L 128.553,2804.33 L 169.735,2804.33 L 165.231,2787.52 L 157.369,2770.66 L 146.701,2755.43 L 137.059,2745.79 L 134.423,2740.96 L 134.815,2735.47 L 138.113,2731.07 L 140.551,2729.73 L 150.951,2725.86 L 160.015,2719.07 L 166.799,2710.01 L 170.755,2699.4 L 171.259,2694.71 L 171.259,2643.7 L 131.89,2643.7 L 131.89,2690.94 L -9.39844e-05,2690.94 L -9.39844e-05,2557.09 L 131.89,2557.09 L 131.89,2604.33 L 171.259,2604.33 L 171.259,2553.32 L 170.755,2548.63 L 166.799,2538.02 L 160.015,2528.96 L 150.951,2522.18 L 140.343,2518.22 L 135.657,2517.72 L 114.133,2517.72 L 108.855,2516.17 L 105.251,2512.01 L 104.369,2507.95 L 104.369,2338.6 L 105.919,2333.32 L 110.007,2329.75 L 118.313,2325.87 L 133.549,2315.21 L 146.701,2302.05 L 157.369,2286.82 L 165.231,2269.96 L 169.735,2253.15 L 128.552,2253.15 L 126.103,2260.69 L 119.107,2272.8 L 109.745,2283.2 L 98.4252,2291.43 L 85.6429,2297.12 L 71.9566,2300.03 L 57.9646,2300.03 L 44.2784,2297.12 L 31.4961,2291.43 L 20.1763,2283.2 L 10.8138,2272.8 L 3.81782,2260.69 L -0.000127871,2248.94 L -0.000127871,2217.99 L 3.81782,2206.24 L 10.8138,2194.12 L 20.1763,2183.73 L 31.4961,2175.5 L 44.2784,2169.81 L 57.9646,2166.9 L 71.9566,2166.9 L 85.6429,2169.81 L 98.4252,2175.5 L 109.745,2183.73 L 119.107,2194.12 L 126.103,2206.24 L 128.553,2213.78 L 169.735,2213.78 L 165.231,2196.97 L 157.369,2180.11 L 146.701,2164.88 L 137.059,2155.23 L 134.423,2150.41 L 134.815,2144.92 L 138.113,2140.51 L 140.551,2139.18 L 150.951,2135.3 L 160.015,2128.52 L 166.799,2119.46 L 170.755,2108.85 L 171.259,2104.16 L 171.259,2053.15 L 131.89,2053.15 L 131.89,2100.39 L -9.39844e-05,2100.39 L -9.39844e-05,1966.54 L 131.89,1966.54 L 131.89,2013.78 L 171.259,2013.78 L 171.259,1962.77 L 170.755,1958.08 L 166.799,1947.47 L 160.015,1938.41 L 150.951,1931.63 L 140.343,1927.67 L 135.657,1927.17 L 114.133,1927.17 L 108.855,1925.62 L 105.251,1921.46 L 104.369,1917.4 L 104.369,1809.78 L 105.561,1805.11 L 364.771,1329.89 L 368.659,1326 L 373.341,1324.8 L 921.337,1324.8 L 926.617,1326.35 L 930.219,1330.51 L 931.101,1334.57 L 931.101,2929.17 L 929.551,2934.45 L 925.393,2938.06 L 921.337,2938.94 L 114.133,2938.94 L 108.855,2937.39 L 105.251,2933.23 L 104.369,2929.15 L 105.919,2923.87 L 110.007,2920.3 L 118.313,2916.43 L 133.549,2905.76 L 146.701,2892.61 L 157.369,2877.37 L 165.231,2860.51 L 169.735,2843.7 L 128.552,2843.7 L 126.103,2851.24 L 119.107,2863.36 L 109.745,2873.75 L 98.4252,2881.98 L 85.6429,2887.67 L 71.9566,2890.58 L 57.9646,2890.58 L 44.2784,2887.67 L 31.4961,2881.98 L 20.1763,2873.75 L 10.8138,2863.36 L 3.81782,2851.24 L -0.000127871,2839.49 L -0.000127871,2808.54M 448.819,1946.68 L 449.323,1951.37 L 453.279,1961.98 L 460.063,1971.04 L 469.125,1977.82 L 479.733,1981.78 L 484.421,1982.28 L 535.433,1982.28 L 535.433,1942.91 L 488.189,1942.91 L 488.189,1895.67 L 448.819,1895.67 L 448.819,1946.68M 448.819,1856.3 L 488.189,1856.3 L 488.189,1809.06 L 535.433,1809.06 L 535.433,1769.69 L 484.421,1769.69 L 479.733,1770.19 L 469.125,1774.15 L 460.063,1780.93 L 453.279,1789.99 L 449.323,1800.6 L 448.819,1805.29 L 448.819,1856.3M 574.803,1982.28 L 625.813,1982.28 L 630.501,1981.78 L 641.109,1977.82 L 650.171,1971.04 L 656.957,1961.98 L 660.835,1951.58 L 664.133,1947.17 L 669.287,1945.25 L 674.663,1946.42 L 676.887,1948.08 L 686.529,1957.73 L 701.765,1968.39 L 718.621,1976.25 L 735.433,1980.76 L 735.433,1939.85 L 721.654,1933.95 L 710.334,1925.72 L 700.971,1915.32 L 693.975,1903.21 L 691.527,1895.67 L 622.047,1895.67 L 622.047,1942.91 L 574.803,1942.91 L 574.803,1982.28M 574.803,1809.06 L 622.047,1809.06 L 622.047,1856.3 L 691.526,1856.3 L 693.975,1848.76 L 700.971,1836.64 L 710.334,1826.25 L 721.654,1818.02 L 735.433,1812.12 L 735.433,1771.21 L 718.621,1775.71 L 701.765,1783.58 L 686.529,1794.24 L 676.887,1803.89 L 672.059,1806.52 L 666.571,1806.13 L 662.167,1802.83 L 660.835,1800.39 L 656.957,1789.99 L 650.171,1780.93 L 641.109,1774.15 L 630.501,1770.19 L 625.813,1769.69 L 574.803,1769.69 L 574.803,1809.06M 774.803,1980.76 L 791.613,1976.26 L 808.471,1968.39 L 823.707,1957.73 L 836.859,1944.57 L 847.527,1929.34 L 855.387,1912.48 L 859.891,1895.67 L 818.71,1895.67 L 816.261,1903.21 L 809.265,1915.32 L 799.902,1925.72 L 788.583,1933.95 L 774.803,1939.85 L 774.803,1980.76M 774.803,1771.21 L 774.803,1812.12 L 788.583,1818.02 L 799.902,1826.25 L 809.265,1836.64 L 816.261,1848.76 L 818.71,1856.3 L 859.891,1856.3 L 855.387,1839.49 L 847.527,1822.63 L 836.859,1807.4 L 823.707,1794.24 L 808.471,1783.58 L 791.613,1775.71 L 774.803,1771.21 z " style="fill-opacity:1.000000;fill:rgb(103,198,105);stroke:rgb(0,0,0);stroke-width:2"/></g>
</svg>
