<?xml version="1.0" standalone="no"?>
<!DOCTYPE svg PUBLIC "-//W3C//DTD SVG 1.1//EN"
"http://www.w3.org/Graphics/SVG/1.1/DTD/svg11.dtd">
<svg width="81.8268" height="146.079" viewBox="0 0 1704.72 3043.31" version="1.1"
xmlns="http://www.w3.org/2000/svg"
xmlns:xlink="http://www.w3.org/1999/xlink">
<g fill-rule="evenodd"><path d="M 64.9986,2968.54 L 64.9986,1799.74 L 66.1906,1795.07 L 319.925,1329.89 L 323.813,1326 L 328.497,1324.8 L 921.337,1324.8 L 926.617,1326.35 L 930.219,1330.51 L 931.101,1334.57 L 931.101,2968.54 L 929.551,2973.82 L 925.393,2977.43 L 921.337,2978.31 L 74.7626,2978.31 L 69.4846,2976.76 L 65.8806,2972.6 L 64.9986,2968.54M 448.819,1946.68 L 449.323,1951.37 L 453.279,1961.98 L 460.063,1971.04 L 469.125,1977.82 L 479.733,1981.78 L 484.421,1982.28 L 535.433,1982.28 L 535.433,1942.91 L 488.189,1942.91 L 488.189,1895.67 L 448.819,1895.67 L 448.819,1946.68M 448.819,1856.3 L 488.189,1856.3 L 488.189,1809.06 L 535.433,1809.06 L 535.433,1769.69 L 484.421,1769.69 L 479.733,1770.19 L 469.125,1774.15 L 460.063,1780.93 L 453.279,1789.99 L 449.323,1800.6 L 448.819,1805.29 L 448.819,1856.3M 574.803,1982.28 L 625.813,1982.28 L 630.501,1981.78 L 641.109,1977.82 L 650.171,1971.04 L 656.957,1961.98 L 660.835,1951.58 L 664.133,1947.17 L 669.287,1945.25 L 674.663,1946.42 L 676.887,1948.08 L 686.529,1957.73 L 701.765,1968.39 L 718.621,1976.25 L 735.433,1980.76 L 735.433,1939.85 L 721.654,1933.95 L 710.334,1925.72 L 700.971,1915.32 L 693.975,1903.21 L 691.527,1895.67 L 622.047,1895.67 L 622.047,1942.91 L 574.803,1942.91 L 574.803,1982.28M 574.803,1809.06 L 622.047,1809.06 L 622.047,1856.3 L 691.526,1856.3 L 693.975,1848.76 L 700.971,1836.64 L 710.334,1826.25 L 721.654,1818.02 L 735.433,1812.12 L 735.433,1771.21 L 718.621,1775.71 L 701.765,1783.58 L 686.529,1794.24 L 676.887,1803.89 L 672.059,1806.52 L 666.571,1806.13 L 662.167,1802.83 L 660.835,1800.39 L 656.957,1789.99 L 650.171,1780.93 L 641.109,1774.15 L 630.501,1770.19 L 625.813,1769.69 L 574.803,1769.69 L 574.803,1809.06M 774.803,1812.12 L 788.583,1818.02 L 799.902,1826.25 L 809.265,1836.64 L 816.261,1848.76 L 818.71,1856.3 L 859.891,1856.3 L 855.387,1839.49 L 847.527,1822.63 L 836.859,1807.4 L 823.707,1794.24 L 808.471,1783.58 L 791.613,1775.71 L 774.803,1771.21 L 774.803,1812.12M 774.803,1939.85 L 774.803,1980.76 L 791.613,1976.26 L 808.471,1968.39 L 823.707,1957.73 L 836.859,1944.57 L 847.527,1929.34 L 855.387,1912.48 L 859.891,1895.67 L 818.71,1895.67 L 816.261,1903.21 L 809.265,1915.32 L 799.902,1925.72 L 788.583,1933.95 L 774.803,1939.85 z " style="fill-opacity:1.000000;fill:rgb(103,198,105);stroke:rgb(0,0,0);stroke-width:2"/></g>
</svg>
