<?xml version="1.0" standalone="no"?>
<!DOCTYPE svg PUBLIC "-//W3C//DTD SVG 1.1//EN"
"http://www.w3.org/Graphics/SVG/1.1/DTD/svg11.dtd">
<svg width="81.8268" height="146.079" viewBox="0 0 1704.72 3043.31" version="1.1"
xmlns="http://www.w3.org/2000/svg"
xmlns:xlink="http://www.w3.org/1999/xlink">
<g fill-rule="evenodd"><path d="M 1.42109e-14,3043.31 L 1.42109e-14,0 L 1704.72,0 L 1704.72,3043.31 L 1.42109e-14,3043.31 z " style="fill-opacity:0.200000;fill:rgb(103,198,105);"/></g>
<polyline points="33.4646,2978.35 34.0706,2984.49 35.8626,2990.4 38.7726,2995.84 42.6906,3000.62 47.4626,3004.53 52.9086,3007.44 58.8166,3009.24 64.9606,3009.84 1639.76,3009.84 1645.91,3009.24 1651.81,3007.44 1657.26,3004.53 1662.03,3000.62 1665.95,2995.84 1668.86,2990.4 1670.65,2984.49 1671.26,2978.35 1671.26,64.9625 1670.65,58.8185 1668.86,52.9105 1665.95,47.4645 1662.03,42.6925 1657.26,38.7745 1651.81,35.8645 1645.91,34.0725 1639.76,33.4665 1009.84,33.4665 1004.24,33.9685 998.829,35.4545 993.763,37.8805 989.207,41.1665 985.309,45.2105 982.189,49.8825 37.3106,1782.16 35.1946,1786.95 33.9006,1792.03 33.4646,1797.24 33.4646,2978.35" style="stroke:rgb(103,198,105);stroke-width:62.992126;fill:none;stroke-opacity:0.5;stroke-linecap:round;stroke-linejoin:round;;fill:none"/>
<polyline points="33.4646,2978.35 34.0706,2984.49 35.8626,2990.4 38.7726,2995.84 42.6906,3000.62 47.4626,3004.53 52.9086,3007.44 58.8166,3009.24 64.9606,3009.84 1639.76,3009.84 1645.91,3009.24 1651.81,3007.44 1657.26,3004.53 1662.03,3000.62 1665.95,2995.84 1668.86,2990.4 1670.65,2984.49 1671.26,2978.35 1671.26,64.9625 1670.65,58.8185 1668.86,52.9105 1665.95,47.4645 1662.03,42.6925 1657.26,38.7745 1651.81,35.8645 1645.91,34.0725 1639.76,33.4665 1009.84,33.4665 1004.24,33.9685 998.829,35.4545 993.763,37.8805 989.207,41.1665 985.309,45.2105 982.189,49.8825 37.3106,1782.16 35.1946,1786.95 33.9006,1792.03 33.4646,1797.24 33.4646,2978.35" style="stroke:rgb(0,0,0);stroke-width:1px;fill:none;stroke-opacity:1;stroke-linecap:round;stroke-linejoin:round;;fill:none"/>
<g fill-rule="evenodd"><path d="M 64.9606,2978.35 L 64.9606,1797.24 L 1009.84,64.9625 L 1639.76,64.9625 L 1639.76,2978.35 L 64.9606,2978.35 z " style="fill-opacity:1.000000;fill:rgb(103,198,105);stroke:rgb(0,0,0);stroke-width:2"/></g>
</svg>
