<?xml version="1.0" standalone="no"?>
<!DOCTYPE svg PUBLIC "-//W3C//DTD SVG 1.1//EN"
"http://www.w3.org/Graphics/SVG/1.1/DTD/svg11.dtd">
<svg width="81.8268" height="146.079" viewBox="0 0 1704.72 3043.31" version="1.1"
xmlns="http://www.w3.org/2000/svg"
xmlns:xlink="http://www.w3.org/1999/xlink">
<polyline points="462.203,1945.97 462.203,1909.06 474.803,1909.06 474.803,1942.92 475.005,1945.24 475.609,1947.49 476.595,1949.61 477.935,1951.52 479.585,1953.17 481.495,1954.51 483.611,1955.49 485.863,1956.1 522.047,1956.3 522.047,1968.9 485.137,1968.9 482.835,1968.65 475.605,1965.96 469.625,1961.48 465.147,1955.5 462.451,1948.27 462.203,1945.97" style="stroke:rgb(103,198,105);stroke-width:26.771654;fill:none;stroke-opacity:0.5;stroke-linecap:round;stroke-linejoin:round;;fill:none"/>
<polyline points="462.203,1945.97 462.203,1909.06 474.803,1909.06 474.803,1942.92 475.005,1945.24 475.609,1947.49 476.595,1949.61 477.935,1951.52 479.585,1953.17 481.495,1954.51 483.611,1955.49 485.863,1956.1 522.047,1956.3 522.047,1968.9 485.137,1968.9 482.835,1968.65 475.605,1965.96 469.625,1961.48 465.147,1955.5 462.451,1948.27 462.203,1945.97" style="stroke:rgb(0,0,0);stroke-width:1px;fill:none;stroke-opacity:1;stroke-linecap:round;stroke-linejoin:round;;fill:none"/>
<polyline points="462.203,1842.92 462.203,1806.01 462.451,1803.71 465.147,1796.48 469.625,1790.49 475.605,1786.02 482.835,1783.32 485.137,1783.07 522.047,1783.07 522.047,1795.67 485.863,1795.87 483.611,1796.48 481.495,1797.46 479.585,1798.8 477.935,1800.45 476.595,1802.36 475.609,1804.48 475.005,1806.73 474.803,1809.06 474.803,1842.92 462.203,1842.92" style="stroke:rgb(103,198,105);stroke-width:26.771654;fill:none;stroke-opacity:0.5;stroke-linecap:round;stroke-linejoin:round;;fill:none"/>
<polyline points="462.203,1842.92 462.203,1806.01 462.451,1803.71 465.147,1796.48 469.625,1790.49 475.605,1786.02 482.835,1783.32 485.137,1783.07 522.047,1783.07 522.047,1795.67 485.863,1795.87 483.611,1796.48 481.495,1797.46 479.585,1798.8 477.935,1800.45 476.595,1802.36 475.609,1804.48 475.005,1806.73 474.803,1809.06 474.803,1842.92 462.203,1842.92" style="stroke:rgb(0,0,0);stroke-width:1px;fill:none;stroke-opacity:1;stroke-linecap:round;stroke-linejoin:round;;fill:none"/>
<polyline points="644.897,1833.45 648.819,1829.53 653.753,1829.53 648.819,1826.28 641.785,1813.24 648.819,1826.28 648.819,1829.53 648.819,1826.28 653.753,1829.53 684.335,1838.69 690.141,1828.78 701.377,1816.3 715.043,1806.38 722.047,1803.29 722.047,1788.89 708.483,1795.21 695.165,1804.54 686.351,1813.35 683.301,1815.64 676.133,1819.27 673.647,1819.81 671.105,1819.87 665.617,1819.48 663.105,1819.06 660.721,1818.17 658.547,1816.85 652.701,1812.3 651.451,1810.86 649.087,1806.81 645.087,1796.48 640.607,1790.49 634.627,1786.02 627.397,1783.32 625.095,1783.07 588.185,1783.07 588.185,1795.67 622.047,1795.67 624.659,1795.93 627.169,1796.69 629.483,1797.93 631.511,1799.59 633.177,1801.62 634.413,1803.93 635.175,1806.44 635.433,1809.06 635.433,1842.92 681.951,1842.92 684.335,1838.69" style="stroke:rgb(103,198,105);stroke-width:26.771654;fill:none;stroke-opacity:0.5;stroke-linecap:round;stroke-linejoin:round;;fill:none"/>
<polyline points="644.897,1833.45 648.819,1829.53 653.753,1829.53 648.819,1826.28 641.785,1813.24 648.819,1826.28 648.819,1829.53 648.819,1826.28 653.753,1829.53 684.335,1838.69 690.141,1828.78 701.377,1816.3 715.043,1806.38 722.047,1803.29 722.047,1788.89 708.483,1795.21 695.165,1804.54 686.351,1813.35 683.301,1815.64 676.133,1819.27 673.647,1819.81 671.105,1819.87 665.617,1819.48 663.105,1819.06 660.721,1818.17 658.547,1816.85 652.701,1812.3 651.451,1810.86 649.087,1806.81 645.087,1796.48 640.607,1790.49 634.627,1786.02 627.397,1783.32 625.095,1783.07 588.185,1783.07 588.185,1795.67 622.047,1795.67 624.659,1795.93 627.169,1796.69 629.483,1797.93 631.511,1799.59 633.177,1801.62 634.413,1803.93 635.175,1806.44 635.433,1809.06 635.433,1842.92 681.951,1842.92 684.335,1838.69" style="stroke:rgb(0,0,0);stroke-width:1px;fill:none;stroke-opacity:1;stroke-linecap:round;stroke-linejoin:round;;fill:none"/>
<polyline points="644.897,1918.52 648.819,1922.44 654.049,1922.44 650.201,1924.31 648.819,1925.35 642.223,1936.55 648.819,1925.35 648.819,1922.44 648.819,1925.35 650.201,1924.31 654.049,1922.44 684.997,1914.43 681.953,1909.06 635.433,1909.06 635.433,1942.92 635.229,1945.24 634.625,1947.49 633.639,1949.61 632.301,1951.52 630.651,1953.17 628.739,1954.51 626.625,1955.49 624.371,1956.1 588.185,1956.3 588.185,1968.9 625.095,1968.9 627.397,1968.65 634.627,1965.96 640.607,1961.48 645.087,1955.5 649.085,1945.16 653.417,1939.15 655.129,1937.27 657.167,1935.74 659.455,1934.63 664.609,1932.71 667.065,1932.05 669.603,1931.87 677.503,1933.34 681.079,1934.67 686.351,1938.62 695.165,1947.43 708.481,1956.76 722.047,1963.08 722.047,1948.68 715.043,1945.59 701.377,1935.67 690.141,1923.19 684.997,1914.43" style="stroke:rgb(103,198,105);stroke-width:26.771654;fill:none;stroke-opacity:0.5;stroke-linecap:round;stroke-linejoin:round;;fill:none"/>
<polyline points="644.897,1918.52 648.819,1922.44 654.049,1922.44 650.201,1924.31 648.819,1925.35 642.223,1936.55 648.819,1925.35 648.819,1922.44 648.819,1925.35 650.201,1924.31 654.049,1922.44 684.997,1914.43 681.953,1909.06 635.433,1909.06 635.433,1942.92 635.229,1945.24 634.625,1947.49 633.639,1949.61 632.301,1951.52 630.651,1953.17 628.739,1954.51 626.625,1955.49 624.371,1956.1 588.185,1956.3 588.185,1968.9 625.095,1968.9 627.397,1968.65 634.627,1965.96 640.607,1961.48 645.087,1955.5 649.085,1945.16 653.417,1939.15 655.129,1937.27 657.167,1935.74 659.455,1934.63 664.609,1932.71 667.065,1932.05 669.603,1931.87 677.503,1933.34 681.079,1934.67 686.351,1938.62 695.165,1947.43 708.481,1956.76 722.047,1963.08 722.047,1948.68 715.043,1945.59 701.377,1935.67 690.141,1923.19 684.997,1914.43" style="stroke:rgb(0,0,0);stroke-width:1px;fill:none;stroke-opacity:1;stroke-linecap:round;stroke-linejoin:round;;fill:none"/>
<polyline points="788.187,1963.08 788.187,1948.68 795.193,1945.59 808.859,1935.67 820.093,1923.19 828.283,1909.06 842.213,1909.06 835.889,1922.62 826.565,1935.94 815.069,1947.43 801.751,1956.76 788.187,1963.08" style="stroke:rgb(103,198,105);stroke-width:26.771654;fill:none;stroke-opacity:0.5;stroke-linecap:round;stroke-linejoin:round;;fill:none"/>
<polyline points="788.187,1963.08 788.187,1948.68 795.193,1945.59 808.859,1935.67 820.093,1923.19 828.283,1909.06 842.213,1909.06 835.889,1922.62 826.565,1935.94 815.069,1947.43 801.751,1956.76 788.187,1963.08" style="stroke:rgb(0,0,0);stroke-width:1px;fill:none;stroke-opacity:1;stroke-linecap:round;stroke-linejoin:round;;fill:none"/>
<polyline points="788.187,1803.29 788.187,1788.89 801.751,1795.21 815.069,1804.54 826.565,1816.03 835.889,1829.35 842.213,1842.92 828.283,1842.92 820.093,1828.78 808.859,1816.3 795.193,1806.38 788.187,1803.29" style="stroke:rgb(103,198,105);stroke-width:26.771654;fill:none;stroke-opacity:0.5;stroke-linecap:round;stroke-linejoin:round;;fill:none"/>
<polyline points="788.187,1803.29 788.187,1788.89 801.751,1795.21 815.069,1804.54 826.565,1816.03 835.889,1829.35 842.213,1842.92 828.283,1842.92 820.093,1828.78 808.859,1816.3 795.193,1806.38 788.187,1803.29" style="stroke:rgb(0,0,0);stroke-width:1px;fill:none;stroke-opacity:1;stroke-linecap:round;stroke-linejoin:round;;fill:none"/>
<polyline points="1639.76,1319.88 1636.49,1258.76 1624.35,1183.82 1623.46,1179.76 1588.87,1066.9 1536.04,961.336 1466.44,865.992 1462.84,861.834 1365.2,768.718 1251.7,695.772 1126.45,645.632 1121.17,644.082 1022.28,622.574 921.337,615.356 709.625,615.356 702.325,628.742 921.337,628.742 1020.37,635.824 1117.4,656.926 1122.68,658.476 1245.57,707.67 1356.93,779.24 1452.72,870.598 1456.32,874.756 1524.61,968.3 1576.44,1071.87 1610.38,1182.61 1611.27,1186.66 1623.18,1260.19 1627.16,1334.57 1627.16,2929.17 1623.64,2978.35 1610.26,2978.35 1613.78,2929.17 1613.78,1334.57 1609.87,1261.62 1598.19,1189.51 1597.3,1185.45 1564.02,1076.85 1513.18,975.266 1446.21,883.522 1442.6,879.362 1348.65,789.762 1239.44,719.568 1118.91,671.32 1113.63,669.77 1018.47,649.074 921.337,642.128 695.023,642.128 804.543,441.34 921.337,441.34 1047.04,450.33 1170.18,477.112 1175.46,478.662 1331.44,541.102 1472.78,631.94 1594.37,747.894 1597.97,752.052 1639.76,809.302 1639.76,786.678 1608.09,743.288 1604.48,739.13 1481.06,621.418 1337.58,529.204 1179.23,465.818 1173.95,464.268 1048.94,437.08 921.337,427.954 811.845,427.954 892.159,280.71 921.337,280.71 1069.89,291.334 1215.43,322.986 1220.71,324.536 1405.05,398.328 1572.08,505.684 1639.76,570.224 1639.76,551.812 1580.36,495.162 1411.18,386.43 1224.48,311.692 1219.2,310.142 1071.8,278.084 921.337,267.324 899.461,267.324 1009.84,64.9625 1401.47,64.9645 1505.71,104.692 1639.76,181.656 1639.76,2978.35 1637.03,2978.35 1639.76,2978.35 1639.76,197.044 1499.98,116.786 1363.99,64.9625 1009.84,64.9625 906.763,253.938 914.063,240.554 921.337,240.554 1075.61,251.584 1226.74,284.454 1232.02,286.004 1423.45,362.634 1596.91,474.118 1639.76,514.984 1639.76,496.572 1605.19,463.598 1429.58,350.736 1235.79,273.16 1230.51,271.61 1077.51,238.334 921.363,227.172 1009.84,64.9625 1086.52,64.9645 1102.27,66.0905 1279.53,104.64 1284.81,106.19 1471.31,177.266 1639.76,273.984 1639.76,212.432 1494.25,128.882 1326.52,64.9645 1285.57,64.9625 1296.12,67.6605 1488.51,140.978 1639.76,227.82 1639.76,243.208 1482.78,153.074 1292.35,80.5025 1287.07,78.9525 1222.74,64.9645 1159.92,64.9645 1283.3,91.7965 1288.58,93.3465 1477.05,165.17 1639.76,258.596 1639.76,341.462 1639.76,290.046 1636.84,287.696 1465.58,189.36 1281.04,119.034 1275.76,117.484 1100.37,79.3405 1005.69,72.5705 998.663,85.4525 1098.46,92.5885 1271.99,130.328 1277.27,131.878 1459.85,201.456 1629.29,298.746 1639.76,307.186 1639.76,324.324 1621.73,309.796 1454.11,213.552 1273.5,144.722 1268.22,143.172 1096.56,105.838 991.637,98.3365 977.581,124.102 984.609,111.222 1094.65,119.088 1264.45,156.016 1269.73,157.566 1448.38,225.648 1614.18,320.844 1639.76,341.462 1639.76,441.332 1639.76,422.918 1638.29,421.512 1454.12,303.146 1250.87,221.786 1245.59,220.236 1085.13,185.336 949.473,175.638 970.555,136.986 1090.84,145.588 1256.9,181.704 1262.18,183.254 1436.91,249.84 1599.07,342.944 1639.76,375.74 1639.76,358.602 1606.62,331.894 1442.64,237.744 1265.95,170.41 1260.67,168.86 1092.75,132.338 977.581,124.104 956.501,162.752 963.527,149.872 1088.94,158.838 1253.13,194.548 1258.41,196.098 1431.18,261.934 1591.51,353.994 1639.76,392.878 1639.76,406.62 1460.25,291.248 1254.64,208.942 1249.36,207.392 1087.04,172.086 956.501,162.752 935.419,201.404 1081.32,211.836 1238.05,245.922 1243.33,247.472 1441.85,326.942 1621.74,442.554 1639.76,459.744 1639.76,478.158 1613.46,453.076 1435.72,338.838 1239.56,260.316 1234.28,258.766 1079.42,225.086 928.391,214.288 942.445,188.522 1083.22,198.586 1241.82,233.078 1247.1,234.628 1447.99,315.044 1630.01,432.034 1639.76,441.332 1639.76,533.398 1588.64,484.64 1417.32,374.532 1228.25,298.848 1222.97,297.298 1073.7,264.834 921.337,253.938 906.763,253.938 819.147,414.568 921.337,414.568 1050.85,423.83 1177.73,451.424 1183.01,452.974 1343.71,517.306 1489.33,610.898 1614.6,730.364 1618.2,734.522 1639.76,764.054 1639.76,741.43 1628.32,725.758 1624.72,721.6 1497.61,600.376 1349.84,505.408 1186.78,440.13 1181.5,438.58 1052.75,410.58 921.337,401.182 826.447,401.182 833.749,387.798 921.337,387.798 1054.66,397.33 1185.27,425.736 1190.55,427.286 1355.98,493.51 1505.88,589.854 1634.84,712.836 1639.76,718.806 1639.76,699.118 1514.16,579.334 1362.11,481.612 1194.32,414.442 1189.04,412.892 1056.56,384.08 921.337,374.412 841.051,374.412 848.351,361.026 921.337,361.026 1058.47,370.832 1192.81,400.048 1198.09,401.598 1368.25,469.714 1522.43,568.812 1639.76,680.706 1639.76,662.292 1530.71,558.29 1374.38,457.816 1201.86,388.756 1196.58,387.206 1060.37,357.582 921.337,347.64 855.653,347.64 862.955,334.254 921.337,334.254 1062.28,344.332 1200.35,374.362 1205.63,375.912 1380.51,445.918 1538.98,547.768 1639.76,643.878 1639.76,588.638 1563.81,516.204 1398.91,410.226 1216.94,337.38 1211.66,335.83 1067.99,304.584 921.337,294.096 884.859,294.096 892.159,280.71 877.557,307.482 921.337,307.482 1066.08,317.832 1207.89,348.674 1213.17,350.224 1392.78,422.124 1555.53,526.726 1639.76,607.052 1639.76,625.464 1547.26,537.248 1386.65,434.022 1209.4,363.068 1204.12,361.518 1064.18,331.082 921.337,320.868 870.255,320.868 789.941,468.112 921.337,468.112 1043.23,476.828 1162.64,502.8 1167.92,504.35 1319.18,564.896 1456.23,652.984 1574.13,765.422 1577.73,769.58 1639.76,854.55 1639.76,831.926 1587.85,760.816 1584.25,756.658 1464.51,642.462 1325.31,552.998 1171.69,491.506 1166.41,489.956 1045.13,463.578 921.337,454.726 797.241,454.726 775.337,494.884 921.337,494.884 1039.42,503.328 1155.1,528.488 1160.38,530.038 1306.91,588.692 1439.68,674.026 1553.9,782.952 1557.5,787.11 1638.92,898.644 1639.76,900.326 1639.76,877.174 1567.62,778.346 1564.01,774.188 1447.96,663.504 1313.04,576.794 1164.15,517.194 1158.87,515.644 1041.32,490.078 921.337,481.498 782.639,481.498 768.037,508.27 921.337,508.27 1037.52,516.578 1151.33,541.332 1156.61,542.882 1300.77,600.59 1431.41,684.548 1543.78,791.716 1547.38,795.874 1627.49,905.61 1639.76,930.134 1639.76,959.94 1616.06,912.576 1537.26,804.64 1533.66,800.482 1423.13,695.068 1294.64,612.488 1152.84,555.724 1147.56,554.174 1035.61,529.826 921.337,521.656 760.735,521.656 775.337,494.884 746.133,548.428 921.337,548.428 1031.8,556.326 1140.02,579.862 1145.3,581.412 1282.37,636.284 1406.58,716.112 1513.43,818.01 1517.03,822.168 1593.2,926.506 1639.76,1019.55 1639.76,989.748 1604.63,919.544 1527.15,813.404 1523.54,809.246 1414.85,705.59 1288.51,624.386 1149.07,568.568 1143.79,567.018 1033.71,543.076 921.337,535.042 753.433,535.042 716.927,601.97 731.531,575.198 921.337,575.198 1027.99,582.826 1132.48,605.55 1137.76,607.1 1270.11,660.08 1390.03,737.154 1493.19,835.54 1496.79,839.698 1570.33,940.44 1626.15,1051.98 1639.76,1096.37 1639.76,1050.85 1638.58,1047 1581.77,933.472 1506.91,830.932 1503.31,826.774 1398.3,726.634 1276.24,648.182 1141.53,594.256 1136.25,592.706 1029.9,569.576 921.337,561.812 738.831,561.812 724.229,588.584 921.337,588.584 1026.09,596.076 1128.71,618.394 1133.99,619.944 1263.97,671.976 1381.75,747.676 1483.07,844.304 1486.68,848.462 1558.9,947.404 1613.73,1056.95 1639.76,1141.89 1639.76,1195.39 1636.54,1176.92 1601.3,1061.93 1547.47,954.37 1476.56,857.226 1472.96,853.068 1373.48,758.198 1257.84,683.874 1130.22,632.788 1124.94,631.238 1024.18,609.324 921.337,601.97 716.927,601.97 64.9606,1797.24 64.9606,1802.48 67.4666,1792.65 64.9606,1802.48 64.9606,1926.38 64.9606,1924.9 65.2226,1926.38 64.9606,1926.38 64.9606,1953.15 64.9606,1939.77 85.6866,1939.77 98.2826,1946.7 85.6866,1939.77 85.0186,1938.99 82.3906,1935.39 80.3966,1931.41 79.0886,1927.15 77.7486,1920.26 77.5966,1809.78 77.8046,1806.45 78.4246,1803.17 80.6426,1795.32 82.0566,1792.29 341.267,1317.07 343.331,1313.86 349.717,1307.08 353.381,1304.02 357.529,1301.65 362.033,1300.06 366.715,1298.87 370.001,1298.24 373.341,1298.03 921.337,1298.03 925.145,1298.31 928.877,1299.12 934.157,1300.67 938.883,1302.56 943.167,1305.31 946.851,1308.83 950.453,1312.98 953.079,1316.58 955.073,1320.57 957.261,1328.88 957.871,1334.57 957.871,2929.17 957.599,2932.99 956.787,2936.72 955.237,2942 953.345,2946.72 950.595,2951 947.085,2954.68 942.927,2958.29 939.327,2960.92 935.341,2962.91 927.025,2965.1 921.337,2965.71 114.133,2965.71 110.321,2965.44 101.311,2963.08 96.5866,2961.18 92.3066,2958.43 88.6226,2954.92 85.0186,2950.77 82.3846,2947.16 80.3866,2943.16 78.2006,2934.8 77.6246,2930.4 77.7866,2925.96 78.6806,2921.61 80.2906,2916.18 86.6946,2910.43 80.2906,2916.18 74.7546,2917.2 64.9606,2917.35 64.9606,2903.96 73.3546,2903.89 88.4246,2900.76 91.0866,2899.9 105.117,2893.57 117.613,2884.58 119.691,2882.71 129.937,2871.22 138.125,2857.09 152.057,2857.09 145.731,2870.65 136.407,2883.97 124.911,2895.46 111.593,2904.79 102.701,2909.08 97.1086,2913.79 95.3726,2915.63 94.0106,2917.75 93.0746,2920.1 91.0766,2927.55 90.9966,2929.77 92.1666,2936.06 93.8166,2940.19 95.1346,2942 98.7386,2946.16 100.581,2947.91 102.721,2949.29 110.361,2951.78 114.133,2952.32 921.337,2952.32 928.237,2951.14 932.359,2949.49 938.317,2944.57 940.073,2942.73 941.447,2940.59 943.943,2932.95 944.485,2929.17 944.485,1334.57 944.181,1331.72 942.645,1325.54 940.335,1321.75 936.733,1317.59 934.891,1315.83 932.749,1314.46 925.107,1311.96 921.337,1311.42 373.341,1311.42 370.027,1311.84 365.345,1313.03 363.093,1313.83 361.019,1315.01 355.299,1320.43 353.019,1323.48 93.8086,1798.7 92.5886,1801.8 91.3966,1806.48 90.9826,1809.78 90.9826,1917.4 91.2866,1920.25 92.8226,1926.43 95.1346,1930.23 98.7386,1934.38 100.581,1936.14 102.721,1937.51 105.083,1938.46 112.227,1940.42 134.939,1940.55 137.239,1940.8 144.469,1943.5 150.451,1947.97 154.929,1953.96 157.625,1961.19 157.873,1963.49 157.873,2000.4 145.275,2000.4 145.071,1964.21 144.467,1961.96 143.481,1959.84 142.143,1957.93 140.493,1956.28 138.583,1954.95 136.467,1953.96 134.213,1953.36 131.889,1953.15 64.9606,1953.15 62.3506,1953.41 59.8386,1954.17 57.5246,1955.41 55.4966,1957.07 53.8326,1959.1 52.5946,1961.41 51.8326,1963.93 51.5766,1966.54 51.5766,2100.39 51.8326,2103.01 52.5946,2105.52 53.8326,2107.83 55.4966,2109.86 57.5246,2111.52 59.8386,2112.76 62.3506,2113.52 64.9606,2113.78 131.889,2113.78 134.213,2113.58 136.467,2112.97 138.583,2111.99 140.493,2110.65 142.143,2109 143.481,2107.09 144.467,2104.97 145.071,2102.72 145.275,2066.54 157.873,2066.54 157.873,2103.45 157.625,2105.75 154.929,2112.98 150.451,2118.96 144.469,2123.44 134.133,2127.44 130.089,2129.8 128.647,2131.05 124.099,2136.9 122.775,2139.07 121.885,2141.45 121.463,2143.97 121.071,2149.45 121.131,2152 121.671,2154.48 125.309,2161.65 127.591,2164.7 136.407,2173.51 145.731,2186.83 152.057,2200.4 138.127,2200.4 129.937,2186.26 119.691,2174.77 117.613,2172.9 105.117,2163.91 91.0866,2157.58 88.4246,2156.72 73.3546,2153.59 64.9606,2153.52 64.9606,2113.78 64.9606,2140.13 64.9606,2127.17 114.663,2127.17 125.391,2120.69 114.663,2127.17 110.735,2133.22 108.955,2137.99 108.111,2143.01 107.763,2150.36 112.431,2158.07 107.763,2150.36 93.9146,2144.35 74.7546,2140.28 64.9606,2140.13 64.9606,2153.52 62.3506,2153.77 59.8386,2154.54 57.5246,2155.77 55.4966,2157.44 53.8326,2159.47 52.5946,2161.78 51.8326,2164.29 51.5766,2166.9 51.5766,2300.03 51.8326,2302.64 52.5946,2305.15 53.8326,2307.46 55.4966,2309.49 57.5246,2311.16 59.8386,2312.39 62.3506,2313.16 71.9546,2313.41 74.7386,2313.12 88.4246,2310.21 91.0866,2309.35 105.117,2303.02 118.701,2293.15 129.937,2280.67 138.125,2266.54 152.057,2266.54 145.731,2280.1 136.407,2293.42 124.911,2304.91 111.593,2314.24 102.703,2318.53 97.1126,2323.24 95.3746,2325.07 94.0126,2327.2 91.5246,2334.83 90.9826,2338.6 90.9826,2507.95 92.1686,2514.86 93.8206,2518.98 98.7386,2524.94 100.581,2526.69 102.721,2528.07 105.083,2529.01 112.227,2530.97 134.939,2531.1 137.239,2531.35 144.469,2534.05 150.451,2538.53 154.929,2544.51 157.625,2551.74 157.873,2554.04 157.873,2590.95 145.275,2590.95 145.071,2554.76 144.467,2552.51 143.481,2550.39 142.143,2548.48 140.493,2546.83 138.583,2545.49 136.467,2544.51 134.213,2543.9 131.889,2543.7 64.9606,2543.7 64.9606,2530.32 85.6866,2530.32 98.2826,2537.25 85.6866,2530.32 82.3906,2525.95 80.3966,2521.96 79.0886,2517.7 77.7486,2510.82 77.5966,2507.95 77.5966,2338.6 77.8686,2334.79 80.2906,2325.63 86.9646,2319.76 80.2906,2325.63 74.7546,2326.65 64.9606,2326.8 64.9606,2313.41 64.9606,2516.93 64.9606,2515.45 65.2226,2516.93 64.9606,2516.93 64.9606,2543.7 62.3506,2543.96 59.8386,2544.72 57.5246,2545.96 55.4966,2547.62 53.8326,2549.65 52.5946,2551.96 51.8326,2554.48 51.5766,2557.09 51.5766,2690.95 51.8326,2693.56 52.5946,2696.07 53.8326,2698.38 55.4966,2700.41 57.5246,2702.08 59.8386,2703.31 62.3506,2704.07 64.9606,2704.33 131.889,2704.33 134.213,2704.13 136.467,2703.52 138.583,2702.54 140.493,2701.2 142.143,2699.55 143.481,2697.64 144.467,2695.52 145.071,2693.27 145.275,2657.09 157.873,2657.09 157.873,2694 157.625,2696.3 154.929,2703.53 150.451,2709.51 144.469,2713.99 134.133,2717.99 130.089,2720.35 128.647,2721.6 124.099,2727.45 122.775,2729.62 121.885,2732.01 121.463,2734.52 121.071,2740.01 121.131,2742.55 121.671,2745.03 125.309,2752.2 127.591,2755.25 136.407,2764.07 145.731,2777.38 152.057,2790.95 138.127,2790.95 129.937,2776.81 119.691,2765.32 117.613,2763.45 105.117,2754.46 91.0866,2748.13 88.4246,2747.27 73.3546,2744.14 64.9606,2744.07 64.9606,2704.33 64.9606,2730.68 64.9606,2717.72 114.663,2717.72 125.393,2711.25 114.663,2717.72 110.735,2723.77 108.955,2728.54 108.111,2733.56 107.763,2740.91 112.431,2748.62 107.763,2740.91 93.9146,2734.9 74.7546,2730.83 64.9606,2730.68 64.9606,2744.07 62.3506,2744.33 59.8386,2745.09 57.5246,2746.32 55.4966,2747.99 53.8326,2750.02 52.5946,2752.33 51.8326,2754.84 51.5766,2757.45 51.5766,2890.58 51.7786,2892.9 52.3826,2895.16 53.3686,2897.27 54.7066,2899.18 56.3566,2900.83 58.2686,2902.17 60.3826,2903.16 62.6366,2903.76 64.9606,2903.96 64.9606,2978.35 74.5706,2978.35 68.3926,2972.46 64.9606,2968.5 68.3926,2972.46 74.5706,2978.35 106.851,2978.35 97.5386,2975.92 90.4526,2973.08 84.0326,2968.96 78.5086,2963.69 74.9046,2959.53 70.9526,2954.12 67.9546,2948.12 65.9986,2941.71 64.9606,2936.43 65.9986,2941.71 67.9546,2948.12 70.9526,2954.12 74.9046,2959.53 78.5086,2963.69 84.0326,2968.96 90.4526,2973.08 97.5386,2975.92 106.851,2978.35 1543.33,2978.35 1529.94,2978.35 1533.46,2929.17 1533.46,1334.57 1530.01,1270.2 1519.71,1206.57 1518.82,1202.52 1489.45,1106.69 1444.6,1017.06 1385.5,936.108 1381.9,931.95 1299,852.89 1202.63,790.954 1096.28,748.382 1091,746.832 1007.04,728.572 921.337,722.442 651.215,722.442 629.311,762.6 921.337,762.6 1001.33,768.32 1079.69,785.364 1084.97,786.914 1184.23,826.648 1274.18,884.456 1351.55,958.244 1355.15,962.402 1410.31,1037.96 1452.17,1121.61 1479.58,1211.05 1480.46,1215.11 1490.08,1274.49 1493.3,1334.57 1493.3,2929.17 1489.79,2978.35 1476.4,2978.35 1479.92,2929.17 1479.92,1334.57 1476.78,1275.92 1467.38,1217.95 1466.5,1213.89 1439.74,1126.59 1398.87,1044.92 1345.03,971.166 1341.43,967.01 1265.9,894.976 1178.1,838.546 1081.2,799.758 1075.92,798.208 999.425,781.57 921.337,775.986 622.009,775.986 556.297,896.458 921.337,896.458 982.283,900.818 1041.99,913.802 1047.27,915.352 1122.9,945.628 1191.42,989.67 1250.37,1045.89 1253.98,1050.05 1296,1107.61 1327.9,1171.35 1348.78,1239.49 1349.66,1243.55 1356.99,1288.8 1359.45,1334.57 1359.45,2929.17 1355.93,2978.35 1221.01,2978.35 1222.59,2971.09 1225.59,2929.17 1225.59,1334.57 1223.9,1303.1 1218.86,1271.99 1217.98,1267.94 1203.62,1221.09 1181.69,1177.27 1152.8,1137.69 1149.2,1133.53 1108.67,1094.88 1061.56,1064.6 1009.56,1043.79 1004.28,1042.24 963.237,1033.31 921.337,1030.32 483.285,1030.32 475.983,1043.7 921.337,1043.7 961.333,1046.56 1000.51,1055.08 1005.79,1056.63 1055.42,1076.5 1100.4,1105.4 1139.08,1142.3 1142.68,1146.46 1170.26,1184.23 1191.19,1226.06 1204.9,1270.78 1205.78,1274.84 1210.59,1304.53 1212.2,1334.57 1212.2,2929.17 1209.34,2969.19 1207.35,2978.35 1234.67,2978.35 1235.84,2973 1238.97,2929.17 1238.97,1334.57 1237.21,1301.67 1231.94,1269.15 1231.06,1265.09 1216.05,1216.11 1193.12,1170.3 1162.92,1128.93 1159.32,1124.77 1116.95,1084.36 1067.69,1052.71 1013.34,1030.95 1008.06,1029.4 965.141,1020.06 921.337,1016.93 490.585,1016.93 468.681,1057.09 921.337,1057.09 959.427,1059.81 996.745,1067.93 1002.02,1069.48 1049.29,1088.4 1092.12,1115.93 1128.96,1151.06 1132.57,1155.22 1158.83,1191.2 1178.77,1231.04 1191.82,1273.63 1192.7,1277.68 1197.28,1305.96 1198.82,1334.57 1198.82,2929.17 1196.09,2967.28 1193.68,2978.35 1180.02,2978.35 1182.84,2965.38 1185.43,2929.17 1185.43,1334.57 1183.97,1307.39 1178.74,1276.47 1166.34,1236.01 1147.4,1198.17 1122.45,1163.99 1118.85,1159.83 1083.84,1126.45 1043.16,1100.3 998.255,1082.32 992.975,1080.77 957.523,1073.06 921.337,1070.47 461.379,1070.47 454.079,1083.86 921.337,1083.86 955.619,1086.31 989.203,1093.62 994.483,1095.17 1037.02,1112.19 1075.57,1136.97 1108.73,1168.59 1112.33,1172.75 1135.97,1205.13 1153.91,1240.98 1165.66,1279.31 1166.54,1283.37 1170.66,1308.82 1172.04,1334.57 1172.04,2929.17 1169.59,2963.47 1166.35,2978.35 1152.69,2978.35 1156.34,2961.56 1158.66,2929.17 1158.66,1334.57 1157.36,1310.25 1152.58,1282.16 1141.48,1245.96 1124.54,1212.1 1102.21,1181.52 1098.61,1177.36 1067.29,1147.49 1030.89,1124.09 990.713,1108.01 985.433,1106.46 953.715,1099.56 921.337,1097.25 446.777,1097.25 424.873,1137.4 921.337,1137.4 948.001,1139.31 974.123,1144.99 979.403,1146.54 1012.49,1159.79 1042.47,1179.05 1068.26,1203.65 1071.86,1207.81 1090.24,1232.99 1104.2,1260.88 1113.34,1290.69 1114.22,1294.75 1117.43,1314.54 1118.5,1334.57 1118.5,2929.17 1116.59,2955.85 1111.7,2978.35 1098.02,2978.35 1103.34,2953.94 1105.11,2929.17 1105.11,1334.57 1104.12,1315.97 1100.26,1293.54 1091.77,1265.85 1078.82,1239.96 1061.74,1216.57 1058.14,1212.42 1034.19,1189.58 1006.35,1171.68 975.631,1159.39 970.351,1157.84 946.095,1152.56 921.337,1150.79 417.571,1150.79 381.065,1217.72 921.337,1217.72 936.573,1218.81 951.499,1222.05 956.779,1223.6 975.687,1231.17 992.819,1242.18 1007.55,1256.24 1011.16,1260.4 1021.66,1274.79 1029.64,1290.72 1034.86,1307.76 1035.74,1311.81 1037.57,1323.13 1038.19,1334.57 1038.19,2929.17 1037.1,2944.42 1033.85,2959.35 1032.3,2964.63 1026.8,2978.35 1012.22,2978.35 1012.83,2977.39 1019.45,2960.86 1021,2955.58 1023.85,2942.51 1024.8,2929.17 1024.8,1334.57 1024.26,1324.56 1021.78,1310.6 1017.21,1295.7 1010.23,1281.75 1001.04,1269.16 997.439,1265 984.543,1252.7 969.553,1243.07 953.009,1236.45 947.729,1234.9 934.669,1232.06 921.337,1231.1 373.763,1231.1 366.219,1244.94 373.341,1244.49 921.337,1244.49 932.763,1245.31 943.959,1247.74 949.239,1249.29 963.419,1254.97 976.267,1263.23 987.321,1273.77 990.923,1277.93 998.803,1288.72 1004.78,1300.67 1008.7,1313.45 1009.58,1317.5 1010.95,1325.99 1011.41,1334.57 1011.41,2929.17 1010.6,2940.61 1008.16,2951.81 1006.61,2957.08 1000.94,2971.25 996.379,2978.35 979.755,2978.35 982.163,2975.82 989.039,2965.12 993.767,2953.31 995.317,2948.03 997.347,2938.7 998.029,2929.17 998.029,1334.57 997.645,1327.42 995.619,1316.29 992.355,1305.64 987.371,1295.68 980.805,1286.69 977.203,1282.53 967.993,1273.75 957.285,1266.87 945.469,1262.14 940.189,1260.59 930.859,1258.56 921.337,1257.88 373.341,1257.88 364.993,1258.4 358.169,1259.69 228.905,1496.68 349.081,1276.36 333.659,1304.63 340.247,1297.62 345.741,1293.02 351.965,1289.48 358.719,1287.09 363.401,1285.9 368.331,1284.96 373.341,1284.65 921.337,1284.65 927.049,1285.06 932.647,1286.27 937.927,1287.82 945.017,1290.66 951.441,1294.79 956.969,1300.06 960.571,1304.22 964.511,1309.62 967.501,1315.59 969.459,1321.98 970.341,1326.04 971.027,1330.28 971.257,1334.57 971.257,2929.17 970.849,2934.89 969.631,2940.49 968.081,2945.77 965.243,2952.85 961.119,2959.27 955.853,2964.8 951.695,2968.4 946.295,2972.35 940.317,2975.34 933.925,2977.3 928.835,2978.35 960.657,2978.35 964.619,2974.91 971.641,2967.55 977.141,2958.99 980.923,2949.54 982.473,2944.26 984.099,2936.8 984.643,2929.17 984.643,1334.57 984.337,1328.85 983.421,1323.19 982.539,1319.14 979.927,1310.62 975.941,1302.65 970.687,1295.45 967.085,1291.3 959.717,1284.27 951.151,1278.76 941.697,1274.98 936.417,1273.43 928.955,1271.81 921.337,1271.26 373.341,1271.26 366.661,1271.68 360.089,1272.93 355.407,1274.12 349.081,1276.36 395.667,1190.95 921.337,1190.95 940.381,1192.31 959.041,1196.37 964.321,1197.92 987.953,1207.38 1009.37,1221.14 1027.79,1238.71 1031.39,1242.87 1044.52,1260.86 1054.49,1280.77 1061.02,1302.07 1064.19,1320.27 1064.96,1334.57 1064.96,2929.17 1063.59,2948.23 1059.53,2966.89 1057.98,2972.17 1055.51,2978.35 1041.16,2978.35 1045.14,2968.4 1046.69,2963.12 1050.34,2946.32 1051.57,2929.17 1051.57,1334.57 1050.88,1321.7 1048.82,1308.97 1047.94,1304.91 1042.06,1285.75 1033.09,1267.82 1021.27,1251.63 1017.67,1247.47 1001.09,1231.66 981.819,1219.27 960.549,1210.76 955.269,1209.21 938.477,1205.56 921.337,1204.33 388.367,1204.33 410.271,1164.18 921.337,1164.18 944.191,1165.81 966.581,1170.68 971.861,1172.23 1000.22,1183.58 1025.92,1200.1 1048.02,1221.18 1051.63,1225.34 1067.39,1246.93 1079.35,1270.83 1087.18,1296.38 1090.81,1317.4 1091.73,1334.57 1091.73,2929.17 1090.09,2952.04 1085.22,2974.44 1084.07,2978.35 1069.86,2978.35 1072.38,2970.66 1076.84,2950.13 1078.34,2929.17 1078.34,1334.57 1077.5,1318.83 1074.98,1303.28 1074.1,1299.23 1066.92,1275.8 1055.95,1253.89 1041.51,1234.1 1037.91,1229.94 1017.64,1210.62 994.087,1195.48 968.091,1185.07 962.811,1183.52 942.287,1179.06 921.337,1177.56 402.969,1177.56 446.777,1097.25 439.477,1110.63 921.337,1110.63 951.809,1112.81 981.663,1119.3 986.943,1120.85 1024.76,1135.99 1059.02,1158.01 1088.49,1186.12 1092.1,1190.28 1113.11,1219.06 1129.06,1250.93 1139.5,1285 1144.05,1311.68 1145.27,1334.57 1145.27,2929.17 1143.09,2959.66 1139.03,2978.35 1125.36,2978.35 1129.84,2957.75 1131.89,2929.17 1131.89,1334.57 1130.74,1313.11 1127.3,1291.9 1126.42,1287.85 1116.63,1255.91 1101.68,1226.03 1081.98,1199.04 1078.38,1194.89 1050.74,1168.53 1018.62,1147.89 983.173,1133.7 977.893,1132.15 949.905,1126.06 921.337,1124.02 432.175,1124.02 505.187,990.16 497.887,1003.55 921.337,1003.55 967.047,1006.81 1011.83,1016.55 1017.11,1018.1 1073.83,1040.81 1125.22,1073.84 1169.43,1116.01 1173.04,1120.16 1204.55,1163.34 1228.48,1211.14 1244.14,1262.25 1250.52,1300.24 1252.36,1334.57 1252.36,2929.17 1249.09,2974.9 1248.34,2978.35 1262,2978.35 1262.34,2976.81 1265.74,2929.17 1265.74,1334.57 1263.83,1298.81 1258.1,1263.46 1257.22,1259.4 1240.9,1206.17 1215.98,1156.37 1183.15,1111.4 1179.55,1107.24 1133.5,1063.32 1079.96,1028.91 1020.88,1005.26 1015.6,1003.71 968.951,993.564 921.337,990.16 505.187,990.16 548.997,909.844 921.337,909.844 980.379,914.066 1038.22,926.648 1043.5,928.196 1116.76,957.524 1183.15,1000.19 1240.26,1054.65 1243.86,1058.81 1284.57,1114.58 1315.47,1176.32 1335.7,1242.34 1336.58,1246.39 1343.68,1290.23 1346.06,1334.57 1346.06,2929.17 1342.54,2978.35 1329.16,2978.35 1332.67,2929.17 1332.67,1334.57 1330.37,1291.66 1323.5,1249.24 1322.62,1245.18 1303.04,1181.3 1273.14,1121.54 1233.74,1067.58 1230.14,1063.42 1174.87,1010.71 1110.63,969.422 1039.73,941.04 1034.45,939.49 978.473,927.316 921.337,923.23 541.695,923.23 519.791,963.388 921.337,963.388 972.761,967.064 1023.14,978.022 1028.42,979.572 1092.23,1005.11 1150.05,1042.28 1199.79,1089.71 1203.39,1093.87 1238.85,1142.44 1265.76,1196.22 1283.38,1253.72 1284.26,1257.77 1290.45,1295.95 1292.52,1334.57 1292.52,2929.17 1289,2978.35 1275.61,2978.35 1279.13,2929.17 1279.13,1334.57 1277.14,1297.38 1271.18,1260.62 1270.3,1256.56 1253.33,1201.19 1227.41,1149.41 1193.27,1102.63 1189.67,1098.48 1141.77,1052.8 1086.09,1017.01 1024.65,992.416 1019.37,990.866 970.855,980.314 921.337,976.774 512.489,976.774 534.393,936.618 921.337,936.618 976.569,940.566 1030.68,952.334 1035.96,953.884 1104.49,981.32 1166.6,1021.23 1220.02,1072.18 1223.62,1076.34 1261.71,1128.51 1290.61,1186.27 1309.54,1248.03 1310.42,1252.08 1317.07,1293.09 1319.29,1334.57 1319.29,2929.17 1315.77,2978.35 1302.38,2978.35 1305.9,2929.17 1305.9,1334.57 1303.76,1294.52 1297.34,1254.93 1296.46,1250.87 1278.19,1191.25 1250.28,1135.48 1213.51,1085.11 1209.9,1080.95 1158.32,1031.75 1098.36,993.218 1032.19,966.728 1026.91,965.18 974.665,953.816 921.337,950.002 527.093,950.002 519.791,963.388 622.009,775.986 614.709,789.372 921.337,789.372 997.519,794.82 1072.15,811.052 1077.43,812.602 1171.97,850.444 1257.63,905.498 1331.31,975.772 1334.91,979.93 1387.44,1051.89 1427.31,1131.56 1453.42,1216.74 1454.3,1220.8 1463.47,1277.35 1466.53,1334.57 1466.53,2929.17 1463.01,2978.35 1436.24,2978.35 1439.76,2929.17 1439.76,1334.57 1436.85,1280.22 1428.14,1226.48 1427.26,1222.43 1402.46,1141.51 1364.58,1065.82 1314.68,997.46 1311.08,993.302 1241.07,926.54 1159.7,874.24 1069.89,838.29 1064.61,836.74 993.711,821.318 921.337,816.144 600.105,816.144 585.503,842.916 921.337,842.916 989.901,847.818 1057.07,862.426 1062.35,863.976 1147.43,898.034 1224.52,947.584 1290.84,1010.83 1294.45,1014.99 1341.72,1079.75 1377.6,1151.45 1401.1,1228.12 1401.98,1232.17 1410.23,1283.08 1412.99,1334.57 1412.99,2929.17 1409.47,2978.35 1396.09,2978.35 1399.6,2929.17 1399.6,1334.57 1396.92,1284.51 1388.9,1235.02 1388.02,1230.96 1365.18,1156.43 1330.29,1086.72 1284.33,1023.75 1280.73,1019.6 1216.25,958.104 1141.3,909.932 1058.58,876.82 1053.3,875.27 987.997,861.068 921.337,856.302 578.201,856.302 570.899,869.686 921.337,869.686 986.093,874.318 1049.53,888.116 1054.81,889.664 1135.16,921.832 1207.97,968.626 1270.61,1028.36 1274.21,1032.52 1318.86,1093.68 1352.75,1161.4 1374.94,1233.81 1375.82,1237.86 1383.61,1285.94 1386.22,1334.57 1386.22,2929.17 1382.7,2978.35 1369.31,2978.35 1372.83,2929.17 1372.83,1334.57 1370.3,1287.37 1362.74,1240.71 1361.86,1236.65 1340.32,1166.38 1307.43,1100.65 1264.09,1041.28 1260.49,1037.12 1199.7,979.148 1129.03,933.73 1051.04,902.508 1045.76,900.958 984.187,887.57 921.337,883.074 563.599,883.074 592.805,829.53 921.337,829.53 991.807,834.568 1060.84,849.584 1066.12,851.134 1153.56,886.136 1232.8,937.062 1300.96,1002.07 1304.56,1006.22 1353.15,1072.78 1390.03,1146.48 1414.18,1225.27 1415.06,1229.33 1423.54,1281.65 1426.37,1334.57 1426.37,2929.17 1422.86,2978.35 1449.63,2978.35 1453.15,2929.17 1453.15,1334.57 1450.16,1278.78 1441.22,1223.64 1440.34,1219.58 1414.89,1136.53 1376.01,1058.85 1324.8,988.696 1321.2,984.538 1249.35,916.02 1165.83,862.342 1073.66,825.446 1068.38,823.896 995.615,808.07 921.337,802.758 607.407,802.758 643.913,735.828 921.337,735.828 1005.14,741.822 1087.23,759.676 1092.51,761.226 1196.5,802.852 1290.73,863.412 1371.78,940.714 1375.38,944.872 1433.17,1024.03 1477.02,1111.66 1505.74,1205.36 1506.63,1209.42 1516.7,1271.63 1520.08,1334.57 1520.08,2929.17 1516.56,2978.35 1503.17,2978.35 1506.69,2929.17 1506.69,1334.57 1503.39,1273.06 1493.54,1212.26 1492.66,1208.21 1464.6,1116.64 1421.74,1030.99 1365.27,953.638 1361.67,949.478 1282.45,873.934 1190.37,814.75 1088.74,774.07 1083.46,772.52 1003.23,755.07 921.337,749.214 636.613,749.214 658.517,709.056 921.337,709.056 1008.95,715.322 1094.78,733.988 1100.06,735.538 1208.77,779.056 1307.28,842.368 1392.02,923.188 1395.62,927.344 1456.03,1010.09 1501.88,1101.72 1531.9,1199.67 1532.79,1203.73 1543.32,1268.77 1546.85,1334.57 1546.85,2929.17 1543.33,2978.35 1596.87,2978.35 1583.49,2978.35 1587,2929.17 1587,1334.57 1583.25,1264.48 1572.03,1195.2 1571.14,1191.14 1539.16,1086.79 1490.32,989.198 1425.97,901.05 1422.37,896.892 1332.1,810.804 1227.17,743.364 1111.37,697.008 1106.09,695.458 1014.66,675.572 921.337,668.9 680.421,668.9 687.721,655.514 673.119,682.286 921.337,682.286 1012.76,688.822 1102.32,708.3 1107.59,709.85 1221.04,755.262 1323.83,821.326 1412.25,905.656 1415.85,909.816 1478.89,996.162 1526.73,1091.77 1558.06,1193.98 1558.95,1198.04 1569.94,1265.91 1573.62,1334.57 1573.62,2929.17 1570.1,2978.35 1556.72,2978.35 1560.23,2929.17 1560.23,1334.57 1556.63,1267.34 1545.87,1200.88 1544.98,1196.83 1514.31,1096.74 1467.46,1003.13 1405.74,918.578 1402.14,914.42 1315.55,831.848 1214.9,767.16 1103.83,722.694 1098.54,721.144 1010.85,702.072 921.337,695.672 665.817,695.672 687.721,655.514 921.337,655.514 1016.56,662.324 1109.86,682.614 1115.14,684.164 1233.3,731.466 1340.38,800.284 1432.49,888.126 1436.09,892.284 1501.75,982.232 1551.59,1081.82 1584.22,1188.3 1585.11,1192.35 1596.56,1263.05 1600.39,1334.57 1600.39,2929.17 1596.87,2978.35 1637.03,2978.35 1639.76,2940.18" style="stroke:rgb(103,198,105);stroke-width:26.771654;fill:none;stroke-opacity:0.5;stroke-linecap:round;stroke-linejoin:round;;fill:none"/>
<polyline points="1639.76,1319.88 1636.49,1258.76 1624.35,1183.82 1623.46,1179.76 1588.87,1066.9 1536.04,961.336 1466.44,865.992 1462.84,861.834 1365.2,768.718 1251.7,695.772 1126.45,645.632 1121.17,644.082 1022.28,622.574 921.337,615.356 709.625,615.356 702.325,628.742 921.337,628.742 1020.37,635.824 1117.4,656.926 1122.68,658.476 1245.57,707.67 1356.93,779.24 1452.72,870.598 1456.32,874.756 1524.61,968.3 1576.44,1071.87 1610.38,1182.61 1611.27,1186.66 1623.18,1260.19 1627.16,1334.57 1627.16,2929.17 1623.64,2978.35 1610.26,2978.35 1613.78,2929.17 1613.78,1334.57 1609.87,1261.62 1598.19,1189.51 1597.3,1185.45 1564.02,1076.85 1513.18,975.266 1446.21,883.522 1442.6,879.362 1348.65,789.762 1239.44,719.568 1118.91,671.32 1113.63,669.77 1018.47,649.074 921.337,642.128 695.023,642.128 804.543,441.34 921.337,441.34 1047.04,450.33 1170.18,477.112 1175.46,478.662 1331.44,541.102 1472.78,631.94 1594.37,747.894 1597.97,752.052 1639.76,809.302 1639.76,786.678 1608.09,743.288 1604.48,739.13 1481.06,621.418 1337.58,529.204 1179.23,465.818 1173.95,464.268 1048.94,437.08 921.337,427.954 811.845,427.954 892.159,280.71 921.337,280.71 1069.89,291.334 1215.43,322.986 1220.71,324.536 1405.05,398.328 1572.08,505.684 1639.76,570.224 1639.76,551.812 1580.36,495.162 1411.18,386.43 1224.48,311.692 1219.2,310.142 1071.8,278.084 921.337,267.324 899.461,267.324 1009.84,64.9625 1401.47,64.9645 1505.71,104.692 1639.76,181.656 1639.76,2978.35 1637.03,2978.35 1639.76,2978.35 1639.76,197.044 1499.98,116.786 1363.99,64.9625 1009.84,64.9625 906.763,253.938 914.063,240.554 921.337,240.554 1075.61,251.584 1226.74,284.454 1232.02,286.004 1423.45,362.634 1596.91,474.118 1639.76,514.984 1639.76,496.572 1605.19,463.598 1429.58,350.736 1235.79,273.16 1230.51,271.61 1077.51,238.334 921.363,227.172 1009.84,64.9625 1086.52,64.9645 1102.27,66.0905 1279.53,104.64 1284.81,106.19 1471.31,177.266 1639.76,273.984 1639.76,212.432 1494.25,128.882 1326.52,64.9645 1285.57,64.9625 1296.12,67.6605 1488.51,140.978 1639.76,227.82 1639.76,243.208 1482.78,153.074 1292.35,80.5025 1287.07,78.9525 1222.74,64.9645 1159.92,64.9645 1283.3,91.7965 1288.58,93.3465 1477.05,165.17 1639.76,258.596 1639.76,341.462 1639.76,290.046 1636.84,287.696 1465.58,189.36 1281.04,119.034 1275.76,117.484 1100.37,79.3405 1005.69,72.5705 998.663,85.4525 1098.46,92.5885 1271.99,130.328 1277.27,131.878 1459.85,201.456 1629.29,298.746 1639.76,307.186 1639.76,324.324 1621.73,309.796 1454.11,213.552 1273.5,144.722 1268.22,143.172 1096.56,105.838 991.637,98.3365 977.581,124.102 984.609,111.222 1094.65,119.088 1264.45,156.016 1269.73,157.566 1448.38,225.648 1614.18,320.844 1639.76,341.462 1639.76,441.332 1639.76,422.918 1638.29,421.512 1454.12,303.146 1250.87,221.786 1245.59,220.236 1085.13,185.336 949.473,175.638 970.555,136.986 1090.84,145.588 1256.9,181.704 1262.18,183.254 1436.91,249.84 1599.07,342.944 1639.76,375.74 1639.76,358.602 1606.62,331.894 1442.64,237.744 1265.95,170.41 1260.67,168.86 1092.75,132.338 977.581,124.104 956.501,162.752 963.527,149.872 1088.94,158.838 1253.13,194.548 1258.41,196.098 1431.18,261.934 1591.51,353.994 1639.76,392.878 1639.76,406.62 1460.25,291.248 1254.64,208.942 1249.36,207.392 1087.04,172.086 956.501,162.752 935.419,201.404 1081.32,211.836 1238.05,245.922 1243.33,247.472 1441.85,326.942 1621.74,442.554 1639.76,459.744 1639.76,478.158 1613.46,453.076 1435.72,338.838 1239.56,260.316 1234.28,258.766 1079.42,225.086 928.391,214.288 942.445,188.522 1083.22,198.586 1241.82,233.078 1247.1,234.628 1447.99,315.044 1630.01,432.034 1639.76,441.332 1639.76,533.398 1588.64,484.64 1417.32,374.532 1228.25,298.848 1222.97,297.298 1073.7,264.834 921.337,253.938 906.763,253.938 819.147,414.568 921.337,414.568 1050.85,423.83 1177.73,451.424 1183.01,452.974 1343.71,517.306 1489.33,610.898 1614.6,730.364 1618.2,734.522 1639.76,764.054 1639.76,741.43 1628.32,725.758 1624.72,721.6 1497.61,600.376 1349.84,505.408 1186.78,440.13 1181.5,438.58 1052.75,410.58 921.337,401.182 826.447,401.182 833.749,387.798 921.337,387.798 1054.66,397.33 1185.27,425.736 1190.55,427.286 1355.98,493.51 1505.88,589.854 1634.84,712.836 1639.76,718.806 1639.76,699.118 1514.16,579.334 1362.11,481.612 1194.32,414.442 1189.04,412.892 1056.56,384.08 921.337,374.412 841.051,374.412 848.351,361.026 921.337,361.026 1058.47,370.832 1192.81,400.048 1198.09,401.598 1368.25,469.714 1522.43,568.812 1639.76,680.706 1639.76,662.292 1530.71,558.29 1374.38,457.816 1201.86,388.756 1196.58,387.206 1060.37,357.582 921.337,347.64 855.653,347.64 862.955,334.254 921.337,334.254 1062.28,344.332 1200.35,374.362 1205.63,375.912 1380.51,445.918 1538.98,547.768 1639.76,643.878 1639.76,588.638 1563.81,516.204 1398.91,410.226 1216.94,337.38 1211.66,335.83 1067.99,304.584 921.337,294.096 884.859,294.096 892.159,280.71 877.557,307.482 921.337,307.482 1066.08,317.832 1207.89,348.674 1213.17,350.224 1392.78,422.124 1555.53,526.726 1639.76,607.052 1639.76,625.464 1547.26,537.248 1386.65,434.022 1209.4,363.068 1204.12,361.518 1064.18,331.082 921.337,320.868 870.255,320.868 789.941,468.112 921.337,468.112 1043.23,476.828 1162.64,502.8 1167.92,504.35 1319.18,564.896 1456.23,652.984 1574.13,765.422 1577.73,769.58 1639.76,854.55 1639.76,831.926 1587.85,760.816 1584.25,756.658 1464.51,642.462 1325.31,552.998 1171.69,491.506 1166.41,489.956 1045.13,463.578 921.337,454.726 797.241,454.726 775.337,494.884 921.337,494.884 1039.42,503.328 1155.1,528.488 1160.38,530.038 1306.91,588.692 1439.68,674.026 1553.9,782.952 1557.5,787.11 1638.92,898.644 1639.76,900.326 1639.76,877.174 1567.62,778.346 1564.01,774.188 1447.96,663.504 1313.04,576.794 1164.15,517.194 1158.87,515.644 1041.32,490.078 921.337,481.498 782.639,481.498 768.037,508.27 921.337,508.27 1037.52,516.578 1151.33,541.332 1156.61,542.882 1300.77,600.59 1431.41,684.548 1543.78,791.716 1547.38,795.874 1627.49,905.61 1639.76,930.134 1639.76,959.94 1616.06,912.576 1537.26,804.64 1533.66,800.482 1423.13,695.068 1294.64,612.488 1152.84,555.724 1147.56,554.174 1035.61,529.826 921.337,521.656 760.735,521.656 775.337,494.884 746.133,548.428 921.337,548.428 1031.8,556.326 1140.02,579.862 1145.3,581.412 1282.37,636.284 1406.58,716.112 1513.43,818.01 1517.03,822.168 1593.2,926.506 1639.76,1019.55 1639.76,989.748 1604.63,919.544 1527.15,813.404 1523.54,809.246 1414.85,705.59 1288.51,624.386 1149.07,568.568 1143.79,567.018 1033.71,543.076 921.337,535.042 753.433,535.042 716.927,601.97 731.531,575.198 921.337,575.198 1027.99,582.826 1132.48,605.55 1137.76,607.1 1270.11,660.08 1390.03,737.154 1493.19,835.54 1496.79,839.698 1570.33,940.44 1626.15,1051.98 1639.76,1096.37 1639.76,1050.85 1638.58,1047 1581.77,933.472 1506.91,830.932 1503.31,826.774 1398.3,726.634 1276.24,648.182 1141.53,594.256 1136.25,592.706 1029.9,569.576 921.337,561.812 738.831,561.812 724.229,588.584 921.337,588.584 1026.09,596.076 1128.71,618.394 1133.99,619.944 1263.97,671.976 1381.75,747.676 1483.07,844.304 1486.68,848.462 1558.9,947.404 1613.73,1056.95 1639.76,1141.89 1639.76,1195.39 1636.54,1176.92 1601.3,1061.93 1547.47,954.37 1476.56,857.226 1472.96,853.068 1373.48,758.198 1257.84,683.874 1130.22,632.788 1124.94,631.238 1024.18,609.324 921.337,601.97 716.927,601.97 64.9606,1797.24 64.9606,1802.48 67.4666,1792.65 64.9606,1802.48 64.9606,1926.38 64.9606,1924.9 65.2226,1926.38 64.9606,1926.38 64.9606,1953.15 64.9606,1939.77 85.6866,1939.77 98.2826,1946.7 85.6866,1939.77 85.0186,1938.99 82.3906,1935.39 80.3966,1931.41 79.0886,1927.15 77.7486,1920.26 77.5966,1809.78 77.8046,1806.45 78.4246,1803.17 80.6426,1795.32 82.0566,1792.29 341.267,1317.07 343.331,1313.86 349.717,1307.08 353.381,1304.02 357.529,1301.65 362.033,1300.06 366.715,1298.87 370.001,1298.24 373.341,1298.03 921.337,1298.03 925.145,1298.31 928.877,1299.12 934.157,1300.67 938.883,1302.56 943.167,1305.31 946.851,1308.83 950.453,1312.98 953.079,1316.58 955.073,1320.57 957.261,1328.88 957.871,1334.57 957.871,2929.17 957.599,2932.99 956.787,2936.72 955.237,2942 953.345,2946.72 950.595,2951 947.085,2954.68 942.927,2958.29 939.327,2960.92 935.341,2962.91 927.025,2965.1 921.337,2965.71 114.133,2965.71 110.321,2965.44 101.311,2963.08 96.5866,2961.18 92.3066,2958.43 88.6226,2954.92 85.0186,2950.77 82.3846,2947.16 80.3866,2943.16 78.2006,2934.8 77.6246,2930.4 77.7866,2925.96 78.6806,2921.61 80.2906,2916.18 86.6946,2910.43 80.2906,2916.18 74.7546,2917.2 64.9606,2917.35 64.9606,2903.96 73.3546,2903.89 88.4246,2900.76 91.0866,2899.9 105.117,2893.57 117.613,2884.58 119.691,2882.71 129.937,2871.22 138.125,2857.09 152.057,2857.09 145.731,2870.65 136.407,2883.97 124.911,2895.46 111.593,2904.79 102.701,2909.08 97.1086,2913.79 95.3726,2915.63 94.0106,2917.75 93.0746,2920.1 91.0766,2927.55 90.9966,2929.77 92.1666,2936.06 93.8166,2940.19 95.1346,2942 98.7386,2946.16 100.581,2947.91 102.721,2949.29 110.361,2951.78 114.133,2952.32 921.337,2952.32 928.237,2951.14 932.359,2949.49 938.317,2944.57 940.073,2942.73 941.447,2940.59 943.943,2932.95 944.485,2929.17 944.485,1334.57 944.181,1331.72 942.645,1325.54 940.335,1321.75 936.733,1317.59 934.891,1315.83 932.749,1314.46 925.107,1311.96 921.337,1311.42 373.341,1311.42 370.027,1311.84 365.345,1313.03 363.093,1313.83 361.019,1315.01 355.299,1320.43 353.019,1323.48 93.8086,1798.7 92.5886,1801.8 91.3966,1806.48 90.9826,1809.78 90.9826,1917.4 91.2866,1920.25 92.8226,1926.43 95.1346,1930.23 98.7386,1934.38 100.581,1936.14 102.721,1937.51 105.083,1938.46 112.227,1940.42 134.939,1940.55 137.239,1940.8 144.469,1943.5 150.451,1947.97 154.929,1953.96 157.625,1961.19 157.873,1963.49 157.873,2000.4 145.275,2000.4 145.071,1964.21 144.467,1961.96 143.481,1959.84 142.143,1957.93 140.493,1956.28 138.583,1954.95 136.467,1953.96 134.213,1953.36 131.889,1953.15 64.9606,1953.15 62.3506,1953.41 59.8386,1954.17 57.5246,1955.41 55.4966,1957.07 53.8326,1959.1 52.5946,1961.41 51.8326,1963.93 51.5766,1966.54 51.5766,2100.39 51.8326,2103.01 52.5946,2105.52 53.8326,2107.83 55.4966,2109.86 57.5246,2111.52 59.8386,2112.76 62.3506,2113.52 64.9606,2113.78 131.889,2113.78 134.213,2113.58 136.467,2112.97 138.583,2111.99 140.493,2110.65 142.143,2109 143.481,2107.09 144.467,2104.97 145.071,2102.72 145.275,2066.54 157.873,2066.54 157.873,2103.45 157.625,2105.75 154.929,2112.98 150.451,2118.96 144.469,2123.44 134.133,2127.44 130.089,2129.8 128.647,2131.05 124.099,2136.9 122.775,2139.07 121.885,2141.45 121.463,2143.97 121.071,2149.45 121.131,2152 121.671,2154.48 125.309,2161.65 127.591,2164.7 136.407,2173.51 145.731,2186.83 152.057,2200.4 138.127,2200.4 129.937,2186.26 119.691,2174.77 117.613,2172.9 105.117,2163.91 91.0866,2157.58 88.4246,2156.72 73.3546,2153.59 64.9606,2153.52 64.9606,2113.78 64.9606,2140.13 64.9606,2127.17 114.663,2127.17 125.391,2120.69 114.663,2127.17 110.735,2133.22 108.955,2137.99 108.111,2143.01 107.763,2150.36 112.431,2158.07 107.763,2150.36 93.9146,2144.35 74.7546,2140.28 64.9606,2140.13 64.9606,2153.52 62.3506,2153.77 59.8386,2154.54 57.5246,2155.77 55.4966,2157.44 53.8326,2159.47 52.5946,2161.78 51.8326,2164.29 51.5766,2166.9 51.5766,2300.03 51.8326,2302.64 52.5946,2305.15 53.8326,2307.46 55.4966,2309.49 57.5246,2311.16 59.8386,2312.39 62.3506,2313.16 71.9546,2313.41 74.7386,2313.12 88.4246,2310.21 91.0866,2309.35 105.117,2303.02 118.701,2293.15 129.937,2280.67 138.125,2266.54 152.057,2266.54 145.731,2280.1 136.407,2293.42 124.911,2304.91 111.593,2314.24 102.703,2318.53 97.1126,2323.24 95.3746,2325.07 94.0126,2327.2 91.5246,2334.83 90.9826,2338.6 90.9826,2507.95 92.1686,2514.86 93.8206,2518.98 98.7386,2524.94 100.581,2526.69 102.721,2528.07 105.083,2529.01 112.227,2530.97 134.939,2531.1 137.239,2531.35 144.469,2534.05 150.451,2538.53 154.929,2544.51 157.625,2551.74 157.873,2554.04 157.873,2590.95 145.275,2590.95 145.071,2554.76 144.467,2552.51 143.481,2550.39 142.143,2548.48 140.493,2546.83 138.583,2545.49 136.467,2544.51 134.213,2543.9 131.889,2543.7 64.9606,2543.7 64.9606,2530.32 85.6866,2530.32 98.2826,2537.25 85.6866,2530.32 82.3906,2525.95 80.3966,2521.96 79.0886,2517.7 77.7486,2510.82 77.5966,2507.95 77.5966,2338.6 77.8686,2334.79 80.2906,2325.63 86.9646,2319.76 80.2906,2325.63 74.7546,2326.65 64.9606,2326.8 64.9606,2313.41 64.9606,2516.93 64.9606,2515.45 65.2226,2516.93 64.9606,2516.93 64.9606,2543.7 62.3506,2543.96 59.8386,2544.72 57.5246,2545.96 55.4966,2547.62 53.8326,2549.65 52.5946,2551.96 51.8326,2554.48 51.5766,2557.09 51.5766,2690.95 51.8326,2693.56 52.5946,2696.07 53.8326,2698.38 55.4966,2700.41 57.5246,2702.08 59.8386,2703.31 62.3506,2704.07 64.9606,2704.33 131.889,2704.33 134.213,2704.13 136.467,2703.52 138.583,2702.54 140.493,2701.2 142.143,2699.55 143.481,2697.64 144.467,2695.52 145.071,2693.27 145.275,2657.09 157.873,2657.09 157.873,2694 157.625,2696.3 154.929,2703.53 150.451,2709.51 144.469,2713.99 134.133,2717.99 130.089,2720.35 128.647,2721.6 124.099,2727.45 122.775,2729.62 121.885,2732.01 121.463,2734.52 121.071,2740.01 121.131,2742.55 121.671,2745.03 125.309,2752.2 127.591,2755.25 136.407,2764.07 145.731,2777.38 152.057,2790.95 138.127,2790.95 129.937,2776.81 119.691,2765.32 117.613,2763.45 105.117,2754.46 91.0866,2748.13 88.4246,2747.27 73.3546,2744.14 64.9606,2744.07 64.9606,2704.33 64.9606,2730.68 64.9606,2717.72 114.663,2717.72 125.393,2711.25 114.663,2717.72 110.735,2723.77 108.955,2728.54 108.111,2733.56 107.763,2740.91 112.431,2748.62 107.763,2740.91 93.9146,2734.9 74.7546,2730.83 64.9606,2730.68 64.9606,2744.07 62.3506,2744.33 59.8386,2745.09 57.5246,2746.32 55.4966,2747.99 53.8326,2750.02 52.5946,2752.33 51.8326,2754.84 51.5766,2757.45 51.5766,2890.58 51.7786,2892.9 52.3826,2895.16 53.3686,2897.27 54.7066,2899.18 56.3566,2900.83 58.2686,2902.17 60.3826,2903.16 62.6366,2903.76 64.9606,2903.96 64.9606,2978.35 74.5706,2978.35 68.3926,2972.46 64.9606,2968.5 68.3926,2972.46 74.5706,2978.35 106.851,2978.35 97.5386,2975.92 90.4526,2973.08 84.0326,2968.96 78.5086,2963.69 74.9046,2959.53 70.9526,2954.12 67.9546,2948.12 65.9986,2941.71 64.9606,2936.43 65.9986,2941.71 67.9546,2948.12 70.9526,2954.12 74.9046,2959.53 78.5086,2963.69 84.0326,2968.96 90.4526,2973.08 97.5386,2975.92 106.851,2978.35 1543.33,2978.35 1529.94,2978.35 1533.46,2929.17 1533.46,1334.57 1530.01,1270.2 1519.71,1206.57 1518.82,1202.52 1489.45,1106.69 1444.6,1017.06 1385.5,936.108 1381.9,931.95 1299,852.89 1202.63,790.954 1096.28,748.382 1091,746.832 1007.04,728.572 921.337,722.442 651.215,722.442 629.311,762.6 921.337,762.6 1001.33,768.32 1079.69,785.364 1084.97,786.914 1184.23,826.648 1274.18,884.456 1351.55,958.244 1355.15,962.402 1410.31,1037.96 1452.17,1121.61 1479.58,1211.05 1480.46,1215.11 1490.08,1274.49 1493.3,1334.57 1493.3,2929.17 1489.79,2978.35 1476.4,2978.35 1479.92,2929.17 1479.92,1334.57 1476.78,1275.92 1467.38,1217.95 1466.5,1213.89 1439.74,1126.59 1398.87,1044.92 1345.03,971.166 1341.43,967.01 1265.9,894.976 1178.1,838.546 1081.2,799.758 1075.92,798.208 999.425,781.57 921.337,775.986 622.009,775.986 556.297,896.458 921.337,896.458 982.283,900.818 1041.99,913.802 1047.27,915.352 1122.9,945.628 1191.42,989.67 1250.37,1045.89 1253.98,1050.05 1296,1107.61 1327.9,1171.35 1348.78,1239.49 1349.66,1243.55 1356.99,1288.8 1359.45,1334.57 1359.45,2929.17 1355.93,2978.35 1221.01,2978.35 1222.59,2971.09 1225.59,2929.17 1225.59,1334.57 1223.9,1303.1 1218.86,1271.99 1217.98,1267.94 1203.62,1221.09 1181.69,1177.27 1152.8,1137.69 1149.2,1133.53 1108.67,1094.88 1061.56,1064.6 1009.56,1043.79 1004.28,1042.24 963.237,1033.31 921.337,1030.32 483.285,1030.32 475.983,1043.7 921.337,1043.7 961.333,1046.56 1000.51,1055.08 1005.79,1056.63 1055.42,1076.5 1100.4,1105.4 1139.08,1142.3 1142.68,1146.46 1170.26,1184.23 1191.19,1226.06 1204.9,1270.78 1205.78,1274.84 1210.59,1304.53 1212.2,1334.57 1212.2,2929.17 1209.34,2969.19 1207.35,2978.35 1234.67,2978.35 1235.84,2973 1238.97,2929.17 1238.97,1334.57 1237.21,1301.67 1231.94,1269.15 1231.06,1265.09 1216.05,1216.11 1193.12,1170.3 1162.92,1128.93 1159.32,1124.77 1116.95,1084.36 1067.69,1052.71 1013.34,1030.95 1008.06,1029.4 965.141,1020.06 921.337,1016.93 490.585,1016.93 468.681,1057.09 921.337,1057.09 959.427,1059.81 996.745,1067.93 1002.02,1069.48 1049.29,1088.4 1092.12,1115.93 1128.96,1151.06 1132.57,1155.22 1158.83,1191.2 1178.77,1231.04 1191.82,1273.63 1192.7,1277.68 1197.28,1305.96 1198.82,1334.57 1198.82,2929.17 1196.09,2967.28 1193.68,2978.35 1180.02,2978.35 1182.84,2965.38 1185.43,2929.17 1185.43,1334.57 1183.97,1307.39 1178.74,1276.47 1166.34,1236.01 1147.4,1198.17 1122.45,1163.99 1118.85,1159.83 1083.84,1126.45 1043.16,1100.3 998.255,1082.32 992.975,1080.77 957.523,1073.06 921.337,1070.47 461.379,1070.47 454.079,1083.86 921.337,1083.86 955.619,1086.31 989.203,1093.62 994.483,1095.17 1037.02,1112.19 1075.57,1136.97 1108.73,1168.59 1112.33,1172.75 1135.97,1205.13 1153.91,1240.98 1165.66,1279.31 1166.54,1283.37 1170.66,1308.82 1172.04,1334.57 1172.04,2929.17 1169.59,2963.47 1166.35,2978.35 1152.69,2978.35 1156.34,2961.56 1158.66,2929.17 1158.66,1334.57 1157.36,1310.25 1152.58,1282.16 1141.48,1245.96 1124.54,1212.1 1102.21,1181.52 1098.61,1177.36 1067.29,1147.49 1030.89,1124.09 990.713,1108.01 985.433,1106.46 953.715,1099.56 921.337,1097.25 446.777,1097.25 424.873,1137.4 921.337,1137.4 948.001,1139.31 974.123,1144.99 979.403,1146.54 1012.49,1159.79 1042.47,1179.05 1068.26,1203.65 1071.86,1207.81 1090.24,1232.99 1104.2,1260.88 1113.34,1290.69 1114.22,1294.75 1117.43,1314.54 1118.5,1334.57 1118.5,2929.17 1116.59,2955.85 1111.7,2978.35 1098.02,2978.35 1103.34,2953.94 1105.11,2929.17 1105.11,1334.57 1104.12,1315.97 1100.26,1293.54 1091.77,1265.85 1078.82,1239.96 1061.74,1216.57 1058.14,1212.42 1034.19,1189.58 1006.35,1171.68 975.631,1159.39 970.351,1157.84 946.095,1152.56 921.337,1150.79 417.571,1150.79 381.065,1217.72 921.337,1217.72 936.573,1218.81 951.499,1222.05 956.779,1223.6 975.687,1231.17 992.819,1242.18 1007.55,1256.24 1011.16,1260.4 1021.66,1274.79 1029.64,1290.72 1034.86,1307.76 1035.74,1311.81 1037.57,1323.13 1038.19,1334.57 1038.19,2929.17 1037.1,2944.42 1033.85,2959.35 1032.3,2964.63 1026.8,2978.35 1012.22,2978.35 1012.83,2977.39 1019.45,2960.86 1021,2955.58 1023.85,2942.51 1024.8,2929.17 1024.8,1334.57 1024.26,1324.56 1021.78,1310.6 1017.21,1295.7 1010.23,1281.75 1001.04,1269.16 997.439,1265 984.543,1252.7 969.553,1243.07 953.009,1236.45 947.729,1234.9 934.669,1232.06 921.337,1231.1 373.763,1231.1 366.219,1244.94 373.341,1244.49 921.337,1244.49 932.763,1245.31 943.959,1247.74 949.239,1249.29 963.419,1254.97 976.267,1263.23 987.321,1273.77 990.923,1277.93 998.803,1288.72 1004.78,1300.67 1008.7,1313.45 1009.58,1317.5 1010.95,1325.99 1011.41,1334.57 1011.41,2929.17 1010.6,2940.61 1008.16,2951.81 1006.61,2957.08 1000.94,2971.25 996.379,2978.35 979.755,2978.35 982.163,2975.82 989.039,2965.12 993.767,2953.31 995.317,2948.03 997.347,2938.7 998.029,2929.17 998.029,1334.57 997.645,1327.42 995.619,1316.29 992.355,1305.64 987.371,1295.68 980.805,1286.69 977.203,1282.53 967.993,1273.75 957.285,1266.87 945.469,1262.14 940.189,1260.59 930.859,1258.56 921.337,1257.88 373.341,1257.88 364.993,1258.4 358.169,1259.69 228.905,1496.68 349.081,1276.36 333.659,1304.63 340.247,1297.62 345.741,1293.02 351.965,1289.48 358.719,1287.09 363.401,1285.9 368.331,1284.96 373.341,1284.65 921.337,1284.65 927.049,1285.06 932.647,1286.27 937.927,1287.82 945.017,1290.66 951.441,1294.79 956.969,1300.06 960.571,1304.22 964.511,1309.62 967.501,1315.59 969.459,1321.98 970.341,1326.04 971.027,1330.28 971.257,1334.57 971.257,2929.17 970.849,2934.89 969.631,2940.49 968.081,2945.77 965.243,2952.85 961.119,2959.27 955.853,2964.8 951.695,2968.4 946.295,2972.35 940.317,2975.34 933.925,2977.3 928.835,2978.35 960.657,2978.35 964.619,2974.91 971.641,2967.55 977.141,2958.99 980.923,2949.54 982.473,2944.26 984.099,2936.8 984.643,2929.17 984.643,1334.57 984.337,1328.85 983.421,1323.19 982.539,1319.14 979.927,1310.62 975.941,1302.65 970.687,1295.45 967.085,1291.3 959.717,1284.27 951.151,1278.76 941.697,1274.98 936.417,1273.43 928.955,1271.81 921.337,1271.26 373.341,1271.26 366.661,1271.68 360.089,1272.93 355.407,1274.12 349.081,1276.36 395.667,1190.95 921.337,1190.95 940.381,1192.31 959.041,1196.37 964.321,1197.92 987.953,1207.38 1009.37,1221.14 1027.79,1238.71 1031.39,1242.87 1044.52,1260.86 1054.49,1280.77 1061.02,1302.07 1064.19,1320.27 1064.96,1334.57 1064.96,2929.17 1063.59,2948.23 1059.53,2966.89 1057.98,2972.17 1055.51,2978.35 1041.16,2978.35 1045.14,2968.4 1046.69,2963.12 1050.34,2946.32 1051.57,2929.17 1051.57,1334.57 1050.88,1321.7 1048.82,1308.97 1047.94,1304.91 1042.06,1285.75 1033.09,1267.82 1021.27,1251.63 1017.67,1247.47 1001.09,1231.66 981.819,1219.27 960.549,1210.76 955.269,1209.21 938.477,1205.56 921.337,1204.33 388.367,1204.33 410.271,1164.18 921.337,1164.18 944.191,1165.81 966.581,1170.68 971.861,1172.23 1000.22,1183.58 1025.92,1200.1 1048.02,1221.18 1051.63,1225.34 1067.39,1246.93 1079.35,1270.83 1087.18,1296.38 1090.81,1317.4 1091.73,1334.57 1091.73,2929.17 1090.09,2952.04 1085.22,2974.44 1084.07,2978.35 1069.86,2978.35 1072.38,2970.66 1076.84,2950.13 1078.34,2929.17 1078.34,1334.57 1077.5,1318.83 1074.98,1303.28 1074.1,1299.23 1066.92,1275.8 1055.95,1253.89 1041.51,1234.1 1037.91,1229.94 1017.64,1210.62 994.087,1195.48 968.091,1185.07 962.811,1183.52 942.287,1179.06 921.337,1177.56 402.969,1177.56 446.777,1097.25 439.477,1110.63 921.337,1110.63 951.809,1112.81 981.663,1119.3 986.943,1120.85 1024.76,1135.99 1059.02,1158.01 1088.49,1186.12 1092.1,1190.28 1113.11,1219.06 1129.06,1250.93 1139.5,1285 1144.05,1311.68 1145.27,1334.57 1145.27,2929.17 1143.09,2959.66 1139.03,2978.35 1125.36,2978.35 1129.84,2957.75 1131.89,2929.17 1131.89,1334.57 1130.74,1313.11 1127.3,1291.9 1126.42,1287.85 1116.63,1255.91 1101.68,1226.03 1081.98,1199.04 1078.38,1194.89 1050.74,1168.53 1018.62,1147.89 983.173,1133.7 977.893,1132.15 949.905,1126.06 921.337,1124.02 432.175,1124.02 505.187,990.16 497.887,1003.55 921.337,1003.55 967.047,1006.81 1011.83,1016.55 1017.11,1018.1 1073.83,1040.81 1125.22,1073.84 1169.43,1116.01 1173.04,1120.16 1204.55,1163.34 1228.48,1211.14 1244.14,1262.25 1250.52,1300.24 1252.36,1334.57 1252.36,2929.17 1249.09,2974.9 1248.34,2978.35 1262,2978.35 1262.34,2976.81 1265.74,2929.17 1265.74,1334.57 1263.83,1298.81 1258.1,1263.46 1257.22,1259.4 1240.9,1206.17 1215.98,1156.37 1183.15,1111.4 1179.55,1107.24 1133.5,1063.32 1079.96,1028.91 1020.88,1005.26 1015.6,1003.71 968.951,993.564 921.337,990.16 505.187,990.16 548.997,909.844 921.337,909.844 980.379,914.066 1038.22,926.648 1043.5,928.196 1116.76,957.524 1183.15,1000.19 1240.26,1054.65 1243.86,1058.81 1284.57,1114.58 1315.47,1176.32 1335.7,1242.34 1336.58,1246.39 1343.68,1290.23 1346.06,1334.57 1346.06,2929.17 1342.54,2978.35 1329.16,2978.35 1332.67,2929.17 1332.67,1334.57 1330.37,1291.66 1323.5,1249.24 1322.62,1245.18 1303.04,1181.3 1273.14,1121.54 1233.74,1067.58 1230.14,1063.42 1174.87,1010.71 1110.63,969.422 1039.73,941.04 1034.45,939.49 978.473,927.316 921.337,923.23 541.695,923.23 519.791,963.388 921.337,963.388 972.761,967.064 1023.14,978.022 1028.42,979.572 1092.23,1005.11 1150.05,1042.28 1199.79,1089.71 1203.39,1093.87 1238.85,1142.44 1265.76,1196.22 1283.38,1253.72 1284.26,1257.77 1290.45,1295.95 1292.52,1334.57 1292.52,2929.17 1289,2978.35 1275.61,2978.35 1279.13,2929.17 1279.13,1334.57 1277.14,1297.38 1271.18,1260.62 1270.3,1256.56 1253.33,1201.19 1227.41,1149.41 1193.27,1102.63 1189.67,1098.48 1141.77,1052.8 1086.09,1017.01 1024.65,992.416 1019.37,990.866 970.855,980.314 921.337,976.774 512.489,976.774 534.393,936.618 921.337,936.618 976.569,940.566 1030.68,952.334 1035.96,953.884 1104.49,981.32 1166.6,1021.23 1220.02,1072.18 1223.62,1076.34 1261.71,1128.51 1290.61,1186.27 1309.54,1248.03 1310.42,1252.08 1317.07,1293.09 1319.29,1334.57 1319.29,2929.17 1315.77,2978.35 1302.38,2978.35 1305.9,2929.17 1305.9,1334.57 1303.76,1294.52 1297.34,1254.93 1296.46,1250.87 1278.19,1191.25 1250.28,1135.48 1213.51,1085.11 1209.9,1080.95 1158.32,1031.75 1098.36,993.218 1032.19,966.728 1026.91,965.18 974.665,953.816 921.337,950.002 527.093,950.002 519.791,963.388 622.009,775.986 614.709,789.372 921.337,789.372 997.519,794.82 1072.15,811.052 1077.43,812.602 1171.97,850.444 1257.63,905.498 1331.31,975.772 1334.91,979.93 1387.44,1051.89 1427.31,1131.56 1453.42,1216.74 1454.3,1220.8 1463.47,1277.35 1466.53,1334.57 1466.53,2929.17 1463.01,2978.35 1436.24,2978.35 1439.76,2929.17 1439.76,1334.57 1436.85,1280.22 1428.14,1226.48 1427.26,1222.43 1402.46,1141.51 1364.58,1065.82 1314.68,997.46 1311.08,993.302 1241.07,926.54 1159.7,874.24 1069.89,838.29 1064.61,836.74 993.711,821.318 921.337,816.144 600.105,816.144 585.503,842.916 921.337,842.916 989.901,847.818 1057.07,862.426 1062.35,863.976 1147.43,898.034 1224.52,947.584 1290.84,1010.83 1294.45,1014.99 1341.72,1079.75 1377.6,1151.45 1401.1,1228.12 1401.98,1232.17 1410.23,1283.08 1412.99,1334.57 1412.99,2929.17 1409.47,2978.35 1396.09,2978.35 1399.6,2929.17 1399.6,1334.57 1396.92,1284.51 1388.9,1235.02 1388.02,1230.96 1365.18,1156.43 1330.29,1086.72 1284.33,1023.75 1280.73,1019.6 1216.25,958.104 1141.3,909.932 1058.58,876.82 1053.3,875.27 987.997,861.068 921.337,856.302 578.201,856.302 570.899,869.686 921.337,869.686 986.093,874.318 1049.53,888.116 1054.81,889.664 1135.16,921.832 1207.97,968.626 1270.61,1028.36 1274.21,1032.52 1318.86,1093.68 1352.75,1161.4 1374.94,1233.81 1375.82,1237.86 1383.61,1285.94 1386.22,1334.57 1386.22,2929.17 1382.7,2978.35 1369.31,2978.35 1372.83,2929.17 1372.83,1334.57 1370.3,1287.37 1362.74,1240.71 1361.86,1236.65 1340.32,1166.38 1307.43,1100.65 1264.09,1041.28 1260.49,1037.12 1199.7,979.148 1129.03,933.73 1051.04,902.508 1045.76,900.958 984.187,887.57 921.337,883.074 563.599,883.074 592.805,829.53 921.337,829.53 991.807,834.568 1060.84,849.584 1066.12,851.134 1153.56,886.136 1232.8,937.062 1300.96,1002.07 1304.56,1006.22 1353.15,1072.78 1390.03,1146.48 1414.18,1225.27 1415.06,1229.33 1423.54,1281.65 1426.37,1334.57 1426.37,2929.17 1422.86,2978.35 1449.63,2978.35 1453.15,2929.17 1453.15,1334.57 1450.16,1278.78 1441.22,1223.64 1440.34,1219.58 1414.89,1136.53 1376.01,1058.85 1324.8,988.696 1321.2,984.538 1249.35,916.02 1165.83,862.342 1073.66,825.446 1068.38,823.896 995.615,808.07 921.337,802.758 607.407,802.758 643.913,735.828 921.337,735.828 1005.14,741.822 1087.23,759.676 1092.51,761.226 1196.5,802.852 1290.73,863.412 1371.78,940.714 1375.38,944.872 1433.17,1024.03 1477.02,1111.66 1505.74,1205.36 1506.63,1209.42 1516.7,1271.63 1520.08,1334.57 1520.08,2929.17 1516.56,2978.35 1503.17,2978.35 1506.69,2929.17 1506.69,1334.57 1503.39,1273.06 1493.54,1212.26 1492.66,1208.21 1464.6,1116.64 1421.74,1030.99 1365.27,953.638 1361.67,949.478 1282.45,873.934 1190.37,814.75 1088.74,774.07 1083.46,772.52 1003.23,755.07 921.337,749.214 636.613,749.214 658.517,709.056 921.337,709.056 1008.95,715.322 1094.78,733.988 1100.06,735.538 1208.77,779.056 1307.28,842.368 1392.02,923.188 1395.62,927.344 1456.03,1010.09 1501.88,1101.72 1531.9,1199.67 1532.79,1203.73 1543.32,1268.77 1546.85,1334.57 1546.85,2929.17 1543.33,2978.35 1596.87,2978.35 1583.49,2978.35 1587,2929.17 1587,1334.57 1583.25,1264.48 1572.03,1195.2 1571.14,1191.14 1539.16,1086.79 1490.32,989.198 1425.97,901.05 1422.37,896.892 1332.1,810.804 1227.17,743.364 1111.37,697.008 1106.09,695.458 1014.66,675.572 921.337,668.9 680.421,668.9 687.721,655.514 673.119,682.286 921.337,682.286 1012.76,688.822 1102.32,708.3 1107.59,709.85 1221.04,755.262 1323.83,821.326 1412.25,905.656 1415.85,909.816 1478.89,996.162 1526.73,1091.77 1558.06,1193.98 1558.95,1198.04 1569.94,1265.91 1573.62,1334.57 1573.62,2929.17 1570.1,2978.35 1556.72,2978.35 1560.23,2929.17 1560.23,1334.57 1556.63,1267.34 1545.87,1200.88 1544.98,1196.83 1514.31,1096.74 1467.46,1003.13 1405.74,918.578 1402.14,914.42 1315.55,831.848 1214.9,767.16 1103.83,722.694 1098.54,721.144 1010.85,702.072 921.337,695.672 665.817,695.672 687.721,655.514 921.337,655.514 1016.56,662.324 1109.86,682.614 1115.14,684.164 1233.3,731.466 1340.38,800.284 1432.49,888.126 1436.09,892.284 1501.75,982.232 1551.59,1081.82 1584.22,1188.3 1585.11,1192.35 1596.56,1263.05 1600.39,1334.57 1600.39,2929.17 1596.87,2978.35 1637.03,2978.35 1639.76,2940.18" style="stroke:rgb(0,0,0);stroke-width:1px;fill:none;stroke-opacity:1;stroke-linecap:round;stroke-linejoin:round;;fill:none"/>
</svg>
