<?xml version="1.0" standalone="no"?>
<!DOCTYPE svg PUBLIC "-//W3C//DTD SVG 1.1//EN"
"http://www.w3.org/Graphics/SVG/1.1/DTD/svg11.dtd">
<svg width="81.8268" height="146.079" viewBox="0 0 1704.72 3043.31" version="1.1"
xmlns="http://www.w3.org/2000/svg"
xmlns:xlink="http://www.w3.org/1999/xlink">
<polyline points="1418.59,2978.35 1419.29,2968.54 1419.29,1334.57 1416.49,1282.4 1408.14,1230.83 1407.26,1226.78 1383.45,1149.11 1347.1,1076.47 1299.21,1010.86 1295.6,1006.71 1228.42,942.632 1150.32,892.436 1064.13,857.932 1058.85,856.382 990.797,841.582 921.337,836.616 588.939,836.616 631.887,757.876 614.709,789.372 921.337,789.372 997.519,794.82 1072.15,811.052 1077.43,812.602 1171.97,850.444 1257.63,905.498 1331.31,975.772 1334.91,979.93 1387.44,1051.89 1427.31,1131.56 1453.42,1216.74 1454.3,1220.8 1463.47,1277.35 1466.53,1334.57 1466.53,2968.54 1465.83,2978.35 1481.58,2978.35 1482.28,2968.54 1482.28,1334.57 1479.12,1275.67 1469.69,1217.45 1468.81,1213.39 1441.94,1125.71 1400.89,1043.69 1346.82,969.622 1343.22,965.462 1267.36,893.12 1179.18,836.446 1081.87,797.492 1076.59,795.942 999.761,779.232 921.337,773.624 623.299,773.624 631.887,757.876 580.349,852.364 631.887,757.876 921.337,757.876 1002,763.644 1081.02,780.83 1086.3,782.38 1186.4,822.448 1277.1,880.742 1355.12,955.15 1358.72,959.308 1414.34,1035.5 1456.56,1119.86 1484.2,1210.05 1485.08,1214.1 1494.78,1273.99 1498.03,1334.57 1498.03,2968.54 1497.33,2978.35 1513.08,2978.35 1513.78,2968.54 1513.78,1334.57 1510.44,1272.31 1500.47,1210.76 1499.59,1206.7 1471.18,1114 1427.79,1027.3 1370.62,948.996 1367.02,944.84 1286.83,868.364 1193.61,808.452 1090.74,767.27 1085.46,765.72 1004.24,748.056 921.337,742.128 640.477,742.128 649.067,726.38 921.337,726.38 1006.48,732.468 1089.9,750.61 1095.18,752.16 1200.83,794.454 1296.57,855.984 1378.92,934.528 1382.53,938.686 1441.24,1019.11 1485.8,1108.15 1514.98,1203.35 1515.86,1207.41 1526.1,1270.62 1529.52,1334.57 1529.52,2968.54 1528.82,2978.35 1544.57,2978.35 1545.27,2968.54 1545.27,1334.57 1541.76,1268.94 1531.25,1204.06 1530.36,1200.01 1500.42,1102.3 1454.68,1010.91 1394.43,928.374 1390.83,924.218 1306.3,843.606 1208.05,780.456 1099.61,737.05 1094.33,735.5 1008.72,716.88 921.337,710.632 657.657,710.632 683.427,663.388 921.337,663.388 1015.44,670.118 1107.64,690.168 1112.92,691.718 1229.7,738.464 1335.51,806.472 1426.54,893.282 1430.14,897.44 1495.03,986.33 1544.28,1084.75 1576.53,1189.97 1577.41,1194.02 1588.73,1263.89 1592.52,1334.57 1592.52,2968.54 1591.82,2978.35 1639.76,2978.35 1639.76,1030.07 1589.16,928.966 1513.46,825.262 1509.86,821.104 1403.66,719.826 1280.21,640.482 1143.97,585.946 1138.69,584.396 1031.13,561.002 921.337,553.152 743.555,553.152 563.169,883.862 921.337,883.862 984.075,888.348 1045.54,901.714 1050.82,903.264 1128.67,934.428 1199.21,979.766 1259.9,1037.64 1263.5,1041.8 1306.76,1101.06 1339.59,1166.67 1361.09,1236.82 1361.97,1240.87 1369.52,1287.45 1372.04,1334.57 1372.04,2968.54 1371.34,2978.35 1355.59,2978.35 1356.3,2968.54 1356.3,1334.57 1353.86,1289.13 1346.59,1244.22 1345.7,1240.16 1324.97,1172.52 1293.31,1109.25 1251.59,1052.11 1247.99,1047.95 1189.48,992.144 1121.45,948.426 1046.38,918.374 1041.1,916.824 981.835,903.934 921.337,899.608 554.579,899.608 580.347,852.364 921.337,852.364 988.557,857.17 1054.41,871.494 1059.69,873.044 1143.1,906.434 1218.68,955.01 1283.7,1017.02 1287.3,1021.18 1333.65,1084.67 1368.83,1154.97 1391.87,1230.12 1392.75,1234.18 1400.83,1284.09 1403.54,1334.57 1403.54,2968.54 1402.84,2978.35 1387.09,2978.35 1387.79,2968.54 1387.79,1334.57 1385.18,1285.77 1377.36,1237.53 1376.48,1233.47 1354.21,1160.82 1320.2,1092.86 1275.4,1031.49 1271.8,1027.33 1208.95,967.388 1135.88,920.43 1055.25,888.154 1049.97,886.604 986.317,872.758 921.337,868.112 571.757,868.112 451.501,1088.58 921.337,1088.58 954.947,1090.99 987.873,1098.15 993.153,1099.7 1034.86,1116.39 1072.65,1140.68 1105.16,1171.69 1108.76,1175.84 1131.93,1207.59 1149.52,1242.74 1161.04,1280.32 1161.92,1284.37 1165.97,1309.33 1167.32,1334.57 1167.32,2968.54 1166.62,2978.35 1182.37,2978.35 1183.07,2968.54 1183.07,1334.57 1181.62,1307.64 1177.31,1281.03 1176.43,1276.97 1164.15,1236.89 1145.38,1199.4 1120.66,1165.53 1117.06,1161.37 1082.38,1128.3 1042.07,1102.4 997.589,1084.59 992.309,1083.04 957.187,1075.4 921.337,1072.84 460.091,1072.84 374.193,1230.32 921.337,1230.32 934.781,1231.28 947.951,1234.14 953.231,1235.69 969.913,1242.37 985.029,1252.09 998.033,1264.49 1001.63,1268.65 1010.9,1281.34 1017.94,1295.4 1022.55,1310.44 1023.43,1314.49 1025.05,1324.47 1025.59,1334.57 1025.59,2968.54 1024.89,2978.35 1009.14,2978.35 1009.84,2968.54 1009.84,1334.57 1009.39,1326.16 1008.04,1317.84 1007.16,1313.78 1003.32,1301.26 997.457,1289.54 989.733,1278.96 986.131,1274.8 975.293,1264.46 962.697,1256.37 948.795,1250.8 943.515,1249.25 932.539,1246.87 921.337,1246.06 365.603,1246.06 1009.84,64.9625 1639.76,64.9625 1639.76,70.3225 1630.43,64.9625 1639.76,70.3225 1639.76,576.724 1639.76,142.734 1520.22,74.0965 1496.25,64.9645 1598.9,64.9645 1639.76,88.4245 1598.9,64.9645 1535.84,64.9645 1567.37,64.9645 1639.76,106.528 1639.76,142.734 1639.76,124.632 1535.84,64.9625 1408.08,64.9645 1452.16,64.9645 1513.47,88.3265 1639.76,160.838 1639.76,178.94 1506.73,102.556 1408.08,64.9645 1319.9,64.9645 1493.24,131.016 1639.76,215.148 1639.76,233.25 1486.49,145.248 1294.79,72.1925 1289.51,70.6425 1263.34,64.9645 1363.99,64.9625 1499.98,116.786 1639.76,197.044 1639.76,269.458 1639.76,251.354 1479.74,159.478 1290.35,87.3025 1285.07,85.7525 1189.25,64.9645 1115.18,64.9645 1280.64,100.864 1285.92,102.414 1473,173.708 1639.76,269.458 1639.76,288.03 1637.73,286.396 1466.25,187.938 1281.48,117.524 1276.2,115.974 1099.34,77.6025 1006.49,71.1025 989.945,101.438 998.219,86.2705 1097.12,93.1925 1271.76,131.084 1277.04,132.634 1459.51,202.168 1628.84,299.396 1639.76,308.194 1639.76,328.356 1619.95,312.396 1452.76,216.398 1272.61,147.744 1267.33,146.194 1094.89,108.782 989.945,101.438 965.181,146.838 973.401,131.77 1090.44,139.962 1258.46,176.416 1263.74,177.966 1439.27,244.858 1602.18,338.394 1639.76,368.682 1639.76,348.52 1611.07,325.394 1446.02,230.628 1268.17,162.854 1262.89,161.304 1092.67,124.372 981.673,116.604 940.379,192.31 965.181,146.84 1089.39,155.72 1254.02,191.526 1259.3,193.076 1432.53,259.088 1593.29,351.394 1639.76,388.846 1639.76,405.688 1460.61,290.548 1254.87,208.186 1249.59,206.636 1087.15,171.308 956.915,161.996 940.379,192.308 948.647,177.152 1084.91,186.896 1245.15,221.746 1250.43,223.296 1453.4,304.546 1637.31,422.75 1639.76,425.084 1639.76,446.746 1627.58,435.128 1446.18,318.542 1245.99,238.406 1240.71,236.856 1082.67,202.482 940.379,192.31 906.763,253.938 932.111,207.466 915.353,238.19 923.845,222.624 1078.18,233.658 1231.84,267.078 1237.12,268.628 1431.75,346.538 1608.11,459.884 1639.76,490.072 1639.76,468.41 1617.84,447.506 1438.96,332.54 1241.56,253.516 1236.28,251.966 1080.43,218.07 932.111,207.466 915.353,238.19 921.337,238.19 1075.94,249.246 1227.41,282.188 1232.69,283.738 1424.53,360.534 1598.37,472.262 1639.76,511.736 1639.76,533.398 1588.64,484.64 1417.32,374.532 1228.25,298.848 1222.97,297.298 1073.7,264.834 921.337,253.938 906.763,253.938 898.173,269.686 921.337,269.686 1071.46,280.422 1218.53,312.408 1223.81,313.958 1410.1,388.53 1578.9,497.018 1639.76,555.06 1639.76,706.7 1510.75,583.666 1359.59,486.512 1192.76,419.732 1187.48,418.182 1055.78,389.536 921.337,379.924 838.043,379.924 872.403,316.93 921.337,316.93 1064.74,327.186 1205.23,357.74 1210.51,359.29 1388.45,430.522 1549.69,534.152 1639.76,620.05 1639.76,598.386 1559.43,521.774 1395.67,416.524 1214.94,344.18 1209.66,342.63 1066.98,311.598 921.337,301.182 880.993,301.182 855.223,348.428 863.813,332.68 921.337,332.68 1062.5,342.774 1200.79,372.85 1206.07,374.4 1381.24,444.52 1539.96,546.53 1639.76,641.712 1639.76,663.374 1530.22,558.91 1374.02,458.516 1201.64,389.51 1196.36,387.96 1060.26,358.36 921.337,348.428 855.223,348.428 846.633,364.176 921.337,364.176 1058.02,373.948 1191.92,403.07 1197.2,404.62 1366.8,472.514 1520.49,571.288 1639.76,685.038 1639.76,924.874 1639.76,891.812 1561.07,784.016 1557.47,779.858 1442.6,670.312 1309.07,584.494 1161.71,525.504 1156.43,523.954 1040.09,498.652 921.337,490.16 777.915,490.16 829.453,395.672 786.505,474.412 921.337,474.412 1042.33,483.064 1160.87,508.844 1166.15,510.394 1316.29,570.496 1452.34,657.934 1569.37,769.548 1572.97,773.706 1639.76,865.196 1639.76,838.58 1584.88,763.394 1581.27,759.236 1462.07,645.556 1323.51,556.498 1170.58,495.284 1165.3,493.734 1044.57,467.476 921.337,458.664 795.095,458.664 829.453,395.672 769.325,505.908 921.337,505.908 1037.85,514.24 1152,539.064 1157.28,540.614 1301.86,598.49 1432.87,682.69 1545.56,790.17 1549.17,794.328 1629.51,904.38 1639.76,924.874 1639.76,2978.35 1639.06,2978.35 1639.76,2968.54 1639.06,2978.35 1560.32,2978.35 1576.07,2978.35 1576.77,2968.54 1576.77,1334.57 1573.07,1265.57 1562.02,1197.37 1561.14,1193.31 1529.66,1090.6 1481.58,994.524 1418.24,907.754 1414.63,903.594 1325.77,818.85 1222.48,752.462 1108.48,706.828 1103.2,705.278 1013.2,685.704 921.337,679.136 674.837,679.136 743.555,553.152 726.377,584.648 921.337,584.648 1026.65,592.178 1129.82,614.616 1135.1,616.166 1265.78,668.478 1384.19,744.582 1486.05,841.726 1489.65,845.884 1562.27,945.354 1617.38,1055.49 1639.76,1128.5 1639.76,1074.95 1632,1049.64 1575.71,937.16 1501.56,835.572 1497.95,831.414 1393.92,732.204 1272.99,654.48 1139.53,601.056 1134.25,599.506 1028.89,576.59 921.337,568.9 734.967,568.9 683.427,663.388 709.197,616.144 921.337,616.144 1022.17,623.354 1120.95,644.838 1126.23,646.388 1251.34,696.472 1364.72,769.338 1462.24,862.348 1465.85,866.506 1535.37,961.746 1588.14,1067.19 1622.69,1179.93 1623.58,1183.99 1635.7,1258.84 1639.76,1334.57 1639.76,1185.55 1638.08,1176.58 1602.76,1061.34 1548.82,953.552 1477.75,856.196 1474.15,852.038 1374.45,756.96 1258.56,682.474 1130.66,631.276 1125.38,629.726 1024.41,607.766 921.337,600.396 717.785,600.396 700.607,631.892 921.337,631.892 1019.93,638.942 1116.51,659.948 1121.79,661.498 1244.13,710.47 1354.98,781.716 1450.34,872.66 1453.94,876.818 1521.92,969.94 1573.52,1073.04 1607.31,1183.28 1608.19,1187.33 1620.05,1260.53 1624.01,1334.57 1624.01,2968.54 1623.31,2978.35 1607.56,2978.35 1608.26,2968.54 1608.26,1334.57 1604.39,1262.21 1592.8,1190.68 1591.92,1186.62 1558.9,1078.9 1508.47,978.136 1442.04,887.13 1438.44,882.972 1345.25,794.094 1236.91,724.468 1117.36,676.608 1112.07,675.058 1017.69,654.53 921.337,647.64 692.017,647.64 717.785,600.396 666.247,694.884 921.337,694.884 1010.96,701.292 1098.77,720.39 1104.05,721.94 1215.26,766.46 1316.04,831.228 1402.73,913.904 1406.33,918.064 1468.13,1002.72 1515.04,1096.45 1545.75,1196.66 1546.63,1200.72 1557.41,1267.26 1561.02,1334.57 1561.02,2968.54 1560.32,2978.35 1434.33,2978.35 1450.08,2978.35 1450.78,2968.54 1450.78,1334.57 1447.81,1279.04 1438.92,1224.14 1438.03,1220.09 1412.69,1137.41 1374,1060.08 1323.01,990.242 1319.41,986.084 1247.89,917.876 1164.75,864.44 1072.99,827.712 1067.72,826.162 995.279,810.408 921.337,805.12 606.119,805.12 631.887,757.876 597.529,820.868 921.337,820.868 993.039,825.996 1063.28,841.272 1068.56,842.822 1157.53,878.438 1238.15,930.254 1307.51,996.394 1311.11,1000.55 1360.55,1068.28 1398.07,1143.26 1422.65,1223.43 1423.53,1227.49 1432.15,1280.72 1435.04,1334.57 1435.04,2968.54 1434.33,2978.35 1198.11,2978.35 1213.86,2978.35 1214.56,2968.54 1214.56,1334.57 1212.94,1304.28 1208.09,1274.34 1207.21,1270.28 1193.39,1225.18 1172.28,1183.01 1144.47,1144.91 1140.87,1140.75 1101.86,1103.55 1056.51,1074.4 1006.46,1054.37 1001.18,1052.82 961.669,1044.22 921.337,1041.34 477.271,1041.34 537.399,931.106 921.337,931.106 977.353,935.112 1032.23,947.048 1037.51,948.596 1107.02,976.42 1170,1016.9 1224.19,1068.57 1227.79,1072.73 1266.41,1125.64 1295.73,1184.22 1314.93,1246.86 1315.81,1250.91 1322.55,1292.5 1324.8,1334.57 1324.8,2968.54 1324.1,2978.35 1339.85,2978.35 1340.55,2968.54 1340.55,1334.57 1338.2,1290.82 1331.2,1247.57 1330.32,1243.51 1310.35,1178.37 1279.86,1117.45 1239.69,1062.42 1236.09,1058.26 1179.74,1004.52 1114.24,962.422 1041.95,933.484 1036.67,931.934 979.595,919.522 921.337,915.356 545.989,915.356 520.221,962.6 921.337,962.6 972.873,966.286 1023.36,977.266 1028.64,978.816 1092.59,1004.41 1150.53,1041.66 1200.38,1089.2 1203.98,1093.35 1239.52,1142.03 1266.49,1195.93 1284.15,1253.55 1285.03,1257.6 1291.23,1295.87 1293.3,1334.57 1293.3,2968.54 1292.6,2978.35 1276.85,2978.35 1277.56,2968.54 1277.56,1334.57 1275.57,1297.55 1269.64,1260.95 1268.76,1256.89 1251.87,1201.78 1226.07,1150.23 1192.08,1103.67 1188.48,1099.51 1140.8,1054.04 1085.37,1018.41 1024.2,993.926 1018.92,992.376 970.631,981.874 921.337,978.348 511.631,978.348 528.809,946.852 503.041,994.096 921.337,994.096 968.391,997.462 1014.49,1007.49 1019.77,1009.04 1078.16,1032.41 1131.06,1066.41 1176.58,1109.82 1180.18,1113.98 1212.62,1158.42 1237.25,1207.63 1253.37,1260.24 1254.26,1264.3 1259.91,1299.23 1261.81,1334.57 1261.81,2968.54 1261.11,2978.35 1245.36,2978.35 1246.06,2968.54 1246.06,1334.57 1244.26,1300.91 1238.87,1267.64 1237.98,1263.59 1222.63,1213.48 1199.17,1166.62 1168.27,1124.29 1164.67,1120.13 1121.33,1078.79 1070.94,1046.41 1015.33,1024.15 1010.05,1022.6 966.151,1013.05 921.337,1009.84 494.451,1009.84 528.809,946.852 921.337,946.852 975.113,950.698 1027.79,962.156 1033.07,963.706 1099.8,990.418 1160.27,1029.28 1212.28,1078.88 1215.89,1083.04 1252.97,1133.84 1281.11,1190.08 1299.54,1250.2 1300.42,1254.26 1306.89,1294.18 1309.05,1334.57 1309.05,2968.54 1308.35,2978.35 1213.86,2978.35 1229.61,2978.35 1230.31,2968.54 1230.31,1334.57 1228.6,1302.6 1223.48,1270.99 1222.6,1266.93 1208.01,1219.33 1185.73,1174.81 1156.37,1134.6 1152.77,1130.44 1111.59,1091.17 1063.72,1060.4 1010.9,1039.26 1005.62,1037.71 963.909,1028.64 921.337,1025.59 485.861,1025.59 528.809,946.852 468.681,1057.09 921.337,1057.09 959.427,1059.81 996.745,1067.93 1002.02,1069.48 1049.29,1088.4 1092.12,1115.93 1128.96,1151.06 1132.57,1155.22 1158.83,1191.2 1178.77,1231.04 1191.82,1273.63 1192.7,1277.68 1197.28,1305.96 1198.82,1334.57 1198.82,2968.54 1198.11,2978.35 1040.63,2978.35 1056.38,2978.35 1057.08,2968.54 1057.08,1334.57 1056.36,1321.11 1054.21,1307.8 1053.32,1303.74 1047.18,1283.7 1037.8,1264.95 1025.44,1248.02 1021.84,1243.86 1004.5,1227.33 984.345,1214.38 962.103,1205.47 956.823,1203.92 939.261,1200.1 921.337,1198.82 391.373,1198.82 442.911,1104.33 434.323,1120.08 921.337,1120.08 950.465,1122.16 979.001,1128.37 984.281,1129.92 1020.43,1144.39 1053.18,1165.44 1081.35,1192.31 1084.95,1196.47 1105.04,1223.98 1120.28,1254.44 1130.27,1287.01 1131.15,1291.07 1134.65,1312.69 1135.82,1334.57 1135.82,2968.54 1135.12,2978.35 1150.87,2978.35 1151.57,2968.54 1151.57,1334.57 1150.31,1311.01 1146.54,1287.72 1145.65,1283.66 1134.9,1248.59 1118.49,1215.79 1096.86,1186.16 1093.26,1182 1062.91,1153.06 1027.64,1130.39 988.717,1114.81 983.437,1113.26 952.705,1106.58 921.337,1104.33 442.911,1104.33 417.143,1151.58 921.337,1151.58 945.983,1153.34 970.129,1158.59 975.409,1160.14 1005.99,1172.38 1033.71,1190.2 1057.55,1212.93 1061.15,1217.09 1078.14,1240.37 1091.04,1266.15 1099.49,1293.7 1100.37,1297.76 1103.34,1316.06 1104.33,1334.57 1104.33,2968.54 1103.63,2978.35 1119.37,2978.35 1120.08,2968.54 1120.08,1334.57 1118.99,1314.38 1115.76,1294.41 1114.88,1290.36 1105.66,1260.29 1091.59,1232.17 1073.05,1206.78 1069.45,1202.62 1043.44,1177.82 1013.21,1158.39 979.845,1145.03 974.565,1143.48 948.225,1137.75 921.337,1135.83 425.733,1135.83 442.911,1104.33 408.553,1167.32 921.337,1167.32 943.743,1168.93 965.695,1173.7 970.975,1175.25 998.777,1186.38 1023.97,1202.57 1045.64,1223.24 1049.25,1227.4 1064.7,1248.56 1076.42,1272 1084.1,1297.05 1084.98,1301.11 1087.68,1317.74 1088.58,1334.57 1088.58,2968.54 1087.88,2978.35 1056.38,2978.35 1072.13,2978.35 1072.83,2968.54 1072.83,1334.57 1072.02,1319.42 1069.59,1304.45 1068.71,1300.4 1061.8,1277.85 1051.25,1256.76 1037.34,1237.71 1033.74,1233.55 1014.24,1214.95 991.561,1200.38 966.539,1190.36 961.259,1188.81 941.503,1184.51 921.337,1183.07 399.963,1183.07 442.911,1104.33 382.783,1214.57 921.337,1214.57 937.021,1215.69 952.387,1219.03 957.667,1220.58 977.129,1228.37 994.765,1239.71 1009.94,1254.18 1013.54,1258.33 1024.35,1273.15 1032.56,1289.55 1037.94,1307.09 1038.82,1311.14 1040.7,1322.79 1041.34,1334.57 1041.34,2968.54 1040.63,2978.35 944.625,2978.35 961.047,2978.35 962.275,2973.03 962.597,2968.54 962.597,1334.57 961.877,1327.88 959.459,1318.81 957.113,1314.12 954.023,1309.89 950.421,1305.73 946.087,1301.6 941.049,1298.36 935.487,1296.13 925.817,1293.63 921.337,1293.31 339.835,1293.31 331.243,1309.06 921.337,1309.06 925.771,1309.69 931.051,1311.24 933.833,1312.36 936.351,1313.98 942.121,1320.2 943.665,1322.32 944.839,1324.66 946.489,1331.22 946.849,1334.57 946.687,2970.79 944.659,2978.26 943.547,2981.04 941.929,2983.55 939.865,2985.72 935.707,2989.33 933.589,2990.87 931.245,2992.04 924.683,2993.7 921.337,2994.05 74.7626,2994.05 70.3246,2993.42 62.2706,2990.75 59.7526,2989.14 53.9806,2982.91 52.4346,2980.8 51.2626,2978.45 49.6106,2971.89 49.2526,2968.54 49.3746,1797.78 50.9306,1791.18 52.3666,1787.53 306.099,1322.35 308.783,1318.76 312.671,1314.87 314.825,1313.07 317.265,1311.68 319.915,1310.74 326.533,1309.18 331.243,1309.06 357.013,1261.81 348.423,1277.56 921.337,1277.56 928.059,1278.04 934.643,1279.47 939.923,1281.02 948.265,1284.36 955.823,1289.22 962.325,1295.42 965.927,1299.58 970.561,1305.93 974.079,1312.96 976.383,1320.47 977.265,1324.53 978.073,1329.52 978.345,1334.57 978.345,2968.54 977.863,2975.27 977.193,2978.35 993.269,2978.35 993.451,2977.51 994.093,2968.54 994.093,1334.57 993.731,1327.84 992.653,1321.18 991.771,1317.13 988.701,1307.11 984.009,1297.73 977.829,1289.27 974.227,1285.11 965.559,1276.84 955.481,1270.37 944.359,1265.91 939.079,1264.36 930.299,1262.45 921.337,1261.81 357.013,1261.81 365.603,1246.06" style="stroke:rgb(103,198,105);stroke-width:31.496063;fill:none;stroke-opacity:0.5;stroke-linecap:round;stroke-linejoin:round;;fill:none"/>
<polyline points="1418.59,2978.35 1419.29,2968.54 1419.29,1334.57 1416.49,1282.4 1408.14,1230.83 1407.26,1226.78 1383.45,1149.11 1347.1,1076.47 1299.21,1010.86 1295.6,1006.71 1228.42,942.632 1150.32,892.436 1064.13,857.932 1058.85,856.382 990.797,841.582 921.337,836.616 588.939,836.616 631.887,757.876 614.709,789.372 921.337,789.372 997.519,794.82 1072.15,811.052 1077.43,812.602 1171.97,850.444 1257.63,905.498 1331.31,975.772 1334.91,979.93 1387.44,1051.89 1427.31,1131.56 1453.42,1216.74 1454.3,1220.8 1463.47,1277.35 1466.53,1334.57 1466.53,2968.54 1465.83,2978.35 1481.58,2978.35 1482.28,2968.54 1482.28,1334.57 1479.12,1275.67 1469.69,1217.45 1468.81,1213.39 1441.94,1125.71 1400.89,1043.69 1346.82,969.622 1343.22,965.462 1267.36,893.12 1179.18,836.446 1081.87,797.492 1076.59,795.942 999.761,779.232 921.337,773.624 623.299,773.624 631.887,757.876 580.349,852.364 631.887,757.876 921.337,757.876 1002,763.644 1081.02,780.83 1086.3,782.38 1186.4,822.448 1277.1,880.742 1355.12,955.15 1358.72,959.308 1414.34,1035.5 1456.56,1119.86 1484.2,1210.05 1485.08,1214.1 1494.78,1273.99 1498.03,1334.57 1498.03,2968.54 1497.33,2978.35 1513.08,2978.35 1513.78,2968.54 1513.78,1334.57 1510.44,1272.31 1500.47,1210.76 1499.59,1206.7 1471.18,1114 1427.79,1027.3 1370.62,948.996 1367.02,944.84 1286.83,868.364 1193.61,808.452 1090.74,767.27 1085.46,765.72 1004.24,748.056 921.337,742.128 640.477,742.128 649.067,726.38 921.337,726.38 1006.48,732.468 1089.9,750.61 1095.18,752.16 1200.83,794.454 1296.57,855.984 1378.92,934.528 1382.53,938.686 1441.24,1019.11 1485.8,1108.15 1514.98,1203.35 1515.86,1207.41 1526.1,1270.62 1529.52,1334.57 1529.52,2968.54 1528.82,2978.35 1544.57,2978.35 1545.27,2968.54 1545.27,1334.57 1541.76,1268.94 1531.25,1204.06 1530.36,1200.01 1500.42,1102.3 1454.68,1010.91 1394.43,928.374 1390.83,924.218 1306.3,843.606 1208.05,780.456 1099.61,737.05 1094.33,735.5 1008.72,716.88 921.337,710.632 657.657,710.632 683.427,663.388 921.337,663.388 1015.44,670.118 1107.64,690.168 1112.92,691.718 1229.7,738.464 1335.51,806.472 1426.54,893.282 1430.14,897.44 1495.03,986.33 1544.28,1084.75 1576.53,1189.97 1577.41,1194.02 1588.73,1263.89 1592.52,1334.57 1592.52,2968.54 1591.82,2978.35 1639.76,2978.35 1639.76,1030.07 1589.16,928.966 1513.46,825.262 1509.86,821.104 1403.66,719.826 1280.21,640.482 1143.97,585.946 1138.69,584.396 1031.13,561.002 921.337,553.152 743.555,553.152 563.169,883.862 921.337,883.862 984.075,888.348 1045.54,901.714 1050.82,903.264 1128.67,934.428 1199.21,979.766 1259.9,1037.64 1263.5,1041.8 1306.76,1101.06 1339.59,1166.67 1361.09,1236.82 1361.97,1240.87 1369.52,1287.45 1372.04,1334.57 1372.04,2968.54 1371.34,2978.35 1355.59,2978.35 1356.3,2968.54 1356.3,1334.57 1353.86,1289.13 1346.59,1244.22 1345.7,1240.16 1324.97,1172.52 1293.31,1109.25 1251.59,1052.11 1247.99,1047.95 1189.48,992.144 1121.45,948.426 1046.38,918.374 1041.1,916.824 981.835,903.934 921.337,899.608 554.579,899.608 580.347,852.364 921.337,852.364 988.557,857.17 1054.41,871.494 1059.69,873.044 1143.1,906.434 1218.68,955.01 1283.7,1017.02 1287.3,1021.18 1333.65,1084.67 1368.83,1154.97 1391.87,1230.12 1392.75,1234.18 1400.83,1284.09 1403.54,1334.57 1403.54,2968.54 1402.84,2978.35 1387.09,2978.35 1387.79,2968.54 1387.79,1334.57 1385.18,1285.77 1377.36,1237.53 1376.48,1233.47 1354.21,1160.82 1320.2,1092.86 1275.4,1031.49 1271.8,1027.33 1208.95,967.388 1135.88,920.43 1055.25,888.154 1049.97,886.604 986.317,872.758 921.337,868.112 571.757,868.112 451.501,1088.58 921.337,1088.58 954.947,1090.99 987.873,1098.15 993.153,1099.7 1034.86,1116.39 1072.65,1140.68 1105.16,1171.69 1108.76,1175.84 1131.93,1207.59 1149.52,1242.74 1161.04,1280.32 1161.92,1284.37 1165.97,1309.33 1167.32,1334.57 1167.32,2968.54 1166.62,2978.35 1182.37,2978.35 1183.07,2968.54 1183.07,1334.57 1181.62,1307.64 1177.31,1281.03 1176.43,1276.97 1164.15,1236.89 1145.38,1199.4 1120.66,1165.53 1117.06,1161.37 1082.38,1128.3 1042.07,1102.4 997.589,1084.59 992.309,1083.04 957.187,1075.4 921.337,1072.84 460.091,1072.84 374.193,1230.32 921.337,1230.32 934.781,1231.28 947.951,1234.14 953.231,1235.69 969.913,1242.37 985.029,1252.09 998.033,1264.49 1001.63,1268.65 1010.9,1281.34 1017.94,1295.4 1022.55,1310.44 1023.43,1314.49 1025.05,1324.47 1025.59,1334.57 1025.59,2968.54 1024.89,2978.35 1009.14,2978.35 1009.84,2968.54 1009.84,1334.57 1009.39,1326.16 1008.04,1317.84 1007.16,1313.78 1003.32,1301.26 997.457,1289.54 989.733,1278.96 986.131,1274.8 975.293,1264.46 962.697,1256.37 948.795,1250.8 943.515,1249.25 932.539,1246.87 921.337,1246.06 365.603,1246.06 1009.84,64.9625 1639.76,64.9625 1639.76,70.3225 1630.43,64.9625 1639.76,70.3225 1639.76,576.724 1639.76,142.734 1520.22,74.0965 1496.25,64.9645 1598.9,64.9645 1639.76,88.4245 1598.9,64.9645 1535.84,64.9645 1567.37,64.9645 1639.76,106.528 1639.76,142.734 1639.76,124.632 1535.84,64.9625 1408.08,64.9645 1452.16,64.9645 1513.47,88.3265 1639.76,160.838 1639.76,178.94 1506.73,102.556 1408.08,64.9645 1319.9,64.9645 1493.24,131.016 1639.76,215.148 1639.76,233.25 1486.49,145.248 1294.79,72.1925 1289.51,70.6425 1263.34,64.9645 1363.99,64.9625 1499.98,116.786 1639.76,197.044 1639.76,269.458 1639.76,251.354 1479.74,159.478 1290.35,87.3025 1285.07,85.7525 1189.25,64.9645 1115.18,64.9645 1280.64,100.864 1285.92,102.414 1473,173.708 1639.76,269.458 1639.76,288.03 1637.73,286.396 1466.25,187.938 1281.48,117.524 1276.2,115.974 1099.34,77.6025 1006.49,71.1025 989.945,101.438 998.219,86.2705 1097.12,93.1925 1271.76,131.084 1277.04,132.634 1459.51,202.168 1628.84,299.396 1639.76,308.194 1639.76,328.356 1619.95,312.396 1452.76,216.398 1272.61,147.744 1267.33,146.194 1094.89,108.782 989.945,101.438 965.181,146.838 973.401,131.77 1090.44,139.962 1258.46,176.416 1263.74,177.966 1439.27,244.858 1602.18,338.394 1639.76,368.682 1639.76,348.52 1611.07,325.394 1446.02,230.628 1268.17,162.854 1262.89,161.304 1092.67,124.372 981.673,116.604 940.379,192.31 965.181,146.84 1089.39,155.72 1254.02,191.526 1259.3,193.076 1432.53,259.088 1593.29,351.394 1639.76,388.846 1639.76,405.688 1460.61,290.548 1254.87,208.186 1249.59,206.636 1087.15,171.308 956.915,161.996 940.379,192.308 948.647,177.152 1084.91,186.896 1245.15,221.746 1250.43,223.296 1453.4,304.546 1637.31,422.75 1639.76,425.084 1639.76,446.746 1627.58,435.128 1446.18,318.542 1245.99,238.406 1240.71,236.856 1082.67,202.482 940.379,192.31 906.763,253.938 932.111,207.466 915.353,238.19 923.845,222.624 1078.18,233.658 1231.84,267.078 1237.12,268.628 1431.75,346.538 1608.11,459.884 1639.76,490.072 1639.76,468.41 1617.84,447.506 1438.96,332.54 1241.56,253.516 1236.28,251.966 1080.43,218.07 932.111,207.466 915.353,238.19 921.337,238.19 1075.94,249.246 1227.41,282.188 1232.69,283.738 1424.53,360.534 1598.37,472.262 1639.76,511.736 1639.76,533.398 1588.64,484.64 1417.32,374.532 1228.25,298.848 1222.97,297.298 1073.7,264.834 921.337,253.938 906.763,253.938 898.173,269.686 921.337,269.686 1071.46,280.422 1218.53,312.408 1223.81,313.958 1410.1,388.53 1578.9,497.018 1639.76,555.06 1639.76,706.7 1510.75,583.666 1359.59,486.512 1192.76,419.732 1187.48,418.182 1055.78,389.536 921.337,379.924 838.043,379.924 872.403,316.93 921.337,316.93 1064.74,327.186 1205.23,357.74 1210.51,359.29 1388.45,430.522 1549.69,534.152 1639.76,620.05 1639.76,598.386 1559.43,521.774 1395.67,416.524 1214.94,344.18 1209.66,342.63 1066.98,311.598 921.337,301.182 880.993,301.182 855.223,348.428 863.813,332.68 921.337,332.68 1062.5,342.774 1200.79,372.85 1206.07,374.4 1381.24,444.52 1539.96,546.53 1639.76,641.712 1639.76,663.374 1530.22,558.91 1374.02,458.516 1201.64,389.51 1196.36,387.96 1060.26,358.36 921.337,348.428 855.223,348.428 846.633,364.176 921.337,364.176 1058.02,373.948 1191.92,403.07 1197.2,404.62 1366.8,472.514 1520.49,571.288 1639.76,685.038 1639.76,924.874 1639.76,891.812 1561.07,784.016 1557.47,779.858 1442.6,670.312 1309.07,584.494 1161.71,525.504 1156.43,523.954 1040.09,498.652 921.337,490.16 777.915,490.16 829.453,395.672 786.505,474.412 921.337,474.412 1042.33,483.064 1160.87,508.844 1166.15,510.394 1316.29,570.496 1452.34,657.934 1569.37,769.548 1572.97,773.706 1639.76,865.196 1639.76,838.58 1584.88,763.394 1581.27,759.236 1462.07,645.556 1323.51,556.498 1170.58,495.284 1165.3,493.734 1044.57,467.476 921.337,458.664 795.095,458.664 829.453,395.672 769.325,505.908 921.337,505.908 1037.85,514.24 1152,539.064 1157.28,540.614 1301.86,598.49 1432.87,682.69 1545.56,790.17 1549.17,794.328 1629.51,904.38 1639.76,924.874 1639.76,2978.35 1639.06,2978.35 1639.76,2968.54 1639.06,2978.35 1560.32,2978.35 1576.07,2978.35 1576.77,2968.54 1576.77,1334.57 1573.07,1265.57 1562.02,1197.37 1561.14,1193.31 1529.66,1090.6 1481.58,994.524 1418.24,907.754 1414.63,903.594 1325.77,818.85 1222.48,752.462 1108.48,706.828 1103.2,705.278 1013.2,685.704 921.337,679.136 674.837,679.136 743.555,553.152 726.377,584.648 921.337,584.648 1026.65,592.178 1129.82,614.616 1135.1,616.166 1265.78,668.478 1384.19,744.582 1486.05,841.726 1489.65,845.884 1562.27,945.354 1617.38,1055.49 1639.76,1128.5 1639.76,1074.95 1632,1049.64 1575.71,937.16 1501.56,835.572 1497.95,831.414 1393.92,732.204 1272.99,654.48 1139.53,601.056 1134.25,599.506 1028.89,576.59 921.337,568.9 734.967,568.9 683.427,663.388 709.197,616.144 921.337,616.144 1022.17,623.354 1120.95,644.838 1126.23,646.388 1251.34,696.472 1364.72,769.338 1462.24,862.348 1465.85,866.506 1535.37,961.746 1588.14,1067.19 1622.69,1179.93 1623.58,1183.99 1635.7,1258.84 1639.76,1334.57 1639.76,1185.55 1638.08,1176.58 1602.76,1061.34 1548.82,953.552 1477.75,856.196 1474.15,852.038 1374.45,756.96 1258.56,682.474 1130.66,631.276 1125.38,629.726 1024.41,607.766 921.337,600.396 717.785,600.396 700.607,631.892 921.337,631.892 1019.93,638.942 1116.51,659.948 1121.79,661.498 1244.13,710.47 1354.98,781.716 1450.34,872.66 1453.94,876.818 1521.92,969.94 1573.52,1073.04 1607.31,1183.28 1608.19,1187.33 1620.05,1260.53 1624.01,1334.57 1624.01,2968.54 1623.31,2978.35 1607.56,2978.35 1608.26,2968.54 1608.26,1334.57 1604.39,1262.21 1592.8,1190.68 1591.92,1186.62 1558.9,1078.9 1508.47,978.136 1442.04,887.13 1438.44,882.972 1345.25,794.094 1236.91,724.468 1117.36,676.608 1112.07,675.058 1017.69,654.53 921.337,647.64 692.017,647.64 717.785,600.396 666.247,694.884 921.337,694.884 1010.96,701.292 1098.77,720.39 1104.05,721.94 1215.26,766.46 1316.04,831.228 1402.73,913.904 1406.33,918.064 1468.13,1002.72 1515.04,1096.45 1545.75,1196.66 1546.63,1200.72 1557.41,1267.26 1561.02,1334.57 1561.02,2968.54 1560.32,2978.35 1434.33,2978.35 1450.08,2978.35 1450.78,2968.54 1450.78,1334.57 1447.81,1279.04 1438.92,1224.14 1438.03,1220.09 1412.69,1137.41 1374,1060.08 1323.01,990.242 1319.41,986.084 1247.89,917.876 1164.75,864.44 1072.99,827.712 1067.72,826.162 995.279,810.408 921.337,805.12 606.119,805.12 631.887,757.876 597.529,820.868 921.337,820.868 993.039,825.996 1063.28,841.272 1068.56,842.822 1157.53,878.438 1238.15,930.254 1307.51,996.394 1311.11,1000.55 1360.55,1068.28 1398.07,1143.26 1422.65,1223.43 1423.53,1227.49 1432.15,1280.72 1435.04,1334.57 1435.04,2968.54 1434.33,2978.35 1198.11,2978.35 1213.86,2978.35 1214.56,2968.54 1214.56,1334.57 1212.94,1304.28 1208.09,1274.34 1207.21,1270.28 1193.39,1225.18 1172.28,1183.01 1144.47,1144.91 1140.87,1140.75 1101.86,1103.55 1056.51,1074.4 1006.46,1054.37 1001.18,1052.82 961.669,1044.22 921.337,1041.34 477.271,1041.34 537.399,931.106 921.337,931.106 977.353,935.112 1032.23,947.048 1037.51,948.596 1107.02,976.42 1170,1016.9 1224.19,1068.57 1227.79,1072.73 1266.41,1125.64 1295.73,1184.22 1314.93,1246.86 1315.81,1250.91 1322.55,1292.5 1324.8,1334.57 1324.8,2968.54 1324.1,2978.35 1339.85,2978.35 1340.55,2968.54 1340.55,1334.57 1338.2,1290.82 1331.2,1247.57 1330.32,1243.51 1310.35,1178.37 1279.86,1117.45 1239.69,1062.42 1236.09,1058.26 1179.74,1004.52 1114.24,962.422 1041.95,933.484 1036.67,931.934 979.595,919.522 921.337,915.356 545.989,915.356 520.221,962.6 921.337,962.6 972.873,966.286 1023.36,977.266 1028.64,978.816 1092.59,1004.41 1150.53,1041.66 1200.38,1089.2 1203.98,1093.35 1239.52,1142.03 1266.49,1195.93 1284.15,1253.55 1285.03,1257.6 1291.23,1295.87 1293.3,1334.57 1293.3,2968.54 1292.6,2978.35 1276.85,2978.35 1277.56,2968.54 1277.56,1334.57 1275.57,1297.55 1269.64,1260.95 1268.76,1256.89 1251.87,1201.78 1226.07,1150.23 1192.08,1103.67 1188.48,1099.51 1140.8,1054.04 1085.37,1018.41 1024.2,993.926 1018.92,992.376 970.631,981.874 921.337,978.348 511.631,978.348 528.809,946.852 503.041,994.096 921.337,994.096 968.391,997.462 1014.49,1007.49 1019.77,1009.04 1078.16,1032.41 1131.06,1066.41 1176.58,1109.82 1180.18,1113.98 1212.62,1158.42 1237.25,1207.63 1253.37,1260.24 1254.26,1264.3 1259.91,1299.23 1261.81,1334.57 1261.81,2968.54 1261.11,2978.35 1245.36,2978.35 1246.06,2968.54 1246.06,1334.57 1244.26,1300.91 1238.87,1267.64 1237.98,1263.59 1222.63,1213.48 1199.17,1166.62 1168.27,1124.29 1164.67,1120.13 1121.33,1078.79 1070.94,1046.41 1015.33,1024.15 1010.05,1022.6 966.151,1013.05 921.337,1009.84 494.451,1009.84 528.809,946.852 921.337,946.852 975.113,950.698 1027.79,962.156 1033.07,963.706 1099.8,990.418 1160.27,1029.28 1212.28,1078.88 1215.89,1083.04 1252.97,1133.84 1281.11,1190.08 1299.54,1250.2 1300.42,1254.26 1306.89,1294.18 1309.05,1334.57 1309.05,2968.54 1308.35,2978.35 1213.86,2978.35 1229.61,2978.35 1230.31,2968.54 1230.31,1334.57 1228.6,1302.6 1223.48,1270.99 1222.6,1266.93 1208.01,1219.33 1185.73,1174.81 1156.37,1134.6 1152.77,1130.44 1111.59,1091.17 1063.72,1060.4 1010.9,1039.26 1005.62,1037.71 963.909,1028.64 921.337,1025.59 485.861,1025.59 528.809,946.852 468.681,1057.09 921.337,1057.09 959.427,1059.81 996.745,1067.93 1002.02,1069.48 1049.29,1088.4 1092.12,1115.93 1128.96,1151.06 1132.57,1155.22 1158.83,1191.2 1178.77,1231.04 1191.82,1273.63 1192.7,1277.68 1197.28,1305.96 1198.82,1334.57 1198.82,2968.54 1198.11,2978.35 1040.63,2978.35 1056.38,2978.35 1057.08,2968.54 1057.08,1334.57 1056.36,1321.11 1054.21,1307.8 1053.32,1303.74 1047.18,1283.7 1037.8,1264.95 1025.44,1248.02 1021.84,1243.86 1004.5,1227.33 984.345,1214.38 962.103,1205.47 956.823,1203.92 939.261,1200.1 921.337,1198.82 391.373,1198.82 442.911,1104.33 434.323,1120.08 921.337,1120.08 950.465,1122.16 979.001,1128.37 984.281,1129.92 1020.43,1144.39 1053.18,1165.44 1081.35,1192.31 1084.95,1196.47 1105.04,1223.98 1120.28,1254.44 1130.27,1287.01 1131.15,1291.07 1134.65,1312.69 1135.82,1334.57 1135.82,2968.54 1135.12,2978.35 1150.87,2978.35 1151.57,2968.54 1151.57,1334.57 1150.31,1311.01 1146.54,1287.72 1145.65,1283.66 1134.9,1248.59 1118.49,1215.79 1096.86,1186.16 1093.26,1182 1062.91,1153.06 1027.64,1130.39 988.717,1114.81 983.437,1113.26 952.705,1106.58 921.337,1104.33 442.911,1104.33 417.143,1151.58 921.337,1151.58 945.983,1153.34 970.129,1158.59 975.409,1160.14 1005.99,1172.38 1033.71,1190.2 1057.55,1212.93 1061.15,1217.09 1078.14,1240.37 1091.04,1266.15 1099.49,1293.7 1100.37,1297.76 1103.34,1316.06 1104.33,1334.57 1104.33,2968.54 1103.63,2978.35 1119.37,2978.35 1120.08,2968.54 1120.08,1334.57 1118.99,1314.38 1115.76,1294.41 1114.88,1290.36 1105.66,1260.29 1091.59,1232.17 1073.05,1206.78 1069.45,1202.62 1043.44,1177.82 1013.21,1158.39 979.845,1145.03 974.565,1143.48 948.225,1137.75 921.337,1135.83 425.733,1135.83 442.911,1104.33 408.553,1167.32 921.337,1167.32 943.743,1168.93 965.695,1173.7 970.975,1175.25 998.777,1186.38 1023.97,1202.57 1045.64,1223.24 1049.25,1227.4 1064.7,1248.56 1076.42,1272 1084.1,1297.05 1084.98,1301.11 1087.68,1317.74 1088.58,1334.57 1088.58,2968.54 1087.88,2978.35 1056.38,2978.35 1072.13,2978.35 1072.83,2968.54 1072.83,1334.57 1072.02,1319.42 1069.59,1304.45 1068.71,1300.4 1061.8,1277.85 1051.25,1256.76 1037.34,1237.71 1033.74,1233.55 1014.24,1214.95 991.561,1200.38 966.539,1190.36 961.259,1188.81 941.503,1184.51 921.337,1183.07 399.963,1183.07 442.911,1104.33 382.783,1214.57 921.337,1214.57 937.021,1215.69 952.387,1219.03 957.667,1220.58 977.129,1228.37 994.765,1239.71 1009.94,1254.18 1013.54,1258.33 1024.35,1273.15 1032.56,1289.55 1037.94,1307.09 1038.82,1311.14 1040.7,1322.79 1041.34,1334.57 1041.34,2968.54 1040.63,2978.35 944.625,2978.35 961.047,2978.35 962.275,2973.03 962.597,2968.54 962.597,1334.57 961.877,1327.88 959.459,1318.81 957.113,1314.12 954.023,1309.89 950.421,1305.73 946.087,1301.6 941.049,1298.36 935.487,1296.13 925.817,1293.63 921.337,1293.31 339.835,1293.31 331.243,1309.06 921.337,1309.06 925.771,1309.69 931.051,1311.24 933.833,1312.36 936.351,1313.98 942.121,1320.2 943.665,1322.32 944.839,1324.66 946.489,1331.22 946.849,1334.57 946.687,2970.79 944.659,2978.26 943.547,2981.04 941.929,2983.55 939.865,2985.72 935.707,2989.33 933.589,2990.87 931.245,2992.04 924.683,2993.7 921.337,2994.05 74.7626,2994.05 70.3246,2993.42 62.2706,2990.75 59.7526,2989.14 53.9806,2982.91 52.4346,2980.8 51.2626,2978.45 49.6106,2971.89 49.2526,2968.54 49.3746,1797.78 50.9306,1791.18 52.3666,1787.53 306.099,1322.35 308.783,1318.76 312.671,1314.87 314.825,1313.07 317.265,1311.68 319.915,1310.74 326.533,1309.18 331.243,1309.06 357.013,1261.81 348.423,1277.56 921.337,1277.56 928.059,1278.04 934.643,1279.47 939.923,1281.02 948.265,1284.36 955.823,1289.22 962.325,1295.42 965.927,1299.58 970.561,1305.93 974.079,1312.96 976.383,1320.47 977.265,1324.53 978.073,1329.52 978.345,1334.57 978.345,2968.54 977.863,2975.27 977.193,2978.35 993.269,2978.35 993.451,2977.51 994.093,2968.54 994.093,1334.57 993.731,1327.84 992.653,1321.18 991.771,1317.13 988.701,1307.11 984.009,1297.73 977.829,1289.27 974.227,1285.11 965.559,1276.84 955.481,1270.37 944.359,1265.91 939.079,1264.36 930.299,1262.45 921.337,1261.81 357.013,1261.81 365.603,1246.06" style="stroke:rgb(0,0,0);stroke-width:1px;fill:none;stroke-opacity:1;stroke-linecap:round;stroke-linejoin:round;;fill:none"/>
<polyline points="590.551,1793.31 622.047,1793.31 624.781,1793.55 627.433,1794.26 629.921,1795.42 632.169,1796.99 634.111,1798.93 635.685,1801.18 636.845,1803.67 637.555,1806.32 637.795,1809.06 637.795,1840.55 680.529,1840.55 688.231,1827.39 699.795,1814.54 713.875,1804.33 719.683,1801.73 719.685,1792.6 709.669,1797.27 696.689,1806.36 688.021,1815.02 684.433,1817.71 676.853,1821.52 673.929,1822.16 670.935,1822.23 662.495,1821.34 659.687,1820.3 652.727,1815.44 649.559,1812.27 648.347,1810.38 646.079,1805.9 642.991,1797.62 638.921,1792.18 633.483,1788.11 626.851,1785.64 590.551,1785.43 590.551,1793.31" style="stroke:rgb(103,198,105);stroke-width:31.496063;fill:none;stroke-opacity:0.5;stroke-linecap:round;stroke-linejoin:round;;fill:none"/>
<polyline points="590.551,1793.31 622.047,1793.31 624.781,1793.55 627.433,1794.26 629.921,1795.42 632.169,1796.99 634.111,1798.93 635.685,1801.18 636.845,1803.67 637.555,1806.32 637.795,1809.06 637.795,1840.55 680.529,1840.55 688.231,1827.39 699.795,1814.54 713.875,1804.33 719.683,1801.73 719.685,1792.6 709.669,1797.27 696.689,1806.36 688.021,1815.02 684.433,1817.71 676.853,1821.52 673.929,1822.16 670.935,1822.23 662.495,1821.34 659.687,1820.3 652.727,1815.44 649.559,1812.27 648.347,1810.38 646.079,1805.9 642.991,1797.62 638.921,1792.18 633.483,1788.11 626.851,1785.64 590.551,1785.43 590.551,1793.31" style="stroke:rgb(0,0,0);stroke-width:1px;fill:none;stroke-opacity:1;stroke-linecap:round;stroke-linejoin:round;;fill:none"/>
<polyline points="464.567,1840.55 472.441,1840.55 472.441,1809.06 472.679,1806.32 473.391,1803.67 474.551,1801.18 476.125,1798.93 478.065,1796.99 480.315,1795.42 482.803,1794.26 485.453,1793.55 488.189,1793.31 519.683,1793.31 519.683,1785.43 483.381,1785.64 476.749,1788.11 471.313,1792.18 467.243,1797.62 464.769,1804.25 464.567,1840.55" style="stroke:rgb(103,198,105);stroke-width:31.496063;fill:none;stroke-opacity:0.5;stroke-linecap:round;stroke-linejoin:round;;fill:none"/>
<polyline points="464.567,1840.55 472.441,1840.55 472.441,1809.06 472.679,1806.32 473.391,1803.67 474.551,1801.18 476.125,1798.93 478.065,1796.99 480.315,1795.42 482.803,1794.26 485.453,1793.55 488.189,1793.31 519.683,1793.31 519.683,1785.43 483.381,1785.64 476.749,1788.11 471.313,1792.18 467.243,1797.62 464.769,1804.25 464.567,1840.55" style="stroke:rgb(0,0,0);stroke-width:1px;fill:none;stroke-opacity:1;stroke-linecap:round;stroke-linejoin:round;;fill:none"/>
<polyline points="464.567,1945.84 464.769,1947.72 467.241,1954.35 471.313,1959.79 476.749,1963.86 483.381,1966.34 485.263,1966.54 519.683,1966.54 519.683,1958.66 488.189,1958.66 485.453,1958.42 482.803,1957.71 480.315,1956.55 478.065,1954.98 476.125,1953.04 474.551,1950.79 473.391,1948.3 472.679,1945.65 472.441,1942.92 472.441,1911.42 464.567,1911.42 464.567,1945.84" style="stroke:rgb(103,198,105);stroke-width:31.496063;fill:none;stroke-opacity:0.5;stroke-linecap:round;stroke-linejoin:round;;fill:none"/>
<polyline points="464.567,1945.84 464.769,1947.72 467.241,1954.35 471.313,1959.79 476.749,1963.86 483.381,1966.34 485.263,1966.54 519.683,1966.54 519.683,1958.66 488.189,1958.66 485.453,1958.42 482.803,1957.71 480.315,1956.55 478.065,1954.98 476.125,1953.04 474.551,1950.79 473.391,1948.3 472.679,1945.65 472.441,1942.92 472.441,1911.42 464.567,1911.42 464.567,1945.84" style="stroke:rgb(0,0,0);stroke-width:1px;fill:none;stroke-opacity:1;stroke-linecap:round;stroke-linejoin:round;;fill:none"/>
<polyline points="590.551,1966.54 624.969,1966.54 626.849,1966.34 633.483,1963.86 638.921,1959.79 642.991,1954.35 647.013,1944.03 651.527,1937.73 653.541,1935.52 655.937,1933.73 658.629,1932.42 666.673,1929.72 669.659,1929.51 672.629,1929.86 678.005,1931.03 682.211,1932.6 688.021,1936.95 696.689,1945.62 709.669,1954.71 719.685,1959.38 719.683,1950.24 713.875,1947.64 699.795,1937.43 688.231,1924.58 680.531,1911.42 637.795,1911.42 637.795,1942.92 637.555,1945.65 636.845,1948.3 635.685,1950.79 634.111,1953.04 632.169,1954.98 629.921,1956.55 627.433,1957.71 624.781,1958.42 622.047,1958.66 590.551,1958.66 590.551,1966.54" style="stroke:rgb(103,198,105);stroke-width:31.496063;fill:none;stroke-opacity:0.5;stroke-linecap:round;stroke-linejoin:round;;fill:none"/>
<polyline points="590.551,1966.54 624.969,1966.54 626.849,1966.34 633.483,1963.86 638.921,1959.79 642.991,1954.35 647.013,1944.03 651.527,1937.73 653.541,1935.52 655.937,1933.73 658.629,1932.42 666.673,1929.72 669.659,1929.51 672.629,1929.86 678.005,1931.03 682.211,1932.6 688.021,1936.95 696.689,1945.62 709.669,1954.71 719.685,1959.38 719.683,1950.24 713.875,1947.64 699.795,1937.43 688.231,1924.58 680.531,1911.42 637.795,1911.42 637.795,1942.92 637.555,1945.65 636.845,1948.3 635.685,1950.79 634.111,1953.04 632.169,1954.98 629.921,1956.55 627.433,1957.71 624.781,1958.42 622.047,1958.66 590.551,1958.66 590.551,1966.54" style="stroke:rgb(0,0,0);stroke-width:1px;fill:none;stroke-opacity:1;stroke-linecap:round;stroke-linejoin:round;;fill:none"/>
<polyline points="790.551,1959.38 790.551,1950.24 796.359,1947.64 810.439,1937.43 822.005,1924.58 829.703,1911.42 838.505,1911.42 833.835,1921.43 824.749,1934.41 813.545,1945.62 800.565,1954.71 790.551,1959.38" style="stroke:rgb(103,198,105);stroke-width:31.496063;fill:none;stroke-opacity:0.5;stroke-linecap:round;stroke-linejoin:round;;fill:none"/>
<polyline points="790.551,1959.38 790.551,1950.24 796.359,1947.64 810.439,1937.43 822.005,1924.58 829.703,1911.42 838.505,1911.42 833.835,1921.43 824.749,1934.41 813.545,1945.62 800.565,1954.71 790.551,1959.38" style="stroke:rgb(0,0,0);stroke-width:1px;fill:none;stroke-opacity:1;stroke-linecap:round;stroke-linejoin:round;;fill:none"/>
<polyline points="790.551,1801.73 790.551,1792.6 800.565,1797.27 813.545,1806.35 824.749,1817.56 833.835,1830.54 838.505,1840.55 829.705,1840.55 822.005,1827.39 810.439,1814.54 796.359,1804.33 790.551,1801.73" style="stroke:rgb(103,198,105);stroke-width:31.496063;fill:none;stroke-opacity:0.5;stroke-linecap:round;stroke-linejoin:round;;fill:none"/>
<polyline points="790.551,1801.73 790.551,1792.6 800.565,1797.27 813.545,1806.35 824.749,1817.56 833.835,1830.54 838.505,1840.55 829.705,1840.55 822.005,1827.39 810.439,1814.54 796.359,1804.33 790.551,1801.73" style="stroke:rgb(0,0,0);stroke-width:1px;fill:none;stroke-opacity:1;stroke-linecap:round;stroke-linejoin:round;;fill:none"/>
<polyline points="1639.76,959.94 1616.06,912.576 1537.26,804.64 1533.66,800.482 1423.13,695.068 1294.64,612.488 1152.84,555.724 1147.56,554.174 1035.61,529.826 921.337,521.656 760.735,521.656 829.453,395.672 812.275,427.168 921.337,427.168 1049.06,436.3 1174.18,463.512 1179.46,465.062 1337.94,528.504 1481.54,620.8 1605.08,738.614 1608.68,742.772 1639.76,785.346 1639.76,758.73 1620.58,732.46 1616.98,728.302 1491.28,608.422 1345.15,514.506 1183.89,449.952 1178.61,448.402 1051.3,420.712 921.337,411.42 820.865,411.42 829.453,395.672 803.685,442.916 921.337,442.916 1046.81,451.888 1169.74,478.622 1175.02,480.172 1330.72,542.5 1471.81,633.178 1593.18,748.924 1596.78,753.082 1639.76,811.964 1639.76,732.114 1632.49,722.15 1628.89,717.992 1501.01,596.044 1352.37,500.508 1188.33,434.842 1183.05,433.292 1053.54,405.124 921.337,395.672 829.453,395.672 752.145,537.404 921.337,537.404 1033.37,545.414 1143.13,569.286 1148.41,570.836 1287.42,626.486 1413.39,707.448 1521.76,810.792 1525.36,814.95 1602.61,920.77 1639.76,995.008 1639.76,1030.07 1639.76,576.724 1569.16,509.396 1402.88,402.526 1219.38,329.068 1214.1,327.518 1069.22,296.01 921.337,285.434 889.583,285.434 1009.84,64.9625 1263.34,64.9645" style="stroke:rgb(103,198,105);stroke-width:31.496063;fill:none;stroke-opacity:0.5;stroke-linecap:round;stroke-linejoin:round;;fill:none"/>
<polyline points="1639.76,959.94 1616.06,912.576 1537.26,804.64 1533.66,800.482 1423.13,695.068 1294.64,612.488 1152.84,555.724 1147.56,554.174 1035.61,529.826 921.337,521.656 760.735,521.656 829.453,395.672 812.275,427.168 921.337,427.168 1049.06,436.3 1174.18,463.512 1179.46,465.062 1337.94,528.504 1481.54,620.8 1605.08,738.614 1608.68,742.772 1639.76,785.346 1639.76,758.73 1620.58,732.46 1616.98,728.302 1491.28,608.422 1345.15,514.506 1183.89,449.952 1178.61,448.402 1051.3,420.712 921.337,411.42 820.865,411.42 829.453,395.672 803.685,442.916 921.337,442.916 1046.81,451.888 1169.74,478.622 1175.02,480.172 1330.72,542.5 1471.81,633.178 1593.18,748.924 1596.78,753.082 1639.76,811.964 1639.76,732.114 1632.49,722.15 1628.89,717.992 1501.01,596.044 1352.37,500.508 1188.33,434.842 1183.05,433.292 1053.54,405.124 921.337,395.672 829.453,395.672 752.145,537.404 921.337,537.404 1033.37,545.414 1143.13,569.286 1148.41,570.836 1287.42,626.486 1413.39,707.448 1521.76,810.792 1525.36,814.95 1602.61,920.77 1639.76,995.008 1639.76,1030.07 1639.76,576.724 1569.16,509.396 1402.88,402.526 1219.38,329.068 1214.1,327.518 1069.22,296.01 921.337,285.434 889.583,285.434 1009.84,64.9625 1263.34,64.9645" style="stroke:rgb(0,0,0);stroke-width:1px;fill:none;stroke-opacity:1;stroke-linecap:round;stroke-linejoin:round;;fill:none"/>
</svg>
