%TF.GenerationSoftware,KiCad,Pcbnew,7.0.5*%
%TF.CreationDate,2023-10-13T18:51:22-04:00*%
%TF.ProjectId,Board_To_Be_Tested,426f6172-645f-4546-9f5f-42655f546573,rev?*%
%TF.SameCoordinates,PX7735940PY66ff300*%
%TF.FileFunction,Copper,L1,Top*%
%TF.FilePolarity,Positive*%
%FSLAX46Y46*%
G04 Gerber Fmt 4.6, Leading zero omitted, Abs format (unit mm)*
G04 Created by KiCad (PCBNEW 7.0.5) date 2023-10-13 18:51:22*
%MOMM*%
%LPD*%
G01*
G04 APERTURE LIST*
G04 Aperture macros list*
%AMRoundRect*
0 Rectangle with rounded corners*
0 $1 Rounding radius*
0 $2 $3 $4 $5 $6 $7 $8 $9 X,Y pos of 4 corners*
0 Add a 4 corners polygon primitive as box body*
4,1,4,$2,$3,$4,$5,$6,$7,$8,$9,$2,$3,0*
0 Add four circle primitives for the rounded corners*
1,1,$1+$1,$2,$3*
1,1,$1+$1,$4,$5*
1,1,$1+$1,$6,$7*
1,1,$1+$1,$8,$9*
0 Add four rect primitives between the rounded corners*
20,1,$1+$1,$2,$3,$4,$5,0*
20,1,$1+$1,$4,$5,$6,$7,0*
20,1,$1+$1,$6,$7,$8,$9,0*
20,1,$1+$1,$8,$9,$2,$3,0*%
G04 Aperture macros list end*
%TA.AperFunction,SMDPad,CuDef*%
%ADD10C,1.000000*%
%TD*%
%TA.AperFunction,SMDPad,CuDef*%
%ADD11RoundRect,0.250000X0.625000X-0.400000X0.625000X0.400000X-0.625000X0.400000X-0.625000X-0.400000X0*%
%TD*%
%TA.AperFunction,SMDPad,CuDef*%
%ADD12RoundRect,0.250000X-0.400000X-0.625000X0.400000X-0.625000X0.400000X0.625000X-0.400000X0.625000X0*%
%TD*%
%TA.AperFunction,SMDPad,CuDef*%
%ADD13RoundRect,0.250001X-0.462499X-0.624999X0.462499X-0.624999X0.462499X0.624999X-0.462499X0.624999X0*%
%TD*%
%TA.AperFunction,SMDPad,CuDef*%
%ADD14RoundRect,0.250000X0.650000X-0.412500X0.650000X0.412500X-0.650000X0.412500X-0.650000X-0.412500X0*%
%TD*%
%TA.AperFunction,SMDPad,CuDef*%
%ADD15R,1.000000X2.300000*%
%TD*%
%TA.AperFunction,SMDPad,CuDef*%
%ADD16R,1.800000X0.800000*%
%TD*%
%TA.AperFunction,SMDPad,CuDef*%
%ADD17RoundRect,1.000000X0.000000X0.375000X0.000000X-0.375000X0.000000X-0.375000X0.000000X0.375000X0*%
%TD*%
%TA.AperFunction,SMDPad,CuDef*%
%ADD18R,0.700000X1.600000*%
%TD*%
%TA.AperFunction,Conductor*%
%ADD19C,1.016000*%
%TD*%
%TA.AperFunction,Conductor*%
%ADD20C,0.635000*%
%TD*%
%TA.AperFunction,Conductor*%
%ADD21C,0.762000*%
%TD*%
%TA.AperFunction,Conductor*%
%ADD22C,0.508000*%
%TD*%
G04 APERTURE END LIST*
D10*
%TO.P,FID1,*%
%TO.N,*%
X3000000Y41000000D03*
%TD*%
D11*
%TO.P,R7,1*%
%TO.N,+3V3*%
X14050000Y7250000D03*
%TO.P,R7,2*%
%TO.N,/SHT_DATA*%
X14050000Y10350000D03*
%TD*%
%TO.P,R8,1*%
%TO.N,/PWR*%
X7400000Y22160000D03*
%TO.P,R8,2*%
%TO.N,/SCL*%
X7400000Y25260000D03*
%TD*%
D12*
%TO.P,R5,1*%
%TO.N,GND*%
X27550000Y4700000D03*
%TO.P,R5,2*%
%TO.N,/A0*%
X30650000Y4700000D03*
%TD*%
D10*
%TO.P,FID2,*%
%TO.N,*%
X47000000Y41000000D03*
%TD*%
D13*
%TO.P,D3,1,K*%
%TO.N,GND*%
X18195000Y38580000D03*
%TO.P,D3,2,A*%
%TO.N,Net-(D3-A)*%
X21170000Y38580000D03*
%TD*%
D12*
%TO.P,R1,1*%
%TO.N,Net-(D2-A)*%
X24132500Y41580000D03*
%TO.P,R1,2*%
%TO.N,/LED1*%
X27232500Y41580000D03*
%TD*%
D10*
%TO.P,FID4,*%
%TO.N,*%
X47000000Y3000000D03*
%TD*%
D12*
%TO.P,R4,1*%
%TO.N,/A0*%
X32900000Y4700000D03*
%TO.P,R4,2*%
%TO.N,+3V3*%
X36000000Y4700000D03*
%TD*%
%TO.P,R2,1*%
%TO.N,Net-(D3-A)*%
X24132500Y38580000D03*
%TO.P,R2,2*%
%TO.N,/LED2*%
X27232500Y38580000D03*
%TD*%
D14*
%TO.P,C2,1*%
%TO.N,VBUS*%
X19730000Y16037500D03*
%TO.P,C2,2*%
%TO.N,GND*%
X19730000Y19162500D03*
%TD*%
D13*
%TO.P,D4,1,K*%
%TO.N,GND*%
X18195000Y35580000D03*
%TO.P,D4,2,A*%
%TO.N,Net-(D4-A)*%
X21170000Y35580000D03*
%TD*%
D12*
%TO.P,R6,1*%
%TO.N,Net-(D5-A)*%
X24132500Y32580000D03*
%TO.P,R6,2*%
%TO.N,/LED4*%
X27232500Y32580000D03*
%TD*%
D13*
%TO.P,D5,1,K*%
%TO.N,GND*%
X18195000Y32580000D03*
%TO.P,D5,2,A*%
%TO.N,Net-(D5-A)*%
X21170000Y32580000D03*
%TD*%
D15*
%TO.P,D1,1,VSS*%
%TO.N,GND*%
X25860000Y21720000D03*
%TO.P,D1,2,DIN*%
%TO.N,/DIN*%
X22660000Y21720000D03*
%TO.P,D1,3,VDD*%
%TO.N,VBUS*%
X22660000Y16020000D03*
%TO.P,D1,4,DOUT*%
%TO.N,unconnected-(D1-DOUT-Pad4)*%
X25860000Y16020000D03*
%TD*%
D16*
%TO.P,U1,1,GND*%
%TO.N,GND*%
X10090000Y9095000D03*
%TO.P,U1,2,DATA*%
%TO.N,/SHT_DATA*%
X10090000Y10365000D03*
%TO.P,U1,3,SCK*%
%TO.N,/SHT_CLK*%
X10090000Y11635000D03*
%TO.P,U1,4,VDD*%
%TO.N,+3V3*%
X10090000Y12905000D03*
%TO.P,U1,5*%
%TO.N,N/C*%
X4810000Y12905000D03*
%TO.P,U1,6*%
X4810000Y11635000D03*
%TO.P,U1,7*%
X4810000Y10365000D03*
%TO.P,U1,8*%
X4810000Y9095000D03*
%TD*%
D11*
%TO.P,R9,1*%
%TO.N,/SDA*%
X15210000Y27070000D03*
%TO.P,R9,2*%
%TO.N,/PWR*%
X15210000Y30170000D03*
%TD*%
D17*
%TO.P,U2,1,PA02_A0_D0*%
%TO.N,/LED1*%
X47000750Y26616000D03*
%TO.P,U2,2,PA4_A1_D1*%
%TO.N,/LED2*%
X44460750Y26616000D03*
%TO.P,U2,3,PA10_A2_D2*%
%TO.N,/LED3*%
X41920750Y26616000D03*
%TO.P,U2,4,PA11_A3_D3*%
%TO.N,/LED4*%
X39380750Y26616000D03*
%TO.P,U2,5,PA8_A4_D4_SDA*%
%TO.N,/SDA*%
X36840750Y26616000D03*
%TO.P,U2,6,PA9_A5_D5_SCL*%
%TO.N,/SCL*%
X34300750Y26616000D03*
%TO.P,U2,7,PB08_A6_D6_TX*%
%TO.N,/DIN*%
X31760750Y26616000D03*
%TO.P,U2,8,PB09_A7_D7_RX*%
%TO.N,/SHT_DATA*%
X31760750Y8616000D03*
%TO.P,U2,9,PA7_A8_D8_SCK*%
%TO.N,/A0*%
X34300750Y8616000D03*
%TO.P,U2,10,PA5_A9_D9_MISO*%
%TO.N,unconnected-(U2-PA5_A9_D9_MISO-Pad10)*%
X36840750Y8616000D03*
%TO.P,U2,11,PA6_A10_D10_MOSI*%
%TO.N,/SHT_CLK*%
X39380750Y8616000D03*
%TO.P,U2,12,3V3*%
%TO.N,+3V3*%
X41920750Y8616000D03*
%TO.P,U2,13,GND*%
%TO.N,GND*%
X44460750Y8616000D03*
%TO.P,U2,14,5V*%
%TO.N,VBUS*%
X47000750Y8616000D03*
%TD*%
D13*
%TO.P,D2,1,K*%
%TO.N,GND*%
X18195000Y41580000D03*
%TO.P,D2,2,A*%
%TO.N,Net-(D2-A)*%
X21170000Y41580000D03*
%TD*%
D12*
%TO.P,R10,1*%
%TO.N,/PWR*%
X10000000Y22180000D03*
%TO.P,R10,2*%
%TO.N,+3V3*%
X13100000Y22180000D03*
%TD*%
D10*
%TO.P,FID3,*%
%TO.N,*%
X3000000Y3000000D03*
%TD*%
D14*
%TO.P,C1,1*%
%TO.N,+3V3*%
X14050000Y12937500D03*
%TO.P,C1,2*%
%TO.N,GND*%
X14050000Y16062500D03*
%TD*%
D18*
%TO.P,IC1,1,SCL*%
%TO.N,/SCL*%
X7390000Y30200000D03*
%TO.P,IC1,2,VDD*%
%TO.N,/PWR*%
X8660000Y30200000D03*
%TO.P,IC1,3,GND*%
%TO.N,GND*%
X9930000Y30200000D03*
%TO.P,IC1,4,SDA*%
%TO.N,/SDA*%
X11200000Y30200000D03*
%TD*%
D12*
%TO.P,R3,1*%
%TO.N,Net-(D4-A)*%
X24132500Y35580000D03*
%TO.P,R3,2*%
%TO.N,/LED3*%
X27232500Y35580000D03*
%TD*%
D19*
%TO.N,GND*%
X44460750Y8616000D02*
X44460750Y5660750D01*
D20*
X9930000Y32380000D02*
X10580000Y33030000D01*
D21*
X10090000Y9095000D02*
X11905000Y9095000D01*
D20*
X9930000Y30200000D02*
X9930000Y31590000D01*
X9930000Y31590000D02*
X9930000Y32380000D01*
D21*
%TO.N,VBUS*%
X19747500Y16020000D02*
X19730000Y16037500D01*
X42400000Y11200000D02*
X34900000Y18700000D01*
X22660000Y16020000D02*
X19747500Y16020000D01*
X47000750Y9999250D02*
X45800000Y11200000D01*
X34900000Y18700000D02*
X34900000Y21690000D01*
X47000750Y8616000D02*
X47000750Y9999250D01*
X34900000Y21690000D02*
X33470000Y23120000D01*
X29620000Y23120000D02*
X28150000Y21650000D01*
X22660000Y17990000D02*
X22660000Y16020000D01*
X26790000Y18710000D02*
X23380000Y18710000D01*
X23380000Y18710000D02*
X22660000Y17990000D01*
X33470000Y23120000D02*
X29620000Y23120000D01*
X45800000Y11200000D02*
X42400000Y11200000D01*
X28150000Y20070000D02*
X26790000Y18710000D01*
X28150000Y21650000D02*
X28150000Y20070000D01*
D22*
%TO.N,/DIN*%
X22660000Y24350000D02*
X24926000Y26616000D01*
X24926000Y26616000D02*
X31760750Y26616000D01*
X22660000Y21720000D02*
X22660000Y24350000D01*
%TO.N,Net-(D2-A)*%
X21170000Y41580000D02*
X24132500Y41580000D01*
%TO.N,Net-(D3-A)*%
X21170000Y38580000D02*
X24132500Y38580000D01*
%TO.N,Net-(D4-A)*%
X21170000Y35580000D02*
X24132500Y35580000D01*
%TO.N,Net-(D5-A)*%
X21170000Y32580000D02*
X24132500Y32580000D01*
%TO.N,/LED1*%
X41790000Y41570000D02*
X27242500Y41570000D01*
X47000750Y36359250D02*
X41790000Y41570000D01*
X27242500Y41570000D02*
X27232500Y41580000D01*
X47000750Y26616000D02*
X47000750Y36359250D01*
%TO.N,/LED2*%
X27242500Y38570000D02*
X27232500Y38580000D01*
X41460000Y38570000D02*
X27242500Y38570000D01*
X44460750Y35569250D02*
X41460000Y38570000D01*
X44460750Y26616000D02*
X44460750Y35569250D01*
%TO.N,/LED3*%
X39970000Y35570000D02*
X27242500Y35570000D01*
X27242500Y35570000D02*
X27232500Y35580000D01*
X41920750Y26616000D02*
X41920750Y33619250D01*
X41920750Y33619250D02*
X39970000Y35570000D01*
%TO.N,/A0*%
X30650000Y4700000D02*
X32900000Y4700000D01*
X32900000Y4700000D02*
X34300750Y6100750D01*
X34300750Y6100750D02*
X34300750Y8616000D01*
%TO.N,+3V3*%
X41920750Y9629250D02*
X41920750Y8616000D01*
D21*
X40650000Y4700000D02*
X41920750Y5970750D01*
D22*
X16810000Y12937500D02*
X16810000Y18470000D01*
X14050000Y12937500D02*
X16810000Y12937500D01*
X14050000Y7250000D02*
X22550000Y7250000D01*
X38612500Y12937500D02*
X41920750Y9629250D01*
X36000000Y4700000D02*
X33750000Y2450000D01*
X22550000Y7250000D02*
X23950000Y5850000D01*
X23950000Y5850000D02*
X23950000Y4400000D01*
X25900000Y2450000D02*
X23950000Y4400000D01*
D21*
X36037500Y4662500D02*
X36000000Y4700000D01*
D22*
X16810000Y12937500D02*
X38612500Y12937500D01*
X10090000Y12905000D02*
X14017500Y12905000D01*
D21*
X36000000Y4700000D02*
X40650000Y4700000D01*
D22*
X33750000Y2450000D02*
X25900000Y2450000D01*
X14017500Y12905000D02*
X14050000Y12937500D01*
D21*
X41920750Y5970750D02*
X41920750Y8616000D01*
D22*
X16810000Y18470000D02*
X13100000Y22180000D01*
%TO.N,/LED4*%
X37720000Y32570000D02*
X27242500Y32570000D01*
X39380750Y26616000D02*
X39380750Y30909250D01*
X27242500Y32570000D02*
X27232500Y32580000D01*
X39380750Y30909250D02*
X37720000Y32570000D01*
%TO.N,/SHT_DATA*%
X10090000Y10365000D02*
X14035000Y10365000D01*
X14035000Y10365000D02*
X14050000Y10350000D01*
X23400000Y10350000D02*
X25134000Y8616000D01*
X25134000Y8616000D02*
X31760750Y8616000D01*
X14050000Y10350000D02*
X23400000Y10350000D01*
%TO.N,/SHT_CLK*%
X39380750Y10219250D02*
X39380750Y8616000D01*
X37965000Y11635000D02*
X39380750Y10219250D01*
X10090000Y11635000D02*
X37965000Y11635000D01*
%TO.N,/SCL*%
X7400000Y25260000D02*
X19110000Y25260000D01*
X7400000Y25260000D02*
X7400000Y30190000D01*
X7400000Y30190000D02*
X7390000Y30200000D01*
X34300750Y26763239D02*
X34300750Y26616000D01*
X19110000Y25260000D02*
X22480000Y28630000D01*
X22480000Y28630000D02*
X32433989Y28630000D01*
X32433989Y28630000D02*
X34300750Y26763239D01*
%TO.N,/SDA*%
X33733989Y29870000D02*
X36840750Y26763239D01*
X13040000Y27070000D02*
X15210000Y27070000D01*
X19350000Y27070000D02*
X22150000Y29870000D01*
X15210000Y27070000D02*
X19350000Y27070000D01*
X11200000Y28910000D02*
X13040000Y27070000D01*
X22150000Y29870000D02*
X33733989Y29870000D01*
X36840750Y26763239D02*
X36840750Y26616000D01*
X11200000Y30200000D02*
X11200000Y28910000D01*
%TO.N,/PWR*%
X5580000Y22160000D02*
X7400000Y22160000D01*
X15210000Y30170000D02*
X15210000Y32190000D01*
X7420000Y22180000D02*
X7400000Y22160000D01*
X5100000Y33380000D02*
X4070000Y32350000D01*
X10000000Y22180000D02*
X7420000Y22180000D01*
X8660000Y33380000D02*
X8660000Y33010000D01*
X13240000Y34160000D02*
X9440000Y34160000D01*
X8660000Y33010000D02*
X8660000Y30200000D01*
X4070000Y32350000D02*
X4070000Y23670000D01*
X9440000Y34160000D02*
X8660000Y33380000D01*
X15210000Y32190000D02*
X13240000Y34160000D01*
X4070000Y23670000D02*
X5580000Y22160000D01*
X8660000Y33380000D02*
X5100000Y33380000D01*
%TD*%
%TA.AperFunction,Conductor*%
%TO.N,GND*%
G36*
X49638221Y43726734D02*
G01*
X49704157Y43674151D01*
X49740749Y43598168D01*
X49745500Y43556000D01*
X49745500Y27189500D01*
X49726734Y27107279D01*
X49674151Y27041343D01*
X49598168Y27004751D01*
X49556000Y27000000D01*
X48562471Y27000000D01*
X48480250Y27018766D01*
X48414314Y27071349D01*
X48377722Y27147332D01*
X48376419Y27153517D01*
X48334791Y27368757D01*
X48334790Y27368758D01*
X48334789Y27368767D01*
X48251757Y27588787D01*
X48155114Y27753475D01*
X48132736Y27791610D01*
X48021830Y27923151D01*
X47981150Y27971400D01*
X47801359Y28122986D01*
X47801358Y28122987D01*
X47729839Y28164957D01*
X47668425Y28222756D01*
X47638171Y28301478D01*
X47636250Y28328393D01*
X47636250Y36268170D01*
X47638329Y36287007D01*
X47637336Y36287100D01*
X47638458Y36298972D01*
X47636297Y36367719D01*
X47636250Y36370696D01*
X47636250Y36399232D01*
X47636250Y36399233D01*
X47635553Y36404744D01*
X47634854Y36413638D01*
X47633414Y36459453D01*
X47633414Y36459455D01*
X47629131Y36474195D01*
X47623101Y36503311D01*
X47621177Y36518549D01*
X47621175Y36518553D01*
X47621174Y36518558D01*
X47604301Y36561172D01*
X47601407Y36569624D01*
X47597074Y36584537D01*
X47588619Y36613643D01*
X47580800Y36626864D01*
X47567718Y36653569D01*
X47562069Y36667838D01*
X47562067Y36667841D01*
X47535120Y36704931D01*
X47530217Y36712396D01*
X47506885Y36751847D01*
X47506884Y36751849D01*
X47496020Y36762713D01*
X47476713Y36785320D01*
X47474252Y36788707D01*
X47467692Y36797737D01*
X47432375Y36826954D01*
X47425768Y36832965D01*
X43258733Y41000000D01*
X45994659Y41000000D01*
X46013976Y40803864D01*
X46071185Y40615273D01*
X46164088Y40441465D01*
X46164090Y40441462D01*
X46289117Y40289117D01*
X46441462Y40164090D01*
X46441464Y40164089D01*
X46615272Y40071186D01*
X46803863Y40013977D01*
X46803865Y40013977D01*
X46803868Y40013976D01*
X47000000Y39994659D01*
X47196132Y40013976D01*
X47196134Y40013977D01*
X47196136Y40013977D01*
X47384727Y40071186D01*
X47558538Y40164090D01*
X47710883Y40289117D01*
X47835910Y40441462D01*
X47928814Y40615273D01*
X47955247Y40702411D01*
X47986023Y40803864D01*
X47986023Y40803866D01*
X47986024Y40803868D01*
X48005341Y41000000D01*
X47986024Y41196132D01*
X47986023Y41196135D01*
X47986023Y41196137D01*
X47928814Y41384728D01*
X47835911Y41558536D01*
X47835910Y41558538D01*
X47710883Y41710883D01*
X47558538Y41835910D01*
X47558536Y41835911D01*
X47558535Y41835912D01*
X47384727Y41928815D01*
X47196136Y41986024D01*
X47000000Y42005341D01*
X46803863Y41986024D01*
X46615272Y41928815D01*
X46441464Y41835912D01*
X46289120Y41710886D01*
X46289114Y41710880D01*
X46164088Y41558536D01*
X46071185Y41384728D01*
X46013976Y41196137D01*
X45994659Y41000000D01*
X43258733Y41000000D01*
X42303768Y41954965D01*
X42291921Y41969756D01*
X42291151Y41969118D01*
X42283554Y41978301D01*
X42283553Y41978303D01*
X42254760Y42005341D01*
X42233403Y42025397D01*
X42231265Y42027469D01*
X42211092Y42047641D01*
X42206713Y42051038D01*
X42199922Y42056838D01*
X42166503Y42088220D01*
X42153051Y42095615D01*
X42128201Y42111938D01*
X42116066Y42121351D01*
X42073993Y42139557D01*
X42065973Y42143486D01*
X42025803Y42165569D01*
X42025802Y42165570D01*
X42010927Y42169389D01*
X41982803Y42179018D01*
X41968712Y42185116D01*
X41968701Y42185119D01*
X41923431Y42192289D01*
X41914687Y42194099D01*
X41870282Y42205500D01*
X41854931Y42205500D01*
X41825287Y42207833D01*
X41810119Y42210236D01*
X41764482Y42205921D01*
X41755560Y42205500D01*
X28432246Y42205500D01*
X28350025Y42224266D01*
X28284089Y42276849D01*
X28250271Y42342129D01*
X28216668Y42457792D01*
X28135449Y42595127D01*
X28022627Y42707949D01*
X27885292Y42789168D01*
X27732074Y42833682D01*
X27696270Y42836500D01*
X26768730Y42836500D01*
X26762365Y42835999D01*
X26732926Y42833682D01*
X26579705Y42789167D01*
X26442375Y42707951D01*
X26329549Y42595125D01*
X26248333Y42457795D01*
X26248332Y42457793D01*
X26248332Y42457792D01*
X26203818Y42304574D01*
X26201000Y42268770D01*
X26201000Y40891230D01*
X26201759Y40881590D01*
X26203818Y40855427D01*
X26248333Y40702206D01*
X26329548Y40564877D01*
X26329551Y40564873D01*
X26442373Y40452051D01*
X26579708Y40370832D01*
X26732926Y40326318D01*
X26768730Y40323500D01*
X26768731Y40323500D01*
X27696269Y40323500D01*
X27696270Y40323500D01*
X27732074Y40326318D01*
X27885292Y40370832D01*
X28022627Y40452051D01*
X28135449Y40564873D01*
X28216668Y40702208D01*
X28234204Y40762570D01*
X28244461Y40797870D01*
X28285421Y40871590D01*
X28354312Y40920238D01*
X28426436Y40934500D01*
X41448274Y40934500D01*
X41530495Y40915734D01*
X41582271Y40878997D01*
X46309747Y36151522D01*
X46354616Y36080113D01*
X46365250Y36017525D01*
X46365250Y28328393D01*
X46346484Y28246172D01*
X46293901Y28180236D01*
X46271661Y28164957D01*
X46200140Y28122986D01*
X46020353Y27971403D01*
X46020352Y27971402D01*
X46020350Y27971400D01*
X45915607Y27847168D01*
X45875628Y27799750D01*
X45808281Y27748987D01*
X45725579Y27732472D01*
X45643900Y27753475D01*
X45585872Y27799750D01*
X45441150Y27971400D01*
X45261359Y28122986D01*
X45261357Y28122987D01*
X45189839Y28164957D01*
X45128425Y28222756D01*
X45098171Y28301478D01*
X45096250Y28328393D01*
X45096250Y35478170D01*
X45098329Y35497007D01*
X45097336Y35497100D01*
X45098458Y35508972D01*
X45096297Y35577719D01*
X45096250Y35580696D01*
X45096250Y35609232D01*
X45096250Y35609233D01*
X45095553Y35614744D01*
X45094854Y35623638D01*
X45093414Y35669453D01*
X45093414Y35669455D01*
X45089131Y35684195D01*
X45083101Y35713311D01*
X45081177Y35728549D01*
X45081175Y35728553D01*
X45081174Y35728558D01*
X45064301Y35771172D01*
X45061407Y35779624D01*
X45048619Y35823642D01*
X45048619Y35823643D01*
X45040800Y35836864D01*
X45027718Y35863569D01*
X45022069Y35877838D01*
X45022067Y35877841D01*
X44995120Y35914931D01*
X44990217Y35922396D01*
X44966885Y35961847D01*
X44966884Y35961849D01*
X44956020Y35972713D01*
X44936713Y35995320D01*
X44927691Y36007738D01*
X44927690Y36007739D01*
X44892375Y36036954D01*
X44885768Y36042965D01*
X41973768Y38954965D01*
X41961921Y38969756D01*
X41961151Y38969118D01*
X41953554Y38978301D01*
X41953553Y38978303D01*
X41903403Y39025397D01*
X41901265Y39027469D01*
X41881092Y39047641D01*
X41876713Y39051038D01*
X41869922Y39056838D01*
X41836503Y39088220D01*
X41823051Y39095615D01*
X41798201Y39111938D01*
X41786066Y39121351D01*
X41743993Y39139557D01*
X41735973Y39143486D01*
X41695803Y39165569D01*
X41695802Y39165570D01*
X41680927Y39169389D01*
X41652803Y39179018D01*
X41638712Y39185116D01*
X41638701Y39185119D01*
X41593431Y39192289D01*
X41584687Y39194099D01*
X41540282Y39205500D01*
X41524931Y39205500D01*
X41495287Y39207833D01*
X41480119Y39210236D01*
X41434482Y39205921D01*
X41425560Y39205500D01*
X28432246Y39205500D01*
X28350025Y39224266D01*
X28284089Y39276849D01*
X28250271Y39342129D01*
X28216668Y39457792D01*
X28135449Y39595127D01*
X28022627Y39707949D01*
X27885292Y39789168D01*
X27732074Y39833682D01*
X27696270Y39836500D01*
X26768730Y39836500D01*
X26762365Y39835999D01*
X26732926Y39833682D01*
X26579705Y39789167D01*
X26442375Y39707951D01*
X26329549Y39595125D01*
X26248333Y39457795D01*
X26248332Y39457793D01*
X26248332Y39457792D01*
X26203818Y39304574D01*
X26201000Y39268770D01*
X26201000Y37891230D01*
X26201759Y37881590D01*
X26203818Y37855427D01*
X26248333Y37702206D01*
X26329548Y37564877D01*
X26329551Y37564873D01*
X26442373Y37452051D01*
X26579708Y37370832D01*
X26732926Y37326318D01*
X26768730Y37323500D01*
X26768731Y37323500D01*
X27696269Y37323500D01*
X27696270Y37323500D01*
X27732074Y37326318D01*
X27885292Y37370832D01*
X28022627Y37452051D01*
X28135449Y37564873D01*
X28216668Y37702208D01*
X28234204Y37762570D01*
X28244461Y37797870D01*
X28285421Y37871590D01*
X28354312Y37920238D01*
X28426436Y37934500D01*
X41118274Y37934500D01*
X41200495Y37915734D01*
X41252271Y37878997D01*
X43769747Y35361521D01*
X43814616Y35290112D01*
X43825250Y35227524D01*
X43825250Y28328393D01*
X43806484Y28246172D01*
X43753901Y28180236D01*
X43731661Y28164957D01*
X43660140Y28122986D01*
X43480353Y27971403D01*
X43480352Y27971402D01*
X43480350Y27971400D01*
X43375607Y27847168D01*
X43335628Y27799750D01*
X43268281Y27748987D01*
X43185579Y27732472D01*
X43103900Y27753475D01*
X43045872Y27799750D01*
X42901150Y27971400D01*
X42721359Y28122986D01*
X42721357Y28122987D01*
X42649839Y28164957D01*
X42588425Y28222756D01*
X42558171Y28301478D01*
X42556250Y28328393D01*
X42556250Y33528170D01*
X42558329Y33547007D01*
X42557336Y33547100D01*
X42558456Y33558963D01*
X42558458Y33558969D01*
X42557209Y33598716D01*
X42556297Y33627765D01*
X42556250Y33630740D01*
X42556250Y33659231D01*
X42555557Y33664715D01*
X42554855Y33673628D01*
X42554626Y33680910D01*
X42553415Y33719455D01*
X42549129Y33734204D01*
X42543101Y33763317D01*
X42541177Y33778549D01*
X42524298Y33821180D01*
X42521410Y33829615D01*
X42508619Y33873643D01*
X42500801Y33886863D01*
X42487719Y33913567D01*
X42487401Y33914370D01*
X42482069Y33927838D01*
X42472272Y33941323D01*
X42455119Y33964932D01*
X42450220Y33972390D01*
X42426884Y34011848D01*
X42416029Y34022703D01*
X42396718Y34045314D01*
X42387692Y34057737D01*
X42371655Y34071004D01*
X42352369Y34086959D01*
X42345762Y34092970D01*
X41494232Y34944500D01*
X40483764Y35954969D01*
X40471924Y35969759D01*
X40471151Y35969118D01*
X40463554Y35978301D01*
X40463553Y35978303D01*
X40413403Y36025397D01*
X40411265Y36027469D01*
X40391092Y36047641D01*
X40386713Y36051038D01*
X40379922Y36056838D01*
X40346503Y36088220D01*
X40333051Y36095615D01*
X40308201Y36111938D01*
X40296066Y36121351D01*
X40253993Y36139557D01*
X40245973Y36143486D01*
X40205803Y36165569D01*
X40205802Y36165570D01*
X40190927Y36169389D01*
X40162803Y36179018D01*
X40148712Y36185116D01*
X40148701Y36185119D01*
X40103431Y36192289D01*
X40094687Y36194099D01*
X40050282Y36205500D01*
X40034931Y36205500D01*
X40005287Y36207833D01*
X39990119Y36210236D01*
X39944482Y36205921D01*
X39935560Y36205500D01*
X28432246Y36205500D01*
X28350025Y36224266D01*
X28284089Y36276849D01*
X28250271Y36342129D01*
X28216668Y36457792D01*
X28135449Y36595127D01*
X28022627Y36707949D01*
X28015107Y36712396D01*
X27885294Y36789167D01*
X27885293Y36789168D01*
X27885292Y36789168D01*
X27732074Y36833682D01*
X27696270Y36836500D01*
X26768730Y36836500D01*
X26762365Y36835999D01*
X26732926Y36833682D01*
X26579705Y36789167D01*
X26442375Y36707951D01*
X26329549Y36595125D01*
X26248333Y36457795D01*
X26248332Y36457793D01*
X26248332Y36457792D01*
X26203818Y36304574D01*
X26201000Y36268770D01*
X26201000Y34891230D01*
X26203818Y34855426D01*
X26240386Y34729557D01*
X26248333Y34702206D01*
X26329548Y34564877D01*
X26329551Y34564873D01*
X26442373Y34452051D01*
X26579708Y34370832D01*
X26732926Y34326318D01*
X26768730Y34323500D01*
X26768731Y34323500D01*
X27696269Y34323500D01*
X27696270Y34323500D01*
X27732074Y34326318D01*
X27885292Y34370832D01*
X28022627Y34452051D01*
X28135449Y34564873D01*
X28216668Y34702208D01*
X28237851Y34775119D01*
X28244461Y34797870D01*
X28285421Y34871590D01*
X28354312Y34920238D01*
X28426436Y34934500D01*
X39628274Y34934500D01*
X39710495Y34915734D01*
X39762271Y34878997D01*
X41229747Y33411521D01*
X41274616Y33340112D01*
X41285250Y33277524D01*
X41285250Y28328393D01*
X41266484Y28246172D01*
X41213901Y28180236D01*
X41191661Y28164957D01*
X41120140Y28122986D01*
X40940353Y27971403D01*
X40940352Y27971402D01*
X40940350Y27971400D01*
X40835607Y27847168D01*
X40795628Y27799750D01*
X40728281Y27748987D01*
X40645579Y27732472D01*
X40563900Y27753475D01*
X40505872Y27799750D01*
X40361150Y27971400D01*
X40262982Y28054168D01*
X40181361Y28122985D01*
X40109839Y28164956D01*
X40048425Y28222755D01*
X40018170Y28301477D01*
X40016249Y28328393D01*
X40016249Y29517208D01*
X40016249Y30818179D01*
X40018336Y30837006D01*
X40017336Y30837100D01*
X40018456Y30848963D01*
X40018458Y30848969D01*
X40017209Y30888716D01*
X40016297Y30917765D01*
X40016250Y30920740D01*
X40016250Y30949231D01*
X40015557Y30954715D01*
X40014855Y30963628D01*
X40014626Y30970910D01*
X40013415Y31009455D01*
X40009129Y31024204D01*
X40003101Y31053317D01*
X40001177Y31068549D01*
X39984298Y31111180D01*
X39981410Y31119615D01*
X39968619Y31163643D01*
X39960801Y31176863D01*
X39947719Y31203567D01*
X39942069Y31217838D01*
X39942067Y31217841D01*
X39915120Y31254931D01*
X39910217Y31262396D01*
X39886885Y31301847D01*
X39886884Y31301849D01*
X39876020Y31312713D01*
X39856713Y31335320D01*
X39847691Y31347738D01*
X39847690Y31347739D01*
X39812375Y31376954D01*
X39805768Y31382965D01*
X38233768Y32954965D01*
X38221921Y32969756D01*
X38221151Y32969118D01*
X38213554Y32978301D01*
X38213553Y32978303D01*
X38163403Y33025397D01*
X38161265Y33027469D01*
X38141092Y33047641D01*
X38136713Y33051038D01*
X38129922Y33056838D01*
X38096503Y33088220D01*
X38083051Y33095615D01*
X38058201Y33111938D01*
X38046066Y33121351D01*
X38003993Y33139557D01*
X37995973Y33143486D01*
X37955803Y33165569D01*
X37955802Y33165570D01*
X37940927Y33169389D01*
X37912803Y33179018D01*
X37898712Y33185116D01*
X37898701Y33185119D01*
X37853431Y33192289D01*
X37844687Y33194099D01*
X37800282Y33205500D01*
X37784931Y33205500D01*
X37755287Y33207833D01*
X37740119Y33210236D01*
X37694482Y33205921D01*
X37685560Y33205500D01*
X28432246Y33205500D01*
X28350025Y33224266D01*
X28284089Y33276849D01*
X28250271Y33342129D01*
X28216668Y33457792D01*
X28135449Y33595127D01*
X28022627Y33707949D01*
X28003171Y33719455D01*
X27885294Y33789167D01*
X27885293Y33789168D01*
X27885292Y33789168D01*
X27732074Y33833682D01*
X27696270Y33836500D01*
X26768730Y33836500D01*
X26762365Y33835999D01*
X26732926Y33833682D01*
X26579705Y33789167D01*
X26442375Y33707951D01*
X26329549Y33595125D01*
X26248333Y33457795D01*
X26248332Y33457793D01*
X26248332Y33457792D01*
X26203818Y33304574D01*
X26201000Y33268770D01*
X26201000Y31891230D01*
X26201759Y31881590D01*
X26203818Y31855427D01*
X26248333Y31702206D01*
X26329548Y31564877D01*
X26329551Y31564873D01*
X26442373Y31452051D01*
X26579708Y31370832D01*
X26732926Y31326318D01*
X26768730Y31323500D01*
X26768731Y31323500D01*
X27696269Y31323500D01*
X27696270Y31323500D01*
X27732074Y31326318D01*
X27885292Y31370832D01*
X28022627Y31452051D01*
X28135449Y31564873D01*
X28216668Y31702208D01*
X28234204Y31762570D01*
X28244461Y31797870D01*
X28285421Y31871590D01*
X28354312Y31920238D01*
X28426436Y31934500D01*
X37378274Y31934500D01*
X37460495Y31915734D01*
X37512271Y31878997D01*
X38689747Y30701521D01*
X38734616Y30630112D01*
X38745250Y30567524D01*
X38745250Y28328393D01*
X38726484Y28246172D01*
X38673901Y28180236D01*
X38651661Y28164957D01*
X38580140Y28122986D01*
X38400353Y27971403D01*
X38400352Y27971402D01*
X38400350Y27971400D01*
X38295607Y27847168D01*
X38255628Y27799750D01*
X38188281Y27748987D01*
X38105579Y27732472D01*
X38023900Y27753475D01*
X37965872Y27799750D01*
X37821150Y27971400D01*
X37722982Y28054168D01*
X37641359Y28122987D01*
X37471342Y28222756D01*
X37438537Y28242007D01*
X37438535Y28242008D01*
X37438533Y28242009D01*
X37218521Y28325038D01*
X37218506Y28325042D01*
X36987640Y28369692D01*
X36987624Y28369694D01*
X36934794Y28372500D01*
X36746724Y28372500D01*
X36746680Y28372498D01*
X36693875Y28369695D01*
X36462993Y28325042D01*
X36462978Y28325038D01*
X36370276Y28290053D01*
X36286725Y28278580D01*
X36206470Y28304496D01*
X36169371Y28333351D01*
X34247757Y30254965D01*
X34235910Y30269756D01*
X34235140Y30269118D01*
X34227543Y30278301D01*
X34227542Y30278303D01*
X34177392Y30325397D01*
X34175254Y30327469D01*
X34155081Y30347641D01*
X34150702Y30351038D01*
X34143911Y30356838D01*
X34110492Y30388220D01*
X34097040Y30395615D01*
X34072190Y30411938D01*
X34060055Y30421351D01*
X34017982Y30439557D01*
X34009962Y30443486D01*
X33969792Y30465569D01*
X33969791Y30465570D01*
X33954916Y30469389D01*
X33926792Y30479018D01*
X33912701Y30485116D01*
X33912690Y30485119D01*
X33867420Y30492289D01*
X33858676Y30494099D01*
X33814271Y30505500D01*
X33798920Y30505500D01*
X33769276Y30507833D01*
X33754108Y30510236D01*
X33708471Y30505921D01*
X33699549Y30505500D01*
X22241086Y30505500D01*
X22222245Y30507580D01*
X22222152Y30506587D01*
X22210279Y30507710D01*
X22154115Y30505944D01*
X22141484Y30505547D01*
X22138523Y30505500D01*
X22110007Y30505500D01*
X22104508Y30504805D01*
X22095614Y30504106D01*
X22049797Y30502666D01*
X22035035Y30498378D01*
X22005941Y30492354D01*
X21990711Y30490430D01*
X21990693Y30490425D01*
X21948072Y30473551D01*
X21939627Y30470660D01*
X21895613Y30457872D01*
X21895603Y30457868D01*
X21882380Y30450048D01*
X21855695Y30436976D01*
X21841417Y30431323D01*
X21841414Y30431321D01*
X21804316Y30404370D01*
X21796859Y30399472D01*
X21757403Y30376136D01*
X21757396Y30376130D01*
X21746543Y30365277D01*
X21723940Y30345971D01*
X21711511Y30336941D01*
X21682287Y30301617D01*
X21676278Y30295014D01*
X19142270Y27761003D01*
X19070861Y27716134D01*
X19008273Y27705500D01*
X16537484Y27705500D01*
X16455263Y27724266D01*
X16389327Y27776849D01*
X16374373Y27798537D01*
X16337950Y27860125D01*
X16337949Y27860127D01*
X16225127Y27972949D01*
X16206667Y27983866D01*
X16087794Y28054167D01*
X16087793Y28054168D01*
X16087792Y28054168D01*
X15934574Y28098682D01*
X15898770Y28101500D01*
X14521230Y28101500D01*
X14485425Y28098682D01*
X14485426Y28098682D01*
X14332205Y28054167D01*
X14194875Y27972951D01*
X14082049Y27860125D01*
X14045627Y27798537D01*
X13987620Y27737319D01*
X13908796Y27707331D01*
X13882516Y27705500D01*
X13381726Y27705500D01*
X13299505Y27724266D01*
X13247729Y27761003D01*
X11950172Y29058561D01*
X11905303Y29129970D01*
X11895861Y29213775D01*
X11913925Y29275787D01*
X11920694Y29289635D01*
X11920695Y29289636D01*
X11920695Y29289638D01*
X11920696Y29289639D01*
X11931500Y29363794D01*
X11931500Y31036206D01*
X11920696Y31110361D01*
X11920695Y31110363D01*
X11920695Y31110365D01*
X11920694Y31110366D01*
X11868153Y31217838D01*
X11864776Y31224746D01*
X11774746Y31314776D01*
X11774742Y31314778D01*
X11660365Y31370695D01*
X11660364Y31370696D01*
X11586212Y31381500D01*
X11586206Y31381500D01*
X10813794Y31381500D01*
X10813787Y31381500D01*
X10739636Y31370696D01*
X10647658Y31325730D01*
X10565549Y31306478D01*
X10483219Y31324759D01*
X10481202Y31325730D01*
X10390218Y31370209D01*
X10390215Y31370210D01*
X10316164Y31381000D01*
X9543832Y31381000D01*
X9512321Y31376408D01*
X9428253Y31383124D01*
X9355425Y31425651D01*
X9308261Y31495565D01*
X9295500Y31563928D01*
X9295500Y33038274D01*
X9314266Y33120495D01*
X9351003Y33172271D01*
X9647730Y33468997D01*
X9719139Y33513866D01*
X9781727Y33524500D01*
X12898274Y33524500D01*
X12980495Y33505734D01*
X13032271Y33468997D01*
X14518997Y31982271D01*
X14563866Y31910862D01*
X14574500Y31848274D01*
X14574500Y31366841D01*
X14555734Y31284620D01*
X14503151Y31218684D01*
X14437869Y31184866D01*
X14332208Y31154169D01*
X14194875Y31072951D01*
X14082049Y30960125D01*
X14000833Y30822795D01*
X14000832Y30822793D01*
X14000832Y30822792D01*
X13956318Y30669574D01*
X13953500Y30633770D01*
X13953500Y29706230D01*
X13956318Y29670426D01*
X14000832Y29517208D01*
X14082051Y29379873D01*
X14194873Y29267051D01*
X14332208Y29185832D01*
X14485426Y29141318D01*
X14521230Y29138500D01*
X14521231Y29138500D01*
X15898769Y29138500D01*
X15898770Y29138500D01*
X15934574Y29141318D01*
X16087792Y29185832D01*
X16225127Y29267051D01*
X16337949Y29379873D01*
X16419168Y29517208D01*
X16463682Y29670426D01*
X16466500Y29706230D01*
X16466500Y30633770D01*
X16463682Y30669574D01*
X16419168Y30822792D01*
X16337949Y30960127D01*
X16225127Y31072949D01*
X16225124Y31072951D01*
X16087791Y31154169D01*
X15982131Y31184866D01*
X15908410Y31225826D01*
X15859762Y31294716D01*
X15845500Y31366841D01*
X15845500Y31891278D01*
X17101500Y31891278D01*
X17104315Y31855503D01*
X17104316Y31855500D01*
X17148792Y31702412D01*
X17148793Y31702411D01*
X17229945Y31565189D01*
X17229947Y31565186D01*
X17342685Y31452448D01*
X17342688Y31452446D01*
X17479910Y31371294D01*
X17479911Y31371293D01*
X17632999Y31326817D01*
X17633002Y31326816D01*
X17668777Y31324000D01*
X17940999Y31324000D01*
X17941000Y31324001D01*
X18449000Y31324001D01*
X18449001Y31324000D01*
X18721223Y31324000D01*
X18756997Y31326816D01*
X18757000Y31326817D01*
X18910088Y31371293D01*
X18910089Y31371294D01*
X19047311Y31452446D01*
X19047314Y31452448D01*
X19160052Y31565186D01*
X19160054Y31565189D01*
X19241206Y31702411D01*
X19241207Y31702412D01*
X19285683Y31855500D01*
X19285684Y31855503D01*
X19288496Y31891232D01*
X20076000Y31891232D01*
X20076001Y31891224D01*
X20078816Y31855436D01*
X20078817Y31855430D01*
X20078818Y31855427D01*
X20123332Y31702208D01*
X20155149Y31648408D01*
X20204549Y31564877D01*
X20204550Y31564876D01*
X20204552Y31564873D01*
X20317373Y31452052D01*
X20454708Y31370832D01*
X20607927Y31326318D01*
X20643731Y31323500D01*
X21696268Y31323501D01*
X21716295Y31325077D01*
X21732064Y31326317D01*
X21732067Y31326318D01*
X21732073Y31326318D01*
X21885292Y31370832D01*
X22022627Y31452052D01*
X22135448Y31564873D01*
X22216668Y31702208D01*
X22224820Y31730269D01*
X22247366Y31807869D01*
X22288326Y31881590D01*
X22357216Y31930238D01*
X22429341Y31944500D01*
X22935659Y31944500D01*
X23017880Y31925734D01*
X23083816Y31873151D01*
X23117634Y31807869D01*
X23148331Y31702209D01*
X23229549Y31564876D01*
X23229551Y31564873D01*
X23342373Y31452051D01*
X23479708Y31370832D01*
X23632926Y31326318D01*
X23668730Y31323500D01*
X23668731Y31323500D01*
X24596269Y31323500D01*
X24596270Y31323500D01*
X24632074Y31326318D01*
X24785292Y31370832D01*
X24922627Y31452051D01*
X25035449Y31564873D01*
X25116668Y31702208D01*
X25161182Y31855426D01*
X25164000Y31891230D01*
X25164000Y33268770D01*
X25161182Y33304574D01*
X25116668Y33457792D01*
X25035449Y33595127D01*
X24922627Y33707949D01*
X24903171Y33719455D01*
X24785294Y33789167D01*
X24785293Y33789168D01*
X24785292Y33789168D01*
X24632074Y33833682D01*
X24596270Y33836500D01*
X23668730Y33836500D01*
X23662365Y33835999D01*
X23632926Y33833682D01*
X23479705Y33789167D01*
X23342375Y33707951D01*
X23229549Y33595125D01*
X23148331Y33457792D01*
X23117634Y33352131D01*
X23076674Y33278410D01*
X23007784Y33229762D01*
X22935659Y33215500D01*
X22429340Y33215500D01*
X22347119Y33234266D01*
X22281183Y33286849D01*
X22247365Y33352131D01*
X22216668Y33457792D01*
X22156832Y33558969D01*
X22135450Y33595124D01*
X22135449Y33595125D01*
X22135448Y33595127D01*
X22022627Y33707948D01*
X22022624Y33707950D01*
X22022623Y33707951D01*
X21885294Y33789167D01*
X21885293Y33789168D01*
X21885292Y33789168D01*
X21732073Y33833682D01*
X21696269Y33836500D01*
X21696267Y33836500D01*
X20643731Y33836500D01*
X20643723Y33836499D01*
X20607935Y33833684D01*
X20607929Y33833683D01*
X20531989Y33811620D01*
X20454708Y33789168D01*
X20454706Y33789168D01*
X20454706Y33789167D01*
X20317376Y33707951D01*
X20204549Y33595124D01*
X20123333Y33457795D01*
X20078818Y33304574D01*
X20076000Y33268768D01*
X20076000Y31891232D01*
X19288496Y31891232D01*
X19288500Y31891278D01*
X19288500Y32325999D01*
X19288499Y32326000D01*
X18449001Y32326000D01*
X18449000Y32325999D01*
X18449000Y31324001D01*
X17941000Y31324001D01*
X17941000Y32325999D01*
X17940999Y32326000D01*
X17101501Y32326000D01*
X17101500Y32325999D01*
X17101500Y31891278D01*
X15845500Y31891278D01*
X15845500Y32098915D01*
X15847580Y32117755D01*
X15846587Y32117848D01*
X15847709Y32129721D01*
X15845547Y32198501D01*
X15845500Y32201478D01*
X15845500Y32229980D01*
X15844807Y32235464D01*
X15844105Y32244377D01*
X15843796Y32254177D01*
X15842665Y32290205D01*
X15838379Y32304954D01*
X15832351Y32334067D01*
X15830427Y32349299D01*
X15813548Y32391930D01*
X15810662Y32400359D01*
X15797869Y32444393D01*
X15790049Y32457616D01*
X15776973Y32484308D01*
X15771319Y32498588D01*
X15771315Y32498594D01*
X15744372Y32535678D01*
X15739468Y32543144D01*
X15716136Y32582596D01*
X15716135Y32582598D01*
X15705270Y32593463D01*
X15685963Y32616070D01*
X15676941Y32628488D01*
X15676940Y32628489D01*
X15641625Y32657704D01*
X15635018Y32663715D01*
X15464732Y32834001D01*
X17101500Y32834001D01*
X17101501Y32834000D01*
X17940999Y32834000D01*
X17941000Y32834001D01*
X18449000Y32834001D01*
X18449001Y32834000D01*
X19288499Y32834000D01*
X19288500Y32834001D01*
X19288500Y33268723D01*
X19285684Y33304498D01*
X19285683Y33304501D01*
X19241207Y33457589D01*
X19241206Y33457590D01*
X19160054Y33594812D01*
X19160052Y33594815D01*
X19047314Y33707553D01*
X19047311Y33707555D01*
X18910089Y33788707D01*
X18910088Y33788708D01*
X18757000Y33833184D01*
X18756997Y33833185D01*
X18721223Y33836000D01*
X18449001Y33836000D01*
X18449000Y33835999D01*
X18449000Y32834001D01*
X17941000Y32834001D01*
X17941000Y33835999D01*
X17940999Y33836000D01*
X17668777Y33836000D01*
X17633002Y33833185D01*
X17632999Y33833184D01*
X17479911Y33788708D01*
X17479910Y33788707D01*
X17342688Y33707555D01*
X17342685Y33707553D01*
X17229947Y33594815D01*
X17229945Y33594812D01*
X17148793Y33457590D01*
X17148792Y33457589D01*
X17104316Y33304501D01*
X17104315Y33304498D01*
X17101500Y33268723D01*
X17101500Y32834001D01*
X15464732Y32834001D01*
X13753768Y34544965D01*
X13741921Y34559756D01*
X13741151Y34559118D01*
X13733554Y34568301D01*
X13733553Y34568303D01*
X13715755Y34585016D01*
X13683403Y34615397D01*
X13681265Y34617469D01*
X13661092Y34637641D01*
X13656713Y34641038D01*
X13649922Y34646838D01*
X13616503Y34678220D01*
X13603051Y34685615D01*
X13578201Y34701938D01*
X13566066Y34711351D01*
X13523993Y34729557D01*
X13515973Y34733486D01*
X13475803Y34755569D01*
X13475802Y34755570D01*
X13460927Y34759389D01*
X13432803Y34769018D01*
X13418712Y34775116D01*
X13418701Y34775119D01*
X13373431Y34782289D01*
X13364687Y34784099D01*
X13320282Y34795500D01*
X13304931Y34795500D01*
X13275287Y34797833D01*
X13260119Y34800236D01*
X13214482Y34795921D01*
X13205560Y34795500D01*
X9531086Y34795500D01*
X9512245Y34797580D01*
X9512152Y34796587D01*
X9500279Y34797710D01*
X9444115Y34795944D01*
X9431484Y34795547D01*
X9428523Y34795500D01*
X9400007Y34795500D01*
X9394508Y34794805D01*
X9385614Y34794106D01*
X9339797Y34792666D01*
X9325035Y34788378D01*
X9295941Y34782354D01*
X9280711Y34780430D01*
X9280695Y34780426D01*
X9238073Y34763551D01*
X9229626Y34760659D01*
X9185607Y34747870D01*
X9172383Y34740049D01*
X9145695Y34726975D01*
X9131416Y34721322D01*
X9131410Y34721318D01*
X9094319Y34694371D01*
X9086858Y34689470D01*
X9047404Y34666138D01*
X9047404Y34666137D01*
X9036537Y34655271D01*
X9013939Y34635971D01*
X9001512Y34626942D01*
X8972290Y34591620D01*
X8966281Y34585016D01*
X8452270Y34071004D01*
X8380861Y34026134D01*
X8318273Y34015500D01*
X5191086Y34015500D01*
X5172245Y34017580D01*
X5172152Y34016587D01*
X5160279Y34017710D01*
X5104115Y34015944D01*
X5091484Y34015547D01*
X5088523Y34015500D01*
X5060007Y34015500D01*
X5054508Y34014805D01*
X5045614Y34014106D01*
X4999797Y34012666D01*
X4985035Y34008378D01*
X4955941Y34002354D01*
X4940711Y34000430D01*
X4940693Y34000425D01*
X4898072Y33983551D01*
X4889627Y33980660D01*
X4845613Y33967872D01*
X4845603Y33967868D01*
X4832380Y33960048D01*
X4805695Y33946976D01*
X4791417Y33941323D01*
X4791414Y33941321D01*
X4754316Y33914370D01*
X4746859Y33909472D01*
X4707403Y33886136D01*
X4707398Y33886132D01*
X4696538Y33875272D01*
X4673944Y33855975D01*
X4661514Y33846943D01*
X4661509Y33846939D01*
X4632291Y33811620D01*
X4626281Y33805015D01*
X3685032Y32863767D01*
X3670248Y32851917D01*
X3670881Y32851152D01*
X3661697Y32843554D01*
X3614604Y32793405D01*
X3612537Y32791273D01*
X3592368Y32771103D01*
X3592349Y32771081D01*
X3588953Y32766703D01*
X3583165Y32759927D01*
X3551783Y32726507D01*
X3551777Y32726499D01*
X3544382Y32713047D01*
X3528066Y32688208D01*
X3518650Y32676069D01*
X3500442Y32633993D01*
X3496515Y32625976D01*
X3474431Y32585805D01*
X3470612Y32570931D01*
X3460985Y32542811D01*
X3454883Y32528709D01*
X3447711Y32483431D01*
X3445900Y32474687D01*
X3434499Y32430284D01*
X3434500Y32414931D01*
X3432167Y32385288D01*
X3429764Y32370122D01*
X3434079Y32324483D01*
X3434500Y32315561D01*
X3434500Y23761078D01*
X3432422Y23742239D01*
X3433414Y23742145D01*
X3432292Y23730280D01*
X3434453Y23661488D01*
X3434500Y23658512D01*
X3434500Y23630016D01*
X3435195Y23624507D01*
X3435894Y23615616D01*
X3437334Y23569799D01*
X3441620Y23555045D01*
X3447647Y23525941D01*
X3449572Y23510701D01*
X3449573Y23510698D01*
X3466447Y23468078D01*
X3469339Y23459632D01*
X3482128Y23415612D01*
X3482129Y23415611D01*
X3489948Y23402389D01*
X3503025Y23375695D01*
X3508680Y23361414D01*
X3508680Y23361413D01*
X3508681Y23361412D01*
X3535640Y23324306D01*
X3540532Y23316857D01*
X3563863Y23277406D01*
X3563866Y23277402D01*
X3574720Y23266548D01*
X3594032Y23243936D01*
X3603055Y23231517D01*
X3603060Y23231511D01*
X3638380Y23202292D01*
X3644987Y23196281D01*
X5066227Y21775041D01*
X5078074Y21760255D01*
X5078842Y21760889D01*
X5086445Y21751700D01*
X5086447Y21751697D01*
X5123493Y21716909D01*
X5136612Y21704589D01*
X5138748Y21702519D01*
X5148828Y21692440D01*
X5158906Y21682362D01*
X5158909Y21682360D01*
X5163281Y21678968D01*
X5170072Y21673168D01*
X5203495Y21641782D01*
X5203498Y21641780D01*
X5216949Y21634385D01*
X5241797Y21618064D01*
X5253931Y21608652D01*
X5253937Y21608649D01*
X5296002Y21590446D01*
X5304008Y21586525D01*
X5344197Y21564431D01*
X5344201Y21564430D01*
X5359068Y21560612D01*
X5387199Y21550981D01*
X5401290Y21544884D01*
X5401292Y21544883D01*
X5446578Y21537712D01*
X5455311Y21535903D01*
X5499718Y21524500D01*
X5515069Y21524500D01*
X5544713Y21522167D01*
X5546187Y21521934D01*
X5559879Y21519765D01*
X5596458Y21523223D01*
X5605518Y21524079D01*
X5614440Y21524500D01*
X6072516Y21524500D01*
X6154737Y21505734D01*
X6220673Y21453151D01*
X6235627Y21431463D01*
X6272051Y21369873D01*
X6384873Y21257051D01*
X6522208Y21175832D01*
X6675426Y21131318D01*
X6711230Y21128500D01*
X6711231Y21128500D01*
X8088769Y21128500D01*
X8088770Y21128500D01*
X8124574Y21131318D01*
X8277792Y21175832D01*
X8415127Y21257051D01*
X8527949Y21369873D01*
X8576200Y21451463D01*
X8634206Y21512681D01*
X8713030Y21542669D01*
X8739311Y21544500D01*
X8803159Y21544500D01*
X8885380Y21525734D01*
X8951316Y21473151D01*
X8985134Y21407869D01*
X9015831Y21302209D01*
X9090570Y21175832D01*
X9097051Y21164873D01*
X9209873Y21052051D01*
X9347208Y20970832D01*
X9500426Y20926318D01*
X9536230Y20923500D01*
X9536231Y20923500D01*
X10463769Y20923500D01*
X10463770Y20923500D01*
X10499574Y20926318D01*
X10652792Y20970832D01*
X10790127Y21052051D01*
X10902949Y21164873D01*
X10984168Y21302208D01*
X11028682Y21455426D01*
X11031500Y21491230D01*
X11031500Y22868770D01*
X11028682Y22904574D01*
X10984168Y23057792D01*
X10902949Y23195127D01*
X10790127Y23307949D01*
X10775064Y23316857D01*
X10652794Y23389167D01*
X10652793Y23389168D01*
X10652792Y23389168D01*
X10499574Y23433682D01*
X10463770Y23436500D01*
X9536230Y23436500D01*
X9500425Y23433682D01*
X9500426Y23433682D01*
X9347205Y23389167D01*
X9209875Y23307951D01*
X9097049Y23195125D01*
X9015831Y23057792D01*
X8985134Y22952131D01*
X8944174Y22878410D01*
X8875284Y22829762D01*
X8803159Y22815500D01*
X8715656Y22815500D01*
X8633435Y22834266D01*
X8567499Y22886849D01*
X8552545Y22908537D01*
X8527950Y22950125D01*
X8527949Y22950127D01*
X8415127Y23062949D01*
X8389105Y23078338D01*
X8277794Y23144167D01*
X8277793Y23144168D01*
X8277792Y23144168D01*
X8124574Y23188682D01*
X8088770Y23191500D01*
X6711230Y23191500D01*
X6675426Y23188682D01*
X6661982Y23184776D01*
X6522205Y23144167D01*
X6384875Y23062951D01*
X6272049Y22950125D01*
X6235627Y22888537D01*
X6177620Y22827319D01*
X6098796Y22797331D01*
X6072516Y22795500D01*
X5921727Y22795500D01*
X5839506Y22814266D01*
X5787730Y22851003D01*
X4761003Y23877730D01*
X4716134Y23949139D01*
X4705500Y24011727D01*
X4705500Y32008274D01*
X4724266Y32090495D01*
X4761003Y32142271D01*
X5307730Y32688997D01*
X5379139Y32733866D01*
X5441727Y32744500D01*
X7835000Y32744500D01*
X7917221Y32725734D01*
X7983157Y32673151D01*
X8019749Y32597168D01*
X8024500Y32555000D01*
X8024499Y31564435D01*
X8005733Y31482214D01*
X7953150Y31416278D01*
X7877167Y31379686D01*
X7807678Y31376915D01*
X7776215Y31381499D01*
X7776210Y31381500D01*
X7776206Y31381500D01*
X7003794Y31381500D01*
X7003787Y31381500D01*
X6929635Y31370696D01*
X6929634Y31370695D01*
X6815257Y31314778D01*
X6815252Y31314775D01*
X6725225Y31224748D01*
X6725222Y31224743D01*
X6669305Y31110366D01*
X6669304Y31110365D01*
X6658500Y31036213D01*
X6658500Y29363788D01*
X6669304Y29289636D01*
X6669305Y29289635D01*
X6725224Y29175253D01*
X6729226Y29169648D01*
X6761729Y29091828D01*
X6764500Y29059537D01*
X6764500Y26456841D01*
X6745734Y26374620D01*
X6693151Y26308684D01*
X6627869Y26274866D01*
X6522208Y26244169D01*
X6384875Y26162951D01*
X6272049Y26050125D01*
X6190833Y25912795D01*
X6190832Y25912793D01*
X6190832Y25912792D01*
X6146318Y25759574D01*
X6143500Y25723770D01*
X6143500Y24796230D01*
X6146318Y24760426D01*
X6186449Y24622293D01*
X6190833Y24607206D01*
X6203489Y24585805D01*
X6272051Y24469873D01*
X6384873Y24357051D01*
X6522208Y24275832D01*
X6675426Y24231318D01*
X6711230Y24228500D01*
X6711231Y24228500D01*
X8088769Y24228500D01*
X8088770Y24228500D01*
X8124574Y24231318D01*
X8277792Y24275832D01*
X8415127Y24357051D01*
X8527949Y24469873D01*
X8564372Y24531463D01*
X8622380Y24592681D01*
X8701204Y24622669D01*
X8727484Y24624500D01*
X19018920Y24624500D01*
X19037756Y24622421D01*
X19037850Y24623414D01*
X19049713Y24622294D01*
X19049719Y24622292D01*
X19089966Y24623557D01*
X19118514Y24624453D01*
X19121489Y24624500D01*
X19149982Y24624500D01*
X19149983Y24624500D01*
X19155469Y24625194D01*
X19164379Y24625895D01*
X19173749Y24626190D01*
X19210205Y24627335D01*
X19224942Y24631617D01*
X19254064Y24637649D01*
X19269299Y24639573D01*
X19311924Y24656451D01*
X19320355Y24659337D01*
X19364393Y24672131D01*
X19377604Y24679945D01*
X19404319Y24693032D01*
X19418588Y24698681D01*
X19455687Y24725637D01*
X19463141Y24730533D01*
X19502598Y24753866D01*
X19513455Y24764724D01*
X19536060Y24784030D01*
X19548487Y24793058D01*
X19577715Y24828390D01*
X19583721Y24834990D01*
X22687730Y27938997D01*
X22759139Y27983866D01*
X22821727Y27994500D01*
X30416903Y27994500D01*
X30499124Y27975734D01*
X30565060Y27923151D01*
X30601652Y27847168D01*
X30601652Y27762832D01*
X30580341Y27709092D01*
X30509740Y27588782D01*
X30428721Y27374092D01*
X30382133Y27303793D01*
X30309657Y27260669D01*
X30251426Y27251500D01*
X25017086Y27251500D01*
X24998245Y27253580D01*
X24998152Y27252587D01*
X24986279Y27253710D01*
X24930115Y27251944D01*
X24917484Y27251547D01*
X24914523Y27251500D01*
X24886007Y27251500D01*
X24880508Y27250805D01*
X24871614Y27250106D01*
X24825797Y27248666D01*
X24811035Y27244378D01*
X24781941Y27238354D01*
X24766711Y27236430D01*
X24766693Y27236425D01*
X24724072Y27219551D01*
X24715627Y27216660D01*
X24671613Y27203872D01*
X24671603Y27203868D01*
X24658380Y27196048D01*
X24631695Y27182976D01*
X24617417Y27177323D01*
X24617414Y27177321D01*
X24580316Y27150370D01*
X24572859Y27145472D01*
X24533403Y27122136D01*
X24533398Y27122132D01*
X24522538Y27111272D01*
X24499944Y27091975D01*
X24487514Y27082943D01*
X24487509Y27082939D01*
X24458291Y27047620D01*
X24452281Y27041015D01*
X22275032Y24863767D01*
X22260248Y24851917D01*
X22260881Y24851152D01*
X22251697Y24843554D01*
X22204604Y24793405D01*
X22202537Y24791273D01*
X22182368Y24771103D01*
X22182349Y24771081D01*
X22178953Y24766703D01*
X22173165Y24759927D01*
X22141783Y24726507D01*
X22141777Y24726499D01*
X22134382Y24713047D01*
X22118066Y24688208D01*
X22108650Y24676069D01*
X22090442Y24633993D01*
X22086515Y24625976D01*
X22064431Y24585805D01*
X22060612Y24570931D01*
X22050985Y24542811D01*
X22044883Y24528709D01*
X22037711Y24483431D01*
X22035900Y24474687D01*
X22024500Y24430284D01*
X22024500Y24414931D01*
X22022167Y24385288D01*
X22019764Y24370122D01*
X22024079Y24324483D01*
X22024500Y24315561D01*
X22024500Y23346041D01*
X22005734Y23263820D01*
X21953151Y23197884D01*
X21945116Y23191818D01*
X21935255Y23184778D01*
X21845225Y23094748D01*
X21845222Y23094743D01*
X21789305Y22980366D01*
X21789304Y22980365D01*
X21778500Y22906213D01*
X21778500Y20533788D01*
X21789304Y20459636D01*
X21789305Y20459635D01*
X21845077Y20345555D01*
X21845224Y20345254D01*
X21935254Y20255224D01*
X21993842Y20226582D01*
X22049634Y20199306D01*
X22049635Y20199305D01*
X22049637Y20199305D01*
X22049639Y20199304D01*
X22123794Y20188500D01*
X22123799Y20188500D01*
X23196201Y20188500D01*
X23196206Y20188500D01*
X23270361Y20199304D01*
X23270362Y20199305D01*
X23270364Y20199305D01*
X23270365Y20199306D01*
X23271359Y20199792D01*
X23384746Y20255224D01*
X23474776Y20345254D01*
X23530696Y20459639D01*
X23541500Y20533794D01*
X23541500Y20533836D01*
X24979000Y20533836D01*
X24989790Y20459785D01*
X24989791Y20459779D01*
X25045632Y20345555D01*
X25045634Y20345552D01*
X25135551Y20255635D01*
X25135554Y20255633D01*
X25249778Y20199792D01*
X25249784Y20199791D01*
X25323835Y20189001D01*
X25323845Y20189000D01*
X25605999Y20189000D01*
X25606000Y20189001D01*
X25606000Y21465999D01*
X25605999Y21466000D01*
X26114000Y21466000D01*
X26114000Y20189001D01*
X26114001Y20189000D01*
X26396155Y20189000D01*
X26396164Y20189001D01*
X26470215Y20199791D01*
X26470221Y20199792D01*
X26584445Y20255633D01*
X26584448Y20255635D01*
X26674365Y20345552D01*
X26674367Y20345555D01*
X26730208Y20459779D01*
X26730209Y20459785D01*
X26740999Y20533836D01*
X26741000Y20533846D01*
X26741000Y21465999D01*
X26740999Y21466000D01*
X26114000Y21466000D01*
X25605999Y21466000D01*
X24979001Y21466000D01*
X24979000Y21465999D01*
X24979000Y20533836D01*
X23541500Y20533836D01*
X23541500Y21974001D01*
X24979000Y21974001D01*
X24979001Y21974000D01*
X25605999Y21974000D01*
X25606000Y21974001D01*
X26114000Y21974001D01*
X26114001Y21974000D01*
X26740999Y21974000D01*
X26741000Y21974001D01*
X26741000Y22906155D01*
X26740999Y22906165D01*
X26730209Y22980216D01*
X26730208Y22980222D01*
X26674367Y23094446D01*
X26674365Y23094449D01*
X26584448Y23184366D01*
X26584445Y23184368D01*
X26470221Y23240209D01*
X26470215Y23240210D01*
X26396164Y23251000D01*
X26114001Y23251000D01*
X26114000Y23250999D01*
X26114000Y21974001D01*
X25606000Y21974001D01*
X25606000Y21974002D01*
X25606000Y23250999D01*
X25605999Y23251000D01*
X25323835Y23251000D01*
X25249784Y23240210D01*
X25249778Y23240209D01*
X25135554Y23184368D01*
X25135551Y23184366D01*
X25045634Y23094449D01*
X25045632Y23094446D01*
X24989791Y22980222D01*
X24989790Y22980216D01*
X24979000Y22906165D01*
X24979000Y21974001D01*
X23541500Y21974001D01*
X23541500Y22906206D01*
X23530696Y22980361D01*
X23530695Y22980363D01*
X23530695Y22980365D01*
X23530694Y22980366D01*
X23482797Y23078338D01*
X23474776Y23094746D01*
X23384746Y23184776D01*
X23384744Y23184778D01*
X23374884Y23191818D01*
X23318874Y23254868D01*
X23295767Y23335976D01*
X23295500Y23346041D01*
X23295500Y24008274D01*
X23314266Y24090495D01*
X23351003Y24142271D01*
X25133730Y25924997D01*
X25205139Y25969866D01*
X25267727Y25980500D01*
X28310500Y25980500D01*
X28392721Y25961734D01*
X28458657Y25909151D01*
X28495249Y25833168D01*
X28500000Y25791000D01*
X28500000Y23156833D01*
X28481234Y23074612D01*
X28444497Y23022836D01*
X27659869Y22238209D01*
X27639039Y22220208D01*
X27623184Y22208405D01*
X27623176Y22208396D01*
X27589946Y22168795D01*
X27584365Y22162704D01*
X27579428Y22157768D01*
X27559603Y22132695D01*
X27557865Y22130563D01*
X27508606Y22071857D01*
X27502540Y22062633D01*
X27501985Y22062998D01*
X27501836Y22062764D01*
X27502400Y22062416D01*
X27496607Y22053025D01*
X27464211Y21983553D01*
X27463011Y21981073D01*
X27428604Y21912565D01*
X27424832Y21902198D01*
X27424208Y21902425D01*
X27424115Y21902159D01*
X27424747Y21901949D01*
X27421273Y21891467D01*
X27405772Y21816398D01*
X27405176Y21813710D01*
X27387499Y21739120D01*
X27386219Y21728165D01*
X27385557Y21728243D01*
X27385528Y21727962D01*
X27386193Y21727903D01*
X27385231Y21716909D01*
X27387460Y21640298D01*
X27387500Y21637542D01*
X27387500Y20464332D01*
X27368734Y20382111D01*
X27331997Y20330335D01*
X26529665Y19528003D01*
X26458256Y19483134D01*
X26395668Y19472500D01*
X23449359Y19472500D01*
X23421893Y19474501D01*
X23419028Y19474921D01*
X23402327Y19477368D01*
X23350822Y19472861D01*
X23342560Y19472500D01*
X23335588Y19472500D01*
X23332401Y19472128D01*
X23303889Y19468797D01*
X23301156Y19468517D01*
X23224762Y19461832D01*
X23213957Y19459601D01*
X23213823Y19460247D01*
X23213538Y19460184D01*
X23213690Y19459542D01*
X23202955Y19456998D01*
X23130919Y19430780D01*
X23128320Y19429877D01*
X23055563Y19405766D01*
X23055560Y19405765D01*
X23055557Y19405764D01*
X23045561Y19401102D01*
X23045281Y19401701D01*
X23045023Y19401576D01*
X23045320Y19400985D01*
X23035457Y19396032D01*
X22971404Y19353905D01*
X22969082Y19352425D01*
X22903850Y19312190D01*
X22895194Y19305345D01*
X22894783Y19305864D01*
X22894563Y19305685D01*
X22894989Y19305177D01*
X22886537Y19298086D01*
X22833950Y19242347D01*
X22832031Y19240371D01*
X22169869Y18578209D01*
X22149039Y18560208D01*
X22133184Y18548405D01*
X22133176Y18548396D01*
X22099946Y18508795D01*
X22094365Y18502704D01*
X22089428Y18497768D01*
X22069603Y18472695D01*
X22067865Y18470563D01*
X22018606Y18411857D01*
X22012540Y18402633D01*
X22011985Y18402998D01*
X22011836Y18402764D01*
X22012400Y18402416D01*
X22006607Y18393025D01*
X21974211Y18323553D01*
X21973011Y18321073D01*
X21938604Y18252565D01*
X21934832Y18242198D01*
X21934208Y18242425D01*
X21934115Y18242159D01*
X21934747Y18241949D01*
X21931273Y18231467D01*
X21915772Y18156398D01*
X21915176Y18153710D01*
X21897499Y18079120D01*
X21896219Y18068165D01*
X21895557Y18068243D01*
X21895528Y18067962D01*
X21896193Y18067903D01*
X21895231Y18056909D01*
X21897460Y17980298D01*
X21897500Y17977542D01*
X21897500Y17525516D01*
X21878734Y17443295D01*
X21853691Y17408001D01*
X21854351Y17407529D01*
X21845222Y17394743D01*
X21789305Y17280366D01*
X21789304Y17280365D01*
X21778500Y17206213D01*
X21778500Y16972000D01*
X21759734Y16889779D01*
X21707151Y16823843D01*
X21631168Y16787251D01*
X21589000Y16782500D01*
X21019069Y16782500D01*
X20936848Y16801266D01*
X20885072Y16838003D01*
X20882950Y16840125D01*
X20882949Y16840127D01*
X20770127Y16952949D01*
X20737913Y16972000D01*
X20632794Y17034167D01*
X20632793Y17034168D01*
X20632792Y17034168D01*
X20479574Y17078682D01*
X20443770Y17081500D01*
X19016230Y17081500D01*
X18980426Y17078682D01*
X18911662Y17058704D01*
X18827205Y17034167D01*
X18689875Y16952951D01*
X18577049Y16840125D01*
X18495833Y16702795D01*
X18495832Y16702793D01*
X18495832Y16702792D01*
X18451318Y16549574D01*
X18448500Y16513769D01*
X18448500Y15561232D01*
X18451318Y15525427D01*
X18495833Y15372206D01*
X18574767Y15238734D01*
X18577051Y15234873D01*
X18689873Y15122051D01*
X18827208Y15040832D01*
X18980426Y14996318D01*
X19016230Y14993500D01*
X19016231Y14993500D01*
X20443769Y14993500D01*
X20443770Y14993500D01*
X20479574Y14996318D01*
X20632792Y15040832D01*
X20770127Y15122051D01*
X20810101Y15162026D01*
X20850074Y15201997D01*
X20921483Y15246866D01*
X20984070Y15257500D01*
X21589000Y15257500D01*
X21671221Y15238734D01*
X21737157Y15186151D01*
X21773749Y15110168D01*
X21778500Y15068000D01*
X21778500Y14833788D01*
X21789304Y14759636D01*
X21789305Y14759635D01*
X21845222Y14645258D01*
X21845224Y14645254D01*
X21935254Y14555224D01*
X21993842Y14526582D01*
X22049634Y14499306D01*
X22049635Y14499305D01*
X22049637Y14499305D01*
X22049639Y14499304D01*
X22123794Y14488500D01*
X22123799Y14488500D01*
X23196201Y14488500D01*
X23196206Y14488500D01*
X23270361Y14499304D01*
X23270362Y14499305D01*
X23270364Y14499305D01*
X23270365Y14499306D01*
X23384746Y14555224D01*
X23474776Y14645254D01*
X23530696Y14759639D01*
X23541499Y14833788D01*
X24978500Y14833788D01*
X24989304Y14759636D01*
X24989305Y14759635D01*
X25045222Y14645258D01*
X25045224Y14645254D01*
X25135254Y14555224D01*
X25193842Y14526582D01*
X25249634Y14499306D01*
X25249635Y14499305D01*
X25249637Y14499305D01*
X25249639Y14499304D01*
X25323794Y14488500D01*
X25323799Y14488500D01*
X26396201Y14488500D01*
X26396206Y14488500D01*
X26470361Y14499304D01*
X26470362Y14499305D01*
X26470364Y14499305D01*
X26470365Y14499306D01*
X26584746Y14555224D01*
X26674776Y14645254D01*
X26730696Y14759639D01*
X26741500Y14833794D01*
X26741500Y17206206D01*
X26730696Y17280361D01*
X26730695Y17280363D01*
X26730695Y17280365D01*
X26730694Y17280366D01*
X26674777Y17394743D01*
X26674776Y17394746D01*
X26584746Y17484776D01*
X26584742Y17484778D01*
X26470365Y17540695D01*
X26470364Y17540696D01*
X26396212Y17551500D01*
X26396206Y17551500D01*
X25323794Y17551500D01*
X25323787Y17551500D01*
X25249635Y17540696D01*
X25249634Y17540695D01*
X25135257Y17484778D01*
X25135252Y17484775D01*
X25045225Y17394748D01*
X25045222Y17394743D01*
X24989305Y17280366D01*
X24989304Y17280365D01*
X24978500Y17206213D01*
X24978500Y14833788D01*
X23541499Y14833788D01*
X23541500Y14833794D01*
X23541500Y17206206D01*
X23530696Y17280361D01*
X23530695Y17280363D01*
X23530695Y17280365D01*
X23530694Y17280366D01*
X23474777Y17394743D01*
X23474776Y17394746D01*
X23474772Y17394750D01*
X23465649Y17407529D01*
X23467232Y17408660D01*
X23433130Y17462940D01*
X23422500Y17525517D01*
X23422500Y17595670D01*
X23441266Y17677891D01*
X23478004Y17729667D01*
X23640335Y17891997D01*
X23711744Y17936866D01*
X23774331Y17947500D01*
X26720647Y17947500D01*
X26748112Y17945500D01*
X26767672Y17942634D01*
X26819169Y17947139D01*
X26827431Y17947500D01*
X26834408Y17947500D01*
X26834412Y17947500D01*
X26866146Y17951210D01*
X26868848Y17951487D01*
X26945240Y17958169D01*
X26945241Y17958170D01*
X26956048Y17960401D01*
X26956183Y17959744D01*
X26956456Y17959805D01*
X26956302Y17960457D01*
X26967037Y17963002D01*
X26967042Y17963002D01*
X27039131Y17989241D01*
X27041667Y17990122D01*
X27114440Y18014235D01*
X27114443Y18014237D01*
X27124448Y18018902D01*
X27124732Y18018293D01*
X27124972Y18018409D01*
X27124670Y18019010D01*
X27134531Y18023964D01*
X27134539Y18023966D01*
X27198588Y18066094D01*
X27200912Y18067573D01*
X27220414Y18079603D01*
X27266149Y18107812D01*
X27266156Y18107820D01*
X27274803Y18114656D01*
X27275222Y18114126D01*
X27275438Y18114302D01*
X27275004Y18114819D01*
X27283450Y18121908D01*
X27283462Y18121915D01*
X27336109Y18177719D01*
X27337951Y18179616D01*
X28176504Y19018169D01*
X28247912Y19063036D01*
X28331717Y19072478D01*
X28411320Y19044624D01*
X28470954Y18984990D01*
X28498808Y18905387D01*
X28500000Y18884170D01*
X28500000Y13762500D01*
X28481234Y13680279D01*
X28428651Y13614343D01*
X28352668Y13577751D01*
X28310500Y13573000D01*
X17635000Y13573000D01*
X17552779Y13591766D01*
X17486843Y13644349D01*
X17450251Y13720332D01*
X17445500Y13762500D01*
X17445500Y18378920D01*
X17447579Y18397757D01*
X17446586Y18397850D01*
X17447708Y18409722D01*
X17445547Y18478469D01*
X17445500Y18481446D01*
X17445500Y18509982D01*
X17445500Y18509983D01*
X17444803Y18515494D01*
X17444104Y18524388D01*
X17442664Y18570203D01*
X17442664Y18570205D01*
X17438381Y18584945D01*
X17432351Y18614061D01*
X17430427Y18629299D01*
X17430425Y18629303D01*
X17430424Y18629308D01*
X17413551Y18671922D01*
X17410657Y18680374D01*
X17397869Y18724392D01*
X17397869Y18724393D01*
X17390050Y18737614D01*
X17376968Y18764319D01*
X17371319Y18778588D01*
X17371317Y18778591D01*
X17344370Y18815681D01*
X17339467Y18823146D01*
X17316135Y18862597D01*
X17316134Y18862599D01*
X17305270Y18873463D01*
X17285963Y18896070D01*
X17276941Y18908488D01*
X17276940Y18908489D01*
X17276927Y18908500D01*
X18449001Y18908500D01*
X18449001Y18686266D01*
X18451814Y18650512D01*
X18451813Y18650512D01*
X18496295Y18497407D01*
X18496296Y18497405D01*
X18577449Y18360184D01*
X18577451Y18360181D01*
X18690180Y18247452D01*
X18690183Y18247450D01*
X18827404Y18166297D01*
X18827413Y18166292D01*
X18980498Y18121817D01*
X18980501Y18121816D01*
X19016276Y18119001D01*
X19476000Y18119001D01*
X19476000Y18119002D01*
X19984000Y18119002D01*
X19984001Y18119001D01*
X20443721Y18119001D01*
X20443734Y18119002D01*
X20479488Y18121814D01*
X20632593Y18166296D01*
X20632595Y18166297D01*
X20769816Y18247450D01*
X20769819Y18247452D01*
X20882548Y18360181D01*
X20882550Y18360184D01*
X20963703Y18497405D01*
X20963708Y18497414D01*
X21008183Y18650499D01*
X21008184Y18650502D01*
X21011000Y18686277D01*
X21011000Y18908499D01*
X21010999Y18908500D01*
X19984001Y18908500D01*
X19984000Y18908499D01*
X19984000Y18119002D01*
X19476000Y18119002D01*
X19476000Y18908499D01*
X19475999Y18908500D01*
X18449001Y18908500D01*
X17276927Y18908500D01*
X17241625Y18937704D01*
X17235018Y18943715D01*
X16762231Y19416502D01*
X18449000Y19416502D01*
X18449001Y19416500D01*
X19475999Y19416500D01*
X19476000Y19416501D01*
X19984000Y19416501D01*
X19984001Y19416500D01*
X21010998Y19416500D01*
X21010999Y19416501D01*
X21010999Y19638722D01*
X21010998Y19638735D01*
X21008185Y19674489D01*
X21008186Y19674489D01*
X20963704Y19827594D01*
X20963703Y19827596D01*
X20882550Y19964817D01*
X20882548Y19964820D01*
X20769819Y20077549D01*
X20769816Y20077551D01*
X20632595Y20158704D01*
X20632586Y20158709D01*
X20479501Y20203184D01*
X20479498Y20203185D01*
X20443724Y20206000D01*
X19984001Y20206000D01*
X19984000Y20205999D01*
X19984000Y19416501D01*
X19476000Y19416501D01*
X19476000Y19416502D01*
X19476000Y20206000D01*
X19016278Y20206000D01*
X19016265Y20205999D01*
X18980511Y20203187D01*
X18827406Y20158705D01*
X18827404Y20158704D01*
X18690183Y20077551D01*
X18690180Y20077549D01*
X18577451Y19964820D01*
X18577449Y19964817D01*
X18496296Y19827596D01*
X18496291Y19827587D01*
X18451816Y19674502D01*
X18451815Y19674499D01*
X18449000Y19638724D01*
X18449000Y19416502D01*
X16762231Y19416502D01*
X14187003Y21991730D01*
X14142134Y22063139D01*
X14131500Y22125727D01*
X14131500Y22868769D01*
X14129944Y22888537D01*
X14128682Y22904574D01*
X14084168Y23057792D01*
X14002949Y23195127D01*
X13890127Y23307949D01*
X13875064Y23316857D01*
X13752794Y23389167D01*
X13752793Y23389168D01*
X13752792Y23389168D01*
X13599574Y23433682D01*
X13563770Y23436500D01*
X12636230Y23436500D01*
X12600425Y23433682D01*
X12600426Y23433682D01*
X12447205Y23389167D01*
X12309875Y23307951D01*
X12197049Y23195125D01*
X12115833Y23057795D01*
X12115832Y23057793D01*
X12115832Y23057792D01*
X12071318Y22904574D01*
X12068500Y22868770D01*
X12068500Y21491230D01*
X12071318Y21455426D01*
X12096173Y21369873D01*
X12115833Y21302206D01*
X12142537Y21257051D01*
X12197051Y21164873D01*
X12309873Y21052051D01*
X12447208Y20970832D01*
X12600426Y20926318D01*
X12636230Y20923500D01*
X13379274Y20923500D01*
X13461495Y20904734D01*
X13513271Y20867997D01*
X16118997Y18262272D01*
X16163866Y18190863D01*
X16174500Y18128275D01*
X16174500Y13762500D01*
X16155734Y13680279D01*
X16103151Y13614343D01*
X16027168Y13577751D01*
X15985000Y13573000D01*
X15409876Y13573000D01*
X15327655Y13591766D01*
X15261719Y13644349D01*
X15246765Y13666038D01*
X15202952Y13740123D01*
X15202950Y13740125D01*
X15202949Y13740127D01*
X15090127Y13852949D01*
X14952792Y13934168D01*
X14799574Y13978682D01*
X14763770Y13981500D01*
X13336230Y13981500D01*
X13300425Y13978682D01*
X13300426Y13978682D01*
X13147205Y13934167D01*
X13009875Y13852951D01*
X12897049Y13740125D01*
X12834014Y13633537D01*
X12776007Y13572319D01*
X12697183Y13542331D01*
X12670903Y13540500D01*
X11689500Y13540500D01*
X11607279Y13559266D01*
X11541343Y13611849D01*
X11504751Y13687832D01*
X11500000Y13730000D01*
X11500000Y14999999D01*
X11500000Y15000000D01*
X3500000Y15000000D01*
X3500000Y7000000D01*
X3500001Y7000000D01*
X11499999Y7000000D01*
X11500000Y7000000D01*
X11500000Y9540000D01*
X11518766Y9622221D01*
X11571349Y9688157D01*
X11647332Y9724749D01*
X11689500Y9729500D01*
X12713645Y9729500D01*
X12795866Y9710734D01*
X12861802Y9658151D01*
X12876756Y9636463D01*
X12922051Y9559873D01*
X13034873Y9447051D01*
X13172208Y9365832D01*
X13325426Y9321318D01*
X13361230Y9318500D01*
X13361231Y9318500D01*
X14738769Y9318500D01*
X14738770Y9318500D01*
X14774574Y9321318D01*
X14927792Y9365832D01*
X15065127Y9447051D01*
X15177949Y9559873D01*
X15214372Y9621463D01*
X15272380Y9682681D01*
X15351204Y9712669D01*
X15377484Y9714500D01*
X23058274Y9714500D01*
X23140495Y9695734D01*
X23192271Y9658997D01*
X24620227Y8231041D01*
X24632074Y8216255D01*
X24632842Y8216889D01*
X24640445Y8207700D01*
X24640447Y8207697D01*
X24684806Y8166041D01*
X24690612Y8160589D01*
X24692748Y8158519D01*
X24698317Y8152951D01*
X24712906Y8138362D01*
X24712909Y8138360D01*
X24717281Y8134968D01*
X24724072Y8129168D01*
X24757495Y8097782D01*
X24757498Y8097780D01*
X24770949Y8090385D01*
X24795797Y8074064D01*
X24807931Y8064652D01*
X24807937Y8064649D01*
X24850002Y8046446D01*
X24858008Y8042525D01*
X24898197Y8020431D01*
X24898201Y8020430D01*
X24913068Y8016612D01*
X24941199Y8006981D01*
X24955290Y8000884D01*
X24955292Y8000883D01*
X25000578Y7993712D01*
X25009311Y7991903D01*
X25053718Y7980500D01*
X25069069Y7980500D01*
X25098713Y7978167D01*
X25100187Y7977934D01*
X25113879Y7975765D01*
X25150458Y7979223D01*
X25159518Y7980079D01*
X25168440Y7980500D01*
X30251426Y7980500D01*
X30333647Y7961734D01*
X30399583Y7909151D01*
X30428721Y7857908D01*
X30509741Y7643217D01*
X30628763Y7440391D01*
X30739207Y7309399D01*
X30780350Y7260600D01*
X30849696Y7202133D01*
X30960140Y7109014D01*
X30998249Y7086651D01*
X31162963Y6989993D01*
X31382983Y6906961D01*
X31382992Y6906960D01*
X31382993Y6906959D01*
X31613859Y6862309D01*
X31613863Y6862309D01*
X31613871Y6862307D01*
X31666715Y6859500D01*
X31854784Y6859501D01*
X31863350Y6859956D01*
X31907624Y6862306D01*
X31955114Y6871491D01*
X32138517Y6906961D01*
X32358537Y6989993D01*
X32561359Y7109014D01*
X32741150Y7260600D01*
X32885872Y7432251D01*
X32953219Y7483014D01*
X33035921Y7499529D01*
X33117599Y7478526D01*
X33175627Y7432251D01*
X33320350Y7260600D01*
X33410245Y7184808D01*
X33500138Y7109016D01*
X33500140Y7109015D01*
X33500141Y7109014D01*
X33571660Y7067045D01*
X33633073Y7009249D01*
X33663328Y6930527D01*
X33665250Y6903609D01*
X33665250Y6442478D01*
X33646484Y6360257D01*
X33609747Y6308481D01*
X33313270Y6012003D01*
X33241861Y5967134D01*
X33179273Y5956500D01*
X32436230Y5956500D01*
X32429865Y5955999D01*
X32400426Y5953682D01*
X32247205Y5909167D01*
X32109875Y5827951D01*
X31997049Y5715125D01*
X31938111Y5615465D01*
X31880104Y5554246D01*
X31801280Y5524259D01*
X31717251Y5531442D01*
X31644660Y5574372D01*
X31611889Y5615465D01*
X31553132Y5714817D01*
X31552949Y5715127D01*
X31440127Y5827949D01*
X31385924Y5860004D01*
X31302794Y5909167D01*
X31302793Y5909168D01*
X31302792Y5909168D01*
X31149574Y5953682D01*
X31113770Y5956500D01*
X30186230Y5956500D01*
X30179865Y5955999D01*
X30150426Y5953682D01*
X29997205Y5909167D01*
X29859875Y5827951D01*
X29747049Y5715125D01*
X29665833Y5577795D01*
X29665833Y5577794D01*
X29665832Y5577792D01*
X29621318Y5424574D01*
X29618500Y5388770D01*
X29618500Y4011230D01*
X29621318Y3975426D01*
X29665774Y3822407D01*
X29665833Y3822206D01*
X29731670Y3710880D01*
X29747051Y3684873D01*
X29859873Y3572051D01*
X29882726Y3558536D01*
X29997208Y3490832D01*
X30113742Y3456975D01*
X30187463Y3416015D01*
X30236111Y3347125D01*
X30250051Y3263949D01*
X30226521Y3182963D01*
X30170184Y3120205D01*
X30092195Y3088107D01*
X30060873Y3085500D01*
X28137335Y3085500D01*
X28055114Y3104266D01*
X27989178Y3156849D01*
X27952586Y3232832D01*
X27952586Y3317168D01*
X27989178Y3393151D01*
X28055114Y3445734D01*
X28084466Y3456976D01*
X28202593Y3491296D01*
X28202595Y3491297D01*
X28339816Y3572450D01*
X28339819Y3572452D01*
X28452548Y3685181D01*
X28452550Y3685184D01*
X28533703Y3822405D01*
X28533708Y3822414D01*
X28578183Y3975499D01*
X28578184Y3975502D01*
X28581000Y4011277D01*
X28581000Y4445999D01*
X28580999Y4446000D01*
X26519001Y4446000D01*
X26519001Y4011266D01*
X26521814Y3975512D01*
X26521813Y3975512D01*
X26566295Y3822407D01*
X26566296Y3822405D01*
X26647449Y3685184D01*
X26647451Y3685181D01*
X26760180Y3572452D01*
X26760183Y3572450D01*
X26897404Y3491297D01*
X26897411Y3491293D01*
X27015533Y3456975D01*
X27089253Y3416015D01*
X27137901Y3347125D01*
X27151841Y3263949D01*
X27128311Y3182963D01*
X27071974Y3120205D01*
X26993985Y3088107D01*
X26962663Y3085500D01*
X26241727Y3085500D01*
X26159506Y3104266D01*
X26107730Y3141003D01*
X24641003Y4607731D01*
X24596134Y4679140D01*
X24585500Y4741728D01*
X24585500Y4954001D01*
X26519000Y4954001D01*
X26519001Y4954000D01*
X27295999Y4954000D01*
X27296000Y4954001D01*
X27296000Y4954002D01*
X27804000Y4954002D01*
X27804001Y4954000D01*
X28580998Y4954000D01*
X28580999Y4954002D01*
X28580999Y5388722D01*
X28580998Y5388735D01*
X28578185Y5424489D01*
X28578186Y5424489D01*
X28533704Y5577594D01*
X28533703Y5577596D01*
X28452550Y5714817D01*
X28452548Y5714820D01*
X28339819Y5827549D01*
X28339816Y5827551D01*
X28202595Y5908704D01*
X28202586Y5908709D01*
X28049501Y5953184D01*
X28049498Y5953185D01*
X28013724Y5956000D01*
X27804001Y5956000D01*
X27804000Y5955999D01*
X27804000Y4954002D01*
X27296000Y4954002D01*
X27296000Y5956000D01*
X27086277Y5956000D01*
X27086265Y5955999D01*
X27050511Y5953187D01*
X26897406Y5908705D01*
X26897404Y5908704D01*
X26760183Y5827551D01*
X26760180Y5827549D01*
X26647451Y5714820D01*
X26647449Y5714817D01*
X26566296Y5577596D01*
X26566291Y5577587D01*
X26521816Y5424502D01*
X26521815Y5424499D01*
X26519000Y5388724D01*
X26519000Y4954001D01*
X24585500Y4954001D01*
X24585500Y5758915D01*
X24587580Y5777755D01*
X24586587Y5777848D01*
X24587709Y5789721D01*
X24585547Y5858501D01*
X24585500Y5861478D01*
X24585500Y5889980D01*
X24584807Y5895464D01*
X24584105Y5904377D01*
X24582992Y5939788D01*
X24582665Y5950205D01*
X24578379Y5964954D01*
X24572351Y5994067D01*
X24570427Y6009299D01*
X24553548Y6051930D01*
X24550660Y6060365D01*
X24537869Y6104393D01*
X24530051Y6117613D01*
X24516969Y6144317D01*
X24511319Y6158588D01*
X24484369Y6195682D01*
X24479470Y6203140D01*
X24456134Y6242598D01*
X24445279Y6253453D01*
X24425968Y6276064D01*
X24416942Y6288487D01*
X24416940Y6288489D01*
X24381619Y6317709D01*
X24375012Y6323720D01*
X23063769Y7634964D01*
X23051919Y7649755D01*
X23051151Y7649118D01*
X23043554Y7658301D01*
X23043553Y7658303D01*
X22993403Y7705397D01*
X22991265Y7707469D01*
X22971092Y7727641D01*
X22966713Y7731038D01*
X22959922Y7736838D01*
X22926503Y7768220D01*
X22913051Y7775615D01*
X22888201Y7791938D01*
X22876066Y7801351D01*
X22833993Y7819557D01*
X22825973Y7823486D01*
X22785803Y7845569D01*
X22785802Y7845570D01*
X22770927Y7849389D01*
X22742803Y7859018D01*
X22728712Y7865116D01*
X22728701Y7865119D01*
X22683431Y7872289D01*
X22674687Y7874099D01*
X22630282Y7885500D01*
X22614931Y7885500D01*
X22585287Y7887833D01*
X22570119Y7890236D01*
X22524482Y7885921D01*
X22515560Y7885500D01*
X15377484Y7885500D01*
X15295263Y7904266D01*
X15229327Y7956849D01*
X15214373Y7978537D01*
X15197551Y8006981D01*
X15177949Y8040127D01*
X15065127Y8152949D01*
X15052208Y8160589D01*
X14927794Y8234167D01*
X14927793Y8234168D01*
X14927792Y8234168D01*
X14774574Y8278682D01*
X14738770Y8281500D01*
X13361230Y8281500D01*
X13325425Y8278682D01*
X13325426Y8278682D01*
X13172205Y8234167D01*
X13034875Y8152951D01*
X12922049Y8040125D01*
X12840833Y7902795D01*
X12840832Y7902793D01*
X12840832Y7902792D01*
X12796318Y7749574D01*
X12793500Y7713770D01*
X12793500Y6786230D01*
X12796318Y6750426D01*
X12840832Y6597208D01*
X12922051Y6459873D01*
X13034873Y6347051D01*
X13172208Y6265832D01*
X13325426Y6221318D01*
X13361230Y6218500D01*
X13361231Y6218500D01*
X14738769Y6218500D01*
X14738770Y6218500D01*
X14774574Y6221318D01*
X14927792Y6265832D01*
X15065127Y6347051D01*
X15177949Y6459873D01*
X15214372Y6521463D01*
X15272380Y6582681D01*
X15351204Y6612669D01*
X15377484Y6614500D01*
X22208274Y6614500D01*
X22290495Y6595734D01*
X22342271Y6558997D01*
X23258997Y5642271D01*
X23303866Y5570862D01*
X23314500Y5508274D01*
X23314500Y4491078D01*
X23312422Y4472239D01*
X23313414Y4472145D01*
X23312292Y4460280D01*
X23314453Y4391488D01*
X23314500Y4388512D01*
X23314500Y4360016D01*
X23315195Y4354507D01*
X23315894Y4345616D01*
X23317334Y4299799D01*
X23321620Y4285045D01*
X23327647Y4255941D01*
X23329572Y4240701D01*
X23329573Y4240698D01*
X23346447Y4198078D01*
X23349339Y4189632D01*
X23362128Y4145612D01*
X23362129Y4145611D01*
X23369948Y4132389D01*
X23383025Y4105695D01*
X23388680Y4091414D01*
X23388680Y4091413D01*
X23388681Y4091412D01*
X23415640Y4054306D01*
X23420532Y4046857D01*
X23443863Y4007406D01*
X23443866Y4007402D01*
X23454720Y3996548D01*
X23474032Y3973936D01*
X23483055Y3961517D01*
X23483060Y3961511D01*
X23518380Y3932292D01*
X23524987Y3926281D01*
X25386227Y2065041D01*
X25398074Y2050255D01*
X25398842Y2050889D01*
X25406445Y2041700D01*
X25406447Y2041697D01*
X25435966Y2013977D01*
X25456612Y1994589D01*
X25458748Y1992519D01*
X25468207Y1983061D01*
X25478906Y1972362D01*
X25478909Y1972360D01*
X25483281Y1968968D01*
X25490068Y1963171D01*
X25510627Y1943866D01*
X25523495Y1931782D01*
X25523498Y1931780D01*
X25536949Y1924385D01*
X25561797Y1908064D01*
X25573931Y1898652D01*
X25573937Y1898649D01*
X25616002Y1880446D01*
X25624008Y1876525D01*
X25664197Y1854431D01*
X25664201Y1854430D01*
X25679068Y1850612D01*
X25707199Y1840981D01*
X25721290Y1834884D01*
X25721292Y1834883D01*
X25766578Y1827712D01*
X25775311Y1825903D01*
X25819718Y1814500D01*
X25835069Y1814500D01*
X25864713Y1812167D01*
X25866187Y1811934D01*
X25879879Y1809765D01*
X25918481Y1813414D01*
X25925518Y1814079D01*
X25934440Y1814500D01*
X33658920Y1814500D01*
X33677756Y1812421D01*
X33677850Y1813414D01*
X33689713Y1812294D01*
X33689719Y1812292D01*
X33729966Y1813557D01*
X33758514Y1814453D01*
X33761489Y1814500D01*
X33789982Y1814500D01*
X33789983Y1814500D01*
X33795469Y1815194D01*
X33804379Y1815895D01*
X33813749Y1816190D01*
X33850205Y1817335D01*
X33864942Y1821617D01*
X33894064Y1827649D01*
X33909299Y1829573D01*
X33951924Y1846451D01*
X33960355Y1849337D01*
X34004393Y1862131D01*
X34017604Y1869945D01*
X34044319Y1883032D01*
X34058588Y1888681D01*
X34095687Y1915637D01*
X34103141Y1920533D01*
X34142598Y1943866D01*
X34153455Y1954724D01*
X34176060Y1974030D01*
X34188487Y1983058D01*
X34217718Y2018395D01*
X34223704Y2024974D01*
X35198732Y3000001D01*
X45994659Y3000001D01*
X46013976Y2803864D01*
X46071185Y2615273D01*
X46164088Y2441465D01*
X46164090Y2441462D01*
X46289117Y2289117D01*
X46441462Y2164090D01*
X46441464Y2164089D01*
X46615272Y2071186D01*
X46803863Y2013977D01*
X46803865Y2013977D01*
X46803868Y2013976D01*
X47000000Y1994659D01*
X47196132Y2013976D01*
X47196134Y2013977D01*
X47196136Y2013977D01*
X47384727Y2071186D01*
X47384727Y2071187D01*
X47558538Y2164090D01*
X47710883Y2289117D01*
X47835910Y2441462D01*
X47928814Y2615273D01*
X47986024Y2803868D01*
X48005341Y3000000D01*
X47986024Y3196132D01*
X47986023Y3196135D01*
X47986023Y3196137D01*
X47928814Y3384728D01*
X47835911Y3558536D01*
X47835910Y3558538D01*
X47710883Y3710883D01*
X47558538Y3835910D01*
X47558536Y3835911D01*
X47558535Y3835912D01*
X47384727Y3928815D01*
X47196136Y3986024D01*
X47039226Y4001478D01*
X47000000Y4005341D01*
X46999999Y4005341D01*
X46803863Y3986024D01*
X46615272Y3928815D01*
X46441464Y3835912D01*
X46289120Y3710886D01*
X46289114Y3710880D01*
X46164088Y3558536D01*
X46071185Y3384728D01*
X46013976Y3196137D01*
X45994659Y3000001D01*
X35198732Y3000001D01*
X35586729Y3387997D01*
X35658139Y3432866D01*
X35720727Y3443500D01*
X36463769Y3443500D01*
X36463770Y3443500D01*
X36499574Y3446318D01*
X36652792Y3490832D01*
X36790127Y3572051D01*
X36902949Y3684873D01*
X36984168Y3822208D01*
X36984169Y3822212D01*
X36984624Y3823262D01*
X36985488Y3824441D01*
X36990237Y3832470D01*
X36991032Y3832000D01*
X37034502Y3891267D01*
X37108946Y3930896D01*
X37158538Y3937500D01*
X40580647Y3937500D01*
X40608112Y3935500D01*
X40627672Y3932634D01*
X40679169Y3937139D01*
X40687431Y3937500D01*
X40694408Y3937500D01*
X40694412Y3937500D01*
X40726146Y3941210D01*
X40728848Y3941487D01*
X40805240Y3948169D01*
X40805241Y3948170D01*
X40816048Y3950401D01*
X40816183Y3949744D01*
X40816456Y3949805D01*
X40816302Y3950457D01*
X40827037Y3953002D01*
X40827042Y3953002D01*
X40899131Y3979241D01*
X40901667Y3980122D01*
X40974440Y4004235D01*
X40974443Y4004237D01*
X40984448Y4008902D01*
X40984732Y4008293D01*
X40984972Y4008409D01*
X40984670Y4009010D01*
X40994531Y4013964D01*
X40994539Y4013966D01*
X41058588Y4056094D01*
X41060912Y4057573D01*
X41115773Y4091412D01*
X41126149Y4097812D01*
X41126156Y4097820D01*
X41134803Y4104656D01*
X41135222Y4104126D01*
X41135438Y4104302D01*
X41135004Y4104819D01*
X41143450Y4111908D01*
X41143462Y4111915D01*
X41196109Y4167719D01*
X41197951Y4169616D01*
X42410884Y5382548D01*
X42431713Y5400547D01*
X42447572Y5412352D01*
X42480813Y5451969D01*
X42486382Y5458046D01*
X42491323Y5462985D01*
X42511167Y5488084D01*
X42512881Y5490186D01*
X42562146Y5548897D01*
X42562151Y5548908D01*
X42568213Y5558122D01*
X42568776Y5557752D01*
X42568919Y5557975D01*
X42568346Y5558328D01*
X42574142Y5567726D01*
X42574142Y5567727D01*
X42574145Y5567730D01*
X42606560Y5637248D01*
X42607720Y5639643D01*
X42642144Y5708184D01*
X42642146Y5708193D01*
X42645919Y5718558D01*
X42646549Y5718329D01*
X42646638Y5718583D01*
X42646001Y5718794D01*
X42649474Y5729275D01*
X42649473Y5729275D01*
X42649475Y5729277D01*
X42664971Y5804336D01*
X42665568Y5807024D01*
X42670433Y5827551D01*
X42683250Y5881627D01*
X42683250Y5881630D01*
X42683251Y5881634D01*
X42684532Y5892591D01*
X42685193Y5892514D01*
X42685222Y5892790D01*
X42684557Y5892848D01*
X42685519Y5903844D01*
X42683290Y5980457D01*
X42683250Y5983213D01*
X42683250Y6988790D01*
X42702016Y7071011D01*
X42750600Y7133668D01*
X42901150Y7260600D01*
X43046201Y7432641D01*
X43113544Y7483401D01*
X43196246Y7499917D01*
X43277925Y7478915D01*
X43335954Y7432638D01*
X43480702Y7260958D01*
X43480707Y7260953D01*
X43660427Y7109426D01*
X43863178Y6990447D01*
X43863179Y6990446D01*
X44083115Y6907446D01*
X44083121Y6907445D01*
X44206750Y6883535D01*
X44206750Y8310500D01*
X44225516Y8392721D01*
X44278099Y8458657D01*
X44354082Y8495249D01*
X44396250Y8500000D01*
X44525250Y8500000D01*
X44607471Y8481234D01*
X44673407Y8428651D01*
X44709999Y8352668D01*
X44714750Y8310500D01*
X44714750Y6883536D01*
X44838378Y6907445D01*
X44838384Y6907446D01*
X45058320Y6990446D01*
X45058321Y6990447D01*
X45261072Y7109426D01*
X45440792Y7260953D01*
X45440797Y7260958D01*
X45585545Y7432638D01*
X45652891Y7483401D01*
X45735594Y7499917D01*
X45817272Y7478915D01*
X45875300Y7432639D01*
X46020350Y7260600D01*
X46089696Y7202133D01*
X46200140Y7109014D01*
X46238249Y7086651D01*
X46402963Y6989993D01*
X46622983Y6906961D01*
X46622992Y6906960D01*
X46622993Y6906959D01*
X46853859Y6862309D01*
X46853863Y6862309D01*
X46853871Y6862307D01*
X46906715Y6859500D01*
X47094784Y6859501D01*
X47103350Y6859956D01*
X47147624Y6862306D01*
X47195114Y6871491D01*
X47378517Y6906961D01*
X47598537Y6989993D01*
X47801359Y7109014D01*
X47981150Y7260600D01*
X48132736Y7440391D01*
X48251757Y7643213D01*
X48334789Y7863233D01*
X48369000Y8040125D01*
X48379441Y8094110D01*
X48379441Y8094112D01*
X48379443Y8094121D01*
X48382250Y8146965D01*
X48382250Y8310501D01*
X48401016Y8392721D01*
X48453599Y8458657D01*
X48529582Y8495249D01*
X48571750Y8500000D01*
X49556000Y8500000D01*
X49638221Y8481234D01*
X49704157Y8428651D01*
X49740749Y8352668D01*
X49745500Y8310500D01*
X49745500Y444000D01*
X49726734Y361779D01*
X49674151Y295843D01*
X49598168Y259251D01*
X49556000Y254500D01*
X444000Y254500D01*
X361779Y273266D01*
X295843Y325849D01*
X259251Y401832D01*
X254500Y444000D01*
X254500Y3000001D01*
X1994659Y3000001D01*
X2013976Y2803864D01*
X2071185Y2615273D01*
X2164088Y2441465D01*
X2164090Y2441462D01*
X2289117Y2289117D01*
X2441462Y2164090D01*
X2441464Y2164089D01*
X2615272Y2071186D01*
X2803863Y2013977D01*
X2803865Y2013977D01*
X2803868Y2013976D01*
X3000000Y1994659D01*
X3196132Y2013976D01*
X3196134Y2013977D01*
X3196136Y2013977D01*
X3384727Y2071186D01*
X3384727Y2071187D01*
X3558538Y2164090D01*
X3710883Y2289117D01*
X3835910Y2441462D01*
X3928814Y2615273D01*
X3986024Y2803868D01*
X4005341Y3000000D01*
X3986024Y3196132D01*
X3986023Y3196135D01*
X3986023Y3196137D01*
X3928814Y3384728D01*
X3835911Y3558536D01*
X3835910Y3558538D01*
X3710883Y3710883D01*
X3558538Y3835910D01*
X3558536Y3835911D01*
X3558535Y3835912D01*
X3384727Y3928815D01*
X3196136Y3986024D01*
X3039226Y4001478D01*
X3000000Y4005341D01*
X2999999Y4005341D01*
X2803863Y3986024D01*
X2615272Y3928815D01*
X2441464Y3835912D01*
X2289120Y3710886D01*
X2289114Y3710880D01*
X2164088Y3558536D01*
X2071185Y3384728D01*
X2013976Y3196137D01*
X1994659Y3000001D01*
X254500Y3000001D01*
X254500Y15586266D01*
X12769001Y15586266D01*
X12771814Y15550512D01*
X12771813Y15550512D01*
X12816295Y15397407D01*
X12816296Y15397405D01*
X12897449Y15260184D01*
X12897451Y15260181D01*
X13010180Y15147452D01*
X13010183Y15147450D01*
X13147404Y15066297D01*
X13147413Y15066292D01*
X13300498Y15021817D01*
X13300501Y15021816D01*
X13336276Y15019001D01*
X13796000Y15019001D01*
X13796000Y15808499D01*
X13795999Y15808500D01*
X14304000Y15808500D01*
X14304000Y15019002D01*
X14304001Y15019001D01*
X14763721Y15019001D01*
X14763734Y15019002D01*
X14799488Y15021814D01*
X14952593Y15066296D01*
X14952595Y15066297D01*
X15089816Y15147450D01*
X15089819Y15147452D01*
X15202548Y15260181D01*
X15202550Y15260184D01*
X15283703Y15397405D01*
X15283708Y15397414D01*
X15328183Y15550499D01*
X15328184Y15550502D01*
X15331000Y15586277D01*
X15331000Y15808499D01*
X15330999Y15808500D01*
X14304000Y15808500D01*
X13795999Y15808500D01*
X12769002Y15808500D01*
X12769001Y15808499D01*
X12769001Y15586266D01*
X254500Y15586266D01*
X254500Y16316501D01*
X12769000Y16316501D01*
X12769001Y16316500D01*
X13795999Y16316500D01*
X13796000Y16316501D01*
X14304000Y16316501D01*
X14304001Y16316500D01*
X15330998Y16316500D01*
X15330999Y16316501D01*
X15330999Y16538722D01*
X15330998Y16538735D01*
X15328185Y16574489D01*
X15328186Y16574489D01*
X15283704Y16727594D01*
X15283703Y16727596D01*
X15202550Y16864817D01*
X15202548Y16864820D01*
X15089819Y16977549D01*
X15089816Y16977551D01*
X14952595Y17058704D01*
X14952586Y17058709D01*
X14799501Y17103184D01*
X14799498Y17103185D01*
X14763724Y17106000D01*
X14304001Y17106000D01*
X14304000Y17105999D01*
X14304000Y16316501D01*
X13796000Y16316501D01*
X13796000Y16316502D01*
X13796000Y17106000D01*
X13336278Y17106000D01*
X13336265Y17105999D01*
X13300511Y17103187D01*
X13147406Y17058705D01*
X13147404Y17058704D01*
X13010183Y16977551D01*
X13010180Y16977549D01*
X12897451Y16864820D01*
X12897449Y16864817D01*
X12816296Y16727596D01*
X12816291Y16727587D01*
X12771816Y16574502D01*
X12771815Y16574499D01*
X12769000Y16538724D01*
X12769000Y16316501D01*
X254500Y16316501D01*
X254500Y34891278D01*
X17101500Y34891278D01*
X17104315Y34855503D01*
X17104316Y34855500D01*
X17148792Y34702412D01*
X17148793Y34702411D01*
X17229945Y34565189D01*
X17229947Y34565186D01*
X17342685Y34452448D01*
X17342688Y34452446D01*
X17479910Y34371294D01*
X17479911Y34371293D01*
X17632999Y34326817D01*
X17633002Y34326816D01*
X17668777Y34324000D01*
X17940999Y34324000D01*
X17941000Y34324001D01*
X17941000Y34324002D01*
X18449000Y34324002D01*
X18449001Y34324000D01*
X18721223Y34324000D01*
X18756997Y34326816D01*
X18757000Y34326817D01*
X18910088Y34371293D01*
X18910089Y34371294D01*
X19047311Y34452446D01*
X19047314Y34452448D01*
X19160052Y34565186D01*
X19160054Y34565189D01*
X19241206Y34702411D01*
X19241207Y34702412D01*
X19285683Y34855500D01*
X19285684Y34855503D01*
X19288496Y34891232D01*
X20076000Y34891232D01*
X20076001Y34891224D01*
X20078816Y34855436D01*
X20078817Y34855430D01*
X20078818Y34855427D01*
X20123332Y34702208D01*
X20144666Y34666135D01*
X20204549Y34564877D01*
X20204550Y34564876D01*
X20204552Y34564873D01*
X20317373Y34452052D01*
X20454708Y34370832D01*
X20607927Y34326318D01*
X20643731Y34323500D01*
X21696268Y34323501D01*
X21716295Y34325077D01*
X21732064Y34326317D01*
X21732067Y34326318D01*
X21732073Y34326318D01*
X21885292Y34370832D01*
X22022627Y34452052D01*
X22135448Y34564873D01*
X22216668Y34702208D01*
X22233281Y34759389D01*
X22247366Y34807869D01*
X22288326Y34881590D01*
X22357216Y34930238D01*
X22429341Y34944500D01*
X22935659Y34944500D01*
X23017880Y34925734D01*
X23083816Y34873151D01*
X23117634Y34807869D01*
X23148331Y34702209D01*
X23229549Y34564876D01*
X23229551Y34564873D01*
X23342373Y34452051D01*
X23479708Y34370832D01*
X23632926Y34326318D01*
X23668730Y34323500D01*
X23668731Y34323500D01*
X24596269Y34323500D01*
X24596270Y34323500D01*
X24632074Y34326318D01*
X24785292Y34370832D01*
X24922627Y34452051D01*
X25035449Y34564873D01*
X25116668Y34702208D01*
X25161182Y34855426D01*
X25164000Y34891230D01*
X25164000Y36268770D01*
X25161182Y36304574D01*
X25116668Y36457792D01*
X25035449Y36595127D01*
X24922627Y36707949D01*
X24915107Y36712396D01*
X24785294Y36789167D01*
X24785293Y36789168D01*
X24785292Y36789168D01*
X24632074Y36833682D01*
X24596270Y36836500D01*
X23668730Y36836500D01*
X23662365Y36835999D01*
X23632926Y36833682D01*
X23479705Y36789167D01*
X23342375Y36707951D01*
X23229549Y36595125D01*
X23148331Y36457792D01*
X23117634Y36352131D01*
X23076674Y36278410D01*
X23007784Y36229762D01*
X22935659Y36215500D01*
X22429340Y36215500D01*
X22347119Y36234266D01*
X22281183Y36286849D01*
X22247365Y36352131D01*
X22216668Y36457792D01*
X22153069Y36565331D01*
X22135450Y36595124D01*
X22135449Y36595125D01*
X22135448Y36595127D01*
X22022627Y36707948D01*
X22022624Y36707950D01*
X22022623Y36707951D01*
X21885294Y36789167D01*
X21885293Y36789168D01*
X21885292Y36789168D01*
X21732073Y36833682D01*
X21696269Y36836500D01*
X21696267Y36836500D01*
X20643731Y36836500D01*
X20643723Y36836499D01*
X20607935Y36833684D01*
X20607929Y36833683D01*
X20531317Y36811425D01*
X20454708Y36789168D01*
X20454706Y36789168D01*
X20454706Y36789167D01*
X20317376Y36707951D01*
X20204549Y36595124D01*
X20123333Y36457795D01*
X20078818Y36304574D01*
X20076000Y36268768D01*
X20076000Y34891232D01*
X19288496Y34891232D01*
X19288500Y34891278D01*
X19288500Y35325999D01*
X19288499Y35326000D01*
X18449001Y35326000D01*
X18449000Y35325999D01*
X18449000Y34324002D01*
X17941000Y34324002D01*
X17941000Y35325999D01*
X17940999Y35326000D01*
X17101501Y35326000D01*
X17101500Y35325999D01*
X17101500Y34891278D01*
X254500Y34891278D01*
X254500Y35834001D01*
X17101500Y35834001D01*
X17101501Y35834000D01*
X17940999Y35834000D01*
X17941000Y35834001D01*
X18449000Y35834001D01*
X18449001Y35834000D01*
X19288499Y35834000D01*
X19288500Y35834002D01*
X19288500Y36268723D01*
X19285684Y36304498D01*
X19285683Y36304501D01*
X19241207Y36457589D01*
X19241206Y36457590D01*
X19160054Y36594812D01*
X19160052Y36594815D01*
X19047314Y36707553D01*
X19047311Y36707555D01*
X18910089Y36788707D01*
X18910088Y36788708D01*
X18757000Y36833184D01*
X18756997Y36833185D01*
X18721223Y36836000D01*
X18449001Y36836000D01*
X18449000Y36835999D01*
X18449000Y35834001D01*
X17941000Y35834001D01*
X17941000Y35834002D01*
X17941000Y36835999D01*
X17940999Y36836000D01*
X17668777Y36836000D01*
X17633002Y36833185D01*
X17632999Y36833184D01*
X17479911Y36788708D01*
X17479910Y36788707D01*
X17342688Y36707555D01*
X17342685Y36707553D01*
X17229947Y36594815D01*
X17229945Y36594812D01*
X17148793Y36457590D01*
X17148792Y36457589D01*
X17104316Y36304501D01*
X17104315Y36304498D01*
X17101500Y36268723D01*
X17101500Y35834001D01*
X254500Y35834001D01*
X254500Y37891278D01*
X17101500Y37891278D01*
X17104315Y37855503D01*
X17104316Y37855500D01*
X17148792Y37702412D01*
X17148793Y37702411D01*
X17229945Y37565189D01*
X17229947Y37565186D01*
X17342685Y37452448D01*
X17342688Y37452446D01*
X17479910Y37371294D01*
X17479911Y37371293D01*
X17632999Y37326817D01*
X17633002Y37326816D01*
X17668777Y37324000D01*
X17940999Y37324000D01*
X17941000Y37324001D01*
X18449000Y37324001D01*
X18449001Y37324000D01*
X18721223Y37324000D01*
X18756997Y37326816D01*
X18757000Y37326817D01*
X18910088Y37371293D01*
X18910089Y37371294D01*
X19047311Y37452446D01*
X19047314Y37452448D01*
X19160052Y37565186D01*
X19160054Y37565189D01*
X19241206Y37702411D01*
X19241207Y37702412D01*
X19285683Y37855500D01*
X19285684Y37855503D01*
X19288496Y37891232D01*
X20076000Y37891232D01*
X20076001Y37891224D01*
X20078816Y37855436D01*
X20078817Y37855430D01*
X20078818Y37855427D01*
X20123332Y37702208D01*
X20155149Y37648408D01*
X20204549Y37564877D01*
X20204550Y37564876D01*
X20204552Y37564873D01*
X20317373Y37452052D01*
X20454708Y37370832D01*
X20607927Y37326318D01*
X20643731Y37323500D01*
X21696268Y37323501D01*
X21716295Y37325077D01*
X21732064Y37326317D01*
X21732067Y37326318D01*
X21732073Y37326318D01*
X21885292Y37370832D01*
X22022627Y37452052D01*
X22135448Y37564873D01*
X22216668Y37702208D01*
X22224820Y37730269D01*
X22247366Y37807869D01*
X22288326Y37881590D01*
X22357216Y37930238D01*
X22429341Y37944500D01*
X22935659Y37944500D01*
X23017880Y37925734D01*
X23083816Y37873151D01*
X23117634Y37807869D01*
X23148331Y37702209D01*
X23229549Y37564876D01*
X23229551Y37564873D01*
X23342373Y37452051D01*
X23479708Y37370832D01*
X23632926Y37326318D01*
X23668730Y37323500D01*
X23668731Y37323500D01*
X24596269Y37323500D01*
X24596270Y37323500D01*
X24632074Y37326318D01*
X24785292Y37370832D01*
X24922627Y37452051D01*
X25035449Y37564873D01*
X25116668Y37702208D01*
X25161182Y37855426D01*
X25164000Y37891230D01*
X25164000Y39268770D01*
X25161182Y39304574D01*
X25116668Y39457792D01*
X25035449Y39595127D01*
X24922627Y39707949D01*
X24785292Y39789168D01*
X24632074Y39833682D01*
X24596270Y39836500D01*
X23668730Y39836500D01*
X23662365Y39835999D01*
X23632926Y39833682D01*
X23479705Y39789167D01*
X23342375Y39707951D01*
X23229549Y39595125D01*
X23148331Y39457792D01*
X23117634Y39352131D01*
X23076674Y39278410D01*
X23007784Y39229762D01*
X22935659Y39215500D01*
X22429340Y39215500D01*
X22347119Y39234266D01*
X22281183Y39286849D01*
X22247365Y39352131D01*
X22216668Y39457792D01*
X22176057Y39526460D01*
X22135450Y39595124D01*
X22135449Y39595125D01*
X22135448Y39595127D01*
X22022627Y39707948D01*
X22022624Y39707950D01*
X22022623Y39707951D01*
X21885294Y39789167D01*
X21885293Y39789168D01*
X21885292Y39789168D01*
X21732073Y39833682D01*
X21696269Y39836500D01*
X21696267Y39836500D01*
X20643731Y39836500D01*
X20643723Y39836499D01*
X20607935Y39833684D01*
X20607929Y39833683D01*
X20531317Y39811425D01*
X20454708Y39789168D01*
X20454706Y39789168D01*
X20454706Y39789167D01*
X20317376Y39707951D01*
X20204549Y39595124D01*
X20123333Y39457795D01*
X20078818Y39304574D01*
X20076000Y39268768D01*
X20076000Y37891232D01*
X19288496Y37891232D01*
X19288500Y37891278D01*
X19288500Y38325999D01*
X19288499Y38326000D01*
X18449001Y38326000D01*
X18449000Y38325999D01*
X18449000Y37324001D01*
X17941000Y37324001D01*
X17941000Y38325999D01*
X17940999Y38326000D01*
X17101501Y38326000D01*
X17101500Y38325999D01*
X17101500Y37891278D01*
X254500Y37891278D01*
X254500Y38834001D01*
X17101500Y38834001D01*
X17101501Y38834000D01*
X17940999Y38834000D01*
X17941000Y38834001D01*
X18449000Y38834001D01*
X18449001Y38834000D01*
X19288499Y38834000D01*
X19288500Y38834001D01*
X19288500Y39268723D01*
X19285684Y39304498D01*
X19285683Y39304501D01*
X19241207Y39457589D01*
X19241206Y39457590D01*
X19160054Y39594812D01*
X19160052Y39594815D01*
X19047314Y39707553D01*
X19047311Y39707555D01*
X18910089Y39788707D01*
X18910088Y39788708D01*
X18757000Y39833184D01*
X18756997Y39833185D01*
X18721223Y39836000D01*
X18449001Y39836000D01*
X18449000Y39835999D01*
X18449000Y38834001D01*
X17941000Y38834001D01*
X17941000Y39835999D01*
X17940999Y39836000D01*
X17668777Y39836000D01*
X17633002Y39833185D01*
X17632999Y39833184D01*
X17479911Y39788708D01*
X17479910Y39788707D01*
X17342688Y39707555D01*
X17342685Y39707553D01*
X17229947Y39594815D01*
X17229945Y39594812D01*
X17148793Y39457590D01*
X17148792Y39457589D01*
X17104316Y39304501D01*
X17104315Y39304498D01*
X17101500Y39268723D01*
X17101500Y38834001D01*
X254500Y38834001D01*
X254500Y41000000D01*
X1994659Y41000000D01*
X2013976Y40803864D01*
X2071185Y40615273D01*
X2164088Y40441465D01*
X2164090Y40441462D01*
X2289117Y40289117D01*
X2441462Y40164090D01*
X2441464Y40164089D01*
X2615272Y40071186D01*
X2803863Y40013977D01*
X2803865Y40013977D01*
X2803868Y40013976D01*
X3000000Y39994659D01*
X3196132Y40013976D01*
X3196134Y40013977D01*
X3196136Y40013977D01*
X3384727Y40071186D01*
X3384726Y40071187D01*
X3558538Y40164090D01*
X3710883Y40289117D01*
X3835910Y40441462D01*
X3928814Y40615273D01*
X3955247Y40702411D01*
X3986023Y40803864D01*
X3986023Y40803866D01*
X3986024Y40803868D01*
X4005341Y41000000D01*
X3986024Y41196132D01*
X3986023Y41196135D01*
X3986023Y41196137D01*
X3946629Y41326000D01*
X17101500Y41326000D01*
X17101500Y40891278D01*
X17104315Y40855503D01*
X17104316Y40855500D01*
X17148792Y40702412D01*
X17148793Y40702411D01*
X17229945Y40565189D01*
X17229947Y40565186D01*
X17342685Y40452448D01*
X17342688Y40452446D01*
X17479910Y40371294D01*
X17479911Y40371293D01*
X17632999Y40326817D01*
X17633002Y40326816D01*
X17668777Y40324000D01*
X17940999Y40324000D01*
X17941000Y40324002D01*
X17941000Y41325999D01*
X17940999Y41326000D01*
X18449000Y41326000D01*
X18449000Y40324002D01*
X18449001Y40324000D01*
X18721223Y40324000D01*
X18756997Y40326816D01*
X18757000Y40326817D01*
X18910088Y40371293D01*
X18910089Y40371294D01*
X19047311Y40452446D01*
X19047314Y40452448D01*
X19160052Y40565186D01*
X19160054Y40565189D01*
X19241206Y40702411D01*
X19241207Y40702412D01*
X19285683Y40855500D01*
X19285684Y40855503D01*
X19288496Y40891232D01*
X20076000Y40891232D01*
X20076001Y40891224D01*
X20078816Y40855436D01*
X20078817Y40855430D01*
X20078818Y40855427D01*
X20123332Y40702208D01*
X20155149Y40648408D01*
X20204549Y40564877D01*
X20204550Y40564876D01*
X20204552Y40564873D01*
X20317373Y40452052D01*
X20317375Y40452051D01*
X20317376Y40452050D01*
X20386040Y40411442D01*
X20454708Y40370832D01*
X20607927Y40326318D01*
X20643731Y40323500D01*
X21696268Y40323501D01*
X21716295Y40325077D01*
X21732064Y40326317D01*
X21732067Y40326318D01*
X21732073Y40326318D01*
X21885292Y40370832D01*
X22022627Y40452052D01*
X22135448Y40564873D01*
X22216668Y40702208D01*
X22224820Y40730269D01*
X22247366Y40807869D01*
X22288326Y40881590D01*
X22357216Y40930238D01*
X22429341Y40944500D01*
X22935659Y40944500D01*
X23017880Y40925734D01*
X23083816Y40873151D01*
X23117634Y40807869D01*
X23148331Y40702209D01*
X23229549Y40564876D01*
X23229551Y40564873D01*
X23342373Y40452051D01*
X23479708Y40370832D01*
X23632926Y40326318D01*
X23668730Y40323500D01*
X23668731Y40323500D01*
X24596269Y40323500D01*
X24596270Y40323500D01*
X24632074Y40326318D01*
X24785292Y40370832D01*
X24922627Y40452051D01*
X25035449Y40564873D01*
X25116668Y40702208D01*
X25161182Y40855426D01*
X25164000Y40891230D01*
X25164000Y42268770D01*
X25161182Y42304574D01*
X25116668Y42457792D01*
X25035449Y42595127D01*
X24922627Y42707949D01*
X24785292Y42789168D01*
X24632074Y42833682D01*
X24596270Y42836500D01*
X23668730Y42836500D01*
X23662365Y42835999D01*
X23632926Y42833682D01*
X23479705Y42789167D01*
X23342375Y42707951D01*
X23229549Y42595125D01*
X23148331Y42457792D01*
X23117634Y42352131D01*
X23076674Y42278410D01*
X23007784Y42229762D01*
X22935659Y42215500D01*
X22429340Y42215500D01*
X22347119Y42234266D01*
X22281183Y42286849D01*
X22247365Y42352131D01*
X22216668Y42457792D01*
X22176057Y42526460D01*
X22135450Y42595124D01*
X22135449Y42595125D01*
X22135448Y42595127D01*
X22022627Y42707948D01*
X22022624Y42707950D01*
X22022623Y42707951D01*
X21885294Y42789167D01*
X21885293Y42789168D01*
X21885292Y42789168D01*
X21732073Y42833682D01*
X21696269Y42836500D01*
X21696267Y42836500D01*
X20643731Y42836500D01*
X20643723Y42836499D01*
X20607935Y42833684D01*
X20607929Y42833683D01*
X20531317Y42811425D01*
X20454708Y42789168D01*
X20454706Y42789168D01*
X20454706Y42789167D01*
X20317376Y42707951D01*
X20204549Y42595124D01*
X20123333Y42457795D01*
X20078818Y42304574D01*
X20076000Y42268768D01*
X20076000Y40891232D01*
X19288496Y40891232D01*
X19288500Y40891278D01*
X19288500Y41325999D01*
X19288499Y41326000D01*
X18449000Y41326000D01*
X17940999Y41326000D01*
X17101500Y41326000D01*
X3946629Y41326000D01*
X3928814Y41384728D01*
X3835911Y41558536D01*
X3835910Y41558538D01*
X3710883Y41710883D01*
X3560864Y41834001D01*
X17101500Y41834001D01*
X17101501Y41834000D01*
X17940999Y41834000D01*
X17941000Y41834001D01*
X17941000Y41834002D01*
X18449000Y41834002D01*
X18449001Y41834000D01*
X19288499Y41834000D01*
X19288500Y41834002D01*
X19288500Y42268723D01*
X19285684Y42304498D01*
X19285683Y42304501D01*
X19241207Y42457589D01*
X19241206Y42457590D01*
X19160054Y42594812D01*
X19160052Y42594815D01*
X19047314Y42707553D01*
X19047311Y42707555D01*
X18910089Y42788707D01*
X18910088Y42788708D01*
X18757000Y42833184D01*
X18756997Y42833185D01*
X18721223Y42836000D01*
X18449001Y42836000D01*
X18449000Y42835999D01*
X18449000Y41834002D01*
X17941000Y41834002D01*
X17941000Y42835999D01*
X17940999Y42836000D01*
X17668777Y42836000D01*
X17633002Y42833185D01*
X17632999Y42833184D01*
X17479911Y42788708D01*
X17479910Y42788707D01*
X17342688Y42707555D01*
X17342685Y42707553D01*
X17229947Y42594815D01*
X17229945Y42594812D01*
X17148793Y42457590D01*
X17148792Y42457589D01*
X17104316Y42304501D01*
X17104315Y42304498D01*
X17101500Y42268723D01*
X17101500Y41834001D01*
X3560864Y41834001D01*
X3558538Y41835910D01*
X3558536Y41835911D01*
X3558535Y41835912D01*
X3384727Y41928815D01*
X3196136Y41986024D01*
X3000000Y42005341D01*
X2803863Y41986024D01*
X2615272Y41928815D01*
X2441464Y41835912D01*
X2289120Y41710886D01*
X2289114Y41710880D01*
X2164088Y41558536D01*
X2071185Y41384728D01*
X2013976Y41196137D01*
X1994659Y41000000D01*
X254500Y41000000D01*
X254500Y43556000D01*
X273266Y43638221D01*
X325849Y43704157D01*
X401832Y43740749D01*
X444000Y43745500D01*
X49556000Y43745500D01*
X49638221Y43726734D01*
G37*
%TD.AperFunction*%
%TD*%
M02*
