%TF.GenerationSoftware,KiCad,Pcbnew,7.0.5*%
%TF.CreationDate,2023-10-11T12:47:35-04:00*%
%TF.ProjectId,Board_To_Be_Tested,426f6172-645f-4546-9f5f-42655f546573,rev?*%
%TF.SameCoordinates,Original*%
%TF.FileFunction,Legend,Top*%
%TF.FilePolarity,Positive*%
%FSLAX46Y46*%
G04 Gerber Fmt 4.6, Leading zero omitted, Abs format (unit mm)*
G04 Created by KiCad (PCBNEW 7.0.5) date 2023-10-11 12:47:35*
%MOMM*%
%LPD*%
G01*
G04 APERTURE LIST*
%ADD10C,0.150000*%
%ADD11C,0.120000*%
%ADD12C,0.127000*%
%ADD13C,0.254000*%
%ADD14C,0.200000*%
G04 APERTURE END LIST*
D10*
%TO.C,U2*%
X175277283Y-91251833D02*
X175843950Y-91251833D01*
X175843950Y-91251833D02*
X175910616Y-91218500D01*
X175910616Y-91218500D02*
X175943950Y-91185166D01*
X175943950Y-91185166D02*
X175977283Y-91118500D01*
X175977283Y-91118500D02*
X175977283Y-90985166D01*
X175977283Y-90985166D02*
X175943950Y-90918500D01*
X175943950Y-90918500D02*
X175910616Y-90885166D01*
X175910616Y-90885166D02*
X175843950Y-90851833D01*
X175843950Y-90851833D02*
X175277283Y-90851833D01*
X175343950Y-90551833D02*
X175310616Y-90518500D01*
X175310616Y-90518500D02*
X175277283Y-90451833D01*
X175277283Y-90451833D02*
X175277283Y-90285167D01*
X175277283Y-90285167D02*
X175310616Y-90218500D01*
X175310616Y-90218500D02*
X175343950Y-90185167D01*
X175343950Y-90185167D02*
X175410616Y-90151833D01*
X175410616Y-90151833D02*
X175477283Y-90151833D01*
X175477283Y-90151833D02*
X175577283Y-90185167D01*
X175577283Y-90185167D02*
X175977283Y-90585167D01*
X175977283Y-90585167D02*
X175977283Y-90151833D01*
D11*
%TO.C,R7*%
X138140000Y-99927064D02*
X138140000Y-98472936D01*
X139960000Y-99927064D02*
X139960000Y-98472936D01*
%TO.C,R8*%
X131490000Y-85017064D02*
X131490000Y-83562936D01*
X133310000Y-85017064D02*
X133310000Y-83562936D01*
%TO.C,R5*%
X153372936Y-102390000D02*
X154827064Y-102390000D01*
X153372936Y-104210000D02*
X154827064Y-104210000D01*
%TO.C,D3*%
X142222500Y-68285000D02*
X142222500Y-70555000D01*
X142222500Y-70555000D02*
X146282500Y-70555000D01*
X146282500Y-68285000D02*
X142222500Y-68285000D01*
%TO.C,R1*%
X149955436Y-65510000D02*
X151409564Y-65510000D01*
X149955436Y-67330000D02*
X151409564Y-67330000D01*
%TO.C,R4*%
X158722936Y-102390000D02*
X160177064Y-102390000D01*
X158722936Y-104210000D02*
X160177064Y-104210000D01*
%TO.C,R2*%
X149955436Y-68510000D02*
X151409564Y-68510000D01*
X149955436Y-70330000D02*
X151409564Y-70330000D01*
%TO.C,C3*%
X132880000Y-70486248D02*
X132880000Y-71908752D01*
X131060000Y-70486248D02*
X131060000Y-71908752D01*
%TO.C,C2*%
X143820000Y-91111252D02*
X143820000Y-89688748D01*
X145640000Y-91111252D02*
X145640000Y-89688748D01*
%TO.C,D4*%
X142222500Y-71285000D02*
X142222500Y-73555000D01*
X142222500Y-73555000D02*
X146282500Y-73555000D01*
X146282500Y-71285000D02*
X142222500Y-71285000D01*
%TO.C,R6*%
X149955436Y-74510000D02*
X151409564Y-74510000D01*
X149955436Y-76330000D02*
X151409564Y-76330000D01*
%TO.C,D5*%
X142222500Y-74285000D02*
X142222500Y-76555000D01*
X142222500Y-76555000D02*
X146282500Y-76555000D01*
X146282500Y-74285000D02*
X142222500Y-74285000D01*
%TO.C,D1*%
X146510000Y-92780000D02*
X146510000Y-85480000D01*
X152010000Y-92780000D02*
X152010000Y-85480000D01*
X152010000Y-85480000D02*
X150860000Y-85480000D01*
D12*
%TO.C,U1*%
X134915000Y-93265000D02*
X129985000Y-93265000D01*
X129985000Y-100735000D02*
X134915000Y-100735000D01*
D13*
X135677000Y-99800000D02*
G75*
G03*
X135677000Y-99800000I-127000J0D01*
G01*
D11*
%TO.C,R9*%
X139300000Y-80107064D02*
X139300000Y-78652936D01*
X141120000Y-80107064D02*
X141120000Y-78652936D01*
D12*
%TO.C,U2*%
X174209250Y-81384000D02*
X153880750Y-81384000D01*
X153880750Y-81384000D02*
X153880750Y-99184000D01*
X174880750Y-82055541D02*
X174209250Y-81384000D01*
X168952750Y-85780000D02*
X176305750Y-85780000D01*
X176304750Y-85784000D02*
X176304750Y-94779000D01*
X176304750Y-94779000D02*
X168952750Y-94779000D01*
X168952750Y-94779000D02*
X168952750Y-85780000D01*
X174880750Y-99184000D02*
X174880750Y-82055541D01*
X153880750Y-99184000D02*
X174880750Y-99184000D01*
D11*
%TO.C,D2*%
X142222500Y-65285000D02*
X142222500Y-67555000D01*
X142222500Y-67555000D02*
X146282500Y-67555000D01*
X146282500Y-65285000D02*
X142222500Y-65285000D01*
%TO.C,C1*%
X138140000Y-94211252D02*
X138140000Y-92788748D01*
X139960000Y-94211252D02*
X139960000Y-92788748D01*
D14*
%TO.C,IC1*%
X130895000Y-74200000D02*
X130895000Y-77400000D01*
X130895000Y-74200000D02*
X137695000Y-74200000D01*
X130895000Y-77400000D02*
X131839000Y-77400000D01*
X137695000Y-74200000D02*
X137695000Y-77400000D01*
X137695000Y-77400000D02*
X136815000Y-77400000D01*
D13*
X131624680Y-78342000D02*
G75*
G03*
X131624680Y-78342000I-119680J0D01*
G01*
D11*
%TO.C,R3*%
X149955436Y-71510000D02*
X151409564Y-71510000D01*
X149955436Y-73330000D02*
X151409564Y-73330000D01*
%TD*%
M02*
