%TF.GenerationSoftware,KiCad,Pcbnew,7.0.5*%
%TF.CreationDate,2023-10-11T12:47:35-04:00*%
%TF.ProjectId,Board_To_Be_Tested,426f6172-645f-4546-9f5f-42655f546573,rev?*%
%TF.SameCoordinates,Original*%
%TF.FileFunction,Copper,L1,Top*%
%TF.FilePolarity,Positive*%
%FSLAX46Y46*%
G04 Gerber Fmt 4.6, Leading zero omitted, Abs format (unit mm)*
G04 Created by KiCad (PCBNEW 7.0.5) date 2023-10-11 12:47:35*
%MOMM*%
%LPD*%
G01*
G04 APERTURE LIST*
G04 Aperture macros list*
%AMRoundRect*
0 Rectangle with rounded corners*
0 $1 Rounding radius*
0 $2 $3 $4 $5 $6 $7 $8 $9 X,Y pos of 4 corners*
0 Add a 4 corners polygon primitive as box body*
4,1,4,$2,$3,$4,$5,$6,$7,$8,$9,$2,$3,0*
0 Add four circle primitives for the rounded corners*
1,1,$1+$1,$2,$3*
1,1,$1+$1,$4,$5*
1,1,$1+$1,$6,$7*
1,1,$1+$1,$8,$9*
0 Add four rect primitives between the rounded corners*
20,1,$1+$1,$2,$3,$4,$5,0*
20,1,$1+$1,$4,$5,$6,$7,0*
20,1,$1+$1,$6,$7,$8,$9,0*
20,1,$1+$1,$8,$9,$2,$3,0*%
G04 Aperture macros list end*
%TA.AperFunction,SMDPad,CuDef*%
%ADD10C,1.000000*%
%TD*%
%TA.AperFunction,SMDPad,CuDef*%
%ADD11RoundRect,0.250000X0.625000X-0.400000X0.625000X0.400000X-0.625000X0.400000X-0.625000X-0.400000X0*%
%TD*%
%TA.AperFunction,SMDPad,CuDef*%
%ADD12RoundRect,0.250000X-0.400000X-0.625000X0.400000X-0.625000X0.400000X0.625000X-0.400000X0.625000X0*%
%TD*%
%TA.AperFunction,SMDPad,CuDef*%
%ADD13RoundRect,0.250001X-0.462499X-0.624999X0.462499X-0.624999X0.462499X0.624999X-0.462499X0.624999X0*%
%TD*%
%TA.AperFunction,SMDPad,CuDef*%
%ADD14RoundRect,0.250000X-0.650000X0.412500X-0.650000X-0.412500X0.650000X-0.412500X0.650000X0.412500X0*%
%TD*%
%TA.AperFunction,SMDPad,CuDef*%
%ADD15RoundRect,0.250000X0.650000X-0.412500X0.650000X0.412500X-0.650000X0.412500X-0.650000X-0.412500X0*%
%TD*%
%TA.AperFunction,SMDPad,CuDef*%
%ADD16R,1.000000X2.300000*%
%TD*%
%TA.AperFunction,SMDPad,CuDef*%
%ADD17R,1.800000X0.800000*%
%TD*%
%TA.AperFunction,SMDPad,CuDef*%
%ADD18RoundRect,1.000000X0.000000X0.375000X0.000000X-0.375000X0.000000X-0.375000X0.000000X0.375000X0*%
%TD*%
%TA.AperFunction,SMDPad,CuDef*%
%ADD19R,0.700000X1.600000*%
%TD*%
%TA.AperFunction,ViaPad*%
%ADD20C,0.762000*%
%TD*%
%TA.AperFunction,Conductor*%
%ADD21C,0.508000*%
%TD*%
%TA.AperFunction,Conductor*%
%ADD22C,1.016000*%
%TD*%
%TA.AperFunction,Conductor*%
%ADD23C,0.635000*%
%TD*%
%TA.AperFunction,Conductor*%
%ADD24C,0.762000*%
%TD*%
G04 APERTURE END LIST*
D10*
%TO.P,FID1,*%
%TO.N,*%
X128000000Y-67000000D03*
%TD*%
D11*
%TO.P,R7,1*%
%TO.N,+3V3*%
X139050000Y-100750000D03*
%TO.P,R7,2*%
%TO.N,/SHT_DATA*%
X139050000Y-97650000D03*
%TD*%
%TO.P,R8,1*%
%TO.N,+3V3*%
X132400000Y-85840000D03*
%TO.P,R8,2*%
%TO.N,/SCL*%
X132400000Y-82740000D03*
%TD*%
D12*
%TO.P,R5,1*%
%TO.N,GND*%
X152550000Y-103300000D03*
%TO.P,R5,2*%
%TO.N,/A0*%
X155650000Y-103300000D03*
%TD*%
D10*
%TO.P,FID2,*%
%TO.N,*%
X172000000Y-67000000D03*
%TD*%
D13*
%TO.P,D3,1,K*%
%TO.N,GND*%
X143195000Y-69420000D03*
%TO.P,D3,2,A*%
%TO.N,Net-(D3-A)*%
X146170000Y-69420000D03*
%TD*%
D12*
%TO.P,R1,1*%
%TO.N,Net-(D2-A)*%
X149132500Y-66420000D03*
%TO.P,R1,2*%
%TO.N,/LED1*%
X152232500Y-66420000D03*
%TD*%
D10*
%TO.P,FID4,*%
%TO.N,*%
X172000000Y-105000000D03*
%TD*%
D12*
%TO.P,R4,1*%
%TO.N,/A0*%
X157900000Y-103300000D03*
%TO.P,R4,2*%
%TO.N,+3V3*%
X161000000Y-103300000D03*
%TD*%
%TO.P,R2,1*%
%TO.N,Net-(D3-A)*%
X149132500Y-69420000D03*
%TO.P,R2,2*%
%TO.N,/LED2*%
X152232500Y-69420000D03*
%TD*%
D14*
%TO.P,C3,1*%
%TO.N,GND*%
X131970000Y-69635000D03*
%TO.P,C3,2*%
%TO.N,+3V3*%
X131970000Y-72760000D03*
%TD*%
D15*
%TO.P,C2,1*%
%TO.N,VBUS*%
X144730000Y-91962500D03*
%TO.P,C2,2*%
%TO.N,GND*%
X144730000Y-88837500D03*
%TD*%
D13*
%TO.P,D4,1,K*%
%TO.N,GND*%
X143195000Y-72420000D03*
%TO.P,D4,2,A*%
%TO.N,Net-(D4-A)*%
X146170000Y-72420000D03*
%TD*%
D12*
%TO.P,R6,1*%
%TO.N,Net-(D5-A)*%
X149132500Y-75420000D03*
%TO.P,R6,2*%
%TO.N,/LED4*%
X152232500Y-75420000D03*
%TD*%
D13*
%TO.P,D5,1,K*%
%TO.N,GND*%
X143195000Y-75420000D03*
%TO.P,D5,2,A*%
%TO.N,Net-(D5-A)*%
X146170000Y-75420000D03*
%TD*%
D16*
%TO.P,D1,1,VSS*%
%TO.N,GND*%
X150860000Y-86280000D03*
%TO.P,D1,2,DIN*%
%TO.N,/DIN*%
X147660000Y-86280000D03*
%TO.P,D1,3,VDD*%
%TO.N,VBUS*%
X147660000Y-91980000D03*
%TO.P,D1,4,DOUT*%
%TO.N,unconnected-(D1-DOUT-Pad4)*%
X150860000Y-91980000D03*
%TD*%
D17*
%TO.P,U1,1,GND*%
%TO.N,GND*%
X135090000Y-98905000D03*
%TO.P,U1,2,DATA*%
%TO.N,/SHT_DATA*%
X135090000Y-97635000D03*
%TO.P,U1,3,SCK*%
%TO.N,/SHT_CLK*%
X135090000Y-96365000D03*
%TO.P,U1,4,VDD*%
%TO.N,+3V3*%
X135090000Y-95095000D03*
%TO.P,U1,5*%
%TO.N,N/C*%
X129810000Y-95095000D03*
%TO.P,U1,6*%
X129810000Y-96365000D03*
%TO.P,U1,7*%
X129810000Y-97635000D03*
%TO.P,U1,8*%
X129810000Y-98905000D03*
%TD*%
D11*
%TO.P,R9,1*%
%TO.N,/SDA*%
X140210000Y-80930000D03*
%TO.P,R9,2*%
%TO.N,+3V3*%
X140210000Y-77830000D03*
%TD*%
D18*
%TO.P,U2,1,PA02_A0_D0*%
%TO.N,/LED1*%
X172000750Y-81384000D03*
%TO.P,U2,2,PA4_A1_D1*%
%TO.N,/LED2*%
X169460750Y-81384000D03*
%TO.P,U2,3,PA10_A2_D2*%
%TO.N,/LED3*%
X166920750Y-81384000D03*
%TO.P,U2,4,PA11_A3_D3*%
%TO.N,/LED4*%
X164380750Y-81384000D03*
%TO.P,U2,5,PA8_A4_D4_SDA*%
%TO.N,/SDA*%
X161840750Y-81384000D03*
%TO.P,U2,6,PA9_A5_D5_SCL*%
%TO.N,/SCL*%
X159300750Y-81384000D03*
%TO.P,U2,7,PB08_A6_D6_TX*%
%TO.N,/DIN*%
X156760750Y-81384000D03*
%TO.P,U2,8,PB09_A7_D7_RX*%
%TO.N,/SHT_DATA*%
X156760750Y-99384000D03*
%TO.P,U2,9,PA7_A8_D8_SCK*%
%TO.N,/A0*%
X159300750Y-99384000D03*
%TO.P,U2,10,PA5_A9_D9_MISO*%
%TO.N,unconnected-(U2-PA5_A9_D9_MISO-Pad10)*%
X161840750Y-99384000D03*
%TO.P,U2,11,PA6_A10_D10_MOSI*%
%TO.N,/SHT_CLK*%
X164380750Y-99384000D03*
%TO.P,U2,12,3V3*%
%TO.N,+3V3*%
X166920750Y-99384000D03*
%TO.P,U2,13,GND*%
%TO.N,GND*%
X169460750Y-99384000D03*
%TO.P,U2,14,5V*%
%TO.N,VBUS*%
X172000750Y-99384000D03*
%TD*%
D13*
%TO.P,D2,1,K*%
%TO.N,GND*%
X143195000Y-66420000D03*
%TO.P,D2,2,A*%
%TO.N,Net-(D2-A)*%
X146170000Y-66420000D03*
%TD*%
D10*
%TO.P,FID3,*%
%TO.N,*%
X128000000Y-105000000D03*
%TD*%
D15*
%TO.P,C1,1*%
%TO.N,+3V3*%
X139050000Y-95062500D03*
%TO.P,C1,2*%
%TO.N,GND*%
X139050000Y-91937500D03*
%TD*%
D19*
%TO.P,IC1,1,SCL*%
%TO.N,/SCL*%
X132390000Y-77800000D03*
%TO.P,IC1,2,VDD*%
%TO.N,+3V3*%
X133660000Y-77800000D03*
%TO.P,IC1,3,GND*%
%TO.N,GND*%
X134930000Y-77800000D03*
%TO.P,IC1,4,SDA*%
%TO.N,/SDA*%
X136200000Y-77800000D03*
%TD*%
D12*
%TO.P,R3,1*%
%TO.N,Net-(D4-A)*%
X149132500Y-72420000D03*
%TO.P,R3,2*%
%TO.N,/LED3*%
X152232500Y-72420000D03*
%TD*%
D20*
%TO.N,+3V3*%
X132400000Y-85840000D03*
X142200000Y-95100000D03*
%TD*%
D21*
%TO.N,+3V3*%
X140210000Y-75260000D02*
X140210000Y-77830000D01*
X137710000Y-72760000D02*
X140210000Y-75260000D01*
X131970000Y-72760000D02*
X137710000Y-72760000D01*
X133660000Y-74450000D02*
X133660000Y-77800000D01*
X131970000Y-72760000D02*
X133660000Y-74450000D01*
X129250000Y-75480000D02*
X131970000Y-72760000D01*
X129250000Y-76375000D02*
X129250000Y-75480000D01*
X129250000Y-84350000D02*
X129250000Y-76375000D01*
X130740000Y-85840000D02*
X129250000Y-84350000D01*
X132400000Y-85840000D02*
X130740000Y-85840000D01*
X142237500Y-95062500D02*
X163612500Y-95062500D01*
X142200000Y-95100000D02*
X142237500Y-95062500D01*
X142162500Y-95062500D02*
X142200000Y-95100000D01*
D22*
%TO.N,GND*%
X169460750Y-99384000D02*
X169460750Y-102339250D01*
D23*
X134930000Y-75620000D02*
X135580000Y-74970000D01*
D24*
X135090000Y-98905000D02*
X136905000Y-98905000D01*
D23*
X134930000Y-77800000D02*
X134930000Y-76410000D01*
X134930000Y-76410000D02*
X134930000Y-75620000D01*
D24*
%TO.N,VBUS*%
X144747500Y-91980000D02*
X144730000Y-91962500D01*
X167400000Y-96800000D02*
X159900000Y-89300000D01*
X147660000Y-91980000D02*
X144747500Y-91980000D01*
X172000750Y-98000750D02*
X170800000Y-96800000D01*
X159900000Y-89300000D02*
X159900000Y-86310000D01*
X172000750Y-99384000D02*
X172000750Y-98000750D01*
X159900000Y-86310000D02*
X158470000Y-84880000D01*
X154620000Y-84880000D02*
X153150000Y-86350000D01*
X147660000Y-90010000D02*
X147660000Y-91980000D01*
X151790000Y-89290000D02*
X148380000Y-89290000D01*
X148380000Y-89290000D02*
X147660000Y-90010000D01*
X158470000Y-84880000D02*
X154620000Y-84880000D01*
X170800000Y-96800000D02*
X167400000Y-96800000D01*
X153150000Y-87930000D02*
X151790000Y-89290000D01*
X153150000Y-86350000D02*
X153150000Y-87930000D01*
D21*
%TO.N,/DIN*%
X147660000Y-83650000D02*
X149926000Y-81384000D01*
X149926000Y-81384000D02*
X156760750Y-81384000D01*
X147660000Y-86280000D02*
X147660000Y-83650000D01*
%TO.N,Net-(D2-A)*%
X146170000Y-66420000D02*
X149132500Y-66420000D01*
%TO.N,Net-(D3-A)*%
X146170000Y-69420000D02*
X149132500Y-69420000D01*
%TO.N,Net-(D4-A)*%
X146170000Y-72420000D02*
X149132500Y-72420000D01*
%TO.N,Net-(D5-A)*%
X146170000Y-75420000D02*
X149132500Y-75420000D01*
%TO.N,/LED1*%
X166790000Y-66430000D02*
X152242500Y-66430000D01*
X172000750Y-71640750D02*
X166790000Y-66430000D01*
X152242500Y-66430000D02*
X152232500Y-66420000D01*
X172000750Y-81384000D02*
X172000750Y-71640750D01*
%TO.N,/LED2*%
X152242500Y-69430000D02*
X152232500Y-69420000D01*
X166460000Y-69430000D02*
X152242500Y-69430000D01*
X169460750Y-72430750D02*
X166460000Y-69430000D01*
X169460750Y-81384000D02*
X169460750Y-72430750D01*
%TO.N,/LED3*%
X164970000Y-72430000D02*
X152242500Y-72430000D01*
X152242500Y-72430000D02*
X152232500Y-72420000D01*
X166920750Y-81384000D02*
X166920750Y-74380750D01*
X166920750Y-74380750D02*
X164970000Y-72430000D01*
%TO.N,/A0*%
X155650000Y-103300000D02*
X157900000Y-103300000D01*
X157900000Y-103300000D02*
X159300750Y-101899250D01*
X159300750Y-101899250D02*
X159300750Y-99384000D01*
%TO.N,+3V3*%
X166920750Y-98370750D02*
X166920750Y-99384000D01*
D24*
X165650000Y-103300000D02*
X166920750Y-102029250D01*
D21*
X139050000Y-95062500D02*
X141810000Y-95062500D01*
X139050000Y-100750000D02*
X147550000Y-100750000D01*
X163612500Y-95062500D02*
X166920750Y-98370750D01*
X161000000Y-103300000D02*
X158750000Y-105550000D01*
X147550000Y-100750000D02*
X148950000Y-102150000D01*
X148950000Y-102150000D02*
X148950000Y-103600000D01*
X150900000Y-105550000D02*
X148950000Y-103600000D01*
D24*
X161037500Y-103337500D02*
X161000000Y-103300000D01*
D21*
X141810000Y-95062500D02*
X142162500Y-95062500D01*
X135090000Y-95095000D02*
X139017500Y-95095000D01*
D24*
X161000000Y-103300000D02*
X165650000Y-103300000D01*
D21*
X158750000Y-105550000D02*
X150900000Y-105550000D01*
X139017500Y-95095000D02*
X139050000Y-95062500D01*
D24*
X166920750Y-102029250D02*
X166920750Y-99384000D01*
D21*
%TO.N,/LED4*%
X162720000Y-75430000D02*
X152242500Y-75430000D01*
X164380750Y-81384000D02*
X164380750Y-77090750D01*
X152242500Y-75430000D02*
X152232500Y-75420000D01*
X164380750Y-77090750D02*
X162720000Y-75430000D01*
%TO.N,/SHT_DATA*%
X135090000Y-97635000D02*
X139035000Y-97635000D01*
X139035000Y-97635000D02*
X139050000Y-97650000D01*
X148400000Y-97650000D02*
X150134000Y-99384000D01*
X150134000Y-99384000D02*
X156760750Y-99384000D01*
X139050000Y-97650000D02*
X148400000Y-97650000D01*
%TO.N,/SHT_CLK*%
X164380750Y-97780750D02*
X164380750Y-99384000D01*
X162965000Y-96365000D02*
X164380750Y-97780750D01*
X135090000Y-96365000D02*
X162965000Y-96365000D01*
%TO.N,/SCL*%
X132400000Y-82740000D02*
X144110000Y-82740000D01*
X132400000Y-82740000D02*
X132400000Y-77810000D01*
X132400000Y-77810000D02*
X132390000Y-77800000D01*
X159300750Y-81236761D02*
X159300750Y-81384000D01*
X144110000Y-82740000D02*
X147480000Y-79370000D01*
X147480000Y-79370000D02*
X157433989Y-79370000D01*
X157433989Y-79370000D02*
X159300750Y-81236761D01*
%TO.N,/SDA*%
X158733989Y-78130000D02*
X161840750Y-81236761D01*
X138040000Y-80930000D02*
X140210000Y-80930000D01*
X144350000Y-80930000D02*
X147150000Y-78130000D01*
X140210000Y-80930000D02*
X144350000Y-80930000D01*
X136200000Y-79090000D02*
X138040000Y-80930000D01*
X147150000Y-78130000D02*
X158733989Y-78130000D01*
X161840750Y-81236761D02*
X161840750Y-81384000D01*
X136200000Y-77800000D02*
X136200000Y-79090000D01*
%TD*%
%TA.AperFunction,Conductor*%
%TO.N,GND*%
G36*
X174638221Y-64273266D02*
G01*
X174704157Y-64325849D01*
X174740749Y-64401832D01*
X174745500Y-64444000D01*
X174745500Y-80810500D01*
X174726734Y-80892721D01*
X174674151Y-80958657D01*
X174598168Y-80995249D01*
X174556000Y-81000000D01*
X173562471Y-81000000D01*
X173480250Y-80981234D01*
X173414314Y-80928651D01*
X173377722Y-80852668D01*
X173376419Y-80846483D01*
X173334791Y-80631243D01*
X173334790Y-80631242D01*
X173334789Y-80631233D01*
X173251757Y-80411213D01*
X173155114Y-80246525D01*
X173132736Y-80208390D01*
X173021830Y-80076849D01*
X172981150Y-80028600D01*
X172801359Y-79877014D01*
X172801358Y-79877013D01*
X172729839Y-79835043D01*
X172668425Y-79777244D01*
X172638171Y-79698522D01*
X172636250Y-79671607D01*
X172636250Y-71731830D01*
X172638329Y-71712993D01*
X172637336Y-71712900D01*
X172638458Y-71701028D01*
X172636297Y-71632281D01*
X172636250Y-71629304D01*
X172636250Y-71600768D01*
X172636250Y-71600767D01*
X172635553Y-71595256D01*
X172634854Y-71586362D01*
X172633414Y-71540547D01*
X172633414Y-71540545D01*
X172629131Y-71525805D01*
X172623101Y-71496689D01*
X172621177Y-71481451D01*
X172621175Y-71481447D01*
X172621174Y-71481442D01*
X172604301Y-71438828D01*
X172601407Y-71430376D01*
X172597074Y-71415463D01*
X172588619Y-71386357D01*
X172580800Y-71373136D01*
X172567718Y-71346431D01*
X172562069Y-71332162D01*
X172562067Y-71332159D01*
X172535120Y-71295069D01*
X172530217Y-71287604D01*
X172506885Y-71248153D01*
X172506884Y-71248151D01*
X172496020Y-71237287D01*
X172476713Y-71214680D01*
X172474252Y-71211293D01*
X172467692Y-71202263D01*
X172432375Y-71173046D01*
X172425768Y-71167035D01*
X168258733Y-67000000D01*
X170994659Y-67000000D01*
X171013976Y-67196136D01*
X171071185Y-67384727D01*
X171164088Y-67558535D01*
X171164090Y-67558538D01*
X171289117Y-67710883D01*
X171441462Y-67835910D01*
X171441464Y-67835911D01*
X171615272Y-67928814D01*
X171803863Y-67986023D01*
X171803865Y-67986023D01*
X171803868Y-67986024D01*
X172000000Y-68005341D01*
X172196132Y-67986024D01*
X172196134Y-67986023D01*
X172196136Y-67986023D01*
X172384727Y-67928814D01*
X172558538Y-67835910D01*
X172710883Y-67710883D01*
X172835910Y-67558538D01*
X172928814Y-67384727D01*
X172955247Y-67297589D01*
X172986023Y-67196136D01*
X172986023Y-67196134D01*
X172986024Y-67196132D01*
X173005341Y-67000000D01*
X172986024Y-66803868D01*
X172986023Y-66803865D01*
X172986023Y-66803863D01*
X172928814Y-66615272D01*
X172835911Y-66441464D01*
X172835910Y-66441462D01*
X172710883Y-66289117D01*
X172558538Y-66164090D01*
X172558536Y-66164089D01*
X172558535Y-66164088D01*
X172384727Y-66071185D01*
X172196136Y-66013976D01*
X172000000Y-65994659D01*
X171803863Y-66013976D01*
X171615272Y-66071185D01*
X171441464Y-66164088D01*
X171289120Y-66289114D01*
X171289114Y-66289120D01*
X171164088Y-66441464D01*
X171071185Y-66615272D01*
X171013976Y-66803863D01*
X170994659Y-67000000D01*
X168258733Y-67000000D01*
X167303768Y-66045035D01*
X167291921Y-66030244D01*
X167291151Y-66030882D01*
X167283554Y-66021699D01*
X167283553Y-66021697D01*
X167254760Y-65994659D01*
X167233403Y-65974603D01*
X167231265Y-65972531D01*
X167211092Y-65952359D01*
X167206713Y-65948962D01*
X167199922Y-65943162D01*
X167166503Y-65911780D01*
X167153051Y-65904385D01*
X167128201Y-65888062D01*
X167116066Y-65878649D01*
X167073993Y-65860443D01*
X167065973Y-65856514D01*
X167025803Y-65834431D01*
X167025802Y-65834430D01*
X167010927Y-65830611D01*
X166982803Y-65820982D01*
X166968712Y-65814884D01*
X166968701Y-65814881D01*
X166923431Y-65807711D01*
X166914687Y-65805901D01*
X166870282Y-65794500D01*
X166854931Y-65794500D01*
X166825287Y-65792167D01*
X166810119Y-65789764D01*
X166764482Y-65794079D01*
X166755560Y-65794500D01*
X153432246Y-65794500D01*
X153350025Y-65775734D01*
X153284089Y-65723151D01*
X153250271Y-65657871D01*
X153216668Y-65542208D01*
X153135449Y-65404873D01*
X153022627Y-65292051D01*
X152885292Y-65210832D01*
X152732074Y-65166318D01*
X152696270Y-65163500D01*
X151768730Y-65163500D01*
X151762365Y-65164001D01*
X151732926Y-65166318D01*
X151579705Y-65210833D01*
X151442375Y-65292049D01*
X151329549Y-65404875D01*
X151248333Y-65542205D01*
X151248332Y-65542207D01*
X151248332Y-65542208D01*
X151203818Y-65695426D01*
X151201000Y-65731230D01*
X151201000Y-67108770D01*
X151201759Y-67118410D01*
X151203818Y-67144573D01*
X151248333Y-67297794D01*
X151329548Y-67435123D01*
X151329551Y-67435127D01*
X151442373Y-67547949D01*
X151579708Y-67629168D01*
X151732926Y-67673682D01*
X151768730Y-67676500D01*
X151768731Y-67676500D01*
X152696269Y-67676500D01*
X152696270Y-67676500D01*
X152732074Y-67673682D01*
X152885292Y-67629168D01*
X153022627Y-67547949D01*
X153135449Y-67435127D01*
X153216668Y-67297792D01*
X153234204Y-67237430D01*
X153244461Y-67202130D01*
X153285421Y-67128410D01*
X153354312Y-67079762D01*
X153426436Y-67065500D01*
X166448274Y-67065500D01*
X166530495Y-67084266D01*
X166582271Y-67121003D01*
X171309747Y-71848478D01*
X171354616Y-71919887D01*
X171365250Y-71982475D01*
X171365250Y-79671607D01*
X171346484Y-79753828D01*
X171293901Y-79819764D01*
X171271661Y-79835043D01*
X171200140Y-79877014D01*
X171020353Y-80028597D01*
X171020352Y-80028598D01*
X171020350Y-80028600D01*
X170915607Y-80152832D01*
X170875628Y-80200250D01*
X170808281Y-80251013D01*
X170725579Y-80267528D01*
X170643900Y-80246525D01*
X170585872Y-80200250D01*
X170441150Y-80028600D01*
X170261359Y-79877014D01*
X170261357Y-79877013D01*
X170189839Y-79835043D01*
X170128425Y-79777244D01*
X170098171Y-79698522D01*
X170096250Y-79671607D01*
X170096250Y-72521830D01*
X170098329Y-72502993D01*
X170097336Y-72502900D01*
X170098458Y-72491028D01*
X170096297Y-72422281D01*
X170096250Y-72419304D01*
X170096250Y-72390768D01*
X170096250Y-72390767D01*
X170095553Y-72385256D01*
X170094854Y-72376362D01*
X170093414Y-72330547D01*
X170093414Y-72330545D01*
X170089131Y-72315805D01*
X170083101Y-72286689D01*
X170081177Y-72271451D01*
X170081175Y-72271447D01*
X170081174Y-72271442D01*
X170064301Y-72228828D01*
X170061407Y-72220376D01*
X170052195Y-72188666D01*
X170048619Y-72176357D01*
X170040800Y-72163136D01*
X170027718Y-72136431D01*
X170022069Y-72122162D01*
X170022067Y-72122159D01*
X169995120Y-72085069D01*
X169990217Y-72077604D01*
X169966885Y-72038153D01*
X169966884Y-72038151D01*
X169956020Y-72027287D01*
X169936713Y-72004680D01*
X169927691Y-71992262D01*
X169927690Y-71992261D01*
X169892375Y-71963046D01*
X169885768Y-71957035D01*
X166973768Y-69045035D01*
X166961921Y-69030244D01*
X166961151Y-69030882D01*
X166953554Y-69021699D01*
X166953553Y-69021697D01*
X166903403Y-68974603D01*
X166901265Y-68972531D01*
X166881092Y-68952359D01*
X166876713Y-68948962D01*
X166869922Y-68943162D01*
X166836503Y-68911780D01*
X166823051Y-68904385D01*
X166798201Y-68888062D01*
X166786066Y-68878649D01*
X166743993Y-68860443D01*
X166735973Y-68856514D01*
X166695803Y-68834431D01*
X166695802Y-68834430D01*
X166680927Y-68830611D01*
X166652803Y-68820982D01*
X166638712Y-68814884D01*
X166638701Y-68814881D01*
X166593431Y-68807711D01*
X166584687Y-68805901D01*
X166540282Y-68794500D01*
X166524931Y-68794500D01*
X166495287Y-68792167D01*
X166480119Y-68789764D01*
X166434482Y-68794079D01*
X166425560Y-68794500D01*
X153432246Y-68794500D01*
X153350025Y-68775734D01*
X153284089Y-68723151D01*
X153250271Y-68657871D01*
X153216668Y-68542208D01*
X153135449Y-68404873D01*
X153022627Y-68292051D01*
X152885292Y-68210832D01*
X152732074Y-68166318D01*
X152696270Y-68163500D01*
X151768730Y-68163500D01*
X151762365Y-68164001D01*
X151732926Y-68166318D01*
X151579705Y-68210833D01*
X151442375Y-68292049D01*
X151329549Y-68404875D01*
X151248333Y-68542205D01*
X151248332Y-68542207D01*
X151248332Y-68542208D01*
X151203818Y-68695426D01*
X151201000Y-68731230D01*
X151201000Y-70108770D01*
X151203818Y-70144574D01*
X151204522Y-70146998D01*
X151248333Y-70297794D01*
X151329548Y-70435123D01*
X151329551Y-70435127D01*
X151442373Y-70547949D01*
X151579708Y-70629168D01*
X151732926Y-70673682D01*
X151768730Y-70676500D01*
X151768731Y-70676500D01*
X152696269Y-70676500D01*
X152696270Y-70676500D01*
X152732074Y-70673682D01*
X152885292Y-70629168D01*
X153022627Y-70547949D01*
X153135449Y-70435127D01*
X153216668Y-70297792D01*
X153234204Y-70237430D01*
X153244461Y-70202130D01*
X153285421Y-70128410D01*
X153354312Y-70079762D01*
X153426436Y-70065500D01*
X166118274Y-70065500D01*
X166200495Y-70084266D01*
X166252271Y-70121003D01*
X168769747Y-72638479D01*
X168814616Y-72709888D01*
X168825250Y-72772476D01*
X168825250Y-79671607D01*
X168806484Y-79753828D01*
X168753901Y-79819764D01*
X168731661Y-79835043D01*
X168660140Y-79877014D01*
X168480353Y-80028597D01*
X168480352Y-80028598D01*
X168480350Y-80028600D01*
X168375607Y-80152832D01*
X168335628Y-80200250D01*
X168268281Y-80251013D01*
X168185579Y-80267528D01*
X168103900Y-80246525D01*
X168045872Y-80200250D01*
X167901150Y-80028600D01*
X167721359Y-79877014D01*
X167721357Y-79877013D01*
X167649839Y-79835043D01*
X167588425Y-79777244D01*
X167558171Y-79698522D01*
X167556250Y-79671607D01*
X167556250Y-74471830D01*
X167558329Y-74452993D01*
X167557336Y-74452900D01*
X167558456Y-74441037D01*
X167558458Y-74441031D01*
X167557031Y-74395623D01*
X167556297Y-74372235D01*
X167556250Y-74369260D01*
X167556250Y-74340769D01*
X167555557Y-74335285D01*
X167554855Y-74326372D01*
X167554212Y-74305923D01*
X167553415Y-74280545D01*
X167549129Y-74265796D01*
X167543101Y-74236683D01*
X167541177Y-74221451D01*
X167524298Y-74178820D01*
X167521410Y-74170385D01*
X167508619Y-74126357D01*
X167500801Y-74113137D01*
X167487719Y-74086433D01*
X167482069Y-74072162D01*
X167463459Y-74046547D01*
X167455119Y-74035068D01*
X167450220Y-74027610D01*
X167426884Y-73988152D01*
X167416029Y-73977297D01*
X167396718Y-73954686D01*
X167387692Y-73942263D01*
X167387690Y-73942261D01*
X167352369Y-73913041D01*
X167345762Y-73907030D01*
X166494232Y-73055500D01*
X165483764Y-72045031D01*
X165471924Y-72030241D01*
X165471151Y-72030882D01*
X165463554Y-72021699D01*
X165463553Y-72021697D01*
X165413403Y-71974603D01*
X165411265Y-71972531D01*
X165391092Y-71952359D01*
X165386713Y-71948962D01*
X165379922Y-71943162D01*
X165346503Y-71911780D01*
X165333051Y-71904385D01*
X165308201Y-71888062D01*
X165296066Y-71878649D01*
X165253993Y-71860443D01*
X165245973Y-71856514D01*
X165205803Y-71834431D01*
X165205802Y-71834430D01*
X165190927Y-71830611D01*
X165162803Y-71820982D01*
X165148712Y-71814884D01*
X165148701Y-71814881D01*
X165103431Y-71807711D01*
X165094687Y-71805901D01*
X165050282Y-71794500D01*
X165034931Y-71794500D01*
X165005287Y-71792167D01*
X164990119Y-71789764D01*
X164944482Y-71794079D01*
X164935560Y-71794500D01*
X153432246Y-71794500D01*
X153350025Y-71775734D01*
X153284089Y-71723151D01*
X153250271Y-71657871D01*
X153216668Y-71542208D01*
X153135449Y-71404873D01*
X153022627Y-71292051D01*
X153015107Y-71287604D01*
X152885294Y-71210833D01*
X152885293Y-71210832D01*
X152885292Y-71210832D01*
X152732074Y-71166318D01*
X152696270Y-71163500D01*
X151768730Y-71163500D01*
X151762365Y-71164001D01*
X151732926Y-71166318D01*
X151579705Y-71210833D01*
X151442375Y-71292049D01*
X151329549Y-71404875D01*
X151248333Y-71542205D01*
X151248332Y-71542207D01*
X151248332Y-71542208D01*
X151203818Y-71695426D01*
X151201000Y-71731230D01*
X151201000Y-73108770D01*
X151201759Y-73118410D01*
X151203818Y-73144573D01*
X151248333Y-73297794D01*
X151329548Y-73435123D01*
X151329551Y-73435127D01*
X151442373Y-73547949D01*
X151579708Y-73629168D01*
X151732926Y-73673682D01*
X151768730Y-73676500D01*
X151768731Y-73676500D01*
X152696269Y-73676500D01*
X152696270Y-73676500D01*
X152732074Y-73673682D01*
X152885292Y-73629168D01*
X153022627Y-73547949D01*
X153135449Y-73435127D01*
X153216668Y-73297792D01*
X153234204Y-73237430D01*
X153244461Y-73202130D01*
X153285421Y-73128410D01*
X153354312Y-73079762D01*
X153426436Y-73065500D01*
X164628274Y-73065500D01*
X164710495Y-73084266D01*
X164762271Y-73121003D01*
X166229747Y-74588479D01*
X166274616Y-74659888D01*
X166285250Y-74722476D01*
X166285250Y-79671607D01*
X166266484Y-79753828D01*
X166213901Y-79819764D01*
X166191661Y-79835043D01*
X166120140Y-79877014D01*
X165940353Y-80028597D01*
X165940352Y-80028598D01*
X165940350Y-80028600D01*
X165835607Y-80152832D01*
X165795628Y-80200250D01*
X165728281Y-80251013D01*
X165645579Y-80267528D01*
X165563900Y-80246525D01*
X165505872Y-80200250D01*
X165361150Y-80028600D01*
X165262982Y-79945832D01*
X165181361Y-79877015D01*
X165109839Y-79835044D01*
X165048425Y-79777245D01*
X165018170Y-79698523D01*
X165016249Y-79671607D01*
X165016249Y-78482792D01*
X165016249Y-77181821D01*
X165018336Y-77162994D01*
X165017336Y-77162900D01*
X165018456Y-77151037D01*
X165018458Y-77151031D01*
X165017209Y-77111284D01*
X165016297Y-77082235D01*
X165016250Y-77079260D01*
X165016250Y-77050769D01*
X165015557Y-77045285D01*
X165014855Y-77036372D01*
X165014626Y-77029090D01*
X165013415Y-76990545D01*
X165009129Y-76975796D01*
X165003101Y-76946683D01*
X165001177Y-76931451D01*
X164984298Y-76888820D01*
X164981410Y-76880385D01*
X164968619Y-76836357D01*
X164960801Y-76823137D01*
X164947719Y-76796433D01*
X164942069Y-76782162D01*
X164942067Y-76782159D01*
X164915120Y-76745069D01*
X164910217Y-76737604D01*
X164886885Y-76698153D01*
X164886884Y-76698151D01*
X164876020Y-76687287D01*
X164856713Y-76664680D01*
X164847691Y-76652262D01*
X164847690Y-76652261D01*
X164812375Y-76623046D01*
X164805768Y-76617035D01*
X163233768Y-75045035D01*
X163221921Y-75030244D01*
X163221151Y-75030882D01*
X163213554Y-75021699D01*
X163213553Y-75021697D01*
X163176015Y-74986447D01*
X163163403Y-74974603D01*
X163161265Y-74972531D01*
X163141092Y-74952359D01*
X163136713Y-74948962D01*
X163129922Y-74943162D01*
X163096503Y-74911780D01*
X163083051Y-74904385D01*
X163058201Y-74888062D01*
X163046066Y-74878649D01*
X163003993Y-74860443D01*
X162995973Y-74856514D01*
X162955803Y-74834431D01*
X162955802Y-74834430D01*
X162940927Y-74830611D01*
X162912803Y-74820982D01*
X162898712Y-74814884D01*
X162898701Y-74814881D01*
X162853431Y-74807711D01*
X162844687Y-74805901D01*
X162800282Y-74794500D01*
X162784931Y-74794500D01*
X162755287Y-74792167D01*
X162740119Y-74789764D01*
X162694482Y-74794079D01*
X162685560Y-74794500D01*
X153432246Y-74794500D01*
X153350025Y-74775734D01*
X153284089Y-74723151D01*
X153250271Y-74657871D01*
X153216668Y-74542208D01*
X153135449Y-74404873D01*
X153022627Y-74292051D01*
X153020344Y-74290701D01*
X152885294Y-74210833D01*
X152885293Y-74210832D01*
X152885292Y-74210832D01*
X152732074Y-74166318D01*
X152696270Y-74163500D01*
X151768730Y-74163500D01*
X151762365Y-74164001D01*
X151732926Y-74166318D01*
X151579705Y-74210833D01*
X151442375Y-74292049D01*
X151329549Y-74404875D01*
X151248333Y-74542205D01*
X151248332Y-74542207D01*
X151248332Y-74542208D01*
X151203818Y-74695426D01*
X151201000Y-74731230D01*
X151201000Y-76108770D01*
X151201759Y-76118410D01*
X151203818Y-76144573D01*
X151248333Y-76297794D01*
X151329548Y-76435123D01*
X151329551Y-76435127D01*
X151442373Y-76547949D01*
X151579708Y-76629168D01*
X151732926Y-76673682D01*
X151768730Y-76676500D01*
X151768731Y-76676500D01*
X152696269Y-76676500D01*
X152696270Y-76676500D01*
X152732074Y-76673682D01*
X152885292Y-76629168D01*
X153022627Y-76547949D01*
X153135449Y-76435127D01*
X153216668Y-76297792D01*
X153234204Y-76237430D01*
X153244461Y-76202130D01*
X153285421Y-76128410D01*
X153354312Y-76079762D01*
X153426436Y-76065500D01*
X162378274Y-76065500D01*
X162460495Y-76084266D01*
X162512271Y-76121003D01*
X163689747Y-77298479D01*
X163734616Y-77369888D01*
X163745250Y-77432476D01*
X163745250Y-79671607D01*
X163726484Y-79753828D01*
X163673901Y-79819764D01*
X163651661Y-79835043D01*
X163580140Y-79877014D01*
X163400353Y-80028597D01*
X163400352Y-80028598D01*
X163400350Y-80028600D01*
X163295607Y-80152832D01*
X163255628Y-80200250D01*
X163188281Y-80251013D01*
X163105579Y-80267528D01*
X163023900Y-80246525D01*
X162965872Y-80200250D01*
X162821150Y-80028600D01*
X162722982Y-79945832D01*
X162641359Y-79877013D01*
X162471342Y-79777244D01*
X162438537Y-79757993D01*
X162438535Y-79757992D01*
X162438533Y-79757991D01*
X162218521Y-79674962D01*
X162218506Y-79674958D01*
X161987640Y-79630308D01*
X161987624Y-79630306D01*
X161934794Y-79627500D01*
X161746724Y-79627500D01*
X161746680Y-79627502D01*
X161693875Y-79630305D01*
X161462993Y-79674958D01*
X161462978Y-79674962D01*
X161370276Y-79709947D01*
X161286725Y-79721420D01*
X161206470Y-79695504D01*
X161169371Y-79666649D01*
X159247757Y-77745035D01*
X159235910Y-77730244D01*
X159235140Y-77730882D01*
X159227543Y-77721699D01*
X159227542Y-77721697D01*
X159177392Y-77674603D01*
X159175254Y-77672531D01*
X159155081Y-77652359D01*
X159150702Y-77648962D01*
X159143911Y-77643162D01*
X159110492Y-77611780D01*
X159097040Y-77604385D01*
X159072190Y-77588062D01*
X159060055Y-77578649D01*
X159017982Y-77560443D01*
X159009962Y-77556514D01*
X158969792Y-77534431D01*
X158969791Y-77534430D01*
X158954916Y-77530611D01*
X158926792Y-77520982D01*
X158912701Y-77514884D01*
X158912690Y-77514881D01*
X158867420Y-77507711D01*
X158858676Y-77505901D01*
X158814271Y-77494500D01*
X158798920Y-77494500D01*
X158769276Y-77492167D01*
X158754108Y-77489764D01*
X158708471Y-77494079D01*
X158699549Y-77494500D01*
X147241086Y-77494500D01*
X147222245Y-77492420D01*
X147222152Y-77493413D01*
X147210279Y-77492290D01*
X147154115Y-77494056D01*
X147141484Y-77494453D01*
X147138523Y-77494500D01*
X147110007Y-77494500D01*
X147104508Y-77495195D01*
X147095614Y-77495894D01*
X147049797Y-77497334D01*
X147035035Y-77501622D01*
X147005941Y-77507646D01*
X146990711Y-77509570D01*
X146990693Y-77509575D01*
X146948072Y-77526449D01*
X146939627Y-77529340D01*
X146895613Y-77542128D01*
X146895603Y-77542132D01*
X146882380Y-77549952D01*
X146855695Y-77563024D01*
X146841417Y-77568677D01*
X146841414Y-77568679D01*
X146804316Y-77595630D01*
X146796859Y-77600528D01*
X146757403Y-77623864D01*
X146757396Y-77623870D01*
X146746543Y-77634723D01*
X146723940Y-77654029D01*
X146711511Y-77663059D01*
X146682287Y-77698383D01*
X146676278Y-77704986D01*
X144142270Y-80238997D01*
X144070861Y-80283866D01*
X144008273Y-80294500D01*
X141537484Y-80294500D01*
X141455263Y-80275734D01*
X141389327Y-80223151D01*
X141374373Y-80201463D01*
X141337950Y-80139875D01*
X141337949Y-80139873D01*
X141225127Y-80027051D01*
X141206667Y-80016134D01*
X141087794Y-79945833D01*
X141087793Y-79945832D01*
X141087792Y-79945832D01*
X140934574Y-79901318D01*
X140898770Y-79898500D01*
X139521230Y-79898500D01*
X139485425Y-79901318D01*
X139485426Y-79901318D01*
X139332205Y-79945833D01*
X139194875Y-80027049D01*
X139082049Y-80139875D01*
X139045627Y-80201463D01*
X138987620Y-80262681D01*
X138908796Y-80292669D01*
X138882516Y-80294500D01*
X138381726Y-80294500D01*
X138299505Y-80275734D01*
X138247729Y-80238997D01*
X136950172Y-78941439D01*
X136905303Y-78870030D01*
X136895861Y-78786225D01*
X136913925Y-78724213D01*
X136920694Y-78710365D01*
X136920695Y-78710364D01*
X136920695Y-78710362D01*
X136920696Y-78710361D01*
X136931500Y-78636206D01*
X136931500Y-76963794D01*
X136920696Y-76889639D01*
X136920695Y-76889637D01*
X136920695Y-76889635D01*
X136920694Y-76889634D01*
X136868153Y-76782162D01*
X136864776Y-76775254D01*
X136774746Y-76685224D01*
X136774742Y-76685222D01*
X136660365Y-76629305D01*
X136660364Y-76629304D01*
X136586212Y-76618500D01*
X136586206Y-76618500D01*
X135813794Y-76618500D01*
X135813787Y-76618500D01*
X135739636Y-76629304D01*
X135647658Y-76674270D01*
X135565549Y-76693522D01*
X135483219Y-76675241D01*
X135481202Y-76674270D01*
X135390218Y-76629791D01*
X135390215Y-76629790D01*
X135316164Y-76619000D01*
X134543832Y-76619000D01*
X134512321Y-76623592D01*
X134428253Y-76616876D01*
X134355425Y-76574349D01*
X134308261Y-76504435D01*
X134295500Y-76436072D01*
X134295500Y-74541085D01*
X134297580Y-74522245D01*
X134296587Y-74522152D01*
X134297709Y-74510279D01*
X134297257Y-74495911D01*
X134295546Y-74441483D01*
X134295500Y-74438522D01*
X134295500Y-74410020D01*
X134294889Y-74405188D01*
X134294806Y-74404531D01*
X134294105Y-74395623D01*
X134293370Y-74372235D01*
X134292665Y-74349795D01*
X134288379Y-74335046D01*
X134282351Y-74305933D01*
X134280427Y-74290701D01*
X134263548Y-74248070D01*
X134260660Y-74239635D01*
X134247869Y-74195607D01*
X134240051Y-74182387D01*
X134226969Y-74155683D01*
X134221319Y-74141412D01*
X134194369Y-74104318D01*
X134189470Y-74096860D01*
X134166134Y-74057402D01*
X134155279Y-74046547D01*
X134135968Y-74023936D01*
X134126942Y-74011513D01*
X134126940Y-74011511D01*
X134091619Y-73982291D01*
X134085012Y-73976280D01*
X133827729Y-73718997D01*
X133782860Y-73647588D01*
X133773418Y-73563783D01*
X133801272Y-73484180D01*
X133860906Y-73424546D01*
X133940509Y-73396692D01*
X133961726Y-73395500D01*
X137368274Y-73395500D01*
X137450495Y-73414266D01*
X137502271Y-73451003D01*
X139518997Y-75467729D01*
X139563866Y-75539138D01*
X139574500Y-75601726D01*
X139574500Y-76633159D01*
X139555734Y-76715380D01*
X139503151Y-76781316D01*
X139437869Y-76815134D01*
X139332208Y-76845831D01*
X139194875Y-76927049D01*
X139082049Y-77039875D01*
X139000833Y-77177205D01*
X139000832Y-77177207D01*
X139000832Y-77177208D01*
X138956318Y-77330426D01*
X138953500Y-77366230D01*
X138953500Y-78293770D01*
X138956318Y-78329574D01*
X139000832Y-78482792D01*
X139082051Y-78620127D01*
X139194873Y-78732949D01*
X139332208Y-78814168D01*
X139485426Y-78858682D01*
X139521230Y-78861500D01*
X139521231Y-78861500D01*
X140898769Y-78861500D01*
X140898770Y-78861500D01*
X140934574Y-78858682D01*
X141087792Y-78814168D01*
X141225127Y-78732949D01*
X141337949Y-78620127D01*
X141419168Y-78482792D01*
X141463682Y-78329574D01*
X141466500Y-78293770D01*
X141466500Y-77366230D01*
X141463682Y-77330426D01*
X141419168Y-77177208D01*
X141337949Y-77039873D01*
X141225127Y-76927051D01*
X141225124Y-76927049D01*
X141087791Y-76845831D01*
X140982131Y-76815134D01*
X140908410Y-76774174D01*
X140859762Y-76705284D01*
X140845500Y-76633159D01*
X140845500Y-76108722D01*
X142101500Y-76108722D01*
X142104315Y-76144497D01*
X142104316Y-76144500D01*
X142148792Y-76297588D01*
X142148793Y-76297589D01*
X142229945Y-76434811D01*
X142229947Y-76434814D01*
X142342685Y-76547552D01*
X142342688Y-76547554D01*
X142479910Y-76628706D01*
X142479911Y-76628707D01*
X142632999Y-76673183D01*
X142633002Y-76673184D01*
X142668777Y-76676000D01*
X142940999Y-76676000D01*
X142941000Y-76675999D01*
X143449000Y-76675999D01*
X143449001Y-76676000D01*
X143721223Y-76676000D01*
X143756997Y-76673184D01*
X143757000Y-76673183D01*
X143910088Y-76628707D01*
X143910089Y-76628706D01*
X144047311Y-76547554D01*
X144047314Y-76547552D01*
X144160052Y-76434814D01*
X144160054Y-76434811D01*
X144241206Y-76297589D01*
X144241207Y-76297588D01*
X144285683Y-76144500D01*
X144285684Y-76144497D01*
X144288496Y-76108768D01*
X145076000Y-76108768D01*
X145076001Y-76108776D01*
X145078816Y-76144564D01*
X145078817Y-76144570D01*
X145078818Y-76144573D01*
X145123332Y-76297792D01*
X145145346Y-76335016D01*
X145204549Y-76435123D01*
X145204550Y-76435124D01*
X145204552Y-76435127D01*
X145317373Y-76547948D01*
X145454708Y-76629168D01*
X145607927Y-76673682D01*
X145643731Y-76676500D01*
X146696268Y-76676499D01*
X146716295Y-76674923D01*
X146732064Y-76673683D01*
X146732067Y-76673682D01*
X146732073Y-76673682D01*
X146885292Y-76629168D01*
X147022627Y-76547948D01*
X147135448Y-76435127D01*
X147216668Y-76297792D01*
X147224820Y-76269731D01*
X147247366Y-76192131D01*
X147288326Y-76118410D01*
X147357216Y-76069762D01*
X147429341Y-76055500D01*
X147935659Y-76055500D01*
X148017880Y-76074266D01*
X148083816Y-76126849D01*
X148117634Y-76192131D01*
X148148331Y-76297791D01*
X148229549Y-76435124D01*
X148229551Y-76435127D01*
X148342373Y-76547949D01*
X148479708Y-76629168D01*
X148632926Y-76673682D01*
X148668730Y-76676500D01*
X148668731Y-76676500D01*
X149596269Y-76676500D01*
X149596270Y-76676500D01*
X149632074Y-76673682D01*
X149785292Y-76629168D01*
X149922627Y-76547949D01*
X150035449Y-76435127D01*
X150116668Y-76297792D01*
X150161182Y-76144574D01*
X150164000Y-76108770D01*
X150164000Y-74731230D01*
X150161182Y-74695426D01*
X150116668Y-74542208D01*
X150035449Y-74404873D01*
X149922627Y-74292051D01*
X149920344Y-74290701D01*
X149785294Y-74210833D01*
X149785293Y-74210832D01*
X149785292Y-74210832D01*
X149632074Y-74166318D01*
X149596270Y-74163500D01*
X148668730Y-74163500D01*
X148662365Y-74164001D01*
X148632926Y-74166318D01*
X148479705Y-74210833D01*
X148342375Y-74292049D01*
X148229549Y-74404875D01*
X148148331Y-74542208D01*
X148117634Y-74647869D01*
X148076674Y-74721590D01*
X148007784Y-74770238D01*
X147935659Y-74784500D01*
X147429340Y-74784500D01*
X147347119Y-74765734D01*
X147281183Y-74713151D01*
X147247365Y-74647869D01*
X147216668Y-74542208D01*
X147138490Y-74410017D01*
X147135450Y-74404876D01*
X147135449Y-74404875D01*
X147135448Y-74404873D01*
X147022627Y-74292052D01*
X147022624Y-74292050D01*
X147022623Y-74292049D01*
X146885294Y-74210833D01*
X146885293Y-74210832D01*
X146885292Y-74210832D01*
X146732073Y-74166318D01*
X146696269Y-74163500D01*
X146696267Y-74163500D01*
X145643731Y-74163500D01*
X145643723Y-74163501D01*
X145607935Y-74166316D01*
X145607929Y-74166317D01*
X145531317Y-74188575D01*
X145454708Y-74210832D01*
X145454706Y-74210832D01*
X145454706Y-74210833D01*
X145317376Y-74292049D01*
X145204549Y-74404876D01*
X145123333Y-74542205D01*
X145078818Y-74695426D01*
X145076000Y-74731232D01*
X145076000Y-76108768D01*
X144288496Y-76108768D01*
X144288500Y-76108722D01*
X144288500Y-75674001D01*
X144288499Y-75674000D01*
X143449001Y-75674000D01*
X143449000Y-75674001D01*
X143449000Y-76675999D01*
X142941000Y-76675999D01*
X142941000Y-75674001D01*
X142940999Y-75674000D01*
X142101501Y-75674000D01*
X142101500Y-75674001D01*
X142101500Y-76108722D01*
X140845500Y-76108722D01*
X140845500Y-75351085D01*
X140847580Y-75332245D01*
X140846587Y-75332152D01*
X140847709Y-75320279D01*
X140845547Y-75251499D01*
X140845500Y-75248522D01*
X140845500Y-75220020D01*
X140844807Y-75214536D01*
X140844105Y-75205623D01*
X140843796Y-75195823D01*
X140842860Y-75165999D01*
X142101500Y-75165999D01*
X142101501Y-75166000D01*
X142940999Y-75166000D01*
X142941000Y-75165999D01*
X143449000Y-75165999D01*
X143449001Y-75166000D01*
X144288499Y-75166000D01*
X144288500Y-75165999D01*
X144288500Y-74731277D01*
X144285684Y-74695502D01*
X144285683Y-74695499D01*
X144241207Y-74542411D01*
X144241206Y-74542410D01*
X144160054Y-74405188D01*
X144160052Y-74405185D01*
X144047314Y-74292447D01*
X144047311Y-74292445D01*
X143910089Y-74211293D01*
X143910088Y-74211292D01*
X143757000Y-74166816D01*
X143756997Y-74166815D01*
X143721223Y-74164000D01*
X143449001Y-74164000D01*
X143449000Y-74164001D01*
X143449000Y-75165999D01*
X142941000Y-75165999D01*
X142941000Y-74164001D01*
X142940999Y-74164000D01*
X142668777Y-74164000D01*
X142633002Y-74166815D01*
X142632999Y-74166816D01*
X142479911Y-74211292D01*
X142479910Y-74211293D01*
X142342688Y-74292445D01*
X142342685Y-74292447D01*
X142229947Y-74405185D01*
X142229945Y-74405188D01*
X142148793Y-74542410D01*
X142148792Y-74542411D01*
X142104316Y-74695499D01*
X142104315Y-74695502D01*
X142101500Y-74731277D01*
X142101500Y-75165999D01*
X140842860Y-75165999D01*
X140842665Y-75159795D01*
X140838379Y-75145046D01*
X140832351Y-75115933D01*
X140830427Y-75100701D01*
X140813548Y-75058070D01*
X140810660Y-75049635D01*
X140797869Y-75005607D01*
X140790051Y-74992387D01*
X140776969Y-74965683D01*
X140771319Y-74951412D01*
X140744369Y-74914318D01*
X140739470Y-74906860D01*
X140716134Y-74867402D01*
X140705279Y-74856547D01*
X140685968Y-74833936D01*
X140683242Y-74830184D01*
X140676942Y-74821513D01*
X140668928Y-74814883D01*
X140641614Y-74792286D01*
X140635009Y-74786276D01*
X138957455Y-73108722D01*
X142101500Y-73108722D01*
X142104315Y-73144497D01*
X142104316Y-73144500D01*
X142148792Y-73297588D01*
X142148793Y-73297589D01*
X142229945Y-73434811D01*
X142229947Y-73434814D01*
X142342685Y-73547552D01*
X142342688Y-73547554D01*
X142479910Y-73628706D01*
X142479911Y-73628707D01*
X142632999Y-73673183D01*
X142633002Y-73673184D01*
X142668777Y-73676000D01*
X142940999Y-73676000D01*
X142941000Y-73675999D01*
X142941000Y-73675998D01*
X143449000Y-73675998D01*
X143449001Y-73676000D01*
X143721223Y-73676000D01*
X143756997Y-73673184D01*
X143757000Y-73673183D01*
X143910088Y-73628707D01*
X143910089Y-73628706D01*
X144047311Y-73547554D01*
X144047314Y-73547552D01*
X144160052Y-73434814D01*
X144160054Y-73434811D01*
X144241206Y-73297589D01*
X144241207Y-73297588D01*
X144285683Y-73144500D01*
X144285684Y-73144497D01*
X144288496Y-73108768D01*
X145076000Y-73108768D01*
X145076001Y-73108776D01*
X145078816Y-73144564D01*
X145078817Y-73144570D01*
X145078818Y-73144573D01*
X145123332Y-73297792D01*
X145155149Y-73351592D01*
X145204549Y-73435123D01*
X145204550Y-73435124D01*
X145204552Y-73435127D01*
X145317373Y-73547948D01*
X145454708Y-73629168D01*
X145607927Y-73673682D01*
X145643731Y-73676500D01*
X146696268Y-73676499D01*
X146716295Y-73674923D01*
X146732064Y-73673683D01*
X146732067Y-73673682D01*
X146732073Y-73673682D01*
X146885292Y-73629168D01*
X147022627Y-73547948D01*
X147135448Y-73435127D01*
X147216668Y-73297792D01*
X147224820Y-73269731D01*
X147247366Y-73192131D01*
X147288326Y-73118410D01*
X147357216Y-73069762D01*
X147429341Y-73055500D01*
X147935659Y-73055500D01*
X148017880Y-73074266D01*
X148083816Y-73126849D01*
X148117634Y-73192131D01*
X148148331Y-73297791D01*
X148229549Y-73435124D01*
X148229551Y-73435127D01*
X148342373Y-73547949D01*
X148479708Y-73629168D01*
X148632926Y-73673682D01*
X148668730Y-73676500D01*
X148668731Y-73676500D01*
X149596269Y-73676500D01*
X149596270Y-73676500D01*
X149632074Y-73673682D01*
X149785292Y-73629168D01*
X149922627Y-73547949D01*
X150035449Y-73435127D01*
X150116668Y-73297792D01*
X150161182Y-73144574D01*
X150164000Y-73108770D01*
X150164000Y-71731230D01*
X150161182Y-71695426D01*
X150116668Y-71542208D01*
X150035449Y-71404873D01*
X149922627Y-71292051D01*
X149915107Y-71287604D01*
X149785294Y-71210833D01*
X149785293Y-71210832D01*
X149785292Y-71210832D01*
X149632074Y-71166318D01*
X149596270Y-71163500D01*
X148668730Y-71163500D01*
X148662365Y-71164001D01*
X148632926Y-71166318D01*
X148479705Y-71210833D01*
X148342375Y-71292049D01*
X148229549Y-71404875D01*
X148148331Y-71542208D01*
X148117634Y-71647869D01*
X148076674Y-71721590D01*
X148007784Y-71770238D01*
X147935659Y-71784500D01*
X147429340Y-71784500D01*
X147347119Y-71765734D01*
X147281183Y-71713151D01*
X147247365Y-71647869D01*
X147216668Y-71542208D01*
X147153069Y-71434669D01*
X147135450Y-71404876D01*
X147135449Y-71404875D01*
X147135448Y-71404873D01*
X147022627Y-71292052D01*
X147022624Y-71292050D01*
X147022623Y-71292049D01*
X146885294Y-71210833D01*
X146885293Y-71210832D01*
X146885292Y-71210832D01*
X146732073Y-71166318D01*
X146696269Y-71163500D01*
X146696267Y-71163500D01*
X145643731Y-71163500D01*
X145643723Y-71163501D01*
X145607935Y-71166316D01*
X145607929Y-71166317D01*
X145531317Y-71188575D01*
X145454708Y-71210832D01*
X145454706Y-71210832D01*
X145454706Y-71210833D01*
X145317376Y-71292049D01*
X145204549Y-71404876D01*
X145123333Y-71542205D01*
X145078818Y-71695426D01*
X145076000Y-71731232D01*
X145076000Y-73108768D01*
X144288496Y-73108768D01*
X144288500Y-73108722D01*
X144288500Y-72674001D01*
X144288499Y-72674000D01*
X143449001Y-72674000D01*
X143449000Y-72674001D01*
X143449000Y-73675998D01*
X142941000Y-73675998D01*
X142941000Y-72674001D01*
X142940999Y-72674000D01*
X142101501Y-72674000D01*
X142101500Y-72674001D01*
X142101500Y-73108722D01*
X138957455Y-73108722D01*
X138223768Y-72375035D01*
X138211921Y-72360244D01*
X138211151Y-72360882D01*
X138203554Y-72351699D01*
X138203553Y-72351697D01*
X138181030Y-72330547D01*
X138153403Y-72304603D01*
X138151265Y-72302531D01*
X138131092Y-72282359D01*
X138126713Y-72278962D01*
X138119922Y-72273162D01*
X138086503Y-72241780D01*
X138073051Y-72234385D01*
X138048201Y-72218062D01*
X138036066Y-72208649D01*
X137993993Y-72190443D01*
X137985973Y-72186514D01*
X137948655Y-72165999D01*
X142101500Y-72165999D01*
X142101501Y-72166000D01*
X142940999Y-72166000D01*
X142941000Y-72165999D01*
X143449000Y-72165999D01*
X143449001Y-72166000D01*
X144288499Y-72166000D01*
X144288500Y-72165998D01*
X144288500Y-71731277D01*
X144285684Y-71695502D01*
X144285683Y-71695499D01*
X144241207Y-71542411D01*
X144241206Y-71542410D01*
X144160054Y-71405188D01*
X144160052Y-71405185D01*
X144047314Y-71292447D01*
X144047311Y-71292445D01*
X143910089Y-71211293D01*
X143910088Y-71211292D01*
X143757000Y-71166816D01*
X143756997Y-71166815D01*
X143721223Y-71164000D01*
X143449001Y-71164000D01*
X143449000Y-71164001D01*
X143449000Y-72165999D01*
X142941000Y-72165999D01*
X142941000Y-72165998D01*
X142941000Y-71164001D01*
X142940999Y-71164000D01*
X142668777Y-71164000D01*
X142633002Y-71166815D01*
X142632999Y-71166816D01*
X142479911Y-71211292D01*
X142479910Y-71211293D01*
X142342688Y-71292445D01*
X142342685Y-71292447D01*
X142229947Y-71405185D01*
X142229945Y-71405188D01*
X142148793Y-71542410D01*
X142148792Y-71542411D01*
X142104316Y-71695499D01*
X142104315Y-71695502D01*
X142101500Y-71731277D01*
X142101500Y-72165999D01*
X137948655Y-72165999D01*
X137945803Y-72164431D01*
X137945802Y-72164430D01*
X137930927Y-72160611D01*
X137902803Y-72150982D01*
X137888712Y-72144884D01*
X137888701Y-72144881D01*
X137843431Y-72137711D01*
X137834687Y-72135901D01*
X137790282Y-72124500D01*
X137774931Y-72124500D01*
X137745287Y-72122167D01*
X137730119Y-72119764D01*
X137684482Y-72124079D01*
X137675560Y-72124500D01*
X133329876Y-72124500D01*
X133247655Y-72105734D01*
X133181719Y-72053151D01*
X133166765Y-72031462D01*
X133122952Y-71957377D01*
X133122950Y-71957375D01*
X133122949Y-71957373D01*
X133010127Y-71844551D01*
X132993013Y-71834430D01*
X132872794Y-71763333D01*
X132872793Y-71763332D01*
X132872792Y-71763332D01*
X132719574Y-71718818D01*
X132683770Y-71716000D01*
X131256230Y-71716000D01*
X131220426Y-71718818D01*
X131175639Y-71731830D01*
X131067205Y-71763333D01*
X130929875Y-71844549D01*
X130817049Y-71957375D01*
X130735833Y-72094705D01*
X130735832Y-72094707D01*
X130735832Y-72094708D01*
X130695252Y-72234385D01*
X130691318Y-72247926D01*
X130688500Y-72283731D01*
X130688500Y-73064272D01*
X130669734Y-73146493D01*
X130632997Y-73198269D01*
X128865032Y-74966233D01*
X128850248Y-74978083D01*
X128850881Y-74978848D01*
X128841697Y-74986446D01*
X128794604Y-75036595D01*
X128792537Y-75038727D01*
X128772368Y-75058897D01*
X128772349Y-75058919D01*
X128768953Y-75063297D01*
X128763165Y-75070073D01*
X128731783Y-75103493D01*
X128731777Y-75103501D01*
X128724382Y-75116953D01*
X128708066Y-75141792D01*
X128698650Y-75153931D01*
X128680442Y-75196007D01*
X128676515Y-75204024D01*
X128654431Y-75244195D01*
X128650612Y-75259069D01*
X128640985Y-75287189D01*
X128634883Y-75301291D01*
X128627711Y-75346569D01*
X128625900Y-75355313D01*
X128614499Y-75399716D01*
X128614500Y-75415069D01*
X128612167Y-75444712D01*
X128609764Y-75459878D01*
X128614079Y-75505517D01*
X128614500Y-75514439D01*
X128614500Y-84258922D01*
X128612422Y-84277761D01*
X128613414Y-84277855D01*
X128612292Y-84289720D01*
X128614453Y-84358512D01*
X128614500Y-84361488D01*
X128614500Y-84389984D01*
X128615195Y-84395493D01*
X128615894Y-84404384D01*
X128617334Y-84450201D01*
X128621620Y-84464955D01*
X128627647Y-84494059D01*
X128629572Y-84509299D01*
X128629573Y-84509302D01*
X128646447Y-84551922D01*
X128649339Y-84560368D01*
X128662128Y-84604388D01*
X128662129Y-84604389D01*
X128669948Y-84617611D01*
X128683025Y-84644305D01*
X128688680Y-84658586D01*
X128688680Y-84658587D01*
X128688681Y-84658588D01*
X128715640Y-84695694D01*
X128720532Y-84703143D01*
X128743863Y-84742594D01*
X128743866Y-84742598D01*
X128754720Y-84753452D01*
X128774032Y-84776064D01*
X128783055Y-84788483D01*
X128783060Y-84788489D01*
X128818380Y-84817708D01*
X128824987Y-84823719D01*
X130226227Y-86224959D01*
X130238074Y-86239745D01*
X130238842Y-86239111D01*
X130246445Y-86248300D01*
X130246447Y-86248303D01*
X130283493Y-86283091D01*
X130296612Y-86295411D01*
X130298748Y-86297481D01*
X130305036Y-86303768D01*
X130318906Y-86317638D01*
X130318909Y-86317640D01*
X130323281Y-86321032D01*
X130330072Y-86326832D01*
X130363495Y-86358218D01*
X130363498Y-86358220D01*
X130376949Y-86365615D01*
X130401797Y-86381936D01*
X130413931Y-86391348D01*
X130413937Y-86391351D01*
X130456002Y-86409554D01*
X130464008Y-86413475D01*
X130504197Y-86435569D01*
X130504201Y-86435570D01*
X130519068Y-86439388D01*
X130547199Y-86449019D01*
X130561290Y-86455116D01*
X130561292Y-86455117D01*
X130606578Y-86462288D01*
X130615311Y-86464097D01*
X130659718Y-86475500D01*
X130675069Y-86475500D01*
X130704713Y-86477833D01*
X130706187Y-86478066D01*
X130719879Y-86480235D01*
X130756458Y-86476777D01*
X130765518Y-86475921D01*
X130774440Y-86475500D01*
X131072516Y-86475500D01*
X131154737Y-86494266D01*
X131220673Y-86546849D01*
X131235627Y-86568537D01*
X131272051Y-86630127D01*
X131384873Y-86742949D01*
X131522208Y-86824168D01*
X131675426Y-86868682D01*
X131711230Y-86871500D01*
X131711231Y-86871500D01*
X133088769Y-86871500D01*
X133088770Y-86871500D01*
X133124574Y-86868682D01*
X133277792Y-86824168D01*
X133415127Y-86742949D01*
X133527949Y-86630127D01*
X133609168Y-86492792D01*
X133653682Y-86339574D01*
X133656500Y-86303770D01*
X133656500Y-85376230D01*
X133653682Y-85340426D01*
X133609168Y-85187208D01*
X133527949Y-85049873D01*
X133415127Y-84937051D01*
X133389105Y-84921662D01*
X133277794Y-84855833D01*
X133277793Y-84855832D01*
X133277792Y-84855832D01*
X133124574Y-84811318D01*
X133088770Y-84808500D01*
X131711230Y-84808500D01*
X131675426Y-84811318D01*
X131643612Y-84820561D01*
X131522205Y-84855833D01*
X131384875Y-84937049D01*
X131272049Y-85049875D01*
X131239050Y-85105675D01*
X131181043Y-85166893D01*
X131102219Y-85196881D01*
X131018190Y-85189698D01*
X130945599Y-85146768D01*
X130941942Y-85143209D01*
X129941003Y-84142270D01*
X129896134Y-84070861D01*
X129885500Y-84008273D01*
X129885500Y-76335016D01*
X129885500Y-76079762D01*
X129885499Y-75821724D01*
X129904265Y-75739504D01*
X129940999Y-75687731D01*
X131769229Y-73859503D01*
X131840639Y-73814634D01*
X131903227Y-73804000D01*
X132036774Y-73804000D01*
X132118995Y-73822766D01*
X132170771Y-73859503D01*
X132968997Y-74657729D01*
X133013866Y-74729138D01*
X133024500Y-74791726D01*
X133024499Y-76435565D01*
X133005733Y-76517786D01*
X132953150Y-76583722D01*
X132877167Y-76620314D01*
X132807678Y-76623085D01*
X132776215Y-76618501D01*
X132776210Y-76618500D01*
X132776206Y-76618500D01*
X132003794Y-76618500D01*
X132003787Y-76618500D01*
X131929635Y-76629304D01*
X131929634Y-76629305D01*
X131815257Y-76685222D01*
X131815252Y-76685225D01*
X131725225Y-76775252D01*
X131725222Y-76775257D01*
X131669305Y-76889634D01*
X131669304Y-76889635D01*
X131658500Y-76963787D01*
X131658500Y-78636212D01*
X131669304Y-78710364D01*
X131669305Y-78710365D01*
X131725224Y-78824747D01*
X131729226Y-78830352D01*
X131761729Y-78908172D01*
X131764500Y-78940463D01*
X131764500Y-81543159D01*
X131745734Y-81625380D01*
X131693151Y-81691316D01*
X131627869Y-81725134D01*
X131522208Y-81755831D01*
X131384875Y-81837049D01*
X131272049Y-81949875D01*
X131190833Y-82087205D01*
X131190832Y-82087207D01*
X131190832Y-82087208D01*
X131146318Y-82240426D01*
X131143500Y-82276230D01*
X131143500Y-83203770D01*
X131146318Y-83239574D01*
X131186449Y-83377707D01*
X131190833Y-83392794D01*
X131203489Y-83414195D01*
X131272051Y-83530127D01*
X131384873Y-83642949D01*
X131522208Y-83724168D01*
X131675426Y-83768682D01*
X131711230Y-83771500D01*
X131711231Y-83771500D01*
X133088769Y-83771500D01*
X133088770Y-83771500D01*
X133124574Y-83768682D01*
X133277792Y-83724168D01*
X133415127Y-83642949D01*
X133527949Y-83530127D01*
X133564372Y-83468537D01*
X133622380Y-83407319D01*
X133701204Y-83377331D01*
X133727484Y-83375500D01*
X144018920Y-83375500D01*
X144037756Y-83377579D01*
X144037850Y-83376586D01*
X144049713Y-83377706D01*
X144049719Y-83377708D01*
X144089966Y-83376443D01*
X144118514Y-83375547D01*
X144121489Y-83375500D01*
X144149982Y-83375500D01*
X144149983Y-83375500D01*
X144155469Y-83374806D01*
X144164379Y-83374105D01*
X144173749Y-83373810D01*
X144210205Y-83372665D01*
X144224942Y-83368383D01*
X144254064Y-83362351D01*
X144269299Y-83360427D01*
X144311924Y-83343549D01*
X144320355Y-83340663D01*
X144364393Y-83327869D01*
X144377604Y-83320055D01*
X144404319Y-83306968D01*
X144418588Y-83301319D01*
X144455687Y-83274363D01*
X144463141Y-83269467D01*
X144502598Y-83246134D01*
X144513455Y-83235276D01*
X144536060Y-83215970D01*
X144548487Y-83206942D01*
X144577715Y-83171610D01*
X144583721Y-83165010D01*
X147687730Y-80061003D01*
X147759139Y-80016134D01*
X147821727Y-80005500D01*
X155416903Y-80005500D01*
X155499124Y-80024266D01*
X155565060Y-80076849D01*
X155601652Y-80152832D01*
X155601652Y-80237168D01*
X155580341Y-80290908D01*
X155509740Y-80411218D01*
X155428721Y-80625908D01*
X155382133Y-80696207D01*
X155309657Y-80739331D01*
X155251426Y-80748500D01*
X150017086Y-80748500D01*
X149998245Y-80746420D01*
X149998152Y-80747413D01*
X149986279Y-80746290D01*
X149930115Y-80748056D01*
X149917484Y-80748453D01*
X149914523Y-80748500D01*
X149886007Y-80748500D01*
X149880508Y-80749195D01*
X149871614Y-80749894D01*
X149825797Y-80751334D01*
X149811035Y-80755622D01*
X149781941Y-80761646D01*
X149766711Y-80763570D01*
X149766693Y-80763575D01*
X149724072Y-80780449D01*
X149715627Y-80783340D01*
X149671613Y-80796128D01*
X149671603Y-80796132D01*
X149658380Y-80803952D01*
X149631695Y-80817024D01*
X149617417Y-80822677D01*
X149617414Y-80822679D01*
X149580316Y-80849630D01*
X149572859Y-80854528D01*
X149533403Y-80877864D01*
X149533398Y-80877868D01*
X149522538Y-80888728D01*
X149499944Y-80908025D01*
X149487514Y-80917057D01*
X149487509Y-80917061D01*
X149458291Y-80952380D01*
X149452281Y-80958985D01*
X147275032Y-83136233D01*
X147260248Y-83148083D01*
X147260881Y-83148848D01*
X147251697Y-83156446D01*
X147204604Y-83206595D01*
X147202537Y-83208727D01*
X147182368Y-83228897D01*
X147182349Y-83228919D01*
X147178953Y-83233297D01*
X147173165Y-83240073D01*
X147141783Y-83273493D01*
X147141777Y-83273501D01*
X147134382Y-83286953D01*
X147118066Y-83311792D01*
X147108650Y-83323931D01*
X147090442Y-83366007D01*
X147086515Y-83374024D01*
X147064431Y-83414195D01*
X147060612Y-83429069D01*
X147050985Y-83457189D01*
X147044883Y-83471291D01*
X147037711Y-83516569D01*
X147035900Y-83525313D01*
X147024500Y-83569716D01*
X147024500Y-83585069D01*
X147022167Y-83614712D01*
X147019764Y-83629878D01*
X147024079Y-83675517D01*
X147024500Y-83684439D01*
X147024500Y-84653959D01*
X147005734Y-84736180D01*
X146953151Y-84802116D01*
X146945116Y-84808182D01*
X146935255Y-84815222D01*
X146845225Y-84905252D01*
X146845222Y-84905257D01*
X146789305Y-85019634D01*
X146789304Y-85019635D01*
X146778500Y-85093787D01*
X146778500Y-87466212D01*
X146789304Y-87540364D01*
X146789305Y-87540365D01*
X146845077Y-87654445D01*
X146845224Y-87654746D01*
X146935254Y-87744776D01*
X146993842Y-87773418D01*
X147049634Y-87800694D01*
X147049635Y-87800695D01*
X147049637Y-87800695D01*
X147049639Y-87800696D01*
X147123794Y-87811500D01*
X147123799Y-87811500D01*
X148196201Y-87811500D01*
X148196206Y-87811500D01*
X148270361Y-87800696D01*
X148270362Y-87800695D01*
X148270364Y-87800695D01*
X148270365Y-87800694D01*
X148271359Y-87800208D01*
X148384746Y-87744776D01*
X148474776Y-87654746D01*
X148530696Y-87540361D01*
X148541500Y-87466206D01*
X148541500Y-87466164D01*
X149979000Y-87466164D01*
X149989790Y-87540215D01*
X149989791Y-87540221D01*
X150045632Y-87654445D01*
X150045634Y-87654448D01*
X150135551Y-87744365D01*
X150135554Y-87744367D01*
X150249778Y-87800208D01*
X150249784Y-87800209D01*
X150323835Y-87810999D01*
X150323845Y-87811000D01*
X150605999Y-87811000D01*
X150606000Y-87810999D01*
X150606000Y-86534001D01*
X150605999Y-86534000D01*
X151114000Y-86534000D01*
X151114000Y-87810999D01*
X151114001Y-87811000D01*
X151396155Y-87811000D01*
X151396164Y-87810999D01*
X151470215Y-87800209D01*
X151470221Y-87800208D01*
X151584445Y-87744367D01*
X151584448Y-87744365D01*
X151674365Y-87654448D01*
X151674367Y-87654445D01*
X151730208Y-87540221D01*
X151730209Y-87540215D01*
X151740999Y-87466164D01*
X151741000Y-87466154D01*
X151741000Y-86534001D01*
X151740999Y-86534000D01*
X151114000Y-86534000D01*
X150605999Y-86534000D01*
X149979001Y-86534000D01*
X149979000Y-86534001D01*
X149979000Y-87466164D01*
X148541500Y-87466164D01*
X148541500Y-86025999D01*
X149979000Y-86025999D01*
X149979001Y-86026000D01*
X150605999Y-86026000D01*
X150606000Y-86025999D01*
X151114000Y-86025999D01*
X151114001Y-86026000D01*
X151740999Y-86026000D01*
X151741000Y-86025999D01*
X151741000Y-85093845D01*
X151740999Y-85093835D01*
X151730209Y-85019784D01*
X151730208Y-85019778D01*
X151674367Y-84905554D01*
X151674365Y-84905551D01*
X151584448Y-84815634D01*
X151584445Y-84815632D01*
X151470221Y-84759791D01*
X151470215Y-84759790D01*
X151396164Y-84749000D01*
X151114001Y-84749000D01*
X151114000Y-84749001D01*
X151114000Y-86025999D01*
X150606000Y-86025999D01*
X150606000Y-86025998D01*
X150606000Y-84749001D01*
X150605999Y-84749000D01*
X150323835Y-84749000D01*
X150249784Y-84759790D01*
X150249778Y-84759791D01*
X150135554Y-84815632D01*
X150135551Y-84815634D01*
X150045634Y-84905551D01*
X150045632Y-84905554D01*
X149989791Y-85019778D01*
X149989790Y-85019784D01*
X149979000Y-85093835D01*
X149979000Y-86025999D01*
X148541500Y-86025999D01*
X148541500Y-85093794D01*
X148530696Y-85019639D01*
X148530695Y-85019637D01*
X148530695Y-85019635D01*
X148530694Y-85019634D01*
X148482797Y-84921662D01*
X148474776Y-84905254D01*
X148384746Y-84815224D01*
X148384744Y-84815222D01*
X148374884Y-84808182D01*
X148318874Y-84745132D01*
X148295767Y-84664024D01*
X148295500Y-84653959D01*
X148295500Y-83991726D01*
X148314266Y-83909505D01*
X148351003Y-83857729D01*
X150133730Y-82075003D01*
X150205139Y-82030134D01*
X150267727Y-82019500D01*
X153310500Y-82019500D01*
X153392721Y-82038266D01*
X153458657Y-82090849D01*
X153495249Y-82166832D01*
X153500000Y-82209000D01*
X153500000Y-84843167D01*
X153481234Y-84925388D01*
X153444497Y-84977164D01*
X152659869Y-85761791D01*
X152639039Y-85779792D01*
X152623184Y-85791595D01*
X152623176Y-85791604D01*
X152589946Y-85831205D01*
X152584365Y-85837296D01*
X152579428Y-85842232D01*
X152559603Y-85867305D01*
X152557865Y-85869437D01*
X152508606Y-85928143D01*
X152502540Y-85937367D01*
X152501985Y-85937002D01*
X152501836Y-85937236D01*
X152502400Y-85937584D01*
X152496607Y-85946975D01*
X152464211Y-86016447D01*
X152463011Y-86018927D01*
X152428604Y-86087435D01*
X152424832Y-86097802D01*
X152424208Y-86097575D01*
X152424115Y-86097841D01*
X152424747Y-86098051D01*
X152421273Y-86108533D01*
X152405772Y-86183602D01*
X152405176Y-86186290D01*
X152387499Y-86260880D01*
X152386219Y-86271835D01*
X152385557Y-86271757D01*
X152385528Y-86272038D01*
X152386193Y-86272097D01*
X152385231Y-86283091D01*
X152387460Y-86359702D01*
X152387500Y-86362458D01*
X152387500Y-87535668D01*
X152368734Y-87617889D01*
X152331997Y-87669665D01*
X151529665Y-88471997D01*
X151458256Y-88516866D01*
X151395668Y-88527500D01*
X148449359Y-88527500D01*
X148421893Y-88525499D01*
X148419028Y-88525079D01*
X148402327Y-88522632D01*
X148350822Y-88527139D01*
X148342560Y-88527500D01*
X148335588Y-88527500D01*
X148332401Y-88527872D01*
X148303889Y-88531203D01*
X148301156Y-88531483D01*
X148224762Y-88538168D01*
X148213957Y-88540399D01*
X148213823Y-88539753D01*
X148213538Y-88539816D01*
X148213690Y-88540458D01*
X148202955Y-88543002D01*
X148130919Y-88569220D01*
X148128320Y-88570123D01*
X148055563Y-88594234D01*
X148055560Y-88594235D01*
X148055557Y-88594236D01*
X148045561Y-88598898D01*
X148045281Y-88598299D01*
X148045023Y-88598424D01*
X148045320Y-88599015D01*
X148035457Y-88603968D01*
X147971404Y-88646095D01*
X147969082Y-88647575D01*
X147903850Y-88687810D01*
X147895194Y-88694655D01*
X147894783Y-88694136D01*
X147894563Y-88694315D01*
X147894989Y-88694823D01*
X147886537Y-88701914D01*
X147833950Y-88757653D01*
X147832031Y-88759629D01*
X147169869Y-89421791D01*
X147149039Y-89439792D01*
X147133184Y-89451595D01*
X147133176Y-89451604D01*
X147099946Y-89491205D01*
X147094365Y-89497296D01*
X147089428Y-89502232D01*
X147069603Y-89527305D01*
X147067865Y-89529437D01*
X147018606Y-89588143D01*
X147012540Y-89597367D01*
X147011985Y-89597002D01*
X147011836Y-89597236D01*
X147012400Y-89597584D01*
X147006607Y-89606975D01*
X146974211Y-89676447D01*
X146973011Y-89678927D01*
X146938604Y-89747435D01*
X146934832Y-89757802D01*
X146934208Y-89757575D01*
X146934115Y-89757841D01*
X146934747Y-89758051D01*
X146931273Y-89768533D01*
X146915772Y-89843602D01*
X146915176Y-89846290D01*
X146897499Y-89920880D01*
X146896219Y-89931835D01*
X146895557Y-89931757D01*
X146895528Y-89932038D01*
X146896193Y-89932097D01*
X146895231Y-89943091D01*
X146897460Y-90019702D01*
X146897500Y-90022458D01*
X146897500Y-90474484D01*
X146878734Y-90556705D01*
X146853691Y-90591999D01*
X146854351Y-90592471D01*
X146845222Y-90605257D01*
X146789305Y-90719634D01*
X146789304Y-90719635D01*
X146778500Y-90793787D01*
X146778500Y-91028000D01*
X146759734Y-91110221D01*
X146707151Y-91176157D01*
X146631168Y-91212749D01*
X146589000Y-91217500D01*
X146019069Y-91217500D01*
X145936848Y-91198734D01*
X145885072Y-91161997D01*
X145882950Y-91159875D01*
X145882949Y-91159873D01*
X145770127Y-91047051D01*
X145737913Y-91028000D01*
X145632794Y-90965833D01*
X145632793Y-90965832D01*
X145632792Y-90965832D01*
X145479574Y-90921318D01*
X145443770Y-90918500D01*
X144016230Y-90918500D01*
X143980426Y-90921318D01*
X143911662Y-90941296D01*
X143827205Y-90965833D01*
X143689875Y-91047049D01*
X143577049Y-91159875D01*
X143495833Y-91297205D01*
X143495832Y-91297207D01*
X143495832Y-91297208D01*
X143451318Y-91450426D01*
X143448500Y-91486231D01*
X143448500Y-92438768D01*
X143451318Y-92474573D01*
X143495833Y-92627794D01*
X143574767Y-92761266D01*
X143577051Y-92765127D01*
X143689873Y-92877949D01*
X143827208Y-92959168D01*
X143980426Y-93003682D01*
X144016230Y-93006500D01*
X144016231Y-93006500D01*
X145443769Y-93006500D01*
X145443770Y-93006500D01*
X145479574Y-93003682D01*
X145632792Y-92959168D01*
X145770127Y-92877949D01*
X145810101Y-92837974D01*
X145850074Y-92798003D01*
X145921483Y-92753134D01*
X145984070Y-92742500D01*
X146589000Y-92742500D01*
X146671221Y-92761266D01*
X146737157Y-92813849D01*
X146773749Y-92889832D01*
X146778500Y-92932000D01*
X146778500Y-93166212D01*
X146789304Y-93240364D01*
X146789305Y-93240365D01*
X146845222Y-93354742D01*
X146845224Y-93354746D01*
X146935254Y-93444776D01*
X146993842Y-93473418D01*
X147049634Y-93500694D01*
X147049635Y-93500695D01*
X147049637Y-93500695D01*
X147049639Y-93500696D01*
X147123794Y-93511500D01*
X147123799Y-93511500D01*
X148196201Y-93511500D01*
X148196206Y-93511500D01*
X148270361Y-93500696D01*
X148270362Y-93500695D01*
X148270364Y-93500695D01*
X148270365Y-93500694D01*
X148384746Y-93444776D01*
X148474776Y-93354746D01*
X148530696Y-93240361D01*
X148541499Y-93166212D01*
X149978500Y-93166212D01*
X149989304Y-93240364D01*
X149989305Y-93240365D01*
X150045222Y-93354742D01*
X150045224Y-93354746D01*
X150135254Y-93444776D01*
X150193842Y-93473418D01*
X150249634Y-93500694D01*
X150249635Y-93500695D01*
X150249637Y-93500695D01*
X150249639Y-93500696D01*
X150323794Y-93511500D01*
X150323799Y-93511500D01*
X151396201Y-93511500D01*
X151396206Y-93511500D01*
X151470361Y-93500696D01*
X151470362Y-93500695D01*
X151470364Y-93500695D01*
X151470365Y-93500694D01*
X151584746Y-93444776D01*
X151674776Y-93354746D01*
X151730696Y-93240361D01*
X151741500Y-93166206D01*
X151741500Y-90793794D01*
X151730696Y-90719639D01*
X151730695Y-90719637D01*
X151730695Y-90719635D01*
X151730694Y-90719634D01*
X151674777Y-90605257D01*
X151674776Y-90605254D01*
X151584746Y-90515224D01*
X151584742Y-90515222D01*
X151470365Y-90459305D01*
X151470364Y-90459304D01*
X151396212Y-90448500D01*
X151396206Y-90448500D01*
X150323794Y-90448500D01*
X150323787Y-90448500D01*
X150249635Y-90459304D01*
X150249634Y-90459305D01*
X150135257Y-90515222D01*
X150135252Y-90515225D01*
X150045225Y-90605252D01*
X150045222Y-90605257D01*
X149989305Y-90719634D01*
X149989304Y-90719635D01*
X149978500Y-90793787D01*
X149978500Y-93166212D01*
X148541499Y-93166212D01*
X148541500Y-93166206D01*
X148541500Y-90793794D01*
X148530696Y-90719639D01*
X148530695Y-90719637D01*
X148530695Y-90719635D01*
X148530694Y-90719634D01*
X148474777Y-90605257D01*
X148474776Y-90605254D01*
X148474772Y-90605250D01*
X148465649Y-90592471D01*
X148467232Y-90591340D01*
X148433130Y-90537060D01*
X148422500Y-90474483D01*
X148422500Y-90404330D01*
X148441266Y-90322109D01*
X148478004Y-90270333D01*
X148640335Y-90108003D01*
X148711744Y-90063134D01*
X148774331Y-90052500D01*
X151720647Y-90052500D01*
X151748112Y-90054500D01*
X151767672Y-90057366D01*
X151819169Y-90052861D01*
X151827431Y-90052500D01*
X151834408Y-90052500D01*
X151834412Y-90052500D01*
X151866146Y-90048790D01*
X151868848Y-90048513D01*
X151945240Y-90041831D01*
X151945241Y-90041830D01*
X151956048Y-90039599D01*
X151956183Y-90040256D01*
X151956456Y-90040195D01*
X151956302Y-90039543D01*
X151967037Y-90036998D01*
X151967042Y-90036998D01*
X152039131Y-90010759D01*
X152041667Y-90009878D01*
X152114440Y-89985765D01*
X152114443Y-89985763D01*
X152124448Y-89981098D01*
X152124732Y-89981707D01*
X152124972Y-89981591D01*
X152124670Y-89980990D01*
X152134531Y-89976036D01*
X152134539Y-89976034D01*
X152198588Y-89933906D01*
X152200912Y-89932427D01*
X152220414Y-89920397D01*
X152266149Y-89892188D01*
X152266156Y-89892180D01*
X152274803Y-89885344D01*
X152275222Y-89885874D01*
X152275438Y-89885698D01*
X152275004Y-89885181D01*
X152283450Y-89878092D01*
X152283462Y-89878085D01*
X152336109Y-89822281D01*
X152337951Y-89820384D01*
X153176504Y-88981831D01*
X153247912Y-88936964D01*
X153331717Y-88927522D01*
X153411320Y-88955376D01*
X153470954Y-89015010D01*
X153498808Y-89094613D01*
X153500000Y-89115830D01*
X153500000Y-94237500D01*
X153481234Y-94319721D01*
X153428651Y-94385657D01*
X153352668Y-94422249D01*
X153310500Y-94427000D01*
X142614258Y-94427000D01*
X142543444Y-94410838D01*
X142542975Y-94412179D01*
X142370748Y-94351913D01*
X142200000Y-94332675D01*
X142029251Y-94351913D01*
X141857025Y-94412179D01*
X141856555Y-94410838D01*
X141785742Y-94427000D01*
X140409876Y-94427000D01*
X140327655Y-94408234D01*
X140261719Y-94355651D01*
X140246765Y-94333962D01*
X140202952Y-94259877D01*
X140202950Y-94259875D01*
X140202949Y-94259873D01*
X140090127Y-94147051D01*
X139952792Y-94065832D01*
X139799574Y-94021318D01*
X139763770Y-94018500D01*
X138336230Y-94018500D01*
X138300425Y-94021318D01*
X138300426Y-94021318D01*
X138147205Y-94065833D01*
X138009875Y-94147049D01*
X137897049Y-94259875D01*
X137834014Y-94366463D01*
X137776007Y-94427681D01*
X137697183Y-94457669D01*
X137670903Y-94459500D01*
X136689500Y-94459500D01*
X136607279Y-94440734D01*
X136541343Y-94388151D01*
X136504751Y-94312168D01*
X136500000Y-94270000D01*
X136500000Y-93000001D01*
X136500000Y-93000000D01*
X128500000Y-93000000D01*
X128500000Y-101000000D01*
X128500001Y-101000000D01*
X136499999Y-101000000D01*
X136500000Y-101000000D01*
X136500000Y-98460000D01*
X136518766Y-98377779D01*
X136571349Y-98311843D01*
X136647332Y-98275251D01*
X136689500Y-98270500D01*
X137713645Y-98270500D01*
X137795866Y-98289266D01*
X137861802Y-98341849D01*
X137876756Y-98363537D01*
X137922051Y-98440127D01*
X138034873Y-98552949D01*
X138172208Y-98634168D01*
X138325426Y-98678682D01*
X138361230Y-98681500D01*
X138361231Y-98681500D01*
X139738769Y-98681500D01*
X139738770Y-98681500D01*
X139774574Y-98678682D01*
X139927792Y-98634168D01*
X140065127Y-98552949D01*
X140177949Y-98440127D01*
X140214372Y-98378537D01*
X140272380Y-98317319D01*
X140351204Y-98287331D01*
X140377484Y-98285500D01*
X148058274Y-98285500D01*
X148140495Y-98304266D01*
X148192271Y-98341003D01*
X149620227Y-99768959D01*
X149632074Y-99783745D01*
X149632842Y-99783111D01*
X149640445Y-99792300D01*
X149640447Y-99792303D01*
X149684806Y-99833959D01*
X149690612Y-99839411D01*
X149692748Y-99841481D01*
X149698317Y-99847049D01*
X149712906Y-99861638D01*
X149712909Y-99861640D01*
X149717281Y-99865032D01*
X149724072Y-99870832D01*
X149757495Y-99902218D01*
X149757498Y-99902220D01*
X149770949Y-99909615D01*
X149795797Y-99925936D01*
X149807931Y-99935348D01*
X149807937Y-99935351D01*
X149850002Y-99953554D01*
X149858008Y-99957475D01*
X149898197Y-99979569D01*
X149898201Y-99979570D01*
X149913068Y-99983388D01*
X149941199Y-99993019D01*
X149955290Y-99999116D01*
X149955292Y-99999117D01*
X150000578Y-100006288D01*
X150009311Y-100008097D01*
X150053718Y-100019500D01*
X150069069Y-100019500D01*
X150098713Y-100021833D01*
X150100187Y-100022066D01*
X150113879Y-100024235D01*
X150150458Y-100020777D01*
X150159518Y-100019921D01*
X150168440Y-100019500D01*
X155251426Y-100019500D01*
X155333647Y-100038266D01*
X155399583Y-100090849D01*
X155428721Y-100142092D01*
X155509741Y-100356783D01*
X155628763Y-100559609D01*
X155739207Y-100690601D01*
X155780350Y-100739400D01*
X155849696Y-100797867D01*
X155960140Y-100890986D01*
X155998249Y-100913349D01*
X156162963Y-101010007D01*
X156382983Y-101093039D01*
X156382992Y-101093040D01*
X156382993Y-101093041D01*
X156613859Y-101137691D01*
X156613863Y-101137691D01*
X156613871Y-101137693D01*
X156666715Y-101140500D01*
X156854784Y-101140499D01*
X156863350Y-101140044D01*
X156907624Y-101137694D01*
X156955114Y-101128509D01*
X157138517Y-101093039D01*
X157358537Y-101010007D01*
X157561359Y-100890986D01*
X157741150Y-100739400D01*
X157885872Y-100567749D01*
X157953219Y-100516986D01*
X158035921Y-100500471D01*
X158117599Y-100521474D01*
X158175627Y-100567749D01*
X158320350Y-100739400D01*
X158410245Y-100815192D01*
X158500138Y-100890984D01*
X158500140Y-100890985D01*
X158500141Y-100890986D01*
X158571660Y-100932955D01*
X158633073Y-100990751D01*
X158663328Y-101069473D01*
X158665250Y-101096391D01*
X158665250Y-101557522D01*
X158646484Y-101639743D01*
X158609747Y-101691519D01*
X158313270Y-101987997D01*
X158241861Y-102032866D01*
X158179273Y-102043500D01*
X157436230Y-102043500D01*
X157429865Y-102044001D01*
X157400426Y-102046318D01*
X157247205Y-102090833D01*
X157109875Y-102172049D01*
X156997049Y-102284875D01*
X156938111Y-102384535D01*
X156880104Y-102445754D01*
X156801280Y-102475741D01*
X156717251Y-102468558D01*
X156644660Y-102425628D01*
X156611889Y-102384535D01*
X156553132Y-102285183D01*
X156552949Y-102284873D01*
X156440127Y-102172051D01*
X156385924Y-102139996D01*
X156302794Y-102090833D01*
X156302793Y-102090832D01*
X156302792Y-102090832D01*
X156149574Y-102046318D01*
X156113770Y-102043500D01*
X155186230Y-102043500D01*
X155179865Y-102044001D01*
X155150426Y-102046318D01*
X154997205Y-102090833D01*
X154859875Y-102172049D01*
X154747049Y-102284875D01*
X154665833Y-102422205D01*
X154665833Y-102422206D01*
X154665832Y-102422208D01*
X154621318Y-102575426D01*
X154618500Y-102611230D01*
X154618500Y-103988770D01*
X154621318Y-104024574D01*
X154665774Y-104177593D01*
X154665833Y-104177794D01*
X154731670Y-104289120D01*
X154747051Y-104315127D01*
X154859873Y-104427949D01*
X154882726Y-104441464D01*
X154997208Y-104509168D01*
X155113742Y-104543025D01*
X155187463Y-104583985D01*
X155236111Y-104652875D01*
X155250051Y-104736051D01*
X155226521Y-104817037D01*
X155170184Y-104879795D01*
X155092195Y-104911893D01*
X155060873Y-104914500D01*
X153137335Y-104914500D01*
X153055114Y-104895734D01*
X152989178Y-104843151D01*
X152952586Y-104767168D01*
X152952586Y-104682832D01*
X152989178Y-104606849D01*
X153055114Y-104554266D01*
X153084466Y-104543024D01*
X153202593Y-104508704D01*
X153202595Y-104508703D01*
X153339816Y-104427550D01*
X153339819Y-104427548D01*
X153452548Y-104314819D01*
X153452550Y-104314816D01*
X153533703Y-104177595D01*
X153533708Y-104177586D01*
X153578183Y-104024501D01*
X153578184Y-104024498D01*
X153581000Y-103988723D01*
X153581000Y-103554001D01*
X153580999Y-103554000D01*
X151519001Y-103554000D01*
X151519001Y-103988734D01*
X151521814Y-104024488D01*
X151521813Y-104024488D01*
X151566295Y-104177593D01*
X151566296Y-104177595D01*
X151647449Y-104314816D01*
X151647451Y-104314819D01*
X151760180Y-104427548D01*
X151760183Y-104427550D01*
X151897404Y-104508703D01*
X151897411Y-104508707D01*
X152015533Y-104543025D01*
X152089253Y-104583985D01*
X152137901Y-104652875D01*
X152151841Y-104736051D01*
X152128311Y-104817037D01*
X152071974Y-104879795D01*
X151993985Y-104911893D01*
X151962663Y-104914500D01*
X151241727Y-104914500D01*
X151159506Y-104895734D01*
X151107730Y-104858997D01*
X149641003Y-103392269D01*
X149596134Y-103320860D01*
X149585500Y-103258272D01*
X149585500Y-103045999D01*
X151519000Y-103045999D01*
X151519001Y-103046000D01*
X152295999Y-103046000D01*
X152296000Y-103045999D01*
X152296000Y-103045998D01*
X152804000Y-103045998D01*
X152804001Y-103046000D01*
X153580998Y-103046000D01*
X153580999Y-103045998D01*
X153580999Y-102611278D01*
X153580998Y-102611265D01*
X153578185Y-102575511D01*
X153578186Y-102575511D01*
X153533704Y-102422406D01*
X153533703Y-102422404D01*
X153452550Y-102285183D01*
X153452548Y-102285180D01*
X153339819Y-102172451D01*
X153339816Y-102172449D01*
X153202595Y-102091296D01*
X153202586Y-102091291D01*
X153049501Y-102046816D01*
X153049498Y-102046815D01*
X153013724Y-102044000D01*
X152804001Y-102044000D01*
X152804000Y-102044001D01*
X152804000Y-103045998D01*
X152296000Y-103045998D01*
X152296000Y-102044000D01*
X152086277Y-102044000D01*
X152086265Y-102044001D01*
X152050511Y-102046813D01*
X151897406Y-102091295D01*
X151897404Y-102091296D01*
X151760183Y-102172449D01*
X151760180Y-102172451D01*
X151647451Y-102285180D01*
X151647449Y-102285183D01*
X151566296Y-102422404D01*
X151566291Y-102422413D01*
X151521816Y-102575498D01*
X151521815Y-102575501D01*
X151519000Y-102611276D01*
X151519000Y-103045999D01*
X149585500Y-103045999D01*
X149585500Y-102241085D01*
X149587580Y-102222245D01*
X149586587Y-102222152D01*
X149587709Y-102210279D01*
X149585547Y-102141499D01*
X149585500Y-102138522D01*
X149585500Y-102110020D01*
X149584807Y-102104536D01*
X149584105Y-102095623D01*
X149582992Y-102060212D01*
X149582665Y-102049795D01*
X149578379Y-102035046D01*
X149572351Y-102005933D01*
X149570427Y-101990701D01*
X149553548Y-101948070D01*
X149550660Y-101939635D01*
X149537869Y-101895607D01*
X149530051Y-101882387D01*
X149516969Y-101855683D01*
X149511319Y-101841412D01*
X149484369Y-101804318D01*
X149479470Y-101796860D01*
X149456134Y-101757402D01*
X149445279Y-101746547D01*
X149425968Y-101723936D01*
X149416942Y-101711513D01*
X149416940Y-101711511D01*
X149381619Y-101682291D01*
X149375012Y-101676280D01*
X148063769Y-100365036D01*
X148051919Y-100350245D01*
X148051151Y-100350882D01*
X148043554Y-100341699D01*
X148043553Y-100341697D01*
X147993403Y-100294603D01*
X147991265Y-100292531D01*
X147971092Y-100272359D01*
X147966713Y-100268962D01*
X147959922Y-100263162D01*
X147926503Y-100231780D01*
X147913051Y-100224385D01*
X147888201Y-100208062D01*
X147876066Y-100198649D01*
X147833993Y-100180443D01*
X147825973Y-100176514D01*
X147785803Y-100154431D01*
X147785802Y-100154430D01*
X147770927Y-100150611D01*
X147742803Y-100140982D01*
X147728712Y-100134884D01*
X147728701Y-100134881D01*
X147683431Y-100127711D01*
X147674687Y-100125901D01*
X147630282Y-100114500D01*
X147614931Y-100114500D01*
X147585287Y-100112167D01*
X147570119Y-100109764D01*
X147524482Y-100114079D01*
X147515560Y-100114500D01*
X140377484Y-100114500D01*
X140295263Y-100095734D01*
X140229327Y-100043151D01*
X140214373Y-100021463D01*
X140197551Y-99993019D01*
X140177949Y-99959873D01*
X140065127Y-99847051D01*
X140052208Y-99839411D01*
X139927794Y-99765833D01*
X139927793Y-99765832D01*
X139927792Y-99765832D01*
X139774574Y-99721318D01*
X139738770Y-99718500D01*
X138361230Y-99718500D01*
X138325425Y-99721318D01*
X138325426Y-99721318D01*
X138172205Y-99765833D01*
X138034875Y-99847049D01*
X137922049Y-99959875D01*
X137840833Y-100097205D01*
X137840832Y-100097207D01*
X137840832Y-100097208D01*
X137796318Y-100250426D01*
X137793500Y-100286230D01*
X137793500Y-101213770D01*
X137796318Y-101249574D01*
X137840832Y-101402792D01*
X137922051Y-101540127D01*
X138034873Y-101652949D01*
X138172208Y-101734168D01*
X138325426Y-101778682D01*
X138361230Y-101781500D01*
X138361231Y-101781500D01*
X139738769Y-101781500D01*
X139738770Y-101781500D01*
X139774574Y-101778682D01*
X139927792Y-101734168D01*
X140065127Y-101652949D01*
X140177949Y-101540127D01*
X140214372Y-101478537D01*
X140272380Y-101417319D01*
X140351204Y-101387331D01*
X140377484Y-101385500D01*
X147208274Y-101385500D01*
X147290495Y-101404266D01*
X147342271Y-101441003D01*
X148258997Y-102357729D01*
X148303866Y-102429138D01*
X148314500Y-102491726D01*
X148314500Y-103508922D01*
X148312422Y-103527761D01*
X148313414Y-103527855D01*
X148312292Y-103539720D01*
X148314453Y-103608512D01*
X148314500Y-103611488D01*
X148314500Y-103639984D01*
X148315195Y-103645493D01*
X148315894Y-103654384D01*
X148317334Y-103700201D01*
X148321620Y-103714955D01*
X148327647Y-103744059D01*
X148329572Y-103759299D01*
X148329573Y-103759302D01*
X148346447Y-103801922D01*
X148349339Y-103810368D01*
X148362128Y-103854388D01*
X148362129Y-103854389D01*
X148369948Y-103867611D01*
X148383025Y-103894305D01*
X148388680Y-103908586D01*
X148388680Y-103908587D01*
X148388681Y-103908588D01*
X148415640Y-103945694D01*
X148420532Y-103953143D01*
X148443863Y-103992594D01*
X148443866Y-103992598D01*
X148454720Y-104003452D01*
X148474032Y-104026064D01*
X148483055Y-104038483D01*
X148483060Y-104038489D01*
X148518380Y-104067708D01*
X148524987Y-104073719D01*
X150386227Y-105934959D01*
X150398074Y-105949745D01*
X150398842Y-105949111D01*
X150406445Y-105958300D01*
X150406447Y-105958303D01*
X150435966Y-105986023D01*
X150456612Y-106005411D01*
X150458748Y-106007481D01*
X150468207Y-106016939D01*
X150478906Y-106027638D01*
X150478909Y-106027640D01*
X150483281Y-106031032D01*
X150490068Y-106036829D01*
X150510627Y-106056134D01*
X150523495Y-106068218D01*
X150523498Y-106068220D01*
X150536949Y-106075615D01*
X150561797Y-106091936D01*
X150573931Y-106101348D01*
X150573937Y-106101351D01*
X150616002Y-106119554D01*
X150624008Y-106123475D01*
X150664197Y-106145569D01*
X150664201Y-106145570D01*
X150679068Y-106149388D01*
X150707199Y-106159019D01*
X150721290Y-106165116D01*
X150721292Y-106165117D01*
X150766578Y-106172288D01*
X150775311Y-106174097D01*
X150819718Y-106185500D01*
X150835069Y-106185500D01*
X150864713Y-106187833D01*
X150866187Y-106188066D01*
X150879879Y-106190235D01*
X150918481Y-106186586D01*
X150925518Y-106185921D01*
X150934440Y-106185500D01*
X158658920Y-106185500D01*
X158677756Y-106187579D01*
X158677850Y-106186586D01*
X158689713Y-106187706D01*
X158689719Y-106187708D01*
X158729966Y-106186443D01*
X158758514Y-106185547D01*
X158761489Y-106185500D01*
X158789982Y-106185500D01*
X158789983Y-106185500D01*
X158795469Y-106184806D01*
X158804379Y-106184105D01*
X158813749Y-106183810D01*
X158850205Y-106182665D01*
X158864942Y-106178383D01*
X158894064Y-106172351D01*
X158909299Y-106170427D01*
X158951924Y-106153549D01*
X158960355Y-106150663D01*
X159004393Y-106137869D01*
X159017604Y-106130055D01*
X159044319Y-106116968D01*
X159058588Y-106111319D01*
X159095687Y-106084363D01*
X159103141Y-106079467D01*
X159142598Y-106056134D01*
X159153455Y-106045276D01*
X159176060Y-106025970D01*
X159188487Y-106016942D01*
X159217718Y-105981605D01*
X159223704Y-105975026D01*
X160198732Y-104999999D01*
X170994659Y-104999999D01*
X171013976Y-105196136D01*
X171071185Y-105384727D01*
X171164088Y-105558535D01*
X171164090Y-105558538D01*
X171289117Y-105710883D01*
X171441462Y-105835910D01*
X171441464Y-105835911D01*
X171615272Y-105928814D01*
X171803863Y-105986023D01*
X171803865Y-105986023D01*
X171803868Y-105986024D01*
X172000000Y-106005341D01*
X172196132Y-105986024D01*
X172196134Y-105986023D01*
X172196136Y-105986023D01*
X172384727Y-105928814D01*
X172384727Y-105928813D01*
X172558538Y-105835910D01*
X172710883Y-105710883D01*
X172835910Y-105558538D01*
X172928814Y-105384727D01*
X172986024Y-105196132D01*
X173005341Y-105000000D01*
X172986024Y-104803868D01*
X172986023Y-104803865D01*
X172986023Y-104803863D01*
X172928814Y-104615272D01*
X172835911Y-104441464D01*
X172835910Y-104441462D01*
X172710883Y-104289117D01*
X172558538Y-104164090D01*
X172558536Y-104164089D01*
X172558535Y-104164088D01*
X172384727Y-104071185D01*
X172196136Y-104013976D01*
X172039226Y-103998522D01*
X172000000Y-103994659D01*
X171999999Y-103994659D01*
X171803863Y-104013976D01*
X171615272Y-104071185D01*
X171441464Y-104164088D01*
X171289120Y-104289114D01*
X171289114Y-104289120D01*
X171164088Y-104441464D01*
X171071185Y-104615272D01*
X171013976Y-104803863D01*
X170994659Y-104999999D01*
X160198732Y-104999999D01*
X160586729Y-104612003D01*
X160658139Y-104567134D01*
X160720727Y-104556500D01*
X161463769Y-104556500D01*
X161463770Y-104556500D01*
X161499574Y-104553682D01*
X161652792Y-104509168D01*
X161790127Y-104427949D01*
X161902949Y-104315127D01*
X161984168Y-104177792D01*
X161984169Y-104177788D01*
X161984624Y-104176738D01*
X161985488Y-104175559D01*
X161990237Y-104167530D01*
X161991032Y-104168000D01*
X162034502Y-104108733D01*
X162108946Y-104069104D01*
X162158538Y-104062500D01*
X165580647Y-104062500D01*
X165608112Y-104064500D01*
X165627672Y-104067366D01*
X165679169Y-104062861D01*
X165687431Y-104062500D01*
X165694408Y-104062500D01*
X165694412Y-104062500D01*
X165726146Y-104058790D01*
X165728848Y-104058513D01*
X165805240Y-104051831D01*
X165805241Y-104051830D01*
X165816048Y-104049599D01*
X165816183Y-104050256D01*
X165816456Y-104050195D01*
X165816302Y-104049543D01*
X165827037Y-104046998D01*
X165827042Y-104046998D01*
X165899131Y-104020759D01*
X165901667Y-104019878D01*
X165974440Y-103995765D01*
X165974443Y-103995763D01*
X165984448Y-103991098D01*
X165984732Y-103991707D01*
X165984972Y-103991591D01*
X165984670Y-103990990D01*
X165994531Y-103986036D01*
X165994539Y-103986034D01*
X166058588Y-103943906D01*
X166060912Y-103942427D01*
X166115773Y-103908588D01*
X166126149Y-103902188D01*
X166126156Y-103902180D01*
X166134803Y-103895344D01*
X166135222Y-103895874D01*
X166135438Y-103895698D01*
X166135004Y-103895181D01*
X166143450Y-103888092D01*
X166143462Y-103888085D01*
X166196109Y-103832281D01*
X166197951Y-103830384D01*
X167410884Y-102617452D01*
X167431713Y-102599453D01*
X167447572Y-102587648D01*
X167480813Y-102548031D01*
X167486382Y-102541954D01*
X167491323Y-102537015D01*
X167511167Y-102511916D01*
X167512881Y-102509814D01*
X167562146Y-102451103D01*
X167562151Y-102451092D01*
X167568213Y-102441878D01*
X167568776Y-102442248D01*
X167568919Y-102442025D01*
X167568346Y-102441672D01*
X167574142Y-102432274D01*
X167574142Y-102432273D01*
X167574145Y-102432270D01*
X167606560Y-102362752D01*
X167607720Y-102360357D01*
X167642144Y-102291816D01*
X167642146Y-102291807D01*
X167645919Y-102281442D01*
X167646549Y-102281671D01*
X167646638Y-102281417D01*
X167646001Y-102281206D01*
X167649474Y-102270725D01*
X167649473Y-102270725D01*
X167649475Y-102270723D01*
X167664971Y-102195664D01*
X167665568Y-102192976D01*
X167670433Y-102172449D01*
X167683250Y-102118373D01*
X167683250Y-102118370D01*
X167683251Y-102118366D01*
X167684532Y-102107409D01*
X167685193Y-102107486D01*
X167685222Y-102107210D01*
X167684557Y-102107152D01*
X167685519Y-102096156D01*
X167683290Y-102019543D01*
X167683250Y-102016787D01*
X167683250Y-101011210D01*
X167702016Y-100928989D01*
X167750600Y-100866332D01*
X167901150Y-100739400D01*
X168046201Y-100567359D01*
X168113544Y-100516599D01*
X168196246Y-100500083D01*
X168277925Y-100521085D01*
X168335954Y-100567362D01*
X168480702Y-100739042D01*
X168480707Y-100739047D01*
X168660427Y-100890574D01*
X168863178Y-101009553D01*
X168863179Y-101009554D01*
X169083115Y-101092554D01*
X169083121Y-101092555D01*
X169206750Y-101116465D01*
X169206750Y-99689500D01*
X169225516Y-99607279D01*
X169278099Y-99541343D01*
X169354082Y-99504751D01*
X169396250Y-99500000D01*
X169525250Y-99500000D01*
X169607471Y-99518766D01*
X169673407Y-99571349D01*
X169709999Y-99647332D01*
X169714750Y-99689500D01*
X169714750Y-101116464D01*
X169838378Y-101092555D01*
X169838384Y-101092554D01*
X170058320Y-101009554D01*
X170058321Y-101009553D01*
X170261072Y-100890574D01*
X170440792Y-100739047D01*
X170440797Y-100739042D01*
X170585545Y-100567362D01*
X170652891Y-100516599D01*
X170735594Y-100500083D01*
X170817272Y-100521085D01*
X170875300Y-100567361D01*
X171020350Y-100739400D01*
X171089696Y-100797867D01*
X171200140Y-100890986D01*
X171238249Y-100913349D01*
X171402963Y-101010007D01*
X171622983Y-101093039D01*
X171622992Y-101093040D01*
X171622993Y-101093041D01*
X171853859Y-101137691D01*
X171853863Y-101137691D01*
X171853871Y-101137693D01*
X171906715Y-101140500D01*
X172094784Y-101140499D01*
X172103350Y-101140044D01*
X172147624Y-101137694D01*
X172195114Y-101128509D01*
X172378517Y-101093039D01*
X172598537Y-101010007D01*
X172801359Y-100890986D01*
X172981150Y-100739400D01*
X173132736Y-100559609D01*
X173251757Y-100356787D01*
X173334789Y-100136767D01*
X173369000Y-99959875D01*
X173379441Y-99905890D01*
X173379441Y-99905888D01*
X173379443Y-99905879D01*
X173382250Y-99853035D01*
X173382250Y-99689499D01*
X173401016Y-99607279D01*
X173453599Y-99541343D01*
X173529582Y-99504751D01*
X173571750Y-99500000D01*
X174556000Y-99500000D01*
X174638221Y-99518766D01*
X174704157Y-99571349D01*
X174740749Y-99647332D01*
X174745500Y-99689500D01*
X174745500Y-107556000D01*
X174726734Y-107638221D01*
X174674151Y-107704157D01*
X174598168Y-107740749D01*
X174556000Y-107745500D01*
X125444000Y-107745500D01*
X125361779Y-107726734D01*
X125295843Y-107674151D01*
X125259251Y-107598168D01*
X125254500Y-107556000D01*
X125254500Y-104999999D01*
X126994659Y-104999999D01*
X127013976Y-105196136D01*
X127071185Y-105384727D01*
X127164088Y-105558535D01*
X127164090Y-105558538D01*
X127289117Y-105710883D01*
X127441462Y-105835910D01*
X127441464Y-105835911D01*
X127615272Y-105928814D01*
X127803863Y-105986023D01*
X127803865Y-105986023D01*
X127803868Y-105986024D01*
X128000000Y-106005341D01*
X128196132Y-105986024D01*
X128196134Y-105986023D01*
X128196136Y-105986023D01*
X128384727Y-105928814D01*
X128384727Y-105928813D01*
X128558538Y-105835910D01*
X128710883Y-105710883D01*
X128835910Y-105558538D01*
X128928814Y-105384727D01*
X128986024Y-105196132D01*
X129005341Y-105000000D01*
X128986024Y-104803868D01*
X128986023Y-104803865D01*
X128986023Y-104803863D01*
X128928814Y-104615272D01*
X128835911Y-104441464D01*
X128835910Y-104441462D01*
X128710883Y-104289117D01*
X128558538Y-104164090D01*
X128558536Y-104164089D01*
X128558535Y-104164088D01*
X128384727Y-104071185D01*
X128196136Y-104013976D01*
X128039226Y-103998522D01*
X128000000Y-103994659D01*
X127999999Y-103994659D01*
X127803863Y-104013976D01*
X127615272Y-104071185D01*
X127441464Y-104164088D01*
X127289120Y-104289114D01*
X127289114Y-104289120D01*
X127164088Y-104441464D01*
X127071185Y-104615272D01*
X127013976Y-104803863D01*
X126994659Y-104999999D01*
X125254500Y-104999999D01*
X125254500Y-92413734D01*
X137769001Y-92413734D01*
X137771814Y-92449488D01*
X137771813Y-92449488D01*
X137816295Y-92602593D01*
X137816296Y-92602595D01*
X137897449Y-92739816D01*
X137897451Y-92739819D01*
X138010180Y-92852548D01*
X138010183Y-92852550D01*
X138147404Y-92933703D01*
X138147413Y-92933708D01*
X138300498Y-92978183D01*
X138300501Y-92978184D01*
X138336276Y-92980999D01*
X138796000Y-92980999D01*
X138796000Y-92191501D01*
X138795999Y-92191500D01*
X139304000Y-92191500D01*
X139304000Y-92980998D01*
X139304001Y-92980999D01*
X139763721Y-92980999D01*
X139763734Y-92980998D01*
X139799488Y-92978186D01*
X139952593Y-92933704D01*
X139952595Y-92933703D01*
X140089816Y-92852550D01*
X140089819Y-92852548D01*
X140202548Y-92739819D01*
X140202550Y-92739816D01*
X140283703Y-92602595D01*
X140283708Y-92602586D01*
X140328183Y-92449501D01*
X140328184Y-92449498D01*
X140331000Y-92413723D01*
X140331000Y-92191501D01*
X140330999Y-92191500D01*
X139304000Y-92191500D01*
X138795999Y-92191500D01*
X137769002Y-92191500D01*
X137769001Y-92191501D01*
X137769001Y-92413734D01*
X125254500Y-92413734D01*
X125254500Y-91683499D01*
X137769000Y-91683499D01*
X137769001Y-91683500D01*
X138795999Y-91683500D01*
X138796000Y-91683499D01*
X139304000Y-91683499D01*
X139304001Y-91683500D01*
X140330998Y-91683500D01*
X140330999Y-91683499D01*
X140330999Y-91461278D01*
X140330998Y-91461265D01*
X140328185Y-91425511D01*
X140328186Y-91425511D01*
X140283704Y-91272406D01*
X140283703Y-91272404D01*
X140202550Y-91135183D01*
X140202548Y-91135180D01*
X140089819Y-91022451D01*
X140089816Y-91022449D01*
X139952595Y-90941296D01*
X139952586Y-90941291D01*
X139799501Y-90896816D01*
X139799498Y-90896815D01*
X139763724Y-90894000D01*
X139304001Y-90894000D01*
X139304000Y-90894001D01*
X139304000Y-91683499D01*
X138796000Y-91683499D01*
X138796000Y-91683498D01*
X138796000Y-90894000D01*
X138336278Y-90894000D01*
X138336265Y-90894001D01*
X138300511Y-90896813D01*
X138147406Y-90941295D01*
X138147404Y-90941296D01*
X138010183Y-91022449D01*
X138010180Y-91022451D01*
X137897451Y-91135180D01*
X137897449Y-91135183D01*
X137816296Y-91272404D01*
X137816291Y-91272413D01*
X137771816Y-91425498D01*
X137771815Y-91425501D01*
X137769000Y-91461276D01*
X137769000Y-91683499D01*
X125254500Y-91683499D01*
X125254500Y-89091500D01*
X143449001Y-89091500D01*
X143449001Y-89313734D01*
X143451814Y-89349488D01*
X143451813Y-89349488D01*
X143496295Y-89502593D01*
X143496296Y-89502595D01*
X143577449Y-89639816D01*
X143577451Y-89639819D01*
X143690180Y-89752548D01*
X143690183Y-89752550D01*
X143827404Y-89833703D01*
X143827413Y-89833708D01*
X143980498Y-89878183D01*
X143980501Y-89878184D01*
X144016276Y-89880999D01*
X144476000Y-89880999D01*
X144476000Y-89880998D01*
X144984000Y-89880998D01*
X144984001Y-89880999D01*
X145443721Y-89880999D01*
X145443734Y-89880998D01*
X145479488Y-89878186D01*
X145632593Y-89833704D01*
X145632595Y-89833703D01*
X145769816Y-89752550D01*
X145769819Y-89752548D01*
X145882548Y-89639819D01*
X145882550Y-89639816D01*
X145963703Y-89502595D01*
X145963708Y-89502586D01*
X146008183Y-89349501D01*
X146008184Y-89349498D01*
X146011000Y-89313723D01*
X146011000Y-89091501D01*
X146010999Y-89091500D01*
X144984001Y-89091500D01*
X144984000Y-89091501D01*
X144984000Y-89880998D01*
X144476000Y-89880998D01*
X144476000Y-89091501D01*
X144475999Y-89091500D01*
X143449001Y-89091500D01*
X125254500Y-89091500D01*
X125254500Y-88583498D01*
X143449000Y-88583498D01*
X143449001Y-88583500D01*
X144475999Y-88583500D01*
X144476000Y-88583499D01*
X144984000Y-88583499D01*
X144984001Y-88583500D01*
X146010998Y-88583500D01*
X146010999Y-88583499D01*
X146010999Y-88361278D01*
X146010998Y-88361265D01*
X146008185Y-88325511D01*
X146008186Y-88325511D01*
X145963704Y-88172406D01*
X145963703Y-88172404D01*
X145882550Y-88035183D01*
X145882548Y-88035180D01*
X145769819Y-87922451D01*
X145769816Y-87922449D01*
X145632595Y-87841296D01*
X145632586Y-87841291D01*
X145479501Y-87796816D01*
X145479498Y-87796815D01*
X145443724Y-87794000D01*
X144984001Y-87794000D01*
X144984000Y-87794001D01*
X144984000Y-88583499D01*
X144476000Y-88583499D01*
X144476000Y-88583498D01*
X144476000Y-87794000D01*
X144016278Y-87794000D01*
X144016265Y-87794001D01*
X143980511Y-87796813D01*
X143827406Y-87841295D01*
X143827404Y-87841296D01*
X143690183Y-87922449D01*
X143690180Y-87922451D01*
X143577451Y-88035180D01*
X143577449Y-88035183D01*
X143496296Y-88172404D01*
X143496291Y-88172413D01*
X143451816Y-88325498D01*
X143451815Y-88325501D01*
X143449000Y-88361276D01*
X143449000Y-88583498D01*
X125254500Y-88583498D01*
X125254500Y-70111234D01*
X130689001Y-70111234D01*
X130691814Y-70146988D01*
X130691813Y-70146988D01*
X130736295Y-70300093D01*
X130736296Y-70300095D01*
X130817449Y-70437316D01*
X130817451Y-70437319D01*
X130930180Y-70550048D01*
X130930183Y-70550050D01*
X131067404Y-70631203D01*
X131067413Y-70631208D01*
X131220498Y-70675683D01*
X131220501Y-70675684D01*
X131256276Y-70678499D01*
X131715999Y-70678499D01*
X131715999Y-70678498D01*
X132224000Y-70678498D01*
X132224001Y-70678499D01*
X132683721Y-70678499D01*
X132683734Y-70678498D01*
X132719488Y-70675686D01*
X132872593Y-70631204D01*
X132872595Y-70631203D01*
X133009816Y-70550050D01*
X133009819Y-70550048D01*
X133122548Y-70437319D01*
X133122550Y-70437316D01*
X133203703Y-70300095D01*
X133203708Y-70300086D01*
X133248183Y-70147001D01*
X133248184Y-70146998D01*
X133251000Y-70111223D01*
X133251000Y-70108722D01*
X142101500Y-70108722D01*
X142104315Y-70144497D01*
X142104316Y-70144500D01*
X142148792Y-70297588D01*
X142148793Y-70297589D01*
X142229945Y-70434811D01*
X142229947Y-70434814D01*
X142342685Y-70547552D01*
X142342688Y-70547554D01*
X142479910Y-70628706D01*
X142479911Y-70628707D01*
X142632999Y-70673183D01*
X142633002Y-70673184D01*
X142668777Y-70676000D01*
X142940999Y-70676000D01*
X142941000Y-70675999D01*
X143449000Y-70675999D01*
X143449001Y-70676000D01*
X143721223Y-70676000D01*
X143756997Y-70673184D01*
X143757000Y-70673183D01*
X143910088Y-70628707D01*
X143910089Y-70628706D01*
X144047311Y-70547554D01*
X144047314Y-70547552D01*
X144160052Y-70434814D01*
X144160054Y-70434811D01*
X144241206Y-70297589D01*
X144241207Y-70297588D01*
X144285683Y-70144500D01*
X144285684Y-70144497D01*
X144288496Y-70108768D01*
X145076000Y-70108768D01*
X145076001Y-70108776D01*
X145078816Y-70144564D01*
X145078817Y-70144570D01*
X145079523Y-70147001D01*
X145123332Y-70297792D01*
X145124689Y-70300086D01*
X145204549Y-70435123D01*
X145204550Y-70435124D01*
X145204552Y-70435127D01*
X145317373Y-70547948D01*
X145454708Y-70629168D01*
X145607927Y-70673682D01*
X145643731Y-70676500D01*
X146696268Y-70676499D01*
X146716295Y-70674923D01*
X146732064Y-70673683D01*
X146732067Y-70673682D01*
X146732073Y-70673682D01*
X146885292Y-70629168D01*
X147022627Y-70547948D01*
X147135448Y-70435127D01*
X147216668Y-70297792D01*
X147224820Y-70269731D01*
X147247366Y-70192131D01*
X147288326Y-70118410D01*
X147357216Y-70069762D01*
X147429341Y-70055500D01*
X147935659Y-70055500D01*
X148017880Y-70074266D01*
X148083816Y-70126849D01*
X148117634Y-70192131D01*
X148148331Y-70297791D01*
X148229549Y-70435124D01*
X148229551Y-70435127D01*
X148342373Y-70547949D01*
X148479708Y-70629168D01*
X148632926Y-70673682D01*
X148668730Y-70676500D01*
X148668731Y-70676500D01*
X149596269Y-70676500D01*
X149596270Y-70676500D01*
X149632074Y-70673682D01*
X149785292Y-70629168D01*
X149922627Y-70547949D01*
X150035449Y-70435127D01*
X150116668Y-70297792D01*
X150161182Y-70144574D01*
X150164000Y-70108770D01*
X150164000Y-68731230D01*
X150161182Y-68695426D01*
X150116668Y-68542208D01*
X150035449Y-68404873D01*
X149922627Y-68292051D01*
X149785292Y-68210832D01*
X149632074Y-68166318D01*
X149596270Y-68163500D01*
X148668730Y-68163500D01*
X148662365Y-68164001D01*
X148632926Y-68166318D01*
X148479705Y-68210833D01*
X148342375Y-68292049D01*
X148229549Y-68404875D01*
X148148331Y-68542208D01*
X148117634Y-68647869D01*
X148076674Y-68721590D01*
X148007784Y-68770238D01*
X147935659Y-68784500D01*
X147429340Y-68784500D01*
X147347119Y-68765734D01*
X147281183Y-68713151D01*
X147247365Y-68647869D01*
X147216668Y-68542208D01*
X147176057Y-68473540D01*
X147135450Y-68404876D01*
X147135449Y-68404875D01*
X147135448Y-68404873D01*
X147022627Y-68292052D01*
X147022624Y-68292050D01*
X147022623Y-68292049D01*
X146885294Y-68210833D01*
X146885293Y-68210832D01*
X146885292Y-68210832D01*
X146732073Y-68166318D01*
X146696269Y-68163500D01*
X146696267Y-68163500D01*
X145643731Y-68163500D01*
X145643723Y-68163501D01*
X145607935Y-68166316D01*
X145607929Y-68166317D01*
X145531317Y-68188575D01*
X145454708Y-68210832D01*
X145454706Y-68210832D01*
X145454706Y-68210833D01*
X145317376Y-68292049D01*
X145204549Y-68404876D01*
X145123333Y-68542205D01*
X145078818Y-68695426D01*
X145076000Y-68731232D01*
X145076000Y-70108768D01*
X144288496Y-70108768D01*
X144288500Y-70108722D01*
X144288500Y-69674001D01*
X144288499Y-69674000D01*
X143449001Y-69674000D01*
X143449000Y-69674001D01*
X143449000Y-70675999D01*
X142941000Y-70675999D01*
X142941000Y-69674001D01*
X142940999Y-69674000D01*
X142101501Y-69674000D01*
X142101500Y-69674001D01*
X142101500Y-70108722D01*
X133251000Y-70108722D01*
X133251000Y-69889001D01*
X133250999Y-69889000D01*
X132224001Y-69889000D01*
X132224000Y-69889001D01*
X132224000Y-70678498D01*
X131715999Y-70678498D01*
X131715999Y-69889000D01*
X130689002Y-69889000D01*
X130689001Y-69889001D01*
X130689001Y-70111234D01*
X125254500Y-70111234D01*
X125254500Y-69380999D01*
X130689000Y-69380999D01*
X130689001Y-69381000D01*
X131715999Y-69381000D01*
X131716000Y-69380999D01*
X132224000Y-69380999D01*
X132224001Y-69381000D01*
X133250998Y-69381000D01*
X133250998Y-69380999D01*
X133250999Y-69165999D01*
X142101500Y-69165999D01*
X142101501Y-69166000D01*
X142940999Y-69166000D01*
X142941000Y-69165999D01*
X143449000Y-69165999D01*
X143449001Y-69166000D01*
X144288499Y-69166000D01*
X144288500Y-69165999D01*
X144288500Y-68731277D01*
X144285684Y-68695502D01*
X144285683Y-68695499D01*
X144241207Y-68542411D01*
X144241206Y-68542410D01*
X144160054Y-68405188D01*
X144160052Y-68405185D01*
X144047314Y-68292447D01*
X144047311Y-68292445D01*
X143910089Y-68211293D01*
X143910088Y-68211292D01*
X143757000Y-68166816D01*
X143756997Y-68166815D01*
X143721223Y-68164000D01*
X143449001Y-68164000D01*
X143449000Y-68164001D01*
X143449000Y-69165999D01*
X142941000Y-69165999D01*
X142941000Y-68164001D01*
X142940999Y-68164000D01*
X142668777Y-68164000D01*
X142633002Y-68166815D01*
X142632999Y-68166816D01*
X142479911Y-68211292D01*
X142479910Y-68211293D01*
X142342688Y-68292445D01*
X142342685Y-68292447D01*
X142229947Y-68405185D01*
X142229945Y-68405188D01*
X142148793Y-68542410D01*
X142148792Y-68542411D01*
X142104316Y-68695499D01*
X142104315Y-68695502D01*
X142101500Y-68731277D01*
X142101500Y-69165999D01*
X133250999Y-69165999D01*
X133250999Y-69158778D01*
X133250998Y-69158765D01*
X133248185Y-69123011D01*
X133248186Y-69123011D01*
X133203704Y-68969906D01*
X133203703Y-68969904D01*
X133122550Y-68832683D01*
X133122548Y-68832680D01*
X133009819Y-68719951D01*
X133009816Y-68719949D01*
X132872595Y-68638796D01*
X132872586Y-68638791D01*
X132719501Y-68594316D01*
X132719498Y-68594315D01*
X132683724Y-68591500D01*
X132224001Y-68591500D01*
X132224000Y-68591501D01*
X132224000Y-69380999D01*
X131716000Y-69380999D01*
X131716000Y-69380998D01*
X131716000Y-68591500D01*
X131256278Y-68591500D01*
X131256265Y-68591501D01*
X131220511Y-68594313D01*
X131067406Y-68638795D01*
X131067404Y-68638796D01*
X130930183Y-68719949D01*
X130930180Y-68719951D01*
X130817451Y-68832680D01*
X130817449Y-68832683D01*
X130736296Y-68969904D01*
X130736291Y-68969913D01*
X130691816Y-69122998D01*
X130691815Y-69123001D01*
X130689000Y-69158776D01*
X130689000Y-69380999D01*
X125254500Y-69380999D01*
X125254500Y-67000000D01*
X126994659Y-67000000D01*
X127013976Y-67196136D01*
X127071185Y-67384727D01*
X127164088Y-67558535D01*
X127164090Y-67558538D01*
X127289117Y-67710883D01*
X127441462Y-67835910D01*
X127441464Y-67835911D01*
X127615272Y-67928814D01*
X127803863Y-67986023D01*
X127803865Y-67986023D01*
X127803868Y-67986024D01*
X128000000Y-68005341D01*
X128196132Y-67986024D01*
X128196134Y-67986023D01*
X128196136Y-67986023D01*
X128384727Y-67928814D01*
X128384726Y-67928813D01*
X128558538Y-67835910D01*
X128710883Y-67710883D01*
X128835910Y-67558538D01*
X128928814Y-67384727D01*
X128955247Y-67297589D01*
X128986023Y-67196136D01*
X128986023Y-67196134D01*
X128986024Y-67196132D01*
X129005341Y-67000000D01*
X128986024Y-66803868D01*
X128986023Y-66803865D01*
X128986023Y-66803863D01*
X128946629Y-66674000D01*
X142101500Y-66674000D01*
X142101500Y-67108722D01*
X142104315Y-67144497D01*
X142104316Y-67144500D01*
X142148792Y-67297588D01*
X142148793Y-67297589D01*
X142229945Y-67434811D01*
X142229947Y-67434814D01*
X142342685Y-67547552D01*
X142342688Y-67547554D01*
X142479910Y-67628706D01*
X142479911Y-67628707D01*
X142632999Y-67673183D01*
X142633002Y-67673184D01*
X142668777Y-67676000D01*
X142940999Y-67676000D01*
X142941000Y-67675998D01*
X142941000Y-66674001D01*
X142940999Y-66674000D01*
X143449000Y-66674000D01*
X143449000Y-67675998D01*
X143449001Y-67676000D01*
X143721223Y-67676000D01*
X143756997Y-67673184D01*
X143757000Y-67673183D01*
X143910088Y-67628707D01*
X143910089Y-67628706D01*
X144047311Y-67547554D01*
X144047314Y-67547552D01*
X144160052Y-67434814D01*
X144160054Y-67434811D01*
X144241206Y-67297589D01*
X144241207Y-67297588D01*
X144285683Y-67144500D01*
X144285684Y-67144497D01*
X144288496Y-67108768D01*
X145076000Y-67108768D01*
X145076001Y-67108776D01*
X145078816Y-67144564D01*
X145078817Y-67144570D01*
X145078818Y-67144573D01*
X145123332Y-67297792D01*
X145155149Y-67351592D01*
X145204549Y-67435123D01*
X145204550Y-67435124D01*
X145204552Y-67435127D01*
X145317373Y-67547948D01*
X145317375Y-67547949D01*
X145317376Y-67547950D01*
X145386040Y-67588558D01*
X145454708Y-67629168D01*
X145607927Y-67673682D01*
X145643731Y-67676500D01*
X146696268Y-67676499D01*
X146716295Y-67674923D01*
X146732064Y-67673683D01*
X146732067Y-67673682D01*
X146732073Y-67673682D01*
X146885292Y-67629168D01*
X147022627Y-67547948D01*
X147135448Y-67435127D01*
X147216668Y-67297792D01*
X147224820Y-67269731D01*
X147247366Y-67192131D01*
X147288326Y-67118410D01*
X147357216Y-67069762D01*
X147429341Y-67055500D01*
X147935659Y-67055500D01*
X148017880Y-67074266D01*
X148083816Y-67126849D01*
X148117634Y-67192131D01*
X148148331Y-67297791D01*
X148229549Y-67435124D01*
X148229551Y-67435127D01*
X148342373Y-67547949D01*
X148479708Y-67629168D01*
X148632926Y-67673682D01*
X148668730Y-67676500D01*
X148668731Y-67676500D01*
X149596269Y-67676500D01*
X149596270Y-67676500D01*
X149632074Y-67673682D01*
X149785292Y-67629168D01*
X149922627Y-67547949D01*
X150035449Y-67435127D01*
X150116668Y-67297792D01*
X150161182Y-67144574D01*
X150164000Y-67108770D01*
X150164000Y-65731230D01*
X150161182Y-65695426D01*
X150116668Y-65542208D01*
X150035449Y-65404873D01*
X149922627Y-65292051D01*
X149785292Y-65210832D01*
X149632074Y-65166318D01*
X149596270Y-65163500D01*
X148668730Y-65163500D01*
X148662365Y-65164001D01*
X148632926Y-65166318D01*
X148479705Y-65210833D01*
X148342375Y-65292049D01*
X148229549Y-65404875D01*
X148148331Y-65542208D01*
X148117634Y-65647869D01*
X148076674Y-65721590D01*
X148007784Y-65770238D01*
X147935659Y-65784500D01*
X147429340Y-65784500D01*
X147347119Y-65765734D01*
X147281183Y-65713151D01*
X147247365Y-65647869D01*
X147216668Y-65542208D01*
X147176057Y-65473540D01*
X147135450Y-65404876D01*
X147135449Y-65404875D01*
X147135448Y-65404873D01*
X147022627Y-65292052D01*
X147022624Y-65292050D01*
X147022623Y-65292049D01*
X146885294Y-65210833D01*
X146885293Y-65210832D01*
X146885292Y-65210832D01*
X146732073Y-65166318D01*
X146696269Y-65163500D01*
X146696267Y-65163500D01*
X145643731Y-65163500D01*
X145643723Y-65163501D01*
X145607935Y-65166316D01*
X145607929Y-65166317D01*
X145531317Y-65188575D01*
X145454708Y-65210832D01*
X145454706Y-65210832D01*
X145454706Y-65210833D01*
X145317376Y-65292049D01*
X145204549Y-65404876D01*
X145123333Y-65542205D01*
X145078818Y-65695426D01*
X145076000Y-65731232D01*
X145076000Y-67108768D01*
X144288496Y-67108768D01*
X144288500Y-67108722D01*
X144288500Y-66674001D01*
X144288499Y-66674000D01*
X143449000Y-66674000D01*
X142940999Y-66674000D01*
X142101500Y-66674000D01*
X128946629Y-66674000D01*
X128928814Y-66615272D01*
X128835911Y-66441464D01*
X128835910Y-66441462D01*
X128710883Y-66289117D01*
X128560864Y-66165999D01*
X142101500Y-66165999D01*
X142101501Y-66166000D01*
X142940999Y-66166000D01*
X142941000Y-66165999D01*
X142941000Y-66165998D01*
X143449000Y-66165998D01*
X143449001Y-66166000D01*
X144288499Y-66166000D01*
X144288500Y-66165998D01*
X144288500Y-65731277D01*
X144285684Y-65695502D01*
X144285683Y-65695499D01*
X144241207Y-65542411D01*
X144241206Y-65542410D01*
X144160054Y-65405188D01*
X144160052Y-65405185D01*
X144047314Y-65292447D01*
X144047311Y-65292445D01*
X143910089Y-65211293D01*
X143910088Y-65211292D01*
X143757000Y-65166816D01*
X143756997Y-65166815D01*
X143721223Y-65164000D01*
X143449001Y-65164000D01*
X143449000Y-65164001D01*
X143449000Y-66165998D01*
X142941000Y-66165998D01*
X142941000Y-65164001D01*
X142940999Y-65164000D01*
X142668777Y-65164000D01*
X142633002Y-65166815D01*
X142632999Y-65166816D01*
X142479911Y-65211292D01*
X142479910Y-65211293D01*
X142342688Y-65292445D01*
X142342685Y-65292447D01*
X142229947Y-65405185D01*
X142229945Y-65405188D01*
X142148793Y-65542410D01*
X142148792Y-65542411D01*
X142104316Y-65695499D01*
X142104315Y-65695502D01*
X142101500Y-65731277D01*
X142101500Y-66165999D01*
X128560864Y-66165999D01*
X128558538Y-66164090D01*
X128558536Y-66164089D01*
X128558535Y-66164088D01*
X128384727Y-66071185D01*
X128196136Y-66013976D01*
X128000000Y-65994659D01*
X127803863Y-66013976D01*
X127615272Y-66071185D01*
X127441464Y-66164088D01*
X127289120Y-66289114D01*
X127289114Y-66289120D01*
X127164088Y-66441464D01*
X127071185Y-66615272D01*
X127013976Y-66803863D01*
X126994659Y-67000000D01*
X125254500Y-67000000D01*
X125254500Y-64444000D01*
X125273266Y-64361779D01*
X125325849Y-64295843D01*
X125401832Y-64259251D01*
X125444000Y-64254500D01*
X174556000Y-64254500D01*
X174638221Y-64273266D01*
G37*
%TD.AperFunction*%
%TD*%
M02*
