%TF.GenerationSoftware,KiCad,Pcbnew,7.0.5*%
%TF.CreationDate,2023-10-11T12:47:38-04:00*%
%TF.ProjectId,Board_To_Be_Tested,426f6172-645f-4546-9f5f-42655f546573,rev?*%
%TF.SameCoordinates,Original*%
%TF.FileFunction,Drillmap*%
%TF.FilePolarity,Positive*%
%FSLAX45Y45*%
G04 Gerber Fmt 4.5, Leading zero omitted, Abs format (unit mm)*
G04 Created by KiCad (PCBNEW 7.0.5) date 2023-10-11 12:47:38*
%MOMM*%
%LPD*%
G01*
G04 APERTURE LIST*
%ADD10C,0.100000*%
%ADD11C,0.200000*%
%ADD12C,0.038100*%
G04 APERTURE END LIST*
D10*
X17500000Y-8600000D02*
X16900000Y-8600000D01*
X16900000Y-9500000D01*
X17500000Y-9500000D01*
X17500000Y-10800000D01*
X12500000Y-10800000D01*
X12500000Y-6400000D01*
X17500000Y-6400000D01*
X17500000Y-8600000D01*
D11*
D12*
X13220950Y-8564950D02*
X13259050Y-8603050D01*
X13259050Y-8564950D02*
X13220950Y-8603050D01*
X14200950Y-9490950D02*
X14239050Y-9529050D01*
X14239050Y-9490950D02*
X14200950Y-9529050D01*
D11*
X12755777Y-11116484D02*
X12755777Y-10916484D01*
X12755777Y-10916484D02*
X12803396Y-10916484D01*
X12803396Y-10916484D02*
X12831967Y-10926008D01*
X12831967Y-10926008D02*
X12851015Y-10945055D01*
X12851015Y-10945055D02*
X12860539Y-10964103D01*
X12860539Y-10964103D02*
X12870062Y-11002198D01*
X12870062Y-11002198D02*
X12870062Y-11030770D01*
X12870062Y-11030770D02*
X12860539Y-11068865D01*
X12860539Y-11068865D02*
X12851015Y-11087912D01*
X12851015Y-11087912D02*
X12831967Y-11106960D01*
X12831967Y-11106960D02*
X12803396Y-11116484D01*
X12803396Y-11116484D02*
X12755777Y-11116484D01*
X12955777Y-11116484D02*
X12955777Y-10983150D01*
X12955777Y-11021246D02*
X12965301Y-11002198D01*
X12965301Y-11002198D02*
X12974824Y-10992674D01*
X12974824Y-10992674D02*
X12993872Y-10983150D01*
X12993872Y-10983150D02*
X13012920Y-10983150D01*
X13079586Y-11116484D02*
X13079586Y-10983150D01*
X13079586Y-10916484D02*
X13070062Y-10926008D01*
X13070062Y-10926008D02*
X13079586Y-10935531D01*
X13079586Y-10935531D02*
X13089110Y-10926008D01*
X13089110Y-10926008D02*
X13079586Y-10916484D01*
X13079586Y-10916484D02*
X13079586Y-10935531D01*
X13203396Y-11116484D02*
X13184348Y-11106960D01*
X13184348Y-11106960D02*
X13174824Y-11087912D01*
X13174824Y-11087912D02*
X13174824Y-10916484D01*
X13308158Y-11116484D02*
X13289110Y-11106960D01*
X13289110Y-11106960D02*
X13279586Y-11087912D01*
X13279586Y-11087912D02*
X13279586Y-10916484D01*
X13536729Y-11116484D02*
X13536729Y-10916484D01*
X13536729Y-10916484D02*
X13603396Y-11059341D01*
X13603396Y-11059341D02*
X13670062Y-10916484D01*
X13670062Y-10916484D02*
X13670062Y-11116484D01*
X13851015Y-11116484D02*
X13851015Y-11011722D01*
X13851015Y-11011722D02*
X13841491Y-10992674D01*
X13841491Y-10992674D02*
X13822443Y-10983150D01*
X13822443Y-10983150D02*
X13784348Y-10983150D01*
X13784348Y-10983150D02*
X13765301Y-10992674D01*
X13851015Y-11106960D02*
X13831967Y-11116484D01*
X13831967Y-11116484D02*
X13784348Y-11116484D01*
X13784348Y-11116484D02*
X13765301Y-11106960D01*
X13765301Y-11106960D02*
X13755777Y-11087912D01*
X13755777Y-11087912D02*
X13755777Y-11068865D01*
X13755777Y-11068865D02*
X13765301Y-11049817D01*
X13765301Y-11049817D02*
X13784348Y-11040293D01*
X13784348Y-11040293D02*
X13831967Y-11040293D01*
X13831967Y-11040293D02*
X13851015Y-11030770D01*
X13946253Y-10983150D02*
X13946253Y-11183150D01*
X13946253Y-10992674D02*
X13965301Y-10983150D01*
X13965301Y-10983150D02*
X14003396Y-10983150D01*
X14003396Y-10983150D02*
X14022443Y-10992674D01*
X14022443Y-10992674D02*
X14031967Y-11002198D01*
X14031967Y-11002198D02*
X14041491Y-11021246D01*
X14041491Y-11021246D02*
X14041491Y-11078389D01*
X14041491Y-11078389D02*
X14031967Y-11097436D01*
X14031967Y-11097436D02*
X14022443Y-11106960D01*
X14022443Y-11106960D02*
X14003396Y-11116484D01*
X14003396Y-11116484D02*
X13965301Y-11116484D01*
X13965301Y-11116484D02*
X13946253Y-11106960D01*
X14127205Y-11097436D02*
X14136729Y-11106960D01*
X14136729Y-11106960D02*
X14127205Y-11116484D01*
X14127205Y-11116484D02*
X14117682Y-11106960D01*
X14117682Y-11106960D02*
X14127205Y-11097436D01*
X14127205Y-11097436D02*
X14127205Y-11116484D01*
X14127205Y-10992674D02*
X14136729Y-11002198D01*
X14136729Y-11002198D02*
X14127205Y-11011722D01*
X14127205Y-11011722D02*
X14117682Y-11002198D01*
X14117682Y-11002198D02*
X14127205Y-10992674D01*
X14127205Y-10992674D02*
X14127205Y-11011722D01*
D12*
X12456900Y-11425950D02*
X12495000Y-11464050D01*
X12495000Y-11425950D02*
X12456900Y-11464050D01*
D11*
X12793872Y-11336484D02*
X12812920Y-11336484D01*
X12812920Y-11336484D02*
X12831967Y-11346008D01*
X12831967Y-11346008D02*
X12841491Y-11355531D01*
X12841491Y-11355531D02*
X12851015Y-11374579D01*
X12851015Y-11374579D02*
X12860539Y-11412674D01*
X12860539Y-11412674D02*
X12860539Y-11460293D01*
X12860539Y-11460293D02*
X12851015Y-11498388D01*
X12851015Y-11498388D02*
X12841491Y-11517436D01*
X12841491Y-11517436D02*
X12831967Y-11526960D01*
X12831967Y-11526960D02*
X12812920Y-11536484D01*
X12812920Y-11536484D02*
X12793872Y-11536484D01*
X12793872Y-11536484D02*
X12774824Y-11526960D01*
X12774824Y-11526960D02*
X12765301Y-11517436D01*
X12765301Y-11517436D02*
X12755777Y-11498388D01*
X12755777Y-11498388D02*
X12746253Y-11460293D01*
X12746253Y-11460293D02*
X12746253Y-11412674D01*
X12746253Y-11412674D02*
X12755777Y-11374579D01*
X12755777Y-11374579D02*
X12765301Y-11355531D01*
X12765301Y-11355531D02*
X12774824Y-11346008D01*
X12774824Y-11346008D02*
X12793872Y-11336484D01*
X12946253Y-11517436D02*
X12955777Y-11526960D01*
X12955777Y-11526960D02*
X12946253Y-11536484D01*
X12946253Y-11536484D02*
X12936729Y-11526960D01*
X12936729Y-11526960D02*
X12946253Y-11517436D01*
X12946253Y-11517436D02*
X12946253Y-11536484D01*
X13022443Y-11336484D02*
X13146253Y-11336484D01*
X13146253Y-11336484D02*
X13079586Y-11412674D01*
X13079586Y-11412674D02*
X13108158Y-11412674D01*
X13108158Y-11412674D02*
X13127205Y-11422198D01*
X13127205Y-11422198D02*
X13136729Y-11431722D01*
X13136729Y-11431722D02*
X13146253Y-11450769D01*
X13146253Y-11450769D02*
X13146253Y-11498388D01*
X13146253Y-11498388D02*
X13136729Y-11517436D01*
X13136729Y-11517436D02*
X13127205Y-11526960D01*
X13127205Y-11526960D02*
X13108158Y-11536484D01*
X13108158Y-11536484D02*
X13051015Y-11536484D01*
X13051015Y-11536484D02*
X13031967Y-11526960D01*
X13031967Y-11526960D02*
X13022443Y-11517436D01*
X13260539Y-11422198D02*
X13241491Y-11412674D01*
X13241491Y-11412674D02*
X13231967Y-11403150D01*
X13231967Y-11403150D02*
X13222443Y-11384103D01*
X13222443Y-11384103D02*
X13222443Y-11374579D01*
X13222443Y-11374579D02*
X13231967Y-11355531D01*
X13231967Y-11355531D02*
X13241491Y-11346008D01*
X13241491Y-11346008D02*
X13260539Y-11336484D01*
X13260539Y-11336484D02*
X13298634Y-11336484D01*
X13298634Y-11336484D02*
X13317682Y-11346008D01*
X13317682Y-11346008D02*
X13327205Y-11355531D01*
X13327205Y-11355531D02*
X13336729Y-11374579D01*
X13336729Y-11374579D02*
X13336729Y-11384103D01*
X13336729Y-11384103D02*
X13327205Y-11403150D01*
X13327205Y-11403150D02*
X13317682Y-11412674D01*
X13317682Y-11412674D02*
X13298634Y-11422198D01*
X13298634Y-11422198D02*
X13260539Y-11422198D01*
X13260539Y-11422198D02*
X13241491Y-11431722D01*
X13241491Y-11431722D02*
X13231967Y-11441246D01*
X13231967Y-11441246D02*
X13222443Y-11460293D01*
X13222443Y-11460293D02*
X13222443Y-11498388D01*
X13222443Y-11498388D02*
X13231967Y-11517436D01*
X13231967Y-11517436D02*
X13241491Y-11526960D01*
X13241491Y-11526960D02*
X13260539Y-11536484D01*
X13260539Y-11536484D02*
X13298634Y-11536484D01*
X13298634Y-11536484D02*
X13317682Y-11526960D01*
X13317682Y-11526960D02*
X13327205Y-11517436D01*
X13327205Y-11517436D02*
X13336729Y-11498388D01*
X13336729Y-11498388D02*
X13336729Y-11460293D01*
X13336729Y-11460293D02*
X13327205Y-11441246D01*
X13327205Y-11441246D02*
X13317682Y-11431722D01*
X13317682Y-11431722D02*
X13298634Y-11422198D01*
X13527205Y-11536484D02*
X13412920Y-11536484D01*
X13470062Y-11536484D02*
X13470062Y-11336484D01*
X13470062Y-11336484D02*
X13451015Y-11365055D01*
X13451015Y-11365055D02*
X13431967Y-11384103D01*
X13431967Y-11384103D02*
X13412920Y-11393627D01*
X13612920Y-11536484D02*
X13612920Y-11403150D01*
X13612920Y-11422198D02*
X13622443Y-11412674D01*
X13622443Y-11412674D02*
X13641491Y-11403150D01*
X13641491Y-11403150D02*
X13670063Y-11403150D01*
X13670063Y-11403150D02*
X13689110Y-11412674D01*
X13689110Y-11412674D02*
X13698634Y-11431722D01*
X13698634Y-11431722D02*
X13698634Y-11536484D01*
X13698634Y-11431722D02*
X13708158Y-11412674D01*
X13708158Y-11412674D02*
X13727205Y-11403150D01*
X13727205Y-11403150D02*
X13755777Y-11403150D01*
X13755777Y-11403150D02*
X13774824Y-11412674D01*
X13774824Y-11412674D02*
X13784348Y-11431722D01*
X13784348Y-11431722D02*
X13784348Y-11536484D01*
X13879586Y-11536484D02*
X13879586Y-11403150D01*
X13879586Y-11422198D02*
X13889110Y-11412674D01*
X13889110Y-11412674D02*
X13908158Y-11403150D01*
X13908158Y-11403150D02*
X13936729Y-11403150D01*
X13936729Y-11403150D02*
X13955777Y-11412674D01*
X13955777Y-11412674D02*
X13965301Y-11431722D01*
X13965301Y-11431722D02*
X13965301Y-11536484D01*
X13965301Y-11431722D02*
X13974824Y-11412674D01*
X13974824Y-11412674D02*
X13993872Y-11403150D01*
X13993872Y-11403150D02*
X14022443Y-11403150D01*
X14022443Y-11403150D02*
X14041491Y-11412674D01*
X14041491Y-11412674D02*
X14051015Y-11431722D01*
X14051015Y-11431722D02*
X14051015Y-11536484D01*
X14441491Y-11326960D02*
X14270063Y-11584103D01*
X14698634Y-11336484D02*
X14717682Y-11336484D01*
X14717682Y-11336484D02*
X14736729Y-11346008D01*
X14736729Y-11346008D02*
X14746253Y-11355531D01*
X14746253Y-11355531D02*
X14755777Y-11374579D01*
X14755777Y-11374579D02*
X14765301Y-11412674D01*
X14765301Y-11412674D02*
X14765301Y-11460293D01*
X14765301Y-11460293D02*
X14755777Y-11498388D01*
X14755777Y-11498388D02*
X14746253Y-11517436D01*
X14746253Y-11517436D02*
X14736729Y-11526960D01*
X14736729Y-11526960D02*
X14717682Y-11536484D01*
X14717682Y-11536484D02*
X14698634Y-11536484D01*
X14698634Y-11536484D02*
X14679586Y-11526960D01*
X14679586Y-11526960D02*
X14670063Y-11517436D01*
X14670063Y-11517436D02*
X14660539Y-11498388D01*
X14660539Y-11498388D02*
X14651015Y-11460293D01*
X14651015Y-11460293D02*
X14651015Y-11412674D01*
X14651015Y-11412674D02*
X14660539Y-11374579D01*
X14660539Y-11374579D02*
X14670063Y-11355531D01*
X14670063Y-11355531D02*
X14679586Y-11346008D01*
X14679586Y-11346008D02*
X14698634Y-11336484D01*
X14851015Y-11517436D02*
X14860539Y-11526960D01*
X14860539Y-11526960D02*
X14851015Y-11536484D01*
X14851015Y-11536484D02*
X14841491Y-11526960D01*
X14841491Y-11526960D02*
X14851015Y-11517436D01*
X14851015Y-11517436D02*
X14851015Y-11536484D01*
X14984348Y-11336484D02*
X15003396Y-11336484D01*
X15003396Y-11336484D02*
X15022444Y-11346008D01*
X15022444Y-11346008D02*
X15031967Y-11355531D01*
X15031967Y-11355531D02*
X15041491Y-11374579D01*
X15041491Y-11374579D02*
X15051015Y-11412674D01*
X15051015Y-11412674D02*
X15051015Y-11460293D01*
X15051015Y-11460293D02*
X15041491Y-11498388D01*
X15041491Y-11498388D02*
X15031967Y-11517436D01*
X15031967Y-11517436D02*
X15022444Y-11526960D01*
X15022444Y-11526960D02*
X15003396Y-11536484D01*
X15003396Y-11536484D02*
X14984348Y-11536484D01*
X14984348Y-11536484D02*
X14965301Y-11526960D01*
X14965301Y-11526960D02*
X14955777Y-11517436D01*
X14955777Y-11517436D02*
X14946253Y-11498388D01*
X14946253Y-11498388D02*
X14936729Y-11460293D01*
X14936729Y-11460293D02*
X14936729Y-11412674D01*
X14936729Y-11412674D02*
X14946253Y-11374579D01*
X14946253Y-11374579D02*
X14955777Y-11355531D01*
X14955777Y-11355531D02*
X14965301Y-11346008D01*
X14965301Y-11346008D02*
X14984348Y-11336484D01*
X15241491Y-11536484D02*
X15127206Y-11536484D01*
X15184348Y-11536484D02*
X15184348Y-11336484D01*
X15184348Y-11336484D02*
X15165301Y-11365055D01*
X15165301Y-11365055D02*
X15146253Y-11384103D01*
X15146253Y-11384103D02*
X15127206Y-11393627D01*
X15422444Y-11336484D02*
X15327206Y-11336484D01*
X15327206Y-11336484D02*
X15317682Y-11431722D01*
X15317682Y-11431722D02*
X15327206Y-11422198D01*
X15327206Y-11422198D02*
X15346253Y-11412674D01*
X15346253Y-11412674D02*
X15393872Y-11412674D01*
X15393872Y-11412674D02*
X15412920Y-11422198D01*
X15412920Y-11422198D02*
X15422444Y-11431722D01*
X15422444Y-11431722D02*
X15431967Y-11450769D01*
X15431967Y-11450769D02*
X15431967Y-11498388D01*
X15431967Y-11498388D02*
X15422444Y-11517436D01*
X15422444Y-11517436D02*
X15412920Y-11526960D01*
X15412920Y-11526960D02*
X15393872Y-11536484D01*
X15393872Y-11536484D02*
X15346253Y-11536484D01*
X15346253Y-11536484D02*
X15327206Y-11526960D01*
X15327206Y-11526960D02*
X15317682Y-11517436D01*
X15555777Y-11336484D02*
X15574825Y-11336484D01*
X15574825Y-11336484D02*
X15593872Y-11346008D01*
X15593872Y-11346008D02*
X15603396Y-11355531D01*
X15603396Y-11355531D02*
X15612920Y-11374579D01*
X15612920Y-11374579D02*
X15622444Y-11412674D01*
X15622444Y-11412674D02*
X15622444Y-11460293D01*
X15622444Y-11460293D02*
X15612920Y-11498388D01*
X15612920Y-11498388D02*
X15603396Y-11517436D01*
X15603396Y-11517436D02*
X15593872Y-11526960D01*
X15593872Y-11526960D02*
X15574825Y-11536484D01*
X15574825Y-11536484D02*
X15555777Y-11536484D01*
X15555777Y-11536484D02*
X15536729Y-11526960D01*
X15536729Y-11526960D02*
X15527206Y-11517436D01*
X15527206Y-11517436D02*
X15517682Y-11498388D01*
X15517682Y-11498388D02*
X15508158Y-11460293D01*
X15508158Y-11460293D02*
X15508158Y-11412674D01*
X15508158Y-11412674D02*
X15517682Y-11374579D01*
X15517682Y-11374579D02*
X15527206Y-11355531D01*
X15527206Y-11355531D02*
X15536729Y-11346008D01*
X15536729Y-11346008D02*
X15555777Y-11336484D01*
X15698634Y-11336484D02*
X15698634Y-11374579D01*
X15774825Y-11336484D02*
X15774825Y-11374579D01*
X16070063Y-11612674D02*
X16060539Y-11603150D01*
X16060539Y-11603150D02*
X16041491Y-11574579D01*
X16041491Y-11574579D02*
X16031968Y-11555531D01*
X16031968Y-11555531D02*
X16022444Y-11526960D01*
X16022444Y-11526960D02*
X16012920Y-11479341D01*
X16012920Y-11479341D02*
X16012920Y-11441246D01*
X16012920Y-11441246D02*
X16022444Y-11393627D01*
X16022444Y-11393627D02*
X16031968Y-11365055D01*
X16031968Y-11365055D02*
X16041491Y-11346008D01*
X16041491Y-11346008D02*
X16060539Y-11317436D01*
X16060539Y-11317436D02*
X16070063Y-11307912D01*
X16136729Y-11355531D02*
X16146253Y-11346008D01*
X16146253Y-11346008D02*
X16165301Y-11336484D01*
X16165301Y-11336484D02*
X16212920Y-11336484D01*
X16212920Y-11336484D02*
X16231968Y-11346008D01*
X16231968Y-11346008D02*
X16241491Y-11355531D01*
X16241491Y-11355531D02*
X16251015Y-11374579D01*
X16251015Y-11374579D02*
X16251015Y-11393627D01*
X16251015Y-11393627D02*
X16241491Y-11422198D01*
X16241491Y-11422198D02*
X16127206Y-11536484D01*
X16127206Y-11536484D02*
X16251015Y-11536484D01*
X16489110Y-11536484D02*
X16489110Y-11336484D01*
X16574825Y-11536484D02*
X16574825Y-11431722D01*
X16574825Y-11431722D02*
X16565301Y-11412674D01*
X16565301Y-11412674D02*
X16546253Y-11403150D01*
X16546253Y-11403150D02*
X16517682Y-11403150D01*
X16517682Y-11403150D02*
X16498634Y-11412674D01*
X16498634Y-11412674D02*
X16489110Y-11422198D01*
X16698634Y-11536484D02*
X16679587Y-11526960D01*
X16679587Y-11526960D02*
X16670063Y-11517436D01*
X16670063Y-11517436D02*
X16660539Y-11498388D01*
X16660539Y-11498388D02*
X16660539Y-11441246D01*
X16660539Y-11441246D02*
X16670063Y-11422198D01*
X16670063Y-11422198D02*
X16679587Y-11412674D01*
X16679587Y-11412674D02*
X16698634Y-11403150D01*
X16698634Y-11403150D02*
X16727206Y-11403150D01*
X16727206Y-11403150D02*
X16746253Y-11412674D01*
X16746253Y-11412674D02*
X16755777Y-11422198D01*
X16755777Y-11422198D02*
X16765301Y-11441246D01*
X16765301Y-11441246D02*
X16765301Y-11498388D01*
X16765301Y-11498388D02*
X16755777Y-11517436D01*
X16755777Y-11517436D02*
X16746253Y-11526960D01*
X16746253Y-11526960D02*
X16727206Y-11536484D01*
X16727206Y-11536484D02*
X16698634Y-11536484D01*
X16879587Y-11536484D02*
X16860539Y-11526960D01*
X16860539Y-11526960D02*
X16851015Y-11507912D01*
X16851015Y-11507912D02*
X16851015Y-11336484D01*
X17031968Y-11526960D02*
X17012920Y-11536484D01*
X17012920Y-11536484D02*
X16974825Y-11536484D01*
X16974825Y-11536484D02*
X16955777Y-11526960D01*
X16955777Y-11526960D02*
X16946253Y-11507912D01*
X16946253Y-11507912D02*
X16946253Y-11431722D01*
X16946253Y-11431722D02*
X16955777Y-11412674D01*
X16955777Y-11412674D02*
X16974825Y-11403150D01*
X16974825Y-11403150D02*
X17012920Y-11403150D01*
X17012920Y-11403150D02*
X17031968Y-11412674D01*
X17031968Y-11412674D02*
X17041492Y-11431722D01*
X17041492Y-11431722D02*
X17041492Y-11450769D01*
X17041492Y-11450769D02*
X16946253Y-11469817D01*
X17117682Y-11526960D02*
X17136730Y-11536484D01*
X17136730Y-11536484D02*
X17174825Y-11536484D01*
X17174825Y-11536484D02*
X17193873Y-11526960D01*
X17193873Y-11526960D02*
X17203396Y-11507912D01*
X17203396Y-11507912D02*
X17203396Y-11498388D01*
X17203396Y-11498388D02*
X17193873Y-11479341D01*
X17193873Y-11479341D02*
X17174825Y-11469817D01*
X17174825Y-11469817D02*
X17146253Y-11469817D01*
X17146253Y-11469817D02*
X17127206Y-11460293D01*
X17127206Y-11460293D02*
X17117682Y-11441246D01*
X17117682Y-11441246D02*
X17117682Y-11431722D01*
X17117682Y-11431722D02*
X17127206Y-11412674D01*
X17127206Y-11412674D02*
X17146253Y-11403150D01*
X17146253Y-11403150D02*
X17174825Y-11403150D01*
X17174825Y-11403150D02*
X17193873Y-11412674D01*
X17270063Y-11612674D02*
X17279587Y-11603150D01*
X17279587Y-11603150D02*
X17298634Y-11574579D01*
X17298634Y-11574579D02*
X17308158Y-11555531D01*
X17308158Y-11555531D02*
X17317682Y-11526960D01*
X17317682Y-11526960D02*
X17327206Y-11479341D01*
X17327206Y-11479341D02*
X17327206Y-11441246D01*
X17327206Y-11441246D02*
X17317682Y-11393627D01*
X17317682Y-11393627D02*
X17308158Y-11365055D01*
X17308158Y-11365055D02*
X17298634Y-11346008D01*
X17298634Y-11346008D02*
X17279587Y-11317436D01*
X17279587Y-11317436D02*
X17270063Y-11307912D01*
M02*
