%TF.GenerationSoftware,KiCad,Pcbnew,7.0.5*%
%TF.CreationDate,2023-08-20T17:21:48-04:00*%
%TF.ProjectId,RPi_Pico_W_A4988_control_board,5250695f-5069-4636-9f5f-575f41343938,rev?*%
%TF.SameCoordinates,Original*%
%TF.FileFunction,Soldermask,Top*%
%TF.FilePolarity,Negative*%
%FSLAX46Y46*%
G04 Gerber Fmt 4.6, Leading zero omitted, Abs format (unit mm)*
G04 Created by KiCad (PCBNEW 7.0.5) date 2023-08-20 17:21:48*
%MOMM*%
%LPD*%
G01*
G04 APERTURE LIST*
G04 Aperture macros list*
%AMRoundRect*
0 Rectangle with rounded corners*
0 $1 Rounding radius*
0 $2 $3 $4 $5 $6 $7 $8 $9 X,Y pos of 4 corners*
0 Add a 4 corners polygon primitive as box body*
4,1,4,$2,$3,$4,$5,$6,$7,$8,$9,$2,$3,0*
0 Add four circle primitives for the rounded corners*
1,1,$1+$1,$2,$3*
1,1,$1+$1,$4,$5*
1,1,$1+$1,$6,$7*
1,1,$1+$1,$8,$9*
0 Add four rect primitives between the rounded corners*
20,1,$1+$1,$2,$3,$4,$5,0*
20,1,$1+$1,$4,$5,$6,$7,0*
20,1,$1+$1,$6,$7,$8,$9,0*
20,1,$1+$1,$8,$9,$2,$3,0*%
G04 Aperture macros list end*
%ADD10C,1.600000*%
%ADD11R,1.750000X0.950000*%
%ADD12R,1.750000X3.200000*%
%ADD13RoundRect,0.250000X-0.400000X-0.625000X0.400000X-0.625000X0.400000X0.625000X-0.400000X0.625000X0*%
%ADD14R,1.600000X1.600000*%
%ADD15R,1.700000X1.700000*%
%ADD16O,1.700000X1.700000*%
%ADD17RoundRect,0.250000X0.650000X-0.412500X0.650000X0.412500X-0.650000X0.412500X-0.650000X-0.412500X0*%
%ADD18RoundRect,0.250000X0.625000X-0.400000X0.625000X0.400000X-0.625000X0.400000X-0.625000X-0.400000X0*%
%ADD19C,2.500000*%
%ADD20C,3.500000*%
%ADD21RoundRect,1.500000X-5.000000X1.500000X-5.000000X-1.500000X5.000000X-1.500000X5.000000X1.500000X0*%
%ADD22O,1.600000X1.600000*%
%ADD23RoundRect,0.250000X0.400000X0.625000X-0.400000X0.625000X-0.400000X-0.625000X0.400000X-0.625000X0*%
%ADD24RoundRect,0.250001X0.462499X0.624999X-0.462499X0.624999X-0.462499X-0.624999X0.462499X-0.624999X0*%
%ADD25R,2.400000X2.400000*%
%ADD26C,2.400000*%
%ADD27RoundRect,0.250000X0.450000X-0.325000X0.450000X0.325000X-0.450000X0.325000X-0.450000X-0.325000X0*%
%ADD28RoundRect,0.250000X0.412500X0.650000X-0.412500X0.650000X-0.412500X-0.650000X0.412500X-0.650000X0*%
%ADD29RoundRect,0.250000X-0.650000X0.412500X-0.650000X-0.412500X0.650000X-0.412500X0.650000X0.412500X0*%
%ADD30O,3.200000X1.600000*%
%ADD31R,3.200000X1.600000*%
G04 APERTURE END LIST*
D10*
%TO.C,SW1*%
X107950000Y-93550000D03*
X107950000Y-98050000D03*
X114450000Y-93550000D03*
X114450000Y-98050000D03*
%TD*%
D11*
%TO.C,IC1*%
X108940000Y-106100000D03*
X108940000Y-108400000D03*
X108940000Y-110700000D03*
D12*
X115240000Y-108400000D03*
%TD*%
D13*
%TO.C,R38*%
X136450000Y-38700000D03*
X139550000Y-38700000D03*
%TD*%
D14*
%TO.C,C13*%
X178000000Y-38000000D03*
D10*
X178000000Y-40500000D03*
%TD*%
D15*
%TO.C,J2*%
X188250000Y-85510000D03*
D16*
X188250000Y-88050000D03*
X188250000Y-90590000D03*
X188250000Y-93130000D03*
%TD*%
D17*
%TO.C,C9*%
X141700000Y-67242500D03*
X141700000Y-64117500D03*
%TD*%
D15*
%TO.C,J13*%
X156805000Y-119025000D03*
D16*
X156805000Y-121565000D03*
X154265000Y-119025000D03*
X154265000Y-121565000D03*
X151725000Y-119025000D03*
X151725000Y-121565000D03*
%TD*%
D18*
%TO.C,R33*%
X128150000Y-67200000D03*
X128150000Y-64100000D03*
%TD*%
D19*
%TO.C,U1*%
X119905000Y-40550000D03*
X123565000Y-40550000D03*
X128035000Y-40550000D03*
X131695000Y-40550000D03*
%TD*%
D15*
%TO.C,J4*%
X165250000Y-109195000D03*
D16*
X165250000Y-111735000D03*
X165250000Y-114275000D03*
X165250000Y-116815000D03*
%TD*%
D18*
%TO.C,R28*%
X128150000Y-54637500D03*
X128150000Y-51537500D03*
%TD*%
D15*
%TO.C,J27*%
X165510000Y-38200000D03*
D16*
X165510000Y-40740000D03*
X165510000Y-43280000D03*
X165510000Y-45820000D03*
%TD*%
D15*
%TO.C,J8*%
X165510000Y-61865000D03*
D16*
X165510000Y-64405000D03*
X165510000Y-66945000D03*
X165510000Y-69485000D03*
%TD*%
D15*
%TO.C,J12*%
X138100000Y-61100000D03*
D16*
X140640000Y-61100000D03*
%TD*%
D13*
%TO.C,R40*%
X111650000Y-78500000D03*
X114750000Y-78500000D03*
%TD*%
D15*
%TO.C,J25*%
X179685000Y-48040000D03*
D16*
X179685000Y-50580000D03*
X177145000Y-48040000D03*
X177145000Y-50580000D03*
X174605000Y-48040000D03*
X174605000Y-50580000D03*
%TD*%
D20*
%TO.C,H3*%
X104500000Y-123000000D03*
%TD*%
%TO.C,H4*%
X188750000Y-123000000D03*
%TD*%
D18*
%TO.C,R37*%
X139375000Y-67200000D03*
X139375000Y-64100000D03*
%TD*%
D15*
%TO.C,J21*%
X108100000Y-61170000D03*
D16*
X108100000Y-63710000D03*
X108100000Y-66250000D03*
X108100000Y-68790000D03*
X108100000Y-71330000D03*
X108100000Y-73870000D03*
%TD*%
D15*
%TO.C,J28*%
X113150000Y-60140000D03*
D16*
X113150000Y-62680000D03*
X113150000Y-65220000D03*
%TD*%
D17*
%TO.C,C10*%
X114500000Y-90102500D03*
X114500000Y-86977500D03*
%TD*%
D21*
%TO.C,J31*%
X108500000Y-39500000D03*
%TD*%
D14*
%TO.C,A3*%
X183500000Y-98200000D03*
D22*
X183500000Y-95660000D03*
X183500000Y-93120000D03*
X183500000Y-90580000D03*
X183500000Y-88040000D03*
X183500000Y-85500000D03*
X183500000Y-82960000D03*
X183500000Y-80420000D03*
X170800000Y-80420000D03*
X170800000Y-82960000D03*
X170800000Y-85500000D03*
X170800000Y-88040000D03*
X170800000Y-90580000D03*
X170800000Y-93120000D03*
X170800000Y-95660000D03*
X170800000Y-98200000D03*
%TD*%
D15*
%TO.C,J11*%
X129200000Y-61100000D03*
D16*
X131740000Y-61100000D03*
%TD*%
D18*
%TO.C,R12*%
X121575000Y-54637500D03*
X121575000Y-51537500D03*
%TD*%
D15*
%TO.C,J22*%
X114700000Y-117675000D03*
D16*
X114700000Y-115135000D03*
%TD*%
D17*
%TO.C,C6*%
X141700000Y-54650000D03*
X141700000Y-51525000D03*
%TD*%
D18*
%TO.C,R30*%
X137050000Y-54600000D03*
X137050000Y-51500000D03*
%TD*%
D13*
%TO.C,R25*%
X151250000Y-80450000D03*
X154350000Y-80450000D03*
%TD*%
D14*
%TO.C,C15*%
X178000000Y-85500000D03*
D10*
X178000000Y-88000000D03*
%TD*%
D13*
%TO.C,R8*%
X174120000Y-104080000D03*
X177220000Y-104080000D03*
%TD*%
D14*
%TO.C,C17*%
X155150000Y-62000000D03*
D10*
X155150000Y-64500000D03*
%TD*%
D18*
%TO.C,R36*%
X130475000Y-67200000D03*
X130475000Y-64100000D03*
%TD*%
D20*
%TO.C,H1*%
X104500000Y-31000000D03*
%TD*%
D14*
%TO.C,C19*%
X178000000Y-109000000D03*
D10*
X178000000Y-111500000D03*
%TD*%
D14*
%TO.C,A2*%
X183500000Y-121865000D03*
D22*
X183500000Y-119325000D03*
X183500000Y-116785000D03*
X183500000Y-114245000D03*
X183500000Y-111705000D03*
X183500000Y-109165000D03*
X183500000Y-106625000D03*
X183500000Y-104085000D03*
X170800000Y-104085000D03*
X170800000Y-106625000D03*
X170800000Y-109165000D03*
X170800000Y-111705000D03*
X170800000Y-114245000D03*
X170800000Y-116785000D03*
X170800000Y-119325000D03*
X170800000Y-121865000D03*
%TD*%
D13*
%TO.C,R1*%
X151290000Y-104100000D03*
X154390000Y-104100000D03*
%TD*%
D14*
%TO.C,C12*%
X155150000Y-37900000D03*
D10*
X155150000Y-40400000D03*
%TD*%
D14*
%TO.C,C16*%
X155150000Y-85500000D03*
D10*
X155150000Y-88000000D03*
%TD*%
D15*
%TO.C,J17*%
X179685000Y-71705000D03*
D16*
X179685000Y-74245000D03*
X177145000Y-71705000D03*
X177145000Y-74245000D03*
X174605000Y-71705000D03*
X174605000Y-74245000D03*
%TD*%
D23*
%TO.C,R10*%
X139550000Y-43500000D03*
X136450000Y-43500000D03*
%TD*%
D20*
%TO.C,H2*%
X188750000Y-31000000D03*
%TD*%
D15*
%TO.C,J19*%
X104550000Y-81740000D03*
D16*
X104550000Y-84280000D03*
X104550000Y-86820000D03*
X104550000Y-89360000D03*
%TD*%
D18*
%TO.C,R39*%
X111700000Y-90090000D03*
X111700000Y-86990000D03*
%TD*%
D15*
%TO.C,J5*%
X188250000Y-61845000D03*
D16*
X188250000Y-64385000D03*
X188250000Y-66925000D03*
X188250000Y-69465000D03*
%TD*%
D13*
%TO.C,R41*%
X111650000Y-81040000D03*
X114750000Y-81040000D03*
%TD*%
D14*
%TO.C,A7*%
X160620000Y-50890000D03*
D22*
X160620000Y-48350000D03*
X160620000Y-45810000D03*
X160620000Y-43270000D03*
X160620000Y-40730000D03*
X160620000Y-38190000D03*
X160620000Y-35650000D03*
X160620000Y-33110000D03*
X147920000Y-33110000D03*
X147920000Y-35650000D03*
X147920000Y-38190000D03*
X147920000Y-40730000D03*
X147920000Y-43270000D03*
X147920000Y-45810000D03*
X147920000Y-48350000D03*
X147920000Y-50890000D03*
%TD*%
D24*
%TO.C,D4*%
X139465000Y-41100000D03*
X136490000Y-41100000D03*
%TD*%
D15*
%TO.C,J26*%
X188250000Y-38180000D03*
D16*
X188250000Y-40720000D03*
X188250000Y-43260000D03*
X188250000Y-45800000D03*
%TD*%
D18*
%TO.C,R32*%
X119275000Y-67100000D03*
X119275000Y-64000000D03*
%TD*%
D17*
%TO.C,C8*%
X132850000Y-67242500D03*
X132850000Y-64117500D03*
%TD*%
D18*
%TO.C,R31*%
X139375000Y-54607500D03*
X139375000Y-51507500D03*
%TD*%
D25*
%TO.C,C11*%
X109400000Y-48176041D03*
D26*
X109400000Y-53176041D03*
%TD*%
D14*
%TO.C,A5*%
X183500000Y-74535000D03*
D22*
X183500000Y-71995000D03*
X183500000Y-69455000D03*
X183500000Y-66915000D03*
X183500000Y-64375000D03*
X183500000Y-61835000D03*
X183500000Y-59295000D03*
X183500000Y-56755000D03*
X170800000Y-56755000D03*
X170800000Y-59295000D03*
X170800000Y-61835000D03*
X170800000Y-64375000D03*
X170800000Y-66915000D03*
X170800000Y-69455000D03*
X170800000Y-71995000D03*
X170800000Y-74535000D03*
%TD*%
D14*
%TO.C,A6*%
X160620000Y-74555000D03*
D22*
X160620000Y-72015000D03*
X160620000Y-69475000D03*
X160620000Y-66935000D03*
X160620000Y-64395000D03*
X160620000Y-61855000D03*
X160620000Y-59315000D03*
X160620000Y-56775000D03*
X147920000Y-56775000D03*
X147920000Y-59315000D03*
X147920000Y-61855000D03*
X147920000Y-64395000D03*
X147920000Y-66935000D03*
X147920000Y-69475000D03*
X147920000Y-72015000D03*
X147920000Y-74555000D03*
%TD*%
D14*
%TO.C,A1*%
X160620000Y-121885000D03*
D22*
X160620000Y-119345000D03*
X160620000Y-116805000D03*
X160620000Y-114265000D03*
X160620000Y-111725000D03*
X160620000Y-109185000D03*
X160620000Y-106645000D03*
X160620000Y-104105000D03*
X147920000Y-104105000D03*
X147920000Y-106645000D03*
X147920000Y-109185000D03*
X147920000Y-111725000D03*
X147920000Y-114265000D03*
X147920000Y-116805000D03*
X147920000Y-119345000D03*
X147920000Y-121885000D03*
%TD*%
D14*
%TO.C,C18*%
X155150000Y-108900000D03*
D10*
X155150000Y-111400000D03*
%TD*%
D15*
%TO.C,J18*%
X156805000Y-71725000D03*
D16*
X156805000Y-74265000D03*
X154265000Y-71725000D03*
X154265000Y-74265000D03*
X151725000Y-71725000D03*
X151725000Y-74265000D03*
%TD*%
D15*
%TO.C,J15*%
X179685000Y-95370000D03*
D16*
X179685000Y-97910000D03*
X177145000Y-95370000D03*
X177145000Y-97910000D03*
X174605000Y-95370000D03*
X174605000Y-97910000D03*
%TD*%
D27*
%TO.C,D2*%
X111400000Y-117725000D03*
X111400000Y-115675000D03*
%TD*%
D18*
%TO.C,R34*%
X137050000Y-67200000D03*
X137050000Y-64100000D03*
%TD*%
D13*
%TO.C,R26*%
X174120000Y-56780000D03*
X177220000Y-56780000D03*
%TD*%
D28*
%TO.C,C5*%
X108902500Y-115650000D03*
X105777500Y-115650000D03*
%TD*%
D13*
%TO.C,R27*%
X151250000Y-56800000D03*
X154350000Y-56800000D03*
%TD*%
D15*
%TO.C,J3*%
X165250000Y-85530000D03*
D16*
X165250000Y-88070000D03*
X165250000Y-90610000D03*
X165250000Y-93150000D03*
%TD*%
D15*
%TO.C,J9*%
X138100000Y-48687500D03*
D16*
X140640000Y-48687500D03*
%TD*%
D17*
%TO.C,C2*%
X123925000Y-54650000D03*
X123925000Y-51525000D03*
%TD*%
D28*
%TO.C,C3*%
X108902500Y-113250000D03*
X105777500Y-113250000D03*
%TD*%
D29*
%TO.C,C4*%
X106100000Y-106100000D03*
X106100000Y-109225000D03*
%TD*%
D13*
%TO.C,R15*%
X174120000Y-80430000D03*
X177220000Y-80430000D03*
%TD*%
D18*
%TO.C,R29*%
X130475000Y-54637500D03*
X130475000Y-51537500D03*
%TD*%
D14*
%TO.C,A8*%
X183500000Y-50870000D03*
D22*
X183500000Y-48330000D03*
X183500000Y-45790000D03*
X183500000Y-43250000D03*
X183500000Y-40710000D03*
X183500000Y-38170000D03*
X183500000Y-35630000D03*
X183500000Y-33090000D03*
X170800000Y-33090000D03*
X170800000Y-35630000D03*
X170800000Y-38170000D03*
X170800000Y-40710000D03*
X170800000Y-43250000D03*
X170800000Y-45790000D03*
X170800000Y-48330000D03*
X170800000Y-50870000D03*
%TD*%
D13*
%TO.C,R3*%
X174120000Y-33080000D03*
X177220000Y-33080000D03*
%TD*%
D17*
%TO.C,C1*%
X132850000Y-54650000D03*
X132850000Y-51525000D03*
%TD*%
D15*
%TO.C,J14*%
X179685000Y-119035000D03*
D16*
X179685000Y-121575000D03*
X177145000Y-119035000D03*
X177145000Y-121575000D03*
X174605000Y-119035000D03*
X174605000Y-121575000D03*
%TD*%
D15*
%TO.C,J16*%
X156805000Y-95390000D03*
D16*
X156805000Y-97930000D03*
X154265000Y-95390000D03*
X154265000Y-97930000D03*
X151725000Y-95390000D03*
X151725000Y-97930000D03*
%TD*%
D30*
%TO.C,IC2*%
X140190000Y-124040000D03*
X140190000Y-121500000D03*
D31*
X140190000Y-118960000D03*
D30*
X140190000Y-116420000D03*
X140190000Y-113880000D03*
X140190000Y-111340000D03*
X140190000Y-108800000D03*
D31*
X140190000Y-106260000D03*
D30*
X140190000Y-103720000D03*
X140190000Y-101180000D03*
X140190000Y-98640000D03*
X140190000Y-96100000D03*
D31*
X140190000Y-93560000D03*
D30*
X140190000Y-91020000D03*
X140190000Y-88480000D03*
X140190000Y-85940000D03*
X140190000Y-83400000D03*
D31*
X140190000Y-80860000D03*
D30*
X140190000Y-78320000D03*
X140190000Y-75780000D03*
X120810000Y-75780000D03*
X120810000Y-78320000D03*
D31*
X120810000Y-80860000D03*
D30*
X120810000Y-83400000D03*
X120810000Y-85940000D03*
X120810000Y-88480000D03*
X120810000Y-91020000D03*
D31*
X120810000Y-93560000D03*
D30*
X120810000Y-96100000D03*
X120810000Y-98640000D03*
X120810000Y-101180000D03*
X120810000Y-103720000D03*
D31*
X120810000Y-106260000D03*
D30*
X120810000Y-108800000D03*
X120810000Y-111340000D03*
X120810000Y-113880000D03*
X120810000Y-116420000D03*
D31*
X120810000Y-118960000D03*
D30*
X120810000Y-121500000D03*
X120810000Y-124040000D03*
%TD*%
D17*
%TO.C,C7*%
X123950000Y-67142500D03*
X123950000Y-64017500D03*
%TD*%
D13*
%TO.C,R2*%
X151250000Y-33100000D03*
X154350000Y-33100000D03*
%TD*%
D14*
%TO.C,A4*%
X160620000Y-98220000D03*
D22*
X160620000Y-95680000D03*
X160620000Y-93140000D03*
X160620000Y-90600000D03*
X160620000Y-88060000D03*
X160620000Y-85520000D03*
X160620000Y-82980000D03*
X160620000Y-80440000D03*
X147920000Y-80440000D03*
X147920000Y-82980000D03*
X147920000Y-85520000D03*
X147920000Y-88060000D03*
X147920000Y-90600000D03*
X147920000Y-93140000D03*
X147920000Y-95680000D03*
X147920000Y-98220000D03*
%TD*%
D15*
%TO.C,J24*%
X156805000Y-48060000D03*
D16*
X156805000Y-50600000D03*
X154265000Y-48060000D03*
X154265000Y-50600000D03*
X151725000Y-48060000D03*
X151725000Y-50600000D03*
%TD*%
D18*
%TO.C,R35*%
X121575000Y-67100000D03*
X121575000Y-64000000D03*
%TD*%
D15*
%TO.C,J10*%
X120300000Y-61100000D03*
D16*
X122840000Y-61100000D03*
%TD*%
D15*
%TO.C,J29*%
X113150000Y-68820000D03*
D16*
X113150000Y-71360000D03*
X113150000Y-73900000D03*
%TD*%
D14*
%TO.C,C14*%
X178000000Y-62000000D03*
D10*
X178000000Y-64500000D03*
%TD*%
D15*
%TO.C,J6*%
X120300000Y-48687500D03*
D16*
X122840000Y-48687500D03*
%TD*%
D15*
%TO.C,J23*%
X104550000Y-94960000D03*
D16*
X104550000Y-97500000D03*
%TD*%
D18*
%TO.C,R11*%
X119275000Y-54637500D03*
X119275000Y-51537500D03*
%TD*%
D15*
%TO.C,J20*%
X104500000Y-61170000D03*
D16*
X104500000Y-63710000D03*
X104500000Y-66250000D03*
X104500000Y-68790000D03*
X104500000Y-71330000D03*
X104500000Y-73870000D03*
%TD*%
D15*
%TO.C,J7*%
X129200000Y-48687500D03*
D16*
X131740000Y-48687500D03*
%TD*%
D15*
%TO.C,J1*%
X188250000Y-109175000D03*
D16*
X188250000Y-111715000D03*
X188250000Y-114255000D03*
X188250000Y-116795000D03*
%TD*%
M02*
