%TF.GenerationSoftware,KiCad,Pcbnew,7.0.5*%
%TF.CreationDate,2023-08-20T17:21:48-04:00*%
%TF.ProjectId,RPi_Pico_W_A4988_control_board,5250695f-5069-4636-9f5f-575f41343938,rev?*%
%TF.SameCoordinates,Original*%
%TF.FileFunction,Soldermask,Bot*%
%TF.FilePolarity,Negative*%
%FSLAX46Y46*%
G04 Gerber Fmt 4.6, Leading zero omitted, Abs format (unit mm)*
G04 Created by KiCad (PCBNEW 7.0.5) date 2023-08-20 17:21:48*
%MOMM*%
%LPD*%
G01*
G04 APERTURE LIST*
G04 Aperture macros list*
%AMRoundRect*
0 Rectangle with rounded corners*
0 $1 Rounding radius*
0 $2 $3 $4 $5 $6 $7 $8 $9 X,Y pos of 4 corners*
0 Add a 4 corners polygon primitive as box body*
4,1,4,$2,$3,$4,$5,$6,$7,$8,$9,$2,$3,0*
0 Add four circle primitives for the rounded corners*
1,1,$1+$1,$2,$3*
1,1,$1+$1,$4,$5*
1,1,$1+$1,$6,$7*
1,1,$1+$1,$8,$9*
0 Add four rect primitives between the rounded corners*
20,1,$1+$1,$2,$3,$4,$5,0*
20,1,$1+$1,$4,$5,$6,$7,0*
20,1,$1+$1,$6,$7,$8,$9,0*
20,1,$1+$1,$8,$9,$2,$3,0*%
G04 Aperture macros list end*
%ADD10C,0.025400*%
%ADD11C,0.150000*%
%ADD12C,1.600000*%
%ADD13R,1.600000X1.600000*%
%ADD14R,1.700000X1.700000*%
%ADD15O,1.700000X1.700000*%
%ADD16C,2.500000*%
%ADD17C,3.500000*%
%ADD18O,1.600000X1.600000*%
%ADD19R,2.400000X2.400000*%
%ADD20C,2.400000*%
%ADD21RoundRect,1.500000X5.000000X-1.500000X5.000000X1.500000X-5.000000X1.500000X-5.000000X-1.500000X0*%
G04 APERTURE END LIST*
D10*
X152600000Y-100150000D02*
X153000000Y-100550000D01*
X155300000Y-102850000D01*
X157550000Y-100650000D01*
X158000000Y-100300000D01*
X158800000Y-100250000D01*
X173850000Y-100250000D01*
X174400000Y-100350000D01*
X174850000Y-100700000D01*
X178650000Y-104500000D01*
X179000000Y-104900000D01*
X179050000Y-105550000D01*
X179050000Y-108950000D01*
X178950000Y-109400000D01*
X178700000Y-109750000D01*
X178300000Y-110050000D01*
X177750000Y-110050000D01*
X177150000Y-109700000D01*
X176950000Y-109150000D01*
X176950000Y-105750000D01*
X173500000Y-102350000D01*
X158800000Y-102350000D01*
X156650000Y-104500000D01*
X156450000Y-104800000D01*
X156350000Y-105050000D01*
X156200000Y-105350000D01*
X156200000Y-109000000D01*
X156100000Y-109450000D01*
X155900000Y-109700000D01*
X155550000Y-109950000D01*
X155100000Y-110000000D01*
X154700000Y-109900000D01*
X154300000Y-109650000D01*
X154100000Y-109200000D01*
X154100000Y-105300000D01*
X151350000Y-102550000D01*
X146150000Y-102550000D01*
X146150000Y-99950000D01*
X152200000Y-99950000D01*
X152600000Y-100150000D01*
G36*
X152600000Y-100150000D02*
G01*
X153000000Y-100550000D01*
X155300000Y-102850000D01*
X157550000Y-100650000D01*
X158000000Y-100300000D01*
X158800000Y-100250000D01*
X173850000Y-100250000D01*
X174400000Y-100350000D01*
X174850000Y-100700000D01*
X178650000Y-104500000D01*
X179000000Y-104900000D01*
X179050000Y-105550000D01*
X179050000Y-108950000D01*
X178950000Y-109400000D01*
X178700000Y-109750000D01*
X178300000Y-110050000D01*
X177750000Y-110050000D01*
X177150000Y-109700000D01*
X176950000Y-109150000D01*
X176950000Y-105750000D01*
X173500000Y-102350000D01*
X158800000Y-102350000D01*
X156650000Y-104500000D01*
X156450000Y-104800000D01*
X156350000Y-105050000D01*
X156200000Y-105350000D01*
X156200000Y-109000000D01*
X156100000Y-109450000D01*
X155900000Y-109700000D01*
X155550000Y-109950000D01*
X155100000Y-110000000D01*
X154700000Y-109900000D01*
X154300000Y-109650000D01*
X154100000Y-109200000D01*
X154100000Y-105300000D01*
X151350000Y-102550000D01*
X146150000Y-102550000D01*
X146150000Y-99950000D01*
X152200000Y-99950000D01*
X152600000Y-100150000D01*
G37*
X153050000Y-76650000D02*
X155350000Y-78950000D01*
X157250000Y-77000000D01*
X157650000Y-76800000D01*
X158050000Y-76750000D01*
X174200000Y-76750000D01*
X174600000Y-76750000D01*
X175100000Y-76950000D01*
X179000000Y-80900000D01*
X179050000Y-81250000D01*
X179050000Y-81700000D01*
X179050000Y-85550000D01*
X178950000Y-86000000D01*
X178700000Y-86350000D01*
X178300000Y-86550000D01*
X177750000Y-86550000D01*
X177150000Y-86250000D01*
X176950000Y-85750000D01*
X176950000Y-81800000D01*
X173900000Y-78800000D01*
X158400000Y-78800000D01*
X156450000Y-80750000D01*
X156400000Y-81000000D01*
X156250000Y-81350000D01*
X156200000Y-81400000D01*
X156200000Y-85600000D01*
X156100000Y-86050000D01*
X155900000Y-86300000D01*
X155550000Y-86550000D01*
X155100000Y-86600000D01*
X154700000Y-86500000D01*
X154300000Y-86250000D01*
X154100000Y-85800000D01*
X154100000Y-81350000D01*
X151900000Y-79150000D01*
X146150000Y-79150000D01*
X146150000Y-76500000D01*
X152200000Y-76500000D01*
X152650000Y-76500000D01*
X153050000Y-76650000D01*
G36*
X153050000Y-76650000D02*
G01*
X155350000Y-78950000D01*
X157250000Y-77000000D01*
X157650000Y-76800000D01*
X158050000Y-76750000D01*
X174200000Y-76750000D01*
X174600000Y-76750000D01*
X175100000Y-76950000D01*
X179000000Y-80900000D01*
X179050000Y-81250000D01*
X179050000Y-81700000D01*
X179050000Y-85550000D01*
X178950000Y-86000000D01*
X178700000Y-86350000D01*
X178300000Y-86550000D01*
X177750000Y-86550000D01*
X177150000Y-86250000D01*
X176950000Y-85750000D01*
X176950000Y-81800000D01*
X173900000Y-78800000D01*
X158400000Y-78800000D01*
X156450000Y-80750000D01*
X156400000Y-81000000D01*
X156250000Y-81350000D01*
X156200000Y-81400000D01*
X156200000Y-85600000D01*
X156100000Y-86050000D01*
X155900000Y-86300000D01*
X155550000Y-86550000D01*
X155100000Y-86600000D01*
X154700000Y-86500000D01*
X154300000Y-86250000D01*
X154100000Y-85800000D01*
X154100000Y-81350000D01*
X151900000Y-79150000D01*
X146150000Y-79150000D01*
X146150000Y-76500000D01*
X152200000Y-76500000D01*
X152650000Y-76500000D01*
X153050000Y-76650000D01*
G37*
X152600000Y-52750000D02*
X152900000Y-52900000D01*
X155300000Y-55300000D01*
X157300000Y-53350000D01*
X157650000Y-53150000D01*
X158050000Y-53100000D01*
X174200000Y-53150000D01*
X174600000Y-53200000D01*
X174950000Y-53500000D01*
X178850000Y-57400000D01*
X179000000Y-57700000D01*
X179050000Y-58150000D01*
X179050000Y-62000000D01*
X178950000Y-62450000D01*
X178700000Y-62800000D01*
X178300000Y-63050000D01*
X177750000Y-63050000D01*
X177150000Y-62700000D01*
X176950000Y-62200000D01*
X176950000Y-58500000D01*
X173700000Y-55250000D01*
X158400000Y-55250000D01*
X156450000Y-57200000D01*
X156400000Y-57450000D01*
X156250000Y-57800000D01*
X156200000Y-57850000D01*
X156200000Y-62050000D01*
X156100000Y-62500000D01*
X155900000Y-62750000D01*
X155550000Y-63000000D01*
X155100000Y-63050000D01*
X154700000Y-62950000D01*
X154300000Y-62700000D01*
X154100000Y-62250000D01*
X154100000Y-57800000D01*
X151600000Y-55300000D01*
X146150000Y-55300000D01*
X146150000Y-52700000D01*
X152200000Y-52700000D01*
X152600000Y-52750000D01*
G36*
X152600000Y-52750000D02*
G01*
X152900000Y-52900000D01*
X155300000Y-55300000D01*
X157300000Y-53350000D01*
X157650000Y-53150000D01*
X158050000Y-53100000D01*
X174200000Y-53150000D01*
X174600000Y-53200000D01*
X174950000Y-53500000D01*
X178850000Y-57400000D01*
X179000000Y-57700000D01*
X179050000Y-58150000D01*
X179050000Y-62000000D01*
X178950000Y-62450000D01*
X178700000Y-62800000D01*
X178300000Y-63050000D01*
X177750000Y-63050000D01*
X177150000Y-62700000D01*
X176950000Y-62200000D01*
X176950000Y-58500000D01*
X173700000Y-55250000D01*
X158400000Y-55250000D01*
X156450000Y-57200000D01*
X156400000Y-57450000D01*
X156250000Y-57800000D01*
X156200000Y-57850000D01*
X156200000Y-62050000D01*
X156100000Y-62500000D01*
X155900000Y-62750000D01*
X155550000Y-63000000D01*
X155100000Y-63050000D01*
X154700000Y-62950000D01*
X154300000Y-62700000D01*
X154100000Y-62250000D01*
X154100000Y-57800000D01*
X151600000Y-55300000D01*
X146150000Y-55300000D01*
X146150000Y-52700000D01*
X152200000Y-52700000D01*
X152600000Y-52750000D01*
G37*
X174450000Y-29000000D02*
X174850000Y-29100000D01*
X175100000Y-29250000D01*
X178900000Y-33100000D01*
X179050000Y-33500000D01*
X179050000Y-38350000D01*
X178800000Y-38800000D01*
X178350000Y-39000000D01*
X177800000Y-39100000D01*
X177300000Y-38850000D01*
X176900000Y-38200000D01*
X176900000Y-34100000D01*
X173950000Y-31150000D01*
X159600000Y-31150000D01*
X156550000Y-34200000D01*
X156400000Y-34550000D01*
X156250000Y-34950000D01*
X156250000Y-37950000D01*
X156200000Y-38300000D01*
X156000000Y-38600000D01*
X155650000Y-38900000D01*
X155300000Y-39000000D01*
X154900000Y-38950000D01*
X154400000Y-38750000D01*
X154100000Y-38250000D01*
X154050000Y-37600000D01*
X154050000Y-34900000D01*
X150850000Y-31650000D01*
X143350000Y-31650000D01*
X141050000Y-33950000D01*
X141050000Y-36500000D01*
X138400000Y-36500000D01*
X138400000Y-33150000D01*
X138600000Y-32650000D01*
X142000000Y-29250000D01*
X142500000Y-29000000D01*
X151600000Y-29000000D01*
X152200000Y-29200000D01*
X155350000Y-32400000D01*
X158500000Y-29200000D01*
X158950000Y-28950000D01*
X174450000Y-29000000D01*
G36*
X174450000Y-29000000D02*
G01*
X174850000Y-29100000D01*
X175100000Y-29250000D01*
X178900000Y-33100000D01*
X179050000Y-33500000D01*
X179050000Y-38350000D01*
X178800000Y-38800000D01*
X178350000Y-39000000D01*
X177800000Y-39100000D01*
X177300000Y-38850000D01*
X176900000Y-38200000D01*
X176900000Y-34100000D01*
X173950000Y-31150000D01*
X159600000Y-31150000D01*
X156550000Y-34200000D01*
X156400000Y-34550000D01*
X156250000Y-34950000D01*
X156250000Y-37950000D01*
X156200000Y-38300000D01*
X156000000Y-38600000D01*
X155650000Y-38900000D01*
X155300000Y-39000000D01*
X154900000Y-38950000D01*
X154400000Y-38750000D01*
X154100000Y-38250000D01*
X154050000Y-37600000D01*
X154050000Y-34900000D01*
X150850000Y-31650000D01*
X143350000Y-31650000D01*
X141050000Y-33950000D01*
X141050000Y-36500000D01*
X138400000Y-36500000D01*
X138400000Y-33150000D01*
X138600000Y-32650000D01*
X142000000Y-29250000D01*
X142500000Y-29000000D01*
X151600000Y-29000000D01*
X152200000Y-29200000D01*
X155350000Y-32400000D01*
X158500000Y-29200000D01*
X158950000Y-28950000D01*
X174450000Y-29000000D01*
G37*
D11*
X146250000Y-102500000D02*
X142500000Y-102500000D01*
X142500000Y-47250000D01*
X139750000Y-44500000D01*
X126500000Y-44500000D01*
X126500000Y-36500000D01*
X146250000Y-36500000D01*
X146250000Y-102500000D01*
G36*
X146250000Y-102500000D02*
G01*
X142500000Y-102500000D01*
X142500000Y-47250000D01*
X139750000Y-44500000D01*
X126500000Y-44500000D01*
X126500000Y-36500000D01*
X146250000Y-36500000D01*
X146250000Y-102500000D01*
G37*
X125000000Y-44500000D02*
X116500000Y-44500000D01*
X111500000Y-49500000D01*
X102000000Y-49500000D01*
X102000000Y-36500000D01*
X125000000Y-36500000D01*
X125000000Y-44500000D01*
G36*
X125000000Y-44500000D02*
G01*
X116500000Y-44500000D01*
X111500000Y-49500000D01*
X102000000Y-49500000D01*
X102000000Y-36500000D01*
X125000000Y-36500000D01*
X125000000Y-44500000D01*
G37*
D12*
%TO.C,SW1*%
X107950000Y-93550000D03*
X107950000Y-98050000D03*
X114450000Y-93550000D03*
X114450000Y-98050000D03*
%TD*%
D13*
%TO.C,C13*%
X178000000Y-38000000D03*
D12*
X178000000Y-40500000D03*
%TD*%
D14*
%TO.C,J2*%
X188250000Y-85510000D03*
D15*
X188250000Y-88050000D03*
X188250000Y-90590000D03*
X188250000Y-93130000D03*
%TD*%
D14*
%TO.C,J13*%
X156805000Y-119025000D03*
D15*
X156805000Y-121565000D03*
X154265000Y-119025000D03*
X154265000Y-121565000D03*
X151725000Y-119025000D03*
X151725000Y-121565000D03*
%TD*%
D16*
%TO.C,U1*%
X119905000Y-40550000D03*
X123565000Y-40550000D03*
X128035000Y-40550000D03*
X131695000Y-40550000D03*
%TD*%
D14*
%TO.C,J4*%
X165250000Y-109195000D03*
D15*
X165250000Y-111735000D03*
X165250000Y-114275000D03*
X165250000Y-116815000D03*
%TD*%
D14*
%TO.C,J27*%
X165510000Y-38200000D03*
D15*
X165510000Y-40740000D03*
X165510000Y-43280000D03*
X165510000Y-45820000D03*
%TD*%
D14*
%TO.C,J8*%
X165510000Y-61865000D03*
D15*
X165510000Y-64405000D03*
X165510000Y-66945000D03*
X165510000Y-69485000D03*
%TD*%
D14*
%TO.C,J12*%
X138100000Y-61100000D03*
D15*
X140640000Y-61100000D03*
%TD*%
D14*
%TO.C,J25*%
X179685000Y-48040000D03*
D15*
X179685000Y-50580000D03*
X177145000Y-48040000D03*
X177145000Y-50580000D03*
X174605000Y-48040000D03*
X174605000Y-50580000D03*
%TD*%
D17*
%TO.C,H3*%
X104500000Y-123000000D03*
%TD*%
%TO.C,H4*%
X188750000Y-123000000D03*
%TD*%
D14*
%TO.C,J21*%
X108100000Y-61170000D03*
D15*
X108100000Y-63710000D03*
X108100000Y-66250000D03*
X108100000Y-68790000D03*
X108100000Y-71330000D03*
X108100000Y-73870000D03*
%TD*%
D14*
%TO.C,J28*%
X113150000Y-60140000D03*
D15*
X113150000Y-62680000D03*
X113150000Y-65220000D03*
%TD*%
D13*
%TO.C,A3*%
X183500000Y-98200000D03*
D18*
X183500000Y-95660000D03*
X183500000Y-93120000D03*
X183500000Y-90580000D03*
X183500000Y-88040000D03*
X183500000Y-85500000D03*
X183500000Y-82960000D03*
X183500000Y-80420000D03*
X170800000Y-80420000D03*
X170800000Y-82960000D03*
X170800000Y-85500000D03*
X170800000Y-88040000D03*
X170800000Y-90580000D03*
X170800000Y-93120000D03*
X170800000Y-95660000D03*
X170800000Y-98200000D03*
%TD*%
D14*
%TO.C,J11*%
X129200000Y-61100000D03*
D15*
X131740000Y-61100000D03*
%TD*%
D14*
%TO.C,J22*%
X114700000Y-117675000D03*
D15*
X114700000Y-115135000D03*
%TD*%
D13*
%TO.C,C15*%
X178000000Y-85500000D03*
D12*
X178000000Y-88000000D03*
%TD*%
D13*
%TO.C,C17*%
X155150000Y-62000000D03*
D12*
X155150000Y-64500000D03*
%TD*%
D17*
%TO.C,H1*%
X104500000Y-31000000D03*
%TD*%
D13*
%TO.C,C19*%
X178000000Y-109000000D03*
D12*
X178000000Y-111500000D03*
%TD*%
D13*
%TO.C,A2*%
X183500000Y-121865000D03*
D18*
X183500000Y-119325000D03*
X183500000Y-116785000D03*
X183500000Y-114245000D03*
X183500000Y-111705000D03*
X183500000Y-109165000D03*
X183500000Y-106625000D03*
X183500000Y-104085000D03*
X170800000Y-104085000D03*
X170800000Y-106625000D03*
X170800000Y-109165000D03*
X170800000Y-111705000D03*
X170800000Y-114245000D03*
X170800000Y-116785000D03*
X170800000Y-119325000D03*
X170800000Y-121865000D03*
%TD*%
D13*
%TO.C,C12*%
X155150000Y-37900000D03*
D12*
X155150000Y-40400000D03*
%TD*%
D13*
%TO.C,C16*%
X155150000Y-85500000D03*
D12*
X155150000Y-88000000D03*
%TD*%
D14*
%TO.C,J17*%
X179685000Y-71705000D03*
D15*
X179685000Y-74245000D03*
X177145000Y-71705000D03*
X177145000Y-74245000D03*
X174605000Y-71705000D03*
X174605000Y-74245000D03*
%TD*%
D17*
%TO.C,H2*%
X188750000Y-31000000D03*
%TD*%
D14*
%TO.C,J19*%
X104550000Y-81740000D03*
D15*
X104550000Y-84280000D03*
X104550000Y-86820000D03*
X104550000Y-89360000D03*
%TD*%
D14*
%TO.C,J5*%
X188250000Y-61845000D03*
D15*
X188250000Y-64385000D03*
X188250000Y-66925000D03*
X188250000Y-69465000D03*
%TD*%
D13*
%TO.C,A7*%
X160620000Y-50890000D03*
D18*
X160620000Y-48350000D03*
X160620000Y-45810000D03*
X160620000Y-43270000D03*
X160620000Y-40730000D03*
X160620000Y-38190000D03*
X160620000Y-35650000D03*
X160620000Y-33110000D03*
X147920000Y-33110000D03*
X147920000Y-35650000D03*
X147920000Y-38190000D03*
X147920000Y-40730000D03*
X147920000Y-43270000D03*
X147920000Y-45810000D03*
X147920000Y-48350000D03*
X147920000Y-50890000D03*
%TD*%
D14*
%TO.C,J26*%
X188250000Y-38180000D03*
D15*
X188250000Y-40720000D03*
X188250000Y-43260000D03*
X188250000Y-45800000D03*
%TD*%
D19*
%TO.C,C11*%
X109400000Y-48176041D03*
D20*
X109400000Y-53176041D03*
%TD*%
D13*
%TO.C,A5*%
X183500000Y-74535000D03*
D18*
X183500000Y-71995000D03*
X183500000Y-69455000D03*
X183500000Y-66915000D03*
X183500000Y-64375000D03*
X183500000Y-61835000D03*
X183500000Y-59295000D03*
X183500000Y-56755000D03*
X170800000Y-56755000D03*
X170800000Y-59295000D03*
X170800000Y-61835000D03*
X170800000Y-64375000D03*
X170800000Y-66915000D03*
X170800000Y-69455000D03*
X170800000Y-71995000D03*
X170800000Y-74535000D03*
%TD*%
D13*
%TO.C,A6*%
X160620000Y-74555000D03*
D18*
X160620000Y-72015000D03*
X160620000Y-69475000D03*
X160620000Y-66935000D03*
X160620000Y-64395000D03*
X160620000Y-61855000D03*
X160620000Y-59315000D03*
X160620000Y-56775000D03*
X147920000Y-56775000D03*
X147920000Y-59315000D03*
X147920000Y-61855000D03*
X147920000Y-64395000D03*
X147920000Y-66935000D03*
X147920000Y-69475000D03*
X147920000Y-72015000D03*
X147920000Y-74555000D03*
%TD*%
D13*
%TO.C,A1*%
X160620000Y-121885000D03*
D18*
X160620000Y-119345000D03*
X160620000Y-116805000D03*
X160620000Y-114265000D03*
X160620000Y-111725000D03*
X160620000Y-109185000D03*
X160620000Y-106645000D03*
X160620000Y-104105000D03*
X147920000Y-104105000D03*
X147920000Y-106645000D03*
X147920000Y-109185000D03*
X147920000Y-111725000D03*
X147920000Y-114265000D03*
X147920000Y-116805000D03*
X147920000Y-119345000D03*
X147920000Y-121885000D03*
%TD*%
D13*
%TO.C,C18*%
X155150000Y-108900000D03*
D12*
X155150000Y-111400000D03*
%TD*%
D14*
%TO.C,J18*%
X156805000Y-71725000D03*
D15*
X156805000Y-74265000D03*
X154265000Y-71725000D03*
X154265000Y-74265000D03*
X151725000Y-71725000D03*
X151725000Y-74265000D03*
%TD*%
D14*
%TO.C,J15*%
X179685000Y-95370000D03*
D15*
X179685000Y-97910000D03*
X177145000Y-95370000D03*
X177145000Y-97910000D03*
X174605000Y-95370000D03*
X174605000Y-97910000D03*
%TD*%
D14*
%TO.C,J3*%
X165250000Y-85530000D03*
D15*
X165250000Y-88070000D03*
X165250000Y-90610000D03*
X165250000Y-93150000D03*
%TD*%
D14*
%TO.C,J9*%
X138100000Y-48687500D03*
D15*
X140640000Y-48687500D03*
%TD*%
D13*
%TO.C,A8*%
X183500000Y-50870000D03*
D18*
X183500000Y-48330000D03*
X183500000Y-45790000D03*
X183500000Y-43250000D03*
X183500000Y-40710000D03*
X183500000Y-38170000D03*
X183500000Y-35630000D03*
X183500000Y-33090000D03*
X170800000Y-33090000D03*
X170800000Y-35630000D03*
X170800000Y-38170000D03*
X170800000Y-40710000D03*
X170800000Y-43250000D03*
X170800000Y-45790000D03*
X170800000Y-48330000D03*
X170800000Y-50870000D03*
%TD*%
D14*
%TO.C,J14*%
X179685000Y-119035000D03*
D15*
X179685000Y-121575000D03*
X177145000Y-119035000D03*
X177145000Y-121575000D03*
X174605000Y-119035000D03*
X174605000Y-121575000D03*
%TD*%
D14*
%TO.C,J16*%
X156805000Y-95390000D03*
D15*
X156805000Y-97930000D03*
X154265000Y-95390000D03*
X154265000Y-97930000D03*
X151725000Y-95390000D03*
X151725000Y-97930000D03*
%TD*%
D13*
%TO.C,A4*%
X160620000Y-98220000D03*
D18*
X160620000Y-95680000D03*
X160620000Y-93140000D03*
X160620000Y-90600000D03*
X160620000Y-88060000D03*
X160620000Y-85520000D03*
X160620000Y-82980000D03*
X160620000Y-80440000D03*
X147920000Y-80440000D03*
X147920000Y-82980000D03*
X147920000Y-85520000D03*
X147920000Y-88060000D03*
X147920000Y-90600000D03*
X147920000Y-93140000D03*
X147920000Y-95680000D03*
X147920000Y-98220000D03*
%TD*%
D14*
%TO.C,J24*%
X156805000Y-48060000D03*
D15*
X156805000Y-50600000D03*
X154265000Y-48060000D03*
X154265000Y-50600000D03*
X151725000Y-48060000D03*
X151725000Y-50600000D03*
%TD*%
D14*
%TO.C,J10*%
X120300000Y-61100000D03*
D15*
X122840000Y-61100000D03*
%TD*%
D14*
%TO.C,J29*%
X113150000Y-68820000D03*
D15*
X113150000Y-71360000D03*
X113150000Y-73900000D03*
%TD*%
D13*
%TO.C,C14*%
X178000000Y-62000000D03*
D12*
X178000000Y-64500000D03*
%TD*%
D14*
%TO.C,J6*%
X120300000Y-48687500D03*
D15*
X122840000Y-48687500D03*
%TD*%
D14*
%TO.C,J23*%
X104550000Y-94960000D03*
D15*
X104550000Y-97500000D03*
%TD*%
D14*
%TO.C,J20*%
X104500000Y-61170000D03*
D15*
X104500000Y-63710000D03*
X104500000Y-66250000D03*
X104500000Y-68790000D03*
X104500000Y-71330000D03*
X104500000Y-73870000D03*
%TD*%
D14*
%TO.C,J7*%
X129200000Y-48687500D03*
D15*
X131740000Y-48687500D03*
%TD*%
D14*
%TO.C,J1*%
X188250000Y-109175000D03*
D15*
X188250000Y-111715000D03*
X188250000Y-114255000D03*
X188250000Y-116795000D03*
%TD*%
D21*
%TO.C,J30*%
X109500000Y-41000000D03*
%TD*%
M02*
