M48
; DRILL file {KiCad 7.0.5} date Sun Aug 20 17:21:51 2023
; FORMAT={-:-/ absolute / inch / decimal}
; #@! TF.CreationDate,2023-08-20T17:21:51-04:00
; #@! TF.GenerationSoftware,Kicad,Pcbnew,7.0.5
; #@! TF.FileFunction,Plated,1,4,PTH
FMAT,2
INCH
; #@! TA.AperFunction,Plated,PTH,ViaDrill
T1C0.0150
; #@! TA.AperFunction,Plated,PTH,ViaDrill
T2C0.0180
; #@! TA.AperFunction,Plated,PTH,ViaDrill
T3C0.0200
; #@! TA.AperFunction,Plated,PTH,ViaDrill
T4C0.0250
; #@! TA.AperFunction,Plated,PTH,ViaDrill
T5C0.0300
; #@! TA.AperFunction,Plated,PTH,ComponentDrill
T6C0.0315
; #@! TA.AperFunction,Plated,PTH,ComponentDrill
T7C0.0394
; #@! TA.AperFunction,Plated,PTH,ComponentDrill
T8C0.0472
; #@! TA.AperFunction,Plated,PTH,ComponentDrill
T9C0.0650
; #@! TA.AperFunction,Plated,PTH,ComponentDrill
T10C0.0866
%
G90
G05
T1
X4.0551Y-2.0079
X4.0551Y-2.0866
X4.0551Y-2.1654
X4.0551Y-2.2441
X4.0945Y-3.937
X4.0945Y-4.0157
X4.0945Y-4.0945
X4.0945Y-4.685
X4.1339Y-2.0079
X4.1339Y-2.0866
X4.1339Y-2.1654
X4.1339Y-2.2441
X4.1732Y-3.937
X4.1732Y-4.685
X4.2126Y-2.0079
X4.2126Y-2.0866
X4.2126Y-2.1654
X4.2126Y-2.2441
X4.252Y-4.685
X4.252Y-4.7638
X4.252Y-4.8425
X4.2913Y-2.0079
X4.2913Y-2.2441
X4.3307Y-4.685
X4.3307Y-4.7638
X4.3307Y-4.8425
X4.3701Y-2.0079
X4.3701Y-2.2441
X4.3701Y-4.0945
X4.4094Y-4.7638
X4.4094Y-4.8425
X4.4488Y-2.0079
X4.4488Y-2.0866
X4.4488Y-2.1654
X4.4488Y-2.2441
X4.4488Y-4.0945
X4.4882Y-4.7638
X4.4882Y-4.8425
X4.5276Y-1.9291
X4.5276Y-2.0079
X4.5276Y-2.0866
X4.5276Y-2.1654
X4.5276Y-2.2441
X4.5276Y-4.0945
X4.5669Y-4.8425
X4.6063Y-1.8504
X4.6063Y-1.9291
X4.6063Y-2.0079
X4.6063Y-2.0866
X4.6063Y-2.1654
X4.6457Y-1.811
X4.685Y-1.8504
X4.7244Y-1.811
X4.752Y-4.0846
X4.7539Y-4.2815
X4.7559Y-3.1772
X4.7559Y-3.2815
X4.7559Y-3.3819
X4.7559Y-3.7815
X4.7559Y-4.1811
X4.7598Y-4.685
X4.7638Y-1.8504
X4.7854Y-2.1516
X4.7854Y-2.6417
X4.8031Y-1.811
X4.8425Y-1.8504
X4.8701Y-3.8819
X4.8819Y-1.811
X4.9213Y-1.8504
X4.9213Y-3.4252
X4.9606Y-1.811
X4.9606Y-1.8898
X4.9606Y-1.9685
X4.9606Y-2.0472
X4.9606Y-2.126
X5.0Y-1.8504
X5.0394Y-1.811
X5.0787Y-1.8504
X5.0787Y-3.4252
X5.0787Y-3.5827
X5.0787Y-3.7402
X5.1181Y-1.811
X5.1358Y-2.1516
X5.1575Y-1.8504
X5.1969Y-1.811
X5.2362Y-1.8504
X5.2362Y-3.4252
X5.2362Y-3.5827
X5.2362Y-3.7402
X5.2756Y-1.811
X5.315Y-1.8504
X5.315Y-1.9291
X5.315Y-2.0079
X5.315Y-2.0866
X5.3543Y-1.811
X5.3937Y-1.8504
X5.3937Y-3.4252
X5.3937Y-3.5827
X5.3937Y-3.7402
X5.4331Y-1.811
X5.4724Y-1.8504
X5.4823Y-3.185
X5.4882Y-2.1496
X5.5157Y-4.687
X5.5177Y-3.685
X5.5177Y-4.187
X5.561Y-3.185
X7.3228Y-1.9291
X7.3228Y-2.0079
X7.3228Y-2.0866
X7.3228Y-2.1654
X7.3228Y-2.2441
X7.3228Y-2.874
X7.3228Y-2.9528
X7.3228Y-3.0315
X7.3228Y-3.1102
X7.3228Y-3.189
X7.3228Y-3.7992
X7.3228Y-3.878
X7.3228Y-3.9567
X7.3228Y-4.0354
X7.3228Y-4.1142
X7.4016Y-1.9291
X7.4016Y-2.0079
X7.4016Y-2.0866
X7.4016Y-2.1654
X7.4016Y-2.2441
X7.4016Y-2.874
X7.4016Y-2.9528
X7.4016Y-3.0315
X7.4016Y-3.1102
X7.4016Y-3.189
X7.4016Y-3.7992
X7.4016Y-3.878
X7.4016Y-3.9567
X7.4016Y-4.0354
X7.4016Y-4.1142
X7.4803Y-1.9291
X7.4803Y-2.0079
X7.4803Y-2.0866
X7.4803Y-2.1654
X7.4803Y-2.2441
X7.4803Y-2.874
X7.4803Y-2.9528
X7.4803Y-3.0315
X7.4803Y-3.1102
X7.4803Y-3.189
X7.4803Y-3.7992
X7.4803Y-3.878
X7.4803Y-3.9567
X7.4803Y-4.0354
X7.4803Y-4.1142
T2
X5.372Y-1.5236
T3
X4.1811Y-4.0591
X4.1811Y-4.1142
X4.2362Y-4.0591
X4.2362Y-4.1142
X4.2913Y-4.0591
X4.2913Y-4.1142
T4
X4.3957Y-3.1906
T5
X4.9606Y-3.7402
X4.9744Y-4.4331
T6
X5.8236Y-1.3035
X5.8236Y-1.4035
X5.8236Y-1.5035
X5.8236Y-1.6035
X5.8236Y-1.7035
X5.8236Y-1.8035
X5.8236Y-1.9035
X5.8236Y-2.0035
X5.8236Y-2.2352
X5.8236Y-2.3352
X5.8236Y-2.4352
X5.8236Y-2.5352
X5.8236Y-2.6352
X5.8236Y-2.7352
X5.8236Y-2.8352
X5.8236Y-2.9352
X5.8236Y-3.1669
X5.8236Y-3.2669
X5.8236Y-3.3669
X5.8236Y-3.4669
X5.8236Y-3.5669
X5.8236Y-3.6669
X5.8236Y-3.7669
X5.8236Y-3.8669
X5.8236Y-4.0986
X5.8236Y-4.1986
X5.8236Y-4.2986
X5.8236Y-4.3986
X5.8236Y-4.4986
X5.8236Y-4.5986
X5.8236Y-4.6986
X5.8236Y-4.7986
X6.1083Y-1.4921
X6.1083Y-1.5906
X6.1083Y-2.4409
X6.1083Y-2.5394
X6.1083Y-3.3661
X6.1083Y-3.4646
X6.1083Y-4.2874
X6.1083Y-4.3858
X6.3236Y-1.3035
X6.3236Y-1.4035
X6.3236Y-1.5035
X6.3236Y-1.6035
X6.3236Y-1.7035
X6.3236Y-1.8035
X6.3236Y-1.9035
X6.3236Y-2.0035
X6.3236Y-2.2352
X6.3236Y-2.3352
X6.3236Y-2.4352
X6.3236Y-2.5352
X6.3236Y-2.6352
X6.3236Y-2.7352
X6.3236Y-2.8352
X6.3236Y-2.9352
X6.3236Y-3.1669
X6.3236Y-3.2669
X6.3236Y-3.3669
X6.3236Y-3.4669
X6.3236Y-3.5669
X6.3236Y-3.6669
X6.3236Y-3.7669
X6.3236Y-3.8669
X6.3236Y-4.0986
X6.3236Y-4.1986
X6.3236Y-4.2986
X6.3236Y-4.3986
X6.3236Y-4.4986
X6.3236Y-4.5986
X6.3236Y-4.6986
X6.3236Y-4.7986
X6.7244Y-1.3028
X6.7244Y-1.4028
X6.7244Y-1.5028
X6.7244Y-1.6028
X6.7244Y-1.7028
X6.7244Y-1.8028
X6.7244Y-1.9028
X6.7244Y-2.0028
X6.7244Y-2.2344
X6.7244Y-2.3344
X6.7244Y-2.4344
X6.7244Y-2.5344
X6.7244Y-2.6344
X6.7244Y-2.7344
X6.7244Y-2.8344
X6.7244Y-2.9344
X6.7244Y-3.1661
X6.7244Y-3.2661
X6.7244Y-3.3661
X6.7244Y-3.4661
X6.7244Y-3.5661
X6.7244Y-3.6661
X6.7244Y-3.7661
X6.7244Y-3.8661
X6.7244Y-4.0978
X6.7244Y-4.1978
X6.7244Y-4.2978
X6.7244Y-4.3978
X6.7244Y-4.4978
X6.7244Y-4.5978
X6.7244Y-4.6978
X6.7244Y-4.7978
X7.0079Y-1.4961
X7.0079Y-1.5945
X7.0079Y-2.4409
X7.0079Y-2.5394
X7.0079Y-3.3661
X7.0079Y-3.4646
X7.0079Y-4.2913
X7.0079Y-4.3898
X7.2244Y-1.3028
X7.2244Y-1.4028
X7.2244Y-1.5028
X7.2244Y-1.6028
X7.2244Y-1.7028
X7.2244Y-1.8028
X7.2244Y-1.9028
X7.2244Y-2.0028
X7.2244Y-2.2344
X7.2244Y-2.3344
X7.2244Y-2.4344
X7.2244Y-2.5344
X7.2244Y-2.6344
X7.2244Y-2.7344
X7.2244Y-2.8344
X7.2244Y-2.9344
X7.2244Y-3.1661
X7.2244Y-3.2661
X7.2244Y-3.3661
X7.2244Y-3.4661
X7.2244Y-3.5661
X7.2244Y-3.6661
X7.2244Y-3.7661
X7.2244Y-3.8661
X7.2244Y-4.0978
X7.2244Y-4.1978
X7.2244Y-4.2978
X7.2244Y-4.3978
X7.2244Y-4.4978
X7.2244Y-4.5978
X7.2244Y-4.6978
X7.2244Y-4.7978
T7
X4.1142Y-2.4083
X4.1142Y-2.5083
X4.1142Y-2.6083
X4.1142Y-2.7083
X4.1142Y-2.8083
X4.1142Y-2.9083
X4.1161Y-3.2181
X4.1161Y-3.3181
X4.1161Y-3.4181
X4.1161Y-3.5181
X4.1161Y-3.7386
X4.1161Y-3.8386
X4.25Y-3.6831
X4.25Y-3.8602
X4.2559Y-2.4083
X4.2559Y-2.5083
X4.2559Y-2.6083
X4.2559Y-2.7083
X4.2559Y-2.8083
X4.2559Y-2.9083
X4.4547Y-2.3677
X4.4547Y-2.4677
X4.4547Y-2.5677
X4.4547Y-2.7094
X4.4547Y-2.8094
X4.4547Y-2.9094
X4.5059Y-3.6831
X4.5059Y-3.8602
X4.5157Y-4.5329
X4.5157Y-4.6329
X4.7362Y-1.9168
X4.7362Y-2.4055
X4.8362Y-1.9168
X4.8362Y-2.4055
X5.0866Y-1.9168
X5.0866Y-2.4055
X5.1866Y-1.9168
X5.1866Y-2.4055
X5.437Y-1.9168
X5.437Y-2.4055
X5.537Y-1.9168
X5.537Y-2.4055
X5.9734Y-1.8921
X5.9734Y-1.9921
X5.9734Y-2.8238
X5.9734Y-2.9238
X5.9734Y-3.7555
X5.9734Y-3.8555
X5.9734Y-4.686
X5.9734Y-4.786
X6.0734Y-1.8921
X6.0734Y-1.9921
X6.0734Y-2.8238
X6.0734Y-2.9238
X6.0734Y-3.7555
X6.0734Y-3.8555
X6.0734Y-4.686
X6.0734Y-4.786
X6.1734Y-1.8921
X6.1734Y-1.9921
X6.1734Y-2.8238
X6.1734Y-2.9238
X6.1734Y-3.7555
X6.1734Y-3.8555
X6.1734Y-4.686
X6.1734Y-4.786
X6.5059Y-3.3673
X6.5059Y-3.4673
X6.5059Y-3.5673
X6.5059Y-3.6673
X6.5059Y-4.299
X6.5059Y-4.399
X6.5059Y-4.499
X6.5059Y-4.599
X6.5161Y-1.5039
X6.5161Y-1.6039
X6.5161Y-1.7039
X6.5161Y-1.8039
X6.5161Y-2.4356
X6.5161Y-2.5356
X6.5161Y-2.6356
X6.5161Y-2.7356
X6.8742Y-1.8913
X6.8742Y-1.9913
X6.8742Y-2.823
X6.8742Y-2.923
X6.8742Y-3.7547
X6.8742Y-3.8547
X6.8742Y-4.6864
X6.8742Y-4.7864
X6.9742Y-1.8913
X6.9742Y-1.9913
X6.9742Y-2.823
X6.9742Y-2.923
X6.9742Y-3.7547
X6.9742Y-3.8547
X6.9742Y-4.6864
X6.9742Y-4.7864
X7.0742Y-1.8913
X7.0742Y-1.9913
X7.0742Y-2.823
X7.0742Y-2.923
X7.0742Y-3.7547
X7.0742Y-3.8547
X7.0742Y-4.6864
X7.0742Y-4.7864
X7.4114Y-1.5031
X7.4114Y-1.6031
X7.4114Y-1.7031
X7.4114Y-1.8031
X7.4114Y-2.4348
X7.4114Y-2.5348
X7.4114Y-2.6348
X7.4114Y-2.7348
X7.4114Y-3.3665
X7.4114Y-3.4665
X7.4114Y-3.5665
X7.4114Y-3.6665
X7.4114Y-4.2982
X7.4114Y-4.3982
X7.4114Y-4.4982
X7.4114Y-4.5982
T8
X4.3071Y-1.8967
X4.3071Y-2.0935
T9
X4.7207Y-1.5965
X4.8648Y-1.5965
X5.0407Y-1.5965
X5.1848Y-1.5965
T10
X4.1142Y-1.2205
X4.1142Y-4.8425
X7.4311Y-1.2205
X7.4311Y-4.8425
T0
M30
