<?xml version="1.0" standalone="no"?>
<!DOCTYPE svg PUBLIC "-//W3C//DTD SVG 1.1//EN"
"http://www.w3.org/Graphics/SVG/1.1/DTD/svg11.dtd">
<svg width="137.008" height="137.008" viewBox="0 0 2854.33 2854.33" version="1.1"
xmlns="http://www.w3.org/2000/svg"
xmlns:xlink="http://www.w3.org/1999/xlink">
<g fill-rule="evenodd"><path d="M 88.5826,2755.99 L 88.5826,1948.74 L 90.1326,1943.46 L 94.2886,1939.86 L 98.3446,1938.98 L 602.401,1938.98 L 607.679,1940.53 L 611.283,1944.69 L 612.165,1948.74 L 612.165,2100.23 L 612.669,2104.92 L 616.629,2115.54 L 623.421,2124.61 L 632.493,2131.4 L 643.111,2135.36 L 647.805,2135.87 L 812.823,2135.87 L 817.517,2135.36 L 828.135,2131.4 L 837.207,2124.61 L 843.999,2115.54 L 847.959,2104.92 L 848.463,2100.23 L 848.463,1948.74 L 850.013,1943.46 L 854.171,1939.86 L 858.227,1938.98 L 2244.17,1938.98 L 2249.45,1940.53 L 2253.05,1944.69 L 2253.94,1948.74 L 2253.94,2755.99 L 2252.39,2761.26 L 2248.23,2764.87 L 2244.17,2765.75 L 98.3446,2765.75 L 93.0666,2764.2 L 89.4646,2760.04 L 88.5826,2755.99 z " style="fill-opacity:1.000000;fill:rgb(103,198,105);stroke:rgb(0,0,0);stroke-width:2"/></g>
<g fill-rule="evenodd"><path d="M 88.5826,1220.55 L 88.5826,98.3481 L 90.1326,93.0681 L 94.2886,89.4661 L 98.3446,88.5841 L 1023.7,88.5841 L 1028.98,90.1341 L 1032.58,94.2921 L 1033.46,98.3481 L 1033.46,1220.55 L 1031.91,1225.83 L 1027.76,1229.43 L 1023.7,1230.32 L 98.3446,1230.32 L 93.0666,1228.77 L 89.4646,1224.61 L 88.5826,1220.55 z " style="fill-opacity:1.000000;fill:rgb(115,81,255);stroke:rgb(0,0,0);stroke-width:2"/></g>
<g fill-rule="evenodd"><path d="M 651.575,2096.46 L 651.575,1938.98 L 809.055,1938.98 L 809.055,2096.46 L 651.575,2096.46 z " style="fill-opacity:1.000000;fill:rgb(74,236,41);stroke:rgb(0,0,0);stroke-width:2"/></g>
<g fill-rule="evenodd"><path d="M 1072.83,1889.84 L 1072.83,1318.82 L 1074.38,1313.54 L 1078.54,1309.94 L 1082.6,1309.06 L 1383.86,1309.06 L 1383.86,1287.4 L 1549.21,1287.4 L 1549.21,1309.06 L 2131.89,1309.06 L 2131.89,1287.4 L 2297.24,1287.4 L 2297.24,1309.06 L 2755.98,1309.06 L 2761.26,1310.61 L 2764.86,1314.76 L 2765.75,1318.82 L 2765.75,1889.84 L 2764.2,1895.12 L 2760.04,1898.72 L 2755.98,1899.61 L 1082.6,1899.61 L 1077.32,1898.06 L 1073.72,1893.9 L 1072.83,1889.84 z " style="fill-opacity:1.000000;fill:rgb(205,186,171);stroke:rgb(0,0,0);stroke-width:2"/></g>
<g fill-rule="evenodd"><path d="M 1072.83,905.592 L 1072.83,98.3481 L 1074.38,93.0681 L 1078.54,89.4661 L 1082.6,88.5841 L 2322.91,88.5841 L 2328.19,90.1341 L 2331.79,94.2921 L 2332.68,98.3481 L 2332.68,905.592 L 2331.13,910.87 L 2326.97,914.472 L 2322.91,915.356 L 2297.24,915.356 L 2297.24,937.008 L 2131.89,937.008 L 2131.89,915.356 L 1549.21,915.356 L 1549.21,937.008 L 1383.86,937.008 L 1383.86,915.356 L 1082.6,915.356 L 1077.32,913.806 L 1073.72,909.648 L 1072.83,905.592 z " style="fill-opacity:1.000000;fill:rgb(242,251,227);stroke:rgb(0,0,0);stroke-width:2"/></g>
</svg>
