<?xml version="1.0" standalone="no"?>
<!DOCTYPE svg PUBLIC "-//W3C//DTD SVG 1.1//EN"
"http://www.w3.org/Graphics/SVG/1.1/DTD/svg11.dtd">
<svg width="137.008" height="137.008" viewBox="0 0 2854.33 2854.33" version="1.1"
xmlns="http://www.w3.org/2000/svg"
xmlns:xlink="http://www.w3.org/1999/xlink">
<g fill-rule="evenodd"><path d="M 0.000173939,1584.54 L 17.0429,1584.63 L 21.2933,1584.65 L 98.3446,1584.65 L 602.401,1584.65 L 626.988,1585.07 L 626.988,1855.26 L 627.295,1873.73 L 629.001,1922.05 L 629.585,1928.82 L 631.024,1938.98 L 631.196,1940.36 L 631.642,1944.51 L 631.87,1948.74 L 631.87,2096.46 L 631.963,2099.17 L 632.122,2100.32 L 634.19,2105.95 L 637.569,2110.46 L 642.082,2113.84 L 647.71,2115.91 L 648.868,2116.07 L 651.575,2116.16 L 809.055,2116.16 L 811.763,2116.07 L 812.922,2115.91 L 818.545,2113.84 L 823.059,2110.46 L 826.437,2105.95 L 828.506,2100.32 L 828.665,2099.17 L 828.759,2096.46 L 828.759,1948.74 L 829.166,1943.07 L 829.755,1938.98 L 829.934,1937.57 L 831.613,1922.22 L 832.102,1914.39 L 833.465,1844.64 L 833.641,1825.92 L 833.641,1701.05 L 858.227,1724.37 L 1023.7,1889.84 L 1033.24,1898.45 L 1037.39,1901.8 L 1053.13,1911.74 L 1058.63,1914.25 L 1071.43,1918.1 L 1076.94,1918.89 L 1082.6,1919.29 L 2244.17,1919.29 L 2249.83,1919.7 L 2255.33,1920.49 L 2268.13,1924.33 L 2273.64,1926.85 L 2289.38,1936.79 L 2293.53,1940.13 L 2303.07,1948.74 L 2755.98,2401.65 L 2820.24,2462.26 L 2854.33,2491.12 L 2854.33,2854.33 L -4.26326e-14,2854.33 L 0.000173939,1584.54 z " style="fill-opacity:0.200000;fill:rgb(103,198,105);"/></g>
<g fill-rule="evenodd"><path d="M 1052.7,-1.20773e-05 L 1052.68,9.43898 L 1053.36,60.4168 L 1053.17,68.589 L 1053.13,69.2137 L 1052.98,76.6179 L 1053.28,86.8736 L 1053.27,89.792 L 1053.18,92.5769 L 1053.15,94.0673 L 1053.15,98.3481 L 1053.15,905.592 L 1053.38,909.823 L 1053.82,913.974 L 1056.39,924.659 L 1058.44,930.16 L 1067.68,946.635 L 1071.8,952.136 L 1082.6,964.49 L 1230.31,1112.21 L 1121.97,1220.55 L 1099.71,1240.01 L 1094.21,1244.13 L 1082.6,1252.01 L 1071.64,1258.68 L 1067.87,1260.87 L 1064.11,1262.96 L 1059.3,1265.81 L 1047,1273.57 L 1042.19,1276.41 L 1038.43,1278.5 L 1034.65,1280.69 L 1023.7,1287.36 L 1012.09,1295.25 L 1006.58,1299.36 L 984.331,1318.82 L 718.504,1584.65 L 651.575,1584.65 L 626.988,1585.07 L 602.401,1584.65 L 98.3446,1584.65 L 21.2933,1584.65 L 17.0429,1584.63 L -0.000120887,1584.54 L -4.26326e-14,4.54747e-13 L 1052.7,-1.20773e-05 z " style="fill-opacity:0.200000;fill:rgb(115,81,255);"/></g>
<g fill-rule="evenodd"><path d="M 626.988,1855.26 L 626.988,1585.07 L 651.575,1584.65 L 718.504,1584.65 L 809.055,1675.2 L 833.641,1701.05 L 833.641,1825.92 L 833.465,1844.64 L 832.102,1914.39 L 831.613,1922.22 L 829.934,1937.57 L 829.755,1938.98 L 829.166,1943.07 L 828.759,1948.74 L 828.759,2096.46 L 828.665,2099.17 L 828.506,2100.32 L 826.437,2105.95 L 823.059,2110.46 L 818.545,2113.84 L 812.922,2115.91 L 811.763,2116.07 L 809.055,2116.16 L 651.575,2116.16 L 648.868,2116.07 L 647.71,2115.91 L 642.082,2113.84 L 637.569,2110.46 L 634.19,2105.95 L 632.122,2100.32 L 631.963,2099.17 L 631.87,2096.46 L 631.87,1948.74 L 631.642,1944.51 L 631.196,1940.36 L 631.024,1938.98 L 629.585,1928.82 L 629.001,1922.05 L 627.295,1873.73 L 626.988,1855.26 z " style="fill-opacity:0.200000;fill:rgb(74,236,41);"/></g>
<g fill-rule="evenodd"><path d="M 2854.33,797.065 L 2854.33,2491.12 L 2820.24,2462.26 L 2755.98,2401.65 L 2303.07,1948.74 L 2293.53,1940.13 L 2289.38,1936.79 L 2273.64,1926.85 L 2268.13,1924.33 L 2255.33,1920.49 L 2249.83,1919.7 L 2244.17,1919.29 L 1082.6,1919.29 L 1076.94,1918.89 L 1071.43,1918.1 L 1058.63,1914.25 L 1053.13,1911.74 L 1037.39,1901.8 L 1033.24,1898.45 L 1023.7,1889.84 L 858.227,1724.37 L 833.641,1701.05 L 809.055,1675.2 L 718.504,1584.65 L 984.331,1318.82 L 1006.58,1299.36 L 1012.09,1295.25 L 1023.7,1287.36 L 1034.65,1280.69 L 1038.43,1278.5 L 1042.19,1276.41 L 1047,1273.57 L 1059.3,1265.81 L 1064.11,1262.96 L 1067.87,1260.87 L 1071.64,1258.68 L 1082.6,1252.01 L 1094.21,1244.13 L 1099.71,1240.01 L 1121.97,1220.55 L 1230.31,1112.21 L 1294.1,1112.21 L 1294.1,1112.21 L 1383.86,1112.21 L 1549.21,1112.21 L 1638.97,1112.21 L 1638.97,1112.21 L 2042.13,1112.21 L 2042.14,1112.21 L 2131.89,1112.21 L 2297.24,1112.21 L 2387,1112.21 L 2413.85,1104.76 L 2440.71,1095.37 L 2474.11,1084.33 L 2479.61,1082.28 L 2517.01,1066.58 L 2554.4,1047.36 L 2591.8,1024.64 L 2629.19,998.404 L 2634.69,994.286 L 2685.42,953.127 L 2736.14,905.592 L 2755.98,885.75 L 2793.01,850.218 L 2833.01,814.686 L 2854.33,797.065 z " style="fill-opacity:0.200000;fill:rgb(205,186,171);"/></g>
<g fill-rule="evenodd"><path d="M 1052.7,-1.20773e-05 L 2854.33,4.54747e-13 L 2854.33,797.065 L 2833.01,814.686 L 2793.01,850.218 L 2755.98,885.75 L 2736.14,905.592 L 2685.42,953.127 L 2634.69,994.286 L 2629.19,998.404 L 2591.8,1024.64 L 2554.4,1047.36 L 2517.01,1066.58 L 2479.61,1082.28 L 2474.11,1084.33 L 2440.71,1095.37 L 2413.85,1104.76 L 2387,1112.21 L 2297.24,1112.21 L 2131.89,1112.21 L 2042.14,1112.21 L 2042.13,1112.21 L 1638.97,1112.21 L 1638.97,1112.21 L 1549.21,1112.21 L 1383.86,1112.21 L 1294.1,1112.21 L 1294.1,1112.21 L 1230.31,1112.21 L 1082.6,964.49 L 1071.8,952.136 L 1067.68,946.635 L 1058.44,930.16 L 1056.39,924.659 L 1053.82,913.974 L 1053.38,909.823 L 1053.15,905.592 L 1053.15,98.3481 L 1053.15,94.0673 L 1053.18,92.5769 L 1053.27,89.792 L 1053.28,86.8736 L 1052.98,76.6179 L 1053.13,69.2137 L 1053.17,68.589 L 1053.36,60.4168 L 1052.68,9.43898 L 1052.7,-1.20773e-05 z " style="fill-opacity:0.200000;fill:rgb(242,251,227);"/></g>
<polyline points="2750,2405.69 2750,2755.99 2747.61,2789.37 2662.57,2789.37 2664.96,2755.99 2664.96,2320.65 2650.79,2306.48 2650.79,2755.99 2648.4,2789.37 2676.74,2789.37 2679.13,2755.99 2679.13,2334.83 2636.61,2292.31 2636.61,2755.99 2634.22,2789.37 2563.36,2789.37 2565.75,2755.99 2565.75,2221.44 2537.4,2193.1 2537.4,2755.99 2535.01,2789.37 2478.16,2789.37 2480.71,2755.99 2480.71,2136.4 2466.53,2122.23 2466.53,2755.99 2464.37,2786.25 2463.69,2789.37 2449.22,2789.37 2450.34,2784.23 2452.36,2755.99 2452.36,2108.06 2438.19,2093.89 2438.19,2755.99 2436.31,2782.21 2434.75,2789.37 2420.29,2789.37 2422.28,2780.2 2424.01,2755.99 2424.01,2079.71" style="stroke:rgb(103,198,105);stroke-width:28.346457;fill:none;stroke-opacity:0.5;stroke-linecap:round;stroke-linejoin:round;;fill:none"/>
<polyline points="2750,2405.69 2750,2755.99 2747.61,2789.37 2662.57,2789.37 2664.96,2755.99 2664.96,2320.65 2650.79,2306.48 2650.79,2755.99 2648.4,2789.37 2676.74,2789.37 2679.13,2755.99 2679.13,2334.83 2636.61,2292.31 2636.61,2755.99 2634.22,2789.37 2563.36,2789.37 2565.75,2755.99 2565.75,2221.44 2537.4,2193.1 2537.4,2755.99 2535.01,2789.37 2478.16,2789.37 2480.71,2755.99 2480.71,2136.4 2466.53,2122.23 2466.53,2755.99 2464.37,2786.25 2463.69,2789.37 2449.22,2789.37 2450.34,2784.23 2452.36,2755.99 2452.36,2108.06 2438.19,2093.89 2438.19,2755.99 2436.31,2782.21 2434.75,2789.37 2420.29,2789.37 2422.28,2780.2 2424.01,2755.99 2424.01,2079.71" style="stroke:rgb(0,0,0);stroke-width:1px;fill:none;stroke-opacity:1;stroke-linecap:round;stroke-linejoin:round;;fill:none"/>
<polyline points="2677.23,968.9 2755.98,968.9 2789.37,971.286 2789.37,957.114 2755.98,954.726 2694.07,954.726 2709.2,940.554 2755.98,940.554 2789.37,942.94 2789.37,928.768 2755.98,926.38 2724.32,926.38 2739.45,912.206 2755.98,912.206 2789.37,914.594 2789.37,985.46 2755.98,983.072 2659.76,983.072 2642.29,997.246 2755.98,997.246 2789.37,999.634 2789.37,1013.81 2755.98,1011.42 2622.98,1011.42 2602.78,1025.59 2755.98,1025.59 2789.37,1027.98 2789.37,1042.15 2755.98,1039.77 2580.55,1039.77 2789.37,1300.61 2786.29,1296.2 2782.69,1292.05 2778.79,1288.33 2774.25,1285.41 2769.25,1283.41 2763.97,1281.86 2760.01,1281 2755.98,1280.71 2324.69,1280.71 2323.15,1283.05 2324.69,1280.71 2323.43,1276.55 2320.81,1271.65 2317.29,1267.36 2312.99,1263.83 2308.09,1261.21 2302.77,1259.6 2297.24,1259.06 2131.89,1259.06 2126.36,1259.6 2121.04,1261.21 2116.14,1263.83 2111.84,1267.36 2108.32,1271.65 2105.7,1276.55 2104.44,1280.71 2105.98,1283.05 2104.44,1280.71 1576.66,1280.71 1575.12,1283.05 1576.66,1280.71 1575.4,1276.55 1572.78,1271.65 1569.25,1267.36 1564.96,1263.83 1560.06,1261.21 1554.74,1259.6 1549.21,1259.06 1383.86,1259.06 1378.33,1259.6 1373.01,1261.21 1368.11,1263.83 1363.81,1267.36 1360.29,1271.65 1357.67,1276.55 1356.41,1280.71 1357.95,1283.05 1356.41,1280.71 1082.59,1280.71 1079.57,1280.87 1072.52,1282.24 1068,1283.62 1063.78,1285.74 1059.97,1288.52 1055.81,1292.13 1052.1,1296.03 1049.19,1300.56 1047.19,1305.56 1045.64,1310.83 1044.78,1314.79 1044.49,1318.82 1044.65,1892.87 1045.75,1898.7 1056.5,1905.49 1061.13,1907.6 1070.4,1910.39 1068.55,1909.2 1066.6,1907.34 1061.61,1901.28 1059.86,1896.91 1058.66,1889.84 1058.66,1318.82 1059.23,1314.83 1060.78,1309.55 1061.78,1307.05 1063.24,1304.78 1069.25,1299.23 1073.27,1296.78 1079.58,1295.21 1082.59,1294.88 1369.68,1294.88 1369.96,1284.64 1370.76,1281.98 1372.07,1279.53 1373.83,1277.38 1375.98,1275.62 1378.43,1274.31 1381.09,1273.5 1383.86,1273.23 1549.21,1273.23 1551.98,1273.5 1554.63,1274.31 1557.09,1275.62 1559.23,1277.38 1561,1279.53 1562.31,1281.98 1563.11,1284.64 1563.38,1287.4 1563.38,1294.88 2117.71,1294.88 2117.71,1287.4 2117.99,1284.64 2118.79,1281.98 2120.1,1279.53 2121.87,1277.38 2124.01,1275.62 2126.46,1274.31 2129.12,1273.5 2131.89,1273.23 2297.24,1273.23 2300.01,1273.5 2302.67,1274.31 2305.12,1275.62 2307.26,1277.38 2309.03,1279.53 2310.34,1281.98 2311.14,1284.64 2311.42,1294.88 2755.98,1294.88 2759.97,1295.46 2767.76,1298.01 2770.02,1299.47 2771.97,1301.33 2776.97,1307.39 2778.71,1311.75 2779.92,1318.82 2779.92,1889.84 2779.34,1893.84 2777.79,1899.12 2776.79,1901.62 2775.34,1903.89 2773.48,1905.84 2767.41,1910.83 2763.06,1912.57 2755.98,1913.78 1082.6,1913.78 1078.6,1913.21 1061.13,1907.6 1056.5,1905.49 1041.51,1896.03 1028.58,1884.71 863.237,1719.36 838.651,1696.04 814.065,1670.19 728.525,1584.65 732.677,1580.5 732.677,1588.8 732.677,1580.5 761.023,1552.15 746.851,1566.32 746.851,1602.97 761.023,1617.15 761.023,1552.15 789.369,1523.8 775.197,1537.98 775.197,1631.32 789.369,1645.49 789.369,1523.8 817.715,1495.46 803.543,1509.63 803.543,1659.67 817.715,1674.02 817.715,1495.46 831.889,1481.28 831.889,1688.93 793.519,1669.69 651.575,1669.69 634.073,1671.41 634.073,1685.58 651.575,1683.86 807.509,1683.86 822.221,1699.33 809.055,1698.03 651.575,1698.03 634.073,1699.76 634.073,1628.89 651.575,1627.17 750.999,1627.17 736.825,1612.99 651.575,1612.99 634.073,1614.72 634.073,1600.54 651.575,1598.82 722.653,1598.82 803.981,1680.15 826.553,1703.88 826.553,1825.89 825.299,1899.69 817.349,1897.27 809.055,1896.46 651.575,1896.46 643.279,1897.27 635.303,1899.69 635.857,1915.39 640.727,1912.79 646.045,1911.18 651.575,1910.63 809.055,1910.63 814.585,1911.18 819.903,1912.79 824.929,1915.51 824.551,1921.62 822.953,1936.2 824.551,1921.62 825.019,1914.1 825.585,1885.03 820.115,1883.37 809.055,1882.28 651.575,1882.28 640.513,1883.37 634.787,1885.11 636.077,1921.62 637.753,1935.95 638.479,1933.55 639.789,1931.1 641.553,1928.96 643.699,1927.19 646.151,1925.88 648.809,1925.08 651.575,1924.8 809.055,1924.8 811.819,1925.08 814.479,1925.88 816.929,1927.19 819.077,1928.96 820.839,1931.1 822.149,1933.55 822.953,1936.2 823.227,1938.98 823.227,2096.46 822.955,2099.22 822.149,2101.88 820.839,2104.33 819.077,2106.48 816.929,2108.24 814.479,2109.55 811.819,2110.36 809.055,2110.63 651.575,2110.63 648.809,2110.36 646.151,2109.55 643.699,2108.24 641.553,2106.48 639.789,2104.33 638.479,2101.88 637.673,2099.22 637.401,2096.46 637.401,1938.98 637.753,1935.95 636.077,1921.62 634.329,1870.51 637.749,1869.47 651.575,1868.11 809.055,1868.11 822.879,1869.47 825.873,1870.38 826.159,1855.73 809.055,1853.94 651.575,1853.94 634.085,1855.84 634.379,1873.55 634.073,1827.32 634.073,1841.49 651.575,1839.76 809.055,1839.76 826.407,1841.47 826.539,1827.31 809.055,1825.59 651.575,1825.59 634.073,1827.32 634.073,1770.62 634.073,1813.14 651.575,1811.42 809.055,1811.42 826.553,1813.14 826.553,1784.8 826.553,1798.97 809.055,1797.25 651.575,1797.25 634.073,1798.97 634.073,1784.8 651.575,1783.07 809.055,1783.07 826.553,1784.8 826.553,1770.62 809.055,1768.9 651.575,1768.9 634.073,1770.62 634.073,1742.28 634.073,1756.45 651.575,1754.73 809.055,1754.73 826.553,1756.45 826.553,1742.28 809.055,1740.55 651.575,1740.55 634.073,1742.28 634.073,1713.93 634.073,1728.1 651.575,1726.38 809.055,1726.38 826.553,1728.1 826.553,1713.93 809.055,1712.21 651.575,1712.21 634.073,1713.93 634.073,1592.04 651.635,1591.73 715.567,1591.73 779.345,1655.51 765.173,1641.34 651.575,1641.34 634.073,1643.06 634.073,1657.24 651.575,1655.51 779.345,1655.51 793.519,1669.69 831.889,1688.93 831.889,1481.28 860.235,1452.94 846.063,1467.11 846.063,1703.07 860.235,1716.51 860.235,1452.94 888.581,1424.59 874.409,1438.76 874.409,1730.53 888.581,1744.7 888.581,1424.59 989.175,1324 1011.04,1304.88 1016.2,1301.02 1027.53,1293.33 1086.28,1258.06 1098.19,1249.99 1104.38,1245.34 1126.63,1225.89 1233.25,1119.29 1363.86,1119.29 1309.38,1119.29 1299.07,1124.81 1299.18,1125.23 1299.07,1124.81 1227.74,1124.8 1213.56,1138.98 1302.48,1138.98 1302.59,1139.4 1302.48,1138.98 1318.77,1130.27 1350.68,1120.59 1363.86,1119.29 2387.95,1119.23 2416.19,1111.45 2442.99,1102.08 2476.59,1090.97 2482.36,1088.81 2519.75,1073.11 2557.64,1053.67 2595.48,1030.7 2638.94,999.96 2689.88,958.632 2740.98,910.764 2760.95,890.804 2789.37,863.532 2789.37,872.074 2781.08,871.482 2789.37,872.074 2789.37,900.42 2789.37,886.248 2767.34,884.672 2753.72,898.034 2789.37,900.42 2789.37,1070.5 2789.37,1056.33 2755.98,1053.94 2557.11,1053.94 2529.53,1068.11 2755.98,1068.11 2789.37,1070.5 2789.37,1099.3 2789.37,1084.84 2755.98,1082.29 2497.9,1082.29 2482.09,1088.92 2460,1096.46 2755.98,1096.46 2786.23,1098.62 2789.37,1099.3 2789.37,1128.24 2789.37,1113.77 2784.21,1112.65 2755.98,1110.63 2418.53,1110.63 2387.02,1119.42 2371.71,1119.29 2382.03,1124.8 2381.92,1125.23 2382.03,1124.8 2755.98,1124.81 2782.2,1126.68 2789.37,1128.24 2789.37,1215.48 2789.37,1200.69 2772.11,1196.82 2755.98,1195.67 2363.34,1195.67 2363.21,1196.15 2363.34,1195.67 2360.24,1193.13 2340.63,1182.65 2319.36,1176.2 2297.24,1174.02 2131.89,1174.02 2109.77,1176.2 2088.5,1182.65 2068.89,1193.13 2065.79,1195.67 2065.92,1196.15 2065.79,1195.67 1615.31,1195.67 1615.18,1196.15 1615.31,1195.67 1612.2,1193.13 1592.6,1182.65 1571.33,1176.2 1549.21,1174.02 1383.86,1174.02 1361.74,1176.2 1340.47,1182.65 1320.86,1193.13 1317.76,1195.67 1317.89,1196.15 1317.76,1195.67 1156.87,1195.67 1142.7,1209.84 1322.72,1209.84 1323.02,1210.67 1322.72,1209.84 1328.74,1204.91 1345.89,1195.74 1364.5,1190.1 1383.86,1188.19 1549.21,1188.19 1568.57,1190.1 1587.18,1195.74 1604.33,1204.91 1610.34,1209.84 1610.05,1210.67 1610.34,1209.84 2070.76,1209.84 2071.05,1210.67 2070.76,1209.84 2076.77,1204.91 2093.92,1195.74 2112.53,1190.1 2131.89,1188.19 2297.24,1188.19 2316.6,1190.1 2335.21,1195.74 2352.36,1204.91 2358.37,1209.84 2358.08,1210.67 2358.37,1209.84 2755.98,1209.84 2770.1,1210.85 2783.93,1213.86 2789.37,1215.48 2789.37,1245.87 2789.37,1230.67 2785.21,1229.01 2779.93,1227.46 2768.08,1224.88 2755.98,1224.02 2353.41,1224.02 2353.11,1224.85 2353.41,1224.02 2344.49,1216.69 2329.79,1208.84 2313.83,1204 2297.24,1202.36 2131.89,1202.36 2115.3,1204 2099.35,1208.84 2084.64,1216.69 2075.72,1224.02 2076.01,1224.85 2075.72,1224.02 1605.38,1224.02 1605.08,1224.85 1605.38,1224.02 1596.46,1216.69 1581.75,1208.84 1565.8,1204 1549.21,1202.36 1383.86,1202.36 1367.27,1204 1351.31,1208.84 1336.61,1216.69 1327.69,1224.02 1327.98,1224.85 1327.69,1224.02 1128.52,1224.02 1112.56,1238.19 1333.01,1238.19 1333.33,1239.06 1333.01,1238.19 1333.75,1237.29 1344.49,1228.48 1356.74,1221.93 1370.03,1217.9 1383.86,1216.54 1549.21,1216.54 1563.04,1217.9 1576.33,1221.93 1588.58,1228.48 1599.32,1237.29 1600.06,1238.19 1599.74,1239.06 1600.06,1238.19 2081.04,1238.19 2081.36,1239.06 2081.04,1238.19 2081.78,1237.29 2092.52,1228.48 2104.77,1221.93 2118.06,1217.9 2131.89,1216.54 2297.24,1216.54 2311.07,1217.9 2324.36,1221.93 2336.61,1228.48 2347.35,1237.29 2348.09,1238.19 2347.77,1239.06 2348.09,1238.19 2755.98,1238.19 2766.06,1238.91 2775.94,1241.06 2781.22,1242.61 2789.37,1245.87 2789.37,1278.92 2789.37,1261.58 2787.24,1260.22 2777.23,1256.21 2771.95,1254.66 2764.05,1252.94 2755.98,1252.36 2341.47,1252.36 2340.83,1253.72 2341.47,1252.36 2337.33,1247.31 2328.74,1240.26 2318.94,1235.03 2308.3,1231.8 2297.24,1230.71 2131.89,1230.71 2120.83,1231.8 2110.19,1235.03 2100.39,1240.26 2091.8,1247.31 2087.66,1252.36 2088.3,1253.72 2087.66,1252.36 1593.44,1252.36 1592.8,1253.72 1593.44,1252.36 1589.3,1247.31 1580.71,1240.26 1570.91,1235.03 1560.27,1231.8 1549.21,1230.71 1383.86,1230.71 1372.8,1231.8 1362.16,1235.03 1352.36,1240.26 1343.77,1247.31 1339.62,1252.36 1340.27,1253.72 1339.62,1252.36 1094.69,1252.36 1086.28,1258.06 1062.99,1271.85 1045.13,1282.88 1040.95,1287.27 1036.59,1294.06 1033.59,1301.56 1032.04,1306.84 1030.75,1312.77 1030.31,1318.82 1030.31,1886.27 1041.51,1896.03 1044.49,1889.84 1058.66,1889.84 1044.49,1889.84 1041.51,1896.03 1028.58,1884.71 973.621,1829.74 973.621,1339.55 959.449,1353.73 959.447,1815.57 945.275,1801.4 945.275,1367.9 902.755,1410.42 902.755,1758.88 931.101,1787.22 916.929,1773.05 916.929,1396.24 931.101,1382.07 931.101,1787.22 1001.97,1858.09 987.795,1843.92 987.795,1325.38 1002.42,1312.41 1001.97,1318.82 1001.97,1858.09 1016.14,1872.26 1016.14,1318.82 1016.72,1310.75 1018.44,1302.85 1019.66,1298.67 1027.53,1293.33 1050.6,1279.67 1068.22,1268.78 1078.05,1266.78 1082.59,1266.54 1347.03,1266.54 1347.8,1268.06 1347.03,1266.54 1348.5,1263.78 1353.79,1257.34 1360.23,1252.05 1367.59,1248.12 1375.56,1245.7 1383.86,1244.88 1549.21,1244.88 1557.51,1245.7 1565.48,1248.12 1572.83,1252.05 1579.28,1257.34 1584.56,1263.78 1586.04,1266.54 1585.27,1268.06 1586.04,1266.54 2095.06,1266.54 2095.83,1268.06 2095.06,1266.54 2096.53,1263.78 2101.82,1257.34 2108.27,1252.05 2115.62,1248.12 2123.59,1245.7 2131.89,1244.88 2297.24,1244.88 2305.54,1245.7 2313.51,1248.12 2320.87,1252.05 2327.31,1257.34 2332.6,1263.78 2334.07,1266.54 2333.3,1268.06 2334.07,1266.54 2755.98,1266.54 2762.03,1266.97 2767.96,1268.26 2773.24,1269.81 2780.74,1272.81 2787.55,1277.19 2789.37,1278.92 2789.37,2423.4 2760.91,2396.57 2660.81,2296.46 2755.98,2296.46 2789.37,2294.67 2789.37,2308.84 2755.98,2310.63 2674.98,2310.63 2717.5,2353.15 2755.98,2353.15 2789.37,2351.36 2789.37,2365.53 2755.98,2367.33 2731.67,2367.33 2745.85,2381.5 2755.98,2381.5 2789.37,2379.71 2789.37,2422.23 2788.19,2422.29 2760.91,2396.57 2773.97,2408.88 2789.37,2408.05 2789.37,2393.88 2759.81,2395.47 2689.15,2324.81 2703.33,2338.98 2755.98,2338.98 2789.37,2337.19 2789.37,2323.02 2755.98,2324.81 2689.15,2324.81 2575.75,2211.4 2755.98,2211.42 2789.37,2209.63 2789.37,2223.8 2755.98,2225.59 2589.94,2225.59 2604.11,2239.77 2755.98,2239.77 2789.37,2237.98 2789.37,2252.15 2755.98,2253.94 2618.29,2253.94 2632.46,2268.11 2755.98,2268.11 2789.37,2266.32 2789.37,2280.49 2755.98,2282.29 2646.63,2282.29 2308.08,1943.73 2297.98,1934.61 2293.16,1930.79 2288.67,1927.96 2755.98,1927.96 2759.02,1927.79 2766.07,1926.42 2770.58,1925.04 2774.79,1922.93 2778.6,1920.15 2782.76,1916.55 2786.48,1912.65 2789.37,1908.15 2789.37,1929.57 2782.17,1935.03 2775.85,1938.2 2769.09,1940.27 2765.04,1941.15 2760.53,1941.88 2755.98,1942.13 2306.32,1942.13 2298.28,1934.87 2293.83,1931.27 2277.42,1920.85 2270.17,1917.55 2257.63,1913.78 2270.17,1917.55 2276.62,1920.32 2293.85,1931.24 2298.28,1934.87 2308.08,1943.73 2448.21,2083.86 2434.04,2069.69 2755.98,2069.69 2774.19,2068.71 2789.37,2066.25 2789.37,2051.9 2772.68,2054.62 2755.98,2055.51 2419.86,2055.51 2405.69,2041.34 2755.98,2041.34 2771.16,2040.53 2789.37,2037.39 2789.37,2022.69 2783.14,2024.24 2769.64,2026.43 2755.98,2027.17 2391.52,2027.17 2308.08,1943.73 2320.65,1956.3 2755.98,1956.3 2762.05,1955.98 2772.11,1954.12 2781.12,1951.35 2789.37,1947.22 2789.37,1929.57 2789.37,1978.37 2789.37,1963.02 2786.39,1964.51 2775.13,1967.97 2763.57,1970.07 2755.98,1970.48 2334.82,1970.48 2349,1984.65 2755.98,1984.65 2765.09,1984.16 2774.09,1982.7 2778.15,1981.81 2789.37,1978.37 2789.37,2007.92 2789.37,1993.15 2781.16,1995.66 2777.11,1996.55 2766.61,1998.25 2755.98,1998.82 2363.17,1998.82 2377.34,2012.99 2755.98,2012.99 2768.12,2012.34 2780.13,2010.39 2789.37,2007.92 2789.37,2195.29 2755.98,2197.25 2561.59,2197.25 2547.42,2183.07 2755.98,2183.07 2786.34,2181.44 2789.37,2180.95 2789.37,2166.62 2784.82,2167.35 2755.98,2168.9 2533.25,2168.9 2519.08,2154.73 2755.98,2154.73 2783.3,2153.26 2789.37,2152.28 2789.37,2137.94 2781.78,2139.17 2755.98,2140.55 2504.9,2140.55 2476.56,2112.21 2490.73,2126.38 2755.98,2126.38 2780.27,2125.08 2789.37,2123.6 2789.37,2109.26 2778.75,2110.98 2755.98,2112.21 2476.56,2112.21 2462.38,2098.03 2755.98,2098.03 2777.23,2096.89 2789.37,2094.92 2789.37,2080.58 2775.71,2082.8 2755.98,2083.86 2448.21,2083.86 2575.75,2211.4 2381.49,2037.19 2381.49,2755.99 2380.2,2774.14 2376.88,2789.37 2391.35,2789.37 2394.22,2776.16 2395.67,2755.99 2395.67,2051.36 2409.84,2065.54 2409.84,2755.99 2408.25,2778.18 2405.82,2789.37 2492.49,2789.37 2494.88,2755.99 2494.88,2150.58 2551.57,2207.27 2551.57,2755.99 2549.18,2789.37 2284.07,2789.37 2285.81,2787.55 2290.18,2780.75 2293.18,2773.25 2294.73,2767.97 2296.02,2762.04 2296.45,2755.99 2296.45,1952.32 2285.25,1942.56 2281.02,1939.89 2282.12,1945.71 2282.28,1948.74 2282.28,2755.99 2281.99,2760.02 2281.13,2763.97 2279.58,2769.25 2277.58,2774.26 2274.67,2778.79 2270.95,2782.69 2266.79,2786.29 2262.38,2789.37 2301.41,2789.37 2302.77,2787.25 2306.78,2777.24 2308.33,2771.96 2310.05,2764.06 2310.63,2755.99 2310.63,1966.32 2298.19,1953.88 2285.25,1942.56 2270.26,1933.09 2265.63,1930.98 2256.36,1928.2 2258.21,1929.39 2260.16,1931.25 2265.15,1937.31 2266.9,1941.68 2268.11,1948.74 2268.11,2755.99 2267.53,2759.98 2265.98,2765.26 2264.98,2767.76 2263.53,2770.03 2257.51,2775.58 2253.49,2778.03 2247.18,2779.6 2244.17,2779.92 98.3446,2779.92 94.3506,2779.35 89.0726,2777.8 86.5706,2776.8 84.3046,2775.34 82.3546,2773.48 77.3626,2767.42 75.6146,2763.05 74.4886,2757.5 74.4086,1948.74 74.9826,1944.75 76.5326,1939.47 77.5326,1936.97 78.9906,1934.7 80.8466,1932.75 86.9106,1927.76 91.2766,1926.01 98.3446,1924.81 602.401,1924.81 606.393,1925.38 614.173,1927.93 616.439,1929.39 618.389,1931.25 621.993,1935.4 624.439,1939.42 626.257,1947.23 626.337,2099.47 626.571,2101.64 629.195,2108.68 633.545,2114.49 639.355,2118.84 646.397,2121.46 648.565,2121.7 812.063,2121.69 814.233,2121.46 821.271,2118.84 827.081,2114.49 831.431,2108.68 834.057,2101.64 834.289,2099.47 834.289,1948.74 834.863,1944.75 837.415,1936.97 838.871,1934.7 840.731,1932.75 844.889,1929.15 848.903,1926.7 855.215,1925.13 858.227,1924.81 1069.14,1924.81 1056.59,1921.04 1050.18,1918.18 1038.1,1910.63 858.227,1910.63 855.197,1910.79 848.147,1912.16 843.637,1913.54 839.109,1915.88 840.049,1870.41 850.653,1868.52 858.227,1868.11 991.945,1868.11 977.773,1853.94 858.227,1853.94 849.139,1854.43 840.333,1855.85 839.175,1914.83 838.657,1922.99 837.019,1937.96 838.657,1922.99 839.187,1914.52 840.551,1844.78 840.727,1717.54 850.483,1726.8 840.727,1727.32 850.483,1726.8 935.253,1811.42 864.387,1740.55 858.227,1740.55 840.727,1741.49 840.727,1755.66 858.227,1754.73 878.561,1754.73 892.733,1768.9 858.227,1768.9 840.727,1769.84 840.727,1784.1 858.227,1783.07 906.907,1783.07 921.079,1797.25 858.227,1797.25 843.081,1798.06 840.727,1798.44 840.727,1812.78 844.595,1812.15 858.227,1811.42 935.253,1811.42 963.599,1839.77 949.427,1825.59 858.227,1825.59 846.109,1826.24 840.717,1827.12 840.581,1841.48 847.625,1840.33 858.227,1839.77 963.599,1839.77 1020.45,1896.46 1006.12,1882.29 858.227,1882.29 852.167,1882.61 846.179,1883.58 839.761,1885.19 839.469,1900.05 845.135,1898.31 849.191,1897.43 853.683,1896.7 858.227,1896.46 1020.45,1896.46 1032.92,1907.35 1049.34,1917.73 1055.65,1920.78 1069.14,1924.81 2244.17,1924.81 2248.16,1925.38 2253.44,1926.93 2256.36,1928.2 2265.63,1930.98 2270.26,1933.09 2285.25,1942.56 2288.94,1945.53 2298.19,1953.88 2338.97,1994.67 2324.8,1980.5 2324.8,2755.99 2324.08,2766.07 2321.93,2775.96 2320.38,2781.23 2317.12,2789.37 2332.32,2789.37 2333.98,2785.23 2335.53,2779.95 2338.11,2768.09 2338.97,2755.99 2338.97,1994.67 2367.32,2023.02 2353.15,2008.84 2353.15,2755.99 2352.14,2770.11 2349.13,2783.94 2347.52,2789.37 2362.31,2789.37 2366.17,2772.13 2367.32,2755.99 2367.32,2023.02 2523.23,2178.92 2509.05,2164.75 2509.05,2755.99 2506.67,2789.37 2520.84,2789.37 2523.23,2755.99 2523.23,2178.92 2622.44,2278.14 2608.27,2263.96 2608.27,2755.99 2605.88,2789.37 2620.05,2789.37 2622.44,2755.99 2622.44,2278.14 2750.97,2406.67 2789.37,2442.88 2789.37,2789.37 2761.78,2789.37 2775.96,2789.37 2778.34,2755.99 2778.34,2432.49 2764.17,2419.12 2764.17,2755.99 2761.78,2789.37 2719.26,2789.37 2733.44,2789.37 2735.82,2755.99 2735.82,2391.52 2721.65,2377.35 2721.65,2755.99 2719.26,2789.37 2705.09,2789.37 2707.48,2755.99 2707.48,2363.17 2693.31,2349 2693.31,2755.99 2690.92,2789.37 2676.74,2789.37 2705.09,2789.37 2577.53,2789.37 2591.7,2789.37 2594.09,2755.99 2594.09,2249.79 2579.92,2235.62 2579.92,2755.99 2577.53,2789.37 64.9606,2789.37 64.9586,2738.02 64.9606,2774.2 68.0426,2778.61 71.6446,2782.76 75.5446,2786.48 80.0406,2789.37 145.819,2789.37 64.9606,2789.37 64.9606,2774.2 68.0426,2778.61 71.6446,2782.76 75.5446,2786.48 80.0406,2789.37 75.5446,2786.48 71.6446,2782.76 68.0426,2778.61 64.9606,2774.2 74.4086,2755.99 64.9606,2774.2 64.9606,1671.98 69.5686,1671.23 98.3446,1669.69 602.401,1669.69 619.901,1670.94 619.901,1685.11 602.401,1683.86 98.3446,1683.86 71.0826,1685.32 64.9606,1686.31 64.9586,1700.65 72.5966,1699.41 98.3446,1698.03 602.401,1698.03 619.901,1699.29 619.901,1770.15 602.401,1768.9 98.3446,1768.9 80.1686,1769.87 64.9606,1772.34 64.9586,1786.69 81.6846,1783.97 98.3446,1783.07 602.401,1783.07 619.901,1784.33 619.901,1798.5 602.401,1797.25 98.3446,1797.25 83.1986,1798.06 64.9606,1801.19 64.9606,1815.9 71.2386,1814.33 84.7126,1812.15 98.3446,1811.42 602.401,1811.42 619.901,1812.67 619.901,1827.04 602.401,1825.59 98.3446,1825.59 86.2266,1826.24 74.2506,1828.18 64.9606,1830.67 64.9606,1909.01 72.1566,1903.56 78.4846,1900.39 85.2526,1898.31 89.3086,1897.43 93.8006,1896.7 98.3446,1896.46 602.401,1896.46 608.453,1896.89 614.381,1898.18 621.143,1900.33 621.695,1916 615.665,1913.33 610.387,1911.78 606.435,1910.92 602.401,1910.63 98.3446,1910.63 95.3146,1910.79 88.2646,1912.16 83.7526,1913.54 79.5326,1915.66 75.7226,1918.44 71.5666,1922.04 67.8486,1925.94 64.9586,1930.44 64.9586,1591.73 602.323,1591.73 619.901,1592.04 619.901,1614.25 619.901,1600.07 602.401,1598.82 98.3446,1598.82 64.9586,1600.61 64.9586,1614.78 98.3446,1612.99 602.401,1612.99 619.901,1614.25 619.901,1855.37 620.209,1873.85 621.919,1922.3 622.569,1929.82 623.727,1937.99 622.569,1929.82 621.919,1922.3 620.153,1870.5 620.609,1885.24 610.469,1882.86 602.401,1882.29 98.3446,1882.29 92.2846,1882.61 82.2406,1884.46 73.2186,1887.23 64.9606,1891.36 64.9606,1875.57 67.9506,1874.07 79.2286,1870.61 90.7706,1868.52 98.3446,1868.11 602.401,1868.11 612.487,1868.83 620.153,1870.5 619.901,1841.51 619.911,1855.98 614.505,1854.81 602.401,1853.94 98.3446,1853.94 89.2566,1854.43 80.2746,1855.88 76.2186,1856.76 64.9606,1860.21 64.9606,1845.44 73.2066,1842.91 77.2626,1842.03 87.7426,1840.33 98.3446,1839.77 602.401,1839.77 616.521,1840.78 619.901,1841.51 619.901,1741.81 619.901,1755.98 602.401,1754.73 98.3446,1754.73 78.6546,1755.78 64.9606,1758 64.9606,1743.66 77.1406,1741.69 98.3446,1740.55 602.401,1740.55 619.901,1741.81 619.901,1713.46 619.901,1727.63 602.401,1726.38 98.3446,1726.38 75.6266,1727.6 64.9606,1729.33 64.9606,1714.99 74.1106,1713.51 98.3446,1712.21 602.401,1712.21 619.901,1713.46 619.901,1628.42 602.401,1627.17 98.3446,1627.17 65.0246,1628.95 64.9586,1643.3 98.3446,1641.34 602.401,1641.34 619.901,1642.59 619.901,1656.77 602.401,1655.51 98.3446,1655.51 68.0526,1657.14 64.9606,1657.64 64.9606,1671.98" style="stroke:rgb(103,198,105);stroke-width:28.346457;fill:none;stroke-opacity:0.5;stroke-linecap:round;stroke-linejoin:round;;fill:none"/>
<polyline points="2677.23,968.9 2755.98,968.9 2789.37,971.286 2789.37,957.114 2755.98,954.726 2694.07,954.726 2709.2,940.554 2755.98,940.554 2789.37,942.94 2789.37,928.768 2755.98,926.38 2724.32,926.38 2739.45,912.206 2755.98,912.206 2789.37,914.594 2789.37,985.46 2755.98,983.072 2659.76,983.072 2642.29,997.246 2755.98,997.246 2789.37,999.634 2789.37,1013.81 2755.98,1011.42 2622.98,1011.42 2602.78,1025.59 2755.98,1025.59 2789.37,1027.98 2789.37,1042.15 2755.98,1039.77 2580.55,1039.77 2789.37,1300.61 2786.29,1296.2 2782.69,1292.05 2778.79,1288.33 2774.25,1285.41 2769.25,1283.41 2763.97,1281.86 2760.01,1281 2755.98,1280.71 2324.69,1280.71 2323.15,1283.05 2324.69,1280.71 2323.43,1276.55 2320.81,1271.65 2317.29,1267.36 2312.99,1263.83 2308.09,1261.21 2302.77,1259.6 2297.24,1259.06 2131.89,1259.06 2126.36,1259.6 2121.04,1261.21 2116.14,1263.83 2111.84,1267.36 2108.32,1271.65 2105.7,1276.55 2104.44,1280.71 2105.98,1283.05 2104.44,1280.71 1576.66,1280.71 1575.12,1283.05 1576.66,1280.71 1575.4,1276.55 1572.78,1271.65 1569.25,1267.36 1564.96,1263.83 1560.06,1261.21 1554.74,1259.6 1549.21,1259.06 1383.86,1259.06 1378.33,1259.6 1373.01,1261.21 1368.11,1263.83 1363.81,1267.36 1360.29,1271.65 1357.67,1276.55 1356.41,1280.71 1357.95,1283.05 1356.41,1280.71 1082.59,1280.71 1079.57,1280.87 1072.52,1282.24 1068,1283.62 1063.78,1285.74 1059.97,1288.52 1055.81,1292.13 1052.1,1296.03 1049.19,1300.56 1047.19,1305.56 1045.64,1310.83 1044.78,1314.79 1044.49,1318.82 1044.65,1892.87 1045.75,1898.7 1056.5,1905.49 1061.13,1907.6 1070.4,1910.39 1068.55,1909.2 1066.6,1907.34 1061.61,1901.28 1059.86,1896.91 1058.66,1889.84 1058.66,1318.82 1059.23,1314.83 1060.78,1309.55 1061.78,1307.05 1063.24,1304.78 1069.25,1299.23 1073.27,1296.78 1079.58,1295.21 1082.59,1294.88 1369.68,1294.88 1369.96,1284.64 1370.76,1281.98 1372.07,1279.53 1373.83,1277.38 1375.98,1275.62 1378.43,1274.31 1381.09,1273.5 1383.86,1273.23 1549.21,1273.23 1551.98,1273.5 1554.63,1274.31 1557.09,1275.62 1559.23,1277.38 1561,1279.53 1562.31,1281.98 1563.11,1284.64 1563.38,1287.4 1563.38,1294.88 2117.71,1294.88 2117.71,1287.4 2117.99,1284.64 2118.79,1281.98 2120.1,1279.53 2121.87,1277.38 2124.01,1275.62 2126.46,1274.31 2129.12,1273.5 2131.89,1273.23 2297.24,1273.23 2300.01,1273.5 2302.67,1274.31 2305.12,1275.62 2307.26,1277.38 2309.03,1279.53 2310.34,1281.98 2311.14,1284.64 2311.42,1294.88 2755.98,1294.88 2759.97,1295.46 2767.76,1298.01 2770.02,1299.47 2771.97,1301.33 2776.97,1307.39 2778.71,1311.75 2779.92,1318.82 2779.92,1889.84 2779.34,1893.84 2777.79,1899.12 2776.79,1901.62 2775.34,1903.89 2773.48,1905.84 2767.41,1910.83 2763.06,1912.57 2755.98,1913.78 1082.6,1913.78 1078.6,1913.21 1061.13,1907.6 1056.5,1905.49 1041.51,1896.03 1028.58,1884.71 863.237,1719.36 838.651,1696.04 814.065,1670.19 728.525,1584.65 732.677,1580.5 732.677,1588.8 732.677,1580.5 761.023,1552.15 746.851,1566.32 746.851,1602.97 761.023,1617.15 761.023,1552.15 789.369,1523.8 775.197,1537.98 775.197,1631.32 789.369,1645.49 789.369,1523.8 817.715,1495.46 803.543,1509.63 803.543,1659.67 817.715,1674.02 817.715,1495.46 831.889,1481.28 831.889,1688.93 793.519,1669.69 651.575,1669.69 634.073,1671.41 634.073,1685.58 651.575,1683.86 807.509,1683.86 822.221,1699.33 809.055,1698.03 651.575,1698.03 634.073,1699.76 634.073,1628.89 651.575,1627.17 750.999,1627.17 736.825,1612.99 651.575,1612.99 634.073,1614.72 634.073,1600.54 651.575,1598.82 722.653,1598.82 803.981,1680.15 826.553,1703.88 826.553,1825.89 825.299,1899.69 817.349,1897.27 809.055,1896.46 651.575,1896.46 643.279,1897.27 635.303,1899.69 635.857,1915.39 640.727,1912.79 646.045,1911.18 651.575,1910.63 809.055,1910.63 814.585,1911.18 819.903,1912.79 824.929,1915.51 824.551,1921.62 822.953,1936.2 824.551,1921.62 825.019,1914.1 825.585,1885.03 820.115,1883.37 809.055,1882.28 651.575,1882.28 640.513,1883.37 634.787,1885.11 636.077,1921.62 637.753,1935.95 638.479,1933.55 639.789,1931.1 641.553,1928.96 643.699,1927.19 646.151,1925.88 648.809,1925.08 651.575,1924.8 809.055,1924.8 811.819,1925.08 814.479,1925.88 816.929,1927.19 819.077,1928.96 820.839,1931.1 822.149,1933.55 822.953,1936.2 823.227,1938.98 823.227,2096.46 822.955,2099.22 822.149,2101.88 820.839,2104.33 819.077,2106.48 816.929,2108.24 814.479,2109.55 811.819,2110.36 809.055,2110.63 651.575,2110.63 648.809,2110.36 646.151,2109.55 643.699,2108.24 641.553,2106.48 639.789,2104.33 638.479,2101.88 637.673,2099.22 637.401,2096.46 637.401,1938.98 637.753,1935.95 636.077,1921.62 634.329,1870.51 637.749,1869.47 651.575,1868.11 809.055,1868.11 822.879,1869.47 825.873,1870.38 826.159,1855.73 809.055,1853.94 651.575,1853.94 634.085,1855.84 634.379,1873.55 634.073,1827.32 634.073,1841.49 651.575,1839.76 809.055,1839.76 826.407,1841.47 826.539,1827.31 809.055,1825.59 651.575,1825.59 634.073,1827.32 634.073,1770.62 634.073,1813.14 651.575,1811.42 809.055,1811.42 826.553,1813.14 826.553,1784.8 826.553,1798.97 809.055,1797.25 651.575,1797.25 634.073,1798.97 634.073,1784.8 651.575,1783.07 809.055,1783.07 826.553,1784.8 826.553,1770.62 809.055,1768.9 651.575,1768.9 634.073,1770.62 634.073,1742.28 634.073,1756.45 651.575,1754.73 809.055,1754.73 826.553,1756.45 826.553,1742.28 809.055,1740.55 651.575,1740.55 634.073,1742.28 634.073,1713.93 634.073,1728.1 651.575,1726.38 809.055,1726.38 826.553,1728.1 826.553,1713.93 809.055,1712.21 651.575,1712.21 634.073,1713.93 634.073,1592.04 651.635,1591.73 715.567,1591.73 779.345,1655.51 765.173,1641.34 651.575,1641.34 634.073,1643.06 634.073,1657.24 651.575,1655.51 779.345,1655.51 793.519,1669.69 831.889,1688.93 831.889,1481.28 860.235,1452.94 846.063,1467.11 846.063,1703.07 860.235,1716.51 860.235,1452.94 888.581,1424.59 874.409,1438.76 874.409,1730.53 888.581,1744.7 888.581,1424.59 989.175,1324 1011.04,1304.88 1016.2,1301.02 1027.53,1293.33 1086.28,1258.06 1098.19,1249.99 1104.38,1245.34 1126.63,1225.89 1233.25,1119.29 1363.86,1119.29 1309.38,1119.29 1299.07,1124.81 1299.18,1125.23 1299.07,1124.81 1227.74,1124.8 1213.56,1138.98 1302.48,1138.98 1302.59,1139.4 1302.48,1138.98 1318.77,1130.27 1350.68,1120.59 1363.86,1119.29 2387.95,1119.23 2416.19,1111.45 2442.99,1102.08 2476.59,1090.97 2482.36,1088.81 2519.75,1073.11 2557.64,1053.67 2595.48,1030.7 2638.94,999.96 2689.88,958.632 2740.98,910.764 2760.95,890.804 2789.37,863.532 2789.37,872.074 2781.08,871.482 2789.37,872.074 2789.37,900.42 2789.37,886.248 2767.34,884.672 2753.72,898.034 2789.37,900.42 2789.37,1070.5 2789.37,1056.33 2755.98,1053.94 2557.11,1053.94 2529.53,1068.11 2755.98,1068.11 2789.37,1070.5 2789.37,1099.3 2789.37,1084.84 2755.98,1082.29 2497.9,1082.29 2482.09,1088.92 2460,1096.46 2755.98,1096.46 2786.23,1098.62 2789.37,1099.3 2789.37,1128.24 2789.37,1113.77 2784.21,1112.65 2755.98,1110.63 2418.53,1110.63 2387.02,1119.42 2371.71,1119.29 2382.03,1124.8 2381.92,1125.23 2382.03,1124.8 2755.98,1124.81 2782.2,1126.68 2789.37,1128.24 2789.37,1215.48 2789.37,1200.69 2772.11,1196.82 2755.98,1195.67 2363.34,1195.67 2363.21,1196.15 2363.34,1195.67 2360.24,1193.13 2340.63,1182.65 2319.36,1176.2 2297.24,1174.02 2131.89,1174.02 2109.77,1176.2 2088.5,1182.65 2068.89,1193.13 2065.79,1195.67 2065.92,1196.15 2065.79,1195.67 1615.31,1195.67 1615.18,1196.15 1615.31,1195.67 1612.2,1193.13 1592.6,1182.65 1571.33,1176.2 1549.21,1174.02 1383.86,1174.02 1361.74,1176.2 1340.47,1182.65 1320.86,1193.13 1317.76,1195.67 1317.89,1196.15 1317.76,1195.67 1156.87,1195.67 1142.7,1209.84 1322.72,1209.84 1323.02,1210.67 1322.72,1209.84 1328.74,1204.91 1345.89,1195.74 1364.5,1190.1 1383.86,1188.19 1549.21,1188.19 1568.57,1190.1 1587.18,1195.74 1604.33,1204.91 1610.34,1209.84 1610.05,1210.67 1610.34,1209.84 2070.76,1209.84 2071.05,1210.67 2070.76,1209.84 2076.77,1204.91 2093.92,1195.74 2112.53,1190.1 2131.89,1188.19 2297.24,1188.19 2316.6,1190.1 2335.21,1195.74 2352.36,1204.91 2358.37,1209.84 2358.08,1210.67 2358.37,1209.84 2755.98,1209.84 2770.1,1210.85 2783.93,1213.86 2789.37,1215.48 2789.37,1245.87 2789.37,1230.67 2785.21,1229.01 2779.93,1227.46 2768.08,1224.88 2755.98,1224.02 2353.41,1224.02 2353.11,1224.85 2353.41,1224.02 2344.49,1216.69 2329.79,1208.84 2313.83,1204 2297.24,1202.36 2131.89,1202.36 2115.3,1204 2099.35,1208.84 2084.64,1216.69 2075.72,1224.02 2076.01,1224.85 2075.72,1224.02 1605.38,1224.02 1605.08,1224.85 1605.38,1224.02 1596.46,1216.69 1581.75,1208.84 1565.8,1204 1549.21,1202.36 1383.86,1202.36 1367.27,1204 1351.31,1208.84 1336.61,1216.69 1327.69,1224.02 1327.98,1224.85 1327.69,1224.02 1128.52,1224.02 1112.56,1238.19 1333.01,1238.19 1333.33,1239.06 1333.01,1238.19 1333.75,1237.29 1344.49,1228.48 1356.74,1221.93 1370.03,1217.9 1383.86,1216.54 1549.21,1216.54 1563.04,1217.9 1576.33,1221.93 1588.58,1228.48 1599.32,1237.29 1600.06,1238.19 1599.74,1239.06 1600.06,1238.19 2081.04,1238.19 2081.36,1239.06 2081.04,1238.19 2081.78,1237.29 2092.52,1228.48 2104.77,1221.93 2118.06,1217.9 2131.89,1216.54 2297.24,1216.54 2311.07,1217.9 2324.36,1221.93 2336.61,1228.48 2347.35,1237.29 2348.09,1238.19 2347.77,1239.06 2348.09,1238.19 2755.98,1238.19 2766.06,1238.91 2775.94,1241.06 2781.22,1242.61 2789.37,1245.87 2789.37,1278.92 2789.37,1261.58 2787.24,1260.22 2777.23,1256.21 2771.95,1254.66 2764.05,1252.94 2755.98,1252.36 2341.47,1252.36 2340.83,1253.72 2341.47,1252.36 2337.33,1247.31 2328.74,1240.26 2318.94,1235.03 2308.3,1231.8 2297.24,1230.71 2131.89,1230.71 2120.83,1231.8 2110.19,1235.03 2100.39,1240.26 2091.8,1247.31 2087.66,1252.36 2088.3,1253.72 2087.66,1252.36 1593.44,1252.36 1592.8,1253.72 1593.44,1252.36 1589.3,1247.31 1580.71,1240.26 1570.91,1235.03 1560.27,1231.8 1549.21,1230.71 1383.86,1230.71 1372.8,1231.8 1362.16,1235.03 1352.36,1240.26 1343.77,1247.31 1339.62,1252.36 1340.27,1253.72 1339.62,1252.36 1094.69,1252.36 1086.28,1258.06 1062.99,1271.85 1045.13,1282.88 1040.95,1287.27 1036.59,1294.06 1033.59,1301.56 1032.04,1306.84 1030.75,1312.77 1030.31,1318.82 1030.31,1886.27 1041.51,1896.03 1044.49,1889.84 1058.66,1889.84 1044.49,1889.84 1041.51,1896.03 1028.58,1884.71 973.621,1829.74 973.621,1339.55 959.449,1353.73 959.447,1815.57 945.275,1801.4 945.275,1367.9 902.755,1410.42 902.755,1758.88 931.101,1787.22 916.929,1773.05 916.929,1396.24 931.101,1382.07 931.101,1787.22 1001.97,1858.09 987.795,1843.92 987.795,1325.38 1002.42,1312.41 1001.97,1318.82 1001.97,1858.09 1016.14,1872.26 1016.14,1318.82 1016.72,1310.75 1018.44,1302.85 1019.66,1298.67 1027.53,1293.33 1050.6,1279.67 1068.22,1268.78 1078.05,1266.78 1082.59,1266.54 1347.03,1266.54 1347.8,1268.06 1347.03,1266.54 1348.5,1263.78 1353.79,1257.34 1360.23,1252.05 1367.59,1248.12 1375.56,1245.7 1383.86,1244.88 1549.21,1244.88 1557.51,1245.7 1565.48,1248.12 1572.83,1252.05 1579.28,1257.34 1584.56,1263.78 1586.04,1266.54 1585.27,1268.06 1586.04,1266.54 2095.06,1266.54 2095.83,1268.06 2095.06,1266.54 2096.53,1263.78 2101.82,1257.34 2108.27,1252.05 2115.62,1248.12 2123.59,1245.7 2131.89,1244.88 2297.24,1244.88 2305.54,1245.7 2313.51,1248.12 2320.87,1252.05 2327.31,1257.34 2332.6,1263.78 2334.07,1266.54 2333.3,1268.06 2334.07,1266.54 2755.98,1266.54 2762.03,1266.97 2767.96,1268.26 2773.24,1269.81 2780.74,1272.81 2787.55,1277.19 2789.37,1278.92 2789.37,2423.4 2760.91,2396.57 2660.81,2296.46 2755.98,2296.46 2789.37,2294.67 2789.37,2308.84 2755.98,2310.63 2674.98,2310.63 2717.5,2353.15 2755.98,2353.15 2789.37,2351.36 2789.37,2365.53 2755.98,2367.33 2731.67,2367.33 2745.85,2381.5 2755.98,2381.5 2789.37,2379.71 2789.37,2422.23 2788.19,2422.29 2760.91,2396.57 2773.97,2408.88 2789.37,2408.05 2789.37,2393.88 2759.81,2395.47 2689.15,2324.81 2703.33,2338.98 2755.98,2338.98 2789.37,2337.19 2789.37,2323.02 2755.98,2324.81 2689.15,2324.81 2575.75,2211.4 2755.98,2211.42 2789.37,2209.63 2789.37,2223.8 2755.98,2225.59 2589.94,2225.59 2604.11,2239.77 2755.98,2239.77 2789.37,2237.98 2789.37,2252.15 2755.98,2253.94 2618.29,2253.94 2632.46,2268.11 2755.98,2268.11 2789.37,2266.32 2789.37,2280.49 2755.98,2282.29 2646.63,2282.29 2308.08,1943.73 2297.98,1934.61 2293.16,1930.79 2288.67,1927.96 2755.98,1927.96 2759.02,1927.79 2766.07,1926.42 2770.58,1925.04 2774.79,1922.93 2778.6,1920.15 2782.76,1916.55 2786.48,1912.65 2789.37,1908.15 2789.37,1929.57 2782.17,1935.03 2775.85,1938.2 2769.09,1940.27 2765.04,1941.15 2760.53,1941.88 2755.98,1942.13 2306.32,1942.13 2298.28,1934.87 2293.83,1931.27 2277.42,1920.85 2270.17,1917.55 2257.63,1913.78 2270.17,1917.55 2276.62,1920.32 2293.85,1931.24 2298.28,1934.87 2308.08,1943.73 2448.21,2083.86 2434.04,2069.69 2755.98,2069.69 2774.19,2068.71 2789.37,2066.25 2789.37,2051.9 2772.68,2054.62 2755.98,2055.51 2419.86,2055.51 2405.69,2041.34 2755.98,2041.34 2771.16,2040.53 2789.37,2037.39 2789.37,2022.69 2783.14,2024.24 2769.64,2026.43 2755.98,2027.17 2391.52,2027.17 2308.08,1943.73 2320.65,1956.3 2755.98,1956.3 2762.05,1955.98 2772.11,1954.12 2781.12,1951.35 2789.37,1947.22 2789.37,1929.57 2789.37,1978.37 2789.37,1963.02 2786.39,1964.51 2775.13,1967.97 2763.57,1970.07 2755.98,1970.48 2334.82,1970.48 2349,1984.65 2755.98,1984.65 2765.09,1984.16 2774.09,1982.7 2778.15,1981.81 2789.37,1978.37 2789.37,2007.92 2789.37,1993.15 2781.16,1995.66 2777.11,1996.55 2766.61,1998.25 2755.98,1998.82 2363.17,1998.82 2377.34,2012.99 2755.98,2012.99 2768.12,2012.34 2780.13,2010.39 2789.37,2007.92 2789.37,2195.29 2755.98,2197.25 2561.59,2197.25 2547.42,2183.07 2755.98,2183.07 2786.34,2181.44 2789.37,2180.95 2789.37,2166.62 2784.82,2167.35 2755.98,2168.9 2533.25,2168.9 2519.08,2154.73 2755.98,2154.73 2783.3,2153.26 2789.37,2152.28 2789.37,2137.94 2781.78,2139.17 2755.98,2140.55 2504.9,2140.55 2476.56,2112.21 2490.73,2126.38 2755.98,2126.38 2780.27,2125.08 2789.37,2123.6 2789.37,2109.26 2778.75,2110.98 2755.98,2112.21 2476.56,2112.21 2462.38,2098.03 2755.98,2098.03 2777.23,2096.89 2789.37,2094.92 2789.37,2080.58 2775.71,2082.8 2755.98,2083.86 2448.21,2083.86 2575.75,2211.4 2381.49,2037.19 2381.49,2755.99 2380.2,2774.14 2376.88,2789.37 2391.35,2789.37 2394.22,2776.16 2395.67,2755.99 2395.67,2051.36 2409.84,2065.54 2409.84,2755.99 2408.25,2778.18 2405.82,2789.37 2492.49,2789.37 2494.88,2755.99 2494.88,2150.58 2551.57,2207.27 2551.57,2755.99 2549.18,2789.37 2284.07,2789.37 2285.81,2787.55 2290.18,2780.75 2293.18,2773.25 2294.73,2767.97 2296.02,2762.04 2296.45,2755.99 2296.45,1952.32 2285.25,1942.56 2281.02,1939.89 2282.12,1945.71 2282.28,1948.74 2282.28,2755.99 2281.99,2760.02 2281.13,2763.97 2279.58,2769.25 2277.58,2774.26 2274.67,2778.79 2270.95,2782.69 2266.79,2786.29 2262.38,2789.37 2301.41,2789.37 2302.77,2787.25 2306.78,2777.24 2308.33,2771.96 2310.05,2764.06 2310.63,2755.99 2310.63,1966.32 2298.19,1953.88 2285.25,1942.56 2270.26,1933.09 2265.63,1930.98 2256.36,1928.2 2258.21,1929.39 2260.16,1931.25 2265.15,1937.31 2266.9,1941.68 2268.11,1948.74 2268.11,2755.99 2267.53,2759.98 2265.98,2765.26 2264.98,2767.76 2263.53,2770.03 2257.51,2775.58 2253.49,2778.03 2247.18,2779.6 2244.17,2779.92 98.3446,2779.92 94.3506,2779.35 89.0726,2777.8 86.5706,2776.8 84.3046,2775.34 82.3546,2773.48 77.3626,2767.42 75.6146,2763.05 74.4886,2757.5 74.4086,1948.74 74.9826,1944.75 76.5326,1939.47 77.5326,1936.97 78.9906,1934.7 80.8466,1932.75 86.9106,1927.76 91.2766,1926.01 98.3446,1924.81 602.401,1924.81 606.393,1925.38 614.173,1927.93 616.439,1929.39 618.389,1931.25 621.993,1935.4 624.439,1939.42 626.257,1947.23 626.337,2099.47 626.571,2101.64 629.195,2108.68 633.545,2114.49 639.355,2118.84 646.397,2121.46 648.565,2121.7 812.063,2121.69 814.233,2121.46 821.271,2118.84 827.081,2114.49 831.431,2108.68 834.057,2101.64 834.289,2099.47 834.289,1948.74 834.863,1944.75 837.415,1936.97 838.871,1934.7 840.731,1932.75 844.889,1929.15 848.903,1926.7 855.215,1925.13 858.227,1924.81 1069.14,1924.81 1056.59,1921.04 1050.18,1918.18 1038.1,1910.63 858.227,1910.63 855.197,1910.79 848.147,1912.16 843.637,1913.54 839.109,1915.88 840.049,1870.41 850.653,1868.52 858.227,1868.11 991.945,1868.11 977.773,1853.94 858.227,1853.94 849.139,1854.43 840.333,1855.85 839.175,1914.83 838.657,1922.99 837.019,1937.96 838.657,1922.99 839.187,1914.52 840.551,1844.78 840.727,1717.54 850.483,1726.8 840.727,1727.32 850.483,1726.8 935.253,1811.42 864.387,1740.55 858.227,1740.55 840.727,1741.49 840.727,1755.66 858.227,1754.73 878.561,1754.73 892.733,1768.9 858.227,1768.9 840.727,1769.84 840.727,1784.1 858.227,1783.07 906.907,1783.07 921.079,1797.25 858.227,1797.25 843.081,1798.06 840.727,1798.44 840.727,1812.78 844.595,1812.15 858.227,1811.42 935.253,1811.42 963.599,1839.77 949.427,1825.59 858.227,1825.59 846.109,1826.24 840.717,1827.12 840.581,1841.48 847.625,1840.33 858.227,1839.77 963.599,1839.77 1020.45,1896.46 1006.12,1882.29 858.227,1882.29 852.167,1882.61 846.179,1883.58 839.761,1885.19 839.469,1900.05 845.135,1898.31 849.191,1897.43 853.683,1896.7 858.227,1896.46 1020.45,1896.46 1032.92,1907.35 1049.34,1917.73 1055.65,1920.78 1069.14,1924.81 2244.17,1924.81 2248.16,1925.38 2253.44,1926.93 2256.36,1928.2 2265.63,1930.98 2270.26,1933.09 2285.25,1942.56 2288.94,1945.53 2298.19,1953.88 2338.97,1994.67 2324.8,1980.5 2324.8,2755.99 2324.08,2766.07 2321.93,2775.96 2320.38,2781.23 2317.12,2789.37 2332.32,2789.37 2333.98,2785.23 2335.53,2779.95 2338.11,2768.09 2338.97,2755.99 2338.97,1994.67 2367.32,2023.02 2353.15,2008.84 2353.15,2755.99 2352.14,2770.11 2349.13,2783.94 2347.52,2789.37 2362.31,2789.37 2366.17,2772.13 2367.32,2755.99 2367.32,2023.02 2523.23,2178.92 2509.05,2164.75 2509.05,2755.99 2506.67,2789.37 2520.84,2789.37 2523.23,2755.99 2523.23,2178.92 2622.44,2278.14 2608.27,2263.96 2608.27,2755.99 2605.88,2789.37 2620.05,2789.37 2622.44,2755.99 2622.44,2278.14 2750.97,2406.67 2789.37,2442.88 2789.37,2789.37 2761.78,2789.37 2775.96,2789.37 2778.34,2755.99 2778.34,2432.49 2764.17,2419.12 2764.17,2755.99 2761.78,2789.37 2719.26,2789.37 2733.44,2789.37 2735.82,2755.99 2735.82,2391.52 2721.65,2377.35 2721.65,2755.99 2719.26,2789.37 2705.09,2789.37 2707.48,2755.99 2707.48,2363.17 2693.31,2349 2693.31,2755.99 2690.92,2789.37 2676.74,2789.37 2705.09,2789.37 2577.53,2789.37 2591.7,2789.37 2594.09,2755.99 2594.09,2249.79 2579.92,2235.62 2579.92,2755.99 2577.53,2789.37 64.9606,2789.37 64.9586,2738.02 64.9606,2774.2 68.0426,2778.61 71.6446,2782.76 75.5446,2786.48 80.0406,2789.37 145.819,2789.37 64.9606,2789.37 64.9606,2774.2 68.0426,2778.61 71.6446,2782.76 75.5446,2786.48 80.0406,2789.37 75.5446,2786.48 71.6446,2782.76 68.0426,2778.61 64.9606,2774.2 74.4086,2755.99 64.9606,2774.2 64.9606,1671.98 69.5686,1671.23 98.3446,1669.69 602.401,1669.69 619.901,1670.94 619.901,1685.11 602.401,1683.86 98.3446,1683.86 71.0826,1685.32 64.9606,1686.31 64.9586,1700.65 72.5966,1699.41 98.3446,1698.03 602.401,1698.03 619.901,1699.29 619.901,1770.15 602.401,1768.9 98.3446,1768.9 80.1686,1769.87 64.9606,1772.34 64.9586,1786.69 81.6846,1783.97 98.3446,1783.07 602.401,1783.07 619.901,1784.33 619.901,1798.5 602.401,1797.25 98.3446,1797.25 83.1986,1798.06 64.9606,1801.19 64.9606,1815.9 71.2386,1814.33 84.7126,1812.15 98.3446,1811.42 602.401,1811.42 619.901,1812.67 619.901,1827.04 602.401,1825.59 98.3446,1825.59 86.2266,1826.24 74.2506,1828.18 64.9606,1830.67 64.9606,1909.01 72.1566,1903.56 78.4846,1900.39 85.2526,1898.31 89.3086,1897.43 93.8006,1896.7 98.3446,1896.46 602.401,1896.46 608.453,1896.89 614.381,1898.18 621.143,1900.33 621.695,1916 615.665,1913.33 610.387,1911.78 606.435,1910.92 602.401,1910.63 98.3446,1910.63 95.3146,1910.79 88.2646,1912.16 83.7526,1913.54 79.5326,1915.66 75.7226,1918.44 71.5666,1922.04 67.8486,1925.94 64.9586,1930.44 64.9586,1591.73 602.323,1591.73 619.901,1592.04 619.901,1614.25 619.901,1600.07 602.401,1598.82 98.3446,1598.82 64.9586,1600.61 64.9586,1614.78 98.3446,1612.99 602.401,1612.99 619.901,1614.25 619.901,1855.37 620.209,1873.85 621.919,1922.3 622.569,1929.82 623.727,1937.99 622.569,1929.82 621.919,1922.3 620.153,1870.5 620.609,1885.24 610.469,1882.86 602.401,1882.29 98.3446,1882.29 92.2846,1882.61 82.2406,1884.46 73.2186,1887.23 64.9606,1891.36 64.9606,1875.57 67.9506,1874.07 79.2286,1870.61 90.7706,1868.52 98.3446,1868.11 602.401,1868.11 612.487,1868.83 620.153,1870.5 619.901,1841.51 619.911,1855.98 614.505,1854.81 602.401,1853.94 98.3446,1853.94 89.2566,1854.43 80.2746,1855.88 76.2186,1856.76 64.9606,1860.21 64.9606,1845.44 73.2066,1842.91 77.2626,1842.03 87.7426,1840.33 98.3446,1839.77 602.401,1839.77 616.521,1840.78 619.901,1841.51 619.901,1741.81 619.901,1755.98 602.401,1754.73 98.3446,1754.73 78.6546,1755.78 64.9606,1758 64.9606,1743.66 77.1406,1741.69 98.3446,1740.55 602.401,1740.55 619.901,1741.81 619.901,1713.46 619.901,1727.63 602.401,1726.38 98.3446,1726.38 75.6266,1727.6 64.9606,1729.33 64.9606,1714.99 74.1106,1713.51 98.3446,1712.21 602.401,1712.21 619.901,1713.46 619.901,1628.42 602.401,1627.17 98.3446,1627.17 65.0246,1628.95 64.9586,1643.3 98.3446,1641.34 602.401,1641.34 619.901,1642.59 619.901,1656.77 602.401,1655.51 98.3446,1655.51 68.0526,1657.14 64.9606,1657.64 64.9606,1671.98" style="stroke:rgb(0,0,0);stroke-width:1px;fill:none;stroke-opacity:1;stroke-linecap:round;stroke-linejoin:round;;fill:none"/>
<polyline points="74.4086,1220.55 64.9586,1238.77 64.9586,1380.31 64.9606,1277.79 64.9606,1293.5 73.0966,1296.76 78.3746,1298.31 88.2566,1300.46 98.3446,1301.18 993.737,1301.18 977.773,1315.36 98.3446,1315.36 86.2386,1314.49 74.3826,1311.91 69.1046,1310.36 64.9606,1308.7 64.9606,1323.9 70.3886,1325.51 84.2226,1328.52 98.3446,1329.53 963.597,1329.53 949.425,1343.7 98.3446,1343.7 82.2046,1342.55 64.9606,1338.69 64.9606,1353.26 80.1866,1356.58 98.3446,1357.88 935.251,1357.88 892.733,1400.4 98.3446,1400.4 74.1346,1398.66 64.9606,1396.67 64.9586,1438.75 64.9606,1425.6 70.1006,1426.72 98.3446,1428.74 864.385,1428.74 878.559,1414.57 98.3446,1414.57 72.1186,1412.69 64.9606,1411.14 64.9586,1382.2 76.1526,1384.64 98.3446,1386.22 906.905,1386.22 921.077,1372.05 98.3446,1372.05 78.1706,1370.61 64.9606,1367.73 64.9586,1440.07 68.0826,1440.75 98.3446,1442.92 850.211,1442.92 836.041,1457.09 98.3446,1457.09 64.9606,1454.54 64.9586,1467.84 64.9586,1440.07 64.9586,1468.88 98.3446,1471.26 821.867,1471.26 807.693,1485.44 98.3446,1485.44 64.9606,1483.05 64.9606,1497.22 98.3446,1499.61 793.521,1499.61 807.693,1485.44 779.347,1513.78 98.3446,1513.78 64.9606,1511.39 64.9586,1525.57 98.3446,1527.95 765.175,1527.95 779.347,1513.78 751.001,1542.13 98.3446,1542.13 64.9586,1539.74 64.9586,1468.88 64.9586,1553.92 98.3446,1556.3 736.827,1556.3 722.655,1570.47 98.3446,1570.47 64.9606,1568.09 64.9586,1577.56 64.9586,1553.92 64.9586,1577.56 602.523,1577.56 626.987,1577.99 651.451,1577.56 715.567,1577.56 979.665,1313.49 1001.92,1294.03 1008.1,1289.38 1020.01,1281.31 1078.76,1246.05 1090.1,1238.35 1095.25,1234.5 1103.87,1226.96 1104.33,1220.55 1104.33,996.248 1118.5,1010.42 1118.5,1214 1103.87,1226.96 1117.12,1215.37 1132.67,1199.82 1132.67,1024.59 1146.85,1038.77 1146.85,1185.65 1132.67,1199.82 1175.19,1157.3 1175.19,1067.11 1189.37,1081.29 1189.37,1143.13 1175.19,1157.3 1203.54,1128.96 1203.54,1095.46 1203.54,1128.96 1217.71,1114.78 1217.71,1109.63 1217.71,1114.78 1220.29,1112.21 1077.25,969.164 1066.46,956.802 1061.49,950.102 1051.72,932.672 1049.5,926.316 1047.63,918.564 1047.63,98.3481 1046.43,91.2821 1044.68,86.9181 1039.69,80.8541 1037.74,78.9941 1035.47,77.5381 1032.97,76.5361 1027.69,74.9861 1023.7,74.4121 96.8286,74.4921 91.2766,75.6181 86.9106,77.3661 80.8466,82.3581 78.9906,84.3081 77.5326,86.5761 76.5326,89.0761 74.9826,94.3561 74.4086,98.3481 74.4086,1220.55 74.7326,1223.56 76.3046,1229.88 78.7506,1233.89 82.3526,1238.05 84.3026,1239.91 86.5706,1241.36 94.3506,1243.92 98.3446,1244.49 1023.7,1244.49 1026.71,1244.17 1033.02,1242.59 1037.04,1240.14 1043.05,1234.59 1044.51,1232.32 1045.51,1229.82 1047.06,1224.55 1047.63,1220.55 1047.63,918.564 1049.5,926.316 1051.8,932.638 1062,950.882 1066.46,956.802 1077.25,969.164 1090.15,982.074 1090.15,1220.55 1089.58,1228.62 1086.63,1240.71 1078.76,1246.05 1020.01,1281.31 1011.6,1287.01 98.3446,1287.01 90.2746,1286.43 82.3686,1284.71 77.0906,1283.16 67.0846,1279.16 64.9606,1277.79 64.9586,1243.55 64.9606,1260.45 66.7786,1262.19 73.5786,1266.56 81.0826,1269.56 86.3626,1271.11 92.2906,1272.4 98.3446,1272.84 1023.7,1272.84 1028.24,1272.59 1038.08,1270.59 1061.16,1256.49 1065.34,1252.11 1069.71,1245.31 1072.71,1237.81 1074.26,1232.53 1075.55,1226.61 1075.98,1220.55 1075.98,967.692 1066.46,956.802 1061.81,950.586 1061.81,1220.55 1061.52,1224.59 1059.11,1233.82 1057.11,1238.82 1054.2,1243.35 1050.48,1247.25 1046.33,1250.85 1042.51,1253.64 1038.29,1255.75 1033.78,1257.13 1026.73,1258.5 1023.7,1258.66 98.3446,1258.66 94.3086,1258.37 85.0786,1255.96 80.0746,1253.96 75.5406,1251.05 71.6406,1247.33 68.0386,1243.17 64.9586,1238.77 64.9586,80.0441 67.8486,75.5481 71.5666,71.6481 75.7226,68.0461 80.1306,64.9641 75.7226,68.0461 71.5666,71.6481 67.8486,75.5481 64.9586,80.0441 64.9606,64.9621 1042,64.9621 1046.1,67.5981 1042,64.9621 1046.16,64.9641 1045.9,76.4801 1046.16,90.4061" style="stroke:rgb(103,198,105);stroke-width:28.346457;fill:none;stroke-opacity:0.5;stroke-linecap:round;stroke-linejoin:round;;fill:none"/>
<polyline points="74.4086,1220.55 64.9586,1238.77 64.9586,1380.31 64.9606,1277.79 64.9606,1293.5 73.0966,1296.76 78.3746,1298.31 88.2566,1300.46 98.3446,1301.18 993.737,1301.18 977.773,1315.36 98.3446,1315.36 86.2386,1314.49 74.3826,1311.91 69.1046,1310.36 64.9606,1308.7 64.9606,1323.9 70.3886,1325.51 84.2226,1328.52 98.3446,1329.53 963.597,1329.53 949.425,1343.7 98.3446,1343.7 82.2046,1342.55 64.9606,1338.69 64.9606,1353.26 80.1866,1356.58 98.3446,1357.88 935.251,1357.88 892.733,1400.4 98.3446,1400.4 74.1346,1398.66 64.9606,1396.67 64.9586,1438.75 64.9606,1425.6 70.1006,1426.72 98.3446,1428.74 864.385,1428.74 878.559,1414.57 98.3446,1414.57 72.1186,1412.69 64.9606,1411.14 64.9586,1382.2 76.1526,1384.64 98.3446,1386.22 906.905,1386.22 921.077,1372.05 98.3446,1372.05 78.1706,1370.61 64.9606,1367.73 64.9586,1440.07 68.0826,1440.75 98.3446,1442.92 850.211,1442.92 836.041,1457.09 98.3446,1457.09 64.9606,1454.54 64.9586,1467.84 64.9586,1440.07 64.9586,1468.88 98.3446,1471.26 821.867,1471.26 807.693,1485.44 98.3446,1485.44 64.9606,1483.05 64.9606,1497.22 98.3446,1499.61 793.521,1499.61 807.693,1485.44 779.347,1513.78 98.3446,1513.78 64.9606,1511.39 64.9586,1525.57 98.3446,1527.95 765.175,1527.95 779.347,1513.78 751.001,1542.13 98.3446,1542.13 64.9586,1539.74 64.9586,1468.88 64.9586,1553.92 98.3446,1556.3 736.827,1556.3 722.655,1570.47 98.3446,1570.47 64.9606,1568.09 64.9586,1577.56 64.9586,1553.92 64.9586,1577.56 602.523,1577.56 626.987,1577.99 651.451,1577.56 715.567,1577.56 979.665,1313.49 1001.92,1294.03 1008.1,1289.38 1020.01,1281.31 1078.76,1246.05 1090.1,1238.35 1095.25,1234.5 1103.87,1226.96 1104.33,1220.55 1104.33,996.248 1118.5,1010.42 1118.5,1214 1103.87,1226.96 1117.12,1215.37 1132.67,1199.82 1132.67,1024.59 1146.85,1038.77 1146.85,1185.65 1132.67,1199.82 1175.19,1157.3 1175.19,1067.11 1189.37,1081.29 1189.37,1143.13 1175.19,1157.3 1203.54,1128.96 1203.54,1095.46 1203.54,1128.96 1217.71,1114.78 1217.71,1109.63 1217.71,1114.78 1220.29,1112.21 1077.25,969.164 1066.46,956.802 1061.49,950.102 1051.72,932.672 1049.5,926.316 1047.63,918.564 1047.63,98.3481 1046.43,91.2821 1044.68,86.9181 1039.69,80.8541 1037.74,78.9941 1035.47,77.5381 1032.97,76.5361 1027.69,74.9861 1023.7,74.4121 96.8286,74.4921 91.2766,75.6181 86.9106,77.3661 80.8466,82.3581 78.9906,84.3081 77.5326,86.5761 76.5326,89.0761 74.9826,94.3561 74.4086,98.3481 74.4086,1220.55 74.7326,1223.56 76.3046,1229.88 78.7506,1233.89 82.3526,1238.05 84.3026,1239.91 86.5706,1241.36 94.3506,1243.92 98.3446,1244.49 1023.7,1244.49 1026.71,1244.17 1033.02,1242.59 1037.04,1240.14 1043.05,1234.59 1044.51,1232.32 1045.51,1229.82 1047.06,1224.55 1047.63,1220.55 1047.63,918.564 1049.5,926.316 1051.8,932.638 1062,950.882 1066.46,956.802 1077.25,969.164 1090.15,982.074 1090.15,1220.55 1089.58,1228.62 1086.63,1240.71 1078.76,1246.05 1020.01,1281.31 1011.6,1287.01 98.3446,1287.01 90.2746,1286.43 82.3686,1284.71 77.0906,1283.16 67.0846,1279.16 64.9606,1277.79 64.9586,1243.55 64.9606,1260.45 66.7786,1262.19 73.5786,1266.56 81.0826,1269.56 86.3626,1271.11 92.2906,1272.4 98.3446,1272.84 1023.7,1272.84 1028.24,1272.59 1038.08,1270.59 1061.16,1256.49 1065.34,1252.11 1069.71,1245.31 1072.71,1237.81 1074.26,1232.53 1075.55,1226.61 1075.98,1220.55 1075.98,967.692 1066.46,956.802 1061.81,950.586 1061.81,1220.55 1061.52,1224.59 1059.11,1233.82 1057.11,1238.82 1054.2,1243.35 1050.48,1247.25 1046.33,1250.85 1042.51,1253.64 1038.29,1255.75 1033.78,1257.13 1026.73,1258.5 1023.7,1258.66 98.3446,1258.66 94.3086,1258.37 85.0786,1255.96 80.0746,1253.96 75.5406,1251.05 71.6406,1247.33 68.0386,1243.17 64.9586,1238.77 64.9586,80.0441 67.8486,75.5481 71.5666,71.6481 75.7226,68.0461 80.1306,64.9641 75.7226,68.0461 71.5666,71.6481 67.8486,75.5481 64.9586,80.0441 64.9606,64.9621 1042,64.9621 1046.1,67.5981 1042,64.9621 1046.16,64.9641 1045.9,76.4801 1046.16,90.4061" style="stroke:rgb(0,0,0);stroke-width:1px;fill:none;stroke-opacity:1;stroke-linecap:round;stroke-linejoin:round;;fill:none"/>
<polyline points="1060.33,90.6041 1058.8,96.3321 1058.66,98.3481 1058.66,905.592 1059.86,912.66 1061.61,917.024 1066.6,923.088 1068.55,924.948 1070.82,926.404 1073.32,927.406 1078.6,928.956 1082.6,929.53 1369.68,929.53 1369.96,939.774 1370.76,942.432 1372.07,944.882 1373.83,947.03 1375.98,948.794 1378.43,950.104 1381.09,950.91 1383.86,951.182 1549.21,951.182 1551.98,950.91 1554.63,950.104 1557.09,948.794 1559.23,947.03 1561,944.882 1562.31,942.432 1563.11,939.774 1563.38,937.008 1563.38,929.53 2117.71,929.53 2117.71,937.008 2117.99,939.774 2118.79,942.432 2120.1,944.882 2121.87,947.03 2124.01,948.794 2126.46,950.104 2129.12,950.91 2131.89,951.182 2297.24,951.182 2300.01,950.91 2302.67,950.104 2305.12,948.794 2307.26,947.03 2309.03,944.882 2310.34,942.432 2311.14,939.774 2311.42,929.53 2324.43,929.448 2329.99,928.322 2334.34,926.574 2340.41,921.584 2342.27,919.634 2343.72,917.366 2346.27,909.586 2346.85,905.592 2346.85,98.3481 2345.64,91.2821 2343.89,86.9161 2338.9,80.8521 2336.95,78.9941 2334.68,77.5381 2332.18,76.5361 2326.9,74.9861 2322.91,74.4121 1082.6,74.4121 1075.53,75.6181 1071.16,77.3661 1065.1,82.3581 1063.24,84.3081 1061.78,86.5761 1060.33,90.6041 1060.07,76.5861 1060.27,67.8281 1064.38,64.9641 1060.27,67.8281 1060.34,64.9641 2426.21,64.9641 2428.74,73.2121 2429.62,77.2681 2431.32,87.7481 2431.89,98.3481 2431.89,905.592 2430.88,919.714 2427.87,933.548 2426.32,938.826 2419.31,956.34 2409.11,972.208 2396.09,985.86 2391.93,989.462 2378.61,999.186 2370.69,1003.15 2370.49,1002.9 2370.69,1003.15 2367.4,1007.16 2352.36,1019.5 2335.21,1028.67 2316.6,1034.32 2297.24,1036.22 2131.89,1036.22 2112.53,1034.32 2093.92,1028.67 2076.77,1019.5 2070.76,1014.57 2071.06,1013.74 2070.76,1014.57 1610.34,1014.57 1610.04,1013.74 1610.34,1014.57 1604.33,1019.5 1587.18,1028.67 1568.57,1034.32 1549.21,1036.22 1383.86,1036.22 1364.5,1034.32 1345.89,1028.67 1328.74,1019.5 1322.73,1014.57 1323.02,1013.74 1322.73,1014.57 1142.7,1014.57 1156.87,1028.74 1317.76,1028.74 1317.89,1028.27 1317.76,1028.74 1320.86,1031.29 1340.47,1041.76 1361.74,1048.22 1383.86,1050.39 1549.21,1050.39 1571.33,1048.22 1592.6,1041.76 1612.2,1031.29 1615.3,1028.74 1615.18,1028.27 1615.3,1028.74 2065.8,1028.74 2065.92,1028.27 2065.8,1028.74 2068.89,1031.29 2088.5,1041.76 2109.77,1048.22 2131.89,1050.39 2297.24,1050.39 2319.36,1048.22 2340.63,1041.76 2360.24,1031.29 2377.42,1017.18 2379.6,1014.36 2385.99,1011.29 2401.21,1000.17 2405.37,996.572 2420.25,980.97 2431.9,962.834 2439.92,942.82 2441.47,937.542 2444.91,921.732 2446.06,905.592 2446.06,98.3481 2445.41,86.2321 2443.47,74.2561 2440.98,64.9641 2426.21,64.9641 2513.65,64.9641 2515.87,78.6601 2516.93,98.3481 2516.93,905.592 2515.05,931.818 2509.46,957.51 2507.91,962.788 2494.89,995.312 2475.95,1024.78 2451.77,1050.13 2447.61,1053.74 2422.87,1071.8 2420.74,1072.86 2399.61,1090.21 2371.71,1105.12 2386.03,1105.12 2412.82,1097.61 2428.4,1084.82 2430.25,1083.9 2456.89,1064.45 2461.05,1060.85 2487.09,1033.54 2507.49,1001.81 2521.51,966.782 2523.06,961.504 2529.08,933.836 2531.1,905.592 2531.1,98.3481 2529.96,77.1461 2527.99,64.9641 2513.65,64.9641 2542.33,64.9641 2544.06,75.6321 2545.27,98.3481 2545.27,905.592 2543.11,935.854 2536.66,965.498 2535.11,970.776 2520.08,1008.3 2498.23,1042.31 2470.33,1071.56 2466.17,1075.16 2455.33,1083.07 2477,1075.69 2491.82,1069.47 2509.37,1051.07 2532.68,1014.8 2548.71,974.77 2550.26,969.492 2557.14,937.87 2559.45,905.592 2559.45,98.3481 2558.15,74.1161 2556.67,64.9641 2571,64.9641 2572.24,72.6021 2573.62,98.3481 2573.62,905.592 2571.17,939.888 2563.86,973.484 2562.31,978.762 2545.28,1021.29 2523.4,1055.32 2548.45,1042.46 2557.87,1027.79 2575.91,982.756 2577.46,977.478 2585.2,941.906 2587.79,905.592 2587.79,98.3481 2586.33,71.0881 2585.34,64.9641 2599.68,64.9641 2600.42,69.5741 2601.97,98.3481 2601.97,905.592 2599.22,943.922 2591.05,981.472 2589.5,986.75 2573.11,1027.71 2587.92,1018.7 2593.47,1014.81 2603.1,990.744 2604.65,985.466 2613.25,945.94 2616.14,905.592 2616.14,98.3481 2614.52,68.0581 2614.02,64.9641 2628.35,64.9641 2630.31,98.3481 2630.31,905.592 2627.28,947.958 2618.25,989.46 2616.7,994.738 2614.6,999.982 2625.03,992.668 2633.43,986.18 2641.31,949.974 2644.49,905.592 2644.49,98.3481 2642.69,64.9641 2656.87,64.9641 2658.66,98.3481 2658.66,905.592 2655.34,951.992 2651,971.924 2633.43,986.18 2668.57,957.668 2669.37,954.01 2672.83,905.592 2672.83,98.3481 2671.04,64.9641 2685.22,64.9641 2687.01,98.3481 2687.01,905.592 2684.22,944.536 2680.76,947.784 2668.57,957.668 2680.76,947.784 2699.41,930.3 2701.18,905.592 2701.18,98.3481 2699.39,64.9641 2542.33,64.9641 2713.56,64.9641 2715.35,98.3481 2715.35,905.592 2714.6,916.062 2729.53,902.078 2729.53,98.3481 2727.74,64.9641 2713.56,64.9641 2741.91,64.9641 2743.7,98.3481 2743.7,888.012 2757.87,874.114 2757.87,98.3481 2756.08,64.9641 2741.91,64.9641 2770.26,64.9641 2772.05,98.3481 2772.05,860.512 2786.22,846.91 2786.22,98.3481 2784.43,64.9641 2770.26,64.9641 2789.37,64.9621 2789.37,843.972 2751.07,880.638 2731.21,900.5 2680.76,947.784 2630.33,988.698 2587.92,1018.7 2550.94,1041.18 2514.01,1060.15 2477,1075.69 2471.75,1077.64 2438.37,1088.68 2411.74,1097.99 2386.03,1105.12 2111.91,1105.12 2098.71,1103.82 2066.8,1094.14 2050.52,1085.44 2050.62,1085.01 2050.52,1085.44 1630.58,1085.44 1630.48,1085.01 1630.58,1085.44 1614.3,1094.14 1582.39,1103.82 1569.19,1105.12 1623.68,1105.12 1633.99,1099.61 1633.88,1099.18 1633.99,1099.61 2047.11,1099.61 2047.22,1099.18 2047.11,1099.61 2057.42,1105.12 2111.91,1105.12 1363.88,1105.12 1350.68,1103.82 1318.77,1094.14 1302.48,1085.44 1302.59,1085.01 1302.48,1085.44 1213.56,1085.44 1227.73,1099.61 1299.08,1099.61 1299.18,1099.18 1299.08,1099.61 1309.39,1105.12 1363.88,1105.12 1233.25,1105.12 1087.78,959.652 1077.31,947.674 1073.63,942.762 1064.89,927.174 1063.18,922.586 1061.95,917.494 1161.02,1052.94 1161.02,1171.48" style="stroke:rgb(103,198,105);stroke-width:28.346457;fill:none;stroke-opacity:0.5;stroke-linecap:round;stroke-linejoin:round;;fill:none"/>
<polyline points="1060.33,90.6041 1058.8,96.3321 1058.66,98.3481 1058.66,905.592 1059.86,912.66 1061.61,917.024 1066.6,923.088 1068.55,924.948 1070.82,926.404 1073.32,927.406 1078.6,928.956 1082.6,929.53 1369.68,929.53 1369.96,939.774 1370.76,942.432 1372.07,944.882 1373.83,947.03 1375.98,948.794 1378.43,950.104 1381.09,950.91 1383.86,951.182 1549.21,951.182 1551.98,950.91 1554.63,950.104 1557.09,948.794 1559.23,947.03 1561,944.882 1562.31,942.432 1563.11,939.774 1563.38,937.008 1563.38,929.53 2117.71,929.53 2117.71,937.008 2117.99,939.774 2118.79,942.432 2120.1,944.882 2121.87,947.03 2124.01,948.794 2126.46,950.104 2129.12,950.91 2131.89,951.182 2297.24,951.182 2300.01,950.91 2302.67,950.104 2305.12,948.794 2307.26,947.03 2309.03,944.882 2310.34,942.432 2311.14,939.774 2311.42,929.53 2324.43,929.448 2329.99,928.322 2334.34,926.574 2340.41,921.584 2342.27,919.634 2343.72,917.366 2346.27,909.586 2346.85,905.592 2346.85,98.3481 2345.64,91.2821 2343.89,86.9161 2338.9,80.8521 2336.95,78.9941 2334.68,77.5381 2332.18,76.5361 2326.9,74.9861 2322.91,74.4121 1082.6,74.4121 1075.53,75.6181 1071.16,77.3661 1065.1,82.3581 1063.24,84.3081 1061.78,86.5761 1060.33,90.6041 1060.07,76.5861 1060.27,67.8281 1064.38,64.9641 1060.27,67.8281 1060.34,64.9641 2426.21,64.9641 2428.74,73.2121 2429.62,77.2681 2431.32,87.7481 2431.89,98.3481 2431.89,905.592 2430.88,919.714 2427.87,933.548 2426.32,938.826 2419.31,956.34 2409.11,972.208 2396.09,985.86 2391.93,989.462 2378.61,999.186 2370.69,1003.15 2370.49,1002.9 2370.69,1003.15 2367.4,1007.16 2352.36,1019.5 2335.21,1028.67 2316.6,1034.32 2297.24,1036.22 2131.89,1036.22 2112.53,1034.32 2093.92,1028.67 2076.77,1019.5 2070.76,1014.57 2071.06,1013.74 2070.76,1014.57 1610.34,1014.57 1610.04,1013.74 1610.34,1014.57 1604.33,1019.5 1587.18,1028.67 1568.57,1034.32 1549.21,1036.22 1383.86,1036.22 1364.5,1034.32 1345.89,1028.67 1328.74,1019.5 1322.73,1014.57 1323.02,1013.74 1322.73,1014.57 1142.7,1014.57 1156.87,1028.74 1317.76,1028.74 1317.89,1028.27 1317.76,1028.74 1320.86,1031.29 1340.47,1041.76 1361.74,1048.22 1383.86,1050.39 1549.21,1050.39 1571.33,1048.22 1592.6,1041.76 1612.2,1031.29 1615.3,1028.74 1615.18,1028.27 1615.3,1028.74 2065.8,1028.74 2065.92,1028.27 2065.8,1028.74 2068.89,1031.29 2088.5,1041.76 2109.77,1048.22 2131.89,1050.39 2297.24,1050.39 2319.36,1048.22 2340.63,1041.76 2360.24,1031.29 2377.42,1017.18 2379.6,1014.36 2385.99,1011.29 2401.21,1000.17 2405.37,996.572 2420.25,980.97 2431.9,962.834 2439.92,942.82 2441.47,937.542 2444.91,921.732 2446.06,905.592 2446.06,98.3481 2445.41,86.2321 2443.47,74.2561 2440.98,64.9641 2426.21,64.9641 2513.65,64.9641 2515.87,78.6601 2516.93,98.3481 2516.93,905.592 2515.05,931.818 2509.46,957.51 2507.91,962.788 2494.89,995.312 2475.95,1024.78 2451.77,1050.13 2447.61,1053.74 2422.87,1071.8 2420.74,1072.86 2399.61,1090.21 2371.71,1105.12 2386.03,1105.12 2412.82,1097.61 2428.4,1084.82 2430.25,1083.9 2456.89,1064.45 2461.05,1060.85 2487.09,1033.54 2507.49,1001.81 2521.51,966.782 2523.06,961.504 2529.08,933.836 2531.1,905.592 2531.1,98.3481 2529.96,77.1461 2527.99,64.9641 2513.65,64.9641 2542.33,64.9641 2544.06,75.6321 2545.27,98.3481 2545.27,905.592 2543.11,935.854 2536.66,965.498 2535.11,970.776 2520.08,1008.3 2498.23,1042.31 2470.33,1071.56 2466.17,1075.16 2455.33,1083.07 2477,1075.69 2491.82,1069.47 2509.37,1051.07 2532.68,1014.8 2548.71,974.77 2550.26,969.492 2557.14,937.87 2559.45,905.592 2559.45,98.3481 2558.15,74.1161 2556.67,64.9641 2571,64.9641 2572.24,72.6021 2573.62,98.3481 2573.62,905.592 2571.17,939.888 2563.86,973.484 2562.31,978.762 2545.28,1021.29 2523.4,1055.32 2548.45,1042.46 2557.87,1027.79 2575.91,982.756 2577.46,977.478 2585.2,941.906 2587.79,905.592 2587.79,98.3481 2586.33,71.0881 2585.34,64.9641 2599.68,64.9641 2600.42,69.5741 2601.97,98.3481 2601.97,905.592 2599.22,943.922 2591.05,981.472 2589.5,986.75 2573.11,1027.71 2587.92,1018.7 2593.47,1014.81 2603.1,990.744 2604.65,985.466 2613.25,945.94 2616.14,905.592 2616.14,98.3481 2614.52,68.0581 2614.02,64.9641 2628.35,64.9641 2630.31,98.3481 2630.31,905.592 2627.28,947.958 2618.25,989.46 2616.7,994.738 2614.6,999.982 2625.03,992.668 2633.43,986.18 2641.31,949.974 2644.49,905.592 2644.49,98.3481 2642.69,64.9641 2656.87,64.9641 2658.66,98.3481 2658.66,905.592 2655.34,951.992 2651,971.924 2633.43,986.18 2668.57,957.668 2669.37,954.01 2672.83,905.592 2672.83,98.3481 2671.04,64.9641 2685.22,64.9641 2687.01,98.3481 2687.01,905.592 2684.22,944.536 2680.76,947.784 2668.57,957.668 2680.76,947.784 2699.41,930.3 2701.18,905.592 2701.18,98.3481 2699.39,64.9641 2542.33,64.9641 2713.56,64.9641 2715.35,98.3481 2715.35,905.592 2714.6,916.062 2729.53,902.078 2729.53,98.3481 2727.74,64.9641 2713.56,64.9641 2741.91,64.9641 2743.7,98.3481 2743.7,888.012 2757.87,874.114 2757.87,98.3481 2756.08,64.9641 2741.91,64.9641 2770.26,64.9641 2772.05,98.3481 2772.05,860.512 2786.22,846.91 2786.22,98.3481 2784.43,64.9641 2770.26,64.9641 2789.37,64.9621 2789.37,843.972 2751.07,880.638 2731.21,900.5 2680.76,947.784 2630.33,988.698 2587.92,1018.7 2550.94,1041.18 2514.01,1060.15 2477,1075.69 2471.75,1077.64 2438.37,1088.68 2411.74,1097.99 2386.03,1105.12 2111.91,1105.12 2098.71,1103.82 2066.8,1094.14 2050.52,1085.44 2050.62,1085.01 2050.52,1085.44 1630.58,1085.44 1630.48,1085.01 1630.58,1085.44 1614.3,1094.14 1582.39,1103.82 1569.19,1105.12 1623.68,1105.12 1633.99,1099.61 1633.88,1099.18 1633.99,1099.61 2047.11,1099.61 2047.22,1099.18 2047.11,1099.61 2057.42,1105.12 2111.91,1105.12 1363.88,1105.12 1350.68,1103.82 1318.77,1094.14 1302.48,1085.44 1302.59,1085.01 1302.48,1085.44 1213.56,1085.44 1227.73,1099.61 1299.08,1099.61 1299.18,1099.18 1299.08,1099.61 1309.39,1105.12 1363.88,1105.12 1233.25,1105.12 1087.78,959.652 1077.31,947.674 1073.63,942.762 1064.89,927.174 1063.18,922.586 1061.95,917.494 1161.02,1052.94 1161.02,1171.48" style="stroke:rgb(0,0,0);stroke-width:1px;fill:none;stroke-opacity:1;stroke-linecap:round;stroke-linejoin:round;;fill:none"/>
<polyline points="1171.04,1181.5 1312.8,1181.5 1312.91,1181.93 1312.99,1181.34 1335.04,1169.55 1358.97,1162.29 1383.86,1159.84 1549.21,1159.84 1574.1,1162.29 1598.03,1169.55 1620.08,1181.34 1620.16,1181.93 1620.27,1181.5 2060.83,1181.5 2060.94,1181.93 2061.02,1181.34 2083.07,1169.55 2107,1162.29 2131.89,1159.84 2297.24,1159.84 2322.13,1162.29 2346.06,1169.55 2368.11,1181.34 2368.19,1181.93 2368.3,1181.5 2755.98,1181.5 2774.13,1182.8 2789.37,1186.11 2789.37,1171.64 2776.15,1168.77 2755.98,1167.32 2371.81,1167.32 2371.7,1167.75 2371.81,1167.32 2351.48,1156.46 2324.89,1148.39 2297.24,1145.67 2131.89,1145.67 2104.24,1148.39 2077.65,1156.46 2057.32,1167.32 2057.43,1167.75 2057.32,1167.32 1623.78,1167.32 1623.67,1167.75 1623.78,1167.32 1603.45,1156.46 1576.86,1148.39 1549.21,1145.67 1383.86,1145.67 1356.21,1148.39 1329.62,1156.46 1309.29,1167.32 1309.4,1167.75 1309.29,1167.32 1185.22,1167.32 1199.39,1153.15 1305.88,1153.15 1305.99,1153.58 1305.88,1153.15 1324.19,1143.36 1353.44,1134.49 1383.86,1131.5 1549.21,1131.5 1579.63,1134.49 1608.87,1143.36 1627.18,1153.15 1627.08,1153.58 1627.18,1153.15 2053.91,1153.15 2054.02,1153.58 2053.91,1153.15 2072.22,1143.36 2101.47,1134.49 2131.89,1131.5 2297.24,1131.5 2327.66,1134.49 2356.9,1143.36 2375.21,1153.15 2375.11,1153.58 2375.21,1153.15 2755.98,1153.15 2778.16,1154.74 2789.37,1157.17 2789.37,1142.71 2780.18,1140.71 2755.98,1138.98 2378.62,1138.98 2378.51,1139.4 2378.62,1138.98 2362.33,1130.27 2330.42,1120.59 2317.23,1119.29 2057.42,1119.29 2047.1,1124.8 2047.21,1125.23 2047.1,1124.8 1633.99,1124.8 1633.89,1125.23 1633.99,1124.8 1623.68,1119.29 1569.21,1119.29 1582.39,1120.59 1614.3,1130.27 1630.59,1138.98 1630.48,1139.4 1630.59,1138.98 2050.51,1138.98 2050.62,1139.4 2050.51,1138.98 2066.8,1130.27 2098.71,1120.59 2111.89,1119.29 2317.23,1105.12 2330.42,1103.82 2362.33,1094.14 2391.73,1078.42 2413.08,1060.9 2415.49,1059.7 2438.33,1043.02 2442.49,1039.42 2464.81,1016.02 2482.29,988.816 2494.31,958.794 2495.86,953.516 2501.02,929.802 2502.75,905.592 2502.75,98.3481 2501.78,80.1741 2499.32,64.9641 2484.96,64.9641 2487.69,81.6901 2488.58,98.3481 2488.58,905.592 2486.99,927.784 2482.26,949.522 2480.71,954.8 2469.69,982.32 2453.67,1007.26 2433.21,1028.71 2429.05,1032.31 2408.12,1047.59 2405.42,1048.94 2383.86,1066.64 2356.9,1081.05 2327.66,1089.92 2297.24,1092.91 2131.89,1092.91 2101.47,1089.92 2072.22,1081.05 2053.92,1071.26 2054.03,1070.84 2053.92,1071.26 1627.18,1071.26 1627.07,1070.84 1627.18,1071.26 1608.87,1081.05 1579.63,1089.92 1549.21,1092.91 1383.86,1092.91 1353.44,1089.92 1324.19,1081.05 1305.89,1071.26 1306,1070.84 1305.89,1071.26 1199.39,1071.26 1185.22,1057.09 1309.29,1057.09 1309.4,1056.66 1309.29,1057.09 1329.62,1067.95 1356.21,1076.02 1383.86,1078.74 1549.21,1078.74 1576.86,1076.02 1603.45,1067.95 1623.77,1057.09 1623.67,1056.66 1623.77,1057.09 2057.33,1057.09 2057.43,1056.66 2057.33,1057.09 2077.65,1067.95 2104.24,1076.02 2131.89,1078.74 2297.24,1078.74 2324.89,1076.02 2351.48,1067.95 2375.98,1054.85 2397.59,1037.06 2400.74,1035.49 2419.77,1021.6 2423.93,1018 2442.53,998.496 2457.1,975.826 2467.11,950.808 2468.66,945.53 2472.96,925.766 2474.41,905.592 2474.41,98.3481 2473.6,83.2041 2470.46,64.9641 2455.76,64.9641 2457.32,71.2441 2459.5,84.7181 2460.23,98.3481 2460.23,905.592 2458.94,923.75 2455.07,941.536 2453.52,946.814 2444.5,969.33 2431.39,989.732 2414.65,1007.28 2410.49,1010.89 2393.36,1023.39 2388.61,1025.75 2387.44,1027.21 2368.11,1043.07 2346.06,1054.86 2322.13,1062.12 2297.24,1064.57 2131.89,1064.57 2107,1062.12 2083.07,1054.86 2061.02,1043.07 2060.94,1042.49 2060.83,1042.92 1620.27,1042.92 1620.16,1042.49 1620.08,1043.07 1598.03,1054.86 1574.1,1062.12 1549.21,1064.57 1383.86,1064.57 1358.97,1062.12 1335.04,1054.86 1312.99,1043.07 1312.91,1042.49 1312.8,1042.92 1171.04,1042.92 1128.52,1000.4 1327.69,1000.4 1327.99,999.568 1327.69,1000.4 1336.61,1007.72 1351.31,1015.57 1367.27,1020.41 1383.86,1022.05 1549.21,1022.05 1565.8,1020.41 1581.75,1015.57 1596.46,1007.72 1605.38,1000.4 1605.08,999.568 1605.38,1000.4 2075.72,1000.4 2076.02,999.568 2075.72,1000.4 2084.64,1007.72 2099.35,1015.57 2115.3,1020.41 2131.89,1022.05 2297.24,1022.05 2313.83,1020.41 2329.79,1015.57 2344.49,1007.72 2357.37,997.14 2361.72,991.848 2361.52,991.6 2361.72,991.848 2371.23,987.084 2382.65,978.748 2386.81,975.146 2397.97,963.446 2406.71,949.844 2412.72,934.832 2414.27,929.554 2416.85,917.698 2417.71,905.592 2417.71,98.3481 2417.23,89.2621 2415.77,80.2801 2414.89,76.2241 2411.44,64.9641 2396.09,64.9641 2397.58,67.9541 2401.04,79.2341 2403.14,90.7761 2403.54,98.3481 2403.54,905.592 2402.82,915.68 2400.67,925.562 2399.12,930.84 2394.11,943.348 2386.83,954.684 2377.53,964.434 2373.37,968.036 2363.85,974.982 2353.32,980.258 2352.87,980.394 2352.67,980.138 2352.87,980.394 2347.35,987.118 2336.61,995.932 2324.36,1002.48 2311.07,1006.51 2297.24,1007.87 2131.89,1007.87 2118.06,1006.51 2104.77,1002.48 2092.52,995.932 2081.78,987.118 2081.04,986.224 2081.36,985.358 2081.04,986.224 1600.06,986.224 1599.74,985.358 1600.06,986.224 1599.32,987.118 1588.58,995.932 1576.33,1002.48 1563.04,1006.51 1549.21,1007.87 1383.86,1007.87 1370.03,1006.51 1356.74,1002.48 1344.49,995.932 1333.75,987.118 1333.01,986.224 1333.33,985.358 1333.01,986.224 1114.35,986.222 1100.18,972.05 1339.63,972.05 1340.27,970.69 1339.63,972.05 1343.77,977.096 1352.36,984.148 1362.16,989.386 1372.8,992.612 1383.86,993.702 1549.21,993.702 1560.27,992.612 1570.91,989.386 1580.71,984.148 1589.3,977.096 1593.44,972.05 1592.8,970.69 1593.44,972.05 2087.66,972.05 2088.3,970.69 2087.66,972.05 2091.8,977.096 2100.39,984.148 2110.19,989.386 2120.83,992.612 2131.89,993.702 2297.24,993.702 2308.3,992.612 2318.94,989.386 2328.74,984.148 2337.33,977.096 2344.38,968.506 2344.56,968.172 2344.31,967.85 2344.56,968.172 2348.05,967.1 2356.48,962.88 2364.09,957.324 2368.25,953.722 2375.69,945.92 2381.51,936.852 2385.52,926.846 2387.07,921.568 2388.79,913.662 2389.37,905.592 2389.37,98.3481 2389.04,92.2901 2387.19,82.2461 2384.42,73.2221 2380.29,64.9641 2362.64,64.9641 2368.1,72.1601 2371.27,78.4901 2373.34,85.2581 2374.22,89.3141 2374.95,93.8061 2375.19,98.3481 2375.19,905.592 2374.76,911.646 2373.47,917.574 2371.92,922.852 2368.92,930.358 2364.55,937.158 2358.97,943.008 2354.81,946.61 2349.1,950.778 2342.78,953.944 2336.02,956.018 2334.94,956.254 2334.55,955.754 2334.94,956.254 2332.6,960.632 2327.31,967.074 2320.87,972.362 2313.51,976.292 2305.54,978.712 2297.24,979.528 2131.89,979.528 2123.59,978.712 2115.62,976.292 2108.27,972.362 2101.82,967.074 2096.53,960.632 2095.06,957.876 2095.83,956.35 2095.06,957.876 1586.04,957.876 1585.26,956.35 1586.04,957.876 1584.56,960.632 1579.28,967.074 1572.83,972.362 1565.48,976.292 1557.51,978.712 1549.21,979.528 1383.86,979.528 1375.56,978.712 1367.59,976.292 1360.23,972.362 1353.79,967.074 1348.5,960.632 1347.03,957.876 1347.8,956.35 1347.03,957.876 1086.23,957.876 1077.31,947.674 1073.3,942.172 1078.56,943.414 1082.6,943.704 1356.41,943.704 1357.95,941.368 1356.41,943.704 1357.67,947.856 1360.29,952.758 1363.81,957.052 1368.11,960.578 1373.01,963.198 1378.33,964.81 1383.86,965.356 1549.21,965.356 1554.74,964.81 1560.06,963.198 1564.96,960.578 1569.25,957.052 1572.78,952.758 1575.4,947.856 1576.66,943.704 1575.12,941.362 1576.66,943.704 2104.44,943.704 2105.98,941.362 2104.44,943.704 2105.7,947.856 2108.32,952.758 2111.84,957.052 2116.14,960.578 2121.04,963.198 2126.36,964.81 2131.89,965.356 2297.24,965.356 2302.77,964.81 2308.09,963.198 2312.99,960.578 2317.29,957.052 2320.81,952.758 2323.43,947.856 2324.72,943.606 2323.51,942.072 2324.72,943.606 2325.95,943.54 2333,942.17 2337.51,940.786 2341.72,938.676 2345.53,935.898 2349.69,932.296 2353.41,928.396 2356.32,923.862 2358.32,918.858 2360.73,909.628 2361.02,905.592 2361.02,98.3481 2360.86,95.3201 2359.49,88.2701 2358.11,83.7581 2356,79.5381 2353.21,75.7261 2349.61,71.5681 2345.71,67.8521 2341.21,64.9641" style="stroke:rgb(103,198,105);stroke-width:28.346457;fill:none;stroke-opacity:0.5;stroke-linecap:round;stroke-linejoin:round;;fill:none"/>
<polyline points="1171.04,1181.5 1312.8,1181.5 1312.91,1181.93 1312.99,1181.34 1335.04,1169.55 1358.97,1162.29 1383.86,1159.84 1549.21,1159.84 1574.1,1162.29 1598.03,1169.55 1620.08,1181.34 1620.16,1181.93 1620.27,1181.5 2060.83,1181.5 2060.94,1181.93 2061.02,1181.34 2083.07,1169.55 2107,1162.29 2131.89,1159.84 2297.24,1159.84 2322.13,1162.29 2346.06,1169.55 2368.11,1181.34 2368.19,1181.93 2368.3,1181.5 2755.98,1181.5 2774.13,1182.8 2789.37,1186.11 2789.37,1171.64 2776.15,1168.77 2755.98,1167.32 2371.81,1167.32 2371.7,1167.75 2371.81,1167.32 2351.48,1156.46 2324.89,1148.39 2297.24,1145.67 2131.89,1145.67 2104.24,1148.39 2077.65,1156.46 2057.32,1167.32 2057.43,1167.75 2057.32,1167.32 1623.78,1167.32 1623.67,1167.75 1623.78,1167.32 1603.45,1156.46 1576.86,1148.39 1549.21,1145.67 1383.86,1145.67 1356.21,1148.39 1329.62,1156.46 1309.29,1167.32 1309.4,1167.75 1309.29,1167.32 1185.22,1167.32 1199.39,1153.15 1305.88,1153.15 1305.99,1153.58 1305.88,1153.15 1324.19,1143.36 1353.44,1134.49 1383.86,1131.5 1549.21,1131.5 1579.63,1134.49 1608.87,1143.36 1627.18,1153.15 1627.08,1153.58 1627.18,1153.15 2053.91,1153.15 2054.02,1153.58 2053.91,1153.15 2072.22,1143.36 2101.47,1134.49 2131.89,1131.5 2297.24,1131.5 2327.66,1134.49 2356.9,1143.36 2375.21,1153.15 2375.11,1153.58 2375.21,1153.15 2755.98,1153.15 2778.16,1154.74 2789.37,1157.17 2789.37,1142.71 2780.18,1140.71 2755.98,1138.98 2378.62,1138.98 2378.51,1139.4 2378.62,1138.98 2362.33,1130.27 2330.42,1120.59 2317.23,1119.29 2057.42,1119.29 2047.1,1124.8 2047.21,1125.23 2047.1,1124.8 1633.99,1124.8 1633.89,1125.23 1633.99,1124.8 1623.68,1119.29 1569.21,1119.29 1582.39,1120.59 1614.3,1130.27 1630.59,1138.98 1630.48,1139.4 1630.59,1138.98 2050.51,1138.98 2050.62,1139.4 2050.51,1138.98 2066.8,1130.27 2098.71,1120.59 2111.89,1119.29 2317.23,1105.12 2330.42,1103.82 2362.33,1094.14 2391.73,1078.42 2413.08,1060.9 2415.49,1059.7 2438.33,1043.02 2442.49,1039.42 2464.81,1016.02 2482.29,988.816 2494.31,958.794 2495.86,953.516 2501.02,929.802 2502.75,905.592 2502.75,98.3481 2501.78,80.1741 2499.32,64.9641 2484.96,64.9641 2487.69,81.6901 2488.58,98.3481 2488.58,905.592 2486.99,927.784 2482.26,949.522 2480.71,954.8 2469.69,982.32 2453.67,1007.26 2433.21,1028.71 2429.05,1032.31 2408.12,1047.59 2405.42,1048.94 2383.86,1066.64 2356.9,1081.05 2327.66,1089.92 2297.24,1092.91 2131.89,1092.91 2101.47,1089.92 2072.22,1081.05 2053.92,1071.26 2054.03,1070.84 2053.92,1071.26 1627.18,1071.26 1627.07,1070.84 1627.18,1071.26 1608.87,1081.05 1579.63,1089.92 1549.21,1092.91 1383.86,1092.91 1353.44,1089.92 1324.19,1081.05 1305.89,1071.26 1306,1070.84 1305.89,1071.26 1199.39,1071.26 1185.22,1057.09 1309.29,1057.09 1309.4,1056.66 1309.29,1057.09 1329.62,1067.95 1356.21,1076.02 1383.86,1078.74 1549.21,1078.74 1576.86,1076.02 1603.45,1067.95 1623.77,1057.09 1623.67,1056.66 1623.77,1057.09 2057.33,1057.09 2057.43,1056.66 2057.33,1057.09 2077.65,1067.95 2104.24,1076.02 2131.89,1078.74 2297.24,1078.74 2324.89,1076.02 2351.48,1067.95 2375.98,1054.85 2397.59,1037.06 2400.74,1035.49 2419.77,1021.6 2423.93,1018 2442.53,998.496 2457.1,975.826 2467.11,950.808 2468.66,945.53 2472.96,925.766 2474.41,905.592 2474.41,98.3481 2473.6,83.2041 2470.46,64.9641 2455.76,64.9641 2457.32,71.2441 2459.5,84.7181 2460.23,98.3481 2460.23,905.592 2458.94,923.75 2455.07,941.536 2453.52,946.814 2444.5,969.33 2431.39,989.732 2414.65,1007.28 2410.49,1010.89 2393.36,1023.39 2388.61,1025.75 2387.44,1027.21 2368.11,1043.07 2346.06,1054.86 2322.13,1062.12 2297.24,1064.57 2131.89,1064.57 2107,1062.12 2083.07,1054.86 2061.02,1043.07 2060.94,1042.49 2060.83,1042.92 1620.27,1042.92 1620.16,1042.49 1620.08,1043.07 1598.03,1054.86 1574.1,1062.12 1549.21,1064.57 1383.86,1064.57 1358.97,1062.12 1335.04,1054.86 1312.99,1043.07 1312.91,1042.49 1312.8,1042.92 1171.04,1042.92 1128.52,1000.4 1327.69,1000.4 1327.99,999.568 1327.69,1000.4 1336.61,1007.72 1351.31,1015.57 1367.27,1020.41 1383.86,1022.05 1549.21,1022.05 1565.8,1020.41 1581.75,1015.57 1596.46,1007.72 1605.38,1000.4 1605.08,999.568 1605.38,1000.4 2075.72,1000.4 2076.02,999.568 2075.72,1000.4 2084.64,1007.72 2099.35,1015.57 2115.3,1020.41 2131.89,1022.05 2297.24,1022.05 2313.83,1020.41 2329.79,1015.57 2344.49,1007.72 2357.37,997.14 2361.72,991.848 2361.52,991.6 2361.72,991.848 2371.23,987.084 2382.65,978.748 2386.81,975.146 2397.97,963.446 2406.71,949.844 2412.72,934.832 2414.27,929.554 2416.85,917.698 2417.71,905.592 2417.71,98.3481 2417.23,89.2621 2415.77,80.2801 2414.89,76.2241 2411.44,64.9641 2396.09,64.9641 2397.58,67.9541 2401.04,79.2341 2403.14,90.7761 2403.54,98.3481 2403.54,905.592 2402.82,915.68 2400.67,925.562 2399.12,930.84 2394.11,943.348 2386.83,954.684 2377.53,964.434 2373.37,968.036 2363.85,974.982 2353.32,980.258 2352.87,980.394 2352.67,980.138 2352.87,980.394 2347.35,987.118 2336.61,995.932 2324.36,1002.48 2311.07,1006.51 2297.24,1007.87 2131.89,1007.87 2118.06,1006.51 2104.77,1002.48 2092.52,995.932 2081.78,987.118 2081.04,986.224 2081.36,985.358 2081.04,986.224 1600.06,986.224 1599.74,985.358 1600.06,986.224 1599.32,987.118 1588.58,995.932 1576.33,1002.48 1563.04,1006.51 1549.21,1007.87 1383.86,1007.87 1370.03,1006.51 1356.74,1002.48 1344.49,995.932 1333.75,987.118 1333.01,986.224 1333.33,985.358 1333.01,986.224 1114.35,986.222 1100.18,972.05 1339.63,972.05 1340.27,970.69 1339.63,972.05 1343.77,977.096 1352.36,984.148 1362.16,989.386 1372.8,992.612 1383.86,993.702 1549.21,993.702 1560.27,992.612 1570.91,989.386 1580.71,984.148 1589.3,977.096 1593.44,972.05 1592.8,970.69 1593.44,972.05 2087.66,972.05 2088.3,970.69 2087.66,972.05 2091.8,977.096 2100.39,984.148 2110.19,989.386 2120.83,992.612 2131.89,993.702 2297.24,993.702 2308.3,992.612 2318.94,989.386 2328.74,984.148 2337.33,977.096 2344.38,968.506 2344.56,968.172 2344.31,967.85 2344.56,968.172 2348.05,967.1 2356.48,962.88 2364.09,957.324 2368.25,953.722 2375.69,945.92 2381.51,936.852 2385.52,926.846 2387.07,921.568 2388.79,913.662 2389.37,905.592 2389.37,98.3481 2389.04,92.2901 2387.19,82.2461 2384.42,73.2221 2380.29,64.9641 2362.64,64.9641 2368.1,72.1601 2371.27,78.4901 2373.34,85.2581 2374.22,89.3141 2374.95,93.8061 2375.19,98.3481 2375.19,905.592 2374.76,911.646 2373.47,917.574 2371.92,922.852 2368.92,930.358 2364.55,937.158 2358.97,943.008 2354.81,946.61 2349.1,950.778 2342.78,953.944 2336.02,956.018 2334.94,956.254 2334.55,955.754 2334.94,956.254 2332.6,960.632 2327.31,967.074 2320.87,972.362 2313.51,976.292 2305.54,978.712 2297.24,979.528 2131.89,979.528 2123.59,978.712 2115.62,976.292 2108.27,972.362 2101.82,967.074 2096.53,960.632 2095.06,957.876 2095.83,956.35 2095.06,957.876 1586.04,957.876 1585.26,956.35 1586.04,957.876 1584.56,960.632 1579.28,967.074 1572.83,972.362 1565.48,976.292 1557.51,978.712 1549.21,979.528 1383.86,979.528 1375.56,978.712 1367.59,976.292 1360.23,972.362 1353.79,967.074 1348.5,960.632 1347.03,957.876 1347.8,956.35 1347.03,957.876 1086.23,957.876 1077.31,947.674 1073.3,942.172 1078.56,943.414 1082.6,943.704 1356.41,943.704 1357.95,941.368 1356.41,943.704 1357.67,947.856 1360.29,952.758 1363.81,957.052 1368.11,960.578 1373.01,963.198 1378.33,964.81 1383.86,965.356 1549.21,965.356 1554.74,964.81 1560.06,963.198 1564.96,960.578 1569.25,957.052 1572.78,952.758 1575.4,947.856 1576.66,943.704 1575.12,941.362 1576.66,943.704 2104.44,943.704 2105.98,941.362 2104.44,943.704 2105.7,947.856 2108.32,952.758 2111.84,957.052 2116.14,960.578 2121.04,963.198 2126.36,964.81 2131.89,965.356 2297.24,965.356 2302.77,964.81 2308.09,963.198 2312.99,960.578 2317.29,957.052 2320.81,952.758 2323.43,947.856 2324.72,943.606 2323.51,942.072 2324.72,943.606 2325.95,943.54 2333,942.17 2337.51,940.786 2341.72,938.676 2345.53,935.898 2349.69,932.296 2353.41,928.396 2356.32,923.862 2358.32,918.858 2360.73,909.628 2361.02,905.592 2361.02,98.3481 2360.86,95.3201 2359.49,88.2701 2358.11,83.7581 2356,79.5381 2353.21,75.7261 2349.61,71.5681 2345.71,67.8521 2341.21,64.9641" style="stroke:rgb(0,0,0);stroke-width:1px;fill:none;stroke-opacity:1;stroke-linecap:round;stroke-linejoin:round;;fill:none"/>
<g fill-rule="evenodd"><path d="M 88.5826,2755.99 L 88.5826,1948.74 L 90.1326,1943.46 L 94.2886,1939.86 L 98.3446,1938.98 L 602.401,1938.98 L 607.679,1940.53 L 611.283,1944.69 L 612.165,1948.74 L 612.165,2100.23 L 612.669,2104.92 L 616.629,2115.54 L 623.421,2124.61 L 632.493,2131.4 L 643.111,2135.36 L 647.805,2135.87 L 812.823,2135.87 L 817.517,2135.36 L 828.135,2131.4 L 837.207,2124.61 L 843.999,2115.54 L 847.959,2104.92 L 848.463,2100.23 L 848.463,1948.74 L 850.013,1943.46 L 854.171,1939.86 L 858.227,1938.98 L 2244.17,1938.98 L 2249.45,1940.53 L 2253.05,1944.69 L 2253.94,1948.74 L 2253.94,2755.99 L 2252.39,2761.26 L 2248.23,2764.87 L 2244.17,2765.75 L 98.3446,2765.75 L 93.0666,2764.2 L 89.4646,2760.04 L 88.5826,2755.99 z " style="fill-opacity:1.000000;fill:rgb(103,198,105);stroke:rgb(0,0,0);stroke-width:2"/></g>
<g fill-rule="evenodd"><path d="M 88.5826,1220.55 L 88.5826,98.3481 L 90.1326,93.0681 L 94.2886,89.4661 L 98.3446,88.5841 L 1023.7,88.5841 L 1028.98,90.1341 L 1032.58,94.2921 L 1033.46,98.3481 L 1033.46,1220.55 L 1031.91,1225.83 L 1027.76,1229.43 L 1023.7,1230.32 L 98.3446,1230.32 L 93.0666,1228.77 L 89.4646,1224.61 L 88.5826,1220.55 z " style="fill-opacity:1.000000;fill:rgb(115,81,255);stroke:rgb(0,0,0);stroke-width:2"/></g>
<g fill-rule="evenodd"><path d="M 651.575,2096.46 L 651.575,1938.98 L 809.055,1938.98 L 809.055,2096.46 L 651.575,2096.46 z " style="fill-opacity:1.000000;fill:rgb(74,236,41);stroke:rgb(0,0,0);stroke-width:2"/></g>
<g fill-rule="evenodd"><path d="M 1072.83,1889.84 L 1072.83,1318.82 L 1074.38,1313.54 L 1078.54,1309.94 L 1082.6,1309.06 L 1383.86,1309.06 L 1383.86,1287.4 L 1549.21,1287.4 L 1549.21,1309.06 L 2131.89,1309.06 L 2131.89,1287.4 L 2297.24,1287.4 L 2297.24,1309.06 L 2755.98,1309.06 L 2761.26,1310.61 L 2764.86,1314.76 L 2765.75,1318.82 L 2765.75,1889.84 L 2764.2,1895.12 L 2760.04,1898.72 L 2755.98,1899.61 L 1082.6,1899.61 L 1077.32,1898.06 L 1073.72,1893.9 L 1072.83,1889.84 z " style="fill-opacity:1.000000;fill:rgb(205,186,171);stroke:rgb(0,0,0);stroke-width:2"/></g>
<g fill-rule="evenodd"><path d="M 1072.83,905.592 L 1072.83,98.3481 L 1074.38,93.0681 L 1078.54,89.4661 L 1082.6,88.5841 L 2322.91,88.5841 L 2328.19,90.1341 L 2331.79,94.2921 L 2332.68,98.3481 L 2332.68,905.592 L 2331.13,910.87 L 2326.97,914.472 L 2322.91,915.356 L 2297.24,915.356 L 2297.24,937.008 L 2131.89,937.008 L 2131.89,915.356 L 1549.21,915.356 L 1549.21,937.008 L 1383.86,937.008 L 1383.86,915.356 L 1082.6,915.356 L 1077.32,913.806 L 1073.72,909.648 L 1072.83,905.592 z " style="fill-opacity:1.000000;fill:rgb(242,251,227);stroke:rgb(0,0,0);stroke-width:2"/></g>
</svg>
