<?xml version="1.0" standalone="no"?>
<!DOCTYPE svg PUBLIC "-//W3C//DTD SVG 1.1//EN"
"http://www.w3.org/Graphics/SVG/1.1/DTD/svg11.dtd">
<svg width="137.008" height="137.008" viewBox="0 0 2854.33 2854.33" version="1.1"
xmlns="http://www.w3.org/2000/svg"
xmlns:xlink="http://www.w3.org/1999/xlink">
<polyline points="33.4646,2789.37 34.0706,2795.52 35.8626,2801.42 38.7726,2806.87 42.6906,2811.64 47.4626,2815.56 52.9066,2818.47 58.8146,2820.26 64.9606,2820.87 2789.37,2820.87 2795.51,2820.26 2801.42,2818.47 2806.87,2815.56 2811.64,2811.64 2815.56,2806.87 2818.47,2801.42 2820.26,2795.52 2820.86,2789.37 2820.86,64.9621 2820.26,58.8181 2818.47,52.9101 2815.56,47.4641 2811.64,42.6921 2806.87,38.7741 2801.42,35.8641 2795.51,34.0721 2789.37,33.4661 64.9606,33.4661 58.8146,34.0721 52.9066,35.8641 47.4626,38.7741 42.6906,42.6921 38.7726,47.4641 35.8626,52.9101 34.0706,58.8181 33.4646,64.9621 33.4646,2789.37" style="stroke:rgb(103,198,105);stroke-width:62.992126;fill:none;stroke-opacity:0.5;stroke-linecap:round;stroke-linejoin:round;;fill:none"/>
<polyline points="33.4646,2789.37 34.0706,2795.52 35.8626,2801.42 38.7726,2806.87 42.6906,2811.64 47.4626,2815.56 52.9066,2818.47 58.8146,2820.26 64.9606,2820.87 2789.37,2820.87 2795.51,2820.26 2801.42,2818.47 2806.87,2815.56 2811.64,2811.64 2815.56,2806.87 2818.47,2801.42 2820.26,2795.52 2820.86,2789.37 2820.86,64.9621 2820.26,58.8181 2818.47,52.9101 2815.56,47.4641 2811.64,42.6921 2806.87,38.7741 2801.42,35.8641 2795.51,34.0721 2789.37,33.4661 64.9606,33.4661 58.8146,34.0721 52.9066,35.8641 47.4626,38.7741 42.6906,42.6921 38.7726,47.4641 35.8626,52.9101 34.0706,58.8181 33.4646,64.9621 33.4646,2789.37" style="stroke:rgb(0,0,0);stroke-width:1px;fill:none;stroke-opacity:1;stroke-linecap:round;stroke-linejoin:round;;fill:none"/>
</svg>
