%TF.GenerationSoftware,KiCad,Pcbnew,7.0.5*%
%TF.CreationDate,2023-08-20T17:21:51-04:00*%
%TF.ProjectId,RPi_Pico_W_A4988_control_board,5250695f-5069-4636-9f5f-575f41343938,rev?*%
%TF.SameCoordinates,Original*%
%TF.FileFunction,Drillmap*%
%TF.FilePolarity,Positive*%
%FSLAX45Y45*%
G04 Gerber Fmt 4.5, Leading zero omitted, Abs format (unit mm)*
G04 Created by KiCad (PCBNEW 7.0.5) date 2023-08-20 17:21:51*
%MOMM*%
%LPD*%
G01*
G04 APERTURE LIST*
%ADD10C,0.100000*%
%ADD11C,0.200000*%
G04 APERTURE END LIST*
D10*
X10150000Y-2800000D02*
X19175000Y-2800000D01*
X19175000Y-12600000D01*
X10150000Y-12600000D01*
X10150000Y-2800000D01*
D11*
X10405777Y-12916484D02*
X10405777Y-12716484D01*
X10405777Y-12716484D02*
X10453396Y-12716484D01*
X10453396Y-12716484D02*
X10481967Y-12726008D01*
X10481967Y-12726008D02*
X10501015Y-12745055D01*
X10501015Y-12745055D02*
X10510539Y-12764103D01*
X10510539Y-12764103D02*
X10520063Y-12802198D01*
X10520063Y-12802198D02*
X10520063Y-12830769D01*
X10520063Y-12830769D02*
X10510539Y-12868865D01*
X10510539Y-12868865D02*
X10501015Y-12887912D01*
X10501015Y-12887912D02*
X10481967Y-12906960D01*
X10481967Y-12906960D02*
X10453396Y-12916484D01*
X10453396Y-12916484D02*
X10405777Y-12916484D01*
X10605777Y-12916484D02*
X10605777Y-12783150D01*
X10605777Y-12821246D02*
X10615301Y-12802198D01*
X10615301Y-12802198D02*
X10624824Y-12792674D01*
X10624824Y-12792674D02*
X10643872Y-12783150D01*
X10643872Y-12783150D02*
X10662920Y-12783150D01*
X10729586Y-12916484D02*
X10729586Y-12783150D01*
X10729586Y-12716484D02*
X10720063Y-12726008D01*
X10720063Y-12726008D02*
X10729586Y-12735531D01*
X10729586Y-12735531D02*
X10739110Y-12726008D01*
X10739110Y-12726008D02*
X10729586Y-12716484D01*
X10729586Y-12716484D02*
X10729586Y-12735531D01*
X10853396Y-12916484D02*
X10834348Y-12906960D01*
X10834348Y-12906960D02*
X10824824Y-12887912D01*
X10824824Y-12887912D02*
X10824824Y-12716484D01*
X10958158Y-12916484D02*
X10939110Y-12906960D01*
X10939110Y-12906960D02*
X10929586Y-12887912D01*
X10929586Y-12887912D02*
X10929586Y-12716484D01*
X11186729Y-12916484D02*
X11186729Y-12716484D01*
X11186729Y-12716484D02*
X11253396Y-12859341D01*
X11253396Y-12859341D02*
X11320062Y-12716484D01*
X11320062Y-12716484D02*
X11320062Y-12916484D01*
X11501015Y-12916484D02*
X11501015Y-12811722D01*
X11501015Y-12811722D02*
X11491491Y-12792674D01*
X11491491Y-12792674D02*
X11472443Y-12783150D01*
X11472443Y-12783150D02*
X11434348Y-12783150D01*
X11434348Y-12783150D02*
X11415301Y-12792674D01*
X11501015Y-12906960D02*
X11481967Y-12916484D01*
X11481967Y-12916484D02*
X11434348Y-12916484D01*
X11434348Y-12916484D02*
X11415301Y-12906960D01*
X11415301Y-12906960D02*
X11405777Y-12887912D01*
X11405777Y-12887912D02*
X11405777Y-12868865D01*
X11405777Y-12868865D02*
X11415301Y-12849817D01*
X11415301Y-12849817D02*
X11434348Y-12840293D01*
X11434348Y-12840293D02*
X11481967Y-12840293D01*
X11481967Y-12840293D02*
X11501015Y-12830769D01*
X11596253Y-12783150D02*
X11596253Y-12983150D01*
X11596253Y-12792674D02*
X11615301Y-12783150D01*
X11615301Y-12783150D02*
X11653396Y-12783150D01*
X11653396Y-12783150D02*
X11672443Y-12792674D01*
X11672443Y-12792674D02*
X11681967Y-12802198D01*
X11681967Y-12802198D02*
X11691491Y-12821246D01*
X11691491Y-12821246D02*
X11691491Y-12878388D01*
X11691491Y-12878388D02*
X11681967Y-12897436D01*
X11681967Y-12897436D02*
X11672443Y-12906960D01*
X11672443Y-12906960D02*
X11653396Y-12916484D01*
X11653396Y-12916484D02*
X11615301Y-12916484D01*
X11615301Y-12916484D02*
X11596253Y-12906960D01*
X11777205Y-12897436D02*
X11786729Y-12906960D01*
X11786729Y-12906960D02*
X11777205Y-12916484D01*
X11777205Y-12916484D02*
X11767682Y-12906960D01*
X11767682Y-12906960D02*
X11777205Y-12897436D01*
X11777205Y-12897436D02*
X11777205Y-12916484D01*
X11777205Y-12792674D02*
X11786729Y-12802198D01*
X11786729Y-12802198D02*
X11777205Y-12811722D01*
X11777205Y-12811722D02*
X11767682Y-12802198D01*
X11767682Y-12802198D02*
X11777205Y-12792674D01*
X11777205Y-12792674D02*
X11777205Y-12811722D01*
M02*
