M48
; DRILL file {KiCad 7.0.5} date Tue Jul 11 15:31:01 2023
; FORMAT={-:-/ absolute / inch / decimal}
; #@! TF.CreationDate,2023-07-11T15:31:01-04:00
; #@! TF.GenerationSoftware,Kicad,Pcbnew,7.0.5
; #@! TF.FileFunction,Plated,1,2,PTH
FMAT,2
INCH
; #@! TA.AperFunction,Plated,PTH,ViaDrill
T1C0.0150
; #@! TA.AperFunction,Plated,PTH,ComponentDrill
T2C0.0315
; #@! TA.AperFunction,Plated,PTH,ComponentDrill
T3C0.0394
; #@! TA.AperFunction,Plated,PTH,ComponentDrill
T4C0.0866
%
G90
G05
T1
X5.0394Y-3.3465
X5.0394Y-3.4055
X5.0394Y-3.4646
X5.1181Y-3.3465
X5.1181Y-3.4055
X5.1181Y-3.4646
X5.1772Y-2.4705
X5.1969Y-3.3465
X5.1969Y-3.4055
X5.1969Y-3.4646
X5.2165Y-2.7559
X5.2165Y-2.8543
X5.2165Y-2.9528
X5.2165Y-3.0512
X5.237Y-3.2465
X5.2756Y-3.3465
X5.2756Y-3.4055
X5.2756Y-3.4646
X5.3366Y-2.6909
X5.3543Y-3.3465
X5.4134Y-2.8543
X5.4921Y-2.8543
X5.4921Y-2.9331
X5.5792Y-2.4719
X5.6339Y-2.5354
X5.7992Y-2.8811
X5.9055Y-2.9134
X5.9055Y-3.0709
X5.9055Y-3.1496
X5.9055Y-3.2283
X5.9055Y-3.3071
X5.9843Y-2.9134
X5.9843Y-2.9921
X5.9843Y-3.1496
X5.9843Y-3.2283
X5.9843Y-3.3071
X6.0433Y-2.5236
X6.1417Y-2.6772
X6.1417Y-2.7559
X6.1417Y-2.8346
X6.1417Y-2.9134
X6.1417Y-2.9921
X6.1417Y-3.0709
X6.1417Y-3.2283
X6.3622Y-3.1732
X6.378Y-2.5
X6.378Y-2.5787
X6.4567Y-2.5
X6.4567Y-2.5787
T2
X5.7402Y-2.5283
X5.7402Y-2.6283
X5.7402Y-2.7283
X5.7402Y-2.8283
X5.7402Y-2.9283
X5.7402Y-3.0283
X5.7402Y-3.1283
X5.7402Y-3.2283
X6.2402Y-2.5283
X6.2402Y-2.6283
X6.2402Y-2.7283
X6.2402Y-2.8283
X6.2402Y-2.9283
X6.2402Y-3.0283
X6.2402Y-3.1283
X6.2402Y-3.2283
T3
X5.1638Y-2.3583
X5.2638Y-2.3583
X5.3543Y-3.4449
X5.4071Y-2.3583
X5.4543Y-3.4449
X5.5071Y-2.3583
X5.5543Y-3.4449
X5.6543Y-3.4449
X5.7189Y-2.3583
X5.7543Y-3.4449
X5.8189Y-2.3583
X5.8543Y-3.4449
X5.9189Y-2.3583
X5.9543Y-3.4449
X6.0543Y-3.4449
X6.4169Y-2.7283
X6.4169Y-2.8283
X6.4169Y-2.9283
X6.4169Y-3.0283
T4
X4.9114Y-2.3819
X4.9114Y-3.4252
X6.3976Y-2.3819
X6.3976Y-3.4252
T0
M30
