%TF.GenerationSoftware,KiCad,Pcbnew,7.0.5*%
%TF.CreationDate,2023-07-11T15:30:59-04:00*%
%TF.ProjectId,StepperMotor_module_V2_XIAO_RP2040,53746570-7065-4724-9d6f-746f725f6d6f,rev?*%
%TF.SameCoordinates,Original*%
%TF.FileFunction,Copper,L1,Top*%
%TF.FilePolarity,Positive*%
%FSLAX46Y46*%
G04 Gerber Fmt 4.6, Leading zero omitted, Abs format (unit mm)*
G04 Created by KiCad (PCBNEW 7.0.5) date 2023-07-11 15:30:59*
%MOMM*%
%LPD*%
G01*
G04 APERTURE LIST*
G04 Aperture macros list*
%AMRoundRect*
0 Rectangle with rounded corners*
0 $1 Rounding radius*
0 $2 $3 $4 $5 $6 $7 $8 $9 X,Y pos of 4 corners*
0 Add a 4 corners polygon primitive as box body*
4,1,4,$2,$3,$4,$5,$6,$7,$8,$9,$2,$3,0*
0 Add four circle primitives for the rounded corners*
1,1,$1+$1,$2,$3*
1,1,$1+$1,$4,$5*
1,1,$1+$1,$6,$7*
1,1,$1+$1,$8,$9*
0 Add four rect primitives between the rounded corners*
20,1,$1+$1,$2,$3,$4,$5,0*
20,1,$1+$1,$4,$5,$6,$7,0*
20,1,$1+$1,$6,$7,$8,$9,0*
20,1,$1+$1,$8,$9,$2,$3,0*%
G04 Aperture macros list end*
%TA.AperFunction,ComponentPad*%
%ADD10R,1.700000X1.700000*%
%TD*%
%TA.AperFunction,ComponentPad*%
%ADD11O,1.700000X1.700000*%
%TD*%
%TA.AperFunction,SMDPad,CuDef*%
%ADD12RoundRect,0.237500X0.250000X0.237500X-0.250000X0.237500X-0.250000X-0.237500X0.250000X-0.237500X0*%
%TD*%
%TA.AperFunction,SMDPad,CuDef*%
%ADD13RoundRect,1.000000X0.000000X-0.375000X0.000000X0.375000X0.000000X0.375000X0.000000X-0.375000X0*%
%TD*%
%TA.AperFunction,SMDPad,CuDef*%
%ADD14RoundRect,0.237500X-0.250000X-0.237500X0.250000X-0.237500X0.250000X0.237500X-0.250000X0.237500X0*%
%TD*%
%TA.AperFunction,ComponentPad*%
%ADD15C,3.500000*%
%TD*%
%TA.AperFunction,SMDPad,CuDef*%
%ADD16RoundRect,0.218750X0.256250X-0.218750X0.256250X0.218750X-0.256250X0.218750X-0.256250X-0.218750X0*%
%TD*%
%TA.AperFunction,ComponentPad*%
%ADD17R,1.600000X1.600000*%
%TD*%
%TA.AperFunction,ComponentPad*%
%ADD18O,1.600000X1.600000*%
%TD*%
%TA.AperFunction,SMDPad,CuDef*%
%ADD19RoundRect,0.237500X-0.287500X-0.237500X0.287500X-0.237500X0.287500X0.237500X-0.287500X0.237500X0*%
%TD*%
%TA.AperFunction,SMDPad,CuDef*%
%ADD20RoundRect,0.200000X0.200000X0.275000X-0.200000X0.275000X-0.200000X-0.275000X0.200000X-0.275000X0*%
%TD*%
%TA.AperFunction,SMDPad,CuDef*%
%ADD21RoundRect,0.200000X0.275000X-0.200000X0.275000X0.200000X-0.275000X0.200000X-0.275000X-0.200000X0*%
%TD*%
%TA.AperFunction,SMDPad,CuDef*%
%ADD22RoundRect,0.218750X0.218750X0.256250X-0.218750X0.256250X-0.218750X-0.256250X0.218750X-0.256250X0*%
%TD*%
%TA.AperFunction,SMDPad,CuDef*%
%ADD23RoundRect,0.237500X0.300000X0.237500X-0.300000X0.237500X-0.300000X-0.237500X0.300000X-0.237500X0*%
%TD*%
%TA.AperFunction,ViaPad*%
%ADD24C,0.762000*%
%TD*%
%TA.AperFunction,Conductor*%
%ADD25C,0.254000*%
%TD*%
%TA.AperFunction,Conductor*%
%ADD26C,1.778000*%
%TD*%
%TA.AperFunction,Conductor*%
%ADD27C,0.508000*%
%TD*%
G04 APERTURE END LIST*
D10*
%TO.P,J1,1,Pin_1*%
%TO.N,VPP*%
X153780000Y-87500000D03*
D11*
%TO.P,J1,2,Pin_2*%
X151240000Y-87500000D03*
%TO.P,J1,3,Pin_3*%
%TO.N,GPIO*%
X148700000Y-87500000D03*
%TO.P,J1,4,Pin_4*%
%TO.N,SCL*%
X146160000Y-87500000D03*
%TO.P,J1,5,Pin_5*%
%TO.N,SDA*%
X143620000Y-87500000D03*
%TO.P,J1,6,Pin_6*%
%TO.N,GND*%
X141080000Y-87500000D03*
%TO.P,J1,7,Pin_7*%
X138540000Y-87500000D03*
%TO.P,J1,8,Pin_8*%
X136000000Y-87500000D03*
%TD*%
D12*
%TO.P,R11,1*%
%TO.N,+3V3*%
X141712500Y-62750000D03*
%TO.P,R11,2*%
%TO.N,Net-(J6-Pin_1)*%
X139887500Y-62750000D03*
%TD*%
D10*
%TO.P,J3,1,Pin_1*%
%TO.N,PWM_S*%
X145260000Y-59900000D03*
D11*
%TO.P,J3,2,Pin_2*%
%TO.N,VCC*%
X147800000Y-59900000D03*
%TO.P,J3,3,Pin_3*%
%TO.N,GND*%
X150340000Y-59900000D03*
%TD*%
D13*
%TO.P,U1,1,PA02_A0_D0*%
%TO.N,STEP*%
X125399250Y-82460500D03*
%TO.P,U1,2,PA4_A1_D1*%
%TO.N,DIR*%
X127939250Y-82460500D03*
%TO.P,U1,3,PA10_A2_D2*%
%TO.N,unconnected-(U1-PA10_A2_D2-Pad3)*%
X130479250Y-82460500D03*
%TO.P,U1,4,PA11_A3_D3*%
%TO.N,PWM_S*%
X133019250Y-82460500D03*
%TO.P,U1,5,PA8_A4_D4_SDA*%
%TO.N,SDA*%
X135559250Y-82460500D03*
%TO.P,U1,6,PA9_A5_D5_SCL*%
%TO.N,SCL*%
X138099250Y-82460500D03*
%TO.P,U1,7,PB08_A6_D6_TX*%
%TO.N,GPIO*%
X140639250Y-82460500D03*
%TO.P,U1,8,PB09_A7_D7_RX*%
%TO.N,MS1*%
X140639250Y-65660500D03*
%TO.P,U1,9,PA7_A8_D8_SCK*%
%TO.N,MS2*%
X138099250Y-65660500D03*
%TO.P,U1,10,PA5_A9_D9_MISO*%
%TO.N,MS3*%
X135559250Y-65660500D03*
%TO.P,U1,11,PA6_A10_D10_MOSI*%
%TO.N,LIMIT_SW_0*%
X133019250Y-65660500D03*
%TO.P,U1,12,3V3*%
%TO.N,+3V3*%
X130479250Y-65660500D03*
%TO.P,U1,13,GND*%
%TO.N,GND*%
X127939250Y-65660500D03*
%TO.P,U1,14,5V*%
%TO.N,Net-(D2-K)*%
X125399250Y-65660500D03*
%TD*%
D14*
%TO.P,R1,1*%
%TO.N,/A4988_Module/M_EN*%
X149487500Y-64200000D03*
%TO.P,R1,2*%
%TO.N,GND*%
X151312500Y-64200000D03*
%TD*%
D15*
%TO.P,H3,1,1*%
%TO.N,GND*%
X162500000Y-87000000D03*
%TD*%
D14*
%TO.P,R12,1*%
%TO.N,LIMIT_SW_0*%
X136504166Y-62750000D03*
%TO.P,R12,2*%
%TO.N,Net-(J6-Pin_1)*%
X138329166Y-62750000D03*
%TD*%
D10*
%TO.P,J7,1,Pin_1*%
%TO.N,Net-(J6-Pin_1)*%
X137340000Y-59900000D03*
D11*
%TO.P,J7,2,Pin_2*%
%TO.N,GND*%
X139880000Y-59900000D03*
%TD*%
D14*
%TO.P,R4,1*%
%TO.N,MS3*%
X149487500Y-71850000D03*
%TO.P,R4,2*%
%TO.N,GND*%
X151312500Y-71850000D03*
%TD*%
D16*
%TO.P,D1,1,K*%
%TO.N,Net-(D1-K)*%
X161566667Y-82187500D03*
%TO.P,D1,2,A*%
%TO.N,VCC*%
X161566667Y-80612500D03*
%TD*%
D17*
%TO.P,A1,1,GND*%
%TO.N,GND*%
X158500000Y-82000000D03*
D18*
%TO.P,A1,2,VDD*%
%TO.N,+3V3*%
X158500000Y-79460000D03*
%TO.P,A1,3,1B*%
%TO.N,1B*%
X158500000Y-76920000D03*
%TO.P,A1,4,1A*%
%TO.N,1A*%
X158500000Y-74380000D03*
%TO.P,A1,5,2A*%
%TO.N,2A*%
X158500000Y-71840000D03*
%TO.P,A1,6,2B*%
%TO.N,2B*%
X158500000Y-69300000D03*
%TO.P,A1,7,GND*%
%TO.N,GND*%
X158500000Y-66760000D03*
%TO.P,A1,8,VMOT*%
%TO.N,VPP*%
X158500000Y-64220000D03*
%TO.P,A1,9,~{ENABLE}*%
%TO.N,/A4988_Module/M_EN*%
X145800000Y-64220000D03*
%TO.P,A1,10,MS1*%
%TO.N,MS1*%
X145800000Y-66760000D03*
%TO.P,A1,11,MS2*%
%TO.N,MS2*%
X145800000Y-69300000D03*
%TO.P,A1,12,MS3*%
%TO.N,MS3*%
X145800000Y-71840000D03*
%TO.P,A1,13,~{RESET}*%
%TO.N,Net-(A1-~{RESET})*%
X145800000Y-74380000D03*
%TO.P,A1,14,~{SLEEP}*%
X145800000Y-76920000D03*
%TO.P,A1,15,STEP*%
%TO.N,STEP*%
X145800000Y-79460000D03*
%TO.P,A1,16,DIR*%
%TO.N,DIR*%
X145800000Y-82000000D03*
%TD*%
D19*
%TO.P,D2,1,K*%
%TO.N,Net-(D2-K)*%
X129775000Y-62750000D03*
%TO.P,D2,2,A*%
%TO.N,VCC*%
X131525000Y-62750000D03*
%TD*%
D10*
%TO.P,J6,1,Pin_1*%
%TO.N,Net-(J6-Pin_1)*%
X133700000Y-59900000D03*
D11*
%TO.P,J6,2,Pin_2*%
%TO.N,GND*%
X131160000Y-59900000D03*
%TD*%
D20*
%TO.P,R10,1*%
%TO.N,Net-(D4-K)*%
X157965000Y-85916666D03*
%TO.P,R10,2*%
%TO.N,GND*%
X156315000Y-85916666D03*
%TD*%
D21*
%TO.P,R8,1*%
%TO.N,Net-(D1-K)*%
X163150000Y-82265000D03*
%TO.P,R8,2*%
%TO.N,GND*%
X163150000Y-80615000D03*
%TD*%
D22*
%TO.P,D4,1,K*%
%TO.N,Net-(D4-K)*%
X157887500Y-87500000D03*
%TO.P,D4,2,A*%
%TO.N,VPP*%
X156312500Y-87500000D03*
%TD*%
D15*
%TO.P,H2,1,1*%
%TO.N,GND*%
X124750000Y-60500000D03*
%TD*%
D23*
%TO.P,C2,1*%
%TO.N,LIMIT_SW_0*%
X134895833Y-62750000D03*
%TO.P,C2,2*%
%TO.N,GND*%
X133170833Y-62750000D03*
%TD*%
D15*
%TO.P,H4,1,1*%
%TO.N,GND*%
X162500000Y-60500000D03*
%TD*%
%TO.P,H1,1,1*%
%TO.N,GND*%
X124750000Y-87000000D03*
%TD*%
D14*
%TO.P,R3,1*%
%TO.N,MS2*%
X149487500Y-69300000D03*
%TO.P,R3,2*%
%TO.N,GND*%
X151312500Y-69300000D03*
%TD*%
D10*
%TO.P,J4,1,Pin_1*%
%TO.N,1B*%
X162990000Y-76920000D03*
D11*
%TO.P,J4,2,Pin_2*%
%TO.N,1A*%
X162990000Y-74380000D03*
%TO.P,J4,3,Pin_3*%
%TO.N,2A*%
X162990000Y-71840000D03*
%TO.P,J4,4,Pin_4*%
%TO.N,2B*%
X162990000Y-69300000D03*
%TD*%
D14*
%TO.P,R2,1*%
%TO.N,MS1*%
X149487500Y-66750000D03*
%TO.P,R2,2*%
%TO.N,GND*%
X151312500Y-66750000D03*
%TD*%
D24*
%TO.N,GND*%
X139500000Y-74500000D03*
X139500000Y-72500000D03*
X136000000Y-85000000D03*
X132000000Y-88000000D03*
X134000000Y-88000000D03*
X134000000Y-86500000D03*
X132000000Y-86500000D03*
%TO.N,VCC*%
X161600000Y-80600000D03*
%TO.N,GND*%
X156000000Y-78000000D03*
X128000000Y-86500000D03*
X130000000Y-85000000D03*
X132500000Y-75000000D03*
X152000000Y-84000000D03*
X150000000Y-78000000D03*
X128000000Y-85000000D03*
X134000000Y-85000000D03*
X128000000Y-88000000D03*
X156000000Y-82000000D03*
X164000000Y-65500000D03*
X137500000Y-72500000D03*
X130000000Y-88000000D03*
X156000000Y-72000000D03*
X132500000Y-72500000D03*
X152000000Y-76000000D03*
X152000000Y-80000000D03*
X132000000Y-85000000D03*
X152000000Y-82000000D03*
X150000000Y-80000000D03*
X130000000Y-86500000D03*
X162000000Y-63500000D03*
X156000000Y-68000000D03*
X162000000Y-65500000D03*
X132500000Y-70000000D03*
X150000000Y-84000000D03*
X156000000Y-70000000D03*
X153500000Y-64100000D03*
X164000000Y-63500000D03*
X152000000Y-74000000D03*
X150000000Y-82000000D03*
X150000000Y-74000000D03*
X156000000Y-76000000D03*
X132500000Y-77500000D03*
X156000000Y-74000000D03*
%TO.N,+3V3*%
X147300000Y-73180000D03*
X141712500Y-62786900D03*
X135550000Y-68350000D03*
%TO.N,PWM_S*%
X143100000Y-64400000D03*
X133019250Y-82460500D03*
%TO.N,VCC*%
X131500000Y-62750000D03*
%TD*%
D25*
%TO.N,GPIO*%
X145637200Y-84437200D02*
X148700000Y-87500000D01*
X142615950Y-84437200D02*
X145637200Y-84437200D01*
X140639250Y-82460500D02*
X142615950Y-84437200D01*
%TO.N,SCL*%
X143503600Y-84843600D02*
X146160000Y-87500000D01*
X140482350Y-84843600D02*
X143503600Y-84843600D01*
X138099250Y-82460500D02*
X140482350Y-84843600D01*
%TO.N,SDA*%
X138348750Y-85250000D02*
X141370000Y-85250000D01*
X135559250Y-82460500D02*
X138348750Y-85250000D01*
X141370000Y-85250000D02*
X143620000Y-87500000D01*
%TO.N,Net-(D1-K)*%
X163072500Y-82187500D02*
X163150000Y-82265000D01*
X161566667Y-82187500D02*
X163072500Y-82187500D01*
%TO.N,VPP*%
X156312500Y-87500000D02*
X153775000Y-87500000D01*
%TO.N,LIMIT_SW_0*%
X133019250Y-65660500D02*
X133019250Y-64626583D01*
X133019250Y-64626583D02*
X134895833Y-62750000D01*
X134895833Y-62750000D02*
X136504166Y-62750000D01*
%TO.N,Net-(D4-K)*%
X157887500Y-85994166D02*
X157965000Y-85916666D01*
X157887500Y-87500000D02*
X157887500Y-85994166D01*
%TO.N,/A4988_Module/M_EN*%
X145800000Y-64220000D02*
X149467500Y-64220000D01*
X149467500Y-64220000D02*
X149487500Y-64200000D01*
%TO.N,MS1*%
X145800000Y-66760000D02*
X149477500Y-66760000D01*
X145800000Y-66760000D02*
X141738750Y-66760000D01*
X141738750Y-66760000D02*
X140639250Y-65660500D01*
X149477500Y-66760000D02*
X149487500Y-66750000D01*
%TO.N,MS2*%
X138099250Y-65660500D02*
X138099250Y-67449250D01*
X139950000Y-69300000D02*
X145800000Y-69300000D01*
X138099250Y-67449250D02*
X139950000Y-69300000D01*
X145800000Y-69300000D02*
X149487500Y-69300000D01*
%TO.N,MS3*%
X135559250Y-65660500D02*
X139798750Y-69900000D01*
X139798750Y-69900000D02*
X143860000Y-69900000D01*
X143860000Y-69900000D02*
X145800000Y-71840000D01*
X149477500Y-71840000D02*
X149487500Y-71850000D01*
X145800000Y-71840000D02*
X149477500Y-71840000D01*
%TO.N,STEP*%
X145800000Y-79460000D02*
X143630000Y-79460000D01*
X125399250Y-82460500D02*
X127709750Y-80150000D01*
X142940000Y-80150000D02*
X140700000Y-80150000D01*
X127709750Y-80150000D02*
X140700000Y-80150000D01*
X143630000Y-79460000D02*
X142940000Y-80150000D01*
%TO.N,DIR*%
X144450000Y-80650000D02*
X145800000Y-82000000D01*
X127939250Y-82460500D02*
X129749750Y-80650000D01*
X129749750Y-80650000D02*
X144450000Y-80650000D01*
D26*
%TO.N,1B*%
X158500000Y-76920000D02*
X162990000Y-76920000D01*
%TO.N,1A*%
X158500000Y-74380000D02*
X162990000Y-74380000D01*
D25*
%TO.N,+3V3*%
X153580000Y-79460000D02*
X158500000Y-79460000D01*
X147300000Y-73180000D02*
X153580000Y-79460000D01*
X130479250Y-65660500D02*
X133168750Y-68350000D01*
X133168750Y-68350000D02*
X135550000Y-68350000D01*
D26*
%TO.N,2A*%
X158500000Y-71840000D02*
X162990000Y-71840000D01*
%TO.N,2B*%
X158500000Y-69300000D02*
X162990000Y-69300000D01*
D25*
%TO.N,Net-(J6-Pin_1)*%
X133700000Y-59900000D02*
X137340000Y-59900000D01*
X137340000Y-61760834D02*
X138329166Y-62750000D01*
X137340000Y-59900000D02*
X137340000Y-61760834D01*
X138329166Y-62750000D02*
X139887500Y-62750000D01*
%TO.N,PWM_S*%
X145260000Y-62240000D02*
X143100000Y-64400000D01*
X145260000Y-59900000D02*
X145260000Y-62240000D01*
D27*
%TO.N,Net-(D2-K)*%
X128309750Y-62750000D02*
X125399250Y-65660500D01*
X129775000Y-62750000D02*
X128309750Y-62750000D01*
D25*
%TO.N,Net-(A1-~{RESET})*%
X145800000Y-74380000D02*
X145800000Y-76920000D01*
%TD*%
%TA.AperFunction,Conductor*%
%TO.N,GND*%
G36*
X164714101Y-58275065D02*
G01*
X164744165Y-58327136D01*
X164745500Y-58342400D01*
X164745500Y-89157600D01*
X164724935Y-89214101D01*
X164672864Y-89244165D01*
X164657600Y-89245500D01*
X122342400Y-89245500D01*
X122285899Y-89224935D01*
X122255835Y-89172864D01*
X122254500Y-89157600D01*
X122254500Y-86999999D01*
X122740881Y-86999999D01*
X122761331Y-87285933D01*
X122822262Y-87566027D01*
X122822264Y-87566035D01*
X122922440Y-87834616D01*
X123059821Y-88086210D01*
X123059826Y-88086217D01*
X123164604Y-88226184D01*
X123811857Y-87578930D01*
X123914894Y-87723624D01*
X124066932Y-87868592D01*
X124172665Y-87936542D01*
X123523814Y-88585394D01*
X123663782Y-88690173D01*
X123663789Y-88690178D01*
X123915383Y-88827559D01*
X124183964Y-88927735D01*
X124183972Y-88927737D01*
X124464066Y-88988668D01*
X124749999Y-89009118D01*
X125035933Y-88988668D01*
X125316027Y-88927737D01*
X125316035Y-88927735D01*
X125584616Y-88827559D01*
X125836210Y-88690178D01*
X125836219Y-88690172D01*
X125976184Y-88585395D01*
X125976184Y-88585394D01*
X125329573Y-87938784D01*
X125347410Y-87929589D01*
X125512540Y-87799729D01*
X125650110Y-87640965D01*
X125686736Y-87577525D01*
X126335394Y-88226184D01*
X126335395Y-88226184D01*
X126440172Y-88086219D01*
X126440178Y-88086210D01*
X126577559Y-87834616D01*
X126677735Y-87566035D01*
X126677737Y-87566027D01*
X126738668Y-87285933D01*
X126741524Y-87245999D01*
X134924450Y-87245999D01*
X134924451Y-87246000D01*
X135568884Y-87246000D01*
X135540507Y-87290156D01*
X135500000Y-87428111D01*
X135500000Y-87571889D01*
X135540507Y-87709844D01*
X135568884Y-87754000D01*
X134924451Y-87754000D01*
X134966139Y-87900515D01*
X134966140Y-87900518D01*
X135057341Y-88083674D01*
X135180632Y-88246938D01*
X135180640Y-88246947D01*
X135331839Y-88384785D01*
X135331841Y-88384786D01*
X135505792Y-88492492D01*
X135505797Y-88492494D01*
X135696575Y-88566402D01*
X135696584Y-88566405D01*
X135746000Y-88575641D01*
X135746000Y-87933674D01*
X135857685Y-87984680D01*
X135964237Y-88000000D01*
X136035763Y-88000000D01*
X136142315Y-87984680D01*
X136254000Y-87933674D01*
X136254000Y-88575640D01*
X136303415Y-88566405D01*
X136303424Y-88566402D01*
X136494202Y-88492494D01*
X136494207Y-88492492D01*
X136668158Y-88384786D01*
X136668160Y-88384785D01*
X136819359Y-88246947D01*
X136819367Y-88246938D01*
X136942658Y-88083674D01*
X137033859Y-87900518D01*
X137033860Y-87900515D01*
X137075549Y-87754000D01*
X136431116Y-87754000D01*
X136459493Y-87709844D01*
X136500000Y-87571889D01*
X136500000Y-87428111D01*
X136459493Y-87290156D01*
X136431116Y-87246000D01*
X137075549Y-87246000D01*
X137075549Y-87245999D01*
X137464450Y-87245999D01*
X137464451Y-87246000D01*
X138108884Y-87246000D01*
X138080507Y-87290156D01*
X138040000Y-87428111D01*
X138040000Y-87571889D01*
X138080507Y-87709844D01*
X138108884Y-87754000D01*
X137464451Y-87754000D01*
X137506139Y-87900515D01*
X137506140Y-87900518D01*
X137597341Y-88083674D01*
X137720632Y-88246938D01*
X137720640Y-88246947D01*
X137871839Y-88384785D01*
X137871841Y-88384786D01*
X138045792Y-88492492D01*
X138045797Y-88492494D01*
X138236575Y-88566402D01*
X138236584Y-88566405D01*
X138286000Y-88575641D01*
X138286000Y-87933674D01*
X138397685Y-87984680D01*
X138504237Y-88000000D01*
X138575763Y-88000000D01*
X138682315Y-87984680D01*
X138794000Y-87933674D01*
X138794000Y-88575641D01*
X138843415Y-88566405D01*
X138843424Y-88566402D01*
X139034202Y-88492494D01*
X139034207Y-88492492D01*
X139208158Y-88384786D01*
X139208160Y-88384785D01*
X139359359Y-88246947D01*
X139359367Y-88246938D01*
X139482658Y-88083674D01*
X139573859Y-87900518D01*
X139573860Y-87900515D01*
X139615549Y-87754000D01*
X138971116Y-87754000D01*
X138999493Y-87709844D01*
X139040000Y-87571889D01*
X139040000Y-87428111D01*
X138999493Y-87290156D01*
X138971116Y-87246000D01*
X139615549Y-87246000D01*
X139615549Y-87245999D01*
X140004450Y-87245999D01*
X140004451Y-87246000D01*
X140648884Y-87246000D01*
X140620507Y-87290156D01*
X140580000Y-87428111D01*
X140580000Y-87571889D01*
X140620507Y-87709844D01*
X140648884Y-87754000D01*
X140004451Y-87754000D01*
X140046139Y-87900515D01*
X140046140Y-87900518D01*
X140137341Y-88083674D01*
X140260632Y-88246938D01*
X140260640Y-88246947D01*
X140411839Y-88384785D01*
X140411841Y-88384786D01*
X140585792Y-88492492D01*
X140585797Y-88492494D01*
X140776575Y-88566402D01*
X140776584Y-88566405D01*
X140826000Y-88575641D01*
X140826000Y-87933674D01*
X140937685Y-87984680D01*
X141044237Y-88000000D01*
X141115763Y-88000000D01*
X141222315Y-87984680D01*
X141334000Y-87933674D01*
X141334000Y-88575641D01*
X141383415Y-88566405D01*
X141383424Y-88566402D01*
X141574202Y-88492494D01*
X141574207Y-88492492D01*
X141748158Y-88384786D01*
X141748160Y-88384785D01*
X141899359Y-88246947D01*
X141899367Y-88246938D01*
X142022658Y-88083674D01*
X142113859Y-87900518D01*
X142113860Y-87900515D01*
X142155549Y-87754000D01*
X141511116Y-87754000D01*
X141539493Y-87709844D01*
X141580000Y-87571889D01*
X141580000Y-87428111D01*
X141539493Y-87290156D01*
X141511116Y-87246000D01*
X142155549Y-87246000D01*
X142155549Y-87245999D01*
X142113860Y-87099484D01*
X142113859Y-87099481D01*
X142022658Y-86916325D01*
X141899367Y-86753061D01*
X141899359Y-86753052D01*
X141748160Y-86615214D01*
X141748158Y-86615213D01*
X141574207Y-86507507D01*
X141574202Y-86507505D01*
X141383418Y-86433595D01*
X141383410Y-86433592D01*
X141334000Y-86424356D01*
X141334000Y-87066325D01*
X141222315Y-87015320D01*
X141115763Y-87000000D01*
X141044237Y-87000000D01*
X140937685Y-87015320D01*
X140826000Y-87066325D01*
X140826000Y-86424356D01*
X140825999Y-86424356D01*
X140776589Y-86433592D01*
X140776581Y-86433595D01*
X140585797Y-86507505D01*
X140585792Y-86507507D01*
X140411841Y-86615213D01*
X140411839Y-86615214D01*
X140260640Y-86753052D01*
X140260632Y-86753061D01*
X140137341Y-86916325D01*
X140046140Y-87099481D01*
X140046139Y-87099484D01*
X140004450Y-87245999D01*
X139615549Y-87245999D01*
X139573860Y-87099484D01*
X139573859Y-87099481D01*
X139482658Y-86916325D01*
X139359367Y-86753061D01*
X139359359Y-86753052D01*
X139208160Y-86615214D01*
X139208158Y-86615213D01*
X139034207Y-86507507D01*
X139034202Y-86507505D01*
X138843418Y-86433595D01*
X138843410Y-86433592D01*
X138794000Y-86424356D01*
X138794000Y-87066325D01*
X138682315Y-87015320D01*
X138575763Y-87000000D01*
X138504237Y-87000000D01*
X138397685Y-87015320D01*
X138286000Y-87066325D01*
X138286000Y-86424356D01*
X138285999Y-86424356D01*
X138236589Y-86433592D01*
X138236581Y-86433595D01*
X138045797Y-86507505D01*
X138045792Y-86507507D01*
X137871841Y-86615213D01*
X137871839Y-86615214D01*
X137720640Y-86753052D01*
X137720632Y-86753061D01*
X137597341Y-86916325D01*
X137506140Y-87099481D01*
X137506139Y-87099484D01*
X137464450Y-87245999D01*
X137075549Y-87245999D01*
X137033860Y-87099484D01*
X137033859Y-87099481D01*
X136942658Y-86916325D01*
X136819367Y-86753061D01*
X136819359Y-86753052D01*
X136668160Y-86615214D01*
X136668158Y-86615213D01*
X136494207Y-86507507D01*
X136494202Y-86507505D01*
X136303418Y-86433595D01*
X136303410Y-86433592D01*
X136254000Y-86424356D01*
X136254000Y-87066325D01*
X136142315Y-87015320D01*
X136035763Y-87000000D01*
X135964237Y-87000000D01*
X135857685Y-87015320D01*
X135746000Y-87066325D01*
X135746000Y-86424356D01*
X135745999Y-86424356D01*
X135696589Y-86433592D01*
X135696581Y-86433595D01*
X135505797Y-86507505D01*
X135505792Y-86507507D01*
X135331841Y-86615213D01*
X135331839Y-86615214D01*
X135180640Y-86753052D01*
X135180632Y-86753061D01*
X135057341Y-86916325D01*
X134966140Y-87099481D01*
X134966139Y-87099484D01*
X134924450Y-87245999D01*
X126741524Y-87245999D01*
X126759118Y-86999999D01*
X126738668Y-86714066D01*
X126677737Y-86433972D01*
X126677735Y-86433964D01*
X126577559Y-86165383D01*
X126440178Y-85913789D01*
X126440173Y-85913782D01*
X126335394Y-85773814D01*
X125688140Y-86421067D01*
X125585106Y-86276376D01*
X125433068Y-86131408D01*
X125327332Y-86063455D01*
X125976184Y-85414604D01*
X125836217Y-85309826D01*
X125836210Y-85309821D01*
X125584616Y-85172440D01*
X125316035Y-85072264D01*
X125316027Y-85072262D01*
X125035933Y-85011331D01*
X124750000Y-84990881D01*
X124464066Y-85011331D01*
X124183972Y-85072262D01*
X124183964Y-85072264D01*
X123915383Y-85172440D01*
X123663789Y-85309821D01*
X123663782Y-85309826D01*
X123523814Y-85414603D01*
X124170426Y-86061215D01*
X124152590Y-86070411D01*
X123987460Y-86200271D01*
X123849890Y-86359035D01*
X123813263Y-86422474D01*
X123164603Y-85773814D01*
X123059826Y-85913782D01*
X123059821Y-85913789D01*
X122922440Y-86165383D01*
X122822264Y-86433964D01*
X122822262Y-86433972D01*
X122761331Y-86714066D01*
X122740881Y-86999999D01*
X122254500Y-86999999D01*
X122254500Y-82906654D01*
X124246350Y-82906654D01*
X124246351Y-82906671D01*
X124252513Y-82995461D01*
X124301431Y-83203444D01*
X124301434Y-83203455D01*
X124387736Y-83398911D01*
X124387737Y-83398913D01*
X124508480Y-83575176D01*
X124508482Y-83575178D01*
X124508485Y-83575182D01*
X124659568Y-83726265D01*
X124659571Y-83726267D01*
X124659573Y-83726269D01*
X124835836Y-83847012D01*
X124835838Y-83847013D01*
X124835839Y-83847013D01*
X124835840Y-83847014D01*
X125031299Y-83933317D01*
X125239287Y-83982236D01*
X125328093Y-83988400D01*
X125470406Y-83988399D01*
X125470422Y-83988398D01*
X125509750Y-83985668D01*
X125559213Y-83982236D01*
X125767201Y-83933317D01*
X125962660Y-83847014D01*
X126138932Y-83726265D01*
X126290015Y-83575182D01*
X126410764Y-83398910D01*
X126497067Y-83203451D01*
X126545986Y-82995463D01*
X126552150Y-82906657D01*
X126552149Y-82014344D01*
X126545986Y-81925537D01*
X126516077Y-81798376D01*
X126523159Y-81738671D01*
X126539484Y-81716102D01*
X126748813Y-81506773D01*
X126803305Y-81481364D01*
X126861383Y-81496927D01*
X126895871Y-81546180D01*
X126891377Y-81604434D01*
X126841433Y-81717549D01*
X126841431Y-81717555D01*
X126792513Y-81925538D01*
X126786350Y-82014341D01*
X126786350Y-82906654D01*
X126786351Y-82906671D01*
X126792513Y-82995461D01*
X126841431Y-83203444D01*
X126841434Y-83203455D01*
X126927736Y-83398911D01*
X126927737Y-83398913D01*
X127048480Y-83575176D01*
X127048482Y-83575178D01*
X127048485Y-83575182D01*
X127199568Y-83726265D01*
X127199571Y-83726267D01*
X127199573Y-83726269D01*
X127375836Y-83847012D01*
X127375838Y-83847013D01*
X127375839Y-83847013D01*
X127375840Y-83847014D01*
X127571299Y-83933317D01*
X127779287Y-83982236D01*
X127868093Y-83988400D01*
X128010406Y-83988399D01*
X128010422Y-83988398D01*
X128049750Y-83985668D01*
X128099213Y-83982236D01*
X128307201Y-83933317D01*
X128502660Y-83847014D01*
X128678932Y-83726265D01*
X128830015Y-83575182D01*
X128950764Y-83398910D01*
X129037067Y-83203451D01*
X129085986Y-82995463D01*
X129092150Y-82906657D01*
X129092149Y-82014344D01*
X129085986Y-81925537D01*
X129056077Y-81798376D01*
X129063159Y-81738671D01*
X129079484Y-81716102D01*
X129288813Y-81506773D01*
X129343305Y-81481364D01*
X129401383Y-81496927D01*
X129435871Y-81546180D01*
X129431377Y-81604434D01*
X129381433Y-81717549D01*
X129381431Y-81717555D01*
X129332513Y-81925538D01*
X129326350Y-82014341D01*
X129326350Y-82906654D01*
X129326351Y-82906671D01*
X129332513Y-82995461D01*
X129381431Y-83203444D01*
X129381434Y-83203455D01*
X129467736Y-83398911D01*
X129467737Y-83398913D01*
X129588480Y-83575176D01*
X129588482Y-83575178D01*
X129588485Y-83575182D01*
X129739568Y-83726265D01*
X129739571Y-83726267D01*
X129739573Y-83726269D01*
X129915836Y-83847012D01*
X129915838Y-83847013D01*
X129915839Y-83847013D01*
X129915840Y-83847014D01*
X130111299Y-83933317D01*
X130319287Y-83982236D01*
X130408093Y-83988400D01*
X130550406Y-83988399D01*
X130550422Y-83988398D01*
X130589750Y-83985668D01*
X130639213Y-83982236D01*
X130847201Y-83933317D01*
X131042660Y-83847014D01*
X131218932Y-83726265D01*
X131370015Y-83575182D01*
X131490764Y-83398910D01*
X131577067Y-83203451D01*
X131625986Y-82995463D01*
X131632150Y-82906657D01*
X131632149Y-82014344D01*
X131625986Y-81925537D01*
X131577067Y-81717549D01*
X131552584Y-81662101D01*
X131490763Y-81522088D01*
X131490762Y-81522086D01*
X131370019Y-81345823D01*
X131370017Y-81345821D01*
X131370015Y-81345818D01*
X131218932Y-81194735D01*
X131190095Y-81174981D01*
X131066501Y-81090317D01*
X131031510Y-81041421D01*
X131036135Y-80981472D01*
X131078213Y-80938521D01*
X131116177Y-80929900D01*
X132382323Y-80929900D01*
X132438824Y-80950465D01*
X132468888Y-81002536D01*
X132458447Y-81061750D01*
X132431999Y-81090317D01*
X132279571Y-81194732D01*
X132128480Y-81345823D01*
X132007737Y-81522086D01*
X132007736Y-81522088D01*
X131921434Y-81717544D01*
X131921431Y-81717555D01*
X131872513Y-81925538D01*
X131866350Y-82014341D01*
X131866350Y-82906654D01*
X131866351Y-82906671D01*
X131872513Y-82995461D01*
X131921431Y-83203444D01*
X131921434Y-83203455D01*
X132007736Y-83398911D01*
X132007737Y-83398913D01*
X132128480Y-83575176D01*
X132128482Y-83575178D01*
X132128485Y-83575182D01*
X132279568Y-83726265D01*
X132279571Y-83726267D01*
X132279573Y-83726269D01*
X132455836Y-83847012D01*
X132455838Y-83847013D01*
X132455839Y-83847013D01*
X132455840Y-83847014D01*
X132651299Y-83933317D01*
X132859287Y-83982236D01*
X132948093Y-83988400D01*
X133090406Y-83988399D01*
X133090422Y-83988398D01*
X133129750Y-83985668D01*
X133179213Y-83982236D01*
X133387201Y-83933317D01*
X133582660Y-83847014D01*
X133758932Y-83726265D01*
X133910015Y-83575182D01*
X134030764Y-83398910D01*
X134117067Y-83203451D01*
X134165986Y-82995463D01*
X134172150Y-82906657D01*
X134172149Y-82014344D01*
X134165986Y-81925537D01*
X134117067Y-81717549D01*
X134092584Y-81662101D01*
X134030763Y-81522088D01*
X134030762Y-81522086D01*
X133910019Y-81345823D01*
X133910017Y-81345821D01*
X133910015Y-81345818D01*
X133758932Y-81194735D01*
X133730095Y-81174981D01*
X133606501Y-81090317D01*
X133571510Y-81041421D01*
X133576135Y-80981472D01*
X133618213Y-80938521D01*
X133656177Y-80929900D01*
X134922323Y-80929900D01*
X134978824Y-80950465D01*
X135008888Y-81002536D01*
X134998447Y-81061750D01*
X134971999Y-81090317D01*
X134819571Y-81194732D01*
X134668480Y-81345823D01*
X134547737Y-81522086D01*
X134547736Y-81522088D01*
X134461434Y-81717544D01*
X134461431Y-81717555D01*
X134412513Y-81925538D01*
X134406350Y-82014341D01*
X134406350Y-82906654D01*
X134406351Y-82906671D01*
X134412513Y-82995461D01*
X134461431Y-83203444D01*
X134461434Y-83203455D01*
X134547736Y-83398911D01*
X134547737Y-83398913D01*
X134668480Y-83575176D01*
X134668482Y-83575178D01*
X134668485Y-83575182D01*
X134819568Y-83726265D01*
X134819571Y-83726267D01*
X134819573Y-83726269D01*
X134995836Y-83847012D01*
X134995838Y-83847013D01*
X134995839Y-83847013D01*
X134995840Y-83847014D01*
X135191299Y-83933317D01*
X135399287Y-83982236D01*
X135488093Y-83988400D01*
X135630406Y-83988399D01*
X135630422Y-83988398D01*
X135669750Y-83985668D01*
X135719213Y-83982236D01*
X135927201Y-83933317D01*
X136122660Y-83847014D01*
X136298932Y-83726265D01*
X136301891Y-83723305D01*
X136356377Y-83697887D01*
X136414458Y-83713439D01*
X136426208Y-83723296D01*
X138108407Y-85405495D01*
X138115775Y-85415728D01*
X138116608Y-85415100D01*
X138121517Y-85421601D01*
X138142478Y-85440708D01*
X138154667Y-85451821D01*
X138156100Y-85453188D01*
X138169170Y-85466258D01*
X138169173Y-85466260D01*
X138169174Y-85466261D01*
X138172014Y-85468206D01*
X138176793Y-85471991D01*
X138198849Y-85492098D01*
X138207850Y-85495584D01*
X138225779Y-85505036D01*
X138233733Y-85510485D01*
X138233734Y-85510486D01*
X138262781Y-85517317D01*
X138268597Y-85519117D01*
X138296428Y-85529900D01*
X138306082Y-85529900D01*
X138326206Y-85532234D01*
X138335599Y-85534444D01*
X138365150Y-85530321D01*
X138371228Y-85529900D01*
X141217652Y-85529900D01*
X141274153Y-85550465D01*
X141279807Y-85555645D01*
X142694954Y-86970792D01*
X142720365Y-87025286D01*
X142710320Y-87074382D01*
X142688958Y-87114347D01*
X142688957Y-87114351D01*
X142631612Y-87303390D01*
X142612247Y-87499999D01*
X142631612Y-87696609D01*
X142683543Y-87867800D01*
X142688958Y-87885650D01*
X142782084Y-88059878D01*
X142907411Y-88212589D01*
X143060122Y-88337916D01*
X143234350Y-88431042D01*
X143423397Y-88488389D01*
X143620000Y-88507753D01*
X143816603Y-88488389D01*
X144005650Y-88431042D01*
X144179878Y-88337916D01*
X144332589Y-88212589D01*
X144457916Y-88059878D01*
X144551042Y-87885650D01*
X144608389Y-87696603D01*
X144627753Y-87500000D01*
X144608389Y-87303397D01*
X144551042Y-87114350D01*
X144457916Y-86940122D01*
X144332589Y-86787411D01*
X144179878Y-86662084D01*
X144005650Y-86568958D01*
X144005649Y-86568957D01*
X144005648Y-86568957D01*
X143816609Y-86511612D01*
X143816604Y-86511611D01*
X143816603Y-86511611D01*
X143620000Y-86492247D01*
X143619999Y-86492247D01*
X143572657Y-86496909D01*
X143423397Y-86511611D01*
X143423395Y-86511611D01*
X143423390Y-86511612D01*
X143234351Y-86568957D01*
X143234347Y-86568958D01*
X143194382Y-86590320D01*
X143134858Y-86598818D01*
X143090792Y-86574954D01*
X141789393Y-85273555D01*
X141763982Y-85219061D01*
X141779545Y-85160983D01*
X141828798Y-85126495D01*
X141851548Y-85123500D01*
X143351252Y-85123500D01*
X143407753Y-85144065D01*
X143413407Y-85149245D01*
X145234954Y-86970792D01*
X145260365Y-87025286D01*
X145250320Y-87074382D01*
X145228958Y-87114347D01*
X145228957Y-87114351D01*
X145171612Y-87303390D01*
X145152247Y-87500000D01*
X145171612Y-87696609D01*
X145223543Y-87867800D01*
X145228958Y-87885650D01*
X145322084Y-88059878D01*
X145447411Y-88212589D01*
X145600122Y-88337916D01*
X145774350Y-88431042D01*
X145963397Y-88488389D01*
X146160000Y-88507753D01*
X146356603Y-88488389D01*
X146545650Y-88431042D01*
X146719878Y-88337916D01*
X146872589Y-88212589D01*
X146997916Y-88059878D01*
X147091042Y-87885650D01*
X147148389Y-87696603D01*
X147167753Y-87500000D01*
X147148389Y-87303397D01*
X147091042Y-87114350D01*
X146997916Y-86940122D01*
X146872589Y-86787411D01*
X146719878Y-86662084D01*
X146545650Y-86568958D01*
X146545649Y-86568957D01*
X146545648Y-86568957D01*
X146356609Y-86511612D01*
X146356604Y-86511611D01*
X146356603Y-86511611D01*
X146160000Y-86492247D01*
X145963397Y-86511611D01*
X145963395Y-86511611D01*
X145963390Y-86511612D01*
X145774351Y-86568957D01*
X145774347Y-86568958D01*
X145734382Y-86590320D01*
X145674858Y-86598818D01*
X145630792Y-86574954D01*
X143922993Y-84867155D01*
X143897582Y-84812661D01*
X143913145Y-84754583D01*
X143962398Y-84720095D01*
X143985148Y-84717100D01*
X145484852Y-84717100D01*
X145541353Y-84737665D01*
X145547007Y-84742845D01*
X147774954Y-86970792D01*
X147800365Y-87025286D01*
X147790320Y-87074382D01*
X147768958Y-87114347D01*
X147768957Y-87114351D01*
X147711612Y-87303390D01*
X147692247Y-87500000D01*
X147711612Y-87696609D01*
X147763543Y-87867800D01*
X147768958Y-87885650D01*
X147862084Y-88059878D01*
X147987411Y-88212589D01*
X148140122Y-88337916D01*
X148314350Y-88431042D01*
X148503397Y-88488389D01*
X148700000Y-88507753D01*
X148896603Y-88488389D01*
X149085650Y-88431042D01*
X149259878Y-88337916D01*
X149412589Y-88212589D01*
X149537916Y-88059878D01*
X149631042Y-87885650D01*
X149688389Y-87696603D01*
X149707753Y-87500000D01*
X150232247Y-87500000D01*
X150251612Y-87696609D01*
X150303543Y-87867800D01*
X150308958Y-87885650D01*
X150402084Y-88059878D01*
X150527411Y-88212589D01*
X150680122Y-88337916D01*
X150854350Y-88431042D01*
X151043397Y-88488389D01*
X151240000Y-88507753D01*
X151436603Y-88488389D01*
X151625650Y-88431042D01*
X151749098Y-88365058D01*
X152777100Y-88365058D01*
X152785972Y-88409658D01*
X152819766Y-88460234D01*
X152836701Y-88471550D01*
X152870341Y-88494028D01*
X152877741Y-88495499D01*
X152914943Y-88502900D01*
X154645056Y-88502899D01*
X154645058Y-88502899D01*
X154657750Y-88500374D01*
X154689658Y-88494028D01*
X154740234Y-88460234D01*
X154774028Y-88409658D01*
X154782900Y-88365057D01*
X154782900Y-87867800D01*
X154803465Y-87811299D01*
X154855536Y-87781235D01*
X154870800Y-87779900D01*
X155644386Y-87779900D01*
X155700887Y-87800465D01*
X155730951Y-87852536D01*
X155731359Y-87855077D01*
X155732284Y-87861424D01*
X155732625Y-87863764D01*
X155732626Y-87863767D01*
X155762539Y-87924952D01*
X155787101Y-87975193D01*
X155874807Y-88062899D01*
X155922490Y-88086210D01*
X155986233Y-88117373D01*
X155986234Y-88117373D01*
X155986238Y-88117375D01*
X156058478Y-88127900D01*
X156058482Y-88127900D01*
X156566517Y-88127900D01*
X156566522Y-88127900D01*
X156638762Y-88117375D01*
X156638766Y-88117373D01*
X156638767Y-88117373D01*
X156674303Y-88100000D01*
X156750193Y-88062899D01*
X156837899Y-87975193D01*
X156875351Y-87898584D01*
X156892373Y-87863767D01*
X156892373Y-87863766D01*
X156892375Y-87863762D01*
X156902900Y-87791522D01*
X156902900Y-87791517D01*
X157297099Y-87791517D01*
X157297100Y-87791522D01*
X157307625Y-87863762D01*
X157307625Y-87863763D01*
X157307626Y-87863765D01*
X157307626Y-87863767D01*
X157337539Y-87924952D01*
X157362101Y-87975193D01*
X157449807Y-88062899D01*
X157497490Y-88086210D01*
X157561233Y-88117373D01*
X157561234Y-88117373D01*
X157561238Y-88117375D01*
X157633478Y-88127900D01*
X157633482Y-88127900D01*
X158141517Y-88127900D01*
X158141522Y-88127900D01*
X158213762Y-88117375D01*
X158213766Y-88117373D01*
X158213767Y-88117373D01*
X158249303Y-88100000D01*
X158325193Y-88062899D01*
X158412899Y-87975193D01*
X158450351Y-87898584D01*
X158467373Y-87863767D01*
X158467373Y-87863766D01*
X158467375Y-87863762D01*
X158477900Y-87791522D01*
X158477900Y-87208478D01*
X158467375Y-87136238D01*
X158467373Y-87136233D01*
X158467373Y-87136232D01*
X158431625Y-87063111D01*
X158412899Y-87024807D01*
X158388091Y-86999999D01*
X160490881Y-86999999D01*
X160511331Y-87285933D01*
X160572262Y-87566027D01*
X160572264Y-87566035D01*
X160672440Y-87834616D01*
X160809821Y-88086210D01*
X160809826Y-88086217D01*
X160914604Y-88226184D01*
X161561857Y-87578930D01*
X161664894Y-87723624D01*
X161816932Y-87868592D01*
X161922665Y-87936542D01*
X161273814Y-88585394D01*
X161413782Y-88690173D01*
X161413789Y-88690178D01*
X161665383Y-88827559D01*
X161933964Y-88927735D01*
X161933972Y-88927737D01*
X162214066Y-88988668D01*
X162500000Y-89009118D01*
X162785933Y-88988668D01*
X163066027Y-88927737D01*
X163066035Y-88927735D01*
X163334616Y-88827559D01*
X163586210Y-88690178D01*
X163586219Y-88690172D01*
X163726184Y-88585395D01*
X163726184Y-88585394D01*
X163079573Y-87938784D01*
X163097410Y-87929589D01*
X163262540Y-87799729D01*
X163400110Y-87640965D01*
X163436736Y-87577526D01*
X164085394Y-88226184D01*
X164085395Y-88226184D01*
X164190172Y-88086219D01*
X164190178Y-88086210D01*
X164327559Y-87834616D01*
X164427735Y-87566035D01*
X164427737Y-87566027D01*
X164488668Y-87285933D01*
X164509118Y-86999999D01*
X164488668Y-86714066D01*
X164427737Y-86433972D01*
X164427735Y-86433964D01*
X164327559Y-86165383D01*
X164190178Y-85913789D01*
X164190173Y-85913782D01*
X164085394Y-85773814D01*
X163438141Y-86421067D01*
X163335106Y-86276376D01*
X163183068Y-86131408D01*
X163077331Y-86063455D01*
X163726184Y-85414604D01*
X163586217Y-85309826D01*
X163586210Y-85309821D01*
X163334616Y-85172440D01*
X163066035Y-85072264D01*
X163066027Y-85072262D01*
X162785933Y-85011331D01*
X162500000Y-84990881D01*
X162214066Y-85011331D01*
X161933972Y-85072262D01*
X161933964Y-85072264D01*
X161665383Y-85172440D01*
X161413789Y-85309821D01*
X161413782Y-85309826D01*
X161273814Y-85414603D01*
X161920426Y-86061215D01*
X161902590Y-86070411D01*
X161737460Y-86200271D01*
X161599890Y-86359035D01*
X161563263Y-86422474D01*
X160914603Y-85773814D01*
X160809826Y-85913782D01*
X160809821Y-85913789D01*
X160672440Y-86165383D01*
X160572264Y-86433964D01*
X160572262Y-86433972D01*
X160511331Y-86714066D01*
X160490881Y-86999999D01*
X158388091Y-86999999D01*
X158325193Y-86937101D01*
X158282696Y-86916325D01*
X158216693Y-86884057D01*
X158174966Y-86840766D01*
X158167400Y-86805089D01*
X158167400Y-86625117D01*
X158187965Y-86568616D01*
X158240036Y-86538552D01*
X158242566Y-86538144D01*
X158267088Y-86534572D01*
X158372898Y-86482845D01*
X158456179Y-86399564D01*
X158507906Y-86293754D01*
X158517900Y-86225160D01*
X158517900Y-85608172D01*
X158507906Y-85539578D01*
X158456179Y-85433768D01*
X158372898Y-85350487D01*
X158372896Y-85350486D01*
X158372895Y-85350485D01*
X158304423Y-85317012D01*
X158267088Y-85298760D01*
X158198494Y-85288766D01*
X157731506Y-85288766D01*
X157662912Y-85298760D01*
X157662909Y-85298761D01*
X157662910Y-85298761D01*
X157557104Y-85350485D01*
X157473819Y-85433770D01*
X157432635Y-85518016D01*
X157422094Y-85539578D01*
X157412100Y-85608172D01*
X157412100Y-86225160D01*
X157422094Y-86293754D01*
X157447405Y-86345530D01*
X157473819Y-86399561D01*
X157473820Y-86399562D01*
X157473821Y-86399564D01*
X157557102Y-86482845D01*
X157558301Y-86483431D01*
X157559135Y-86484296D01*
X157563031Y-86487078D01*
X157562514Y-86487801D01*
X157600031Y-86526716D01*
X157607600Y-86562401D01*
X157607600Y-86805089D01*
X157587035Y-86861590D01*
X157558307Y-86884057D01*
X157449807Y-86937101D01*
X157362100Y-87024808D01*
X157307626Y-87136232D01*
X157307626Y-87136234D01*
X157307626Y-87136235D01*
X157307625Y-87136238D01*
X157297100Y-87208478D01*
X157297100Y-87208481D01*
X157297100Y-87208482D01*
X157297100Y-87791517D01*
X157297099Y-87791517D01*
X156902900Y-87791517D01*
X156902900Y-87208478D01*
X156892375Y-87136238D01*
X156892373Y-87136233D01*
X156892373Y-87136232D01*
X156856625Y-87063111D01*
X156837899Y-87024807D01*
X156750193Y-86937101D01*
X156707696Y-86916325D01*
X156638766Y-86882626D01*
X156638763Y-86882625D01*
X156638762Y-86882625D01*
X156566522Y-86872100D01*
X156058478Y-86872100D01*
X155986238Y-86882625D01*
X155986236Y-86882625D01*
X155986234Y-86882626D01*
X155986232Y-86882626D01*
X155874808Y-86937100D01*
X155787100Y-87024808D01*
X155732626Y-87136232D01*
X155732625Y-87136235D01*
X155732625Y-87136238D01*
X155731366Y-87144872D01*
X155702873Y-87197818D01*
X155647011Y-87220061D01*
X155644386Y-87220100D01*
X154870799Y-87220100D01*
X154814298Y-87199535D01*
X154784234Y-87147464D01*
X154782899Y-87132200D01*
X154782899Y-86634941D01*
X154778975Y-86615213D01*
X154774028Y-86590342D01*
X154740234Y-86539766D01*
X154732458Y-86534570D01*
X154689658Y-86505971D01*
X154652456Y-86498571D01*
X154645057Y-86497100D01*
X154645056Y-86497100D01*
X152914941Y-86497100D01*
X152870341Y-86505972D01*
X152819767Y-86539765D01*
X152819764Y-86539768D01*
X152785971Y-86590341D01*
X152777100Y-86634943D01*
X152777100Y-88365058D01*
X151749098Y-88365058D01*
X151799878Y-88337916D01*
X151952589Y-88212589D01*
X152077916Y-88059878D01*
X152171042Y-87885650D01*
X152228389Y-87696603D01*
X152247753Y-87500000D01*
X152228389Y-87303397D01*
X152171042Y-87114350D01*
X152077916Y-86940122D01*
X151952589Y-86787411D01*
X151799878Y-86662084D01*
X151625650Y-86568958D01*
X151625649Y-86568957D01*
X151625648Y-86568957D01*
X151436609Y-86511612D01*
X151436604Y-86511611D01*
X151436603Y-86511611D01*
X151240000Y-86492247D01*
X151239999Y-86492247D01*
X151192657Y-86496909D01*
X151043397Y-86511611D01*
X151043395Y-86511611D01*
X151043390Y-86511612D01*
X150854351Y-86568957D01*
X150680121Y-86662084D01*
X150527413Y-86787409D01*
X150527409Y-86787413D01*
X150402084Y-86940121D01*
X150308957Y-87114351D01*
X150251612Y-87303390D01*
X150232247Y-87500000D01*
X149707753Y-87500000D01*
X149688389Y-87303397D01*
X149631042Y-87114350D01*
X149537916Y-86940122D01*
X149412589Y-86787411D01*
X149259878Y-86662084D01*
X149085650Y-86568958D01*
X149085649Y-86568957D01*
X149085648Y-86568957D01*
X148896609Y-86511612D01*
X148896604Y-86511611D01*
X148896603Y-86511611D01*
X148700000Y-86492247D01*
X148503397Y-86511611D01*
X148503395Y-86511611D01*
X148503390Y-86511612D01*
X148314351Y-86568957D01*
X148314347Y-86568958D01*
X148274382Y-86590320D01*
X148214858Y-86598818D01*
X148170792Y-86574954D01*
X147842192Y-86246354D01*
X155661000Y-86246354D01*
X155663875Y-86277021D01*
X155663875Y-86277023D01*
X155709076Y-86406197D01*
X155709077Y-86406201D01*
X155790346Y-86516318D01*
X155790347Y-86516319D01*
X155900464Y-86597588D01*
X155900468Y-86597589D01*
X156029643Y-86642790D01*
X156060311Y-86645665D01*
X156060314Y-86645666D01*
X156060999Y-86645666D01*
X156061000Y-86645665D01*
X156569000Y-86645665D01*
X156569001Y-86645666D01*
X156569686Y-86645666D01*
X156569688Y-86645665D01*
X156600355Y-86642790D01*
X156600357Y-86642790D01*
X156729531Y-86597589D01*
X156729535Y-86597588D01*
X156839652Y-86516319D01*
X156839653Y-86516318D01*
X156920922Y-86406201D01*
X156920923Y-86406197D01*
X156966124Y-86277023D01*
X156966124Y-86277021D01*
X156968999Y-86246354D01*
X156969000Y-86246352D01*
X156969000Y-86170667D01*
X156968999Y-86170666D01*
X156569001Y-86170666D01*
X156569000Y-86170667D01*
X156569000Y-86645665D01*
X156061000Y-86645665D01*
X156061000Y-86645664D01*
X156061000Y-86170667D01*
X156060999Y-86170666D01*
X155661001Y-86170666D01*
X155661000Y-86170667D01*
X155661000Y-86246354D01*
X147842192Y-86246354D01*
X147258503Y-85662665D01*
X155661000Y-85662665D01*
X155661001Y-85662666D01*
X156060999Y-85662666D01*
X156061000Y-85662665D01*
X156569000Y-85662665D01*
X156569001Y-85662666D01*
X156968999Y-85662666D01*
X156969000Y-85662664D01*
X156969000Y-85586979D01*
X156968999Y-85586977D01*
X156966124Y-85556310D01*
X156966124Y-85556308D01*
X156920923Y-85427134D01*
X156920922Y-85427130D01*
X156839653Y-85317013D01*
X156839652Y-85317012D01*
X156729535Y-85235743D01*
X156729531Y-85235742D01*
X156600356Y-85190541D01*
X156569688Y-85187666D01*
X156569001Y-85187666D01*
X156569000Y-85187667D01*
X156569000Y-85662665D01*
X156061000Y-85662665D01*
X156061000Y-85662664D01*
X156061000Y-85187667D01*
X156060999Y-85187666D01*
X156060311Y-85187666D01*
X156029644Y-85190541D01*
X156029642Y-85190541D01*
X155900468Y-85235742D01*
X155900464Y-85235743D01*
X155790347Y-85317012D01*
X155790346Y-85317013D01*
X155709077Y-85427130D01*
X155709076Y-85427134D01*
X155663875Y-85556308D01*
X155663875Y-85556310D01*
X155661000Y-85586977D01*
X155661000Y-85662665D01*
X147258503Y-85662665D01*
X145877542Y-84281704D01*
X145870178Y-84271466D01*
X145869341Y-84272099D01*
X145864435Y-84265601D01*
X145831297Y-84235392D01*
X145829828Y-84233990D01*
X145816779Y-84220941D01*
X145813930Y-84218989D01*
X145809155Y-84215207D01*
X145787103Y-84195104D01*
X145787101Y-84195102D01*
X145787098Y-84195101D01*
X145787097Y-84195100D01*
X145778098Y-84191614D01*
X145760176Y-84182167D01*
X145752216Y-84176714D01*
X145745415Y-84175114D01*
X145723167Y-84169881D01*
X145717347Y-84168079D01*
X145689526Y-84157301D01*
X145689523Y-84157300D01*
X145689522Y-84157300D01*
X145689521Y-84157300D01*
X145679868Y-84157300D01*
X145659743Y-84154965D01*
X145650351Y-84152756D01*
X145620799Y-84156878D01*
X145614722Y-84157300D01*
X142768298Y-84157300D01*
X142711797Y-84136735D01*
X142706143Y-84131555D01*
X141779487Y-83204899D01*
X141754076Y-83150405D01*
X141756076Y-83122626D01*
X141785986Y-82995463D01*
X141792150Y-82906657D01*
X141792149Y-82014344D01*
X141785986Y-81925537D01*
X141737067Y-81717549D01*
X141712584Y-81662101D01*
X141650763Y-81522088D01*
X141650762Y-81522086D01*
X141530019Y-81345823D01*
X141530017Y-81345821D01*
X141530015Y-81345818D01*
X141378932Y-81194735D01*
X141350095Y-81174981D01*
X141226501Y-81090317D01*
X141191510Y-81041421D01*
X141196135Y-80981472D01*
X141238213Y-80938521D01*
X141276177Y-80929900D01*
X144297652Y-80929900D01*
X144354153Y-80950465D01*
X144359807Y-80955645D01*
X144911900Y-81507738D01*
X144937311Y-81562232D01*
X144927266Y-81611328D01*
X144915375Y-81633573D01*
X144915374Y-81633577D01*
X144860888Y-81813192D01*
X144860887Y-81813197D01*
X144860887Y-81813199D01*
X144849823Y-81925537D01*
X144842489Y-82000000D01*
X144860888Y-82186807D01*
X144915373Y-82366419D01*
X144915373Y-82366420D01*
X144915374Y-82366423D01*
X144915375Y-82366424D01*
X145003859Y-82531965D01*
X145122937Y-82677063D01*
X145268035Y-82796141D01*
X145433576Y-82884625D01*
X145433578Y-82884625D01*
X145433579Y-82884626D01*
X145506205Y-82906657D01*
X145613199Y-82939113D01*
X145800000Y-82957511D01*
X145986801Y-82939113D01*
X146166424Y-82884625D01*
X146331965Y-82796141D01*
X146477063Y-82677063D01*
X146596141Y-82531965D01*
X146684625Y-82366424D01*
X146739113Y-82186801D01*
X146757511Y-82000000D01*
X146739113Y-81813199D01*
X146718728Y-81745998D01*
X157445999Y-81745998D01*
X157446001Y-81746000D01*
X158188314Y-81746000D01*
X158172359Y-81761955D01*
X158114835Y-81874852D01*
X158095014Y-82000000D01*
X158114835Y-82125148D01*
X158172359Y-82238045D01*
X158188314Y-82254000D01*
X157446002Y-82254000D01*
X157446001Y-82254001D01*
X157446001Y-82825018D01*
X157460737Y-82899106D01*
X157516875Y-82983122D01*
X157516877Y-82983124D01*
X157600894Y-83039262D01*
X157674981Y-83053999D01*
X158245998Y-83053999D01*
X158246000Y-83053998D01*
X158246000Y-82311686D01*
X158261955Y-82327641D01*
X158374852Y-82385165D01*
X158468519Y-82400000D01*
X158531481Y-82400000D01*
X158625148Y-82385165D01*
X158738045Y-82327641D01*
X158754000Y-82311686D01*
X158754000Y-83053998D01*
X158754001Y-83053999D01*
X159325018Y-83053999D01*
X159399106Y-83039262D01*
X159483122Y-82983124D01*
X159483124Y-82983122D01*
X159539262Y-82899105D01*
X159554000Y-82825015D01*
X159554000Y-82441517D01*
X160938766Y-82441517D01*
X160938767Y-82441522D01*
X160949292Y-82513762D01*
X160949292Y-82513763D01*
X160949293Y-82513765D01*
X160949293Y-82513767D01*
X160975362Y-82567089D01*
X161003768Y-82625193D01*
X161091474Y-82712899D01*
X161149843Y-82741434D01*
X161202900Y-82767373D01*
X161202901Y-82767373D01*
X161202905Y-82767375D01*
X161275145Y-82777900D01*
X161275149Y-82777900D01*
X161858184Y-82777900D01*
X161858189Y-82777900D01*
X161930429Y-82767375D01*
X161930433Y-82767373D01*
X161930434Y-82767373D01*
X161965251Y-82750351D01*
X162041860Y-82712899D01*
X162129566Y-82625193D01*
X162182608Y-82516694D01*
X162225899Y-82474966D01*
X162261577Y-82467400D01*
X162441549Y-82467400D01*
X162498050Y-82487965D01*
X162528114Y-82540036D01*
X162528521Y-82542566D01*
X162532094Y-82567088D01*
X162557405Y-82618864D01*
X162583819Y-82672895D01*
X162583820Y-82672896D01*
X162583821Y-82672898D01*
X162667102Y-82756179D01*
X162772912Y-82807906D01*
X162841506Y-82817900D01*
X162841510Y-82817900D01*
X163458490Y-82817900D01*
X163458494Y-82817900D01*
X163527088Y-82807906D01*
X163632898Y-82756179D01*
X163716179Y-82672898D01*
X163767906Y-82567088D01*
X163777900Y-82498494D01*
X163777900Y-82031506D01*
X163767906Y-81962912D01*
X163716179Y-81857102D01*
X163632898Y-81773821D01*
X163632896Y-81773820D01*
X163632895Y-81773819D01*
X163560997Y-81738671D01*
X163527088Y-81722094D01*
X163458494Y-81712100D01*
X162841506Y-81712100D01*
X162772912Y-81722094D01*
X162772909Y-81722095D01*
X162772910Y-81722095D01*
X162667104Y-81773819D01*
X162583820Y-81857103D01*
X162583234Y-81858303D01*
X162582363Y-81859142D01*
X162579586Y-81863032D01*
X162578863Y-81862516D01*
X162539945Y-81900032D01*
X162504264Y-81907600D01*
X162261577Y-81907600D01*
X162205076Y-81887035D01*
X162182609Y-81858306D01*
X162141305Y-81773819D01*
X162129566Y-81749807D01*
X162041860Y-81662101D01*
X162041858Y-81662100D01*
X161930433Y-81607626D01*
X161930430Y-81607625D01*
X161930429Y-81607625D01*
X161858189Y-81597100D01*
X161275145Y-81597100D01*
X161202905Y-81607625D01*
X161202903Y-81607625D01*
X161202901Y-81607626D01*
X161202899Y-81607626D01*
X161091475Y-81662100D01*
X161003767Y-81749808D01*
X160949293Y-81861232D01*
X160949293Y-81861234D01*
X160949292Y-81861236D01*
X160949292Y-81861238D01*
X160938767Y-81933478D01*
X160938767Y-81933481D01*
X160938767Y-81933482D01*
X160938767Y-82441517D01*
X160938766Y-82441517D01*
X159554000Y-82441517D01*
X159554000Y-82254001D01*
X159553999Y-82254000D01*
X158811686Y-82254000D01*
X158827641Y-82238045D01*
X158885165Y-82125148D01*
X158904986Y-82000000D01*
X158885165Y-81874852D01*
X158827641Y-81761955D01*
X158811686Y-81746000D01*
X159553998Y-81746000D01*
X159553999Y-81745999D01*
X159553999Y-81174981D01*
X159539262Y-81100893D01*
X159483124Y-81016877D01*
X159483122Y-81016875D01*
X159399105Y-80960737D01*
X159325015Y-80946000D01*
X158754001Y-80946000D01*
X158754000Y-80946001D01*
X158754000Y-81688313D01*
X158738045Y-81672359D01*
X158625148Y-81614835D01*
X158531481Y-81600000D01*
X158468519Y-81600000D01*
X158374852Y-81614835D01*
X158261955Y-81672359D01*
X158246000Y-81688314D01*
X158246000Y-80946000D01*
X157674981Y-80946000D01*
X157600893Y-80960737D01*
X157516877Y-81016875D01*
X157516875Y-81016877D01*
X157460737Y-81100894D01*
X157446000Y-81174984D01*
X157445999Y-81745998D01*
X146718728Y-81745998D01*
X146684625Y-81633576D01*
X146596141Y-81468035D01*
X146477063Y-81322937D01*
X146331965Y-81203859D01*
X146166424Y-81115375D01*
X146166423Y-81115374D01*
X146166420Y-81115373D01*
X145986807Y-81060888D01*
X145986802Y-81060887D01*
X145986801Y-81060887D01*
X145800000Y-81042489D01*
X145613199Y-81060887D01*
X145613197Y-81060887D01*
X145613192Y-81060888D01*
X145433577Y-81115374D01*
X145433573Y-81115375D01*
X145411328Y-81127266D01*
X145351805Y-81135764D01*
X145307738Y-81111900D01*
X145062360Y-80866522D01*
X160938767Y-80866522D01*
X160949292Y-80938762D01*
X160949292Y-80938763D01*
X160949293Y-80938765D01*
X160949293Y-80938767D01*
X160999585Y-81041636D01*
X161003768Y-81050193D01*
X161091474Y-81137899D01*
X161132585Y-81157997D01*
X161202900Y-81192373D01*
X161202901Y-81192373D01*
X161202905Y-81192375D01*
X161275145Y-81202900D01*
X161275149Y-81202900D01*
X161858184Y-81202900D01*
X161858189Y-81202900D01*
X161930429Y-81192375D01*
X161930433Y-81192373D01*
X161930434Y-81192373D01*
X161966009Y-81174981D01*
X162041860Y-81137899D01*
X162129566Y-81050193D01*
X162173299Y-80960737D01*
X162184040Y-80938767D01*
X162184040Y-80938766D01*
X162184042Y-80938762D01*
X162194106Y-80869688D01*
X162421000Y-80869688D01*
X162423875Y-80900355D01*
X162423875Y-80900357D01*
X162469076Y-81029531D01*
X162469077Y-81029535D01*
X162550346Y-81139652D01*
X162550347Y-81139653D01*
X162660464Y-81220922D01*
X162660468Y-81220923D01*
X162789643Y-81266124D01*
X162820311Y-81268999D01*
X162820314Y-81269000D01*
X162895999Y-81269000D01*
X162896000Y-81268998D01*
X162896000Y-80869001D01*
X162895999Y-80869000D01*
X163404000Y-80869000D01*
X163404000Y-81268999D01*
X163404001Y-81269000D01*
X163479686Y-81269000D01*
X163479688Y-81268999D01*
X163510355Y-81266124D01*
X163510357Y-81266124D01*
X163639531Y-81220923D01*
X163639535Y-81220922D01*
X163749652Y-81139653D01*
X163749653Y-81139652D01*
X163830922Y-81029535D01*
X163830923Y-81029531D01*
X163876124Y-80900357D01*
X163876124Y-80900355D01*
X163878999Y-80869688D01*
X163879000Y-80869686D01*
X163879000Y-80869001D01*
X163878999Y-80869000D01*
X163404000Y-80869000D01*
X162895999Y-80869000D01*
X162421001Y-80869000D01*
X162421000Y-80869001D01*
X162421000Y-80869688D01*
X162194106Y-80869688D01*
X162194567Y-80866522D01*
X162194567Y-80360999D01*
X162421000Y-80360999D01*
X162421001Y-80361000D01*
X162895999Y-80361000D01*
X162896000Y-80360998D01*
X162896000Y-79961001D01*
X162895999Y-79961000D01*
X163404000Y-79961000D01*
X163404000Y-80360999D01*
X163404001Y-80361000D01*
X163878999Y-80361000D01*
X163879000Y-80360999D01*
X163879000Y-80360313D01*
X163878999Y-80360311D01*
X163876124Y-80329644D01*
X163876124Y-80329642D01*
X163830923Y-80200468D01*
X163830922Y-80200464D01*
X163749653Y-80090347D01*
X163749652Y-80090346D01*
X163639535Y-80009077D01*
X163639531Y-80009076D01*
X163510356Y-79963875D01*
X163479688Y-79961000D01*
X163404000Y-79961000D01*
X162895999Y-79961000D01*
X162820311Y-79961000D01*
X162789644Y-79963875D01*
X162789642Y-79963875D01*
X162660468Y-80009076D01*
X162660464Y-80009077D01*
X162550347Y-80090346D01*
X162550346Y-80090347D01*
X162469077Y-80200464D01*
X162469076Y-80200468D01*
X162423875Y-80329642D01*
X162423875Y-80329644D01*
X162421000Y-80360311D01*
X162421000Y-80360999D01*
X162194567Y-80360999D01*
X162194567Y-80358478D01*
X162184042Y-80286238D01*
X162184040Y-80286233D01*
X162184040Y-80286232D01*
X162129566Y-80174808D01*
X162129566Y-80174807D01*
X162041860Y-80087101D01*
X162041858Y-80087100D01*
X161930433Y-80032626D01*
X161930430Y-80032625D01*
X161930429Y-80032625D01*
X161858189Y-80022100D01*
X161275145Y-80022100D01*
X161202905Y-80032625D01*
X161202903Y-80032625D01*
X161202901Y-80032626D01*
X161202899Y-80032626D01*
X161091475Y-80087100D01*
X161003767Y-80174808D01*
X160949293Y-80286232D01*
X160949293Y-80286234D01*
X160949292Y-80286236D01*
X160949292Y-80286238D01*
X160938767Y-80358478D01*
X160938767Y-80866522D01*
X145062360Y-80866522D01*
X144690342Y-80494504D01*
X144682978Y-80484266D01*
X144682141Y-80484899D01*
X144677235Y-80478401D01*
X144644097Y-80448192D01*
X144642628Y-80446790D01*
X144629579Y-80433741D01*
X144626730Y-80431789D01*
X144621955Y-80428007D01*
X144599903Y-80407904D01*
X144599901Y-80407902D01*
X144599898Y-80407901D01*
X144599897Y-80407900D01*
X144590898Y-80404414D01*
X144572976Y-80394967D01*
X144565016Y-80389514D01*
X144558215Y-80387914D01*
X144535967Y-80382681D01*
X144530147Y-80380879D01*
X144502326Y-80370101D01*
X144502323Y-80370100D01*
X144502322Y-80370100D01*
X144502321Y-80370100D01*
X144492668Y-80370100D01*
X144472543Y-80367765D01*
X144463151Y-80365556D01*
X144433599Y-80369678D01*
X144427522Y-80370100D01*
X143327947Y-80370100D01*
X143271446Y-80349535D01*
X143241382Y-80297464D01*
X143251823Y-80238250D01*
X143265792Y-80220045D01*
X143311030Y-80174808D01*
X143720193Y-79765645D01*
X143774688Y-79740234D01*
X143782349Y-79739900D01*
X144823937Y-79739900D01*
X144880438Y-79760465D01*
X144908051Y-79802282D01*
X144915375Y-79826424D01*
X145003859Y-79991965D01*
X145122937Y-80137063D01*
X145268035Y-80256141D01*
X145433576Y-80344625D01*
X145433578Y-80344625D01*
X145433579Y-80344626D01*
X145553089Y-80380879D01*
X145613199Y-80399113D01*
X145800000Y-80417511D01*
X145986801Y-80399113D01*
X146166424Y-80344625D01*
X146331965Y-80256141D01*
X146477063Y-80137063D01*
X146596141Y-79991965D01*
X146684625Y-79826424D01*
X146739113Y-79646801D01*
X146757511Y-79460000D01*
X146739113Y-79273199D01*
X146724517Y-79225084D01*
X146691948Y-79117717D01*
X146684625Y-79093576D01*
X146596141Y-78928035D01*
X146477063Y-78782937D01*
X146331965Y-78663859D01*
X146166424Y-78575375D01*
X146166423Y-78575374D01*
X146166420Y-78575373D01*
X145986807Y-78520888D01*
X145986802Y-78520887D01*
X145986801Y-78520887D01*
X145800000Y-78502489D01*
X145613199Y-78520887D01*
X145613197Y-78520887D01*
X145613192Y-78520888D01*
X145433580Y-78575373D01*
X145433579Y-78575373D01*
X145268034Y-78663859D01*
X145122939Y-78782935D01*
X145122935Y-78782939D01*
X145003859Y-78928034D01*
X144915375Y-79093575D01*
X144908052Y-79117717D01*
X144871970Y-79165815D01*
X144823937Y-79180100D01*
X143689996Y-79180100D01*
X143677556Y-79178068D01*
X143677411Y-79179109D01*
X143669341Y-79177983D01*
X143669340Y-79177983D01*
X143669338Y-79177983D01*
X143652209Y-79178774D01*
X143624555Y-79180053D01*
X143622532Y-79180100D01*
X143604065Y-79180100D01*
X143604063Y-79180100D01*
X143604051Y-79180101D01*
X143600653Y-79180736D01*
X143594611Y-79181437D01*
X143564809Y-79182814D01*
X143564801Y-79182816D01*
X143555971Y-79186715D01*
X143536631Y-79192704D01*
X143527139Y-79194479D01*
X143527134Y-79194481D01*
X143501768Y-79210188D01*
X143496378Y-79213029D01*
X143469079Y-79225083D01*
X143469074Y-79225086D01*
X143462250Y-79231911D01*
X143446376Y-79244485D01*
X143438169Y-79249566D01*
X143438165Y-79249570D01*
X143420185Y-79273378D01*
X143416186Y-79277973D01*
X142849807Y-79844355D01*
X142795313Y-79869766D01*
X142787652Y-79870100D01*
X127769746Y-79870100D01*
X127757306Y-79868068D01*
X127757161Y-79869109D01*
X127749091Y-79867983D01*
X127749090Y-79867983D01*
X127749088Y-79867983D01*
X127731959Y-79868774D01*
X127704305Y-79870053D01*
X127702282Y-79870100D01*
X127683815Y-79870100D01*
X127683813Y-79870100D01*
X127683801Y-79870101D01*
X127680403Y-79870736D01*
X127674361Y-79871437D01*
X127644559Y-79872814D01*
X127644551Y-79872816D01*
X127635721Y-79876715D01*
X127616381Y-79882704D01*
X127606889Y-79884479D01*
X127606884Y-79884481D01*
X127581518Y-79900188D01*
X127576128Y-79903029D01*
X127548829Y-79915083D01*
X127548824Y-79915086D01*
X127542000Y-79921911D01*
X127526126Y-79934485D01*
X127517919Y-79939566D01*
X127517915Y-79939570D01*
X127499935Y-79963378D01*
X127495936Y-79967973D01*
X126266208Y-81197702D01*
X126211714Y-81223113D01*
X126153636Y-81207550D01*
X126141904Y-81197707D01*
X126138932Y-81194735D01*
X126138928Y-81194732D01*
X126138926Y-81194730D01*
X125962663Y-81073987D01*
X125962661Y-81073986D01*
X125767205Y-80987684D01*
X125767194Y-80987681D01*
X125559211Y-80938763D01*
X125499349Y-80934608D01*
X125470407Y-80932600D01*
X125470401Y-80932600D01*
X125328093Y-80932600D01*
X125328077Y-80932601D01*
X125239288Y-80938763D01*
X125031305Y-80987681D01*
X125031294Y-80987684D01*
X124835838Y-81073986D01*
X124835836Y-81073987D01*
X124659573Y-81194730D01*
X124508480Y-81345823D01*
X124387737Y-81522086D01*
X124387736Y-81522088D01*
X124301434Y-81717544D01*
X124301431Y-81717555D01*
X124252513Y-81925538D01*
X124246350Y-82014341D01*
X124246350Y-82906654D01*
X122254500Y-82906654D01*
X122254500Y-79342400D01*
X122275065Y-79285899D01*
X122327136Y-79255835D01*
X122342400Y-79254500D01*
X122377841Y-79254500D01*
X122434342Y-79275065D01*
X122437000Y-79277500D01*
X122437250Y-79277500D01*
X125107391Y-79277500D01*
X125155998Y-79254834D01*
X125163659Y-79254500D01*
X126441841Y-79254500D01*
X126498342Y-79275065D01*
X126501000Y-79277500D01*
X126501250Y-79277500D01*
X129171391Y-79277500D01*
X129219998Y-79254834D01*
X129227659Y-79254500D01*
X129716276Y-79254500D01*
X129733424Y-79256189D01*
X129749999Y-79259486D01*
X129749999Y-79259485D01*
X129750000Y-79259486D01*
X129849301Y-79239734D01*
X129933484Y-79183484D01*
X129989734Y-79099301D01*
X130004500Y-79025067D01*
X130004500Y-79025066D01*
X130009486Y-79000000D01*
X130006189Y-78983424D01*
X130004500Y-78966276D01*
X130004500Y-76919999D01*
X144842489Y-76919999D01*
X144860888Y-77106807D01*
X144915373Y-77286419D01*
X144915373Y-77286420D01*
X144915374Y-77286423D01*
X144915375Y-77286424D01*
X145003859Y-77451965D01*
X145122937Y-77597063D01*
X145268035Y-77716141D01*
X145433576Y-77804625D01*
X145433578Y-77804625D01*
X145433579Y-77804626D01*
X145516098Y-77829658D01*
X145613199Y-77859113D01*
X145800000Y-77877511D01*
X145986801Y-77859113D01*
X146166424Y-77804625D01*
X146331965Y-77716141D01*
X146477063Y-77597063D01*
X146596141Y-77451965D01*
X146684625Y-77286424D01*
X146739113Y-77106801D01*
X146757511Y-76920000D01*
X146739113Y-76733199D01*
X146684625Y-76553576D01*
X146596141Y-76388035D01*
X146477063Y-76242937D01*
X146331965Y-76123859D01*
X146166424Y-76035375D01*
X146142282Y-76028051D01*
X146094185Y-75991970D01*
X146079900Y-75943937D01*
X146079900Y-75356062D01*
X146100465Y-75299561D01*
X146142285Y-75271947D01*
X146166424Y-75264625D01*
X146331965Y-75176141D01*
X146477063Y-75057063D01*
X146596141Y-74911965D01*
X146684625Y-74746424D01*
X146739113Y-74566801D01*
X146757511Y-74380000D01*
X146739113Y-74193199D01*
X146684625Y-74013576D01*
X146596141Y-73848035D01*
X146477063Y-73702937D01*
X146331965Y-73583859D01*
X146166424Y-73495375D01*
X146166423Y-73495374D01*
X146166420Y-73495373D01*
X145986807Y-73440888D01*
X145986802Y-73440887D01*
X145986801Y-73440887D01*
X145800000Y-73422489D01*
X145799999Y-73422489D01*
X145755021Y-73426918D01*
X145613199Y-73440887D01*
X145613197Y-73440887D01*
X145613192Y-73440888D01*
X145433580Y-73495373D01*
X145433579Y-73495373D01*
X145268034Y-73583859D01*
X145122939Y-73702935D01*
X145122935Y-73702939D01*
X145003859Y-73848034D01*
X144915373Y-74013579D01*
X144915373Y-74013580D01*
X144860888Y-74193192D01*
X144842489Y-74380000D01*
X144860888Y-74566807D01*
X144915373Y-74746419D01*
X144915373Y-74746420D01*
X144915374Y-74746423D01*
X144915375Y-74746424D01*
X145003859Y-74911965D01*
X145122937Y-75057063D01*
X145268035Y-75176141D01*
X145433576Y-75264625D01*
X145457714Y-75271947D01*
X145505813Y-75308025D01*
X145520100Y-75356062D01*
X145520100Y-75943937D01*
X145499535Y-76000438D01*
X145457717Y-76028051D01*
X145449487Y-76030548D01*
X145433575Y-76035375D01*
X145268034Y-76123859D01*
X145122939Y-76242935D01*
X145122935Y-76242939D01*
X145003859Y-76388034D01*
X144915373Y-76553579D01*
X144915373Y-76553580D01*
X144860888Y-76733192D01*
X144842489Y-76919999D01*
X130004500Y-76919999D01*
X130004500Y-70895500D01*
X140344250Y-70895500D01*
X140344250Y-76610500D01*
X140344251Y-76610500D01*
X142884249Y-76610500D01*
X142884250Y-76610500D01*
X142884250Y-73180000D01*
X146761493Y-73180000D01*
X146779842Y-73319376D01*
X146833639Y-73449254D01*
X146833640Y-73449256D01*
X146909392Y-73547977D01*
X146919218Y-73560782D01*
X146974981Y-73603571D01*
X147022066Y-73639701D01*
X147030746Y-73646361D01*
X147160624Y-73700158D01*
X147300000Y-73718507D01*
X147383093Y-73707567D01*
X147441795Y-73720581D01*
X147456722Y-73732560D01*
X153339657Y-79615495D01*
X153347025Y-79625728D01*
X153347858Y-79625100D01*
X153352767Y-79631601D01*
X153369448Y-79646807D01*
X153385917Y-79661821D01*
X153387350Y-79663188D01*
X153400420Y-79676258D01*
X153400423Y-79676260D01*
X153400424Y-79676261D01*
X153403264Y-79678206D01*
X153408043Y-79681991D01*
X153430099Y-79702098D01*
X153439100Y-79705584D01*
X153457024Y-79715033D01*
X153464984Y-79720486D01*
X153494031Y-79727317D01*
X153499845Y-79729118D01*
X153511008Y-79733442D01*
X153527678Y-79739900D01*
X153537334Y-79739900D01*
X153557456Y-79742234D01*
X153566849Y-79744443D01*
X153596394Y-79740321D01*
X153602472Y-79739900D01*
X157523937Y-79739900D01*
X157580438Y-79760465D01*
X157608051Y-79802282D01*
X157615375Y-79826424D01*
X157703859Y-79991965D01*
X157822937Y-80137063D01*
X157968035Y-80256141D01*
X158133576Y-80344625D01*
X158133578Y-80344625D01*
X158133579Y-80344626D01*
X158253089Y-80380879D01*
X158313199Y-80399113D01*
X158500000Y-80417511D01*
X158686801Y-80399113D01*
X158866424Y-80344625D01*
X159031965Y-80256141D01*
X159177063Y-80137063D01*
X159296141Y-79991965D01*
X159384625Y-79826424D01*
X159439113Y-79646801D01*
X159457511Y-79460000D01*
X159439113Y-79273199D01*
X159424517Y-79225084D01*
X159391948Y-79117717D01*
X159384625Y-79093576D01*
X159296141Y-78928035D01*
X159177063Y-78782937D01*
X159031965Y-78663859D01*
X158866424Y-78575375D01*
X158866423Y-78575374D01*
X158866420Y-78575373D01*
X158686807Y-78520888D01*
X158686802Y-78520887D01*
X158686801Y-78520887D01*
X158500000Y-78502489D01*
X158499999Y-78502489D01*
X158455021Y-78506918D01*
X158313199Y-78520887D01*
X158313197Y-78520887D01*
X158313192Y-78520888D01*
X158133580Y-78575373D01*
X158133579Y-78575373D01*
X157968034Y-78663859D01*
X157822939Y-78782935D01*
X157822935Y-78782939D01*
X157703859Y-78928034D01*
X157615375Y-79093575D01*
X157608052Y-79117717D01*
X157571970Y-79165815D01*
X157523937Y-79180100D01*
X153732348Y-79180100D01*
X153675847Y-79159535D01*
X153670193Y-79154355D01*
X151435838Y-76920000D01*
X157453059Y-76920000D01*
X157471458Y-77106807D01*
X157473177Y-77124254D01*
X157532752Y-77320645D01*
X157532753Y-77320647D01*
X157629500Y-77501649D01*
X157759701Y-77660299D01*
X157918351Y-77790500D01*
X158099353Y-77887247D01*
X158295752Y-77946824D01*
X158448819Y-77961900D01*
X158448825Y-77961900D01*
X163041175Y-77961900D01*
X163041181Y-77961900D01*
X163194248Y-77946824D01*
X163260640Y-77926683D01*
X163286156Y-77922899D01*
X163855058Y-77922899D01*
X163867750Y-77920374D01*
X163899658Y-77914028D01*
X163950234Y-77880234D01*
X163984028Y-77829658D01*
X163992900Y-77785057D01*
X163992899Y-77216153D01*
X163996684Y-77190638D01*
X164016824Y-77124248D01*
X164036941Y-76920000D01*
X164016824Y-76715752D01*
X163996683Y-76649358D01*
X163992899Y-76623843D01*
X163992899Y-76054941D01*
X163987550Y-76028052D01*
X163984028Y-76010342D01*
X163950234Y-75959766D01*
X163950002Y-75959611D01*
X163899658Y-75925971D01*
X163862456Y-75918571D01*
X163855057Y-75917100D01*
X163855056Y-75917100D01*
X163286154Y-75917100D01*
X163260638Y-75913315D01*
X163194254Y-75893177D01*
X163194249Y-75893176D01*
X163194248Y-75893176D01*
X163041181Y-75878100D01*
X158448819Y-75878100D01*
X158295752Y-75893176D01*
X158295750Y-75893176D01*
X158295745Y-75893177D01*
X158099354Y-75952752D01*
X157918350Y-76049500D01*
X157759703Y-76179699D01*
X157759699Y-76179703D01*
X157629500Y-76338350D01*
X157532752Y-76519354D01*
X157473177Y-76715745D01*
X157473176Y-76715750D01*
X157473176Y-76715752D01*
X157453059Y-76920000D01*
X151435838Y-76920000D01*
X148895838Y-74380000D01*
X157453059Y-74380000D01*
X157471458Y-74566807D01*
X157473177Y-74584254D01*
X157532752Y-74780645D01*
X157532753Y-74780647D01*
X157629500Y-74961649D01*
X157759701Y-75120299D01*
X157918351Y-75250500D01*
X158099353Y-75347247D01*
X158295752Y-75406824D01*
X158448819Y-75421900D01*
X158448825Y-75421900D01*
X163041175Y-75421900D01*
X163041181Y-75421900D01*
X163194248Y-75406824D01*
X163390647Y-75347247D01*
X163571649Y-75250500D01*
X163730299Y-75120299D01*
X163860500Y-74961649D01*
X163957247Y-74780647D01*
X164016824Y-74584248D01*
X164036941Y-74380000D01*
X164016824Y-74175752D01*
X163957247Y-73979353D01*
X163860500Y-73798351D01*
X163730299Y-73639701D01*
X163571649Y-73509500D01*
X163390647Y-73412753D01*
X163390646Y-73412752D01*
X163390645Y-73412752D01*
X163194254Y-73353177D01*
X163194249Y-73353176D01*
X163194248Y-73353176D01*
X163041181Y-73338100D01*
X158448819Y-73338100D01*
X158295752Y-73353176D01*
X158295750Y-73353176D01*
X158295745Y-73353177D01*
X158099354Y-73412752D01*
X157918350Y-73509500D01*
X157759703Y-73639699D01*
X157759699Y-73639703D01*
X157629500Y-73798350D01*
X157532752Y-73979354D01*
X157473177Y-74175745D01*
X157473176Y-74175750D01*
X157473176Y-74175752D01*
X157453059Y-74380000D01*
X148895838Y-74380000D01*
X147852560Y-73336722D01*
X147827149Y-73282228D01*
X147827567Y-73263093D01*
X147838507Y-73179999D01*
X147836091Y-73161649D01*
X147820158Y-73040624D01*
X147766361Y-72910747D01*
X147732658Y-72866824D01*
X147680785Y-72799221D01*
X147680783Y-72799219D01*
X147680782Y-72799218D01*
X147625017Y-72756428D01*
X147569256Y-72713640D01*
X147569254Y-72713639D01*
X147439376Y-72659842D01*
X147300000Y-72641493D01*
X147160623Y-72659842D01*
X147030747Y-72713638D01*
X146919219Y-72799216D01*
X146919216Y-72799219D01*
X146833638Y-72910747D01*
X146779842Y-73040623D01*
X146761493Y-73179999D01*
X146761493Y-73180000D01*
X142884250Y-73180000D01*
X142884250Y-70895500D01*
X140344250Y-70895500D01*
X130004500Y-70895500D01*
X130004500Y-69033723D01*
X130006189Y-69016574D01*
X130009486Y-69000000D01*
X129989734Y-68900699D01*
X129933484Y-68816516D01*
X129933098Y-68816258D01*
X129849301Y-68760265D01*
X129775067Y-68745500D01*
X129750000Y-68740514D01*
X129733424Y-68743811D01*
X129716276Y-68745500D01*
X122342400Y-68745500D01*
X122285899Y-68724935D01*
X122255835Y-68672864D01*
X122254500Y-68657600D01*
X122254500Y-66106654D01*
X124246350Y-66106654D01*
X124246351Y-66106671D01*
X124252513Y-66195461D01*
X124301431Y-66403444D01*
X124301434Y-66403455D01*
X124387736Y-66598911D01*
X124387737Y-66598913D01*
X124508480Y-66775176D01*
X124508482Y-66775178D01*
X124508485Y-66775182D01*
X124659568Y-66926265D01*
X124659571Y-66926267D01*
X124659573Y-66926269D01*
X124835836Y-67047012D01*
X124835838Y-67047013D01*
X125015687Y-67126424D01*
X125031299Y-67133317D01*
X125239287Y-67182236D01*
X125328093Y-67188400D01*
X125470406Y-67188399D01*
X125470422Y-67188398D01*
X125509750Y-67185668D01*
X125559213Y-67182236D01*
X125767201Y-67133317D01*
X125962660Y-67047014D01*
X125969637Y-67042235D01*
X126138926Y-66926269D01*
X126138925Y-66926269D01*
X126138932Y-66926265D01*
X126290015Y-66775182D01*
X126410764Y-66598910D01*
X126497067Y-66403451D01*
X126531131Y-66258619D01*
X126564085Y-66208327D01*
X126621656Y-66190984D01*
X126676907Y-66214704D01*
X126701932Y-66257266D01*
X126750837Y-66451348D01*
X126844188Y-66656865D01*
X126972726Y-66842400D01*
X127132349Y-67002023D01*
X127317884Y-67130561D01*
X127523399Y-67223911D01*
X127523400Y-67223912D01*
X127685250Y-67264694D01*
X128193250Y-67264694D01*
X128355099Y-67223912D01*
X128355100Y-67223911D01*
X128560615Y-67130561D01*
X128746150Y-67002023D01*
X128905773Y-66842400D01*
X129034311Y-66656865D01*
X129127662Y-66451348D01*
X129176567Y-66257266D01*
X129210314Y-66207503D01*
X129268153Y-66191074D01*
X129323021Y-66215666D01*
X129347368Y-66258619D01*
X129381431Y-66403444D01*
X129381434Y-66403455D01*
X129467736Y-66598911D01*
X129467737Y-66598913D01*
X129588480Y-66775176D01*
X129588482Y-66775178D01*
X129588485Y-66775182D01*
X129739568Y-66926265D01*
X129739571Y-66926267D01*
X129739573Y-66926269D01*
X129915836Y-67047012D01*
X129915838Y-67047013D01*
X130095687Y-67126424D01*
X130111299Y-67133317D01*
X130319287Y-67182236D01*
X130408093Y-67188400D01*
X130550406Y-67188399D01*
X130550422Y-67188398D01*
X130589750Y-67185668D01*
X130639213Y-67182236D01*
X130847201Y-67133317D01*
X131042660Y-67047014D01*
X131049637Y-67042235D01*
X131218926Y-66926269D01*
X131218925Y-66926269D01*
X131218932Y-66926265D01*
X131221891Y-66923305D01*
X131276377Y-66897887D01*
X131334458Y-66913439D01*
X131346207Y-66923295D01*
X132140421Y-67717510D01*
X132928408Y-68505497D01*
X132935774Y-68515729D01*
X132936608Y-68515100D01*
X132941516Y-68521599D01*
X132974640Y-68551796D01*
X132976109Y-68553198D01*
X132989169Y-68566258D01*
X132992024Y-68568213D01*
X132996797Y-68571995D01*
X133018849Y-68592098D01*
X133027851Y-68595585D01*
X133045769Y-68605030D01*
X133053734Y-68610486D01*
X133082777Y-68617316D01*
X133088595Y-68619118D01*
X133098449Y-68622935D01*
X133116428Y-68629900D01*
X133126084Y-68629900D01*
X133146206Y-68632234D01*
X133155599Y-68634443D01*
X133185144Y-68630321D01*
X133191222Y-68629900D01*
X135048461Y-68629900D01*
X135104962Y-68650465D01*
X135118194Y-68664287D01*
X135169218Y-68730782D01*
X135280746Y-68816361D01*
X135410624Y-68870158D01*
X135550000Y-68888507D01*
X135689376Y-68870158D01*
X135819254Y-68816361D01*
X135930782Y-68730782D01*
X136016361Y-68619254D01*
X136070158Y-68489376D01*
X136088507Y-68350000D01*
X136070158Y-68210624D01*
X136016361Y-68080747D01*
X135981803Y-68035710D01*
X135930785Y-67969221D01*
X135930783Y-67969219D01*
X135930782Y-67969218D01*
X135875017Y-67926428D01*
X135819256Y-67883640D01*
X135819254Y-67883639D01*
X135689376Y-67829842D01*
X135550000Y-67811493D01*
X135410623Y-67829842D01*
X135280747Y-67883638D01*
X135169219Y-67969216D01*
X135169216Y-67969219D01*
X135118197Y-68035710D01*
X135067486Y-68068016D01*
X135048461Y-68070100D01*
X133321098Y-68070100D01*
X133264597Y-68049535D01*
X133258943Y-68044355D01*
X132440526Y-67225938D01*
X132415115Y-67171444D01*
X132430678Y-67113366D01*
X132479931Y-67078878D01*
X132538186Y-67083373D01*
X132635687Y-67126424D01*
X132651299Y-67133317D01*
X132859287Y-67182236D01*
X132948093Y-67188400D01*
X133090406Y-67188399D01*
X133090422Y-67188398D01*
X133129750Y-67185668D01*
X133179213Y-67182236D01*
X133387201Y-67133317D01*
X133582660Y-67047014D01*
X133589637Y-67042235D01*
X133758926Y-66926269D01*
X133758925Y-66926269D01*
X133758932Y-66926265D01*
X133910015Y-66775182D01*
X134030764Y-66598910D01*
X134117067Y-66403451D01*
X134165986Y-66195463D01*
X134172150Y-66106657D01*
X134172150Y-66106654D01*
X134406350Y-66106654D01*
X134406351Y-66106671D01*
X134412513Y-66195461D01*
X134461431Y-66403444D01*
X134461434Y-66403455D01*
X134547736Y-66598911D01*
X134547737Y-66598913D01*
X134668480Y-66775176D01*
X134668482Y-66775178D01*
X134668485Y-66775182D01*
X134819568Y-66926265D01*
X134819571Y-66926267D01*
X134819573Y-66926269D01*
X134995836Y-67047012D01*
X134995838Y-67047013D01*
X135175687Y-67126424D01*
X135191299Y-67133317D01*
X135399287Y-67182236D01*
X135488093Y-67188400D01*
X135630406Y-67188399D01*
X135630422Y-67188398D01*
X135669750Y-67185668D01*
X135719213Y-67182236D01*
X135927201Y-67133317D01*
X136122660Y-67047014D01*
X136129637Y-67042235D01*
X136298926Y-66926269D01*
X136298925Y-66926269D01*
X136298932Y-66926265D01*
X136301891Y-66923305D01*
X136356377Y-66897887D01*
X136414458Y-66913439D01*
X136426207Y-66923295D01*
X138006770Y-68503859D01*
X139558408Y-70055497D01*
X139565774Y-70065729D01*
X139566608Y-70065100D01*
X139571516Y-70071599D01*
X139604640Y-70101796D01*
X139606109Y-70103198D01*
X139619169Y-70116258D01*
X139622024Y-70118213D01*
X139626797Y-70121995D01*
X139648849Y-70142098D01*
X139657851Y-70145585D01*
X139675769Y-70155030D01*
X139683734Y-70160486D01*
X139712777Y-70167316D01*
X139718595Y-70169118D01*
X139722163Y-70170500D01*
X139746428Y-70179900D01*
X139756084Y-70179900D01*
X139776206Y-70182234D01*
X139785599Y-70184443D01*
X139815144Y-70180321D01*
X139821222Y-70179900D01*
X143707652Y-70179900D01*
X143764153Y-70200465D01*
X143769807Y-70205645D01*
X144911900Y-71347738D01*
X144937311Y-71402232D01*
X144927266Y-71451328D01*
X144915375Y-71473573D01*
X144915374Y-71473577D01*
X144860888Y-71653192D01*
X144842489Y-71840000D01*
X144860888Y-72026807D01*
X144915373Y-72206419D01*
X144915373Y-72206420D01*
X144915374Y-72206423D01*
X144915375Y-72206424D01*
X145003859Y-72371965D01*
X145122937Y-72517063D01*
X145268035Y-72636141D01*
X145433576Y-72724625D01*
X145613199Y-72779113D01*
X145800000Y-72797511D01*
X145986801Y-72779113D01*
X146166424Y-72724625D01*
X146331965Y-72636141D01*
X146477063Y-72517063D01*
X146596141Y-72371965D01*
X146684625Y-72206424D01*
X146691948Y-72182282D01*
X146728030Y-72134185D01*
X146776063Y-72119900D01*
X148772292Y-72119900D01*
X148828793Y-72140465D01*
X148858857Y-72192536D01*
X148859110Y-72194050D01*
X148861579Y-72209641D01*
X148861579Y-72209642D01*
X148861580Y-72209644D01*
X148917723Y-72319832D01*
X149005168Y-72407277D01*
X149115356Y-72463420D01*
X149206778Y-72477900D01*
X149206779Y-72477900D01*
X149768221Y-72477900D01*
X149768222Y-72477900D01*
X149859644Y-72463420D01*
X149969832Y-72407277D01*
X150057277Y-72319832D01*
X150113420Y-72209644D01*
X150127900Y-72118222D01*
X150127900Y-72104000D01*
X150571000Y-72104000D01*
X150571000Y-72134515D01*
X150577292Y-72193040D01*
X150577294Y-72193049D01*
X150626685Y-72325473D01*
X150711381Y-72438614D01*
X150711385Y-72438618D01*
X150824526Y-72523314D01*
X150956950Y-72572705D01*
X150956959Y-72572707D01*
X151015484Y-72578999D01*
X151015491Y-72579000D01*
X151058499Y-72579000D01*
X151058500Y-72578999D01*
X151566500Y-72578999D01*
X151566501Y-72579000D01*
X151609509Y-72579000D01*
X151609515Y-72578999D01*
X151668040Y-72572707D01*
X151668049Y-72572705D01*
X151800473Y-72523314D01*
X151913614Y-72438618D01*
X151913618Y-72438614D01*
X151998314Y-72325473D01*
X152047705Y-72193049D01*
X152047707Y-72193040D01*
X152053999Y-72134515D01*
X152054000Y-72134508D01*
X152054000Y-72104001D01*
X152053999Y-72104000D01*
X151566501Y-72104000D01*
X151566500Y-72104001D01*
X151566500Y-72578999D01*
X151058500Y-72578999D01*
X151058500Y-72578998D01*
X151058500Y-72104001D01*
X151058499Y-72104000D01*
X150571000Y-72104000D01*
X150127900Y-72104000D01*
X150127900Y-71840000D01*
X157453059Y-71840000D01*
X157471458Y-72026807D01*
X157473177Y-72044254D01*
X157523347Y-72209641D01*
X157532753Y-72240647D01*
X157629500Y-72421649D01*
X157759701Y-72580299D01*
X157918351Y-72710500D01*
X158099353Y-72807247D01*
X158295752Y-72866824D01*
X158448819Y-72881900D01*
X158448825Y-72881900D01*
X163041175Y-72881900D01*
X163041181Y-72881900D01*
X163194248Y-72866824D01*
X163390647Y-72807247D01*
X163571649Y-72710500D01*
X163730299Y-72580299D01*
X163860500Y-72421649D01*
X163957247Y-72240647D01*
X164016824Y-72044248D01*
X164036941Y-71840000D01*
X164016824Y-71635752D01*
X163957247Y-71439353D01*
X163860500Y-71258351D01*
X163730299Y-71099701D01*
X163571649Y-70969500D01*
X163390647Y-70872753D01*
X163390646Y-70872752D01*
X163390645Y-70872752D01*
X163194254Y-70813177D01*
X163194249Y-70813176D01*
X163194248Y-70813176D01*
X163041181Y-70798100D01*
X158448819Y-70798100D01*
X158295752Y-70813176D01*
X158295750Y-70813176D01*
X158295745Y-70813177D01*
X158099354Y-70872752D01*
X157918350Y-70969500D01*
X157759703Y-71099699D01*
X157759699Y-71099703D01*
X157629500Y-71258350D01*
X157532752Y-71439354D01*
X157473177Y-71635745D01*
X157473176Y-71635750D01*
X157473176Y-71635752D01*
X157453059Y-71840000D01*
X150127900Y-71840000D01*
X150127900Y-71595998D01*
X150571000Y-71595998D01*
X150571001Y-71596000D01*
X151058499Y-71596000D01*
X151058500Y-71595999D01*
X151566500Y-71595999D01*
X151566501Y-71596000D01*
X152053999Y-71596000D01*
X152054000Y-71595999D01*
X152054000Y-71565491D01*
X152053999Y-71565484D01*
X152047707Y-71506959D01*
X152047705Y-71506950D01*
X151998314Y-71374526D01*
X151913618Y-71261385D01*
X151913614Y-71261381D01*
X151800473Y-71176685D01*
X151668049Y-71127294D01*
X151668040Y-71127292D01*
X151609515Y-71121000D01*
X151566501Y-71121000D01*
X151566500Y-71121001D01*
X151566500Y-71595999D01*
X151058500Y-71595999D01*
X151058500Y-71595998D01*
X151058500Y-71121001D01*
X151058499Y-71121000D01*
X151015484Y-71121000D01*
X150956959Y-71127292D01*
X150956950Y-71127294D01*
X150824526Y-71176685D01*
X150711385Y-71261381D01*
X150711381Y-71261385D01*
X150626685Y-71374526D01*
X150577294Y-71506950D01*
X150577292Y-71506959D01*
X150571000Y-71565484D01*
X150571000Y-71595998D01*
X150127900Y-71595998D01*
X150127900Y-71581778D01*
X150113420Y-71490356D01*
X150057277Y-71380168D01*
X149969832Y-71292723D01*
X149859644Y-71236580D01*
X149859642Y-71236579D01*
X149859641Y-71236579D01*
X149789414Y-71225456D01*
X149768222Y-71222100D01*
X149206778Y-71222100D01*
X149189574Y-71224824D01*
X149115358Y-71236579D01*
X149005168Y-71292723D01*
X148917723Y-71380168D01*
X148861578Y-71490360D01*
X148859441Y-71496938D01*
X148856681Y-71496041D01*
X148833138Y-71538530D01*
X148777008Y-71560086D01*
X148775460Y-71560100D01*
X146776063Y-71560100D01*
X146719562Y-71539535D01*
X146691948Y-71497717D01*
X146689716Y-71490360D01*
X146684625Y-71473576D01*
X146596141Y-71308035D01*
X146477063Y-71162937D01*
X146331965Y-71043859D01*
X146166424Y-70955375D01*
X146166423Y-70955374D01*
X146166420Y-70955373D01*
X145986807Y-70900888D01*
X145986802Y-70900887D01*
X145986801Y-70900887D01*
X145800000Y-70882489D01*
X145799999Y-70882489D01*
X145755021Y-70886918D01*
X145613199Y-70900887D01*
X145613197Y-70900887D01*
X145613192Y-70900888D01*
X145433577Y-70955374D01*
X145433573Y-70955375D01*
X145411328Y-70967266D01*
X145351805Y-70975764D01*
X145307738Y-70951900D01*
X144100342Y-69744504D01*
X144092978Y-69734266D01*
X144092141Y-69734899D01*
X144082324Y-69721898D01*
X144085193Y-69719731D01*
X144064116Y-69679513D01*
X144076968Y-69620775D01*
X144124570Y-69584041D01*
X144151232Y-69579900D01*
X144823937Y-69579900D01*
X144880438Y-69600465D01*
X144908051Y-69642282D01*
X144915375Y-69666424D01*
X145003859Y-69831965D01*
X145122937Y-69977063D01*
X145268035Y-70096141D01*
X145433576Y-70184625D01*
X145433578Y-70184625D01*
X145433579Y-70184626D01*
X145502869Y-70205645D01*
X145613199Y-70239113D01*
X145800000Y-70257511D01*
X145986801Y-70239113D01*
X146166424Y-70184625D01*
X146331965Y-70096141D01*
X146477063Y-69977063D01*
X146596141Y-69831965D01*
X146684625Y-69666424D01*
X146691948Y-69642282D01*
X146728030Y-69594185D01*
X146776063Y-69579900D01*
X148773876Y-69579900D01*
X148830377Y-69600465D01*
X148860441Y-69652536D01*
X148860694Y-69654051D01*
X148861579Y-69659641D01*
X148861579Y-69659642D01*
X148861580Y-69659644D01*
X148917723Y-69769832D01*
X149005168Y-69857277D01*
X149115356Y-69913420D01*
X149206778Y-69927900D01*
X149206779Y-69927900D01*
X149768221Y-69927900D01*
X149768222Y-69927900D01*
X149859644Y-69913420D01*
X149969832Y-69857277D01*
X150057277Y-69769832D01*
X150113420Y-69659644D01*
X150125319Y-69584515D01*
X150571000Y-69584515D01*
X150577292Y-69643040D01*
X150577294Y-69643049D01*
X150626685Y-69775473D01*
X150711381Y-69888614D01*
X150711385Y-69888618D01*
X150824526Y-69973314D01*
X150956950Y-70022705D01*
X150956959Y-70022707D01*
X151015484Y-70028999D01*
X151015491Y-70029000D01*
X151058499Y-70029000D01*
X151058500Y-70028999D01*
X151566500Y-70028999D01*
X151566501Y-70029000D01*
X151609509Y-70029000D01*
X151609515Y-70028999D01*
X151668040Y-70022707D01*
X151668049Y-70022705D01*
X151800473Y-69973314D01*
X151913614Y-69888618D01*
X151913618Y-69888614D01*
X151998314Y-69775473D01*
X152047705Y-69643049D01*
X152047707Y-69643040D01*
X152053999Y-69584515D01*
X152054000Y-69584508D01*
X152054000Y-69554001D01*
X152053999Y-69554000D01*
X151566501Y-69554000D01*
X151566500Y-69554001D01*
X151566500Y-70028999D01*
X151058500Y-70028999D01*
X151058500Y-69554001D01*
X151058499Y-69554000D01*
X150571001Y-69554000D01*
X150571000Y-69554001D01*
X150571000Y-69584515D01*
X150125319Y-69584515D01*
X150127900Y-69568222D01*
X150127900Y-69300000D01*
X157453059Y-69300000D01*
X157473177Y-69504254D01*
X157532752Y-69700645D01*
X157532753Y-69700647D01*
X157629500Y-69881649D01*
X157759701Y-70040299D01*
X157918351Y-70170500D01*
X158099353Y-70267247D01*
X158295752Y-70326824D01*
X158448819Y-70341900D01*
X158448825Y-70341900D01*
X163041175Y-70341900D01*
X163041181Y-70341900D01*
X163194248Y-70326824D01*
X163390647Y-70267247D01*
X163571649Y-70170500D01*
X163730299Y-70040299D01*
X163860500Y-69881649D01*
X163957247Y-69700647D01*
X164016824Y-69504248D01*
X164036941Y-69300000D01*
X164016824Y-69095752D01*
X163957247Y-68899353D01*
X163860500Y-68718351D01*
X163730299Y-68559701D01*
X163571649Y-68429500D01*
X163390647Y-68332753D01*
X163390646Y-68332752D01*
X163390645Y-68332752D01*
X163194254Y-68273177D01*
X163194249Y-68273176D01*
X163194248Y-68273176D01*
X163041181Y-68258100D01*
X158448819Y-68258100D01*
X158295752Y-68273176D01*
X158295750Y-68273176D01*
X158295745Y-68273177D01*
X158099354Y-68332752D01*
X157918350Y-68429500D01*
X157759703Y-68559699D01*
X157759699Y-68559703D01*
X157629500Y-68718350D01*
X157532752Y-68899354D01*
X157473177Y-69095745D01*
X157473176Y-69095750D01*
X157473176Y-69095752D01*
X157457049Y-69259486D01*
X157453059Y-69300000D01*
X150127900Y-69300000D01*
X150127900Y-69045999D01*
X150571000Y-69045999D01*
X150571001Y-69046000D01*
X151058499Y-69046000D01*
X151058500Y-69045999D01*
X151058500Y-69045998D01*
X151566500Y-69045998D01*
X151566501Y-69046000D01*
X152053999Y-69046000D01*
X152054000Y-69045998D01*
X152054000Y-69015491D01*
X152053999Y-69015484D01*
X152047707Y-68956959D01*
X152047705Y-68956950D01*
X151998314Y-68824526D01*
X151913618Y-68711385D01*
X151913614Y-68711381D01*
X151800473Y-68626685D01*
X151668049Y-68577294D01*
X151668040Y-68577292D01*
X151609515Y-68571000D01*
X151566501Y-68571000D01*
X151566500Y-68571001D01*
X151566500Y-69045998D01*
X151058500Y-69045998D01*
X151058500Y-68571001D01*
X151058499Y-68571000D01*
X151015484Y-68571000D01*
X150956959Y-68577292D01*
X150956950Y-68577294D01*
X150824526Y-68626685D01*
X150711385Y-68711381D01*
X150711381Y-68711385D01*
X150626685Y-68824526D01*
X150577294Y-68956950D01*
X150577292Y-68956959D01*
X150571000Y-69015484D01*
X150571000Y-69045999D01*
X150127900Y-69045999D01*
X150127900Y-69031778D01*
X150113420Y-68940356D01*
X150057277Y-68830168D01*
X149969832Y-68742723D01*
X149859644Y-68686580D01*
X149859642Y-68686579D01*
X149859641Y-68686579D01*
X149789414Y-68675456D01*
X149768222Y-68672100D01*
X149206778Y-68672100D01*
X149189574Y-68674824D01*
X149115358Y-68686579D01*
X149005168Y-68742723D01*
X148917723Y-68830168D01*
X148861579Y-68940358D01*
X148860694Y-68945949D01*
X148831545Y-68998538D01*
X148775412Y-69020087D01*
X148773876Y-69020100D01*
X146776063Y-69020100D01*
X146719562Y-68999535D01*
X146691948Y-68957717D01*
X146686682Y-68940358D01*
X146684625Y-68933576D01*
X146596141Y-68768035D01*
X146477063Y-68622937D01*
X146331965Y-68503859D01*
X146166424Y-68415375D01*
X146166423Y-68415374D01*
X146166420Y-68415373D01*
X145986807Y-68360888D01*
X145986802Y-68360887D01*
X145986801Y-68360887D01*
X145800000Y-68342489D01*
X145799999Y-68342489D01*
X145755021Y-68346918D01*
X145613199Y-68360887D01*
X145613197Y-68360887D01*
X145613192Y-68360888D01*
X145433580Y-68415373D01*
X145433579Y-68415373D01*
X145268034Y-68503859D01*
X145122939Y-68622935D01*
X145122935Y-68622939D01*
X145003859Y-68768034D01*
X144915375Y-68933575D01*
X144908052Y-68957717D01*
X144871970Y-69005815D01*
X144823937Y-69020100D01*
X140102349Y-69020100D01*
X140045848Y-68999535D01*
X140040194Y-68994355D01*
X138404895Y-67359055D01*
X138379484Y-67304561D01*
X138379150Y-67296900D01*
X138379150Y-67223650D01*
X138399715Y-67167149D01*
X138446926Y-67138085D01*
X138467201Y-67133317D01*
X138662660Y-67047014D01*
X138669637Y-67042235D01*
X138838926Y-66926269D01*
X138838925Y-66926269D01*
X138838932Y-66926265D01*
X138990015Y-66775182D01*
X139110764Y-66598910D01*
X139197067Y-66403451D01*
X139245986Y-66195463D01*
X139252150Y-66106657D01*
X139252150Y-66106654D01*
X139486350Y-66106654D01*
X139486351Y-66106671D01*
X139492513Y-66195461D01*
X139541431Y-66403444D01*
X139541434Y-66403455D01*
X139627736Y-66598911D01*
X139627737Y-66598913D01*
X139748480Y-66775176D01*
X139748482Y-66775178D01*
X139748485Y-66775182D01*
X139899568Y-66926265D01*
X139899571Y-66926267D01*
X139899573Y-66926269D01*
X140075836Y-67047012D01*
X140075838Y-67047013D01*
X140255687Y-67126424D01*
X140271299Y-67133317D01*
X140479287Y-67182236D01*
X140568093Y-67188400D01*
X140710406Y-67188399D01*
X140710422Y-67188398D01*
X140749750Y-67185668D01*
X140799213Y-67182236D01*
X141007201Y-67133317D01*
X141202660Y-67047014D01*
X141206413Y-67044443D01*
X141378925Y-66926270D01*
X141378925Y-66926269D01*
X141378932Y-66926265D01*
X141380738Y-66924458D01*
X141381582Y-66924064D01*
X141382055Y-66923672D01*
X141382158Y-66923796D01*
X141435223Y-66899037D01*
X141493305Y-66914587D01*
X141505383Y-66926235D01*
X141505496Y-66926112D01*
X141529517Y-66948009D01*
X141544667Y-66961821D01*
X141546100Y-66963188D01*
X141559170Y-66976258D01*
X141559173Y-66976260D01*
X141559174Y-66976261D01*
X141562014Y-66978206D01*
X141566793Y-66981991D01*
X141588849Y-67002098D01*
X141597850Y-67005584D01*
X141615777Y-67015035D01*
X141620429Y-67018222D01*
X141623733Y-67020485D01*
X141623734Y-67020486D01*
X141652781Y-67027317D01*
X141658597Y-67029117D01*
X141686428Y-67039900D01*
X141696082Y-67039900D01*
X141716206Y-67042234D01*
X141725599Y-67044444D01*
X141755150Y-67040321D01*
X141761228Y-67039900D01*
X144823937Y-67039900D01*
X144880438Y-67060465D01*
X144908051Y-67102282D01*
X144915375Y-67126424D01*
X145003859Y-67291965D01*
X145122937Y-67437063D01*
X145268035Y-67556141D01*
X145433576Y-67644625D01*
X145613199Y-67699113D01*
X145800000Y-67717511D01*
X145986801Y-67699113D01*
X146166424Y-67644625D01*
X146331965Y-67556141D01*
X146477063Y-67437063D01*
X146596141Y-67291965D01*
X146684625Y-67126424D01*
X146691948Y-67102282D01*
X146728030Y-67054185D01*
X146776063Y-67039900D01*
X148775460Y-67039900D01*
X148831961Y-67060465D01*
X148857010Y-67103851D01*
X148859441Y-67103062D01*
X148861578Y-67109639D01*
X148861579Y-67109642D01*
X148861580Y-67109644D01*
X148917723Y-67219832D01*
X149005168Y-67307277D01*
X149115356Y-67363420D01*
X149206778Y-67377900D01*
X149206779Y-67377900D01*
X149768221Y-67377900D01*
X149768222Y-67377900D01*
X149859644Y-67363420D01*
X149969832Y-67307277D01*
X150057277Y-67219832D01*
X150113420Y-67109644D01*
X150125319Y-67034515D01*
X150571000Y-67034515D01*
X150577292Y-67093040D01*
X150577294Y-67093049D01*
X150626685Y-67225473D01*
X150711381Y-67338614D01*
X150711385Y-67338618D01*
X150824526Y-67423314D01*
X150956950Y-67472705D01*
X150956959Y-67472707D01*
X151015484Y-67478999D01*
X151015491Y-67479000D01*
X151058499Y-67479000D01*
X151058500Y-67478998D01*
X151566500Y-67478998D01*
X151566501Y-67479000D01*
X151609509Y-67479000D01*
X151609515Y-67478999D01*
X151668040Y-67472707D01*
X151668049Y-67472705D01*
X151800473Y-67423314D01*
X151913614Y-67338618D01*
X151913618Y-67338614D01*
X151998314Y-67225473D01*
X152047705Y-67093049D01*
X152047707Y-67093040D01*
X152053999Y-67034515D01*
X152054000Y-67034508D01*
X152054000Y-67004001D01*
X152053999Y-67004000D01*
X151566501Y-67004000D01*
X151566500Y-67004001D01*
X151566500Y-67478998D01*
X151058500Y-67478998D01*
X151058500Y-67004001D01*
X151058499Y-67004000D01*
X150571001Y-67004000D01*
X150571000Y-67004001D01*
X150571000Y-67034515D01*
X150125319Y-67034515D01*
X150127900Y-67018222D01*
X150127900Y-66505999D01*
X157475622Y-66505999D01*
X157475623Y-66506000D01*
X158188314Y-66506000D01*
X158172359Y-66521955D01*
X158114835Y-66634852D01*
X158095014Y-66760000D01*
X158114835Y-66885148D01*
X158172359Y-66998045D01*
X158188314Y-67014000D01*
X157475623Y-67014000D01*
X157521517Y-67165295D01*
X157521517Y-67165296D01*
X157619391Y-67348404D01*
X157751101Y-67508894D01*
X157751105Y-67508898D01*
X157911595Y-67640608D01*
X158094703Y-67738482D01*
X158245998Y-67784377D01*
X158245999Y-67784376D01*
X158245999Y-67071685D01*
X158261955Y-67087641D01*
X158374852Y-67145165D01*
X158468519Y-67160000D01*
X158531481Y-67160000D01*
X158625148Y-67145165D01*
X158738045Y-67087641D01*
X158754000Y-67071686D01*
X158754000Y-67784377D01*
X158905295Y-67738482D01*
X158905296Y-67738482D01*
X159088404Y-67640608D01*
X159248894Y-67508898D01*
X159248898Y-67508894D01*
X159380608Y-67348404D01*
X159478482Y-67165296D01*
X159478482Y-67165295D01*
X159524377Y-67014000D01*
X158811686Y-67014000D01*
X158827641Y-66998045D01*
X158885165Y-66885148D01*
X158904986Y-66760000D01*
X158885165Y-66634852D01*
X158827641Y-66521955D01*
X158811686Y-66506000D01*
X159524377Y-66506000D01*
X159524377Y-66505999D01*
X159478482Y-66354704D01*
X159478482Y-66354703D01*
X159380608Y-66171595D01*
X159248898Y-66011105D01*
X159248894Y-66011101D01*
X159088404Y-65879391D01*
X158905299Y-65781518D01*
X158754000Y-65735621D01*
X158754000Y-66448314D01*
X158738045Y-66432359D01*
X158625148Y-66374835D01*
X158531481Y-66360000D01*
X158468519Y-66360000D01*
X158374852Y-66374835D01*
X158261955Y-66432359D01*
X158245999Y-66448315D01*
X158245999Y-65735622D01*
X158245998Y-65735622D01*
X158094699Y-65781519D01*
X157911595Y-65879391D01*
X157751105Y-66011101D01*
X157751101Y-66011105D01*
X157619391Y-66171595D01*
X157521517Y-66354703D01*
X157521517Y-66354704D01*
X157475622Y-66505999D01*
X150127900Y-66505999D01*
X150127900Y-66495998D01*
X150571000Y-66495998D01*
X150571001Y-66496000D01*
X151058499Y-66496000D01*
X151058500Y-66495998D01*
X151566500Y-66495998D01*
X151566501Y-66496000D01*
X152053999Y-66496000D01*
X152054000Y-66495998D01*
X152054000Y-66465491D01*
X152053999Y-66465484D01*
X152047707Y-66406959D01*
X152047705Y-66406950D01*
X151998314Y-66274526D01*
X151913618Y-66161385D01*
X151913614Y-66161381D01*
X151800473Y-66076685D01*
X151668049Y-66027294D01*
X151668040Y-66027292D01*
X151609515Y-66021000D01*
X151566501Y-66021000D01*
X151566500Y-66021001D01*
X151566500Y-66495998D01*
X151058500Y-66495998D01*
X151058500Y-66021001D01*
X151058499Y-66021000D01*
X151015484Y-66021000D01*
X150956959Y-66027292D01*
X150956950Y-66027294D01*
X150824526Y-66076685D01*
X150711385Y-66161381D01*
X150711381Y-66161385D01*
X150626685Y-66274526D01*
X150577294Y-66406950D01*
X150577292Y-66406959D01*
X150571000Y-66465484D01*
X150571000Y-66495998D01*
X150127900Y-66495998D01*
X150127900Y-66481778D01*
X150113420Y-66390356D01*
X150057277Y-66280168D01*
X149969832Y-66192723D01*
X149859644Y-66136580D01*
X149859642Y-66136579D01*
X149859641Y-66136579D01*
X149789414Y-66125456D01*
X149768222Y-66122100D01*
X149206778Y-66122100D01*
X149189574Y-66124824D01*
X149115358Y-66136579D01*
X149005168Y-66192723D01*
X148917723Y-66280168D01*
X148861579Y-66390358D01*
X148859110Y-66405950D01*
X148829960Y-66458539D01*
X148773826Y-66480087D01*
X148772292Y-66480100D01*
X146776063Y-66480100D01*
X146719562Y-66459535D01*
X146691948Y-66417717D01*
X146684625Y-66393576D01*
X146596141Y-66228035D01*
X146477063Y-66082937D01*
X146331965Y-65963859D01*
X146166424Y-65875375D01*
X146166423Y-65875374D01*
X146166420Y-65875373D01*
X145986807Y-65820888D01*
X145986802Y-65820887D01*
X145986801Y-65820887D01*
X145800000Y-65802489D01*
X145799999Y-65802489D01*
X145755021Y-65806918D01*
X145613199Y-65820887D01*
X145613197Y-65820887D01*
X145613192Y-65820888D01*
X145433580Y-65875373D01*
X145433579Y-65875373D01*
X145268034Y-65963859D01*
X145122939Y-66082935D01*
X145122935Y-66082939D01*
X145003859Y-66228034D01*
X144915375Y-66393575D01*
X144908052Y-66417717D01*
X144871970Y-66465815D01*
X144823937Y-66480100D01*
X141891098Y-66480100D01*
X141834597Y-66459535D01*
X141828944Y-66454355D01*
X141779488Y-66404900D01*
X141754077Y-66350407D01*
X141756076Y-66322626D01*
X141785986Y-66195463D01*
X141792150Y-66106657D01*
X141792149Y-65214344D01*
X141785986Y-65125537D01*
X141737067Y-64917549D01*
X141717535Y-64873314D01*
X141650763Y-64722088D01*
X141650762Y-64722086D01*
X141530019Y-64545823D01*
X141530017Y-64545821D01*
X141530015Y-64545818D01*
X141384197Y-64400000D01*
X142561493Y-64400000D01*
X142579842Y-64539376D01*
X142633639Y-64669254D01*
X142633640Y-64669256D01*
X142674180Y-64722088D01*
X142719218Y-64780782D01*
X142830746Y-64866361D01*
X142960624Y-64920158D01*
X143100000Y-64938507D01*
X143239376Y-64920158D01*
X143369254Y-64866361D01*
X143480782Y-64780782D01*
X143566361Y-64669254D01*
X143620158Y-64539376D01*
X143638507Y-64400000D01*
X143627567Y-64316903D01*
X143640581Y-64258203D01*
X143652555Y-64243281D01*
X143675836Y-64220000D01*
X144842489Y-64220000D01*
X144860217Y-64400000D01*
X144860888Y-64406807D01*
X144915373Y-64586419D01*
X144915373Y-64586420D01*
X144915374Y-64586423D01*
X144915375Y-64586424D01*
X145003859Y-64751965D01*
X145122937Y-64897063D01*
X145268035Y-65016141D01*
X145433576Y-65104625D01*
X145433578Y-65104625D01*
X145433579Y-65104626D01*
X145517275Y-65130015D01*
X145613199Y-65159113D01*
X145800000Y-65177511D01*
X145986801Y-65159113D01*
X146166424Y-65104625D01*
X146331965Y-65016141D01*
X146477063Y-64897063D01*
X146596141Y-64751965D01*
X146684625Y-64586424D01*
X146691948Y-64562282D01*
X146728030Y-64514185D01*
X146776063Y-64499900D01*
X148778305Y-64499900D01*
X148834806Y-64520465D01*
X148857424Y-64553997D01*
X148858440Y-64553480D01*
X148861579Y-64559642D01*
X148861580Y-64559644D01*
X148917723Y-64669832D01*
X149005168Y-64757277D01*
X149115356Y-64813420D01*
X149206778Y-64827900D01*
X149206779Y-64827900D01*
X149768221Y-64827900D01*
X149768222Y-64827900D01*
X149859644Y-64813420D01*
X149969832Y-64757277D01*
X150057277Y-64669832D01*
X150113420Y-64559644D01*
X150127900Y-64468222D01*
X150127900Y-64454000D01*
X150571000Y-64454000D01*
X150571000Y-64484515D01*
X150577292Y-64543040D01*
X150577294Y-64543049D01*
X150626685Y-64675473D01*
X150711381Y-64788614D01*
X150711385Y-64788618D01*
X150824526Y-64873314D01*
X150956950Y-64922705D01*
X150956959Y-64922707D01*
X151015484Y-64928999D01*
X151015491Y-64929000D01*
X151058499Y-64929000D01*
X151058500Y-64928999D01*
X151058500Y-64928998D01*
X151566500Y-64928998D01*
X151566501Y-64929000D01*
X151609509Y-64929000D01*
X151609515Y-64928999D01*
X151668040Y-64922707D01*
X151668049Y-64922705D01*
X151800473Y-64873314D01*
X151913614Y-64788618D01*
X151913618Y-64788614D01*
X151998314Y-64675473D01*
X152047705Y-64543049D01*
X152047707Y-64543040D01*
X152053999Y-64484515D01*
X152054000Y-64484508D01*
X152054000Y-64454001D01*
X152053999Y-64454000D01*
X151566501Y-64454000D01*
X151566500Y-64454001D01*
X151566500Y-64928998D01*
X151058500Y-64928998D01*
X151058500Y-64454001D01*
X151058499Y-64454000D01*
X150571000Y-64454000D01*
X150127900Y-64454000D01*
X150127900Y-64220000D01*
X157542489Y-64220000D01*
X157560217Y-64400000D01*
X157560888Y-64406807D01*
X157615373Y-64586419D01*
X157615373Y-64586420D01*
X157615374Y-64586423D01*
X157615375Y-64586424D01*
X157703859Y-64751965D01*
X157822937Y-64897063D01*
X157968035Y-65016141D01*
X158133576Y-65104625D01*
X158133578Y-65104625D01*
X158133579Y-65104626D01*
X158217275Y-65130015D01*
X158313199Y-65159113D01*
X158500000Y-65177511D01*
X158686801Y-65159113D01*
X158866424Y-65104625D01*
X159031965Y-65016141D01*
X159177063Y-64897063D01*
X159296141Y-64751965D01*
X159384625Y-64586424D01*
X159439113Y-64406801D01*
X159457511Y-64220000D01*
X159439113Y-64033199D01*
X159384625Y-63853576D01*
X159296141Y-63688035D01*
X159177063Y-63542937D01*
X159031965Y-63423859D01*
X158866424Y-63335375D01*
X158866423Y-63335374D01*
X158866420Y-63335373D01*
X158686807Y-63280888D01*
X158686802Y-63280887D01*
X158686801Y-63280887D01*
X158500000Y-63262489D01*
X158313199Y-63280887D01*
X158313197Y-63280887D01*
X158313192Y-63280888D01*
X158133580Y-63335373D01*
X158133579Y-63335373D01*
X157968034Y-63423859D01*
X157822939Y-63542935D01*
X157822935Y-63542939D01*
X157703859Y-63688034D01*
X157615373Y-63853579D01*
X157615373Y-63853580D01*
X157560888Y-64033192D01*
X157560887Y-64033197D01*
X157560887Y-64033199D01*
X157542489Y-64220000D01*
X150127900Y-64220000D01*
X150127900Y-63945998D01*
X150571000Y-63945998D01*
X150571001Y-63946000D01*
X151058499Y-63946000D01*
X151058500Y-63945999D01*
X151058500Y-63945998D01*
X151566500Y-63945998D01*
X151566501Y-63946000D01*
X152053999Y-63946000D01*
X152054000Y-63945999D01*
X152054000Y-63915491D01*
X152053999Y-63915484D01*
X152047707Y-63856959D01*
X152047705Y-63856950D01*
X151998314Y-63724526D01*
X151913618Y-63611385D01*
X151913614Y-63611381D01*
X151800473Y-63526685D01*
X151668049Y-63477294D01*
X151668040Y-63477292D01*
X151609515Y-63471000D01*
X151566501Y-63471000D01*
X151566500Y-63471001D01*
X151566500Y-63945998D01*
X151058500Y-63945998D01*
X151058500Y-63471001D01*
X151058499Y-63471000D01*
X151015484Y-63471000D01*
X150956959Y-63477292D01*
X150956950Y-63477294D01*
X150824526Y-63526685D01*
X150711385Y-63611381D01*
X150711381Y-63611385D01*
X150626685Y-63724526D01*
X150577294Y-63856950D01*
X150577292Y-63856959D01*
X150571000Y-63915484D01*
X150571000Y-63945998D01*
X150127900Y-63945998D01*
X150127900Y-63931778D01*
X150113420Y-63840356D01*
X150057277Y-63730168D01*
X149969832Y-63642723D01*
X149859644Y-63586580D01*
X149859642Y-63586579D01*
X149859641Y-63586579D01*
X149789414Y-63575456D01*
X149768222Y-63572100D01*
X149206778Y-63572100D01*
X149189574Y-63574824D01*
X149115358Y-63586579D01*
X149005168Y-63642723D01*
X148917723Y-63730168D01*
X148861579Y-63840358D01*
X148857526Y-63865951D01*
X148828375Y-63918539D01*
X148772242Y-63940087D01*
X148770708Y-63940100D01*
X146776063Y-63940100D01*
X146719562Y-63919535D01*
X146691948Y-63877717D01*
X146684625Y-63853576D01*
X146596141Y-63688035D01*
X146477063Y-63542937D01*
X146331965Y-63423859D01*
X146166424Y-63335375D01*
X146166423Y-63335374D01*
X146166420Y-63335373D01*
X145986807Y-63280888D01*
X145986802Y-63280887D01*
X145986801Y-63280887D01*
X145800000Y-63262489D01*
X145799999Y-63262489D01*
X145755021Y-63266918D01*
X145613199Y-63280887D01*
X145613197Y-63280887D01*
X145613192Y-63280888D01*
X145433580Y-63335373D01*
X145433579Y-63335373D01*
X145268034Y-63423859D01*
X145122939Y-63542935D01*
X145122935Y-63542939D01*
X145003859Y-63688034D01*
X144915373Y-63853579D01*
X144915373Y-63853580D01*
X144860888Y-64033192D01*
X144860887Y-64033197D01*
X144860887Y-64033199D01*
X144842489Y-64220000D01*
X143675836Y-64220000D01*
X145415495Y-62480342D01*
X145425730Y-62472987D01*
X145425095Y-62472146D01*
X145431599Y-62467234D01*
X145456759Y-62439634D01*
X145461821Y-62434081D01*
X145463168Y-62432670D01*
X145476258Y-62419581D01*
X145478213Y-62416726D01*
X145481983Y-62411964D01*
X145502098Y-62389901D01*
X145505584Y-62380900D01*
X145515034Y-62362973D01*
X145520486Y-62355016D01*
X145527319Y-62325961D01*
X145529116Y-62320156D01*
X145539900Y-62292322D01*
X145539900Y-62282663D01*
X145542235Y-62262537D01*
X145544443Y-62253151D01*
X145540321Y-62223605D01*
X145539900Y-62217528D01*
X145539900Y-60990799D01*
X145560465Y-60934298D01*
X145612536Y-60904234D01*
X145627800Y-60902899D01*
X146125058Y-60902899D01*
X146137750Y-60900374D01*
X146169658Y-60894028D01*
X146220234Y-60860234D01*
X146254028Y-60809658D01*
X146262900Y-60765057D01*
X146262899Y-59900000D01*
X146792247Y-59900000D01*
X146811612Y-60096609D01*
X146863543Y-60267800D01*
X146868958Y-60285650D01*
X146962084Y-60459878D01*
X147087411Y-60612589D01*
X147240122Y-60737916D01*
X147414350Y-60831042D01*
X147603397Y-60888389D01*
X147800000Y-60907753D01*
X147996603Y-60888389D01*
X148185650Y-60831042D01*
X148359878Y-60737916D01*
X148512589Y-60612589D01*
X148637916Y-60459878D01*
X148731042Y-60285650D01*
X148788389Y-60096603D01*
X148807753Y-59900000D01*
X148788389Y-59703397D01*
X148770977Y-59645999D01*
X149264450Y-59645999D01*
X149264451Y-59646000D01*
X149908884Y-59646000D01*
X149880507Y-59690156D01*
X149840000Y-59828111D01*
X149840000Y-59971889D01*
X149880507Y-60109844D01*
X149908884Y-60154000D01*
X149264451Y-60154000D01*
X149306139Y-60300515D01*
X149306140Y-60300518D01*
X149397341Y-60483674D01*
X149520632Y-60646938D01*
X149520640Y-60646947D01*
X149671839Y-60784785D01*
X149671841Y-60784786D01*
X149845792Y-60892492D01*
X149845797Y-60892494D01*
X150036575Y-60966402D01*
X150036584Y-60966405D01*
X150086000Y-60975641D01*
X150086000Y-60333674D01*
X150197685Y-60384680D01*
X150304237Y-60400000D01*
X150375763Y-60400000D01*
X150482315Y-60384680D01*
X150594000Y-60333674D01*
X150594000Y-60975641D01*
X150643415Y-60966405D01*
X150643424Y-60966402D01*
X150834202Y-60892494D01*
X150834207Y-60892492D01*
X151008158Y-60784786D01*
X151008160Y-60784785D01*
X151159359Y-60646947D01*
X151159367Y-60646938D01*
X151270329Y-60500000D01*
X160490881Y-60500000D01*
X160511331Y-60785933D01*
X160572262Y-61066027D01*
X160572264Y-61066035D01*
X160672440Y-61334616D01*
X160809821Y-61586210D01*
X160809826Y-61586217D01*
X160914604Y-61726184D01*
X161561857Y-61078930D01*
X161664894Y-61223624D01*
X161816932Y-61368592D01*
X161922665Y-61436542D01*
X161273814Y-62085394D01*
X161413782Y-62190173D01*
X161413789Y-62190178D01*
X161665383Y-62327559D01*
X161933964Y-62427735D01*
X161933972Y-62427737D01*
X162214066Y-62488668D01*
X162500000Y-62509118D01*
X162785933Y-62488668D01*
X163066027Y-62427737D01*
X163066035Y-62427735D01*
X163334616Y-62327559D01*
X163586210Y-62190178D01*
X163586219Y-62190172D01*
X163726184Y-62085395D01*
X163726184Y-62085394D01*
X163079573Y-61438784D01*
X163097410Y-61429589D01*
X163262540Y-61299729D01*
X163400110Y-61140965D01*
X163436736Y-61077526D01*
X164085394Y-61726184D01*
X164085395Y-61726184D01*
X164190172Y-61586219D01*
X164190178Y-61586210D01*
X164327559Y-61334616D01*
X164427735Y-61066035D01*
X164427737Y-61066027D01*
X164488668Y-60785933D01*
X164509118Y-60500000D01*
X164488668Y-60214066D01*
X164427737Y-59933972D01*
X164427735Y-59933964D01*
X164327559Y-59665383D01*
X164190178Y-59413789D01*
X164190173Y-59413782D01*
X164085394Y-59273814D01*
X163438141Y-59921067D01*
X163335106Y-59776376D01*
X163183068Y-59631408D01*
X163077332Y-59563455D01*
X163726184Y-58914604D01*
X163586217Y-58809826D01*
X163586210Y-58809821D01*
X163334616Y-58672440D01*
X163066035Y-58572264D01*
X163066027Y-58572262D01*
X162785933Y-58511331D01*
X162500000Y-58490881D01*
X162214066Y-58511331D01*
X161933972Y-58572262D01*
X161933964Y-58572264D01*
X161665383Y-58672440D01*
X161413789Y-58809821D01*
X161413782Y-58809826D01*
X161273814Y-58914603D01*
X161920426Y-59561215D01*
X161902590Y-59570411D01*
X161737460Y-59700271D01*
X161599890Y-59859035D01*
X161563263Y-59922474D01*
X160914603Y-59273814D01*
X160809826Y-59413782D01*
X160809821Y-59413789D01*
X160672440Y-59665383D01*
X160572264Y-59933964D01*
X160572262Y-59933972D01*
X160511331Y-60214066D01*
X160490881Y-60500000D01*
X151270329Y-60500000D01*
X151282658Y-60483674D01*
X151373859Y-60300518D01*
X151373860Y-60300515D01*
X151415549Y-60154000D01*
X150771116Y-60154000D01*
X150799493Y-60109844D01*
X150840000Y-59971889D01*
X150840000Y-59828111D01*
X150799493Y-59690156D01*
X150771116Y-59646000D01*
X151415549Y-59646000D01*
X151415549Y-59645999D01*
X151373860Y-59499484D01*
X151373859Y-59499481D01*
X151282658Y-59316325D01*
X151159367Y-59153061D01*
X151159359Y-59153052D01*
X151008160Y-59015214D01*
X151008158Y-59015213D01*
X150834207Y-58907507D01*
X150834202Y-58907505D01*
X150643418Y-58833595D01*
X150643410Y-58833592D01*
X150594000Y-58824356D01*
X150594000Y-59466325D01*
X150482315Y-59415320D01*
X150375763Y-59400000D01*
X150304237Y-59400000D01*
X150197685Y-59415320D01*
X150086000Y-59466325D01*
X150086000Y-58824356D01*
X150085999Y-58824356D01*
X150036589Y-58833592D01*
X150036581Y-58833595D01*
X149845797Y-58907505D01*
X149845792Y-58907507D01*
X149671841Y-59015213D01*
X149671839Y-59015214D01*
X149520640Y-59153052D01*
X149520632Y-59153061D01*
X149397341Y-59316325D01*
X149306140Y-59499481D01*
X149306139Y-59499484D01*
X149264450Y-59645999D01*
X148770977Y-59645999D01*
X148731042Y-59514350D01*
X148637916Y-59340122D01*
X148512589Y-59187411D01*
X148359878Y-59062084D01*
X148185650Y-58968958D01*
X148185649Y-58968957D01*
X148185648Y-58968957D01*
X147996609Y-58911612D01*
X147996604Y-58911611D01*
X147996603Y-58911611D01*
X147800000Y-58892247D01*
X147603397Y-58911611D01*
X147603395Y-58911611D01*
X147603390Y-58911612D01*
X147414351Y-58968957D01*
X147240121Y-59062084D01*
X147087413Y-59187409D01*
X147087409Y-59187413D01*
X146962084Y-59340121D01*
X146868957Y-59514351D01*
X146811612Y-59703390D01*
X146792247Y-59900000D01*
X146262899Y-59900000D01*
X146262899Y-59034944D01*
X146262899Y-59034943D01*
X146262899Y-59034941D01*
X146258975Y-59015213D01*
X146254028Y-58990342D01*
X146220234Y-58939766D01*
X146220002Y-58939611D01*
X146169658Y-58905971D01*
X146132456Y-58898571D01*
X146125057Y-58897100D01*
X146125056Y-58897100D01*
X144394941Y-58897100D01*
X144350341Y-58905972D01*
X144299767Y-58939765D01*
X144299764Y-58939768D01*
X144265971Y-58990341D01*
X144257100Y-59034943D01*
X144257100Y-60765058D01*
X144261253Y-60785933D01*
X144265972Y-60809658D01*
X144299766Y-60860234D01*
X144316701Y-60871550D01*
X144350341Y-60894028D01*
X144357741Y-60895499D01*
X144394943Y-60902900D01*
X144892200Y-60902899D01*
X144948701Y-60923464D01*
X144978765Y-60975535D01*
X144980100Y-60990799D01*
X144980100Y-62087651D01*
X144959535Y-62144152D01*
X144954355Y-62149806D01*
X143256721Y-63847439D01*
X143202227Y-63872850D01*
X143183093Y-63872432D01*
X143100000Y-63861493D01*
X142960623Y-63879842D01*
X142830747Y-63933638D01*
X142719219Y-64019216D01*
X142719216Y-64019219D01*
X142633638Y-64130747D01*
X142579842Y-64260623D01*
X142561493Y-64399999D01*
X142561493Y-64400000D01*
X141384197Y-64400000D01*
X141378932Y-64394735D01*
X141378928Y-64394732D01*
X141378926Y-64394730D01*
X141202663Y-64273987D01*
X141202661Y-64273986D01*
X141007205Y-64187684D01*
X141007194Y-64187681D01*
X140799211Y-64138763D01*
X140739349Y-64134608D01*
X140710407Y-64132600D01*
X140710401Y-64132600D01*
X140568093Y-64132600D01*
X140568077Y-64132601D01*
X140479288Y-64138763D01*
X140271305Y-64187681D01*
X140271294Y-64187684D01*
X140075838Y-64273986D01*
X140075836Y-64273987D01*
X139899573Y-64394730D01*
X139748480Y-64545823D01*
X139627737Y-64722086D01*
X139627736Y-64722088D01*
X139541434Y-64917544D01*
X139541431Y-64917555D01*
X139492513Y-65125538D01*
X139486350Y-65214341D01*
X139486350Y-66106654D01*
X139252150Y-66106654D01*
X139252149Y-65214344D01*
X139245986Y-65125537D01*
X139197067Y-64917549D01*
X139177535Y-64873314D01*
X139110763Y-64722088D01*
X139110762Y-64722086D01*
X138990019Y-64545823D01*
X138990017Y-64545821D01*
X138990015Y-64545818D01*
X138838932Y-64394735D01*
X138838928Y-64394732D01*
X138838926Y-64394730D01*
X138662663Y-64273987D01*
X138662661Y-64273986D01*
X138467205Y-64187684D01*
X138467194Y-64187681D01*
X138259211Y-64138763D01*
X138199349Y-64134608D01*
X138170407Y-64132600D01*
X138170401Y-64132600D01*
X138028093Y-64132600D01*
X138028077Y-64132601D01*
X137939288Y-64138763D01*
X137731305Y-64187681D01*
X137731294Y-64187684D01*
X137535838Y-64273986D01*
X137535836Y-64273987D01*
X137359573Y-64394730D01*
X137208480Y-64545823D01*
X137087737Y-64722086D01*
X137087736Y-64722088D01*
X137001434Y-64917544D01*
X137001431Y-64917555D01*
X136952513Y-65125538D01*
X136946350Y-65214341D01*
X136946350Y-66106654D01*
X136946351Y-66106671D01*
X136952513Y-66195461D01*
X136999110Y-66393575D01*
X137001433Y-66403451D01*
X137028823Y-66465484D01*
X137051377Y-66516564D01*
X137055386Y-66576557D01*
X137019894Y-66625092D01*
X136961508Y-66639458D01*
X136908811Y-66614223D01*
X136699487Y-66404899D01*
X136674076Y-66350405D01*
X136676076Y-66322626D01*
X136705986Y-66195463D01*
X136712150Y-66106657D01*
X136712149Y-65214344D01*
X136705986Y-65125537D01*
X136657067Y-64917549D01*
X136637535Y-64873314D01*
X136570763Y-64722088D01*
X136570762Y-64722086D01*
X136450019Y-64545823D01*
X136450017Y-64545821D01*
X136450015Y-64545818D01*
X136298932Y-64394735D01*
X136298928Y-64394732D01*
X136298926Y-64394730D01*
X136122663Y-64273987D01*
X136122661Y-64273986D01*
X135927205Y-64187684D01*
X135927194Y-64187681D01*
X135719211Y-64138763D01*
X135659349Y-64134608D01*
X135630407Y-64132600D01*
X135630401Y-64132600D01*
X135488093Y-64132600D01*
X135488077Y-64132601D01*
X135399288Y-64138763D01*
X135191305Y-64187681D01*
X135191294Y-64187684D01*
X134995838Y-64273986D01*
X134995836Y-64273987D01*
X134819573Y-64394730D01*
X134668480Y-64545823D01*
X134547737Y-64722086D01*
X134547736Y-64722088D01*
X134461434Y-64917544D01*
X134461431Y-64917555D01*
X134412513Y-65125538D01*
X134406350Y-65214341D01*
X134406350Y-66106654D01*
X134172150Y-66106654D01*
X134172149Y-65214344D01*
X134165986Y-65125537D01*
X134117067Y-64917549D01*
X134097535Y-64873314D01*
X134030763Y-64722088D01*
X134030762Y-64722086D01*
X133910019Y-64545823D01*
X133910017Y-64545821D01*
X133910015Y-64545818D01*
X133765087Y-64400890D01*
X133739677Y-64346398D01*
X133755240Y-64288320D01*
X133765088Y-64276582D01*
X134180178Y-63861493D01*
X134638025Y-63403645D01*
X134692520Y-63378234D01*
X134700181Y-63377900D01*
X135226554Y-63377900D01*
X135226555Y-63377900D01*
X135317977Y-63363420D01*
X135428165Y-63307277D01*
X135515610Y-63219832D01*
X135571753Y-63109644D01*
X135572638Y-63104051D01*
X135601788Y-63051462D01*
X135657921Y-63029913D01*
X135659457Y-63029900D01*
X135790542Y-63029900D01*
X135847043Y-63050465D01*
X135877107Y-63102536D01*
X135877360Y-63104051D01*
X135878245Y-63109641D01*
X135878245Y-63109642D01*
X135878246Y-63109644D01*
X135934389Y-63219832D01*
X136021834Y-63307277D01*
X136132022Y-63363420D01*
X136223444Y-63377900D01*
X136223445Y-63377900D01*
X136784887Y-63377900D01*
X136784888Y-63377900D01*
X136876310Y-63363420D01*
X136986498Y-63307277D01*
X137073943Y-63219832D01*
X137130086Y-63109644D01*
X137144566Y-63018222D01*
X137144566Y-62481778D01*
X137130086Y-62390356D01*
X137073943Y-62280168D01*
X136986498Y-62192723D01*
X136876310Y-62136580D01*
X136876308Y-62136579D01*
X136876307Y-62136579D01*
X136797275Y-62124062D01*
X136784888Y-62122100D01*
X136223444Y-62122100D01*
X136211057Y-62124062D01*
X136132024Y-62136579D01*
X136021834Y-62192723D01*
X135934389Y-62280168D01*
X135878245Y-62390358D01*
X135877360Y-62395949D01*
X135848211Y-62448538D01*
X135792078Y-62470087D01*
X135790542Y-62470100D01*
X135659457Y-62470100D01*
X135602956Y-62449535D01*
X135572892Y-62397464D01*
X135572639Y-62395949D01*
X135571753Y-62390358D01*
X135571753Y-62390356D01*
X135515610Y-62280168D01*
X135428165Y-62192723D01*
X135317977Y-62136580D01*
X135317975Y-62136579D01*
X135317974Y-62136579D01*
X135238942Y-62124062D01*
X135226555Y-62122100D01*
X134565111Y-62122100D01*
X134552724Y-62124062D01*
X134473691Y-62136579D01*
X134363501Y-62192723D01*
X134276056Y-62280168D01*
X134219912Y-62390358D01*
X134205432Y-62481778D01*
X134205432Y-63008151D01*
X134184867Y-63064652D01*
X134179687Y-63070306D01*
X134108023Y-63141970D01*
X134053529Y-63167381D01*
X133995451Y-63151818D01*
X133960963Y-63102565D01*
X133958472Y-63070418D01*
X133962332Y-63034512D01*
X133962333Y-63034509D01*
X133962333Y-63004001D01*
X133962332Y-63004000D01*
X133424833Y-63004000D01*
X133424833Y-63478999D01*
X133424834Y-63479000D01*
X133517842Y-63479000D01*
X133517845Y-63478999D01*
X133553751Y-63475139D01*
X133612126Y-63489545D01*
X133647585Y-63538104D01*
X133643534Y-63598095D01*
X133625303Y-63624690D01*
X133143138Y-64106855D01*
X133088644Y-64132266D01*
X133080984Y-64132600D01*
X132948093Y-64132600D01*
X132948077Y-64132601D01*
X132859288Y-64138763D01*
X132651305Y-64187681D01*
X132651294Y-64187684D01*
X132455838Y-64273986D01*
X132455836Y-64273987D01*
X132279573Y-64394730D01*
X132128480Y-64545823D01*
X132007737Y-64722086D01*
X132007736Y-64722088D01*
X131921434Y-64917544D01*
X131921431Y-64917555D01*
X131872513Y-65125538D01*
X131866350Y-65214341D01*
X131866350Y-66106654D01*
X131866351Y-66106671D01*
X131872513Y-66195461D01*
X131919110Y-66393575D01*
X131921433Y-66403451D01*
X131948823Y-66465484D01*
X131971377Y-66516564D01*
X131975386Y-66576557D01*
X131939894Y-66625092D01*
X131881508Y-66639458D01*
X131828811Y-66614223D01*
X131619487Y-66404899D01*
X131594076Y-66350405D01*
X131596076Y-66322626D01*
X131625986Y-66195463D01*
X131632150Y-66106657D01*
X131632149Y-65214344D01*
X131625986Y-65125537D01*
X131577067Y-64917549D01*
X131557535Y-64873314D01*
X131490763Y-64722088D01*
X131490762Y-64722086D01*
X131370019Y-64545823D01*
X131370017Y-64545821D01*
X131370015Y-64545818D01*
X131218932Y-64394735D01*
X131218928Y-64394732D01*
X131218926Y-64394730D01*
X131042663Y-64273987D01*
X131042661Y-64273986D01*
X130847205Y-64187684D01*
X130847194Y-64187681D01*
X130639211Y-64138763D01*
X130579349Y-64134608D01*
X130550407Y-64132600D01*
X130550401Y-64132600D01*
X130408093Y-64132600D01*
X130408077Y-64132601D01*
X130319288Y-64138763D01*
X130111305Y-64187681D01*
X130111294Y-64187684D01*
X129915838Y-64273986D01*
X129915836Y-64273987D01*
X129739573Y-64394730D01*
X129588480Y-64545823D01*
X129467737Y-64722086D01*
X129467736Y-64722088D01*
X129381434Y-64917544D01*
X129381431Y-64917555D01*
X129347368Y-65062380D01*
X129314414Y-65112672D01*
X129256842Y-65130015D01*
X129201592Y-65106294D01*
X129176567Y-65063733D01*
X129127662Y-64869651D01*
X129034311Y-64664134D01*
X128905773Y-64478599D01*
X128746150Y-64318976D01*
X128560615Y-64190438D01*
X128355098Y-64097087D01*
X128193250Y-64056304D01*
X128193250Y-67264694D01*
X127685250Y-67264694D01*
X127685250Y-64041043D01*
X127672011Y-64019915D01*
X127680305Y-63960363D01*
X127695804Y-63939387D01*
X128452547Y-63182645D01*
X128507042Y-63157234D01*
X128514703Y-63156900D01*
X129081793Y-63156900D01*
X129138294Y-63177465D01*
X129160112Y-63204895D01*
X129167723Y-63219832D01*
X129255168Y-63307277D01*
X129365356Y-63363420D01*
X129456778Y-63377900D01*
X129456779Y-63377900D01*
X130093221Y-63377900D01*
X130093222Y-63377900D01*
X130184644Y-63363420D01*
X130294832Y-63307277D01*
X130382277Y-63219832D01*
X130438420Y-63109644D01*
X130452900Y-63018222D01*
X130452900Y-63018221D01*
X130847100Y-63018221D01*
X130861579Y-63109641D01*
X130861579Y-63109642D01*
X130861580Y-63109644D01*
X130917723Y-63219832D01*
X131005168Y-63307277D01*
X131115356Y-63363420D01*
X131206778Y-63377900D01*
X131206779Y-63377900D01*
X131843221Y-63377900D01*
X131843222Y-63377900D01*
X131934644Y-63363420D01*
X132044832Y-63307277D01*
X132132277Y-63219832D01*
X132188420Y-63109644D01*
X132200319Y-63034515D01*
X132379333Y-63034515D01*
X132385625Y-63093040D01*
X132385627Y-63093049D01*
X132435018Y-63225473D01*
X132519714Y-63338614D01*
X132519718Y-63338618D01*
X132632859Y-63423314D01*
X132765283Y-63472705D01*
X132765292Y-63472707D01*
X132823817Y-63478999D01*
X132823824Y-63479000D01*
X132916832Y-63479000D01*
X132916833Y-63478998D01*
X132916833Y-63004001D01*
X132916832Y-63004000D01*
X132379334Y-63004000D01*
X132379333Y-63004001D01*
X132379333Y-63034515D01*
X132200319Y-63034515D01*
X132202900Y-63018222D01*
X132202900Y-62495999D01*
X132379333Y-62495999D01*
X132379334Y-62496000D01*
X132916832Y-62496000D01*
X132916833Y-62495998D01*
X132916833Y-62021001D01*
X132916832Y-62021000D01*
X133424833Y-62021000D01*
X133424833Y-62495999D01*
X133424834Y-62496000D01*
X133962332Y-62496000D01*
X133962333Y-62495999D01*
X133962333Y-62465490D01*
X133962332Y-62465484D01*
X133956040Y-62406959D01*
X133956038Y-62406950D01*
X133906647Y-62274526D01*
X133821951Y-62161385D01*
X133821947Y-62161381D01*
X133708806Y-62076685D01*
X133576382Y-62027294D01*
X133576373Y-62027292D01*
X133517848Y-62021000D01*
X133424833Y-62021000D01*
X132916832Y-62021000D01*
X132823817Y-62021000D01*
X132765292Y-62027292D01*
X132765283Y-62027294D01*
X132632859Y-62076685D01*
X132519718Y-62161381D01*
X132519714Y-62161385D01*
X132435018Y-62274526D01*
X132385627Y-62406950D01*
X132385625Y-62406959D01*
X132379333Y-62465484D01*
X132379333Y-62495999D01*
X132202900Y-62495999D01*
X132202900Y-62481778D01*
X132188420Y-62390356D01*
X132132277Y-62280168D01*
X132044832Y-62192723D01*
X131934644Y-62136580D01*
X131934642Y-62136579D01*
X131934641Y-62136579D01*
X131855609Y-62124062D01*
X131843222Y-62122100D01*
X131206778Y-62122100D01*
X131194391Y-62124062D01*
X131115358Y-62136579D01*
X131005168Y-62192723D01*
X130917723Y-62280168D01*
X130861579Y-62390358D01*
X130847100Y-62481778D01*
X130847100Y-63018221D01*
X130452900Y-63018221D01*
X130452900Y-62481778D01*
X130438420Y-62390356D01*
X130382277Y-62280168D01*
X130294832Y-62192723D01*
X130184644Y-62136580D01*
X130184642Y-62136579D01*
X130184641Y-62136579D01*
X130105609Y-62124062D01*
X130093222Y-62122100D01*
X129456778Y-62122100D01*
X129444391Y-62124062D01*
X129365358Y-62136579D01*
X129255168Y-62192723D01*
X129167721Y-62280170D01*
X129160113Y-62295104D01*
X129116140Y-62336112D01*
X129081793Y-62343100D01*
X128374197Y-62343100D01*
X128245304Y-62343100D01*
X128236171Y-62346066D01*
X128221038Y-62350983D01*
X128207635Y-62354200D01*
X128182447Y-62358190D01*
X128182441Y-62358192D01*
X128159717Y-62369770D01*
X128146979Y-62375046D01*
X128122718Y-62382929D01*
X128102078Y-62397924D01*
X128090328Y-62405124D01*
X128067601Y-62416705D01*
X128067598Y-62416708D01*
X128003163Y-62481140D01*
X128003142Y-62481164D01*
X126161250Y-64323055D01*
X126106756Y-64348466D01*
X126049420Y-64333417D01*
X125962663Y-64273987D01*
X125962661Y-64273986D01*
X125767205Y-64187684D01*
X125767194Y-64187681D01*
X125559211Y-64138763D01*
X125499349Y-64134608D01*
X125470407Y-64132600D01*
X125470401Y-64132600D01*
X125328093Y-64132600D01*
X125328077Y-64132601D01*
X125239288Y-64138763D01*
X125031305Y-64187681D01*
X125031294Y-64187684D01*
X124835838Y-64273986D01*
X124835836Y-64273987D01*
X124659573Y-64394730D01*
X124508480Y-64545823D01*
X124387737Y-64722086D01*
X124387736Y-64722088D01*
X124301434Y-64917544D01*
X124301431Y-64917555D01*
X124252513Y-65125538D01*
X124246350Y-65214341D01*
X124246350Y-66106654D01*
X122254500Y-66106654D01*
X122254500Y-60500000D01*
X122740881Y-60500000D01*
X122761331Y-60785933D01*
X122822262Y-61066027D01*
X122822264Y-61066035D01*
X122922440Y-61334616D01*
X123059821Y-61586210D01*
X123059826Y-61586217D01*
X123164604Y-61726184D01*
X123811857Y-61078930D01*
X123914894Y-61223624D01*
X124066932Y-61368592D01*
X124172665Y-61436542D01*
X123523814Y-62085394D01*
X123663782Y-62190173D01*
X123663789Y-62190178D01*
X123915383Y-62327559D01*
X124183964Y-62427735D01*
X124183972Y-62427737D01*
X124464066Y-62488668D01*
X124750000Y-62509118D01*
X125035933Y-62488668D01*
X125316027Y-62427737D01*
X125316035Y-62427735D01*
X125584616Y-62327559D01*
X125836210Y-62190178D01*
X125836219Y-62190172D01*
X125976184Y-62085395D01*
X125976184Y-62085394D01*
X125329573Y-61438784D01*
X125347410Y-61429589D01*
X125512540Y-61299729D01*
X125650110Y-61140965D01*
X125686736Y-61077525D01*
X126335394Y-61726184D01*
X126335395Y-61726184D01*
X126440172Y-61586219D01*
X126440178Y-61586210D01*
X126577559Y-61334616D01*
X126677735Y-61066035D01*
X126677737Y-61066027D01*
X126738668Y-60785933D01*
X126759118Y-60500000D01*
X126738668Y-60214066D01*
X126677737Y-59933972D01*
X126677735Y-59933964D01*
X126577559Y-59665383D01*
X126566975Y-59645999D01*
X130084450Y-59645999D01*
X130084451Y-59646000D01*
X130728884Y-59646000D01*
X130700507Y-59690156D01*
X130660000Y-59828111D01*
X130660000Y-59971889D01*
X130700507Y-60109844D01*
X130728884Y-60154000D01*
X130084451Y-60154000D01*
X130126139Y-60300515D01*
X130126140Y-60300518D01*
X130217341Y-60483674D01*
X130340632Y-60646938D01*
X130340640Y-60646947D01*
X130491839Y-60784785D01*
X130491841Y-60784786D01*
X130665792Y-60892492D01*
X130665797Y-60892494D01*
X130856575Y-60966402D01*
X130856584Y-60966405D01*
X130906000Y-60975641D01*
X130906000Y-60333674D01*
X131017685Y-60384680D01*
X131124237Y-60400000D01*
X131195763Y-60400000D01*
X131302315Y-60384680D01*
X131413999Y-60333675D01*
X131413999Y-60975641D01*
X131463415Y-60966405D01*
X131463420Y-60966403D01*
X131654202Y-60892494D01*
X131654207Y-60892492D01*
X131828158Y-60784786D01*
X131828160Y-60784785D01*
X131849799Y-60765058D01*
X132697100Y-60765058D01*
X132701253Y-60785933D01*
X132705972Y-60809658D01*
X132739766Y-60860234D01*
X132756701Y-60871550D01*
X132790341Y-60894028D01*
X132797741Y-60895499D01*
X132834943Y-60902900D01*
X134565056Y-60902899D01*
X134565058Y-60902899D01*
X134577750Y-60900374D01*
X134609658Y-60894028D01*
X134660234Y-60860234D01*
X134694028Y-60809658D01*
X134702900Y-60765057D01*
X134702900Y-60267799D01*
X134723465Y-60211299D01*
X134775536Y-60181235D01*
X134790800Y-60179900D01*
X136249201Y-60179900D01*
X136305702Y-60200465D01*
X136335766Y-60252536D01*
X136337101Y-60267799D01*
X136337101Y-60765056D01*
X136345972Y-60809658D01*
X136379766Y-60860234D01*
X136396701Y-60871550D01*
X136430341Y-60894028D01*
X136437741Y-60895499D01*
X136474943Y-60902900D01*
X136972200Y-60902899D01*
X137028701Y-60923464D01*
X137058765Y-60975535D01*
X137060100Y-60990799D01*
X137060100Y-61700837D01*
X137058071Y-61713282D01*
X137059107Y-61713427D01*
X137057982Y-61721492D01*
X137060053Y-61766285D01*
X137060100Y-61768315D01*
X137060100Y-61786776D01*
X137060735Y-61790173D01*
X137061435Y-61796216D01*
X137062814Y-61826026D01*
X137066714Y-61834859D01*
X137072704Y-61854202D01*
X137074478Y-61863692D01*
X137074481Y-61863699D01*
X137090187Y-61889064D01*
X137093029Y-61894455D01*
X137105084Y-61921756D01*
X137111914Y-61928586D01*
X137124486Y-61944458D01*
X137129568Y-61952665D01*
X137129571Y-61952669D01*
X137153374Y-61970644D01*
X137157971Y-61974644D01*
X137663021Y-62479692D01*
X137688432Y-62534186D01*
X137688766Y-62541847D01*
X137688766Y-63018221D01*
X137703245Y-63109641D01*
X137703245Y-63109642D01*
X137703246Y-63109644D01*
X137759389Y-63219832D01*
X137846834Y-63307277D01*
X137957022Y-63363420D01*
X138048444Y-63377900D01*
X138048445Y-63377900D01*
X138609887Y-63377900D01*
X138609888Y-63377900D01*
X138701310Y-63363420D01*
X138811498Y-63307277D01*
X138898943Y-63219832D01*
X138955086Y-63109644D01*
X138955971Y-63104051D01*
X138985121Y-63051462D01*
X139041254Y-63029913D01*
X139042790Y-63029900D01*
X139173876Y-63029900D01*
X139230377Y-63050465D01*
X139260441Y-63102536D01*
X139260694Y-63104051D01*
X139261579Y-63109641D01*
X139261579Y-63109642D01*
X139261580Y-63109644D01*
X139317723Y-63219832D01*
X139405168Y-63307277D01*
X139515356Y-63363420D01*
X139606778Y-63377900D01*
X139606779Y-63377900D01*
X140168221Y-63377900D01*
X140168222Y-63377900D01*
X140259644Y-63363420D01*
X140369832Y-63307277D01*
X140457277Y-63219832D01*
X140513420Y-63109644D01*
X140527900Y-63018222D01*
X140527900Y-63018221D01*
X141072100Y-63018221D01*
X141086579Y-63109641D01*
X141086579Y-63109642D01*
X141086580Y-63109644D01*
X141142723Y-63219832D01*
X141230168Y-63307277D01*
X141340356Y-63363420D01*
X141431778Y-63377900D01*
X141431779Y-63377900D01*
X141993221Y-63377900D01*
X141993222Y-63377900D01*
X142084644Y-63363420D01*
X142194832Y-63307277D01*
X142282277Y-63219832D01*
X142338420Y-63109644D01*
X142352900Y-63018222D01*
X142352900Y-62481778D01*
X142338420Y-62390356D01*
X142282277Y-62280168D01*
X142194832Y-62192723D01*
X142084644Y-62136580D01*
X142084642Y-62136579D01*
X142084641Y-62136579D01*
X142005609Y-62124062D01*
X141993222Y-62122100D01*
X141431778Y-62122100D01*
X141419391Y-62124062D01*
X141340358Y-62136579D01*
X141230168Y-62192723D01*
X141142723Y-62280168D01*
X141086579Y-62390358D01*
X141072100Y-62481778D01*
X141072100Y-63018221D01*
X140527900Y-63018221D01*
X140527900Y-62481778D01*
X140513420Y-62390356D01*
X140457277Y-62280168D01*
X140369832Y-62192723D01*
X140259644Y-62136580D01*
X140259642Y-62136579D01*
X140259641Y-62136579D01*
X140180609Y-62124062D01*
X140168222Y-62122100D01*
X139606778Y-62122100D01*
X139594391Y-62124062D01*
X139515358Y-62136579D01*
X139405168Y-62192723D01*
X139317723Y-62280168D01*
X139261579Y-62390358D01*
X139260694Y-62395949D01*
X139231545Y-62448538D01*
X139175412Y-62470087D01*
X139173876Y-62470100D01*
X139042790Y-62470100D01*
X138986289Y-62449535D01*
X138956225Y-62397464D01*
X138955972Y-62395949D01*
X138955086Y-62390358D01*
X138955086Y-62390356D01*
X138898943Y-62280168D01*
X138811498Y-62192723D01*
X138701310Y-62136580D01*
X138701308Y-62136579D01*
X138701307Y-62136579D01*
X138622275Y-62124062D01*
X138609888Y-62122100D01*
X138609887Y-62122100D01*
X138133514Y-62122100D01*
X138077013Y-62101535D01*
X138071359Y-62096355D01*
X137645645Y-61670641D01*
X137620234Y-61616147D01*
X137619900Y-61608486D01*
X137619900Y-60990799D01*
X137640465Y-60934298D01*
X137692536Y-60904234D01*
X137707800Y-60902899D01*
X138205058Y-60902899D01*
X138217750Y-60900374D01*
X138249658Y-60894028D01*
X138300234Y-60860234D01*
X138334028Y-60809658D01*
X138342900Y-60765057D01*
X138342899Y-59645999D01*
X138804450Y-59645999D01*
X138804451Y-59646000D01*
X139448884Y-59646000D01*
X139420507Y-59690156D01*
X139380000Y-59828111D01*
X139380000Y-59971889D01*
X139420507Y-60109844D01*
X139448884Y-60154000D01*
X138804451Y-60154000D01*
X138846139Y-60300515D01*
X138846140Y-60300518D01*
X138937341Y-60483674D01*
X139060632Y-60646938D01*
X139060640Y-60646947D01*
X139211839Y-60784785D01*
X139211841Y-60784786D01*
X139385792Y-60892492D01*
X139385797Y-60892494D01*
X139576575Y-60966402D01*
X139576584Y-60966405D01*
X139626000Y-60975641D01*
X139626000Y-60333674D01*
X139737685Y-60384680D01*
X139844237Y-60400000D01*
X139915763Y-60400000D01*
X140022315Y-60384680D01*
X140134000Y-60333674D01*
X140134000Y-60975640D01*
X140183415Y-60966405D01*
X140183424Y-60966402D01*
X140374202Y-60892494D01*
X140374207Y-60892492D01*
X140548158Y-60784786D01*
X140548160Y-60784785D01*
X140699359Y-60646947D01*
X140699367Y-60646938D01*
X140822658Y-60483674D01*
X140913859Y-60300518D01*
X140913860Y-60300515D01*
X140955549Y-60154000D01*
X140311116Y-60154000D01*
X140339493Y-60109844D01*
X140380000Y-59971889D01*
X140380000Y-59828111D01*
X140339493Y-59690156D01*
X140311116Y-59646000D01*
X140955549Y-59646000D01*
X140955549Y-59645999D01*
X140913860Y-59499484D01*
X140913859Y-59499481D01*
X140822658Y-59316325D01*
X140699367Y-59153061D01*
X140699359Y-59153052D01*
X140548160Y-59015214D01*
X140548158Y-59015213D01*
X140374207Y-58907507D01*
X140374202Y-58907505D01*
X140183418Y-58833595D01*
X140183410Y-58833592D01*
X140134000Y-58824356D01*
X140134000Y-59466325D01*
X140022315Y-59415320D01*
X139915763Y-59400000D01*
X139844237Y-59400000D01*
X139737685Y-59415320D01*
X139626000Y-59466325D01*
X139626000Y-58824356D01*
X139625999Y-58824356D01*
X139576589Y-58833592D01*
X139576581Y-58833595D01*
X139385797Y-58907505D01*
X139385792Y-58907507D01*
X139211841Y-59015213D01*
X139211839Y-59015214D01*
X139060640Y-59153052D01*
X139060632Y-59153061D01*
X138937341Y-59316325D01*
X138846140Y-59499481D01*
X138846139Y-59499484D01*
X138804450Y-59645999D01*
X138342899Y-59645999D01*
X138342899Y-59034944D01*
X138342899Y-59034943D01*
X138342899Y-59034941D01*
X138338975Y-59015213D01*
X138334028Y-58990342D01*
X138300234Y-58939766D01*
X138300002Y-58939611D01*
X138249658Y-58905971D01*
X138212456Y-58898571D01*
X138205057Y-58897100D01*
X138205056Y-58897100D01*
X136474941Y-58897100D01*
X136430341Y-58905972D01*
X136379767Y-58939765D01*
X136379764Y-58939768D01*
X136345971Y-58990341D01*
X136337100Y-59034943D01*
X136337100Y-59532200D01*
X136316535Y-59588701D01*
X136264464Y-59618765D01*
X136249200Y-59620100D01*
X134790799Y-59620100D01*
X134734298Y-59599535D01*
X134704234Y-59547464D01*
X134702899Y-59532200D01*
X134702899Y-59034941D01*
X134698975Y-59015213D01*
X134694028Y-58990342D01*
X134660234Y-58939766D01*
X134660002Y-58939611D01*
X134609658Y-58905971D01*
X134572456Y-58898571D01*
X134565057Y-58897100D01*
X134565056Y-58897100D01*
X132834941Y-58897100D01*
X132790341Y-58905972D01*
X132739767Y-58939765D01*
X132739764Y-58939768D01*
X132705971Y-58990341D01*
X132697100Y-59034943D01*
X132697100Y-60765058D01*
X131849799Y-60765058D01*
X131979359Y-60646947D01*
X131979367Y-60646938D01*
X132102658Y-60483674D01*
X132193859Y-60300518D01*
X132193860Y-60300515D01*
X132235549Y-60154000D01*
X131591116Y-60154000D01*
X131619493Y-60109844D01*
X131660000Y-59971889D01*
X131660000Y-59828111D01*
X131619493Y-59690156D01*
X131591116Y-59646000D01*
X132235549Y-59646000D01*
X132235549Y-59645999D01*
X132193860Y-59499484D01*
X132193859Y-59499481D01*
X132102658Y-59316325D01*
X131979367Y-59153061D01*
X131979359Y-59153052D01*
X131828160Y-59015214D01*
X131828158Y-59015213D01*
X131654207Y-58907507D01*
X131654202Y-58907505D01*
X131463421Y-58833596D01*
X131463408Y-58833592D01*
X131413999Y-58824356D01*
X131413999Y-59466324D01*
X131302315Y-59415320D01*
X131195763Y-59400000D01*
X131124237Y-59400000D01*
X131017685Y-59415320D01*
X130905999Y-59466325D01*
X130905999Y-58824356D01*
X130856589Y-58833592D01*
X130856581Y-58833595D01*
X130665797Y-58907505D01*
X130665792Y-58907507D01*
X130491841Y-59015213D01*
X130491839Y-59015214D01*
X130340640Y-59153052D01*
X130340632Y-59153061D01*
X130217341Y-59316325D01*
X130126140Y-59499481D01*
X130126139Y-59499484D01*
X130084450Y-59645999D01*
X126566975Y-59645999D01*
X126440178Y-59413789D01*
X126440173Y-59413782D01*
X126335394Y-59273814D01*
X125688140Y-59921067D01*
X125585106Y-59776376D01*
X125433068Y-59631408D01*
X125327332Y-59563455D01*
X125976184Y-58914604D01*
X125836217Y-58809826D01*
X125836210Y-58809821D01*
X125584616Y-58672440D01*
X125316035Y-58572264D01*
X125316027Y-58572262D01*
X125035933Y-58511331D01*
X124750000Y-58490881D01*
X124464066Y-58511331D01*
X124183972Y-58572262D01*
X124183964Y-58572264D01*
X123915383Y-58672440D01*
X123663789Y-58809821D01*
X123663782Y-58809826D01*
X123523814Y-58914603D01*
X124170426Y-59561215D01*
X124152590Y-59570411D01*
X123987460Y-59700271D01*
X123849890Y-59859035D01*
X123813263Y-59922474D01*
X123164603Y-59273814D01*
X123059826Y-59413782D01*
X123059821Y-59413789D01*
X122922440Y-59665383D01*
X122822264Y-59933964D01*
X122822262Y-59933972D01*
X122761331Y-60214066D01*
X122740881Y-60500000D01*
X122254500Y-60500000D01*
X122254500Y-58342400D01*
X122275065Y-58285899D01*
X122327136Y-58255835D01*
X122342400Y-58254500D01*
X164657600Y-58254500D01*
X164714101Y-58275065D01*
G37*
%TD.AperFunction*%
%TD*%
M02*
