%TF.GenerationSoftware,KiCad,Pcbnew,7.0.5*%
%TF.CreationDate,2023-08-05T10:41:14-04:00*%
%TF.ProjectId,Board_To_Be_Tested,426f6172-645f-4546-9f5f-42655f546573,rev?*%
%TF.SameCoordinates,Original*%
%TF.FileFunction,Drillmap*%
%TF.FilePolarity,Positive*%
%FSLAX45Y45*%
G04 Gerber Fmt 4.5, Leading zero omitted, Abs format (unit mm)*
G04 Created by KiCad (PCBNEW 7.0.5) date 2023-08-05 10:41:14*
%MOMM*%
%LPD*%
G01*
G04 APERTURE LIST*
%ADD10C,0.100000*%
%ADD11C,0.200000*%
G04 APERTURE END LIST*
D10*
X12500000Y-10800000D02*
X14500000Y-10800000D01*
X14500000Y-13800000D01*
X12500000Y-13800000D01*
X12500000Y-10800000D01*
D11*
X12755777Y-14116484D02*
X12755777Y-13916484D01*
X12755777Y-13916484D02*
X12803396Y-13916484D01*
X12803396Y-13916484D02*
X12831967Y-13926008D01*
X12831967Y-13926008D02*
X12851015Y-13945055D01*
X12851015Y-13945055D02*
X12860539Y-13964103D01*
X12860539Y-13964103D02*
X12870062Y-14002198D01*
X12870062Y-14002198D02*
X12870062Y-14030769D01*
X12870062Y-14030769D02*
X12860539Y-14068865D01*
X12860539Y-14068865D02*
X12851015Y-14087912D01*
X12851015Y-14087912D02*
X12831967Y-14106960D01*
X12831967Y-14106960D02*
X12803396Y-14116484D01*
X12803396Y-14116484D02*
X12755777Y-14116484D01*
X12955777Y-14116484D02*
X12955777Y-13983150D01*
X12955777Y-14021246D02*
X12965301Y-14002198D01*
X12965301Y-14002198D02*
X12974824Y-13992674D01*
X12974824Y-13992674D02*
X12993872Y-13983150D01*
X12993872Y-13983150D02*
X13012920Y-13983150D01*
X13079586Y-14116484D02*
X13079586Y-13983150D01*
X13079586Y-13916484D02*
X13070062Y-13926008D01*
X13070062Y-13926008D02*
X13079586Y-13935531D01*
X13079586Y-13935531D02*
X13089110Y-13926008D01*
X13089110Y-13926008D02*
X13079586Y-13916484D01*
X13079586Y-13916484D02*
X13079586Y-13935531D01*
X13203396Y-14116484D02*
X13184348Y-14106960D01*
X13184348Y-14106960D02*
X13174824Y-14087912D01*
X13174824Y-14087912D02*
X13174824Y-13916484D01*
X13308158Y-14116484D02*
X13289110Y-14106960D01*
X13289110Y-14106960D02*
X13279586Y-14087912D01*
X13279586Y-14087912D02*
X13279586Y-13916484D01*
X13536729Y-14116484D02*
X13536729Y-13916484D01*
X13536729Y-13916484D02*
X13603396Y-14059341D01*
X13603396Y-14059341D02*
X13670062Y-13916484D01*
X13670062Y-13916484D02*
X13670062Y-14116484D01*
X13851015Y-14116484D02*
X13851015Y-14011722D01*
X13851015Y-14011722D02*
X13841491Y-13992674D01*
X13841491Y-13992674D02*
X13822443Y-13983150D01*
X13822443Y-13983150D02*
X13784348Y-13983150D01*
X13784348Y-13983150D02*
X13765301Y-13992674D01*
X13851015Y-14106960D02*
X13831967Y-14116484D01*
X13831967Y-14116484D02*
X13784348Y-14116484D01*
X13784348Y-14116484D02*
X13765301Y-14106960D01*
X13765301Y-14106960D02*
X13755777Y-14087912D01*
X13755777Y-14087912D02*
X13755777Y-14068865D01*
X13755777Y-14068865D02*
X13765301Y-14049817D01*
X13765301Y-14049817D02*
X13784348Y-14040293D01*
X13784348Y-14040293D02*
X13831967Y-14040293D01*
X13831967Y-14040293D02*
X13851015Y-14030769D01*
X13946253Y-13983150D02*
X13946253Y-14183150D01*
X13946253Y-13992674D02*
X13965301Y-13983150D01*
X13965301Y-13983150D02*
X14003396Y-13983150D01*
X14003396Y-13983150D02*
X14022443Y-13992674D01*
X14022443Y-13992674D02*
X14031967Y-14002198D01*
X14031967Y-14002198D02*
X14041491Y-14021246D01*
X14041491Y-14021246D02*
X14041491Y-14078388D01*
X14041491Y-14078388D02*
X14031967Y-14097436D01*
X14031967Y-14097436D02*
X14022443Y-14106960D01*
X14022443Y-14106960D02*
X14003396Y-14116484D01*
X14003396Y-14116484D02*
X13965301Y-14116484D01*
X13965301Y-14116484D02*
X13946253Y-14106960D01*
X14127205Y-14097436D02*
X14136729Y-14106960D01*
X14136729Y-14106960D02*
X14127205Y-14116484D01*
X14127205Y-14116484D02*
X14117682Y-14106960D01*
X14117682Y-14106960D02*
X14127205Y-14097436D01*
X14127205Y-14097436D02*
X14127205Y-14116484D01*
X14127205Y-13992674D02*
X14136729Y-14002198D01*
X14136729Y-14002198D02*
X14127205Y-14011722D01*
X14127205Y-14011722D02*
X14117682Y-14002198D01*
X14117682Y-14002198D02*
X14127205Y-13992674D01*
X14127205Y-13992674D02*
X14127205Y-14011722D01*
M02*
