<?xml version="1.0" standalone="no"?>
<!DOCTYPE svg PUBLIC "-//W3C//DTD SVG 1.1//EN"
"http://www.w3.org/Graphics/SVG/1.1/DTD/svg11.dtd">
<svg width="88.063" height="122.079" viewBox="0 0 1834.65 2543.31" version="1.1"
xmlns="http://www.w3.org/2000/svg"
xmlns:xlink="http://www.w3.org/1999/xlink">
<polyline points="917.199,2434.02 917.452,2424.01 917.506,2416.68 917.174,2386.12 917.242,2380.5 917.246,2380.41 917.322,2376.23 917.322,2364.25 917.322,179.054 917.322,167.068 917.396,162.888 917.4,162.802 917.468,157.176 917.138,126.644 917.192,119.318 917.433,109.742" style="stroke:rgb(255,0,0);stroke-width:173.228346;fill:none;stroke-opacity:0.5;stroke-linecap:round;stroke-linejoin:round;;fill:none"/>
<polyline points="917.199,2434.02 917.452,2424.01 917.506,2416.68 917.174,2386.12 917.242,2380.5 917.246,2380.41 917.322,2376.23 917.322,2364.25 917.322,179.054 917.322,167.068 917.396,162.888 917.4,162.802 917.468,157.176 917.138,126.644 917.192,119.318 917.433,109.742" style="stroke:rgb(0,0,0);stroke-width:1px;fill:none;stroke-opacity:1;stroke-linecap:round;stroke-linejoin:round;;fill:none"/>
<polyline points="917.199,2434.02 917.452,2424.01 917.506,2416.68 917.174,2386.12 917.242,2380.5 917.246,2380.41 917.322,2376.23 917.322,2364.25 917.322,179.054 917.322,167.068 917.396,162.888 917.4,162.802 917.468,157.176 917.138,126.644 917.192,119.318 917.433,109.742" style="stroke:rgb(255,0,0);stroke-width:173.228346;fill:none;stroke-opacity:0.5;stroke-linecap:round;stroke-linejoin:round;;fill:none"/>
<polyline points="917.199,2434.02 917.452,2424.01 917.506,2416.68 917.174,2386.12 917.242,2380.5 917.246,2380.41 917.322,2376.23 917.322,2364.25 917.322,179.054 917.322,167.068 917.396,162.888 917.4,162.802 917.468,157.176 917.138,126.644 917.192,119.318 917.433,109.742" style="stroke:rgb(0,0,0);stroke-width:1px;fill:none;stroke-opacity:1;stroke-linecap:round;stroke-linejoin:round;;fill:none"/>
<polyline points="917.199,2434.02 917.452,2424.01 917.506,2416.68 917.174,2386.12 917.242,2380.5 917.246,2380.41 917.322,2376.23 917.322,2364.25 917.322,179.054 917.322,167.068 917.396,162.888 917.4,162.802 917.468,157.176 917.138,126.644 917.192,119.318 917.433,109.742" style="stroke:rgb(255,0,0);stroke-width:173.228346;fill:none;stroke-opacity:0.5;stroke-linecap:round;stroke-linejoin:round;;fill:none"/>
<polyline points="917.199,2434.02 917.452,2424.01 917.506,2416.68 917.174,2386.12 917.242,2380.5 917.246,2380.41 917.322,2376.23 917.322,2364.25 917.322,179.054 917.322,167.068 917.396,162.888 917.4,162.802 917.468,157.176 917.138,126.644 917.192,119.318 917.433,109.742" style="stroke:rgb(0,0,0);stroke-width:1px;fill:none;stroke-opacity:1;stroke-linecap:round;stroke-linejoin:round;;fill:none"/>
<polyline points="917.199,2434.02 917.452,2424.01 917.506,2416.68 917.174,2386.12 917.242,2380.5 917.246,2380.41 917.322,2376.23 917.322,2364.25 917.322,179.054 917.322,167.068 917.396,162.888 917.4,162.802 917.468,157.176 917.138,126.644 917.192,119.318 917.433,109.742" style="stroke:rgb(255,0,0);stroke-width:173.228346;fill:none;stroke-opacity:0.5;stroke-linecap:round;stroke-linejoin:round;;fill:none"/>
<polyline points="917.199,2434.02 917.452,2424.01 917.506,2416.68 917.174,2386.12 917.242,2380.5 917.246,2380.41 917.322,2376.23 917.322,2364.25 917.322,179.054 917.322,167.068 917.396,162.888 917.4,162.802 917.468,157.176 917.138,126.644 917.192,119.318 917.433,109.742" style="stroke:rgb(0,0,0);stroke-width:1px;fill:none;stroke-opacity:1;stroke-linecap:round;stroke-linejoin:round;;fill:none"/>
<polyline points="917.199,2434.02 917.452,2424.01 917.506,2416.68 917.174,2386.12 917.242,2380.5 917.246,2380.41 917.322,2376.23 917.322,2364.25 917.322,179.054 917.322,167.068 917.396,162.888 917.4,162.802 917.468,157.176 917.138,126.644 917.192,119.318 917.433,109.742" style="stroke:rgb(255,0,0);stroke-width:173.228346;fill:none;stroke-opacity:0.5;stroke-linecap:round;stroke-linejoin:round;;fill:none"/>
<polyline points="917.199,2434.02 917.452,2424.01 917.506,2416.68 917.174,2386.12 917.242,2380.5 917.246,2380.41 917.322,2376.23 917.322,2364.25 917.322,179.054 917.322,167.068 917.396,162.888 917.4,162.802 917.468,157.176 917.138,126.644 917.192,119.318 917.433,109.742" style="stroke:rgb(0,0,0);stroke-width:1px;fill:none;stroke-opacity:1;stroke-linecap:round;stroke-linejoin:round;;fill:none"/>
<polyline points="917.199,2434.02 917.452,2424.01 917.506,2416.68 917.174,2386.12 917.242,2380.5 917.246,2380.41 917.322,2376.23 917.322,2364.25 917.322,179.054 917.322,167.068 917.396,162.888 917.4,162.802 917.468,157.176 917.138,126.644 917.192,119.318 917.433,109.742" style="stroke:rgb(255,0,0);stroke-width:173.228346;fill:none;stroke-opacity:0.5;stroke-linecap:round;stroke-linejoin:round;;fill:none"/>
<polyline points="917.199,2434.02 917.452,2424.01 917.506,2416.68 917.174,2386.12 917.242,2380.5 917.246,2380.41 917.322,2376.23 917.322,2364.25 917.322,179.054 917.322,167.068 917.396,162.888 917.4,162.802 917.468,157.176 917.138,126.644 917.192,119.318 917.433,109.742" style="stroke:rgb(0,0,0);stroke-width:1px;fill:none;stroke-opacity:1;stroke-linecap:round;stroke-linejoin:round;;fill:none"/>
<polyline points="917.199,2434.02 917.452,2424.01 917.506,2416.68 917.174,2386.12 917.242,2380.5 917.246,2380.41 917.322,2376.23 917.322,2364.25 917.322,179.054 917.322,167.068 917.396,162.888 917.4,162.802 917.468,157.176 917.138,126.644 917.192,119.318 917.433,109.742" style="stroke:rgb(255,0,0);stroke-width:173.228346;fill:none;stroke-opacity:0.5;stroke-linecap:round;stroke-linejoin:round;;fill:none"/>
<polyline points="917.199,2434.02 917.452,2424.01 917.506,2416.68 917.174,2386.12 917.242,2380.5 917.246,2380.41 917.322,2376.23 917.322,2364.25 917.322,179.054 917.322,167.068 917.396,162.888 917.4,162.802 917.468,157.176 917.138,126.644 917.192,119.318 917.433,109.742" style="stroke:rgb(0,0,0);stroke-width:1px;fill:none;stroke-opacity:1;stroke-linecap:round;stroke-linejoin:round;;fill:none"/>
<polyline points="917.199,2434.02 917.452,2424.01 917.506,2416.68 917.174,2386.12 917.242,2380.5 917.246,2380.41 917.322,2376.23 917.322,2364.25 917.322,179.054 917.322,167.068 917.396,162.888 917.4,162.802 917.468,157.176 917.138,126.644 917.192,119.318 917.433,109.742" style="stroke:rgb(255,0,0);stroke-width:173.228346;fill:none;stroke-opacity:0.5;stroke-linecap:round;stroke-linejoin:round;;fill:none"/>
<polyline points="917.199,2434.02 917.452,2424.01 917.506,2416.68 917.174,2386.12 917.242,2380.5 917.246,2380.41 917.322,2376.23 917.322,2364.25 917.322,179.054 917.322,167.068 917.396,162.888 917.4,162.802 917.468,157.176 917.138,126.644 917.192,119.318 917.433,109.742" style="stroke:rgb(0,0,0);stroke-width:1px;fill:none;stroke-opacity:1;stroke-linecap:round;stroke-linejoin:round;;fill:none"/>
<polyline points="917.199,2434.02 917.452,2424.01 917.506,2416.68 917.174,2386.12 917.242,2380.5 917.246,2380.41 917.322,2376.23 917.322,2364.25 917.322,179.054 917.322,167.068 917.396,162.888 917.4,162.802 917.468,157.176 917.138,126.644 917.192,119.318 917.433,109.742" style="stroke:rgb(255,0,0);stroke-width:173.228346;fill:none;stroke-opacity:0.5;stroke-linecap:round;stroke-linejoin:round;;fill:none"/>
<polyline points="917.199,2434.02 917.452,2424.01 917.506,2416.68 917.174,2386.12 917.242,2380.5 917.246,2380.41 917.322,2376.23 917.322,2364.25 917.322,179.054 917.322,167.068 917.396,162.888 917.4,162.802 917.468,157.176 917.138,126.644 917.192,119.318 917.433,109.742" style="stroke:rgb(0,0,0);stroke-width:1px;fill:none;stroke-opacity:1;stroke-linecap:round;stroke-linejoin:round;;fill:none"/>
<polyline points="917.199,2434.02 917.452,2424.01 917.506,2416.68 917.174,2386.12 917.242,2380.5 917.246,2380.41 917.322,2376.23 917.322,2364.25 917.322,179.054 917.322,167.068 917.396,162.888 917.4,162.802 917.468,157.176 917.138,126.644 917.192,119.318 917.433,109.742" style="stroke:rgb(255,0,0);stroke-width:173.228346;fill:none;stroke-opacity:0.5;stroke-linecap:round;stroke-linejoin:round;;fill:none"/>
<polyline points="917.199,2434.02 917.452,2424.01 917.506,2416.68 917.174,2386.12 917.242,2380.5 917.246,2380.41 917.322,2376.23 917.322,2364.25 917.322,179.054 917.322,167.068 917.396,162.888 917.4,162.802 917.468,157.176 917.138,126.644 917.192,119.318 917.433,109.742" style="stroke:rgb(0,0,0);stroke-width:1px;fill:none;stroke-opacity:1;stroke-linecap:round;stroke-linejoin:round;;fill:none"/>
<polyline points="917.199,2434.02 917.452,2424.01 917.506,2416.68 917.174,2386.12 917.242,2380.5 917.246,2380.41 917.322,2376.23 917.322,2364.25 917.322,179.054 917.322,167.068 917.396,162.888 917.4,162.802 917.468,157.176 917.138,126.644 917.192,119.318 917.433,109.742" style="stroke:rgb(255,0,0);stroke-width:173.228346;fill:none;stroke-opacity:0.5;stroke-linecap:round;stroke-linejoin:round;;fill:none"/>
<polyline points="917.199,2434.02 917.452,2424.01 917.506,2416.68 917.174,2386.12 917.242,2380.5 917.246,2380.41 917.322,2376.23 917.322,2364.25 917.322,179.054 917.322,167.068 917.396,162.888 917.4,162.802 917.468,157.176 917.138,126.644 917.192,119.318 917.433,109.742" style="stroke:rgb(0,0,0);stroke-width:1px;fill:none;stroke-opacity:1;stroke-linecap:round;stroke-linejoin:round;;fill:none"/>
<polyline points="917.199,2434.02 917.452,2424.01 917.506,2416.68 917.174,2386.12 917.242,2380.5 917.246,2380.41 917.322,2376.23 917.322,2364.25 917.322,179.054 917.322,167.068 917.396,162.888 917.4,162.802 917.468,157.176 917.138,126.644 917.192,119.318 917.433,109.742" style="stroke:rgb(255,0,0);stroke-width:173.228346;fill:none;stroke-opacity:0.5;stroke-linecap:round;stroke-linejoin:round;;fill:none"/>
<polyline points="917.199,2434.02 917.452,2424.01 917.506,2416.68 917.174,2386.12 917.242,2380.5 917.246,2380.41 917.322,2376.23 917.322,2364.25 917.322,179.054 917.322,167.068 917.396,162.888 917.4,162.802 917.468,157.176 917.138,126.644 917.192,119.318 917.433,109.742" style="stroke:rgb(0,0,0);stroke-width:1px;fill:none;stroke-opacity:1;stroke-linecap:round;stroke-linejoin:round;;fill:none"/>
<polyline points="917.199,2434.02 917.452,2424.01 917.506,2416.68 917.174,2386.12 917.242,2380.5 917.246,2380.41 917.322,2376.23 917.322,2364.25 917.322,179.054 917.322,167.068 917.396,162.888 917.4,162.802 917.468,157.176 917.138,126.644 917.192,119.318 917.433,109.742" style="stroke:rgb(255,0,0);stroke-width:173.228346;fill:none;stroke-opacity:0.5;stroke-linecap:round;stroke-linejoin:round;;fill:none"/>
<polyline points="917.199,2434.02 917.452,2424.01 917.506,2416.68 917.174,2386.12 917.242,2380.5 917.246,2380.41 917.322,2376.23 917.322,2364.25 917.322,179.054 917.322,167.068 917.396,162.888 917.4,162.802 917.468,157.176 917.138,126.644 917.192,119.318 917.433,109.742" style="stroke:rgb(0,0,0);stroke-width:1px;fill:none;stroke-opacity:1;stroke-linecap:round;stroke-linejoin:round;;fill:none"/>
<polyline points="917.199,2434.02 917.452,2424.01 917.506,2416.68 917.174,2386.12 917.242,2380.5 917.246,2380.41 917.322,2376.23 917.322,2364.25 917.322,179.054 917.322,167.068 917.396,162.888 917.4,162.802 917.468,157.176 917.138,126.644 917.192,119.318 917.433,109.742" style="stroke:rgb(255,0,0);stroke-width:173.228346;fill:none;stroke-opacity:0.5;stroke-linecap:round;stroke-linejoin:round;;fill:none"/>
<polyline points="917.199,2434.02 917.452,2424.01 917.506,2416.68 917.174,2386.12 917.242,2380.5 917.246,2380.41 917.322,2376.23 917.322,2364.25 917.322,179.054 917.322,167.068 917.396,162.888 917.4,162.802 917.468,157.176 917.138,126.644 917.192,119.318 917.433,109.742" style="stroke:rgb(0,0,0);stroke-width:1px;fill:none;stroke-opacity:1;stroke-linecap:round;stroke-linejoin:round;;fill:none"/>
<polyline points="917.199,2434.02 917.452,2424.01 917.506,2416.68 917.174,2386.12 917.242,2380.5 917.246,2380.41 917.322,2376.23 917.322,2364.25 917.322,179.054 917.322,167.068 917.396,162.888 917.4,162.802 917.468,157.176 917.138,126.644 917.192,119.318 917.433,109.742" style="stroke:rgb(255,0,0);stroke-width:173.228346;fill:none;stroke-opacity:0.5;stroke-linecap:round;stroke-linejoin:round;;fill:none"/>
<polyline points="917.199,2434.02 917.452,2424.01 917.506,2416.68 917.174,2386.12 917.242,2380.5 917.246,2380.41 917.322,2376.23 917.322,2364.25 917.322,179.054 917.322,167.068 917.396,162.888 917.4,162.802 917.468,157.176 917.138,126.644 917.192,119.318 917.433,109.742" style="stroke:rgb(0,0,0);stroke-width:1px;fill:none;stroke-opacity:1;stroke-linecap:round;stroke-linejoin:round;;fill:none"/>
<polyline points="917.199,2434.02 917.452,2424.01 917.506,2416.68 917.174,2386.12 917.242,2380.5 917.246,2380.41 917.322,2376.23 917.322,2364.25 917.322,179.054 917.322,167.068 917.396,162.888 917.4,162.802 917.468,157.176 917.138,126.644 917.192,119.318 917.433,109.742" style="stroke:rgb(255,0,0);stroke-width:173.228346;fill:none;stroke-opacity:0.5;stroke-linecap:round;stroke-linejoin:round;;fill:none"/>
<polyline points="917.199,2434.02 917.452,2424.01 917.506,2416.68 917.174,2386.12 917.242,2380.5 917.246,2380.41 917.322,2376.23 917.322,2364.25 917.322,179.054 917.322,167.068 917.396,162.888 917.4,162.802 917.468,157.176 917.138,126.644 917.192,119.318 917.433,109.742" style="stroke:rgb(0,0,0);stroke-width:1px;fill:none;stroke-opacity:1;stroke-linecap:round;stroke-linejoin:round;;fill:none"/>
<polyline points="917.199,2434.02 917.452,2424.01 917.506,2416.68 917.174,2386.12 917.242,2380.5 917.246,2380.41 917.322,2376.23 917.322,2364.25 917.322,179.054 917.322,167.068 917.396,162.888 917.4,162.802 917.468,157.176 917.138,126.644 917.192,119.318 917.433,109.742" style="stroke:rgb(255,0,0);stroke-width:173.228346;fill:none;stroke-opacity:0.5;stroke-linecap:round;stroke-linejoin:round;;fill:none"/>
<polyline points="917.199,2434.02 917.452,2424.01 917.506,2416.68 917.174,2386.12 917.242,2380.5 917.246,2380.41 917.322,2376.23 917.322,2364.25 917.322,179.054 917.322,167.068 917.396,162.888 917.4,162.802 917.468,157.176 917.138,126.644 917.192,119.318 917.433,109.742" style="stroke:rgb(0,0,0);stroke-width:1px;fill:none;stroke-opacity:1;stroke-linecap:round;stroke-linejoin:round;;fill:none"/>
<polyline points="917.199,2434.02 917.452,2424.01 917.506,2416.68 917.174,2386.12 917.242,2380.5 917.246,2380.41 917.322,2376.23 917.322,2364.25 917.322,179.054 917.322,167.068 917.396,162.888 917.4,162.802 917.468,157.176 917.138,126.644 917.192,119.318 917.433,109.742" style="stroke:rgb(255,0,0);stroke-width:173.228346;fill:none;stroke-opacity:0.5;stroke-linecap:round;stroke-linejoin:round;;fill:none"/>
<polyline points="917.199,2434.02 917.452,2424.01 917.506,2416.68 917.174,2386.12 917.242,2380.5 917.246,2380.41 917.322,2376.23 917.322,2364.25 917.322,179.054 917.322,167.068 917.396,162.888 917.4,162.802 917.468,157.176 917.138,126.644 917.192,119.318 917.433,109.742" style="stroke:rgb(0,0,0);stroke-width:1px;fill:none;stroke-opacity:1;stroke-linecap:round;stroke-linejoin:round;;fill:none"/>
<polyline points="917.199,2434.02 917.452,2424.01 917.506,2416.68 917.174,2386.12 917.242,2380.5 917.246,2380.41 917.322,2376.23 917.322,2364.25 917.322,179.054 917.322,167.068 917.396,162.888 917.4,162.802 917.468,157.176 917.138,126.644 917.192,119.318 917.433,109.742" style="stroke:rgb(255,0,0);stroke-width:173.228346;fill:none;stroke-opacity:0.5;stroke-linecap:round;stroke-linejoin:round;;fill:none"/>
<polyline points="917.199,2434.02 917.452,2424.01 917.506,2416.68 917.174,2386.12 917.242,2380.5 917.246,2380.41 917.322,2376.23 917.322,2364.25 917.322,179.054 917.322,167.068 917.396,162.888 917.4,162.802 917.468,157.176 917.138,126.644 917.192,119.318 917.433,109.742" style="stroke:rgb(0,0,0);stroke-width:1px;fill:none;stroke-opacity:1;stroke-linecap:round;stroke-linejoin:round;;fill:none"/>
<polyline points="917.199,2434.02 917.452,2424.01 917.506,2416.68 917.174,2386.12 917.242,2380.5 917.246,2380.41 917.322,2376.23 917.322,2364.25 917.322,179.054 917.322,167.068 917.396,162.888 917.4,162.802 917.468,157.176 917.138,126.644 917.192,119.318 917.433,109.742" style="stroke:rgb(255,0,0);stroke-width:173.228346;fill:none;stroke-opacity:0.5;stroke-linecap:round;stroke-linejoin:round;;fill:none"/>
<polyline points="917.199,2434.02 917.452,2424.01 917.506,2416.68 917.174,2386.12 917.242,2380.5 917.246,2380.41 917.322,2376.23 917.322,2364.25 917.322,179.054 917.322,167.068 917.396,162.888 917.4,162.802 917.468,157.176 917.138,126.644 917.192,119.318 917.433,109.742" style="stroke:rgb(0,0,0);stroke-width:1px;fill:none;stroke-opacity:1;stroke-linecap:round;stroke-linejoin:round;;fill:none"/>
<polyline points="917.199,2434.02 917.452,2424.01 917.506,2416.68 917.174,2386.12 917.242,2380.5 917.246,2380.41 917.322,2376.23 917.322,2364.25 917.322,179.054 917.322,167.068 917.396,162.888 917.4,162.802 917.468,157.176 917.138,126.644 917.192,119.318 917.433,109.742" style="stroke:rgb(255,0,0);stroke-width:173.228346;fill:none;stroke-opacity:0.5;stroke-linecap:round;stroke-linejoin:round;;fill:none"/>
<polyline points="917.199,2434.02 917.452,2424.01 917.506,2416.68 917.174,2386.12 917.242,2380.5 917.246,2380.41 917.322,2376.23 917.322,2364.25 917.322,179.054 917.322,167.068 917.396,162.888 917.4,162.802 917.468,157.176 917.138,126.644 917.192,119.318 917.433,109.742" style="stroke:rgb(0,0,0);stroke-width:1px;fill:none;stroke-opacity:1;stroke-linecap:round;stroke-linejoin:round;;fill:none"/>
<polyline points="917.138,126.644 917.468,157.176 917.4,162.802 917.396,162.888 917.322,167.068 917.322,179.054 917.322,2364.25 917.322,2376.23 917.246,2380.41 917.242,2380.5 917.174,2386.12 917.506,2416.68 917.452,2424.01 917.211,2433.56" style="stroke:rgb(255,0,0);stroke-width:173.228346;fill:none;stroke-opacity:0.5;stroke-linecap:round;stroke-linejoin:round;;fill:none"/>
<polyline points="917.138,126.644 917.468,157.176 917.4,162.802 917.396,162.888 917.322,167.068 917.322,179.054 917.322,2364.25 917.322,2376.23 917.246,2380.41 917.242,2380.5 917.174,2386.12 917.506,2416.68 917.452,2424.01 917.211,2433.56" style="stroke:rgb(0,0,0);stroke-width:1px;fill:none;stroke-opacity:1;stroke-linecap:round;stroke-linejoin:round;;fill:none"/>
<polyline points="917.138,126.644 917.468,157.176 917.4,162.802 917.396,162.888 917.322,167.068 917.322,179.054 917.322,2364.25 917.322,2376.23 917.246,2380.41 917.242,2380.5 917.174,2386.12 917.506,2416.68 917.452,2424.01 917.211,2433.56" style="stroke:rgb(255,0,0);stroke-width:173.228346;fill:none;stroke-opacity:0.5;stroke-linecap:round;stroke-linejoin:round;;fill:none"/>
<polyline points="917.138,126.644 917.468,157.176 917.4,162.802 917.396,162.888 917.322,167.068 917.322,179.054 917.322,2364.25 917.322,2376.23 917.246,2380.41 917.242,2380.5 917.174,2386.12 917.506,2416.68 917.452,2424.01 917.211,2433.56" style="stroke:rgb(0,0,0);stroke-width:1px;fill:none;stroke-opacity:1;stroke-linecap:round;stroke-linejoin:round;;fill:none"/>
<polyline points="917.138,126.644 917.468,157.176 917.4,162.802 917.396,162.888 917.322,167.068 917.322,179.054 917.322,2364.25 917.322,2376.23 917.246,2380.41 917.242,2380.5 917.174,2386.12 917.506,2416.68 917.452,2424.01 917.211,2433.56" style="stroke:rgb(255,0,0);stroke-width:173.228346;fill:none;stroke-opacity:0.5;stroke-linecap:round;stroke-linejoin:round;;fill:none"/>
<polyline points="917.138,126.644 917.468,157.176 917.4,162.802 917.396,162.888 917.322,167.068 917.322,179.054 917.322,2364.25 917.322,2376.23 917.246,2380.41 917.242,2380.5 917.174,2386.12 917.506,2416.68 917.452,2424.01 917.211,2433.56" style="stroke:rgb(0,0,0);stroke-width:1px;fill:none;stroke-opacity:1;stroke-linecap:round;stroke-linejoin:round;;fill:none"/>
<polyline points="917.138,126.644 917.468,157.176 917.4,162.802 917.396,162.888 917.322,167.068 917.322,179.054 917.322,2364.25 917.322,2376.23 917.246,2380.41 917.242,2380.5 917.174,2386.12 917.506,2416.68 917.452,2424.01 917.211,2433.56" style="stroke:rgb(255,0,0);stroke-width:173.228346;fill:none;stroke-opacity:0.5;stroke-linecap:round;stroke-linejoin:round;;fill:none"/>
<polyline points="917.138,126.644 917.468,157.176 917.4,162.802 917.396,162.888 917.322,167.068 917.322,179.054 917.322,2364.25 917.322,2376.23 917.246,2380.41 917.242,2380.5 917.174,2386.12 917.506,2416.68 917.452,2424.01 917.211,2433.56" style="stroke:rgb(0,0,0);stroke-width:1px;fill:none;stroke-opacity:1;stroke-linecap:round;stroke-linejoin:round;;fill:none"/>
<polyline points="917.138,126.644 917.468,157.176 917.4,162.802 917.396,162.888 917.322,167.068 917.322,179.054 917.322,2364.25 917.322,2376.23 917.246,2380.41 917.242,2380.5 917.174,2386.12 917.506,2416.68 917.452,2424.01 917.211,2433.56" style="stroke:rgb(255,0,0);stroke-width:173.228346;fill:none;stroke-opacity:0.5;stroke-linecap:round;stroke-linejoin:round;;fill:none"/>
<polyline points="917.138,126.644 917.468,157.176 917.4,162.802 917.396,162.888 917.322,167.068 917.322,179.054 917.322,2364.25 917.322,2376.23 917.246,2380.41 917.242,2380.5 917.174,2386.12 917.506,2416.68 917.452,2424.01 917.211,2433.56" style="stroke:rgb(0,0,0);stroke-width:1px;fill:none;stroke-opacity:1;stroke-linecap:round;stroke-linejoin:round;;fill:none"/>
<polyline points="917.138,126.644 917.468,157.176 917.4,162.802 917.396,162.888 917.322,167.068 917.322,179.054 917.322,2364.25 917.322,2376.23 917.246,2380.41 917.242,2380.5 917.174,2386.12 917.506,2416.68 917.452,2424.01 917.211,2433.56" style="stroke:rgb(255,0,0);stroke-width:173.228346;fill:none;stroke-opacity:0.5;stroke-linecap:round;stroke-linejoin:round;;fill:none"/>
<polyline points="917.138,126.644 917.468,157.176 917.4,162.802 917.396,162.888 917.322,167.068 917.322,179.054 917.322,2364.25 917.322,2376.23 917.246,2380.41 917.242,2380.5 917.174,2386.12 917.506,2416.68 917.452,2424.01 917.211,2433.56" style="stroke:rgb(0,0,0);stroke-width:1px;fill:none;stroke-opacity:1;stroke-linecap:round;stroke-linejoin:round;;fill:none"/>
<polyline points="917.138,126.644 917.468,157.176 917.4,162.802 917.396,162.888 917.322,167.068 917.322,179.054 917.322,2364.25 917.322,2376.23 917.246,2380.41 917.242,2380.5 917.174,2386.12 917.506,2416.68 917.452,2424.01 917.211,2433.56" style="stroke:rgb(255,0,0);stroke-width:173.228346;fill:none;stroke-opacity:0.5;stroke-linecap:round;stroke-linejoin:round;;fill:none"/>
<polyline points="917.138,126.644 917.468,157.176 917.4,162.802 917.396,162.888 917.322,167.068 917.322,179.054 917.322,2364.25 917.322,2376.23 917.246,2380.41 917.242,2380.5 917.174,2386.12 917.506,2416.68 917.452,2424.01 917.211,2433.56" style="stroke:rgb(0,0,0);stroke-width:1px;fill:none;stroke-opacity:1;stroke-linecap:round;stroke-linejoin:round;;fill:none"/>
<polyline points="917.138,126.644 917.468,157.176 917.4,162.802 917.396,162.888 917.322,167.068 917.322,179.054 917.322,2364.25 917.322,2376.23 917.246,2380.41 917.242,2380.5 917.174,2386.12 917.506,2416.68 917.452,2424.01 917.211,2433.56" style="stroke:rgb(255,0,0);stroke-width:173.228346;fill:none;stroke-opacity:0.5;stroke-linecap:round;stroke-linejoin:round;;fill:none"/>
<polyline points="917.138,126.644 917.468,157.176 917.4,162.802 917.396,162.888 917.322,167.068 917.322,179.054 917.322,2364.25 917.322,2376.23 917.246,2380.41 917.242,2380.5 917.174,2386.12 917.506,2416.68 917.452,2424.01 917.211,2433.56" style="stroke:rgb(0,0,0);stroke-width:1px;fill:none;stroke-opacity:1;stroke-linecap:round;stroke-linejoin:round;;fill:none"/>
<polyline points="917.138,126.644 917.468,157.176 917.4,162.802 917.396,162.888 917.322,167.068 917.322,179.054 917.322,2364.25 917.322,2376.23 917.246,2380.41 917.242,2380.5 917.174,2386.12 917.506,2416.68 917.452,2424.01 917.211,2433.56" style="stroke:rgb(255,0,0);stroke-width:173.228346;fill:none;stroke-opacity:0.5;stroke-linecap:round;stroke-linejoin:round;;fill:none"/>
<polyline points="917.138,126.644 917.468,157.176 917.4,162.802 917.396,162.888 917.322,167.068 917.322,179.054 917.322,2364.25 917.322,2376.23 917.246,2380.41 917.242,2380.5 917.174,2386.12 917.506,2416.68 917.452,2424.01 917.211,2433.56" style="stroke:rgb(0,0,0);stroke-width:1px;fill:none;stroke-opacity:1;stroke-linecap:round;stroke-linejoin:round;;fill:none"/>
<polyline points="917.138,126.644 917.468,157.176 917.4,162.802 917.396,162.888 917.322,167.068 917.322,179.054 917.322,2364.25 917.322,2376.23 917.246,2380.41 917.242,2380.5 917.174,2386.12 917.506,2416.68 917.452,2424.01 917.211,2433.56" style="stroke:rgb(255,0,0);stroke-width:173.228346;fill:none;stroke-opacity:0.5;stroke-linecap:round;stroke-linejoin:round;;fill:none"/>
<polyline points="917.138,126.644 917.468,157.176 917.4,162.802 917.396,162.888 917.322,167.068 917.322,179.054 917.322,2364.25 917.322,2376.23 917.246,2380.41 917.242,2380.5 917.174,2386.12 917.506,2416.68 917.452,2424.01 917.211,2433.56" style="stroke:rgb(0,0,0);stroke-width:1px;fill:none;stroke-opacity:1;stroke-linecap:round;stroke-linejoin:round;;fill:none"/>
<polyline points="917.138,126.644 917.468,157.176 917.4,162.802 917.396,162.888 917.322,167.068 917.322,179.054 917.322,2364.25 917.322,2376.23 917.246,2380.41 917.242,2380.5 917.174,2386.12 917.506,2416.68 917.452,2424.01 917.211,2433.56" style="stroke:rgb(255,0,0);stroke-width:173.228346;fill:none;stroke-opacity:0.5;stroke-linecap:round;stroke-linejoin:round;;fill:none"/>
<polyline points="917.138,126.644 917.468,157.176 917.4,162.802 917.396,162.888 917.322,167.068 917.322,179.054 917.322,2364.25 917.322,2376.23 917.246,2380.41 917.242,2380.5 917.174,2386.12 917.506,2416.68 917.452,2424.01 917.211,2433.56" style="stroke:rgb(0,0,0);stroke-width:1px;fill:none;stroke-opacity:1;stroke-linecap:round;stroke-linejoin:round;;fill:none"/>
<polyline points="917.138,126.644 917.468,157.176 917.4,162.802 917.396,162.888 917.322,167.068 917.322,179.054 917.322,2364.25 917.322,2376.23 917.246,2380.41 917.242,2380.5 917.174,2386.12 917.506,2416.68 917.452,2424.01 917.211,2433.56" style="stroke:rgb(255,0,0);stroke-width:173.228346;fill:none;stroke-opacity:0.5;stroke-linecap:round;stroke-linejoin:round;;fill:none"/>
<polyline points="917.138,126.644 917.468,157.176 917.4,162.802 917.396,162.888 917.322,167.068 917.322,179.054 917.322,2364.25 917.322,2376.23 917.246,2380.41 917.242,2380.5 917.174,2386.12 917.506,2416.68 917.452,2424.01 917.211,2433.56" style="stroke:rgb(0,0,0);stroke-width:1px;fill:none;stroke-opacity:1;stroke-linecap:round;stroke-linejoin:round;;fill:none"/>
<polyline points="917.138,126.644 917.468,157.176 917.4,162.802 917.396,162.888 917.322,167.068 917.322,179.054 917.322,2364.25 917.322,2376.23 917.246,2380.41 917.242,2380.5 917.174,2386.12 917.506,2416.68 917.452,2424.01 917.211,2433.56" style="stroke:rgb(255,0,0);stroke-width:173.228346;fill:none;stroke-opacity:0.5;stroke-linecap:round;stroke-linejoin:round;;fill:none"/>
<polyline points="917.138,126.644 917.468,157.176 917.4,162.802 917.396,162.888 917.322,167.068 917.322,179.054 917.322,2364.25 917.322,2376.23 917.246,2380.41 917.242,2380.5 917.174,2386.12 917.506,2416.68 917.452,2424.01 917.211,2433.56" style="stroke:rgb(0,0,0);stroke-width:1px;fill:none;stroke-opacity:1;stroke-linecap:round;stroke-linejoin:round;;fill:none"/>
<polyline points="917.138,126.644 917.468,157.176 917.4,162.802 917.396,162.888 917.322,167.068 917.322,179.054 917.322,2364.25 917.322,2376.23 917.246,2380.41 917.242,2380.5 917.174,2386.12 917.506,2416.68 917.452,2424.01 917.211,2433.56" style="stroke:rgb(255,0,0);stroke-width:173.228346;fill:none;stroke-opacity:0.5;stroke-linecap:round;stroke-linejoin:round;;fill:none"/>
<polyline points="917.138,126.644 917.468,157.176 917.4,162.802 917.396,162.888 917.322,167.068 917.322,179.054 917.322,2364.25 917.322,2376.23 917.246,2380.41 917.242,2380.5 917.174,2386.12 917.506,2416.68 917.452,2424.01 917.211,2433.56" style="stroke:rgb(0,0,0);stroke-width:1px;fill:none;stroke-opacity:1;stroke-linecap:round;stroke-linejoin:round;;fill:none"/>
<polyline points="917.138,126.644 917.468,157.176 917.4,162.802 917.396,162.888 917.322,167.068 917.322,179.054 917.322,2364.25 917.322,2376.23 917.246,2380.41 917.242,2380.5 917.174,2386.12 917.506,2416.68 917.452,2424.01 917.211,2433.56" style="stroke:rgb(255,0,0);stroke-width:173.228346;fill:none;stroke-opacity:0.5;stroke-linecap:round;stroke-linejoin:round;;fill:none"/>
<polyline points="917.138,126.644 917.468,157.176 917.4,162.802 917.396,162.888 917.322,167.068 917.322,179.054 917.322,2364.25 917.322,2376.23 917.246,2380.41 917.242,2380.5 917.174,2386.12 917.506,2416.68 917.452,2424.01 917.211,2433.56" style="stroke:rgb(0,0,0);stroke-width:1px;fill:none;stroke-opacity:1;stroke-linecap:round;stroke-linejoin:round;;fill:none"/>
<polyline points="917.138,126.644 917.468,157.176 917.4,162.802 917.396,162.888 917.322,167.068 917.322,179.054 917.322,2364.25 917.322,2376.23 917.246,2380.41 917.242,2380.5 917.174,2386.12 917.506,2416.68 917.452,2424.01 917.211,2433.56" style="stroke:rgb(255,0,0);stroke-width:173.228346;fill:none;stroke-opacity:0.5;stroke-linecap:round;stroke-linejoin:round;;fill:none"/>
<polyline points="917.138,126.644 917.468,157.176 917.4,162.802 917.396,162.888 917.322,167.068 917.322,179.054 917.322,2364.25 917.322,2376.23 917.246,2380.41 917.242,2380.5 917.174,2386.12 917.506,2416.68 917.452,2424.01 917.211,2433.56" style="stroke:rgb(0,0,0);stroke-width:1px;fill:none;stroke-opacity:1;stroke-linecap:round;stroke-linejoin:round;;fill:none"/>
<polyline points="917.138,126.644 917.468,157.176 917.4,162.802 917.396,162.888 917.322,167.068 917.322,179.054 917.322,2364.25 917.322,2376.23 917.246,2380.41 917.242,2380.5 917.174,2386.12 917.506,2416.68 917.452,2424.01 917.211,2433.56" style="stroke:rgb(255,0,0);stroke-width:173.228346;fill:none;stroke-opacity:0.5;stroke-linecap:round;stroke-linejoin:round;;fill:none"/>
<polyline points="917.138,126.644 917.468,157.176 917.4,162.802 917.396,162.888 917.322,167.068 917.322,179.054 917.322,2364.25 917.322,2376.23 917.246,2380.41 917.242,2380.5 917.174,2386.12 917.506,2416.68 917.452,2424.01 917.211,2433.56" style="stroke:rgb(0,0,0);stroke-width:1px;fill:none;stroke-opacity:1;stroke-linecap:round;stroke-linejoin:round;;fill:none"/>
<polyline points="917.138,126.644 917.468,157.176 917.4,162.802 917.396,162.888 917.322,167.068 917.322,179.054 917.322,2364.25 917.322,2376.23 917.246,2380.41 917.242,2380.5 917.174,2386.12 917.506,2416.68 917.452,2424.01 917.211,2433.56" style="stroke:rgb(255,0,0);stroke-width:173.228346;fill:none;stroke-opacity:0.5;stroke-linecap:round;stroke-linejoin:round;;fill:none"/>
<polyline points="917.138,126.644 917.468,157.176 917.4,162.802 917.396,162.888 917.322,167.068 917.322,179.054 917.322,2364.25 917.322,2376.23 917.246,2380.41 917.242,2380.5 917.174,2386.12 917.506,2416.68 917.452,2424.01 917.211,2433.56" style="stroke:rgb(0,0,0);stroke-width:1px;fill:none;stroke-opacity:1;stroke-linecap:round;stroke-linejoin:round;;fill:none"/>
<polyline points="917.138,126.644 917.468,157.176 917.4,162.802 917.396,162.888 917.322,167.068 917.322,179.054 917.322,2364.25 917.322,2376.23 917.246,2380.41 917.242,2380.5 917.174,2386.12 917.506,2416.68 917.452,2424.01 917.211,2433.56" style="stroke:rgb(255,0,0);stroke-width:173.228346;fill:none;stroke-opacity:0.5;stroke-linecap:round;stroke-linejoin:round;;fill:none"/>
<polyline points="917.138,126.644 917.468,157.176 917.4,162.802 917.396,162.888 917.322,167.068 917.322,179.054 917.322,2364.25 917.322,2376.23 917.246,2380.41 917.242,2380.5 917.174,2386.12 917.506,2416.68 917.452,2424.01 917.211,2433.56" style="stroke:rgb(0,0,0);stroke-width:1px;fill:none;stroke-opacity:1;stroke-linecap:round;stroke-linejoin:round;;fill:none"/>
<polyline points="917.138,126.644 917.468,157.176 917.4,162.802 917.396,162.888 917.322,167.068 917.322,179.054 917.322,2364.25 917.322,2376.23 917.246,2380.41 917.242,2380.5 917.174,2386.12 917.506,2416.68 917.452,2424.01 917.211,2433.56" style="stroke:rgb(255,0,0);stroke-width:173.228346;fill:none;stroke-opacity:0.5;stroke-linecap:round;stroke-linejoin:round;;fill:none"/>
<polyline points="917.138,126.644 917.468,157.176 917.4,162.802 917.396,162.888 917.322,167.068 917.322,179.054 917.322,2364.25 917.322,2376.23 917.246,2380.41 917.242,2380.5 917.174,2386.12 917.506,2416.68 917.452,2424.01 917.211,2433.56" style="stroke:rgb(0,0,0);stroke-width:1px;fill:none;stroke-opacity:1;stroke-linecap:round;stroke-linejoin:round;;fill:none"/>
<polyline points="917.138,126.644 917.468,157.176 917.4,162.802 917.396,162.888 917.322,167.068 917.322,179.054 917.322,2364.25 917.322,2376.23 917.246,2380.41 917.242,2380.5 917.174,2386.12 917.506,2416.68 917.452,2424.01 917.211,2433.56" style="stroke:rgb(255,0,0);stroke-width:173.228346;fill:none;stroke-opacity:0.5;stroke-linecap:round;stroke-linejoin:round;;fill:none"/>
<polyline points="917.138,126.644 917.468,157.176 917.4,162.802 917.396,162.888 917.322,167.068 917.322,179.054 917.322,2364.25 917.322,2376.23 917.246,2380.41 917.242,2380.5 917.174,2386.12 917.506,2416.68 917.452,2424.01 917.211,2433.56" style="stroke:rgb(0,0,0);stroke-width:1px;fill:none;stroke-opacity:1;stroke-linecap:round;stroke-linejoin:round;;fill:none"/>
<polyline points="917.445,109.285 917.192,119.318 917.138,126.644" style="stroke:rgb(255,0,0);stroke-width:173.228346;fill:none;stroke-opacity:0.5;stroke-linecap:round;stroke-linejoin:round;;fill:none"/>
<polyline points="917.445,109.285 917.192,119.318 917.138,126.644" style="stroke:rgb(0,0,0);stroke-width:1px;fill:none;stroke-opacity:1;stroke-linecap:round;stroke-linejoin:round;;fill:none"/>
<polyline points="917.445,109.285 917.192,119.318 917.138,126.644" style="stroke:rgb(255,0,0);stroke-width:173.228346;fill:none;stroke-opacity:0.5;stroke-linecap:round;stroke-linejoin:round;;fill:none"/>
<polyline points="917.445,109.285 917.192,119.318 917.138,126.644" style="stroke:rgb(0,0,0);stroke-width:1px;fill:none;stroke-opacity:1;stroke-linecap:round;stroke-linejoin:round;;fill:none"/>
<polyline points="917.445,109.285 917.192,119.318 917.138,126.644" style="stroke:rgb(255,0,0);stroke-width:173.228346;fill:none;stroke-opacity:0.5;stroke-linecap:round;stroke-linejoin:round;;fill:none"/>
<polyline points="917.445,109.285 917.192,119.318 917.138,126.644" style="stroke:rgb(0,0,0);stroke-width:1px;fill:none;stroke-opacity:1;stroke-linecap:round;stroke-linejoin:round;;fill:none"/>
<polyline points="917.445,109.285 917.192,119.318 917.138,126.644" style="stroke:rgb(255,0,0);stroke-width:173.228346;fill:none;stroke-opacity:0.5;stroke-linecap:round;stroke-linejoin:round;;fill:none"/>
<polyline points="917.445,109.285 917.192,119.318 917.138,126.644" style="stroke:rgb(0,0,0);stroke-width:1px;fill:none;stroke-opacity:1;stroke-linecap:round;stroke-linejoin:round;;fill:none"/>
<polyline points="917.445,109.285 917.192,119.318 917.138,126.644" style="stroke:rgb(255,0,0);stroke-width:173.228346;fill:none;stroke-opacity:0.5;stroke-linecap:round;stroke-linejoin:round;;fill:none"/>
<polyline points="917.445,109.285 917.192,119.318 917.138,126.644" style="stroke:rgb(0,0,0);stroke-width:1px;fill:none;stroke-opacity:1;stroke-linecap:round;stroke-linejoin:round;;fill:none"/>
<polyline points="917.445,109.285 917.192,119.318 917.138,126.644" style="stroke:rgb(255,0,0);stroke-width:173.228346;fill:none;stroke-opacity:0.5;stroke-linecap:round;stroke-linejoin:round;;fill:none"/>
<polyline points="917.445,109.285 917.192,119.318 917.138,126.644" style="stroke:rgb(0,0,0);stroke-width:1px;fill:none;stroke-opacity:1;stroke-linecap:round;stroke-linejoin:round;;fill:none"/>
<polyline points="917.445,109.285 917.192,119.318 917.138,126.644" style="stroke:rgb(255,0,0);stroke-width:173.228346;fill:none;stroke-opacity:0.5;stroke-linecap:round;stroke-linejoin:round;;fill:none"/>
<polyline points="917.445,109.285 917.192,119.318 917.138,126.644" style="stroke:rgb(0,0,0);stroke-width:1px;fill:none;stroke-opacity:1;stroke-linecap:round;stroke-linejoin:round;;fill:none"/>
<polyline points="917.445,109.285 917.192,119.318 917.138,126.644" style="stroke:rgb(255,0,0);stroke-width:173.228346;fill:none;stroke-opacity:0.5;stroke-linecap:round;stroke-linejoin:round;;fill:none"/>
<polyline points="917.445,109.285 917.192,119.318 917.138,126.644" style="stroke:rgb(0,0,0);stroke-width:1px;fill:none;stroke-opacity:1;stroke-linecap:round;stroke-linejoin:round;;fill:none"/>
<polyline points="917.445,109.285 917.192,119.318 917.138,126.644" style="stroke:rgb(255,0,0);stroke-width:173.228346;fill:none;stroke-opacity:0.5;stroke-linecap:round;stroke-linejoin:round;;fill:none"/>
<polyline points="917.445,109.285 917.192,119.318 917.138,126.644" style="stroke:rgb(0,0,0);stroke-width:1px;fill:none;stroke-opacity:1;stroke-linecap:round;stroke-linejoin:round;;fill:none"/>
<polyline points="917.445,109.285 917.192,119.318 917.138,126.644" style="stroke:rgb(255,0,0);stroke-width:173.228346;fill:none;stroke-opacity:0.5;stroke-linecap:round;stroke-linejoin:round;;fill:none"/>
<polyline points="917.445,109.285 917.192,119.318 917.138,126.644" style="stroke:rgb(0,0,0);stroke-width:1px;fill:none;stroke-opacity:1;stroke-linecap:round;stroke-linejoin:round;;fill:none"/>
<polyline points="917.445,109.285 917.192,119.318 917.138,126.644" style="stroke:rgb(255,0,0);stroke-width:173.228346;fill:none;stroke-opacity:0.5;stroke-linecap:round;stroke-linejoin:round;;fill:none"/>
<polyline points="917.445,109.285 917.192,119.318 917.138,126.644" style="stroke:rgb(0,0,0);stroke-width:1px;fill:none;stroke-opacity:1;stroke-linecap:round;stroke-linejoin:round;;fill:none"/>
<polyline points="917.445,109.285 917.192,119.318 917.138,126.644" style="stroke:rgb(255,0,0);stroke-width:173.228346;fill:none;stroke-opacity:0.5;stroke-linecap:round;stroke-linejoin:round;;fill:none"/>
<polyline points="917.445,109.285 917.192,119.318 917.138,126.644" style="stroke:rgb(0,0,0);stroke-width:1px;fill:none;stroke-opacity:1;stroke-linecap:round;stroke-linejoin:round;;fill:none"/>
<polyline points="917.445,109.285 917.192,119.318 917.138,126.644" style="stroke:rgb(255,0,0);stroke-width:173.228346;fill:none;stroke-opacity:0.5;stroke-linecap:round;stroke-linejoin:round;;fill:none"/>
<polyline points="917.445,109.285 917.192,119.318 917.138,126.644" style="stroke:rgb(0,0,0);stroke-width:1px;fill:none;stroke-opacity:1;stroke-linecap:round;stroke-linejoin:round;;fill:none"/>
<polyline points="917.445,109.285 917.192,119.318 917.138,126.644" style="stroke:rgb(255,0,0);stroke-width:173.228346;fill:none;stroke-opacity:0.5;stroke-linecap:round;stroke-linejoin:round;;fill:none"/>
<polyline points="917.445,109.285 917.192,119.318 917.138,126.644" style="stroke:rgb(0,0,0);stroke-width:1px;fill:none;stroke-opacity:1;stroke-linecap:round;stroke-linejoin:round;;fill:none"/>
<polyline points="917.445,109.285 917.192,119.318 917.138,126.644" style="stroke:rgb(255,0,0);stroke-width:173.228346;fill:none;stroke-opacity:0.5;stroke-linecap:round;stroke-linejoin:round;;fill:none"/>
<polyline points="917.445,109.285 917.192,119.318 917.138,126.644" style="stroke:rgb(0,0,0);stroke-width:1px;fill:none;stroke-opacity:1;stroke-linecap:round;stroke-linejoin:round;;fill:none"/>
<polyline points="917.445,109.285 917.192,119.318 917.138,126.644" style="stroke:rgb(255,0,0);stroke-width:173.228346;fill:none;stroke-opacity:0.5;stroke-linecap:round;stroke-linejoin:round;;fill:none"/>
<polyline points="917.445,109.285 917.192,119.318 917.138,126.644" style="stroke:rgb(0,0,0);stroke-width:1px;fill:none;stroke-opacity:1;stroke-linecap:round;stroke-linejoin:round;;fill:none"/>
<polyline points="917.445,109.285 917.192,119.318 917.138,126.644" style="stroke:rgb(255,0,0);stroke-width:173.228346;fill:none;stroke-opacity:0.5;stroke-linecap:round;stroke-linejoin:round;;fill:none"/>
<polyline points="917.445,109.285 917.192,119.318 917.138,126.644" style="stroke:rgb(0,0,0);stroke-width:1px;fill:none;stroke-opacity:1;stroke-linecap:round;stroke-linejoin:round;;fill:none"/>
<polyline points="917.445,109.285 917.192,119.318 917.138,126.644" style="stroke:rgb(255,0,0);stroke-width:173.228346;fill:none;stroke-opacity:0.5;stroke-linecap:round;stroke-linejoin:round;;fill:none"/>
<polyline points="917.445,109.285 917.192,119.318 917.138,126.644" style="stroke:rgb(0,0,0);stroke-width:1px;fill:none;stroke-opacity:1;stroke-linecap:round;stroke-linejoin:round;;fill:none"/>
<polyline points="917.445,109.285 917.192,119.318 917.138,126.644" style="stroke:rgb(255,0,0);stroke-width:173.228346;fill:none;stroke-opacity:0.5;stroke-linecap:round;stroke-linejoin:round;;fill:none"/>
<polyline points="917.445,109.285 917.192,119.318 917.138,126.644" style="stroke:rgb(0,0,0);stroke-width:1px;fill:none;stroke-opacity:1;stroke-linecap:round;stroke-linejoin:round;;fill:none"/>
<polyline points="917.445,109.285 917.192,119.318 917.138,126.644" style="stroke:rgb(255,0,0);stroke-width:173.228346;fill:none;stroke-opacity:0.5;stroke-linecap:round;stroke-linejoin:round;;fill:none"/>
<polyline points="917.445,109.285 917.192,119.318 917.138,126.644" style="stroke:rgb(0,0,0);stroke-width:1px;fill:none;stroke-opacity:1;stroke-linecap:round;stroke-linejoin:round;;fill:none"/>
<polyline points="917.445,109.285 917.192,119.318 917.138,126.644" style="stroke:rgb(255,0,0);stroke-width:173.228346;fill:none;stroke-opacity:0.5;stroke-linecap:round;stroke-linejoin:round;;fill:none"/>
<polyline points="917.445,109.285 917.192,119.318 917.138,126.644" style="stroke:rgb(0,0,0);stroke-width:1px;fill:none;stroke-opacity:1;stroke-linecap:round;stroke-linejoin:round;;fill:none"/>
</svg>
