<?xml version="1.0" standalone="no"?>
<!DOCTYPE svg PUBLIC "-//W3C//DTD SVG 1.1//EN"
"http://www.w3.org/Graphics/SVG/1.1/DTD/svg11.dtd">
<svg width="88.063" height="122.079" viewBox="0 0 1834.65 2543.31" version="1.1"
xmlns="http://www.w3.org/2000/svg"
xmlns:xlink="http://www.w3.org/1999/xlink">
<g fill-rule="evenodd"><path d="M 129.92,2364.25 L 129.92,179.054 L 131.47,173.776 L 135.628,170.172 L 139.684,169.29 L 852.44,169.29 L 857.72,170.84 L 861.322,174.998 L 862.204,179.054 L 862.204,2364.25 L 860.654,2369.53 L 856.496,2373.13 L 852.44,2374.01 L 139.684,2374.01 L 134.406,2372.46 L 130.804,2368.31 L 129.92,2364.25 z " style="fill-opacity:1.000000;fill:rgb(103,198,105);stroke:rgb(0,0,0);stroke-width:2"/></g>
<g fill-rule="evenodd"><path d="M 972.44,2364.25 L 972.44,179.054 L 973.99,173.776 L 978.148,170.172 L 982.204,169.29 L 1694.96,169.29 L 1700.24,170.84 L 1703.84,174.998 L 1704.72,179.054 L 1704.72,2364.25 L 1703.17,2369.53 L 1699.02,2373.13 L 1694.96,2374.01 L 982.204,2374.01 L 976.926,2372.46 L 973.322,2368.31 L 972.44,2364.25 z " style="fill-opacity:1.000000;fill:rgb(115,81,255);stroke:rgb(0,0,0);stroke-width:2"/></g>
</svg>
