<?xml version="1.0" standalone="no"?>
<!DOCTYPE svg PUBLIC "-//W3C//DTD SVG 1.1//EN"
"http://www.w3.org/Graphics/SVG/1.1/DTD/svg11.dtd">
<svg width="88.063" height="122.079" viewBox="0 0 1834.65 2543.31" version="1.1"
xmlns="http://www.w3.org/2000/svg"
xmlns:xlink="http://www.w3.org/1999/xlink">
<g fill-rule="evenodd"><path d="M 916.988,1.34586e-05 L 917.544,100.253 L 917.464,108.562 L 917.193,119.32 L 917.138,126.646 L 917.469,157.178 L 917.4,162.804 L 917.397,162.89 L 917.322,167.068 L 917.322,179.054 L 917.322,2364.25 L 917.322,2376.24 L 917.247,2380.41 L 917.243,2380.5 L 917.174,2386.12 L 917.506,2416.68 L 917.452,2424.01 L 917.18,2434.78 L 917.1,2443.09 L 917.656,2543.31 L 1.81899e-12,2543.31 L 1.81899e-12,0 L 916.988,1.34586e-05 z " style="fill-opacity:0.200000;fill:rgb(103,198,105);"/></g>
<g fill-rule="evenodd"><path d="M 917.656,2543.31 L 917.1,2443.09 L 917.18,2434.78 L 917.452,2424.01 L 917.506,2416.68 L 917.174,2386.12 L 917.243,2380.5 L 917.247,2380.41 L 917.322,2376.24 L 917.322,2364.25 L 917.322,179.054 L 917.322,167.068 L 917.397,162.89 L 917.4,162.804 L 917.469,157.178 L 917.138,126.646 L 917.193,119.32 L 917.464,108.562 L 917.544,100.253 L 916.988,1.34586e-05 L 1834.65,0 L 1834.65,2543.31 L 917.656,2543.31 z " style="fill-opacity:0.200000;fill:rgb(115,81,255);"/></g>
<polyline points="43.3036,2364.25 43.8016,2373.52 45.2916,2382.69 46.1756,2386.75 50.3996,2400.51 56.8456,2413.39 65.3376,2425.02 68.9396,2429.17 80.8556,2440.54 94.7096,2449.45 102.97,2452.75 110,2455.57 115.278,2457.12 127.354,2459.75 139.684,2460.63 852.44,2460.63 861.694,2460.13 870.844,2458.65 874.9,2457.77 888.678,2453.54 901.566,2447.09 913.206,2438.6 917.176,2435.16 917.18,2434.78 917.452,2424.01 917.506,2416.68 917.174,2386.12 917.242,2380.5 917.246,2380.41 917.322,2376.23 917.322,2364.25 917.322,179.054 917.322,167.068 917.396,162.888 917.4,162.802 917.468,157.176 917.138,126.644 917.192,119.318 917.46,108.668 911.264,102.76 897.408,93.8542 882.116,87.7322 876.836,86.1822 864.762,83.5562 852.44,82.6742 139.684,82.6742 130.428,83.1702 121.278,84.6522 117.222,85.5342 103.436,89.7622 101.862,90.5502 101.266,90.8482 90.5416,96.2162 78.8976,104.72 74.7396,108.324 63.3816,120.24 54.4816,134.088 48.3636,149.37 46.8136,154.648 44.1856,166.724 43.3036,179.054 43.3036,2364.25" style="stroke:rgb(103,198,105);stroke-width:173.228346;fill:none;stroke-opacity:0.5;stroke-linecap:round;stroke-linejoin:round;;fill:none"/>
<polyline points="43.3036,2364.25 43.8016,2373.52 45.2916,2382.69 46.1756,2386.75 50.3996,2400.51 56.8456,2413.39 65.3376,2425.02 68.9396,2429.17 80.8556,2440.54 94.7096,2449.45 102.97,2452.75 110,2455.57 115.278,2457.12 127.354,2459.75 139.684,2460.63 852.44,2460.63 861.694,2460.13 870.844,2458.65 874.9,2457.77 888.678,2453.54 901.566,2447.09 913.206,2438.6 917.176,2435.16 917.18,2434.78 917.452,2424.01 917.506,2416.68 917.174,2386.12 917.242,2380.5 917.246,2380.41 917.322,2376.23 917.322,2364.25 917.322,179.054 917.322,167.068 917.396,162.888 917.4,162.802 917.468,157.176 917.138,126.644 917.192,119.318 917.46,108.668 911.264,102.76 897.408,93.8542 882.116,87.7322 876.836,86.1822 864.762,83.5562 852.44,82.6742 139.684,82.6742 130.428,83.1702 121.278,84.6522 117.222,85.5342 103.436,89.7622 101.862,90.5502 101.266,90.8482 90.5416,96.2162 78.8976,104.72 74.7396,108.324 63.3816,120.24 54.4816,134.088 48.3636,149.37 46.8136,154.648 44.1856,166.724 43.3036,179.054 43.3036,2364.25" style="stroke:rgb(0,0,0);stroke-width:1px;fill:none;stroke-opacity:1;stroke-linecap:round;stroke-linejoin:round;;fill:none"/>
<polyline points="43.3036,2364.25 43.8016,2373.52 45.2916,2382.69 46.1756,2386.75 50.3996,2400.51 56.8456,2413.39 65.3376,2425.02 68.9396,2429.17 80.8556,2440.54 90.5496,2446.77 90.5496,2452.75 102.97,2452.75 110,2455.57 115.278,2457.12 127.354,2459.75 139.684,2460.63 852.44,2460.63 861.694,2460.13 870.844,2458.65 874.9,2457.77 888.678,2453.54 901.566,2447.09 913.206,2438.6 917.176,2435.16 917.18,2434.78 917.452,2424.01 917.506,2416.68 917.174,2386.12 917.242,2380.5 917.246,2380.41 917.322,2376.23 917.322,2364.25 917.322,179.054 917.322,167.068 917.396,162.888 917.4,162.802 917.468,157.176 917.138,126.644 917.192,119.318 917.46,108.668 911.264,102.76 897.408,93.8542 889.154,90.5502 882.116,87.7322 876.836,86.1822 864.762,83.5562 852.44,82.6742 139.684,82.6742 130.428,83.1702 121.278,84.6522 117.222,85.5342 103.436,89.7622 101.862,90.5502 90.5496,90.5502 90.5416,96.2162 78.8976,104.72 74.7396,108.324 63.3816,120.24 54.4816,134.088 48.3636,149.37 46.8136,154.648 44.1856,166.724 43.3036,179.054 43.3036,2364.25" style="stroke:rgb(103,198,105);stroke-width:173.228346;fill:none;stroke-opacity:0.5;stroke-linecap:round;stroke-linejoin:round;;fill:none"/>
<polyline points="43.3036,2364.25 43.8016,2373.52 45.2916,2382.69 46.1756,2386.75 50.3996,2400.51 56.8456,2413.39 65.3376,2425.02 68.9396,2429.17 80.8556,2440.54 90.5496,2446.77 90.5496,2452.75 102.97,2452.75 110,2455.57 115.278,2457.12 127.354,2459.75 139.684,2460.63 852.44,2460.63 861.694,2460.13 870.844,2458.65 874.9,2457.77 888.678,2453.54 901.566,2447.09 913.206,2438.6 917.176,2435.16 917.18,2434.78 917.452,2424.01 917.506,2416.68 917.174,2386.12 917.242,2380.5 917.246,2380.41 917.322,2376.23 917.322,2364.25 917.322,179.054 917.322,167.068 917.396,162.888 917.4,162.802 917.468,157.176 917.138,126.644 917.192,119.318 917.46,108.668 911.264,102.76 897.408,93.8542 889.154,90.5502 882.116,87.7322 876.836,86.1822 864.762,83.5562 852.44,82.6742 139.684,82.6742 130.428,83.1702 121.278,84.6522 117.222,85.5342 103.436,89.7622 101.862,90.5502 90.5496,90.5502 90.5416,96.2162 78.8976,104.72 74.7396,108.324 63.3816,120.24 54.4816,134.088 48.3636,149.37 46.8136,154.648 44.1856,166.724 43.3036,179.054 43.3036,2364.25" style="stroke:rgb(0,0,0);stroke-width:1px;fill:none;stroke-opacity:1;stroke-linecap:round;stroke-linejoin:round;;fill:none"/>
<polyline points="43.3036,2364.25 43.8016,2373.52 45.2916,2382.69 46.1756,2386.75 50.3996,2400.51 56.8456,2413.39 65.3376,2425.02 68.9396,2429.17 80.8556,2440.54 90.5496,2446.77 90.5496,2452.75 102.97,2452.75 110,2455.57 115.278,2457.12 127.354,2459.75 139.684,2460.63 852.44,2460.63 861.694,2460.13 870.844,2458.65 874.9,2457.77 888.678,2453.54 901.566,2447.09 913.206,2438.6 917.176,2435.16 917.18,2434.78 917.452,2424.01 917.506,2416.68 917.174,2386.12 917.242,2380.5 917.246,2380.41 917.322,2376.23 917.322,2364.25 917.322,179.054 917.322,167.068 917.396,162.888 917.4,162.802 917.468,157.176 917.138,126.644 917.192,119.318 917.46,108.668 911.264,102.76 897.408,93.8542 889.152,90.5482 882.116,87.7322 876.836,86.1822 864.762,83.5562 852.44,82.6742 139.684,82.6742 130.428,83.1702 121.278,84.6522 117.222,85.5342 103.436,89.7622 101.862,90.5502 90.5496,90.5502 90.5416,96.2162 78.8976,104.72 74.7396,108.324 63.3816,120.24 54.4816,134.088 48.3636,149.37 46.8136,154.648 44.1856,166.724 43.3036,179.054 43.3036,2364.25" style="stroke:rgb(103,198,105);stroke-width:173.228346;fill:none;stroke-opacity:0.5;stroke-linecap:round;stroke-linejoin:round;;fill:none"/>
<polyline points="43.3036,2364.25 43.8016,2373.52 45.2916,2382.69 46.1756,2386.75 50.3996,2400.51 56.8456,2413.39 65.3376,2425.02 68.9396,2429.17 80.8556,2440.54 90.5496,2446.77 90.5496,2452.75 102.97,2452.75 110,2455.57 115.278,2457.12 127.354,2459.75 139.684,2460.63 852.44,2460.63 861.694,2460.13 870.844,2458.65 874.9,2457.77 888.678,2453.54 901.566,2447.09 913.206,2438.6 917.176,2435.16 917.18,2434.78 917.452,2424.01 917.506,2416.68 917.174,2386.12 917.242,2380.5 917.246,2380.41 917.322,2376.23 917.322,2364.25 917.322,179.054 917.322,167.068 917.396,162.888 917.4,162.802 917.468,157.176 917.138,126.644 917.192,119.318 917.46,108.668 911.264,102.76 897.408,93.8542 889.152,90.5482 882.116,87.7322 876.836,86.1822 864.762,83.5562 852.44,82.6742 139.684,82.6742 130.428,83.1702 121.278,84.6522 117.222,85.5342 103.436,89.7622 101.862,90.5502 90.5496,90.5502 90.5416,96.2162 78.8976,104.72 74.7396,108.324 63.3816,120.24 54.4816,134.088 48.3636,149.37 46.8136,154.648 44.1856,166.724 43.3036,179.054 43.3036,2364.25" style="stroke:rgb(0,0,0);stroke-width:1px;fill:none;stroke-opacity:1;stroke-linecap:round;stroke-linejoin:round;;fill:none"/>
<polyline points="43.3036,2364.25 43.8016,2373.52 45.2916,2382.69 46.1756,2386.75 50.3996,2400.51 56.8456,2413.39 65.3376,2425.02 68.9396,2429.17 80.8556,2440.54 90.5496,2446.77 90.5496,2452.75 102.97,2452.75 110,2455.57 115.278,2457.12 127.354,2459.75 139.684,2460.63 852.44,2460.63 861.694,2460.13 870.844,2458.65 874.9,2457.77 888.678,2453.54 901.566,2447.09 913.206,2438.6 917.176,2435.16 917.18,2434.78 917.452,2424.01 917.506,2416.68 917.174,2386.12 917.242,2380.5 917.246,2380.41 917.322,2376.23 917.322,2364.25 917.322,179.054 917.322,167.068 917.396,162.888 917.4,162.802 917.468,157.176 917.138,126.644 917.192,119.318 917.46,108.668 911.264,102.76 897.408,93.8542 882.116,87.7322 876.836,86.1822 864.762,83.5562 852.44,82.6742 139.684,82.6742 130.428,83.1702 121.278,84.6522 117.222,85.5342 103.436,89.7622 101.862,90.5502 90.5496,90.5502 90.5416,96.2162 78.8976,104.72 74.7396,108.324 63.3816,120.24 54.4816,134.088 48.3636,149.37 46.8136,154.648 44.1856,166.724 43.3036,179.054 43.3036,2364.25" style="stroke:rgb(103,198,105);stroke-width:173.228346;fill:none;stroke-opacity:0.5;stroke-linecap:round;stroke-linejoin:round;;fill:none"/>
<polyline points="43.3036,2364.25 43.8016,2373.52 45.2916,2382.69 46.1756,2386.75 50.3996,2400.51 56.8456,2413.39 65.3376,2425.02 68.9396,2429.17 80.8556,2440.54 90.5496,2446.77 90.5496,2452.75 102.97,2452.75 110,2455.57 115.278,2457.12 127.354,2459.75 139.684,2460.63 852.44,2460.63 861.694,2460.13 870.844,2458.65 874.9,2457.77 888.678,2453.54 901.566,2447.09 913.206,2438.6 917.176,2435.16 917.18,2434.78 917.452,2424.01 917.506,2416.68 917.174,2386.12 917.242,2380.5 917.246,2380.41 917.322,2376.23 917.322,2364.25 917.322,179.054 917.322,167.068 917.396,162.888 917.4,162.802 917.468,157.176 917.138,126.644 917.192,119.318 917.46,108.668 911.264,102.76 897.408,93.8542 882.116,87.7322 876.836,86.1822 864.762,83.5562 852.44,82.6742 139.684,82.6742 130.428,83.1702 121.278,84.6522 117.222,85.5342 103.436,89.7622 101.862,90.5502 90.5496,90.5502 90.5416,96.2162 78.8976,104.72 74.7396,108.324 63.3816,120.24 54.4816,134.088 48.3636,149.37 46.8136,154.648 44.1856,166.724 43.3036,179.054 43.3036,2364.25" style="stroke:rgb(0,0,0);stroke-width:1px;fill:none;stroke-opacity:1;stroke-linecap:round;stroke-linejoin:round;;fill:none"/>
<polyline points="43.3036,2364.25 43.8016,2373.52 45.2916,2382.69 46.1756,2386.75 50.3996,2400.51 56.8456,2413.39 65.3376,2425.02 68.9396,2429.17 80.8556,2440.54 90.5496,2446.77 90.5496,2452.75 102.97,2452.75 110,2455.57 115.278,2457.12 127.354,2459.75 139.684,2460.63 852.44,2460.63 861.694,2460.13 870.844,2458.65 874.9,2457.77 888.678,2453.54 901.566,2447.09 913.206,2438.6 917.176,2435.16 917.18,2434.78 917.452,2424.01 917.506,2416.68 917.174,2386.12 917.242,2380.5 917.246,2380.41 917.322,2376.23 917.322,2364.25 917.322,179.054 917.322,167.068 917.396,162.888 917.4,162.802 917.468,157.176 917.138,126.644 917.192,119.318 917.46,108.668 911.264,102.76 897.408,93.8542 889.154,90.5482 882.116,87.7322 876.836,86.1822 864.762,83.5562 852.44,82.6742 139.684,82.6742 130.428,83.1702 121.278,84.6522 117.222,85.5342 103.436,89.7622 101.862,90.5502 90.5496,90.5502 90.5416,96.2162 78.8976,104.72 74.7396,108.324 63.3816,120.24 54.4816,134.088 48.3636,149.37 46.8136,154.648 44.1856,166.724 43.3036,179.054 43.3036,2364.25" style="stroke:rgb(103,198,105);stroke-width:173.228346;fill:none;stroke-opacity:0.5;stroke-linecap:round;stroke-linejoin:round;;fill:none"/>
<polyline points="43.3036,2364.25 43.8016,2373.52 45.2916,2382.69 46.1756,2386.75 50.3996,2400.51 56.8456,2413.39 65.3376,2425.02 68.9396,2429.17 80.8556,2440.54 90.5496,2446.77 90.5496,2452.75 102.97,2452.75 110,2455.57 115.278,2457.12 127.354,2459.75 139.684,2460.63 852.44,2460.63 861.694,2460.13 870.844,2458.65 874.9,2457.77 888.678,2453.54 901.566,2447.09 913.206,2438.6 917.176,2435.16 917.18,2434.78 917.452,2424.01 917.506,2416.68 917.174,2386.12 917.242,2380.5 917.246,2380.41 917.322,2376.23 917.322,2364.25 917.322,179.054 917.322,167.068 917.396,162.888 917.4,162.802 917.468,157.176 917.138,126.644 917.192,119.318 917.46,108.668 911.264,102.76 897.408,93.8542 889.154,90.5482 882.116,87.7322 876.836,86.1822 864.762,83.5562 852.44,82.6742 139.684,82.6742 130.428,83.1702 121.278,84.6522 117.222,85.5342 103.436,89.7622 101.862,90.5502 90.5496,90.5502 90.5416,96.2162 78.8976,104.72 74.7396,108.324 63.3816,120.24 54.4816,134.088 48.3636,149.37 46.8136,154.648 44.1856,166.724 43.3036,179.054 43.3036,2364.25" style="stroke:rgb(0,0,0);stroke-width:1px;fill:none;stroke-opacity:1;stroke-linecap:round;stroke-linejoin:round;;fill:none"/>
<polyline points="43.3036,2364.25 43.8016,2373.52 45.2916,2382.69 46.1756,2386.75 50.3996,2400.51 56.8456,2413.39 65.3376,2425.02 68.9396,2429.17 80.8556,2440.54 90.5496,2446.77 90.5496,2452.75 102.97,2452.75 110,2455.57 115.278,2457.12 127.354,2459.75 139.684,2460.63 852.44,2460.63 861.694,2460.13 870.844,2458.65 874.9,2457.77 888.678,2453.54 901.566,2447.09 913.206,2438.6 917.176,2435.16 917.18,2434.78 917.452,2424.01 917.506,2416.68 917.174,2386.12 917.242,2380.5 917.246,2380.41 917.322,2376.23 917.322,2364.25 917.322,179.054 917.322,167.068 917.396,162.888 917.4,162.802 917.468,157.176 917.138,126.644 917.192,119.318 917.46,108.668 911.264,102.76 897.408,93.8542 882.116,87.7322 876.836,86.1822 864.762,83.5562 852.44,82.6742 139.684,82.6742 130.428,83.1702 121.278,84.6522 117.222,85.5342 103.436,89.7622 101.862,90.5502 90.5496,90.5502 90.5416,96.2162 78.8976,104.72 74.7396,108.324 63.3816,120.24 54.4816,134.088 48.3636,149.37 46.8136,154.648 44.1856,166.724 43.3036,179.054 43.3036,2364.25" style="stroke:rgb(103,198,105);stroke-width:173.228346;fill:none;stroke-opacity:0.5;stroke-linecap:round;stroke-linejoin:round;;fill:none"/>
<polyline points="43.3036,2364.25 43.8016,2373.52 45.2916,2382.69 46.1756,2386.75 50.3996,2400.51 56.8456,2413.39 65.3376,2425.02 68.9396,2429.17 80.8556,2440.54 90.5496,2446.77 90.5496,2452.75 102.97,2452.75 110,2455.57 115.278,2457.12 127.354,2459.75 139.684,2460.63 852.44,2460.63 861.694,2460.13 870.844,2458.65 874.9,2457.77 888.678,2453.54 901.566,2447.09 913.206,2438.6 917.176,2435.16 917.18,2434.78 917.452,2424.01 917.506,2416.68 917.174,2386.12 917.242,2380.5 917.246,2380.41 917.322,2376.23 917.322,2364.25 917.322,179.054 917.322,167.068 917.396,162.888 917.4,162.802 917.468,157.176 917.138,126.644 917.192,119.318 917.46,108.668 911.264,102.76 897.408,93.8542 882.116,87.7322 876.836,86.1822 864.762,83.5562 852.44,82.6742 139.684,82.6742 130.428,83.1702 121.278,84.6522 117.222,85.5342 103.436,89.7622 101.862,90.5502 90.5496,90.5502 90.5416,96.2162 78.8976,104.72 74.7396,108.324 63.3816,120.24 54.4816,134.088 48.3636,149.37 46.8136,154.648 44.1856,166.724 43.3036,179.054 43.3036,2364.25" style="stroke:rgb(0,0,0);stroke-width:1px;fill:none;stroke-opacity:1;stroke-linecap:round;stroke-linejoin:round;;fill:none"/>
<polyline points="43.3036,2364.25 43.8016,2373.52 45.2916,2382.69 46.1756,2386.75 50.3996,2400.51 56.8456,2413.39 65.3376,2425.02 68.9396,2429.17 80.8556,2440.54 90.5496,2446.77 90.5496,2452.75 102.97,2452.75 110,2455.57 115.278,2457.12 127.354,2459.75 139.684,2460.63 852.44,2460.63 861.694,2460.13 870.844,2458.65 874.9,2457.77 888.678,2453.54 901.566,2447.09 913.206,2438.6 917.176,2435.16 917.18,2434.78 917.452,2424.01 917.506,2416.68 917.174,2386.12 917.242,2380.5 917.246,2380.41 917.322,2376.23 917.322,2364.25 917.322,179.054 917.322,167.068 917.396,162.888 917.4,162.802 917.468,157.176 917.138,126.644 917.192,119.318 917.46,108.668 911.264,102.76 897.408,93.8542 889.154,90.5502 882.116,87.7322 876.836,86.1822 864.762,83.5562 852.44,82.6742 139.684,82.6742 130.428,83.1702 121.278,84.6522 117.222,85.5342 103.436,89.7622 101.862,90.5502 90.5496,90.5502 90.5416,96.2162 78.8976,104.72 74.7396,108.324 63.3816,120.24 54.4816,134.088 48.3636,149.37 46.8136,154.648 44.1856,166.724 43.3036,179.054 43.3036,2364.25" style="stroke:rgb(103,198,105);stroke-width:173.228346;fill:none;stroke-opacity:0.5;stroke-linecap:round;stroke-linejoin:round;;fill:none"/>
<polyline points="43.3036,2364.25 43.8016,2373.52 45.2916,2382.69 46.1756,2386.75 50.3996,2400.51 56.8456,2413.39 65.3376,2425.02 68.9396,2429.17 80.8556,2440.54 90.5496,2446.77 90.5496,2452.75 102.97,2452.75 110,2455.57 115.278,2457.12 127.354,2459.75 139.684,2460.63 852.44,2460.63 861.694,2460.13 870.844,2458.65 874.9,2457.77 888.678,2453.54 901.566,2447.09 913.206,2438.6 917.176,2435.16 917.18,2434.78 917.452,2424.01 917.506,2416.68 917.174,2386.12 917.242,2380.5 917.246,2380.41 917.322,2376.23 917.322,2364.25 917.322,179.054 917.322,167.068 917.396,162.888 917.4,162.802 917.468,157.176 917.138,126.644 917.192,119.318 917.46,108.668 911.264,102.76 897.408,93.8542 889.154,90.5502 882.116,87.7322 876.836,86.1822 864.762,83.5562 852.44,82.6742 139.684,82.6742 130.428,83.1702 121.278,84.6522 117.222,85.5342 103.436,89.7622 101.862,90.5502 90.5496,90.5502 90.5416,96.2162 78.8976,104.72 74.7396,108.324 63.3816,120.24 54.4816,134.088 48.3636,149.37 46.8136,154.648 44.1856,166.724 43.3036,179.054 43.3036,2364.25" style="stroke:rgb(0,0,0);stroke-width:1px;fill:none;stroke-opacity:1;stroke-linecap:round;stroke-linejoin:round;;fill:none"/>
<polyline points="43.3036,2364.25 43.8016,2373.52 45.2916,2382.69 46.1756,2386.75 50.3996,2400.51 56.8456,2413.39 65.3376,2425.02 68.9396,2429.17 80.8556,2440.54 90.5496,2446.77 90.5496,2452.75 102.97,2452.75 110,2455.57 115.278,2457.12 127.354,2459.75 139.684,2460.63 852.44,2460.63 861.694,2460.13 870.844,2458.65 874.9,2457.77 888.678,2453.54 901.566,2447.09 913.206,2438.6 917.176,2435.16 917.18,2434.78 917.452,2424.01 917.506,2416.68 917.174,2386.12 917.242,2380.5 917.246,2380.41 917.322,2376.23 917.322,2364.25 917.322,179.054 917.322,167.068 917.396,162.888 917.4,162.802 917.468,157.176 917.138,126.644 917.192,119.318 917.46,108.668 911.264,102.76 897.408,93.8542 882.116,87.7322 876.836,86.1822 864.762,83.5562 852.44,82.6742 139.684,82.6742 130.428,83.1702 121.278,84.6522 117.222,85.5342 103.436,89.7622 101.862,90.5502 90.5496,90.5502 90.5416,96.2162 78.8976,104.72 74.7396,108.324 63.3816,120.24 54.4816,134.088 48.3636,149.37 46.8136,154.648 44.1856,166.724 43.3036,179.054 43.3036,2364.25" style="stroke:rgb(103,198,105);stroke-width:173.228346;fill:none;stroke-opacity:0.5;stroke-linecap:round;stroke-linejoin:round;;fill:none"/>
<polyline points="43.3036,2364.25 43.8016,2373.52 45.2916,2382.69 46.1756,2386.75 50.3996,2400.51 56.8456,2413.39 65.3376,2425.02 68.9396,2429.17 80.8556,2440.54 90.5496,2446.77 90.5496,2452.75 102.97,2452.75 110,2455.57 115.278,2457.12 127.354,2459.75 139.684,2460.63 852.44,2460.63 861.694,2460.13 870.844,2458.65 874.9,2457.77 888.678,2453.54 901.566,2447.09 913.206,2438.6 917.176,2435.16 917.18,2434.78 917.452,2424.01 917.506,2416.68 917.174,2386.12 917.242,2380.5 917.246,2380.41 917.322,2376.23 917.322,2364.25 917.322,179.054 917.322,167.068 917.396,162.888 917.4,162.802 917.468,157.176 917.138,126.644 917.192,119.318 917.46,108.668 911.264,102.76 897.408,93.8542 882.116,87.7322 876.836,86.1822 864.762,83.5562 852.44,82.6742 139.684,82.6742 130.428,83.1702 121.278,84.6522 117.222,85.5342 103.436,89.7622 101.862,90.5502 90.5496,90.5502 90.5416,96.2162 78.8976,104.72 74.7396,108.324 63.3816,120.24 54.4816,134.088 48.3636,149.37 46.8136,154.648 44.1856,166.724 43.3036,179.054 43.3036,2364.25" style="stroke:rgb(0,0,0);stroke-width:1px;fill:none;stroke-opacity:1;stroke-linecap:round;stroke-linejoin:round;;fill:none"/>
<polyline points="43.3036,2364.25 43.8016,2373.52 45.2916,2382.69 46.1756,2386.75 50.3996,2400.51 56.8456,2413.39 65.3376,2425.02 68.9396,2429.17 80.8556,2440.54 90.5496,2446.77 90.5496,2452.75 102.97,2452.75 110,2455.57 115.278,2457.12 127.354,2459.75 139.684,2460.63 852.44,2460.63 861.694,2460.13 870.844,2458.65 874.9,2457.77 888.678,2453.54 901.566,2447.09 913.206,2438.6 917.176,2435.16 917.18,2434.78 917.452,2424.01 917.506,2416.68 917.174,2386.12 917.242,2380.5 917.246,2380.41 917.322,2376.23 917.322,2364.25 917.322,179.054 917.322,167.068 917.396,162.888 917.4,162.802 917.468,157.176 917.138,126.644 917.192,119.318 917.46,108.668 911.264,102.76 897.408,93.8542 889.152,90.5482 882.116,87.7322 876.836,86.1822 864.762,83.5562 852.44,82.6742 139.684,82.6742 130.428,83.1702 121.278,84.6522 117.222,85.5342 103.436,89.7622 101.862,90.5502 90.5496,90.5502 90.5416,96.2162 78.8976,104.72 74.7396,108.324 63.3816,120.24 54.4816,134.088 48.3636,149.37 46.8136,154.648 44.1856,166.724 43.3036,179.054 43.3036,2364.25" style="stroke:rgb(103,198,105);stroke-width:173.228346;fill:none;stroke-opacity:0.5;stroke-linecap:round;stroke-linejoin:round;;fill:none"/>
<polyline points="43.3036,2364.25 43.8016,2373.52 45.2916,2382.69 46.1756,2386.75 50.3996,2400.51 56.8456,2413.39 65.3376,2425.02 68.9396,2429.17 80.8556,2440.54 90.5496,2446.77 90.5496,2452.75 102.97,2452.75 110,2455.57 115.278,2457.12 127.354,2459.75 139.684,2460.63 852.44,2460.63 861.694,2460.13 870.844,2458.65 874.9,2457.77 888.678,2453.54 901.566,2447.09 913.206,2438.6 917.176,2435.16 917.18,2434.78 917.452,2424.01 917.506,2416.68 917.174,2386.12 917.242,2380.5 917.246,2380.41 917.322,2376.23 917.322,2364.25 917.322,179.054 917.322,167.068 917.396,162.888 917.4,162.802 917.468,157.176 917.138,126.644 917.192,119.318 917.46,108.668 911.264,102.76 897.408,93.8542 889.152,90.5482 882.116,87.7322 876.836,86.1822 864.762,83.5562 852.44,82.6742 139.684,82.6742 130.428,83.1702 121.278,84.6522 117.222,85.5342 103.436,89.7622 101.862,90.5502 90.5496,90.5502 90.5416,96.2162 78.8976,104.72 74.7396,108.324 63.3816,120.24 54.4816,134.088 48.3636,149.37 46.8136,154.648 44.1856,166.724 43.3036,179.054 43.3036,2364.25" style="stroke:rgb(0,0,0);stroke-width:1px;fill:none;stroke-opacity:1;stroke-linecap:round;stroke-linejoin:round;;fill:none"/>
<polyline points="43.3036,2364.25 43.8016,2373.52 45.2916,2382.69 46.1756,2386.75 50.3996,2400.51 56.8456,2413.39 65.3376,2425.02 68.9396,2429.17 80.8556,2440.54 90.5496,2446.77 90.5496,2452.75 102.97,2452.75 110,2455.57 115.278,2457.12 127.354,2459.75 139.684,2460.63 852.44,2460.63 861.694,2460.13 870.844,2458.65 874.9,2457.77 888.678,2453.54 901.566,2447.09 913.206,2438.6 917.176,2435.16 917.18,2434.78 917.452,2424.01 917.506,2416.68 917.174,2386.12 917.242,2380.5 917.246,2380.41 917.322,2376.23 917.322,2364.25 917.322,179.054 917.322,167.068 917.396,162.888 917.4,162.802 917.468,157.176 917.138,126.644 917.192,119.318 917.46,108.668 911.264,102.76 897.408,93.8542 889.154,90.5502 882.116,87.7322 876.836,86.1822 864.762,83.5562 852.44,82.6742 139.684,82.6742 130.428,83.1702 121.278,84.6522 117.222,85.5342 103.436,89.7622 101.862,90.5502 90.5496,90.5502 90.5416,96.2162 78.8976,104.72 74.7396,108.324 63.3816,120.24 54.4816,134.088 48.3636,149.37 46.8136,154.648 44.1856,166.724 43.3036,179.054 43.3036,2364.25" style="stroke:rgb(103,198,105);stroke-width:173.228346;fill:none;stroke-opacity:0.5;stroke-linecap:round;stroke-linejoin:round;;fill:none"/>
<polyline points="43.3036,2364.25 43.8016,2373.52 45.2916,2382.69 46.1756,2386.75 50.3996,2400.51 56.8456,2413.39 65.3376,2425.02 68.9396,2429.17 80.8556,2440.54 90.5496,2446.77 90.5496,2452.75 102.97,2452.75 110,2455.57 115.278,2457.12 127.354,2459.75 139.684,2460.63 852.44,2460.63 861.694,2460.13 870.844,2458.65 874.9,2457.77 888.678,2453.54 901.566,2447.09 913.206,2438.6 917.176,2435.16 917.18,2434.78 917.452,2424.01 917.506,2416.68 917.174,2386.12 917.242,2380.5 917.246,2380.41 917.322,2376.23 917.322,2364.25 917.322,179.054 917.322,167.068 917.396,162.888 917.4,162.802 917.468,157.176 917.138,126.644 917.192,119.318 917.46,108.668 911.264,102.76 897.408,93.8542 889.154,90.5502 882.116,87.7322 876.836,86.1822 864.762,83.5562 852.44,82.6742 139.684,82.6742 130.428,83.1702 121.278,84.6522 117.222,85.5342 103.436,89.7622 101.862,90.5502 90.5496,90.5502 90.5416,96.2162 78.8976,104.72 74.7396,108.324 63.3816,120.24 54.4816,134.088 48.3636,149.37 46.8136,154.648 44.1856,166.724 43.3036,179.054 43.3036,2364.25" style="stroke:rgb(0,0,0);stroke-width:1px;fill:none;stroke-opacity:1;stroke-linecap:round;stroke-linejoin:round;;fill:none"/>
<polyline points="43.3036,2364.25 43.8016,2373.52 45.2916,2382.69 46.1756,2386.75 50.3996,2400.51 56.8456,2413.39 65.3376,2425.02 68.9396,2429.17 80.8556,2440.54 90.5496,2446.77 90.5496,2452.75 102.97,2452.75 110,2455.57 115.278,2457.12 127.354,2459.75 139.684,2460.63 852.44,2460.63 861.694,2460.13 870.844,2458.65 874.9,2457.77 888.678,2453.54 901.566,2447.09 913.206,2438.6 917.176,2435.16 917.18,2434.78 917.452,2424.01 917.506,2416.68 917.174,2386.12 917.242,2380.5 917.246,2380.41 917.322,2376.23 917.322,2364.25 917.322,179.054 917.322,167.068 917.396,162.888 917.4,162.802 917.468,157.176 917.138,126.644 917.192,119.318 917.46,108.668 911.264,102.76 897.408,93.8542 889.154,90.5502 882.116,87.7322 876.836,86.1822 864.762,83.5562 852.44,82.6742 139.684,82.6742 130.428,83.1702 121.278,84.6522 117.222,85.5342 103.436,89.7622 101.862,90.5502 90.5496,90.5502 90.5416,96.2162 78.8976,104.72 74.7396,108.324 63.3816,120.24 54.4816,134.088 48.3636,149.37 46.8136,154.648 44.1856,166.724 43.3036,179.054 43.3036,2364.25" style="stroke:rgb(103,198,105);stroke-width:173.228346;fill:none;stroke-opacity:0.5;stroke-linecap:round;stroke-linejoin:round;;fill:none"/>
<polyline points="43.3036,2364.25 43.8016,2373.52 45.2916,2382.69 46.1756,2386.75 50.3996,2400.51 56.8456,2413.39 65.3376,2425.02 68.9396,2429.17 80.8556,2440.54 90.5496,2446.77 90.5496,2452.75 102.97,2452.75 110,2455.57 115.278,2457.12 127.354,2459.75 139.684,2460.63 852.44,2460.63 861.694,2460.13 870.844,2458.65 874.9,2457.77 888.678,2453.54 901.566,2447.09 913.206,2438.6 917.176,2435.16 917.18,2434.78 917.452,2424.01 917.506,2416.68 917.174,2386.12 917.242,2380.5 917.246,2380.41 917.322,2376.23 917.322,2364.25 917.322,179.054 917.322,167.068 917.396,162.888 917.4,162.802 917.468,157.176 917.138,126.644 917.192,119.318 917.46,108.668 911.264,102.76 897.408,93.8542 889.154,90.5502 882.116,87.7322 876.836,86.1822 864.762,83.5562 852.44,82.6742 139.684,82.6742 130.428,83.1702 121.278,84.6522 117.222,85.5342 103.436,89.7622 101.862,90.5502 90.5496,90.5502 90.5416,96.2162 78.8976,104.72 74.7396,108.324 63.3816,120.24 54.4816,134.088 48.3636,149.37 46.8136,154.648 44.1856,166.724 43.3036,179.054 43.3036,2364.25" style="stroke:rgb(0,0,0);stroke-width:1px;fill:none;stroke-opacity:1;stroke-linecap:round;stroke-linejoin:round;;fill:none"/>
<polyline points="43.3036,2364.25 43.8016,2373.52 45.2916,2382.69 46.1756,2386.75 50.3996,2400.51 56.8456,2413.39 65.3376,2425.02 68.9396,2429.17 80.8556,2440.54 90.5496,2446.77 90.5496,2452.75 102.97,2452.75 110,2455.57 115.278,2457.12 127.354,2459.75 139.684,2460.63 852.44,2460.63 861.694,2460.13 870.844,2458.65 874.9,2457.77 888.678,2453.54 901.566,2447.09 913.206,2438.6 917.176,2435.16 917.18,2434.78 917.452,2424.01 917.506,2416.68 917.174,2386.12 917.242,2380.5 917.246,2380.41 917.322,2376.23 917.322,2364.25 917.322,179.054 917.322,167.068 917.396,162.888 917.4,162.802 917.468,157.176 917.138,126.644 917.192,119.318 917.46,108.668 911.264,102.76 897.408,93.8542 889.154,90.5502 882.116,87.7322 876.836,86.1822 864.762,83.5562 852.44,82.6742 139.684,82.6742 130.428,83.1702 121.278,84.6522 117.222,85.5342 103.436,89.7622 101.862,90.5502 90.5496,90.5502 90.5416,96.2162 78.8976,104.72 74.7396,108.324 63.3816,120.24 54.4816,134.088 48.3636,149.37 46.8136,154.648 44.1856,166.724 43.3036,179.054 43.3036,2364.25" style="stroke:rgb(103,198,105);stroke-width:173.228346;fill:none;stroke-opacity:0.5;stroke-linecap:round;stroke-linejoin:round;;fill:none"/>
<polyline points="43.3036,2364.25 43.8016,2373.52 45.2916,2382.69 46.1756,2386.75 50.3996,2400.51 56.8456,2413.39 65.3376,2425.02 68.9396,2429.17 80.8556,2440.54 90.5496,2446.77 90.5496,2452.75 102.97,2452.75 110,2455.57 115.278,2457.12 127.354,2459.75 139.684,2460.63 852.44,2460.63 861.694,2460.13 870.844,2458.65 874.9,2457.77 888.678,2453.54 901.566,2447.09 913.206,2438.6 917.176,2435.16 917.18,2434.78 917.452,2424.01 917.506,2416.68 917.174,2386.12 917.242,2380.5 917.246,2380.41 917.322,2376.23 917.322,2364.25 917.322,179.054 917.322,167.068 917.396,162.888 917.4,162.802 917.468,157.176 917.138,126.644 917.192,119.318 917.46,108.668 911.264,102.76 897.408,93.8542 889.154,90.5502 882.116,87.7322 876.836,86.1822 864.762,83.5562 852.44,82.6742 139.684,82.6742 130.428,83.1702 121.278,84.6522 117.222,85.5342 103.436,89.7622 101.862,90.5502 90.5496,90.5502 90.5416,96.2162 78.8976,104.72 74.7396,108.324 63.3816,120.24 54.4816,134.088 48.3636,149.37 46.8136,154.648 44.1856,166.724 43.3036,179.054 43.3036,2364.25" style="stroke:rgb(0,0,0);stroke-width:1px;fill:none;stroke-opacity:1;stroke-linecap:round;stroke-linejoin:round;;fill:none"/>
<polyline points="43.3036,2364.25 43.8016,2373.52 45.2916,2382.69 46.1756,2386.75 50.3996,2400.51 56.8456,2413.39 65.3376,2425.02 68.9396,2429.17 80.8556,2440.54 90.5496,2446.77 90.5496,2452.75 102.97,2452.75 110,2455.57 115.278,2457.12 127.354,2459.75 139.684,2460.63 852.44,2460.63 861.694,2460.13 870.844,2458.65 874.9,2457.77 888.678,2453.54 901.566,2447.09 913.206,2438.6 917.176,2435.16 917.18,2434.78 917.452,2424.01 917.506,2416.68 917.174,2386.12 917.242,2380.5 917.246,2380.41 917.322,2376.23 917.322,2364.25 917.322,179.054 917.322,167.068 917.396,162.888 917.4,162.802 917.468,157.176 917.138,126.644 917.192,119.318 917.46,108.668 911.264,102.76 897.408,93.8542 882.116,87.7322 876.836,86.1822 864.762,83.5562 852.44,82.6742 139.684,82.6742 130.428,83.1702 121.278,84.6522 117.222,85.5342 103.436,89.7622 101.862,90.5502 90.5496,90.5502 90.5416,96.2162 78.8976,104.72 74.7396,108.324 63.3816,120.24 54.4816,134.088 48.3636,149.37 46.8136,154.648 44.1856,166.724 43.3036,179.054 43.3036,2364.25" style="stroke:rgb(103,198,105);stroke-width:173.228346;fill:none;stroke-opacity:0.5;stroke-linecap:round;stroke-linejoin:round;;fill:none"/>
<polyline points="43.3036,2364.25 43.8016,2373.52 45.2916,2382.69 46.1756,2386.75 50.3996,2400.51 56.8456,2413.39 65.3376,2425.02 68.9396,2429.17 80.8556,2440.54 90.5496,2446.77 90.5496,2452.75 102.97,2452.75 110,2455.57 115.278,2457.12 127.354,2459.75 139.684,2460.63 852.44,2460.63 861.694,2460.13 870.844,2458.65 874.9,2457.77 888.678,2453.54 901.566,2447.09 913.206,2438.6 917.176,2435.16 917.18,2434.78 917.452,2424.01 917.506,2416.68 917.174,2386.12 917.242,2380.5 917.246,2380.41 917.322,2376.23 917.322,2364.25 917.322,179.054 917.322,167.068 917.396,162.888 917.4,162.802 917.468,157.176 917.138,126.644 917.192,119.318 917.46,108.668 911.264,102.76 897.408,93.8542 882.116,87.7322 876.836,86.1822 864.762,83.5562 852.44,82.6742 139.684,82.6742 130.428,83.1702 121.278,84.6522 117.222,85.5342 103.436,89.7622 101.862,90.5502 90.5496,90.5502 90.5416,96.2162 78.8976,104.72 74.7396,108.324 63.3816,120.24 54.4816,134.088 48.3636,149.37 46.8136,154.648 44.1856,166.724 43.3036,179.054 43.3036,2364.25" style="stroke:rgb(0,0,0);stroke-width:1px;fill:none;stroke-opacity:1;stroke-linecap:round;stroke-linejoin:round;;fill:none"/>
<polyline points="43.3036,2364.25 43.8016,2373.52 45.2916,2382.69 46.1756,2386.75 50.3996,2400.51 56.8456,2413.39 65.3376,2425.02 68.9396,2429.17 80.8556,2440.54 90.5496,2446.77 90.5496,2452.75 102.97,2452.75 110,2455.57 115.278,2457.12 127.354,2459.75 139.684,2460.63 852.44,2460.63 861.694,2460.13 870.844,2458.65 874.9,2457.77 888.678,2453.54 901.566,2447.09 913.206,2438.6 917.176,2435.16 917.18,2434.78 917.452,2424.01 917.506,2416.68 917.174,2386.12 917.242,2380.5 917.246,2380.41 917.322,2376.23 917.322,2364.25 917.322,179.054 917.322,167.068 917.396,162.888 917.4,162.802 917.468,157.176 917.138,126.644 917.192,119.318 917.46,108.668 911.264,102.76 897.408,93.8542 889.154,90.5502 882.116,87.7322 876.836,86.1822 864.762,83.5562 852.44,82.6742 139.684,82.6742 130.428,83.1702 121.278,84.6522 117.222,85.5342 103.436,89.7622 101.862,90.5502 90.5496,90.5502 90.5416,96.2162 78.8976,104.72 74.7396,108.324 63.3816,120.24 54.4816,134.088 48.3636,149.37 46.8136,154.648 44.1856,166.724 43.3036,179.054 43.3036,2364.25" style="stroke:rgb(103,198,105);stroke-width:173.228346;fill:none;stroke-opacity:0.5;stroke-linecap:round;stroke-linejoin:round;;fill:none"/>
<polyline points="43.3036,2364.25 43.8016,2373.52 45.2916,2382.69 46.1756,2386.75 50.3996,2400.51 56.8456,2413.39 65.3376,2425.02 68.9396,2429.17 80.8556,2440.54 90.5496,2446.77 90.5496,2452.75 102.97,2452.75 110,2455.57 115.278,2457.12 127.354,2459.75 139.684,2460.63 852.44,2460.63 861.694,2460.13 870.844,2458.65 874.9,2457.77 888.678,2453.54 901.566,2447.09 913.206,2438.6 917.176,2435.16 917.18,2434.78 917.452,2424.01 917.506,2416.68 917.174,2386.12 917.242,2380.5 917.246,2380.41 917.322,2376.23 917.322,2364.25 917.322,179.054 917.322,167.068 917.396,162.888 917.4,162.802 917.468,157.176 917.138,126.644 917.192,119.318 917.46,108.668 911.264,102.76 897.408,93.8542 889.154,90.5502 882.116,87.7322 876.836,86.1822 864.762,83.5562 852.44,82.6742 139.684,82.6742 130.428,83.1702 121.278,84.6522 117.222,85.5342 103.436,89.7622 101.862,90.5502 90.5496,90.5502 90.5416,96.2162 78.8976,104.72 74.7396,108.324 63.3816,120.24 54.4816,134.088 48.3636,149.37 46.8136,154.648 44.1856,166.724 43.3036,179.054 43.3036,2364.25" style="stroke:rgb(0,0,0);stroke-width:1px;fill:none;stroke-opacity:1;stroke-linecap:round;stroke-linejoin:round;;fill:none"/>
<polyline points="43.3036,2364.25 43.8016,2373.52 45.2916,2382.69 46.1756,2386.75 50.3996,2400.51 56.8456,2413.39 65.3376,2425.02 68.9396,2429.17 80.8556,2440.54 90.5496,2446.77 90.5496,2452.75 102.97,2452.75 110,2455.57 115.278,2457.12 127.354,2459.75 139.684,2460.63 852.44,2460.63 861.694,2460.13 870.844,2458.65 874.9,2457.77 888.678,2453.54 901.566,2447.09 913.206,2438.6 917.176,2435.16 917.18,2434.78 917.452,2424.01 917.506,2416.68 917.174,2386.12 917.242,2380.5 917.246,2380.41 917.322,2376.23 917.322,2364.25 917.322,179.054 917.322,167.068 917.396,162.888 917.4,162.802 917.468,157.176 917.138,126.644 917.192,119.318 917.46,108.668 911.264,102.76 897.408,93.8542 889.154,90.5502 882.116,87.7322 876.836,86.1822 864.762,83.5562 852.44,82.6742 139.684,82.6742 130.428,83.1702 121.278,84.6522 117.222,85.5342 103.436,89.7622 101.862,90.5502 90.5496,90.5502 90.5416,96.2162 78.8976,104.72 74.7396,108.324 63.3816,120.24 54.4816,134.088 48.3636,149.37 46.8136,154.648 44.1856,166.724 43.3036,179.054 43.3036,2364.25" style="stroke:rgb(103,198,105);stroke-width:173.228346;fill:none;stroke-opacity:0.5;stroke-linecap:round;stroke-linejoin:round;;fill:none"/>
<polyline points="43.3036,2364.25 43.8016,2373.52 45.2916,2382.69 46.1756,2386.75 50.3996,2400.51 56.8456,2413.39 65.3376,2425.02 68.9396,2429.17 80.8556,2440.54 90.5496,2446.77 90.5496,2452.75 102.97,2452.75 110,2455.57 115.278,2457.12 127.354,2459.75 139.684,2460.63 852.44,2460.63 861.694,2460.13 870.844,2458.65 874.9,2457.77 888.678,2453.54 901.566,2447.09 913.206,2438.6 917.176,2435.16 917.18,2434.78 917.452,2424.01 917.506,2416.68 917.174,2386.12 917.242,2380.5 917.246,2380.41 917.322,2376.23 917.322,2364.25 917.322,179.054 917.322,167.068 917.396,162.888 917.4,162.802 917.468,157.176 917.138,126.644 917.192,119.318 917.46,108.668 911.264,102.76 897.408,93.8542 889.154,90.5502 882.116,87.7322 876.836,86.1822 864.762,83.5562 852.44,82.6742 139.684,82.6742 130.428,83.1702 121.278,84.6522 117.222,85.5342 103.436,89.7622 101.862,90.5502 90.5496,90.5502 90.5416,96.2162 78.8976,104.72 74.7396,108.324 63.3816,120.24 54.4816,134.088 48.3636,149.37 46.8136,154.648 44.1856,166.724 43.3036,179.054 43.3036,2364.25" style="stroke:rgb(0,0,0);stroke-width:1px;fill:none;stroke-opacity:1;stroke-linecap:round;stroke-linejoin:round;;fill:none"/>
<polyline points="43.3036,2364.25 43.8016,2373.52 45.2916,2382.69 46.1756,2386.75 50.3996,2400.51 56.8456,2413.39 65.3376,2425.02 68.9396,2429.17 80.8556,2440.54 90.5496,2446.77 90.5496,2452.75 102.97,2452.75 110,2455.57 115.278,2457.12 127.354,2459.75 139.684,2460.63 852.44,2460.63 861.694,2460.13 870.844,2458.65 874.9,2457.77 888.678,2453.54 901.566,2447.09 913.206,2438.6 917.176,2435.16 917.18,2434.78 917.452,2424.01 917.506,2416.68 917.174,2386.12 917.242,2380.5 917.246,2380.41 917.322,2376.23 917.322,2364.25 917.322,179.054 917.322,167.068 917.396,162.888 917.4,162.802 917.468,157.176 917.138,126.644 917.192,119.318 917.46,108.668 911.264,102.76 897.408,93.8542 882.116,87.7322 876.836,86.1822 864.762,83.5562 852.44,82.6742 139.684,82.6742 130.428,83.1702 121.278,84.6522 117.222,85.5342 103.436,89.7622 101.862,90.5502 90.5496,90.5502 90.5416,96.2162 78.8976,104.72 74.7396,108.324 63.3816,120.24 54.4816,134.088 48.3636,149.37 46.8136,154.648 44.1856,166.724 43.3036,179.054 43.3036,2364.25" style="stroke:rgb(103,198,105);stroke-width:173.228346;fill:none;stroke-opacity:0.5;stroke-linecap:round;stroke-linejoin:round;;fill:none"/>
<polyline points="43.3036,2364.25 43.8016,2373.52 45.2916,2382.69 46.1756,2386.75 50.3996,2400.51 56.8456,2413.39 65.3376,2425.02 68.9396,2429.17 80.8556,2440.54 90.5496,2446.77 90.5496,2452.75 102.97,2452.75 110,2455.57 115.278,2457.12 127.354,2459.75 139.684,2460.63 852.44,2460.63 861.694,2460.13 870.844,2458.65 874.9,2457.77 888.678,2453.54 901.566,2447.09 913.206,2438.6 917.176,2435.16 917.18,2434.78 917.452,2424.01 917.506,2416.68 917.174,2386.12 917.242,2380.5 917.246,2380.41 917.322,2376.23 917.322,2364.25 917.322,179.054 917.322,167.068 917.396,162.888 917.4,162.802 917.468,157.176 917.138,126.644 917.192,119.318 917.46,108.668 911.264,102.76 897.408,93.8542 882.116,87.7322 876.836,86.1822 864.762,83.5562 852.44,82.6742 139.684,82.6742 130.428,83.1702 121.278,84.6522 117.222,85.5342 103.436,89.7622 101.862,90.5502 90.5496,90.5502 90.5416,96.2162 78.8976,104.72 74.7396,108.324 63.3816,120.24 54.4816,134.088 48.3636,149.37 46.8136,154.648 44.1856,166.724 43.3036,179.054 43.3036,2364.25" style="stroke:rgb(0,0,0);stroke-width:1px;fill:none;stroke-opacity:1;stroke-linecap:round;stroke-linejoin:round;;fill:none"/>
<polyline points="43.3036,2364.25 43.8016,2373.52 45.2916,2382.69 46.1756,2386.75 50.3996,2400.51 56.8456,2413.39 65.3376,2425.02 68.9396,2429.17 80.8556,2440.54 90.5496,2446.77 90.5496,2452.75 102.97,2452.75 110,2455.57 115.278,2457.12 127.354,2459.75 139.684,2460.63 852.44,2460.63 861.694,2460.13 870.844,2458.65 874.9,2457.77 888.678,2453.54 901.566,2447.09 913.206,2438.6 917.176,2435.16 917.18,2434.78 917.452,2424.01 917.506,2416.68 917.174,2386.12 917.242,2380.5 917.246,2380.41 917.322,2376.23 917.322,2364.25 917.322,179.054 917.322,167.068 917.396,162.888 917.4,162.802 917.468,157.176 917.138,126.644 917.192,119.318 917.46,108.668 911.264,102.76 897.408,93.8542 889.152,90.5482 882.116,87.7322 876.836,86.1822 864.762,83.5562 852.44,82.6742 139.684,82.6742 130.428,83.1702 121.278,84.6522 117.222,85.5342 103.436,89.7622 101.862,90.5502 90.5496,90.5502 90.5416,96.2162 78.8976,104.72 74.7396,108.324 63.3816,120.24 54.4816,134.088 48.3636,149.37 46.8136,154.648 44.1856,166.724 43.3036,179.054 43.3036,2364.25" style="stroke:rgb(103,198,105);stroke-width:173.228346;fill:none;stroke-opacity:0.5;stroke-linecap:round;stroke-linejoin:round;;fill:none"/>
<polyline points="43.3036,2364.25 43.8016,2373.52 45.2916,2382.69 46.1756,2386.75 50.3996,2400.51 56.8456,2413.39 65.3376,2425.02 68.9396,2429.17 80.8556,2440.54 90.5496,2446.77 90.5496,2452.75 102.97,2452.75 110,2455.57 115.278,2457.12 127.354,2459.75 139.684,2460.63 852.44,2460.63 861.694,2460.13 870.844,2458.65 874.9,2457.77 888.678,2453.54 901.566,2447.09 913.206,2438.6 917.176,2435.16 917.18,2434.78 917.452,2424.01 917.506,2416.68 917.174,2386.12 917.242,2380.5 917.246,2380.41 917.322,2376.23 917.322,2364.25 917.322,179.054 917.322,167.068 917.396,162.888 917.4,162.802 917.468,157.176 917.138,126.644 917.192,119.318 917.46,108.668 911.264,102.76 897.408,93.8542 889.152,90.5482 882.116,87.7322 876.836,86.1822 864.762,83.5562 852.44,82.6742 139.684,82.6742 130.428,83.1702 121.278,84.6522 117.222,85.5342 103.436,89.7622 101.862,90.5502 90.5496,90.5502 90.5416,96.2162 78.8976,104.72 74.7396,108.324 63.3816,120.24 54.4816,134.088 48.3636,149.37 46.8136,154.648 44.1856,166.724 43.3036,179.054 43.3036,2364.25" style="stroke:rgb(0,0,0);stroke-width:1px;fill:none;stroke-opacity:1;stroke-linecap:round;stroke-linejoin:round;;fill:none"/>
<polyline points="43.3036,2364.25 43.8016,2373.52 45.2916,2382.69 46.1756,2386.75 50.3996,2400.51 56.8456,2413.39 65.3376,2425.02 68.9396,2429.17 80.8556,2440.54 90.5496,2446.77 90.5496,2452.75 102.97,2452.75 110,2455.57 115.278,2457.12 127.354,2459.75 139.684,2460.63 852.44,2460.63 861.694,2460.13 870.844,2458.65 874.9,2457.77 888.678,2453.54 901.566,2447.09 913.206,2438.6 917.176,2435.16 917.18,2434.78 917.452,2424.01 917.506,2416.68 917.174,2386.12 917.242,2380.5 917.246,2380.41 917.322,2376.23 917.322,2364.25 917.322,179.054 917.322,167.068 917.396,162.888 917.4,162.802 917.468,157.176 917.138,126.644 917.192,119.318 917.46,108.668 911.264,102.76 897.408,93.8542 889.152,90.5482 882.116,87.7322 876.836,86.1822 864.762,83.5562 852.44,82.6742 139.684,82.6742 130.428,83.1702 121.278,84.6522 117.222,85.5342 103.436,89.7622 101.862,90.5502 90.5496,90.5502 90.5416,96.2162 78.8976,104.72 74.7396,108.324 63.3816,120.24 54.4816,134.088 48.3636,149.37 46.8136,154.648 44.1856,166.724 43.3036,179.054 43.3036,2364.25" style="stroke:rgb(103,198,105);stroke-width:173.228346;fill:none;stroke-opacity:0.5;stroke-linecap:round;stroke-linejoin:round;;fill:none"/>
<polyline points="43.3036,2364.25 43.8016,2373.52 45.2916,2382.69 46.1756,2386.75 50.3996,2400.51 56.8456,2413.39 65.3376,2425.02 68.9396,2429.17 80.8556,2440.54 90.5496,2446.77 90.5496,2452.75 102.97,2452.75 110,2455.57 115.278,2457.12 127.354,2459.75 139.684,2460.63 852.44,2460.63 861.694,2460.13 870.844,2458.65 874.9,2457.77 888.678,2453.54 901.566,2447.09 913.206,2438.6 917.176,2435.16 917.18,2434.78 917.452,2424.01 917.506,2416.68 917.174,2386.12 917.242,2380.5 917.246,2380.41 917.322,2376.23 917.322,2364.25 917.322,179.054 917.322,167.068 917.396,162.888 917.4,162.802 917.468,157.176 917.138,126.644 917.192,119.318 917.46,108.668 911.264,102.76 897.408,93.8542 889.152,90.5482 882.116,87.7322 876.836,86.1822 864.762,83.5562 852.44,82.6742 139.684,82.6742 130.428,83.1702 121.278,84.6522 117.222,85.5342 103.436,89.7622 101.862,90.5502 90.5496,90.5502 90.5416,96.2162 78.8976,104.72 74.7396,108.324 63.3816,120.24 54.4816,134.088 48.3636,149.37 46.8136,154.648 44.1856,166.724 43.3036,179.054 43.3036,2364.25" style="stroke:rgb(0,0,0);stroke-width:1px;fill:none;stroke-opacity:1;stroke-linecap:round;stroke-linejoin:round;;fill:none"/>
<polyline points="43.3036,2364.25 43.8016,2373.52 45.2916,2382.69 46.1756,2386.75 50.3996,2400.51 56.8456,2413.39 65.3376,2425.02 68.9396,2429.17 80.8556,2440.54 90.5496,2446.77 90.5496,2452.75 102.97,2452.75 110,2455.57 115.278,2457.12 127.354,2459.75 139.684,2460.63 852.44,2460.63 861.694,2460.13 870.844,2458.65 874.9,2457.77 888.678,2453.54 901.566,2447.09 913.206,2438.6 917.176,2435.16 917.18,2434.78 917.452,2424.01 917.506,2416.68 917.174,2386.12 917.242,2380.5 917.246,2380.41 917.322,2376.23 917.322,2364.25 917.322,179.054 917.322,167.068 917.396,162.888 917.4,162.802 917.468,157.176 917.138,126.644 917.192,119.318 917.46,108.668 911.264,102.76 897.408,93.8542 889.154,90.5502 882.116,87.7322 876.836,86.1822 864.762,83.5562 852.44,82.6742 139.684,82.6742 130.428,83.1702 121.278,84.6522 117.222,85.5342 103.436,89.7622 101.862,90.5502 90.5496,90.5502 90.5416,96.2162 78.8976,104.72 74.7396,108.324 63.3816,120.24 54.4816,134.088 48.3636,149.37 46.8136,154.648 44.1856,166.724 43.3036,179.054 43.3036,2364.25" style="stroke:rgb(103,198,105);stroke-width:173.228346;fill:none;stroke-opacity:0.5;stroke-linecap:round;stroke-linejoin:round;;fill:none"/>
<polyline points="43.3036,2364.25 43.8016,2373.52 45.2916,2382.69 46.1756,2386.75 50.3996,2400.51 56.8456,2413.39 65.3376,2425.02 68.9396,2429.17 80.8556,2440.54 90.5496,2446.77 90.5496,2452.75 102.97,2452.75 110,2455.57 115.278,2457.12 127.354,2459.75 139.684,2460.63 852.44,2460.63 861.694,2460.13 870.844,2458.65 874.9,2457.77 888.678,2453.54 901.566,2447.09 913.206,2438.6 917.176,2435.16 917.18,2434.78 917.452,2424.01 917.506,2416.68 917.174,2386.12 917.242,2380.5 917.246,2380.41 917.322,2376.23 917.322,2364.25 917.322,179.054 917.322,167.068 917.396,162.888 917.4,162.802 917.468,157.176 917.138,126.644 917.192,119.318 917.46,108.668 911.264,102.76 897.408,93.8542 889.154,90.5502 882.116,87.7322 876.836,86.1822 864.762,83.5562 852.44,82.6742 139.684,82.6742 130.428,83.1702 121.278,84.6522 117.222,85.5342 103.436,89.7622 101.862,90.5502 90.5496,90.5502 90.5416,96.2162 78.8976,104.72 74.7396,108.324 63.3816,120.24 54.4816,134.088 48.3636,149.37 46.8136,154.648 44.1856,166.724 43.3036,179.054 43.3036,2364.25" style="stroke:rgb(0,0,0);stroke-width:1px;fill:none;stroke-opacity:1;stroke-linecap:round;stroke-linejoin:round;;fill:none"/>
<polyline points="43.3036,2364.25 43.8016,2373.52 45.2916,2382.69 46.1756,2386.75 50.3996,2400.51 56.8456,2413.39 65.3376,2425.02 68.9396,2429.17 80.8556,2440.54 90.5496,2446.77 90.5496,2452.75 102.97,2452.75 110,2455.57 115.278,2457.12 127.354,2459.75 139.684,2460.63 852.44,2460.63 861.694,2460.13 870.844,2458.65 874.9,2457.77 888.678,2453.54 901.566,2447.09 913.206,2438.6 917.176,2435.16 917.18,2434.78 917.452,2424.01 917.506,2416.68 917.174,2386.12 917.242,2380.5 917.246,2380.41 917.322,2376.23 917.322,2364.25 917.322,179.054 917.322,167.068 917.396,162.888 917.4,162.802 917.468,157.176 917.138,126.644 917.192,119.318 917.46,108.668 911.264,102.76 897.408,93.8542 882.116,87.7322 876.836,86.1822 864.762,83.5562 852.44,82.6742 139.684,82.6742 130.428,83.1702 121.278,84.6522 117.222,85.5342 103.436,89.7622 101.862,90.5502 90.5496,90.5502 90.5416,96.2162 78.8976,104.72 74.7396,108.324 63.3816,120.24 54.4816,134.088 48.3636,149.37 46.8136,154.648 44.1856,166.724 43.3036,179.054 43.3036,2364.25" style="stroke:rgb(103,198,105);stroke-width:173.228346;fill:none;stroke-opacity:0.5;stroke-linecap:round;stroke-linejoin:round;;fill:none"/>
<polyline points="43.3036,2364.25 43.8016,2373.52 45.2916,2382.69 46.1756,2386.75 50.3996,2400.51 56.8456,2413.39 65.3376,2425.02 68.9396,2429.17 80.8556,2440.54 90.5496,2446.77 90.5496,2452.75 102.97,2452.75 110,2455.57 115.278,2457.12 127.354,2459.75 139.684,2460.63 852.44,2460.63 861.694,2460.13 870.844,2458.65 874.9,2457.77 888.678,2453.54 901.566,2447.09 913.206,2438.6 917.176,2435.16 917.18,2434.78 917.452,2424.01 917.506,2416.68 917.174,2386.12 917.242,2380.5 917.246,2380.41 917.322,2376.23 917.322,2364.25 917.322,179.054 917.322,167.068 917.396,162.888 917.4,162.802 917.468,157.176 917.138,126.644 917.192,119.318 917.46,108.668 911.264,102.76 897.408,93.8542 882.116,87.7322 876.836,86.1822 864.762,83.5562 852.44,82.6742 139.684,82.6742 130.428,83.1702 121.278,84.6522 117.222,85.5342 103.436,89.7622 101.862,90.5502 90.5496,90.5502 90.5416,96.2162 78.8976,104.72 74.7396,108.324 63.3816,120.24 54.4816,134.088 48.3636,149.37 46.8136,154.648 44.1856,166.724 43.3036,179.054 43.3036,2364.25" style="stroke:rgb(0,0,0);stroke-width:1px;fill:none;stroke-opacity:1;stroke-linecap:round;stroke-linejoin:round;;fill:none"/>
<polyline points="43.3036,2364.25 43.8016,2373.52 45.2916,2382.69 46.1756,2386.75 50.3996,2400.51 56.8456,2413.39 65.3376,2425.02 68.9396,2429.17 80.8556,2440.54 90.5496,2446.77 90.5496,2452.75 102.97,2452.75 110,2455.57 115.278,2457.12 127.354,2459.75 139.684,2460.63 852.44,2460.63 861.694,2460.13 870.844,2458.65 874.9,2457.77 888.678,2453.54 901.566,2447.09 913.206,2438.6 917.176,2435.16 917.18,2434.78 917.452,2424.01 917.506,2416.68 917.174,2386.12 917.242,2380.5 917.246,2380.41 917.322,2376.23 917.322,2364.25 917.322,179.054 917.322,167.068 917.396,162.888 917.4,162.802 917.468,157.176 917.138,126.644 917.192,119.318 917.46,108.668 911.264,102.76 897.408,93.8542 889.154,90.5502 882.116,87.7322 876.836,86.1822 864.762,83.5562 852.44,82.6742 139.684,82.6742 130.428,83.1702 121.278,84.6522 117.222,85.5342 103.436,89.7622 101.862,90.5502 90.5496,90.5502 90.5416,96.2162 78.8976,104.72 74.7396,108.324 63.3816,120.24 54.4816,134.088 48.3636,149.37 46.8136,154.648 44.1856,166.724 43.3036,179.054 43.3036,2364.25" style="stroke:rgb(103,198,105);stroke-width:173.228346;fill:none;stroke-opacity:0.5;stroke-linecap:round;stroke-linejoin:round;;fill:none"/>
<polyline points="43.3036,2364.25 43.8016,2373.52 45.2916,2382.69 46.1756,2386.75 50.3996,2400.51 56.8456,2413.39 65.3376,2425.02 68.9396,2429.17 80.8556,2440.54 90.5496,2446.77 90.5496,2452.75 102.97,2452.75 110,2455.57 115.278,2457.12 127.354,2459.75 139.684,2460.63 852.44,2460.63 861.694,2460.13 870.844,2458.65 874.9,2457.77 888.678,2453.54 901.566,2447.09 913.206,2438.6 917.176,2435.16 917.18,2434.78 917.452,2424.01 917.506,2416.68 917.174,2386.12 917.242,2380.5 917.246,2380.41 917.322,2376.23 917.322,2364.25 917.322,179.054 917.322,167.068 917.396,162.888 917.4,162.802 917.468,157.176 917.138,126.644 917.192,119.318 917.46,108.668 911.264,102.76 897.408,93.8542 889.154,90.5502 882.116,87.7322 876.836,86.1822 864.762,83.5562 852.44,82.6742 139.684,82.6742 130.428,83.1702 121.278,84.6522 117.222,85.5342 103.436,89.7622 101.862,90.5502 90.5496,90.5502 90.5416,96.2162 78.8976,104.72 74.7396,108.324 63.3816,120.24 54.4816,134.088 48.3636,149.37 46.8136,154.648 44.1856,166.724 43.3036,179.054 43.3036,2364.25" style="stroke:rgb(0,0,0);stroke-width:1px;fill:none;stroke-opacity:1;stroke-linecap:round;stroke-linejoin:round;;fill:none"/>
<polyline points="917.138,126.644 917.468,157.176 917.4,162.802 917.396,162.888 917.322,167.068 917.322,179.054 917.322,2364.25 917.322,2376.23 917.246,2380.41 917.242,2380.5 917.174,2386.12 917.506,2416.68 917.452,2424.01 917.184,2434.63 923.39,2440.55 937.238,2449.45 952.52,2455.57 957.798,2457.12 969.874,2459.75 982.204,2460.63 1694.96,2460.63 1704.21,2460.13 1713.36,2458.65 1717.42,2457.77 1731.2,2453.54 1732.78,2452.75 1744.09,2447.09 1755.73,2438.6 1759.88,2434.99 1771.25,2423.07 1780.16,2409.22 1786.28,2393.93 1787.83,2388.65 1790.46,2376.57 1791.34,2364.25 1791.34,179.054 1790.84,169.798 1789.36,160.648 1788.48,156.592 1784.25,142.806 1777.8,129.912 1769.29,118.268 1765.69,114.11 1753.77,102.752 1739.92,93.8522 1724.64,87.7342 1719.36,86.1842 1707.29,83.5562 1694.96,82.6742 982.204,82.6742 972.948,83.1702 963.798,84.6522 959.742,85.5342 945.956,89.7622 944.382,90.5502 933.062,96.2162 921.418,104.72 917.468,108.144 917.464,108.56 917.192,119.318 917.138,126.644" style="stroke:rgb(115,81,255);stroke-width:173.228346;fill:none;stroke-opacity:0.5;stroke-linecap:round;stroke-linejoin:round;;fill:none"/>
<polyline points="917.138,126.644 917.468,157.176 917.4,162.802 917.396,162.888 917.322,167.068 917.322,179.054 917.322,2364.25 917.322,2376.23 917.246,2380.41 917.242,2380.5 917.174,2386.12 917.506,2416.68 917.452,2424.01 917.184,2434.63 923.39,2440.55 937.238,2449.45 952.52,2455.57 957.798,2457.12 969.874,2459.75 982.204,2460.63 1694.96,2460.63 1704.21,2460.13 1713.36,2458.65 1717.42,2457.77 1731.2,2453.54 1732.78,2452.75 1744.09,2447.09 1755.73,2438.6 1759.88,2434.99 1771.25,2423.07 1780.16,2409.22 1786.28,2393.93 1787.83,2388.65 1790.46,2376.57 1791.34,2364.25 1791.34,179.054 1790.84,169.798 1789.36,160.648 1788.48,156.592 1784.25,142.806 1777.8,129.912 1769.29,118.268 1765.69,114.11 1753.77,102.752 1739.92,93.8522 1724.64,87.7342 1719.36,86.1842 1707.29,83.5562 1694.96,82.6742 982.204,82.6742 972.948,83.1702 963.798,84.6522 959.742,85.5342 945.956,89.7622 944.382,90.5502 933.062,96.2162 921.418,104.72 917.468,108.144 917.464,108.56 917.192,119.318 917.138,126.644" style="stroke:rgb(0,0,0);stroke-width:1px;fill:none;stroke-opacity:1;stroke-linecap:round;stroke-linejoin:round;;fill:none"/>
<polyline points="917.138,126.644 917.468,157.176 917.4,162.802 917.396,162.888 917.322,167.068 917.322,179.054 917.322,2364.25 917.322,2376.23 917.246,2380.41 917.242,2380.5 917.174,2386.12 917.506,2416.68 917.452,2424.01 917.184,2434.63 923.39,2440.55 937.238,2449.45 945.49,2452.75 952.52,2455.57 957.798,2457.12 969.874,2459.75 982.204,2460.63 1694.96,2460.63 1704.21,2460.13 1713.36,2458.65 1717.42,2457.77 1731.2,2453.54 1732.78,2452.75 1744.09,2452.75 1744.09,2447.09 1755.73,2438.6 1759.88,2434.99 1771.25,2423.07 1780.16,2409.22 1786.28,2393.93 1787.83,2388.65 1790.46,2376.57 1791.34,2364.25 1791.34,179.054 1790.84,169.798 1789.36,160.648 1788.48,156.592 1784.25,142.806 1777.8,129.912 1769.29,118.268 1765.69,114.11 1753.77,102.752 1744.09,96.5322 1744.09,90.5502 1731.67,90.5502 1724.64,87.7342 1719.36,86.1842 1707.29,83.5562 1694.96,82.6742 982.204,82.6742 972.948,83.1702 963.798,84.6522 959.742,85.5342 945.956,89.7622 944.382,90.5502 933.062,96.2162 921.418,104.72 917.468,108.144 917.464,108.56 917.192,119.318 917.138,126.644" style="stroke:rgb(115,81,255);stroke-width:173.228346;fill:none;stroke-opacity:0.5;stroke-linecap:round;stroke-linejoin:round;;fill:none"/>
<polyline points="917.138,126.644 917.468,157.176 917.4,162.802 917.396,162.888 917.322,167.068 917.322,179.054 917.322,2364.25 917.322,2376.23 917.246,2380.41 917.242,2380.5 917.174,2386.12 917.506,2416.68 917.452,2424.01 917.184,2434.63 923.39,2440.55 937.238,2449.45 945.49,2452.75 952.52,2455.57 957.798,2457.12 969.874,2459.75 982.204,2460.63 1694.96,2460.63 1704.21,2460.13 1713.36,2458.65 1717.42,2457.77 1731.2,2453.54 1732.78,2452.75 1744.09,2452.75 1744.09,2447.09 1755.73,2438.6 1759.88,2434.99 1771.25,2423.07 1780.16,2409.22 1786.28,2393.93 1787.83,2388.65 1790.46,2376.57 1791.34,2364.25 1791.34,179.054 1790.84,169.798 1789.36,160.648 1788.48,156.592 1784.25,142.806 1777.8,129.912 1769.29,118.268 1765.69,114.11 1753.77,102.752 1744.09,96.5322 1744.09,90.5502 1731.67,90.5502 1724.64,87.7342 1719.36,86.1842 1707.29,83.5562 1694.96,82.6742 982.204,82.6742 972.948,83.1702 963.798,84.6522 959.742,85.5342 945.956,89.7622 944.382,90.5502 933.062,96.2162 921.418,104.72 917.468,108.144 917.464,108.56 917.192,119.318 917.138,126.644" style="stroke:rgb(0,0,0);stroke-width:1px;fill:none;stroke-opacity:1;stroke-linecap:round;stroke-linejoin:round;;fill:none"/>
<polyline points="917.138,126.644 917.468,157.176 917.4,162.802 917.396,162.888 917.322,167.068 917.322,179.054 917.322,2364.25 917.322,2376.23 917.246,2380.41 917.242,2380.5 917.174,2386.12 917.506,2416.68 917.452,2424.01 917.184,2434.63 923.39,2440.55 937.238,2449.45 945.488,2452.75 952.52,2455.57 957.798,2457.12 969.874,2459.75 982.204,2460.63 1694.96,2460.63 1704.21,2460.13 1713.36,2458.65 1717.42,2457.77 1731.2,2453.54 1732.78,2452.75 1744.09,2452.75 1744.09,2447.09 1755.73,2438.6 1759.88,2434.99 1771.25,2423.07 1780.16,2409.22 1786.28,2393.93 1787.83,2388.65 1790.46,2376.57 1791.34,2364.25 1791.34,179.054 1790.84,169.798 1789.36,160.648 1788.48,156.592 1784.25,142.806 1777.8,129.912 1769.29,118.268 1765.69,114.11 1753.77,102.752 1744.09,96.5322 1744.09,90.5502 1731.67,90.5502 1724.64,87.7342 1719.36,86.1842 1707.29,83.5562 1694.96,82.6742 982.204,82.6742 972.948,83.1702 963.798,84.6522 959.742,85.5342 945.956,89.7622 933.062,96.2162 921.418,104.72 917.468,108.144 917.464,108.56 917.192,119.318 917.138,126.644" style="stroke:rgb(115,81,255);stroke-width:173.228346;fill:none;stroke-opacity:0.5;stroke-linecap:round;stroke-linejoin:round;;fill:none"/>
<polyline points="917.138,126.644 917.468,157.176 917.4,162.802 917.396,162.888 917.322,167.068 917.322,179.054 917.322,2364.25 917.322,2376.23 917.246,2380.41 917.242,2380.5 917.174,2386.12 917.506,2416.68 917.452,2424.01 917.184,2434.63 923.39,2440.55 937.238,2449.45 945.488,2452.75 952.52,2455.57 957.798,2457.12 969.874,2459.75 982.204,2460.63 1694.96,2460.63 1704.21,2460.13 1713.36,2458.65 1717.42,2457.77 1731.2,2453.54 1732.78,2452.75 1744.09,2452.75 1744.09,2447.09 1755.73,2438.6 1759.88,2434.99 1771.25,2423.07 1780.16,2409.22 1786.28,2393.93 1787.83,2388.65 1790.46,2376.57 1791.34,2364.25 1791.34,179.054 1790.84,169.798 1789.36,160.648 1788.48,156.592 1784.25,142.806 1777.8,129.912 1769.29,118.268 1765.69,114.11 1753.77,102.752 1744.09,96.5322 1744.09,90.5502 1731.67,90.5502 1724.64,87.7342 1719.36,86.1842 1707.29,83.5562 1694.96,82.6742 982.204,82.6742 972.948,83.1702 963.798,84.6522 959.742,85.5342 945.956,89.7622 933.062,96.2162 921.418,104.72 917.468,108.144 917.464,108.56 917.192,119.318 917.138,126.644" style="stroke:rgb(0,0,0);stroke-width:1px;fill:none;stroke-opacity:1;stroke-linecap:round;stroke-linejoin:round;;fill:none"/>
<polyline points="917.138,126.644 917.468,157.176 917.4,162.802 917.396,162.888 917.322,167.068 917.322,179.054 917.322,2364.25 917.322,2376.23 917.246,2380.41 917.242,2380.5 917.174,2386.12 917.506,2416.68 917.452,2424.01 917.184,2434.63 923.39,2440.55 937.238,2449.45 952.52,2455.57 957.798,2457.12 969.874,2459.75 982.204,2460.63 1694.96,2460.63 1704.21,2460.13 1713.36,2458.65 1717.42,2457.77 1731.2,2453.54 1732.78,2452.75 1744.09,2452.75 1744.09,2447.09 1755.73,2438.6 1759.88,2434.99 1771.25,2423.07 1780.16,2409.22 1786.28,2393.93 1787.83,2388.65 1790.46,2376.57 1791.34,2364.25 1791.34,179.054 1790.84,169.798 1789.36,160.648 1788.48,156.592 1784.25,142.806 1777.8,129.912 1769.29,118.268 1765.69,114.11 1753.77,102.752 1744.09,96.5322 1744.09,90.5502 1731.67,90.5502 1724.64,87.7342 1719.36,86.1842 1707.29,83.5562 1694.96,82.6742 982.204,82.6742 972.948,83.1702 963.798,84.6522 959.742,85.5342 945.956,89.7622 933.062,96.2162 921.418,104.72 917.468,108.144 917.464,108.56 917.192,119.318 917.138,126.644" style="stroke:rgb(115,81,255);stroke-width:173.228346;fill:none;stroke-opacity:0.5;stroke-linecap:round;stroke-linejoin:round;;fill:none"/>
<polyline points="917.138,126.644 917.468,157.176 917.4,162.802 917.396,162.888 917.322,167.068 917.322,179.054 917.322,2364.25 917.322,2376.23 917.246,2380.41 917.242,2380.5 917.174,2386.12 917.506,2416.68 917.452,2424.01 917.184,2434.63 923.39,2440.55 937.238,2449.45 952.52,2455.57 957.798,2457.12 969.874,2459.75 982.204,2460.63 1694.96,2460.63 1704.21,2460.13 1713.36,2458.65 1717.42,2457.77 1731.2,2453.54 1732.78,2452.75 1744.09,2452.75 1744.09,2447.09 1755.73,2438.6 1759.88,2434.99 1771.25,2423.07 1780.16,2409.22 1786.28,2393.93 1787.83,2388.65 1790.46,2376.57 1791.34,2364.25 1791.34,179.054 1790.84,169.798 1789.36,160.648 1788.48,156.592 1784.25,142.806 1777.8,129.912 1769.29,118.268 1765.69,114.11 1753.77,102.752 1744.09,96.5322 1744.09,90.5502 1731.67,90.5502 1724.64,87.7342 1719.36,86.1842 1707.29,83.5562 1694.96,82.6742 982.204,82.6742 972.948,83.1702 963.798,84.6522 959.742,85.5342 945.956,89.7622 933.062,96.2162 921.418,104.72 917.468,108.144 917.464,108.56 917.192,119.318 917.138,126.644" style="stroke:rgb(0,0,0);stroke-width:1px;fill:none;stroke-opacity:1;stroke-linecap:round;stroke-linejoin:round;;fill:none"/>
<polyline points="917.138,126.644 917.468,157.176 917.4,162.802 917.396,162.888 917.322,167.068 917.322,179.054 917.322,2364.25 917.322,2376.23 917.246,2380.41 917.242,2380.5 917.174,2386.12 917.506,2416.68 917.452,2424.01 917.184,2434.63 923.39,2440.55 937.238,2449.45 952.52,2455.57 957.798,2457.12 969.874,2459.75 982.204,2460.63 1694.96,2460.63 1704.21,2460.13 1713.36,2458.65 1717.42,2457.77 1731.2,2453.54 1732.78,2452.75 1744.09,2452.75 1744.09,2447.09 1755.73,2438.6 1759.88,2434.99 1771.25,2423.07 1780.16,2409.22 1786.28,2393.93 1787.83,2388.65 1790.46,2376.57 1791.34,2364.25 1791.34,179.054 1790.84,169.798 1789.36,160.648 1788.48,156.592 1784.25,142.806 1777.8,129.912 1769.29,118.268 1765.69,114.11 1753.77,102.752 1744.09,96.5322 1744.09,90.5502 1731.67,90.5502 1724.64,87.7342 1719.36,86.1842 1707.29,83.5562 1694.96,82.6742 982.204,82.6742 972.948,83.1702 963.798,84.6522 959.742,85.5342 945.956,89.7622 933.062,96.2162 921.418,104.72 917.468,108.144 917.464,108.56 917.192,119.318 917.138,126.644" style="stroke:rgb(115,81,255);stroke-width:173.228346;fill:none;stroke-opacity:0.5;stroke-linecap:round;stroke-linejoin:round;;fill:none"/>
<polyline points="917.138,126.644 917.468,157.176 917.4,162.802 917.396,162.888 917.322,167.068 917.322,179.054 917.322,2364.25 917.322,2376.23 917.246,2380.41 917.242,2380.5 917.174,2386.12 917.506,2416.68 917.452,2424.01 917.184,2434.63 923.39,2440.55 937.238,2449.45 952.52,2455.57 957.798,2457.12 969.874,2459.75 982.204,2460.63 1694.96,2460.63 1704.21,2460.13 1713.36,2458.65 1717.42,2457.77 1731.2,2453.54 1732.78,2452.75 1744.09,2452.75 1744.09,2447.09 1755.73,2438.6 1759.88,2434.99 1771.25,2423.07 1780.16,2409.22 1786.28,2393.93 1787.83,2388.65 1790.46,2376.57 1791.34,2364.25 1791.34,179.054 1790.84,169.798 1789.36,160.648 1788.48,156.592 1784.25,142.806 1777.8,129.912 1769.29,118.268 1765.69,114.11 1753.77,102.752 1744.09,96.5322 1744.09,90.5502 1731.67,90.5502 1724.64,87.7342 1719.36,86.1842 1707.29,83.5562 1694.96,82.6742 982.204,82.6742 972.948,83.1702 963.798,84.6522 959.742,85.5342 945.956,89.7622 933.062,96.2162 921.418,104.72 917.468,108.144 917.464,108.56 917.192,119.318 917.138,126.644" style="stroke:rgb(0,0,0);stroke-width:1px;fill:none;stroke-opacity:1;stroke-linecap:round;stroke-linejoin:round;;fill:none"/>
<polyline points="917.138,126.644 917.468,157.176 917.4,162.802 917.396,162.888 917.322,167.068 917.322,179.054 917.322,2364.25 917.322,2376.23 917.246,2380.41 917.242,2380.5 917.174,2386.12 917.506,2416.68 917.452,2424.01 917.184,2434.63 923.39,2440.55 937.238,2449.45 945.49,2452.75 952.52,2455.57 957.798,2457.12 969.874,2459.75 982.204,2460.63 1694.96,2460.63 1704.21,2460.13 1713.36,2458.65 1717.42,2457.77 1731.2,2453.54 1732.78,2452.75 1744.09,2452.75 1744.09,2447.09 1755.73,2438.6 1759.88,2434.99 1771.25,2423.07 1780.16,2409.22 1786.28,2393.93 1787.83,2388.65 1790.46,2376.57 1791.34,2364.25 1791.34,179.054 1790.84,169.798 1789.36,160.648 1788.48,156.592 1784.25,142.806 1777.8,129.912 1769.29,118.268 1765.69,114.11 1753.77,102.752 1744.09,96.5322 1744.09,90.5502 1731.67,90.5502 1724.64,87.7342 1719.36,86.1842 1707.29,83.5562 1694.96,82.6742 982.204,82.6742 972.948,83.1702 963.798,84.6522 959.742,85.5342 945.956,89.7622 933.062,96.2162 921.418,104.72 917.468,108.144 917.464,108.56 917.192,119.318 917.138,126.644" style="stroke:rgb(115,81,255);stroke-width:173.228346;fill:none;stroke-opacity:0.5;stroke-linecap:round;stroke-linejoin:round;;fill:none"/>
<polyline points="917.138,126.644 917.468,157.176 917.4,162.802 917.396,162.888 917.322,167.068 917.322,179.054 917.322,2364.25 917.322,2376.23 917.246,2380.41 917.242,2380.5 917.174,2386.12 917.506,2416.68 917.452,2424.01 917.184,2434.63 923.39,2440.55 937.238,2449.45 945.49,2452.75 952.52,2455.57 957.798,2457.12 969.874,2459.75 982.204,2460.63 1694.96,2460.63 1704.21,2460.13 1713.36,2458.65 1717.42,2457.77 1731.2,2453.54 1732.78,2452.75 1744.09,2452.75 1744.09,2447.09 1755.73,2438.6 1759.88,2434.99 1771.25,2423.07 1780.16,2409.22 1786.28,2393.93 1787.83,2388.65 1790.46,2376.57 1791.34,2364.25 1791.34,179.054 1790.84,169.798 1789.36,160.648 1788.48,156.592 1784.25,142.806 1777.8,129.912 1769.29,118.268 1765.69,114.11 1753.77,102.752 1744.09,96.5322 1744.09,90.5502 1731.67,90.5502 1724.64,87.7342 1719.36,86.1842 1707.29,83.5562 1694.96,82.6742 982.204,82.6742 972.948,83.1702 963.798,84.6522 959.742,85.5342 945.956,89.7622 933.062,96.2162 921.418,104.72 917.468,108.144 917.464,108.56 917.192,119.318 917.138,126.644" style="stroke:rgb(0,0,0);stroke-width:1px;fill:none;stroke-opacity:1;stroke-linecap:round;stroke-linejoin:round;;fill:none"/>
<polyline points="917.138,126.644 917.468,157.176 917.4,162.802 917.396,162.888 917.322,167.068 917.322,179.054 917.322,2364.25 917.322,2376.23 917.246,2380.41 917.242,2380.5 917.174,2386.12 917.506,2416.68 917.452,2424.01 917.184,2434.63 923.39,2440.55 937.238,2449.45 952.52,2455.57 957.798,2457.12 969.874,2459.75 982.204,2460.63 1694.96,2460.63 1704.21,2460.13 1713.36,2458.65 1717.42,2457.77 1731.2,2453.54 1732.78,2452.75 1744.09,2452.75 1744.09,2447.09 1755.73,2438.6 1759.88,2434.99 1771.25,2423.07 1780.16,2409.22 1786.28,2393.93 1787.83,2388.65 1790.46,2376.57 1791.34,2364.25 1791.34,179.054 1790.84,169.798 1789.36,160.648 1788.48,156.592 1784.25,142.806 1777.8,129.912 1769.29,118.268 1765.69,114.11 1753.77,102.752 1744.09,96.5322 1744.09,90.5502 1731.67,90.5502 1724.64,87.7342 1719.36,86.1842 1707.29,83.5562 1694.96,82.6742 982.204,82.6742 972.948,83.1702 963.798,84.6522 959.742,85.5342 945.956,89.7622 933.062,96.2162 921.418,104.72 917.468,108.144 917.464,108.56 917.192,119.318 917.138,126.644" style="stroke:rgb(115,81,255);stroke-width:173.228346;fill:none;stroke-opacity:0.5;stroke-linecap:round;stroke-linejoin:round;;fill:none"/>
<polyline points="917.138,126.644 917.468,157.176 917.4,162.802 917.396,162.888 917.322,167.068 917.322,179.054 917.322,2364.25 917.322,2376.23 917.246,2380.41 917.242,2380.5 917.174,2386.12 917.506,2416.68 917.452,2424.01 917.184,2434.63 923.39,2440.55 937.238,2449.45 952.52,2455.57 957.798,2457.12 969.874,2459.75 982.204,2460.63 1694.96,2460.63 1704.21,2460.13 1713.36,2458.65 1717.42,2457.77 1731.2,2453.54 1732.78,2452.75 1744.09,2452.75 1744.09,2447.09 1755.73,2438.6 1759.88,2434.99 1771.25,2423.07 1780.16,2409.22 1786.28,2393.93 1787.83,2388.65 1790.46,2376.57 1791.34,2364.25 1791.34,179.054 1790.84,169.798 1789.36,160.648 1788.48,156.592 1784.25,142.806 1777.8,129.912 1769.29,118.268 1765.69,114.11 1753.77,102.752 1744.09,96.5322 1744.09,90.5502 1731.67,90.5502 1724.64,87.7342 1719.36,86.1842 1707.29,83.5562 1694.96,82.6742 982.204,82.6742 972.948,83.1702 963.798,84.6522 959.742,85.5342 945.956,89.7622 933.062,96.2162 921.418,104.72 917.468,108.144 917.464,108.56 917.192,119.318 917.138,126.644" style="stroke:rgb(0,0,0);stroke-width:1px;fill:none;stroke-opacity:1;stroke-linecap:round;stroke-linejoin:round;;fill:none"/>
<polyline points="917.138,126.644 917.468,157.176 917.4,162.802 917.396,162.888 917.322,167.068 917.322,179.054 917.322,2364.25 917.322,2376.23 917.246,2380.41 917.242,2380.5 917.174,2386.12 917.506,2416.68 917.452,2424.01 917.184,2434.63 923.39,2440.55 937.238,2449.45 945.488,2452.75 952.52,2455.57 957.798,2457.12 969.874,2459.75 982.204,2460.63 1694.96,2460.63 1704.21,2460.13 1713.36,2458.65 1717.42,2457.77 1731.2,2453.54 1732.78,2452.75 1744.09,2452.75 1744.09,2447.09 1755.73,2438.6 1759.88,2434.99 1771.25,2423.07 1780.16,2409.22 1786.28,2393.93 1787.83,2388.65 1790.46,2376.57 1791.34,2364.25 1791.34,179.054 1790.84,169.798 1789.36,160.648 1788.48,156.592 1784.25,142.806 1777.8,129.912 1769.29,118.268 1765.69,114.11 1753.77,102.752 1744.09,96.5322 1744.09,90.5502 1731.67,90.5502 1724.64,87.7342 1719.36,86.1842 1707.29,83.5562 1694.96,82.6742 982.204,82.6742 972.948,83.1702 963.798,84.6522 959.742,85.5342 945.956,89.7622 933.062,96.2162 921.418,104.72 917.468,108.144 917.464,108.56 917.192,119.318 917.138,126.644" style="stroke:rgb(115,81,255);stroke-width:173.228346;fill:none;stroke-opacity:0.5;stroke-linecap:round;stroke-linejoin:round;;fill:none"/>
<polyline points="917.138,126.644 917.468,157.176 917.4,162.802 917.396,162.888 917.322,167.068 917.322,179.054 917.322,2364.25 917.322,2376.23 917.246,2380.41 917.242,2380.5 917.174,2386.12 917.506,2416.68 917.452,2424.01 917.184,2434.63 923.39,2440.55 937.238,2449.45 945.488,2452.75 952.52,2455.57 957.798,2457.12 969.874,2459.75 982.204,2460.63 1694.96,2460.63 1704.21,2460.13 1713.36,2458.65 1717.42,2457.77 1731.2,2453.54 1732.78,2452.75 1744.09,2452.75 1744.09,2447.09 1755.73,2438.6 1759.88,2434.99 1771.25,2423.07 1780.16,2409.22 1786.28,2393.93 1787.83,2388.65 1790.46,2376.57 1791.34,2364.25 1791.34,179.054 1790.84,169.798 1789.36,160.648 1788.48,156.592 1784.25,142.806 1777.8,129.912 1769.29,118.268 1765.69,114.11 1753.77,102.752 1744.09,96.5322 1744.09,90.5502 1731.67,90.5502 1724.64,87.7342 1719.36,86.1842 1707.29,83.5562 1694.96,82.6742 982.204,82.6742 972.948,83.1702 963.798,84.6522 959.742,85.5342 945.956,89.7622 933.062,96.2162 921.418,104.72 917.468,108.144 917.464,108.56 917.192,119.318 917.138,126.644" style="stroke:rgb(0,0,0);stroke-width:1px;fill:none;stroke-opacity:1;stroke-linecap:round;stroke-linejoin:round;;fill:none"/>
<polyline points="917.138,126.644 917.468,157.176 917.4,162.802 917.396,162.888 917.322,167.068 917.322,179.054 917.322,2364.25 917.322,2376.23 917.246,2380.41 917.242,2380.5 917.174,2386.12 917.506,2416.68 917.452,2424.01 917.184,2434.63 923.39,2440.55 937.238,2449.45 952.52,2455.57 957.798,2457.12 969.874,2459.75 982.204,2460.63 1694.96,2460.63 1704.21,2460.13 1713.36,2458.65 1717.42,2457.77 1731.2,2453.54 1732.78,2452.75 1744.09,2452.75 1744.09,2447.09 1755.73,2438.6 1759.88,2434.99 1771.25,2423.07 1780.16,2409.22 1786.28,2393.93 1787.83,2388.65 1790.46,2376.57 1791.34,2364.25 1791.34,179.054 1790.84,169.798 1789.36,160.648 1788.48,156.592 1784.25,142.806 1777.8,129.912 1769.29,118.268 1765.69,114.11 1753.77,102.752 1744.09,96.5322 1744.09,90.5502 1731.67,90.5502 1724.64,87.7342 1719.36,86.1842 1707.29,83.5562 1694.96,82.6742 982.204,82.6742 972.948,83.1702 963.798,84.6522 959.742,85.5342 945.956,89.7622 933.062,96.2162 921.418,104.72 917.468,108.144 917.464,108.56 917.192,119.318 917.138,126.644" style="stroke:rgb(115,81,255);stroke-width:173.228346;fill:none;stroke-opacity:0.5;stroke-linecap:round;stroke-linejoin:round;;fill:none"/>
<polyline points="917.138,126.644 917.468,157.176 917.4,162.802 917.396,162.888 917.322,167.068 917.322,179.054 917.322,2364.25 917.322,2376.23 917.246,2380.41 917.242,2380.5 917.174,2386.12 917.506,2416.68 917.452,2424.01 917.184,2434.63 923.39,2440.55 937.238,2449.45 952.52,2455.57 957.798,2457.12 969.874,2459.75 982.204,2460.63 1694.96,2460.63 1704.21,2460.13 1713.36,2458.65 1717.42,2457.77 1731.2,2453.54 1732.78,2452.75 1744.09,2452.75 1744.09,2447.09 1755.73,2438.6 1759.88,2434.99 1771.25,2423.07 1780.16,2409.22 1786.28,2393.93 1787.83,2388.65 1790.46,2376.57 1791.34,2364.25 1791.34,179.054 1790.84,169.798 1789.36,160.648 1788.48,156.592 1784.25,142.806 1777.8,129.912 1769.29,118.268 1765.69,114.11 1753.77,102.752 1744.09,96.5322 1744.09,90.5502 1731.67,90.5502 1724.64,87.7342 1719.36,86.1842 1707.29,83.5562 1694.96,82.6742 982.204,82.6742 972.948,83.1702 963.798,84.6522 959.742,85.5342 945.956,89.7622 933.062,96.2162 921.418,104.72 917.468,108.144 917.464,108.56 917.192,119.318 917.138,126.644" style="stroke:rgb(0,0,0);stroke-width:1px;fill:none;stroke-opacity:1;stroke-linecap:round;stroke-linejoin:round;;fill:none"/>
<polyline points="917.138,126.644 917.468,157.176 917.4,162.802 917.396,162.888 917.322,167.068 917.322,179.054 917.322,2364.25 917.322,2376.23 917.246,2380.41 917.242,2380.5 917.174,2386.12 917.506,2416.68 917.452,2424.01 917.184,2434.63 923.39,2440.55 937.238,2449.45 952.52,2455.57 957.798,2457.12 969.874,2459.75 982.204,2460.63 1694.96,2460.63 1704.21,2460.13 1713.36,2458.65 1717.42,2457.77 1731.2,2453.54 1732.78,2452.75 1744.09,2452.75 1744.09,2447.09 1755.73,2438.6 1759.88,2434.99 1771.25,2423.07 1780.16,2409.22 1786.28,2393.93 1787.83,2388.65 1790.46,2376.57 1791.34,2364.25 1791.34,179.054 1790.84,169.798 1789.36,160.648 1788.48,156.592 1784.25,142.806 1777.8,129.912 1769.29,118.268 1765.69,114.11 1753.77,102.752 1744.09,96.5322 1744.09,90.5502 1731.67,90.5502 1724.64,87.7342 1719.36,86.1842 1707.29,83.5562 1694.96,82.6742 982.204,82.6742 972.948,83.1702 963.798,84.6522 959.742,85.5342 945.956,89.7622 944.382,90.5482 933.062,96.2162 921.418,104.72 917.468,108.144 917.464,108.56 917.192,119.318 917.138,126.644" style="stroke:rgb(115,81,255);stroke-width:173.228346;fill:none;stroke-opacity:0.5;stroke-linecap:round;stroke-linejoin:round;;fill:none"/>
<polyline points="917.138,126.644 917.468,157.176 917.4,162.802 917.396,162.888 917.322,167.068 917.322,179.054 917.322,2364.25 917.322,2376.23 917.246,2380.41 917.242,2380.5 917.174,2386.12 917.506,2416.68 917.452,2424.01 917.184,2434.63 923.39,2440.55 937.238,2449.45 952.52,2455.57 957.798,2457.12 969.874,2459.75 982.204,2460.63 1694.96,2460.63 1704.21,2460.13 1713.36,2458.65 1717.42,2457.77 1731.2,2453.54 1732.78,2452.75 1744.09,2452.75 1744.09,2447.09 1755.73,2438.6 1759.88,2434.99 1771.25,2423.07 1780.16,2409.22 1786.28,2393.93 1787.83,2388.65 1790.46,2376.57 1791.34,2364.25 1791.34,179.054 1790.84,169.798 1789.36,160.648 1788.48,156.592 1784.25,142.806 1777.8,129.912 1769.29,118.268 1765.69,114.11 1753.77,102.752 1744.09,96.5322 1744.09,90.5502 1731.67,90.5502 1724.64,87.7342 1719.36,86.1842 1707.29,83.5562 1694.96,82.6742 982.204,82.6742 972.948,83.1702 963.798,84.6522 959.742,85.5342 945.956,89.7622 944.382,90.5482 933.062,96.2162 921.418,104.72 917.468,108.144 917.464,108.56 917.192,119.318 917.138,126.644" style="stroke:rgb(0,0,0);stroke-width:1px;fill:none;stroke-opacity:1;stroke-linecap:round;stroke-linejoin:round;;fill:none"/>
<polyline points="917.138,126.644 917.468,157.176 917.4,162.802 917.396,162.888 917.322,167.068 917.322,179.054 917.322,2364.25 917.322,2376.23 917.246,2380.41 917.242,2380.5 917.174,2386.12 917.506,2416.68 917.452,2424.01 917.184,2434.63 923.39,2440.55 937.238,2449.45 945.488,2452.75 952.52,2455.57 957.798,2457.12 969.874,2459.75 982.204,2460.63 1694.96,2460.63 1704.21,2460.13 1713.36,2458.65 1717.42,2457.77 1731.2,2453.54 1732.78,2452.75 1744.09,2452.75 1744.09,2447.09 1755.73,2438.6 1759.88,2434.99 1771.25,2423.07 1780.16,2409.22 1786.28,2393.93 1787.83,2388.65 1790.46,2376.57 1791.34,2364.25 1791.34,179.054 1790.84,169.798 1789.36,160.648 1788.48,156.592 1784.25,142.806 1777.8,129.912 1769.29,118.268 1765.69,114.11 1753.77,102.752 1744.09,96.5322 1744.09,90.5502 1731.67,90.5502 1724.64,87.7342 1719.36,86.1842 1707.29,83.5562 1694.96,82.6742 982.204,82.6742 972.948,83.1702 963.798,84.6522 959.742,85.5342 945.956,89.7622 933.062,96.2162 921.418,104.72 917.468,108.144 917.464,108.56 917.192,119.318 917.138,126.644" style="stroke:rgb(115,81,255);stroke-width:173.228346;fill:none;stroke-opacity:0.5;stroke-linecap:round;stroke-linejoin:round;;fill:none"/>
<polyline points="917.138,126.644 917.468,157.176 917.4,162.802 917.396,162.888 917.322,167.068 917.322,179.054 917.322,2364.25 917.322,2376.23 917.246,2380.41 917.242,2380.5 917.174,2386.12 917.506,2416.68 917.452,2424.01 917.184,2434.63 923.39,2440.55 937.238,2449.45 945.488,2452.75 952.52,2455.57 957.798,2457.12 969.874,2459.75 982.204,2460.63 1694.96,2460.63 1704.21,2460.13 1713.36,2458.65 1717.42,2457.77 1731.2,2453.54 1732.78,2452.75 1744.09,2452.75 1744.09,2447.09 1755.73,2438.6 1759.88,2434.99 1771.25,2423.07 1780.16,2409.22 1786.28,2393.93 1787.83,2388.65 1790.46,2376.57 1791.34,2364.25 1791.34,179.054 1790.84,169.798 1789.36,160.648 1788.48,156.592 1784.25,142.806 1777.8,129.912 1769.29,118.268 1765.69,114.11 1753.77,102.752 1744.09,96.5322 1744.09,90.5502 1731.67,90.5502 1724.64,87.7342 1719.36,86.1842 1707.29,83.5562 1694.96,82.6742 982.204,82.6742 972.948,83.1702 963.798,84.6522 959.742,85.5342 945.956,89.7622 933.062,96.2162 921.418,104.72 917.468,108.144 917.464,108.56 917.192,119.318 917.138,126.644" style="stroke:rgb(0,0,0);stroke-width:1px;fill:none;stroke-opacity:1;stroke-linecap:round;stroke-linejoin:round;;fill:none"/>
<polyline points="917.138,126.644 917.468,157.176 917.4,162.802 917.396,162.888 917.322,167.068 917.322,179.054 917.322,2364.25 917.322,2376.23 917.246,2380.41 917.242,2380.5 917.174,2386.12 917.506,2416.68 917.452,2424.01 917.184,2434.63 923.39,2440.55 937.238,2449.45 952.52,2455.57 957.798,2457.12 969.874,2459.75 982.204,2460.63 1694.96,2460.63 1704.21,2460.13 1713.36,2458.65 1717.42,2457.77 1731.2,2453.54 1732.78,2452.75 1744.09,2452.75 1744.09,2447.09 1755.73,2438.6 1759.88,2434.99 1771.25,2423.07 1780.16,2409.22 1786.28,2393.93 1787.83,2388.65 1790.46,2376.57 1791.34,2364.25 1791.34,179.054 1790.84,169.798 1789.36,160.648 1788.48,156.592 1784.25,142.806 1777.8,129.912 1769.29,118.268 1765.69,114.11 1753.77,102.752 1744.09,96.5322 1744.09,90.5502 1731.67,90.5502 1724.64,87.7342 1719.36,86.1842 1707.29,83.5562 1694.96,82.6742 982.204,82.6742 972.948,83.1702 963.798,84.6522 959.742,85.5342 945.956,89.7622 933.062,96.2162 921.418,104.72 917.468,108.144 917.464,108.56 917.192,119.318 917.138,126.644" style="stroke:rgb(115,81,255);stroke-width:173.228346;fill:none;stroke-opacity:0.5;stroke-linecap:round;stroke-linejoin:round;;fill:none"/>
<polyline points="917.138,126.644 917.468,157.176 917.4,162.802 917.396,162.888 917.322,167.068 917.322,179.054 917.322,2364.25 917.322,2376.23 917.246,2380.41 917.242,2380.5 917.174,2386.12 917.506,2416.68 917.452,2424.01 917.184,2434.63 923.39,2440.55 937.238,2449.45 952.52,2455.57 957.798,2457.12 969.874,2459.75 982.204,2460.63 1694.96,2460.63 1704.21,2460.13 1713.36,2458.65 1717.42,2457.77 1731.2,2453.54 1732.78,2452.75 1744.09,2452.75 1744.09,2447.09 1755.73,2438.6 1759.88,2434.99 1771.25,2423.07 1780.16,2409.22 1786.28,2393.93 1787.83,2388.65 1790.46,2376.57 1791.34,2364.25 1791.34,179.054 1790.84,169.798 1789.36,160.648 1788.48,156.592 1784.25,142.806 1777.8,129.912 1769.29,118.268 1765.69,114.11 1753.77,102.752 1744.09,96.5322 1744.09,90.5502 1731.67,90.5502 1724.64,87.7342 1719.36,86.1842 1707.29,83.5562 1694.96,82.6742 982.204,82.6742 972.948,83.1702 963.798,84.6522 959.742,85.5342 945.956,89.7622 933.062,96.2162 921.418,104.72 917.468,108.144 917.464,108.56 917.192,119.318 917.138,126.644" style="stroke:rgb(0,0,0);stroke-width:1px;fill:none;stroke-opacity:1;stroke-linecap:round;stroke-linejoin:round;;fill:none"/>
<polyline points="917.138,126.644 917.468,157.176 917.4,162.802 917.396,162.888 917.322,167.068 917.322,179.054 917.322,2364.25 917.322,2376.23 917.246,2380.41 917.242,2380.5 917.174,2386.12 917.506,2416.68 917.452,2424.01 917.184,2434.63 923.39,2440.55 937.238,2449.45 952.52,2455.57 957.798,2457.12 969.874,2459.75 982.204,2460.63 1694.96,2460.63 1704.21,2460.13 1713.36,2458.65 1717.42,2457.77 1731.2,2453.54 1732.78,2452.75 1744.09,2452.75 1744.09,2447.09 1755.73,2438.6 1759.88,2434.99 1771.25,2423.07 1780.16,2409.22 1786.28,2393.93 1787.83,2388.65 1790.46,2376.57 1791.34,2364.25 1791.34,179.054 1790.84,169.798 1789.36,160.648 1788.48,156.592 1784.25,142.806 1777.8,129.912 1769.29,118.268 1765.69,114.11 1753.77,102.752 1744.09,96.5322 1744.09,90.5502 1731.67,90.5502 1724.64,87.7342 1719.36,86.1842 1707.29,83.5562 1694.96,82.6742 982.204,82.6742 972.948,83.1702 963.798,84.6522 959.742,85.5342 945.956,89.7622 933.062,96.2162 921.418,104.72 917.468,108.144 917.464,108.56 917.192,119.318 917.138,126.644" style="stroke:rgb(115,81,255);stroke-width:173.228346;fill:none;stroke-opacity:0.5;stroke-linecap:round;stroke-linejoin:round;;fill:none"/>
<polyline points="917.138,126.644 917.468,157.176 917.4,162.802 917.396,162.888 917.322,167.068 917.322,179.054 917.322,2364.25 917.322,2376.23 917.246,2380.41 917.242,2380.5 917.174,2386.12 917.506,2416.68 917.452,2424.01 917.184,2434.63 923.39,2440.55 937.238,2449.45 952.52,2455.57 957.798,2457.12 969.874,2459.75 982.204,2460.63 1694.96,2460.63 1704.21,2460.13 1713.36,2458.65 1717.42,2457.77 1731.2,2453.54 1732.78,2452.75 1744.09,2452.75 1744.09,2447.09 1755.73,2438.6 1759.88,2434.99 1771.25,2423.07 1780.16,2409.22 1786.28,2393.93 1787.83,2388.65 1790.46,2376.57 1791.34,2364.25 1791.34,179.054 1790.84,169.798 1789.36,160.648 1788.48,156.592 1784.25,142.806 1777.8,129.912 1769.29,118.268 1765.69,114.11 1753.77,102.752 1744.09,96.5322 1744.09,90.5502 1731.67,90.5502 1724.64,87.7342 1719.36,86.1842 1707.29,83.5562 1694.96,82.6742 982.204,82.6742 972.948,83.1702 963.798,84.6522 959.742,85.5342 945.956,89.7622 933.062,96.2162 921.418,104.72 917.468,108.144 917.464,108.56 917.192,119.318 917.138,126.644" style="stroke:rgb(0,0,0);stroke-width:1px;fill:none;stroke-opacity:1;stroke-linecap:round;stroke-linejoin:round;;fill:none"/>
<polyline points="917.138,126.644 917.468,157.176 917.4,162.802 917.396,162.888 917.322,167.068 917.322,179.054 917.322,2364.25 917.322,2376.23 917.246,2380.41 917.242,2380.5 917.174,2386.12 917.506,2416.68 917.452,2424.01 917.184,2434.63 923.39,2440.55 937.238,2449.45 952.52,2455.57 957.798,2457.12 969.874,2459.75 982.204,2460.63 1694.96,2460.63 1704.21,2460.13 1713.36,2458.65 1717.42,2457.77 1731.2,2453.54 1732.78,2452.75 1744.09,2452.75 1744.09,2447.09 1755.73,2438.6 1759.88,2434.99 1771.25,2423.07 1780.16,2409.22 1786.28,2393.93 1787.83,2388.65 1790.46,2376.57 1791.34,2364.25 1791.34,179.054 1790.84,169.798 1789.36,160.648 1788.48,156.592 1784.25,142.806 1777.8,129.912 1769.29,118.268 1765.69,114.11 1753.77,102.752 1744.09,96.5322 1744.09,90.5502 1731.67,90.5502 1724.64,87.7342 1719.36,86.1842 1707.29,83.5562 1694.96,82.6742 982.204,82.6742 972.948,83.1702 963.798,84.6522 959.742,85.5342 945.956,89.7622 933.062,96.2162 921.418,104.72 917.468,108.144 917.464,108.56 917.192,119.318 917.138,126.644" style="stroke:rgb(115,81,255);stroke-width:173.228346;fill:none;stroke-opacity:0.5;stroke-linecap:round;stroke-linejoin:round;;fill:none"/>
<polyline points="917.138,126.644 917.468,157.176 917.4,162.802 917.396,162.888 917.322,167.068 917.322,179.054 917.322,2364.25 917.322,2376.23 917.246,2380.41 917.242,2380.5 917.174,2386.12 917.506,2416.68 917.452,2424.01 917.184,2434.63 923.39,2440.55 937.238,2449.45 952.52,2455.57 957.798,2457.12 969.874,2459.75 982.204,2460.63 1694.96,2460.63 1704.21,2460.13 1713.36,2458.65 1717.42,2457.77 1731.2,2453.54 1732.78,2452.75 1744.09,2452.75 1744.09,2447.09 1755.73,2438.6 1759.88,2434.99 1771.25,2423.07 1780.16,2409.22 1786.28,2393.93 1787.83,2388.65 1790.46,2376.57 1791.34,2364.25 1791.34,179.054 1790.84,169.798 1789.36,160.648 1788.48,156.592 1784.25,142.806 1777.8,129.912 1769.29,118.268 1765.69,114.11 1753.77,102.752 1744.09,96.5322 1744.09,90.5502 1731.67,90.5502 1724.64,87.7342 1719.36,86.1842 1707.29,83.5562 1694.96,82.6742 982.204,82.6742 972.948,83.1702 963.798,84.6522 959.742,85.5342 945.956,89.7622 933.062,96.2162 921.418,104.72 917.468,108.144 917.464,108.56 917.192,119.318 917.138,126.644" style="stroke:rgb(0,0,0);stroke-width:1px;fill:none;stroke-opacity:1;stroke-linecap:round;stroke-linejoin:round;;fill:none"/>
<polyline points="917.138,126.644 917.468,157.176 917.4,162.802 917.396,162.888 917.322,167.068 917.322,179.054 917.322,2364.25 917.322,2376.23 917.246,2380.41 917.242,2380.5 917.174,2386.12 917.506,2416.68 917.452,2424.01 917.184,2434.63 923.39,2440.55 937.238,2449.45 952.52,2455.57 957.798,2457.12 969.874,2459.75 982.204,2460.63 1694.96,2460.63 1704.21,2460.13 1713.36,2458.65 1717.42,2457.77 1731.2,2453.54 1732.78,2452.75 1744.09,2452.75 1744.09,2447.09 1755.73,2438.6 1759.88,2434.99 1771.25,2423.07 1780.16,2409.22 1786.28,2393.93 1787.83,2388.65 1790.46,2376.57 1791.34,2364.25 1791.34,179.054 1790.84,169.798 1789.36,160.648 1788.48,156.592 1784.25,142.806 1777.8,129.912 1769.29,118.268 1765.69,114.11 1753.77,102.752 1744.09,96.5322 1744.09,90.5502 1731.67,90.5502 1724.64,87.7342 1719.36,86.1842 1707.29,83.5562 1694.96,82.6742 982.204,82.6742 972.948,83.1702 963.798,84.6522 959.742,85.5342 945.956,89.7622 933.062,96.2162 921.418,104.72 917.468,108.144 917.464,108.56 917.192,119.318 917.138,126.644" style="stroke:rgb(115,81,255);stroke-width:173.228346;fill:none;stroke-opacity:0.5;stroke-linecap:round;stroke-linejoin:round;;fill:none"/>
<polyline points="917.138,126.644 917.468,157.176 917.4,162.802 917.396,162.888 917.322,167.068 917.322,179.054 917.322,2364.25 917.322,2376.23 917.246,2380.41 917.242,2380.5 917.174,2386.12 917.506,2416.68 917.452,2424.01 917.184,2434.63 923.39,2440.55 937.238,2449.45 952.52,2455.57 957.798,2457.12 969.874,2459.75 982.204,2460.63 1694.96,2460.63 1704.21,2460.13 1713.36,2458.65 1717.42,2457.77 1731.2,2453.54 1732.78,2452.75 1744.09,2452.75 1744.09,2447.09 1755.73,2438.6 1759.88,2434.99 1771.25,2423.07 1780.16,2409.22 1786.28,2393.93 1787.83,2388.65 1790.46,2376.57 1791.34,2364.25 1791.34,179.054 1790.84,169.798 1789.36,160.648 1788.48,156.592 1784.25,142.806 1777.8,129.912 1769.29,118.268 1765.69,114.11 1753.77,102.752 1744.09,96.5322 1744.09,90.5502 1731.67,90.5502 1724.64,87.7342 1719.36,86.1842 1707.29,83.5562 1694.96,82.6742 982.204,82.6742 972.948,83.1702 963.798,84.6522 959.742,85.5342 945.956,89.7622 933.062,96.2162 921.418,104.72 917.468,108.144 917.464,108.56 917.192,119.318 917.138,126.644" style="stroke:rgb(0,0,0);stroke-width:1px;fill:none;stroke-opacity:1;stroke-linecap:round;stroke-linejoin:round;;fill:none"/>
<polyline points="917.138,126.644 917.468,157.176 917.4,162.802 917.396,162.888 917.322,167.068 917.322,179.054 917.322,2364.25 917.322,2376.23 917.246,2380.41 917.242,2380.5 917.174,2386.12 917.506,2416.68 917.452,2424.01 917.184,2434.63 923.39,2440.55 937.238,2449.45 945.488,2452.75 952.52,2455.57 957.798,2457.12 969.874,2459.75 982.204,2460.63 1694.96,2460.63 1704.21,2460.13 1713.36,2458.65 1717.42,2457.77 1731.2,2453.54 1732.78,2452.75 1744.09,2452.75 1744.09,2447.09 1755.73,2438.6 1759.88,2434.99 1771.25,2423.07 1780.16,2409.22 1786.28,2393.93 1787.83,2388.65 1790.46,2376.57 1791.34,2364.25 1791.34,179.054 1790.84,169.798 1789.36,160.648 1788.48,156.592 1784.25,142.806 1777.8,129.912 1769.29,118.268 1765.69,114.11 1753.77,102.752 1744.09,96.5322 1744.09,90.5502 1731.67,90.5502 1724.64,87.7342 1719.36,86.1842 1707.29,83.5562 1694.96,82.6742 982.204,82.6742 972.948,83.1702 963.798,84.6522 959.742,85.5342 945.956,89.7622 933.062,96.2162 921.418,104.72 917.468,108.144 917.464,108.56 917.192,119.318 917.138,126.644" style="stroke:rgb(115,81,255);stroke-width:173.228346;fill:none;stroke-opacity:0.5;stroke-linecap:round;stroke-linejoin:round;;fill:none"/>
<polyline points="917.138,126.644 917.468,157.176 917.4,162.802 917.396,162.888 917.322,167.068 917.322,179.054 917.322,2364.25 917.322,2376.23 917.246,2380.41 917.242,2380.5 917.174,2386.12 917.506,2416.68 917.452,2424.01 917.184,2434.63 923.39,2440.55 937.238,2449.45 945.488,2452.75 952.52,2455.57 957.798,2457.12 969.874,2459.75 982.204,2460.63 1694.96,2460.63 1704.21,2460.13 1713.36,2458.65 1717.42,2457.77 1731.2,2453.54 1732.78,2452.75 1744.09,2452.75 1744.09,2447.09 1755.73,2438.6 1759.88,2434.99 1771.25,2423.07 1780.16,2409.22 1786.28,2393.93 1787.83,2388.65 1790.46,2376.57 1791.34,2364.25 1791.34,179.054 1790.84,169.798 1789.36,160.648 1788.48,156.592 1784.25,142.806 1777.8,129.912 1769.29,118.268 1765.69,114.11 1753.77,102.752 1744.09,96.5322 1744.09,90.5502 1731.67,90.5502 1724.64,87.7342 1719.36,86.1842 1707.29,83.5562 1694.96,82.6742 982.204,82.6742 972.948,83.1702 963.798,84.6522 959.742,85.5342 945.956,89.7622 933.062,96.2162 921.418,104.72 917.468,108.144 917.464,108.56 917.192,119.318 917.138,126.644" style="stroke:rgb(0,0,0);stroke-width:1px;fill:none;stroke-opacity:1;stroke-linecap:round;stroke-linejoin:round;;fill:none"/>
<polyline points="917.138,126.644 917.468,157.176 917.4,162.802 917.396,162.888 917.322,167.068 917.322,179.054 917.322,2364.25 917.322,2376.23 917.246,2380.41 917.242,2380.5 917.174,2386.12 917.506,2416.68 917.452,2424.01 917.184,2434.63 923.39,2440.55 937.238,2449.45 945.488,2452.75 952.52,2455.57 957.798,2457.12 969.874,2459.75 982.204,2460.63 1694.96,2460.63 1704.21,2460.13 1713.36,2458.65 1717.42,2457.77 1731.2,2453.54 1732.78,2452.75 1744.09,2452.75 1744.09,2447.09 1755.73,2438.6 1759.88,2434.99 1771.25,2423.07 1780.16,2409.22 1786.28,2393.93 1787.83,2388.65 1790.46,2376.57 1791.34,2364.25 1791.34,179.054 1790.84,169.798 1789.36,160.648 1788.48,156.592 1784.25,142.806 1777.8,129.912 1769.29,118.268 1765.69,114.11 1753.77,102.752 1744.09,96.5322 1744.09,90.5502 1731.67,90.5502 1724.64,87.7342 1719.36,86.1842 1707.29,83.5562 1694.96,82.6742 982.204,82.6742 972.948,83.1702 963.798,84.6522 959.742,85.5342 945.956,89.7622 933.062,96.2162 921.418,104.72 917.468,108.144 917.464,108.56 917.192,119.318 917.138,126.644" style="stroke:rgb(115,81,255);stroke-width:173.228346;fill:none;stroke-opacity:0.5;stroke-linecap:round;stroke-linejoin:round;;fill:none"/>
<polyline points="917.138,126.644 917.468,157.176 917.4,162.802 917.396,162.888 917.322,167.068 917.322,179.054 917.322,2364.25 917.322,2376.23 917.246,2380.41 917.242,2380.5 917.174,2386.12 917.506,2416.68 917.452,2424.01 917.184,2434.63 923.39,2440.55 937.238,2449.45 945.488,2452.75 952.52,2455.57 957.798,2457.12 969.874,2459.75 982.204,2460.63 1694.96,2460.63 1704.21,2460.13 1713.36,2458.65 1717.42,2457.77 1731.2,2453.54 1732.78,2452.75 1744.09,2452.75 1744.09,2447.09 1755.73,2438.6 1759.88,2434.99 1771.25,2423.07 1780.16,2409.22 1786.28,2393.93 1787.83,2388.65 1790.46,2376.57 1791.34,2364.25 1791.34,179.054 1790.84,169.798 1789.36,160.648 1788.48,156.592 1784.25,142.806 1777.8,129.912 1769.29,118.268 1765.69,114.11 1753.77,102.752 1744.09,96.5322 1744.09,90.5502 1731.67,90.5502 1724.64,87.7342 1719.36,86.1842 1707.29,83.5562 1694.96,82.6742 982.204,82.6742 972.948,83.1702 963.798,84.6522 959.742,85.5342 945.956,89.7622 933.062,96.2162 921.418,104.72 917.468,108.144 917.464,108.56 917.192,119.318 917.138,126.644" style="stroke:rgb(0,0,0);stroke-width:1px;fill:none;stroke-opacity:1;stroke-linecap:round;stroke-linejoin:round;;fill:none"/>
<polyline points="917.138,126.644 917.468,157.176 917.4,162.802 917.396,162.888 917.322,167.068 917.322,179.054 917.322,2364.25 917.322,2376.23 917.246,2380.41 917.242,2380.5 917.174,2386.12 917.506,2416.68 917.452,2424.01 917.184,2434.63 923.39,2440.55 937.238,2449.45 945.488,2452.75 952.52,2455.57 957.798,2457.12 969.874,2459.75 982.204,2460.63 1694.96,2460.63 1704.21,2460.13 1713.36,2458.65 1717.42,2457.77 1731.2,2453.54 1732.78,2452.75 1744.09,2452.75 1744.09,2447.09 1755.73,2438.6 1759.88,2434.99 1771.25,2423.07 1780.16,2409.22 1786.28,2393.93 1787.83,2388.65 1790.46,2376.57 1791.34,2364.25 1791.34,179.054 1790.84,169.798 1789.36,160.648 1788.48,156.592 1784.25,142.806 1777.8,129.912 1769.29,118.268 1765.69,114.11 1753.77,102.752 1744.09,96.5322 1744.09,90.5502 1731.67,90.5502 1724.64,87.7342 1719.36,86.1842 1707.29,83.5562 1694.96,82.6742 982.204,82.6742 972.948,83.1702 963.798,84.6522 959.742,85.5342 945.956,89.7622 933.062,96.2162 921.418,104.72 917.468,108.144 917.464,108.56 917.192,119.318 917.138,126.644" style="stroke:rgb(115,81,255);stroke-width:173.228346;fill:none;stroke-opacity:0.5;stroke-linecap:round;stroke-linejoin:round;;fill:none"/>
<polyline points="917.138,126.644 917.468,157.176 917.4,162.802 917.396,162.888 917.322,167.068 917.322,179.054 917.322,2364.25 917.322,2376.23 917.246,2380.41 917.242,2380.5 917.174,2386.12 917.506,2416.68 917.452,2424.01 917.184,2434.63 923.39,2440.55 937.238,2449.45 945.488,2452.75 952.52,2455.57 957.798,2457.12 969.874,2459.75 982.204,2460.63 1694.96,2460.63 1704.21,2460.13 1713.36,2458.65 1717.42,2457.77 1731.2,2453.54 1732.78,2452.75 1744.09,2452.75 1744.09,2447.09 1755.73,2438.6 1759.88,2434.99 1771.25,2423.07 1780.16,2409.22 1786.28,2393.93 1787.83,2388.65 1790.46,2376.57 1791.34,2364.25 1791.34,179.054 1790.84,169.798 1789.36,160.648 1788.48,156.592 1784.25,142.806 1777.8,129.912 1769.29,118.268 1765.69,114.11 1753.77,102.752 1744.09,96.5322 1744.09,90.5502 1731.67,90.5502 1724.64,87.7342 1719.36,86.1842 1707.29,83.5562 1694.96,82.6742 982.204,82.6742 972.948,83.1702 963.798,84.6522 959.742,85.5342 945.956,89.7622 933.062,96.2162 921.418,104.72 917.468,108.144 917.464,108.56 917.192,119.318 917.138,126.644" style="stroke:rgb(0,0,0);stroke-width:1px;fill:none;stroke-opacity:1;stroke-linecap:round;stroke-linejoin:round;;fill:none"/>
<polyline points="917.138,126.644 917.468,157.176 917.4,162.802 917.396,162.888 917.322,167.068 917.322,179.054 917.322,2364.25 917.322,2376.23 917.246,2380.41 917.242,2380.5 917.174,2386.12 917.506,2416.68 917.452,2424.01 917.184,2434.63 923.39,2440.55 937.238,2449.45 945.49,2452.75 952.52,2455.57 957.798,2457.12 969.874,2459.75 982.204,2460.63 1694.96,2460.63 1704.21,2460.13 1713.36,2458.65 1717.42,2457.77 1731.2,2453.54 1732.78,2452.75 1744.09,2452.75 1744.09,2447.09 1755.73,2438.6 1759.88,2434.99 1771.25,2423.07 1780.16,2409.22 1786.28,2393.93 1787.83,2388.65 1790.46,2376.57 1791.34,2364.25 1791.34,179.054 1790.84,169.798 1789.36,160.648 1788.48,156.592 1784.25,142.806 1777.8,129.912 1769.29,118.268 1765.69,114.11 1753.77,102.752 1744.09,96.5322 1744.09,90.5502 1731.67,90.5502 1724.64,87.7342 1719.36,86.1842 1707.29,83.5562 1694.96,82.6742 982.204,82.6742 972.948,83.1702 963.798,84.6522 959.742,85.5342 945.956,89.7622 933.062,96.2162 921.418,104.72 917.468,108.144 917.464,108.56 917.192,119.318 917.138,126.644" style="stroke:rgb(115,81,255);stroke-width:173.228346;fill:none;stroke-opacity:0.5;stroke-linecap:round;stroke-linejoin:round;;fill:none"/>
<polyline points="917.138,126.644 917.468,157.176 917.4,162.802 917.396,162.888 917.322,167.068 917.322,179.054 917.322,2364.25 917.322,2376.23 917.246,2380.41 917.242,2380.5 917.174,2386.12 917.506,2416.68 917.452,2424.01 917.184,2434.63 923.39,2440.55 937.238,2449.45 945.49,2452.75 952.52,2455.57 957.798,2457.12 969.874,2459.75 982.204,2460.63 1694.96,2460.63 1704.21,2460.13 1713.36,2458.65 1717.42,2457.77 1731.2,2453.54 1732.78,2452.75 1744.09,2452.75 1744.09,2447.09 1755.73,2438.6 1759.88,2434.99 1771.25,2423.07 1780.16,2409.22 1786.28,2393.93 1787.83,2388.65 1790.46,2376.57 1791.34,2364.25 1791.34,179.054 1790.84,169.798 1789.36,160.648 1788.48,156.592 1784.25,142.806 1777.8,129.912 1769.29,118.268 1765.69,114.11 1753.77,102.752 1744.09,96.5322 1744.09,90.5502 1731.67,90.5502 1724.64,87.7342 1719.36,86.1842 1707.29,83.5562 1694.96,82.6742 982.204,82.6742 972.948,83.1702 963.798,84.6522 959.742,85.5342 945.956,89.7622 933.062,96.2162 921.418,104.72 917.468,108.144 917.464,108.56 917.192,119.318 917.138,126.644" style="stroke:rgb(0,0,0);stroke-width:1px;fill:none;stroke-opacity:1;stroke-linecap:round;stroke-linejoin:round;;fill:none"/>
<polyline points="917.138,126.644 917.468,157.176 917.4,162.802 917.396,162.888 917.322,167.068 917.322,179.054 917.322,2364.25 917.322,2376.23 917.246,2380.41 917.242,2380.5 917.174,2386.12 917.506,2416.68 917.452,2424.01 917.184,2434.63 923.39,2440.55 937.238,2449.45 945.488,2452.75 952.52,2455.57 957.798,2457.12 969.874,2459.75 982.204,2460.63 1694.96,2460.63 1704.21,2460.13 1713.36,2458.65 1717.42,2457.77 1731.2,2453.54 1732.78,2452.75 1744.09,2452.75 1744.09,2447.09 1755.73,2438.6 1759.88,2434.99 1771.25,2423.07 1780.16,2409.22 1786.28,2393.93 1787.83,2388.65 1790.46,2376.57 1791.34,2364.25 1791.34,179.054 1790.84,169.798 1789.36,160.648 1788.48,156.592 1784.25,142.806 1777.8,129.912 1769.29,118.268 1765.69,114.11 1753.77,102.752 1744.09,96.5322 1744.09,90.5502 1731.67,90.5502 1724.64,87.7342 1719.36,86.1842 1707.29,83.5562 1694.96,82.6742 982.204,82.6742 972.948,83.1702 963.798,84.6522 959.742,85.5342 945.956,89.7622 933.062,96.2162 921.418,104.72 917.468,108.144 917.464,108.56 917.192,119.318 917.138,126.644" style="stroke:rgb(115,81,255);stroke-width:173.228346;fill:none;stroke-opacity:0.5;stroke-linecap:round;stroke-linejoin:round;;fill:none"/>
<polyline points="917.138,126.644 917.468,157.176 917.4,162.802 917.396,162.888 917.322,167.068 917.322,179.054 917.322,2364.25 917.322,2376.23 917.246,2380.41 917.242,2380.5 917.174,2386.12 917.506,2416.68 917.452,2424.01 917.184,2434.63 923.39,2440.55 937.238,2449.45 945.488,2452.75 952.52,2455.57 957.798,2457.12 969.874,2459.75 982.204,2460.63 1694.96,2460.63 1704.21,2460.13 1713.36,2458.65 1717.42,2457.77 1731.2,2453.54 1732.78,2452.75 1744.09,2452.75 1744.09,2447.09 1755.73,2438.6 1759.88,2434.99 1771.25,2423.07 1780.16,2409.22 1786.28,2393.93 1787.83,2388.65 1790.46,2376.57 1791.34,2364.25 1791.34,179.054 1790.84,169.798 1789.36,160.648 1788.48,156.592 1784.25,142.806 1777.8,129.912 1769.29,118.268 1765.69,114.11 1753.77,102.752 1744.09,96.5322 1744.09,90.5502 1731.67,90.5502 1724.64,87.7342 1719.36,86.1842 1707.29,83.5562 1694.96,82.6742 982.204,82.6742 972.948,83.1702 963.798,84.6522 959.742,85.5342 945.956,89.7622 933.062,96.2162 921.418,104.72 917.468,108.144 917.464,108.56 917.192,119.318 917.138,126.644" style="stroke:rgb(0,0,0);stroke-width:1px;fill:none;stroke-opacity:1;stroke-linecap:round;stroke-linejoin:round;;fill:none"/>
<polyline points="917.138,126.644 917.468,157.176 917.4,162.802 917.396,162.888 917.322,167.068 917.322,179.054 917.322,2364.25 917.322,2376.23 917.246,2380.41 917.242,2380.5 917.174,2386.12 917.506,2416.68 917.452,2424.01 917.184,2434.63 923.39,2440.55 937.238,2449.45 952.52,2455.57 957.798,2457.12 969.874,2459.75 982.204,2460.63 1694.96,2460.63 1704.21,2460.13 1713.36,2458.65 1717.42,2457.77 1731.2,2453.54 1732.78,2452.75 1744.09,2452.75 1744.09,2447.09 1755.73,2438.6 1759.88,2434.99 1771.25,2423.07 1780.16,2409.22 1786.28,2393.93 1787.83,2388.65 1790.46,2376.57 1791.34,2364.25 1791.34,179.054 1790.84,169.798 1789.36,160.648 1788.48,156.592 1784.25,142.806 1777.8,129.912 1769.29,118.268 1765.69,114.11 1753.77,102.752 1744.09,96.5322 1744.09,90.5502 1731.67,90.5502 1724.64,87.7342 1719.36,86.1842 1707.29,83.5562 1694.96,82.6742 982.204,82.6742 972.948,83.1702 963.798,84.6522 959.742,85.5342 945.956,89.7622 933.062,96.2162 921.418,104.72 917.468,108.144 917.464,108.56 917.192,119.318 917.138,126.644" style="stroke:rgb(115,81,255);stroke-width:173.228346;fill:none;stroke-opacity:0.5;stroke-linecap:round;stroke-linejoin:round;;fill:none"/>
<polyline points="917.138,126.644 917.468,157.176 917.4,162.802 917.396,162.888 917.322,167.068 917.322,179.054 917.322,2364.25 917.322,2376.23 917.246,2380.41 917.242,2380.5 917.174,2386.12 917.506,2416.68 917.452,2424.01 917.184,2434.63 923.39,2440.55 937.238,2449.45 952.52,2455.57 957.798,2457.12 969.874,2459.75 982.204,2460.63 1694.96,2460.63 1704.21,2460.13 1713.36,2458.65 1717.42,2457.77 1731.2,2453.54 1732.78,2452.75 1744.09,2452.75 1744.09,2447.09 1755.73,2438.6 1759.88,2434.99 1771.25,2423.07 1780.16,2409.22 1786.28,2393.93 1787.83,2388.65 1790.46,2376.57 1791.34,2364.25 1791.34,179.054 1790.84,169.798 1789.36,160.648 1788.48,156.592 1784.25,142.806 1777.8,129.912 1769.29,118.268 1765.69,114.11 1753.77,102.752 1744.09,96.5322 1744.09,90.5502 1731.67,90.5502 1724.64,87.7342 1719.36,86.1842 1707.29,83.5562 1694.96,82.6742 982.204,82.6742 972.948,83.1702 963.798,84.6522 959.742,85.5342 945.956,89.7622 933.062,96.2162 921.418,104.72 917.468,108.144 917.464,108.56 917.192,119.318 917.138,126.644" style="stroke:rgb(0,0,0);stroke-width:1px;fill:none;stroke-opacity:1;stroke-linecap:round;stroke-linejoin:round;;fill:none"/>
<g fill-rule="evenodd"><path d="M 129.92,2364.25 L 129.92,179.054 L 131.47,173.776 L 135.628,170.172 L 139.684,169.29 L 852.44,169.29 L 857.72,170.84 L 861.322,174.998 L 862.204,179.054 L 862.204,2364.25 L 860.654,2369.53 L 856.496,2373.13 L 852.44,2374.01 L 139.684,2374.01 L 134.406,2372.46 L 130.804,2368.31 L 129.92,2364.25 z " style="fill-opacity:1.000000;fill:rgb(103,198,105);stroke:rgb(0,0,0);stroke-width:2"/></g>
<g fill-rule="evenodd"><path d="M 972.44,2364.25 L 972.44,179.054 L 973.99,173.776 L 978.148,170.172 L 982.204,169.29 L 1694.96,169.29 L 1700.24,170.84 L 1703.84,174.998 L 1704.72,179.054 L 1704.72,2364.25 L 1703.17,2369.53 L 1699.02,2373.13 L 1694.96,2374.01 L 982.204,2374.01 L 976.926,2372.46 L 973.322,2368.31 L 972.44,2364.25 z " style="fill-opacity:1.000000;fill:rgb(115,81,255);stroke:rgb(0,0,0);stroke-width:2"/></g>
</svg>
