<?xml version="1.0" standalone="no"?>
<!DOCTYPE svg PUBLIC "-//W3C//DTD SVG 1.1//EN"
"http://www.w3.org/Graphics/SVG/1.1/DTD/svg11.dtd">
<svg width="88.063" height="122.079" viewBox="0 0 1834.65 2543.31" version="1.1"
xmlns="http://www.w3.org/2000/svg"
xmlns:xlink="http://www.w3.org/1999/xlink">
<polyline points="917.46,108.668 917.468,108.144 921.418,104.72 933.062,96.2162 945.956,89.7622 959.742,85.5342 963.798,84.6522 972.948,83.1702 982.204,82.6742 1694.96,82.6742 1707.29,83.5562 1719.36,86.1842 1724.64,87.7342 1731.67,90.5502 1744.09,90.5502 1744.09,96.5322 1753.77,102.752 1739.92,93.8522 1731.68,90.5502 1739.92,93.8522 1753.77,102.752 1765.69,114.11 1769.29,118.268 1777.8,129.912 1784.25,142.806 1788.48,156.592 1789.36,160.648 1790.84,169.798 1791.34,179.054 1791.34,2364.25 1790.46,2376.57 1787.83,2388.65 1786.28,2393.93 1780.16,2409.22 1771.25,2423.07 1759.88,2434.99 1755.73,2438.6 1744.09,2447.09 1732.78,2452.75 1744.09,2447.09 1744.09,2452.75 1732.78,2452.75 1731.2,2453.54 1717.42,2457.77 1713.36,2458.65 1704.21,2460.13 1694.96,2460.63 982.204,2460.63 969.874,2459.75 957.798,2457.12 952.52,2455.57 937.238,2449.45 952.52,2455.57 937.238,2449.45 923.39,2440.55 917.184,2434.63 917.506,2416.68 917.174,2386.12 917.468,157.176 917.138,126.644 917.46,108.668 911.264,102.76 897.408,93.8542 882.116,87.7322 897.408,93.8542 882.116,87.7322 876.836,86.1822 864.762,83.5562 852.44,82.6742 139.684,82.6742 130.428,83.1702 117.222,85.5342 103.436,89.7622 90.5416,96.2162 101.862,90.5502 90.5496,90.5502 90.5416,96.2162 78.8976,104.72 74.7396,108.324 63.3816,120.24 54.4816,134.088 48.3636,149.37 46.8136,154.648 44.1856,166.724 43.3036,179.054 43.3036,2364.25 43.8016,2373.52 45.2916,2382.69 46.1756,2386.75 50.3996,2400.51 56.8456,2413.39 65.3376,2425.02 68.9396,2429.17 80.8556,2440.54 94.7096,2449.45 102.97,2452.75 94.7096,2449.45 80.8556,2440.54 90.5496,2446.77 90.5496,2452.75 102.97,2452.75 110,2455.57 115.278,2457.12 127.354,2459.75 139.684,2460.63 852.44,2460.63 861.694,2460.13 874.9,2457.77 888.678,2453.54 901.566,2447.09 913.206,2438.6 917.176,2435.16 917.452,2424.01" style="stroke:rgb(103,198,105);stroke-width:173.228346;fill:none;stroke-opacity:0.5;stroke-linecap:round;stroke-linejoin:round;;fill:none"/>
<polyline points="917.46,108.668 917.468,108.144 921.418,104.72 933.062,96.2162 945.956,89.7622 959.742,85.5342 963.798,84.6522 972.948,83.1702 982.204,82.6742 1694.96,82.6742 1707.29,83.5562 1719.36,86.1842 1724.64,87.7342 1731.67,90.5502 1744.09,90.5502 1744.09,96.5322 1753.77,102.752 1739.92,93.8522 1731.68,90.5502 1739.92,93.8522 1753.77,102.752 1765.69,114.11 1769.29,118.268 1777.8,129.912 1784.25,142.806 1788.48,156.592 1789.36,160.648 1790.84,169.798 1791.34,179.054 1791.34,2364.25 1790.46,2376.57 1787.83,2388.65 1786.28,2393.93 1780.16,2409.22 1771.25,2423.07 1759.88,2434.99 1755.73,2438.6 1744.09,2447.09 1732.78,2452.75 1744.09,2447.09 1744.09,2452.75 1732.78,2452.75 1731.2,2453.54 1717.42,2457.77 1713.36,2458.65 1704.21,2460.13 1694.96,2460.63 982.204,2460.63 969.874,2459.75 957.798,2457.12 952.52,2455.57 937.238,2449.45 952.52,2455.57 937.238,2449.45 923.39,2440.55 917.184,2434.63 917.506,2416.68 917.174,2386.12 917.468,157.176 917.138,126.644 917.46,108.668 911.264,102.76 897.408,93.8542 882.116,87.7322 897.408,93.8542 882.116,87.7322 876.836,86.1822 864.762,83.5562 852.44,82.6742 139.684,82.6742 130.428,83.1702 117.222,85.5342 103.436,89.7622 90.5416,96.2162 101.862,90.5502 90.5496,90.5502 90.5416,96.2162 78.8976,104.72 74.7396,108.324 63.3816,120.24 54.4816,134.088 48.3636,149.37 46.8136,154.648 44.1856,166.724 43.3036,179.054 43.3036,2364.25 43.8016,2373.52 45.2916,2382.69 46.1756,2386.75 50.3996,2400.51 56.8456,2413.39 65.3376,2425.02 68.9396,2429.17 80.8556,2440.54 94.7096,2449.45 102.97,2452.75 94.7096,2449.45 80.8556,2440.54 90.5496,2446.77 90.5496,2452.75 102.97,2452.75 110,2455.57 115.278,2457.12 127.354,2459.75 139.684,2460.63 852.44,2460.63 861.694,2460.13 874.9,2457.77 888.678,2453.54 901.566,2447.09 913.206,2438.6 917.176,2435.16 917.452,2424.01" style="stroke:rgb(0,0,0);stroke-width:1px;fill:none;stroke-opacity:1;stroke-linecap:round;stroke-linejoin:round;;fill:none"/>
</svg>
