<?xml version="1.0" standalone="no"?>
<!DOCTYPE svg PUBLIC "-//W3C//DTD SVG 1.1//EN"
"http://www.w3.org/Graphics/SVG/1.1/DTD/svg11.dtd">
<svg width="88.063" height="122.079" viewBox="0 0 1834.65 2543.31" version="1.1"
xmlns="http://www.w3.org/2000/svg"
xmlns:xlink="http://www.w3.org/1999/xlink">
<polyline points="47.2416,2452.75 48.0736,2461.2 50.5376,2469.33 54.5396,2476.81 59.9256,2483.38 66.4876,2488.76 73.9756,2492.76 82.0996,2495.23 90.5496,2496.06 1744.09,2496.06 1752.54,2495.23 1760.67,2492.76 1768.15,2488.76 1774.72,2483.38 1780.1,2476.81 1784.1,2469.33 1786.57,2461.2 1787.4,2452.75 1787.4,90.5502 1786.57,82.1002 1784.1,73.9762 1780.1,66.4882 1774.72,59.9262 1768.15,54.5402 1760.67,50.5382 1752.54,48.0742 1744.09,47.2422 90.5496,47.2422 82.0996,48.0742 73.9756,50.5382 66.4876,54.5402 59.9256,59.9262 54.5396,66.4882 50.5376,73.9762 48.0736,82.1002 47.2416,90.5502 47.2416,2452.75" style="stroke:rgb(103,198,105);stroke-width:86.614173;fill:none;stroke-opacity:0.5;stroke-linecap:round;stroke-linejoin:round;;fill:none"/>
<polyline points="47.2416,2452.75 48.0736,2461.2 50.5376,2469.33 54.5396,2476.81 59.9256,2483.38 66.4876,2488.76 73.9756,2492.76 82.0996,2495.23 90.5496,2496.06 1744.09,2496.06 1752.54,2495.23 1760.67,2492.76 1768.15,2488.76 1774.72,2483.38 1780.1,2476.81 1784.1,2469.33 1786.57,2461.2 1787.4,2452.75 1787.4,90.5502 1786.57,82.1002 1784.1,73.9762 1780.1,66.4882 1774.72,59.9262 1768.15,54.5402 1760.67,50.5382 1752.54,48.0742 1744.09,47.2422 90.5496,47.2422 82.0996,48.0742 73.9756,50.5382 66.4876,54.5402 59.9256,59.9262 54.5396,66.4882 50.5376,73.9762 48.0736,82.1002 47.2416,90.5502 47.2416,2452.75" style="stroke:rgb(0,0,0);stroke-width:1px;fill:none;stroke-opacity:1;stroke-linecap:round;stroke-linejoin:round;;fill:none"/>
</svg>
