%TF.GenerationSoftware,KiCad,Pcbnew,7.0.5*%
%TF.CreationDate,2023-08-03T20:15:12-04:00*%
%TF.ProjectId,Servo_Signal_V_shifter,53657276-6f5f-4536-9967-6e616c5f565f,rev?*%
%TF.SameCoordinates,Original*%
%TF.FileFunction,Drillmap*%
%TF.FilePolarity,Positive*%
%FSLAX45Y45*%
G04 Gerber Fmt 4.5, Leading zero omitted, Abs format (unit mm)*
G04 Created by KiCad (PCBNEW 7.0.5) date 2023-08-03 20:15:12*
%MOMM*%
%LPD*%
G01*
G04 APERTURE LIST*
%ADD10C,0.100000*%
%ADD11C,0.200000*%
G04 APERTURE END LIST*
D10*
X14816000Y-6869862D02*
X16116000Y-6869862D01*
X16116000Y-8319862D01*
X14816000Y-8319862D01*
X14816000Y-6869862D01*
D11*
X15071777Y-8636346D02*
X15071777Y-8436346D01*
X15071777Y-8436346D02*
X15119396Y-8436346D01*
X15119396Y-8436346D02*
X15147967Y-8445870D01*
X15147967Y-8445870D02*
X15167015Y-8464917D01*
X15167015Y-8464917D02*
X15176539Y-8483965D01*
X15176539Y-8483965D02*
X15186062Y-8522060D01*
X15186062Y-8522060D02*
X15186062Y-8550632D01*
X15186062Y-8550632D02*
X15176539Y-8588727D01*
X15176539Y-8588727D02*
X15167015Y-8607774D01*
X15167015Y-8607774D02*
X15147967Y-8626822D01*
X15147967Y-8626822D02*
X15119396Y-8636346D01*
X15119396Y-8636346D02*
X15071777Y-8636346D01*
X15271777Y-8636346D02*
X15271777Y-8503013D01*
X15271777Y-8541108D02*
X15281301Y-8522060D01*
X15281301Y-8522060D02*
X15290824Y-8512536D01*
X15290824Y-8512536D02*
X15309872Y-8503013D01*
X15309872Y-8503013D02*
X15328920Y-8503013D01*
X15395586Y-8636346D02*
X15395586Y-8503013D01*
X15395586Y-8436346D02*
X15386062Y-8445870D01*
X15386062Y-8445870D02*
X15395586Y-8455394D01*
X15395586Y-8455394D02*
X15405110Y-8445870D01*
X15405110Y-8445870D02*
X15395586Y-8436346D01*
X15395586Y-8436346D02*
X15395586Y-8455394D01*
X15519396Y-8636346D02*
X15500348Y-8626822D01*
X15500348Y-8626822D02*
X15490824Y-8607774D01*
X15490824Y-8607774D02*
X15490824Y-8436346D01*
X15624158Y-8636346D02*
X15605110Y-8626822D01*
X15605110Y-8626822D02*
X15595586Y-8607774D01*
X15595586Y-8607774D02*
X15595586Y-8436346D01*
X15852729Y-8636346D02*
X15852729Y-8436346D01*
X15852729Y-8436346D02*
X15919396Y-8579203D01*
X15919396Y-8579203D02*
X15986062Y-8436346D01*
X15986062Y-8436346D02*
X15986062Y-8636346D01*
X16167015Y-8636346D02*
X16167015Y-8531584D01*
X16167015Y-8531584D02*
X16157491Y-8512536D01*
X16157491Y-8512536D02*
X16138443Y-8503013D01*
X16138443Y-8503013D02*
X16100348Y-8503013D01*
X16100348Y-8503013D02*
X16081301Y-8512536D01*
X16167015Y-8626822D02*
X16147967Y-8636346D01*
X16147967Y-8636346D02*
X16100348Y-8636346D01*
X16100348Y-8636346D02*
X16081301Y-8626822D01*
X16081301Y-8626822D02*
X16071777Y-8607774D01*
X16071777Y-8607774D02*
X16071777Y-8588727D01*
X16071777Y-8588727D02*
X16081301Y-8569679D01*
X16081301Y-8569679D02*
X16100348Y-8560155D01*
X16100348Y-8560155D02*
X16147967Y-8560155D01*
X16147967Y-8560155D02*
X16167015Y-8550632D01*
X16262253Y-8503013D02*
X16262253Y-8703013D01*
X16262253Y-8512536D02*
X16281301Y-8503013D01*
X16281301Y-8503013D02*
X16319396Y-8503013D01*
X16319396Y-8503013D02*
X16338443Y-8512536D01*
X16338443Y-8512536D02*
X16347967Y-8522060D01*
X16347967Y-8522060D02*
X16357491Y-8541108D01*
X16357491Y-8541108D02*
X16357491Y-8598251D01*
X16357491Y-8598251D02*
X16347967Y-8617298D01*
X16347967Y-8617298D02*
X16338443Y-8626822D01*
X16338443Y-8626822D02*
X16319396Y-8636346D01*
X16319396Y-8636346D02*
X16281301Y-8636346D01*
X16281301Y-8636346D02*
X16262253Y-8626822D01*
X16443205Y-8617298D02*
X16452729Y-8626822D01*
X16452729Y-8626822D02*
X16443205Y-8636346D01*
X16443205Y-8636346D02*
X16433682Y-8626822D01*
X16433682Y-8626822D02*
X16443205Y-8617298D01*
X16443205Y-8617298D02*
X16443205Y-8636346D01*
X16443205Y-8512536D02*
X16452729Y-8522060D01*
X16452729Y-8522060D02*
X16443205Y-8531584D01*
X16443205Y-8531584D02*
X16433682Y-8522060D01*
X16433682Y-8522060D02*
X16443205Y-8512536D01*
X16443205Y-8512536D02*
X16443205Y-8531584D01*
M02*
