<?xml version="1.0" standalone="no"?>
<!DOCTYPE svg PUBLIC "-//W3C//DTD SVG 1.1//EN"
"http://www.w3.org/Graphics/SVG/1.1/DTD/svg11.dtd">
<svg width="57.8268" height="63.4961" viewBox="0 0 1204.72 1322.83" version="1.1"
xmlns="http://www.w3.org/2000/svg"
xmlns:xlink="http://www.w3.org/1999/xlink">
<polyline points="446.927,855.257 448.295,849.131 449.655,837.531 449.741,815.265 450.345,811.711 451.739,808.501 453.235,805.719 455.613,803.167 457.901,801.097 460.313,799.751 463.871,798.159 467.431,797.543 502.181,797.483 507.429,796.711 512.137,793.115 549.801,755.673 557.723,751.535 562.769,750.531 565.427,750.201 856.041,750.325 863.373,749.307 868.209,747.813 870.163,741.183 871.257,735.875 873.011,733.249 875.639,731.493 878.737,730.955 1076.38,730.975 1081.76,732.683 1090.4,737.539" style="stroke:rgb(255,0,0);stroke-width:31.496063;fill:none;stroke-opacity:0.5;stroke-linecap:round;stroke-linejoin:round;;fill:none"/>
<polyline points="446.927,855.257 448.295,849.131 449.655,837.531 449.741,815.265 450.345,811.711 451.739,808.501 453.235,805.719 455.613,803.167 457.901,801.097 460.313,799.751 463.871,798.159 467.431,797.543 502.181,797.483 507.429,796.711 512.137,793.115 549.801,755.673 557.723,751.535 562.769,750.531 565.427,750.201 856.041,750.325 863.373,749.307 868.209,747.813 870.163,741.183 871.257,735.875 873.011,733.249 875.639,731.493 878.737,730.955 1076.38,730.975 1081.76,732.683 1090.4,737.539" style="stroke:rgb(0,0,0);stroke-width:1px;fill:none;stroke-opacity:1;stroke-linecap:round;stroke-linejoin:round;;fill:none"/>
<polyline points="1090.4,819.17 1088.54,820.457 1083.29,823.377 1080.22,824.647 1076.38,825.715 878.737,825.735 875.639,825.195 873.013,823.439 871.257,820.813 870.187,815.595 868.217,808.863 863.607,807.447 856.041,806.363 596.777,806.363 591.253,806.995 583.371,809.371 581.837,821.307 581.743,843.129 580.133,851.897 585.537,859.297 625.869,899.655 628.157,902.181 631.097,907.441 632.291,910.147 633.647,917.791 633.527,983.633 634.169,989.463 635.783,994.923 650.013,1000.19 656.235,1004.72 658.905,1007.85 661.597,1011.8 664.425,1019.85 664.711,1024.8 664.711,1123.23 664.425,1128.18 661.597,1136.22 656.681,1142.9 650.013,1147.84 644.763,1149.83 640.763,1150.79 571.955,1150.88 569.067,1150.61 561.007,1147.84 554.339,1142.9 549.421,1136.22 547.055,1129.82 546.595,1128.18 546.309,1123.23 546.309,1024.8 546.595,1019.85 549.421,1011.8 552.115,1007.85 554.787,1004.72 561.007,1000.19 575.319,995.009 576.405,991.195 577.489,983.633 577.489,936.689 576.705,930.827 574.935,928.301 573.113,926.125 512.137,865.149 507.431,861.555 501.571,860.767 470.105,860.743 461.837,861.163 453.299,862.179" style="stroke:rgb(255,0,0);stroke-width:31.496063;fill:none;stroke-opacity:0.5;stroke-linecap:round;stroke-linejoin:round;;fill:none"/>
<polyline points="1090.4,819.17 1088.54,820.457 1083.29,823.377 1080.22,824.647 1076.38,825.715 878.737,825.735 875.639,825.195 873.013,823.439 871.257,820.813 870.187,815.595 868.217,808.863 863.607,807.447 856.041,806.363 596.777,806.363 591.253,806.995 583.371,809.371 581.837,821.307 581.743,843.129 580.133,851.897 585.537,859.297 625.869,899.655 628.157,902.181 631.097,907.441 632.291,910.147 633.647,917.791 633.527,983.633 634.169,989.463 635.783,994.923 650.013,1000.19 656.235,1004.72 658.905,1007.85 661.597,1011.8 664.425,1019.85 664.711,1024.8 664.711,1123.23 664.425,1128.18 661.597,1136.22 656.681,1142.9 650.013,1147.84 644.763,1149.83 640.763,1150.79 571.955,1150.88 569.067,1150.61 561.007,1147.84 554.339,1142.9 549.421,1136.22 547.055,1129.82 546.595,1128.18 546.309,1123.23 546.309,1024.8 546.595,1019.85 549.421,1011.8 552.115,1007.85 554.787,1004.72 561.007,1000.19 575.319,995.009 576.405,991.195 577.489,983.633 577.489,936.689 576.705,930.827 574.935,928.301 573.113,926.125 512.137,865.149 507.431,861.555 501.571,860.767 470.105,860.743 461.837,861.163 453.299,862.179" style="stroke:rgb(0,0,0);stroke-width:1px;fill:none;stroke-opacity:1;stroke-linecap:round;stroke-linejoin:round;;fill:none"/>
</svg>
