<?xml version="1.0" standalone="no"?>
<!DOCTYPE svg PUBLIC "-//W3C//DTD SVG 1.1//EN"
"http://www.w3.org/Graphics/SVG/1.1/DTD/svg11.dtd">
<svg width="57.8268" height="63.4961" viewBox="0 0 1204.72 1322.83" version="1.1"
xmlns="http://www.w3.org/2000/svg"
xmlns:xlink="http://www.w3.org/1999/xlink">
<g fill-rule="evenodd"><path d="M 114.589,1201.32 L 114.589,993.291 L 116.209,988.841 L 120.309,986.473 L 124.971,987.295 L 126.405,988.395 L 235.939,1097.93 L 238.201,1100.73 L 246.701,1106.64 L 256.721,1109.94 L 267.071,1110.23 L 287.275,1110.05 L 291.723,1111.67 L 294.091,1115.77 L 294.421,1129.94 L 297.979,1140.11 L 304.373,1148.77 L 313.039,1155.17 L 323.203,1158.72 L 325.617,1158.95 L 397.215,1158.95 L 399.629,1158.72 L 409.793,1155.17 L 418.459,1148.77 L 424.853,1140.11 L 428.411,1129.94 L 428.637,1127.53 L 428.637,1020.5 L 428.409,1018.08 L 424.853,1007.92 L 418.459,999.255 L 409.793,992.861 L 399.629,989.305 L 397.215,989.077 L 325.615,989.077 L 323.203,989.305 L 313.039,992.861 L 304.373,999.257 L 297.979,1007.92 L 294.421,1018.08 L 294.195,1031.05 L 292.577,1035.5 L 288.477,1037.87 L 280.785,1037.97 L 276.337,1036.36 L 275.891,1035.95 L 193.577,953.633 L 191.577,949.343 L 191.549,948.739 L 191.549,713.543 L 193.169,709.093 L 197.269,706.725 L 201.931,707.549 L 204.707,710.539 L 206.895,714.555 L 213.495,721.407 L 270.583,778.245 L 272.847,781.047 L 281.823,787.167 L 291.367,790.257 L 301.717,790.547 L 306.395,790.369 L 309.435,791.073 L 313.793,793.203 L 319.205,793.991 L 417.011,793.991 L 422.425,793.203 L 430.775,789.121 L 437.349,782.547 L 441.431,774.197 L 442.219,768.785 L 442.219,739.875 L 441.431,734.463 L 437.349,726.111 L 430.775,719.539 L 422.425,715.457 L 417.011,714.669 L 319.205,714.669 L 313.683,715.473 L 309.047,714.511 L 274.285,680.011 L 272.285,675.721 L 272.259,653.673 L 273.877,649.223 L 277.977,646.855 L 282.641,647.679 L 290.231,654.935 L 301.361,661.517 L 313.779,665.125 L 316.679,665.353 L 348.423,665.353 L 348.423,625.984 L 320.616,625.92 L 318.201,625.406 L 315.945,624.402 L 313.947,622.951 L 312.295,621.116 L 311.06,618.977 L 310.297,616.629 L 310.039,614.173 L 310.039,590.551 L 310.297,588.096 L 311.06,585.747 L 312.295,583.609 L 313.947,581.774 L 315.945,580.323 L 318.201,579.318 L 321.85,578.74 L 414.37,578.74 L 418.02,579.318 L 420.276,580.323 L 423.086,582.677 L 465.337,582.677 L 463.459,576.071 L 463.773,571.347 L 467.051,567.931 L 470.105,567.219 L 564.649,567.219 L 570.063,566.431 L 578.413,562.349 L 584.985,555.777 L 589.069,547.425 L 589.857,542.013 L 589.857,513.103 L 589.069,507.691 L 584.733,498.825 L 584.983,498.703 L 584.003,495.177 L 585.963,490.867 L 590.235,488.827 L 833.779,488.795 L 838.227,490.413 L 866.397,518.547 L 868.399,522.837 L 867.259,527.287 L 863.629,532.717 L 862.699,537.395 L 862.699,619.295 L 863.629,623.973 L 867.175,629.279 L 872.481,632.825 L 877.159,633.755 L 1077.17,633.755 L 1081.85,632.825 L 1086.54,633.541 L 1089.66,637.101 L 1090.13,639.609 L 1090.13,717.081 L 1088.51,721.531 L 1084.41,723.897 L 1081.86,723.869 L 1077.17,722.937 L 877.159,722.937 L 872.481,723.867 L 867.175,727.411 L 863.629,732.717 L 862.831,736.735 L 860.375,740.783 L 856.043,742.307 L 568.753,742.307 L 565.171,741.925 L 555.791,743.519 L 554.497,743.945 L 544.891,749.021 L 506.467,787.445 L 502.177,789.445 L 466.843,789.471 L 461.431,790.261 L 453.079,794.343 L 446.507,800.915 L 442.425,809.265 L 441.637,814.679 L 441.637,837.531 L 440.017,841.981 L 435.917,844.347 L 432.785,844.177 L 422.439,841.173 L 419.537,840.943 L 387.793,840.945 L 387.793,880.315 L 415.605,880.38 L 418.02,880.893 L 420.276,881.897 L 423.086,884.251 L 465.337,884.251 L 463.459,877.647 L 463.773,872.923 L 467.051,869.505 L 470.105,868.795 L 501.573,868.795 L 506.023,870.413 L 506.467,870.821 L 567.443,931.797 L 569.445,936.089 L 569.471,936.691 L 569.471,983.633 L 567.851,988.081 L 564.835,990.165 L 557.133,992.861 L 548.467,999.257 L 542.073,1007.92 L 538.517,1018.08 L 538.289,1020.5 L 538.289,1127.53 L 538.517,1129.94 L 542.073,1140.11 L 548.469,1148.77 L 557.133,1155.17 L 567.297,1158.72 L 569.711,1158.95 L 641.309,1158.95 L 643.723,1158.72 L 653.887,1155.17 L 662.553,1148.77 L 668.947,1140.11 L 672.505,1129.94 L 672.731,1127.53 L 672.731,1020.5 L 672.505,1018.08 L 668.947,1007.92 L 662.553,999.255 L 653.887,992.861 L 646.185,990.165 L 642.521,987.167 L 641.549,983.633 L 641.549,921.115 L 641.931,917.535 L 640.337,908.153 L 639.911,906.859 L 634.835,897.253 L 591.207,853.627 L 589.207,849.335 L 589.857,843.587 L 589.857,821.307 L 591.475,816.857 L 595.577,814.491 L 596.779,814.385 L 856.043,814.385 L 860.491,816.005 L 862.831,819.955 L 863.629,823.973 L 867.175,829.279 L 872.481,832.825 L 877.159,833.755 L 1077.17,833.755 L 1081.85,832.825 L 1086.54,833.541 L 1089.66,837.101 L 1090.13,839.609 L 1090.13,893.059 L 1088.51,897.507 L 1084.41,899.875 L 1082.47,899.941 L 1079.36,899.605 L 996.849,899.605 L 996.849,938.976 L 1075.59,938.976 L 1075.59,1017.72 L 996.849,1017.72 L 996.849,1057.08 L 1079.36,1057.08 L 1082.47,1056.75 L 1087.07,1057.88 L 1089.86,1061.71 L 1090.13,1063.63 L 1090.13,1201.32 L 1088.51,1205.77 L 1084.41,1208.14 L 1083.21,1208.24 L 121.511,1208.24 L 117.061,1206.62 L 114.695,1202.52 L 114.589,1201.32M 270.881,923.621 L 274.503,936.235 L 281.087,947.365 L 290.231,956.509 L 301.361,963.093 L 313.779,966.699 L 316.679,966.929 L 348.423,966.929 L 348.423,927.559 L 320.616,927.494 L 318.201,926.981 L 315.945,925.977 L 313.133,923.621 L 270.881,923.621M 270.881,884.251 L 313.135,884.251 L 315.945,881.897 L 318.201,880.893 L 320.616,880.38 L 348.423,880.315 L 348.423,840.943 L 316.679,840.943 L 313.779,841.173 L 301.361,844.781 L 290.231,851.363 L 281.087,860.507 L 274.503,871.637 L 270.881,884.251M 387.793,966.929 L 419.537,966.929 L 422.439,966.699 L 434.857,963.093 L 445.987,956.509 L 455.131,947.365 L 461.713,936.235 L 465.337,923.621 L 423.087,923.621 L 420.276,925.977 L 418.02,926.981 L 415.605,927.494 L 387.793,927.559 L 387.793,966.929M 387.793,665.353 L 419.537,665.353 L 422.439,665.125 L 434.857,661.517 L 445.987,654.935 L 455.131,645.791 L 461.713,634.661 L 465.337,622.047 L 423.087,622.047 L 420.276,624.402 L 418.02,625.406 L 415.605,625.92 L 387.793,625.984 L 387.793,665.353M 839.369,1021.48 L 839.873,1026.17 L 843.829,1036.78 L 850.613,1045.84 L 859.677,1052.62 L 870.283,1056.58 L 874.973,1057.08 L 957.479,1057.08 L 957.479,1017.72 L 878.74,1017.72 L 878.74,998.031 L 839.369,998.031 L 839.369,1021.48M 839.369,958.661 L 878.74,958.661 L 878.74,938.976 L 957.479,938.976 L 957.479,899.605 L 874.973,899.605 L 870.283,900.109 L 859.677,904.065 L 850.613,910.851 L 843.829,919.913 L 839.873,930.521 L 839.369,935.209 L 839.369,958.661 z " style="fill-opacity:1.000000;fill:rgb(103,198,105);stroke:rgb(0,0,0);stroke-width:2"/></g>
<g fill-rule="evenodd"><path d="M 135.511,966.535 L 135.511,271.653 L 135.896,267.751 L 137.034,263.999 L 138.882,260.542 L 141.369,257.511 L 247.667,151.211 L 250.054,149.173 L 252.73,147.533 L 255.629,146.332 L 258.681,145.599 L 261.809,145.353 L 481.889,145.353 L 485.791,145.737 L 489.543,146.875 L 493.001,148.724 L 496.032,151.211 L 566.501,221.68 L 567.933,221.042 L 571.958,220.187 L 574.016,220.079 L 637.008,220.079 L 639.066,220.187 L 643.091,221.042 L 646.85,222.716 L 650.18,225.135 L 652.933,228.193 L 654.991,231.757 L 656.263,235.671 L 656.693,239.764 L 656.693,311.872 L 703.166,358.345 L 878.74,358.345 L 878.74,338.976 L 1075.59,338.976 L 1075.59,417.717 L 878.74,417.717 L 878.74,398.345 L 694.881,398.345 L 690.98,397.961 L 687.228,396.823 L 683.77,394.974 L 680.739,392.487 L 644.524,356.272 L 643.091,356.911 L 639.066,357.766 L 637.008,357.874 L 574.016,357.874 L 571.958,357.766 L 567.933,356.911 L 564.173,355.237 L 560.844,352.818 L 558.09,349.76 L 556.033,346.196 L 554.761,342.282 L 554.331,338.189 L 554.331,266.079 L 473.605,185.353 L 270.094,185.353 L 175.511,279.937 L 175.511,958.251 L 271.276,1054.01 L 310.236,1054.01 L 310.236,1024.8 L 310.666,1020.71 L 311.938,1016.8 L 313.996,1013.23 L 316.749,1010.17 L 320.079,1007.76 L 323.838,1006.08 L 327.864,1005.23 L 329.921,1005.12 L 392.913,1005.12 L 394.971,1005.23 L 398.996,1006.08 L 402.756,1007.76 L 406.085,1010.17 L 408.839,1013.23 L 410.897,1016.8 L 412.168,1020.71 L 412.598,1024.8 L 412.598,1123.23 L 412.168,1127.32 L 410.897,1131.23 L 408.839,1134.8 L 406.085,1137.86 L 402.756,1140.28 L 398.996,1141.95 L 394.971,1142.81 L 329.921,1142.91 L 327.864,1142.81 L 323.838,1141.95 L 320.079,1140.28 L 316.749,1137.86 L 313.996,1134.8 L 311.938,1131.23 L 310.666,1127.32 L 310.236,1123.23 L 310.236,1094.01 L 262.991,1094.01 L 259.09,1093.63 L 255.338,1092.49 L 251.88,1090.64 L 248.849,1088.16 L 141.369,980.677 L 138.882,977.646 L 137.034,974.189 L 135.896,970.437 L 135.511,966.535 z " style="fill-opacity:1.000000;fill:rgb(115,81,255);stroke:rgb(0,0,0);stroke-width:2"/></g>
<g fill-rule="evenodd"><path d="M 216.219,692.913 L 216.219,334.645 L 216.466,331.516 L 217.198,328.465 L 218.399,325.565 L 220.039,322.889 L 222.077,320.503 L 267.747,274.833 L 270.778,272.346 L 274.236,270.497 L 277.988,269.359 L 281.889,268.975 L 310.236,268.975 L 310.236,239.764 L 310.666,235.671 L 311.938,231.757 L 313.996,228.193 L 316.749,225.135 L 320.079,222.716 L 323.838,221.042 L 327.864,220.187 L 329.921,220.079 L 394.971,220.187 L 398.996,221.042 L 402.756,222.716 L 406.085,225.135 L 408.839,228.193 L 410.897,231.757 L 412.168,235.671 L 412.598,239.764 L 412.598,338.189 L 412.168,342.282 L 410.897,346.196 L 408.839,349.76 L 406.085,352.818 L 402.756,355.237 L 398.996,356.911 L 394.971,357.766 L 392.913,357.874 L 329.921,357.874 L 327.864,357.766 L 323.838,356.911 L 320.079,355.237 L 316.749,352.818 L 313.996,349.76 L 311.938,346.196 L 310.666,342.282 L 310.236,338.189 L 310.236,308.975 L 290.174,308.975 L 256.219,342.929 L 256.219,507.559 L 461.055,507.559 L 463.583,505.519 L 465.838,504.515 L 469.488,503.937 L 563.242,504.002 L 565.658,504.515 L 567.913,505.519 L 569.911,506.971 L 571.563,508.806 L 572.798,510.944 L 573.561,513.292 L 573.819,515.748 L 573.819,539.37 L 573.561,541.826 L 572.798,544.174 L 571.563,546.312 L 569.911,548.147 L 567.913,549.599 L 565.658,550.603 L 562.008,551.181 L 469.488,551.181 L 465.838,550.603 L 463.583,549.599 L 461.055,547.559 L 256.219,547.559 L 256.219,684.628 L 305.922,734.329 L 313.419,734.329 L 315.945,732.291 L 318.201,731.287 L 321.85,730.709 L 414.37,730.709 L 418.02,731.287 L 420.276,732.291 L 422.273,733.742 L 423.925,735.577 L 425.16,737.716 L 425.923,740.064 L 426.181,742.52 L 426.181,766.142 L 425.923,768.597 L 425.16,770.946 L 423.925,773.084 L 422.273,774.919 L 420.276,776.37 L 418.02,777.375 L 414.37,777.953 L 321.85,777.953 L 318.201,777.375 L 315.945,776.37 L 313.416,774.329 L 297.637,774.329 L 293.736,773.945 L 289.984,772.807 L 286.526,770.958 L 283.496,768.471 L 222.078,707.055 L 220.039,704.669 L 218.399,701.993 L 217.198,699.093 L 216.466,696.042 L 216.219,692.913 z " style="fill-opacity:1.000000;fill:rgb(74,236,41);stroke:rgb(0,0,0);stroke-width:2"/></g>
<g fill-rule="evenodd"><path d="M 310.039,464.567 L 310.039,440.945 L 310.297,438.489 L 311.06,436.141 L 312.295,434.003 L 313.947,432.168 L 315.945,430.716 L 318.201,429.712 L 321.85,429.134 L 414.37,429.134 L 418.02,429.712 L 420.276,430.716 L 422.802,432.755 L 851.573,432.755 L 855.475,433.139 L 859.227,434.277 L 862.685,436.126 L 865.716,438.613 L 966.079,538.976 L 1075.59,538.976 L 1075.59,617.717 L 878.74,617.717 L 878.74,538.976 L 909.511,538.976 L 843.289,472.755 L 422.804,472.755 L 420.276,474.796 L 418.02,475.8 L 414.37,476.378 L 320.616,476.313 L 318.201,475.8 L 315.945,474.796 L 313.947,473.344 L 312.295,471.509 L 311.06,469.371 L 310.297,467.023 L 310.039,464.567 z " style="fill-opacity:1.000000;fill:rgb(205,186,171);stroke:rgb(0,0,0);stroke-width:2"/></g>
<g fill-rule="evenodd"><path d="M 457.677,840.945 L 457.677,817.323 L 457.935,814.867 L 458.698,812.519 L 459.933,810.38 L 461.585,808.546 L 463.583,807.094 L 465.838,806.09 L 468.254,805.577 L 511.084,805.512 L 552.391,764.203 L 554.777,762.165 L 557.453,760.525 L 560.353,759.324 L 563.405,758.591 L 566.533,758.345 L 878.74,758.345 L 878.74,738.976 L 1075.59,738.976 L 1075.59,817.717 L 878.74,817.717 L 878.74,798.345 L 574.818,798.345 L 566.637,806.526 L 569.911,808.546 L 571.563,810.38 L 572.798,812.519 L 573.561,814.867 L 573.819,817.323 L 573.819,840.945 L 573.561,843.401 L 572.798,845.749 L 571.563,847.887 L 569.911,849.722 L 566.639,851.741 L 619.654,904.755 L 622.141,907.786 L 623.989,911.243 L 625.127,914.995 L 625.511,918.897 L 625.511,1005.12 L 639.066,1005.23 L 643.091,1006.08 L 646.85,1007.76 L 650.18,1010.17 L 652.933,1013.23 L 654.991,1016.8 L 656.263,1020.71 L 656.693,1024.8 L 656.693,1123.23 L 656.263,1127.32 L 654.991,1131.23 L 652.933,1134.8 L 650.18,1137.86 L 646.85,1140.28 L 643.091,1141.95 L 639.066,1142.81 L 571.958,1142.81 L 567.933,1141.95 L 564.173,1140.28 L 560.844,1137.86 L 558.09,1134.8 L 556.033,1131.23 L 554.761,1127.32 L 554.331,1123.23 L 554.331,1024.8 L 554.761,1020.71 L 556.033,1016.8 L 558.09,1013.23 L 560.844,1010.17 L 564.173,1007.76 L 567.933,1006.08 L 571.958,1005.23 L 585.511,1005.12 L 585.511,927.181 L 511.086,852.756 L 468.254,852.691 L 465.838,852.178 L 463.583,851.174 L 461.585,849.722 L 459.933,847.887 L 458.698,845.749 L 457.935,843.401 L 457.677,840.945 z " style="fill-opacity:1.000000;fill:rgb(242,251,227);stroke:rgb(0,0,0);stroke-width:2"/></g>
</svg>
