<?xml version="1.0" standalone="no"?>
<!DOCTYPE svg PUBLIC "-//W3C//DTD SVG 1.1//EN"
"http://www.w3.org/Graphics/SVG/1.1/DTD/svg11.dtd">
<svg width="57.8268" height="63.4961" viewBox="0 0 1204.72 1322.83" version="1.1"
xmlns="http://www.w3.org/2000/svg"
xmlns:xlink="http://www.w3.org/1999/xlink">
<g fill-rule="evenodd"><path d="M 0,1322.83 L 0,0 L 1204.72,0 L 1204.72,1322.83 L 0,1322.83 z " style="fill-opacity:0.200000;fill:rgb(103,198,105);"/></g>
<polyline points="47.2414,1232.28 48.0734,1240.73 50.5374,1248.85 54.5394,1256.34 59.9254,1262.9 66.4874,1268.29 73.9754,1272.29 82.0994,1274.76 90.5494,1275.59 1114.17,1275.59 1122.62,1274.76 1130.74,1272.29 1138.23,1268.29 1144.79,1262.9 1150.18,1256.34 1154.18,1248.85 1156.65,1240.73 1157.48,1232.28 1157.48,90.5509 1156.65,82.1009 1154.18,73.9769 1150.18,66.4889 1144.79,59.9269 1138.23,54.5409 1130.74,50.5389 1122.62,48.0749 1114.17,47.2429 90.5494,47.2429 82.0994,48.0749 73.9754,50.5389 66.4874,54.5409 59.9254,59.9269 54.5394,66.4889 50.5374,73.9769 48.0734,82.1009 47.2414,90.5509 47.2414,1232.28" style="stroke:rgb(103,198,105);stroke-width:86.614173;fill:none;stroke-opacity:0.5;stroke-linecap:round;stroke-linejoin:round;;fill:none"/>
<polyline points="47.2414,1232.28 48.0734,1240.73 50.5374,1248.85 54.5394,1256.34 59.9254,1262.9 66.4874,1268.29 73.9754,1272.29 82.0994,1274.76 90.5494,1275.59 1114.17,1275.59 1122.62,1274.76 1130.74,1272.29 1138.23,1268.29 1144.79,1262.9 1150.18,1256.34 1154.18,1248.85 1156.65,1240.73 1157.48,1232.28 1157.48,90.5509 1156.65,82.1009 1154.18,73.9769 1150.18,66.4889 1144.79,59.9269 1138.23,54.5409 1130.74,50.5389 1122.62,48.0749 1114.17,47.2429 90.5494,47.2429 82.0994,48.0749 73.9754,50.5389 66.4874,54.5409 59.9254,59.9269 54.5394,66.4889 50.5374,73.9769 48.0734,82.1009 47.2414,90.5509 47.2414,1232.28" style="stroke:rgb(0,0,0);stroke-width:1px;fill:none;stroke-opacity:1;stroke-linecap:round;stroke-linejoin:round;;fill:none"/>
<g fill-rule="evenodd"><path d="M 90.5494,1232.28 L 90.5494,90.5509 L 1114.17,90.5509 L 1114.17,1232.28 L 90.5494,1232.28 z " style="fill-opacity:1.000000;fill:rgb(103,198,105);stroke:rgb(0,0,0);stroke-width:2"/></g>
</svg>
