<?xml version="1.0" standalone="no"?>
<!DOCTYPE svg PUBLIC "-//W3C//DTD SVG 1.1//EN"
"http://www.w3.org/Graphics/SVG/1.1/DTD/svg11.dtd">
<svg width="57.8268" height="63.4961" viewBox="0 0 1204.72 1322.83" version="1.1"
xmlns="http://www.w3.org/2000/svg"
xmlns:xlink="http://www.w3.org/1999/xlink">
<g fill-rule="evenodd"><path d="M 0.000158719,919.379 L 54.6252,936.401 L 78.0994,945.902 L 96.8969,955.403 L 105.099,960.138 L 114.836,966.535 L 117.2,968.338 L 121.327,971.869 L 122.657,973.161 L 123.702,974.133 L 126.807,976.886 L 127.141,977.187 L 128.713,978.634 L 130.328,980.312 L 131.44,981.622 L 131.525,981.721 L 132.244,982.556 L 132.516,982.864 L 135.152,985.773 L 135.697,986.347 L 241.609,1092.26 L 242.196,1092.88 L 243.11,1093.89 L 243.663,1094.48 L 243.848,1094.67 L 246.77,1096.87 L 248.074,1097.76 L 250.417,1099.2 L 251.504,1099.66 L 252.994,1100.22 L 256.733,1101.4 L 258.148,1101.78 L 258.287,1101.79 L 262.202,1102.03 L 262.991,1102.06 L 267.15,1102.12 L 287.205,1102.03 L 290.103,1102.28 L 294.836,1103.12 L 299.634,1104.61 L 300.314,1106.71 L 301.584,1111.45 L 302.162,1115.59 L 302.251,1123.23 L 302.283,1124.06 L 302.546,1128.17 L 302.567,1128.46 L 302.962,1129.82 L 304.278,1133.72 L 304.903,1135.3 L 305.328,1136.22 L 307.029,1138.82 L 308.018,1140.17 L 310.244,1142.9 L 310.689,1143.31 L 312.008,1144.38 L 315.329,1146.81 L 316.752,1147.75 L 316.913,1147.84 L 320.569,1149.29 L 322.162,1149.83 L 324.974,1150.61 L 326,1150.77 L 326.166,1150.79 L 327.44,1150.87 L 329.499,1150.93 L 329.933,1150.93 L 394.983,1150.88 L 396.667,1150.79 L 396.833,1150.77 L 397.859,1150.61 L 400.671,1149.83 L 402.264,1149.29 L 405.92,1147.84 L 406.081,1147.75 L 407.506,1146.81 L 410.825,1144.38 L 412.141,1143.31 L 412.588,1142.9 L 414.813,1140.18 L 415.804,1138.82 L 417.505,1136.22 L 417.93,1135.3 L 418.555,1133.72 L 419.871,1129.82 L 420.332,1128.18 L 420.332,1128.18 L 420.434,1127.15 L 420.595,1124.07 L 420.617,1123.23 L 420.617,1024.8 L 420.595,1023.96 L 420.434,1020.89 L 420.331,1019.85 L 420.331,1019.85 L 419.871,1018.21 L 418.555,1014.31 L 417.93,1012.73 L 417.504,1011.8 L 415.805,1009.21 L 414.811,1007.85 L 412.588,1005.13 L 412.139,1004.72 L 410.825,1003.65 L 407.506,1001.22 L 406.081,1000.28 L 405.92,1000.19 L 402.264,998.74 L 400.671,998.202 L 397.856,997.414 L 396.83,997.257 L 396.667,997.24 L 395.393,997.156 L 393.332,997.102 L 392.911,997.097 L 329.919,997.097 L 329.498,997.102 L 327.44,997.157 L 326.166,997.24 L 326.001,997.257 L 324.978,997.414 L 322.162,998.202 L 320.569,998.74 L 316.913,1000.19 L 316.752,1000.28 L 315.329,1001.22 L 312.008,1003.65 L 310.691,1004.72 L 310.244,1005.13 L 308.02,1007.85 L 307.028,1009.21 L 305.328,1011.81 L 304.902,1012.73 L 304.278,1014.31 L 302.962,1018.21 L 302.573,1019.54 L 302.551,1019.86 L 302.3,1023.97 L 302.271,1024.8 L 302.215,1031.19 L 301.966,1033.88 L 301.132,1038.61 L 299.634,1043.41 L 297.539,1044.09 L 292.805,1045.36 L 288.587,1045.94 L 280.894,1045.99 L 277.959,1045.75 L 274.922,1045.21 L 273.456,1044.28 L 270.913,1042.29 L 270.476,1041.87 L 270.221,1041.62 L 187.906,959.304 L 186.082,957.127 L 184.314,954.602 L 183.938,952.904 L 183.548,949.715 L 183.534,949.111 L 183.529,948.739 L 183.529,713.543 L 183.779,710.714 L 184.614,705.978 L 187.282,698.899 L 190.015,694.164 L 195.864,686.418 L 200.079,690.831 L 201.825,692.913 L 202.749,693.972 L 204.073,695.431 L 205.336,696.916 L 206.529,698.424 L 208.392,701.205 L 208.519,701.433 L 209.118,702.438 L 210.729,704.948 L 210.838,705.121 L 211.517,706.208 L 211.798,706.676 L 213.096,708.921 L 213.557,709.67 L 213.826,709.973 L 215.937,712.301 L 216.372,712.761 L 219.276,715.721 L 276.242,772.561 L 276.84,773.19 L 277.757,774.21 L 278.308,774.793 L 278.466,774.952 L 281.428,777.17 L 282.734,778.052 L 285.477,779.713 L 286.141,779.995 L 287.636,780.546 L 291.377,781.719 L 292.774,782.09 L 292.928,782.1 L 296.844,782.349 L 297.638,782.379 L 301.677,782.436 L 306.09,782.351 L 308.229,782.453 L 310.454,782.707 L 310.719,782.836 L 311.282,783.098 L 312.674,783.714 L 312.967,783.847 L 314.914,784.756 L 316.234,785.303 L 316.925,785.423 L 319.794,785.859 L 320.587,785.921 L 321.849,785.971 L 414.369,785.971 L 415.632,785.921 L 416.423,785.859 L 419.294,785.423 L 419.985,785.303 L 421.305,784.756 L 423.543,783.711 L 425.033,782.918 L 425.952,782.365 L 427.019,781.454 L 428.243,780.292 L 429.944,778.5 L 430.619,777.742 L 430.952,777.146 L 432.114,774.965 L 432.829,773.434 L 433.51,771.75 L 433.66,771.108 L 433.958,769.441 L 434.114,768.198 L 434.177,766.981 L 434.199,766.141 L 434.199,742.519 L 434.177,741.679 L 434.114,740.462 L 433.958,739.219 L 433.66,737.552 L 433.51,736.91 L 432.829,735.226 L 432.114,733.694 L 430.953,731.513 L 430.619,730.917 L 429.944,730.16 L 428.243,728.367 L 427.019,727.206 L 425.953,726.295 L 425.033,725.742 L 423.548,724.951 L 421.31,723.905 L 419.985,723.356 L 419.294,723.236 L 416.423,722.8 L 415.631,722.738 L 414.369,722.688 L 321.849,722.688 L 320.587,722.738 L 319.794,722.8 L 316.925,723.236 L 314.879,723.682 L 314.817,723.7 L 312.342,724.214 L 311.856,724.279 L 309.994,724.621 L 309.943,724.616 L 307.252,723.163 L 303.333,720.269 L 268.636,685.703 L 266.791,683.505 L 265.022,680.98 L 264.646,679.282 L 264.251,675.73 L 264.238,653.682 L 264.487,650.847 L 265.321,646.112 L 267.99,639.029 L 270.723,634.294 L 282.561,620.914 L 283.377,620.228 L 283.333,619.484 L 283.203,617.016 L 283.127,614.173 L 283.127,590.551 L 283.202,587.71 L 283.333,585.24 L 283.934,579.539 L 284.325,577.071 L 284.528,575.868 L 288.997,573.025 L 291.467,571.598 L 296.247,569.153 L 298.716,568.055 L 302.826,566.472 L 305.296,565.669 L 308.982,564.679 L 311.451,564.154 L 315.7,563.536 L 319.396,563.245 L 321.849,563.148 L 414.369,563.149 L 416.823,563.245 L 420.518,563.536 L 424.767,564.155 L 427.237,564.679 L 429.058,565.117 L 447.357,565.117 L 453.632,561.615 L 456.662,560.323 L 458.786,560 L 458.957,559.968 L 461.83,559.59 L 464.443,559.407 L 465.057,559.375 L 468.208,559.261 L 468.25,559.26 L 469.487,559.212 L 470.105,559.2 L 562.007,559.2 L 563.269,559.15 L 564.061,559.088 L 566.932,558.652 L 567.623,558.531 L 568.951,557.981 L 571.187,556.936 L 572.666,556.148 L 573.59,555.593 L 574.654,554.685 L 575.881,553.52 L 577.582,551.728 L 578.256,550.971 L 578.59,550.374 L 579.752,548.193 L 580.467,546.662 L 581.148,544.977 L 581.298,544.336 L 581.596,542.669 L 581.752,541.426 L 581.815,540.209 L 581.837,539.369 L 581.837,515.747 L 581.815,514.907 L 581.752,513.69 L 581.596,512.447 L 581.298,510.78 L 581.148,510.139 L 580.467,508.454 L 579.752,506.923 L 578.59,504.742 L 577.707,503.275 L 577.192,502.513 L 576.367,501.159 L 575.401,499.402 L 575.246,499.114 L 574.371,497.854 L 573.941,497.211 L 572.566,495.07 L 571.048,492.414 L 569.226,488.835 L 569.568,488.612 L 574.303,485.564 L 581.861,482.275 L 586.595,481.203 L 590.234,480.791 L 833.778,480.774 L 836.607,481.023 L 839.64,481.558 L 841.108,482.493 L 843.904,484.729 L 872.065,512.872 L 873.891,515.05 L 876.648,518.987 L 879.731,525.74 L 880.009,526.756 L 878.739,527.741 L 876.531,529.662 L 874.215,531.937 L 871.258,535.877 L 870.739,538.186 L 870.719,538.975 L 870.719,617.715 L 870.739,618.504 L 871.258,620.813 L 873.013,623.441 L 875.641,625.197 L 877.951,625.716 L 878.739,625.735 L 1075.59,625.735 L 1076.38,625.716 L 1080.22,624.647 L 1083.29,623.377 L 1088.54,620.457 L 1092.5,617.715 L 1104.12,611.071 L 1119.76,604.428 L 1132.34,599.694 L 1180.88,584.514 L 1204.72,578.939 L 1204.72,777.787 L 1142.42,761.032 L 1119.09,752.471 L 1101.43,743.911 L 1093.23,739.177 L 1092.88,738.975 L 1084.3,733.953 L 1081.76,732.684 L 1080.24,732.049 L 1076.38,730.975 L 1075.59,730.956 L 878.739,730.956 L 877.951,730.975 L 875.64,731.495 L 873.013,733.25 L 871.258,735.876 L 870.722,738.302 L 870.628,738.975 L 870.163,741.183 L 868.839,745.918 L 868.211,747.815 L 863.374,749.307 L 858.782,750.091 L 856.043,750.325 L 568.753,750.326 L 567.901,750.303 L 566.533,750.231 L 565.894,750.209 L 565.428,750.203 L 562.77,750.532 L 561.52,750.737 L 558.443,751.367 L 557.776,751.518 L 557.725,751.535 L 557.222,751.761 L 554.379,753.097 L 553.255,753.68 L 550.528,755.235 L 549.802,755.674 L 549.481,755.963 L 547.173,758.097 L 546.719,758.533 L 512.138,793.115 L 509.961,794.939 L 507.431,796.711 L 505.74,797.087 L 502.183,797.485 L 468.241,797.522 L 467.433,797.544 L 466.573,797.674 L 464.14,798.11 L 463.873,798.16 L 462.552,798.707 L 460.314,799.751 L 458.823,800.545 L 457.903,801.099 L 456.835,802.011 L 455.615,803.168 L 453.915,804.959 L 453.237,805.72 L 452.901,806.321 L 451.74,808.501 L 451.029,810.024 L 450.346,811.712 L 450.197,812.352 L 449.898,814.022 L 449.742,815.266 L 449.678,816.48 L 449.656,817.321 L 449.656,837.531 L 449.407,840.359 L 449.304,840.943 L 449.171,841.836 L 448.862,844.352 L 448.779,845.171 L 448.681,846.41 L 448.295,849.132 L 447.699,852.089 L 447.163,854.363 L 446.882,855.412 L 445.789,860.626 L 445.686,861.275 L 445.394,862.974 L 447.069,862.795 L 452.451,862.287 L 452.663,862.268 L 455.716,861.996 L 458.783,861.576 L 458.967,861.541 L 461.838,861.164 L 463.957,861.015 L 465.067,860.971 L 466.495,860.957 L 468.241,860.851 L 468.258,860.849 L 470.105,860.744 L 501.573,860.768 L 504.401,861.019 L 507.432,861.555 L 508.903,862.492 L 511.461,864.496 L 511.896,864.913 L 512.138,865.15 L 573.114,926.126 L 574.937,928.302 L 576.706,930.828 L 577.082,932.527 L 577.474,935.742 L 577.487,936.345 L 577.49,936.691 L 577.49,983.633 L 577.241,986.463 L 576.406,991.196 L 575.321,995.01 L 573.195,995.815 L 571.886,996.229 L 570.18,996.863 L 569.628,997.101 L 567.524,997.847 L 566.256,998.202 L 564.663,998.74 L 561.008,1000.19 L 560.846,1000.28 L 559.421,1001.22 L 556.102,1003.65 L 554.788,1004.72 L 554.338,1005.13 L 552.116,1007.85 L 551.122,1009.21 L 549.422,1011.8 L 548.996,1012.73 L 548.372,1014.31 L 547.056,1018.21 L 546.596,1019.85 L 546.596,1019.85 L 546.493,1020.89 L 546.331,1023.96 L 546.309,1024.8 L 546.309,1123.23 L 546.331,1124.07 L 546.493,1127.14 L 546.596,1128.18 L 546.596,1128.18 L 547.056,1129.82 L 548.372,1133.72 L 548.997,1135.3 L 549.422,1136.22 L 551.123,1138.82 L 552.114,1140.17 L 554.34,1142.9 L 554.787,1143.31 L 556.102,1144.38 L 559.421,1146.81 L 560.846,1147.75 L 561.008,1147.84 L 564.663,1149.29 L 566.256,1149.83 L 569.068,1150.61 L 570.094,1150.77 L 570.26,1150.79 L 571.957,1150.88 L 639.065,1150.88 L 640.764,1150.79 L 640.927,1150.77 L 641.953,1150.61 L 644.765,1149.83 L 646.358,1149.29 L 650.014,1147.84 L 650.175,1147.75 L 651.598,1146.81 L 654.919,1144.38 L 656.238,1143.31 L 656.683,1142.9 L 658.909,1140.17 L 659.898,1138.82 L 661.599,1136.22 L 662.024,1135.3 L 662.649,1133.72 L 663.965,1129.82 L 664.426,1128.18 L 664.426,1128.18 L 664.528,1127.15 L 664.689,1124.07 L 664.711,1123.23 L 664.711,1024.8 L 664.689,1023.96 L 664.528,1020.88 L 664.426,1019.85 L 664.426,1019.85 L 663.965,1018.21 L 662.649,1014.31 L 662.025,1012.73 L 661.599,1011.8 L 659.899,1009.21 L 658.907,1007.85 L 656.682,1005.13 L 656.237,1004.72 L 654.919,1003.65 L 651.598,1001.22 L 650.175,1000.28 L 650.014,1000.19 L 646.358,998.74 L 644.765,998.202 L 643.497,997.847 L 640.846,996.854 L 640.75,996.808 L 639.138,996.139 L 636.084,995.035 L 635.784,994.924 L 634.171,989.464 L 633.676,985.799 L 633.529,983.633 L 633.529,921.115 L 633.552,920.262 L 633.625,918.897 L 633.648,918.096 L 633.649,917.792 L 633.168,914.203 L 632.88,912.643 L 632.293,910.149 L 632.279,910.105 L 631.775,908.881 L 631.099,907.442 L 629.259,903.98 L 628.445,902.615 L 628.158,902.181 L 625.87,899.656 L 625.324,899.082 L 585.538,859.297 L 583.713,857.119 L 580.956,853.18 L 580.133,851.898 L 580.431,850.156 L 580.818,848.386 L 580.825,848.352 L 581.35,845.927 L 581.623,844.246 L 581.745,843.13 L 581.815,841.783 L 581.837,840.943 L 581.837,821.307 L 582.086,818.481 L 582.291,817.321 L 582.426,816.416 L 582.734,813.902 L 582.759,813.688 L 582.967,811.817 L 583.373,809.373 L 586.519,808.263 L 591.254,806.996 L 594.867,806.433 L 596.073,806.379 L 596.779,806.364 L 856.043,806.364 L 858.874,806.614 L 863.608,807.449 L 868.218,808.864 L 868.931,811.006 L 870.188,815.597 L 870.628,817.715 L 870.722,818.388 L 871.258,820.814 L 873.013,823.441 L 875.641,825.197 L 877.951,825.716 L 878.739,825.735 L 1075.59,825.735 L 1076.38,825.716 L 1080.22,824.647 L 1083.29,823.377 L 1088.54,820.457 L 1092.5,817.715 L 1104.12,811.071 L 1119.76,804.428 L 1132.34,799.694 L 1165.09,788.924 L 1204.72,778.512 L 1204.72,1322.83 L 0,1322.83 L 0.000158719,919.379 z " style="fill-opacity:0.200000;fill:rgb(103,198,105);"/></g>
<g fill-rule="evenodd"><path d="M 1204.72,478.345 L 1075.59,478.345 L 991.192,478.345 L 878.739,431.765 L 874.652,429.674 L 873.587,429.01 L 870.431,426.676 L 868.591,425.071 L 865.711,422.141 L 863.645,419.707 L 862.066,417.715 L 860.917,416.166 L 860.634,416.124 L 857.182,415.783 L 853.263,415.591 L 851.574,415.549 L 694.882,415.55 L 693.184,415.508 L 689.263,415.314 L 685.819,414.974 L 681.898,414.392 L 678.228,413.661 L 674.307,412.679 L 670.261,411.449 L 666.34,410.047 L 664.058,409.166 L 630.616,395.313 L 574.015,395.313 L 572.052,395.288 L 569.991,395.234 L 564.074,394.845 L 559.958,394.412 L 551.811,393.118 L 547.695,392.243 L 538.984,389.902 L 534.87,388.565 L 525.258,384.865 L 521.143,383.032 L 510.176,377.426 L 506.061,375.05 L 493.147,366.632 L 489.032,363.642 L 483.463,359.425 L 483.463,349.773 L 483.463,345.636 L 483.463,338.189 L 483.463,295.431 L 460.405,239.763 L 458.269,234.964 L 456.39,231.024 L 455.466,229.141 L 448.723,223.791 L 444.608,220.801 L 437.685,216.288 L 433.569,213.912 L 427.917,211.021 L 423.8,209.188 L 419.009,207.343 L 414.896,206.006 L 410.697,204.878 L 406.581,204.003 L 402.748,203.394 L 398.632,202.961 L 394.998,202.769 L 329.948,202.714 L 329.008,202.726 L 326.949,202.78 L 324.201,202.961 L 320.085,203.393 L 316.252,204.002 L 312.136,204.877 L 307.943,206.004 L 303.828,207.34 L 299.022,209.191 L 294.906,211.025 L 289.263,213.911 L 285.147,216.287 L 283.351,217.359 L 280.554,221.558 L 278.343,225.166 L 274.698,231.891 L 274.176,232.988 L 267.965,236.314 L 264.498,238.392 L 259.029,242.043 L 255.845,244.404 L 251.075,248.315 L 248.166,250.951 L 245.963,253.048 L 206.315,292.697 L 202.787,301.213 L 201.958,303.332 L 200.8,306.471 L 199.545,310.33 L 198.659,313.468 L 197.801,317.037 L 197.178,320.173 L 196.645,323.534 L 196.274,326.672 L 196.019,329.908 L 195.896,333.048 L 195.864,334.645 L 195.864,686.418 L 190.015,694.164 L 187.282,698.899 L 184.614,705.978 L 183.779,710.714 L 183.529,713.543 L 183.529,948.739 L 183.534,949.111 L 183.548,949.715 L 183.938,952.904 L 184.314,954.602 L 186.082,957.127 L 187.906,959.304 L 270.221,1041.62 L 270.476,1041.87 L 270.913,1042.29 L 273.456,1044.28 L 274.922,1045.21 L 277.959,1045.75 L 280.894,1045.99 L 288.587,1045.94 L 292.805,1045.36 L 297.539,1044.09 L 299.634,1043.41 L 301.132,1038.61 L 301.966,1033.88 L 302.215,1031.19 L 302.271,1024.8 L 302.3,1023.97 L 302.551,1019.86 L 302.573,1019.54 L 302.962,1018.21 L 304.278,1014.31 L 304.902,1012.73 L 305.328,1011.81 L 307.028,1009.21 L 308.02,1007.85 L 310.244,1005.13 L 310.691,1004.72 L 312.008,1003.65 L 315.329,1001.22 L 316.752,1000.28 L 316.913,1000.19 L 320.569,998.74 L 322.162,998.202 L 324.978,997.414 L 326.001,997.257 L 326.166,997.24 L 327.44,997.157 L 329.498,997.102 L 329.919,997.097 L 392.911,997.097 L 393.332,997.102 L 395.393,997.156 L 396.667,997.24 L 396.83,997.257 L 397.856,997.414 L 400.671,998.202 L 402.264,998.74 L 405.92,1000.19 L 406.081,1000.28 L 407.506,1001.22 L 410.825,1003.65 L 412.139,1004.72 L 412.588,1005.13 L 414.811,1007.85 L 415.805,1009.21 L 417.504,1011.8 L 417.93,1012.73 L 418.555,1014.31 L 419.871,1018.21 L 420.331,1019.85 L 420.331,1019.85 L 420.434,1020.89 L 420.595,1023.96 L 420.617,1024.8 L 420.617,1123.23 L 420.595,1124.07 L 420.434,1127.15 L 420.332,1128.18 L 420.332,1128.18 L 419.871,1129.82 L 418.555,1133.72 L 417.93,1135.3 L 417.505,1136.22 L 415.804,1138.82 L 414.813,1140.18 L 412.588,1142.9 L 412.141,1143.31 L 410.825,1144.38 L 407.506,1146.81 L 406.081,1147.75 L 405.92,1147.84 L 402.264,1149.29 L 400.671,1149.83 L 397.859,1150.61 L 396.833,1150.77 L 396.667,1150.79 L 394.983,1150.88 L 329.933,1150.93 L 329.499,1150.93 L 327.44,1150.87 L 326.166,1150.79 L 326,1150.77 L 324.974,1150.61 L 322.162,1149.83 L 320.569,1149.29 L 316.913,1147.84 L 316.752,1147.75 L 315.329,1146.81 L 312.008,1144.38 L 310.689,1143.31 L 310.244,1142.9 L 308.018,1140.17 L 307.029,1138.82 L 305.328,1136.22 L 304.903,1135.3 L 304.278,1133.72 L 302.962,1129.82 L 302.567,1128.46 L 302.546,1128.17 L 302.283,1124.06 L 302.251,1123.23 L 302.162,1115.59 L 301.584,1111.45 L 300.314,1106.71 L 299.634,1104.61 L 294.836,1103.12 L 290.103,1102.28 L 287.205,1102.03 L 267.15,1102.12 L 262.991,1102.06 L 262.202,1102.03 L 258.287,1101.79 L 258.148,1101.78 L 256.733,1101.4 L 252.994,1100.22 L 251.504,1099.66 L 250.417,1099.2 L 248.074,1097.76 L 246.77,1096.87 L 243.848,1094.67 L 243.663,1094.48 L 243.11,1093.89 L 242.196,1092.88 L 241.609,1092.26 L 135.697,986.347 L 135.152,985.773 L 132.516,982.864 L 132.244,982.556 L 131.525,981.721 L 131.44,981.622 L 130.328,980.312 L 128.713,978.634 L 127.141,977.187 L 126.807,976.886 L 123.702,974.133 L 122.657,973.161 L 121.327,971.869 L 117.2,968.338 L 114.836,966.535 L 105.099,960.138 L 96.8969,955.403 L 78.0994,945.902 L 54.6252,936.401 L 1.4544e-05,919.379 L 0,0 L 1204.72,0 L 1204.72,478.345 z " style="fill-opacity:0.200000;fill:rgb(115,81,255);"/></g>
<g fill-rule="evenodd"><path d="M 195.864,686.418 L 195.864,334.645 L 195.896,333.048 L 196.019,329.908 L 196.274,326.672 L 196.645,323.534 L 197.178,320.173 L 197.801,317.037 L 198.659,313.468 L 199.545,310.33 L 200.8,306.471 L 201.958,303.332 L 202.787,301.213 L 206.315,292.697 L 245.963,253.048 L 248.166,250.951 L 251.075,248.315 L 255.845,244.404 L 259.029,242.043 L 264.498,238.392 L 267.965,236.314 L 274.176,232.988 L 274.698,231.891 L 278.343,225.166 L 280.554,221.558 L 283.351,217.359 L 285.147,216.287 L 289.263,213.911 L 294.906,211.025 L 299.022,209.191 L 303.828,207.34 L 307.943,206.004 L 312.136,204.877 L 316.252,204.002 L 320.085,203.393 L 324.201,202.961 L 326.949,202.78 L 329.008,202.726 L 329.948,202.714 L 394.998,202.769 L 398.632,202.961 L 402.748,203.394 L 406.581,204.003 L 410.697,204.878 L 414.896,206.006 L 419.009,207.343 L 423.8,209.188 L 427.917,211.021 L 433.569,213.912 L 437.685,216.288 L 444.608,220.801 L 448.723,223.791 L 455.466,229.141 L 456.39,231.024 L 458.269,234.964 L 460.405,239.763 L 483.463,295.431 L 483.463,338.189 L 483.463,345.636 L 483.463,349.773 L 483.463,359.425 L 477.895,363.642 L 473.78,366.632 L 460.866,375.05 L 456.75,377.426 L 445.784,383.032 L 441.668,384.864 L 434.272,387.815 L 431.791,388.2 L 427.294,389.008 L 424.37,389.607 L 420.518,390.305 L 418.51,390.621 L 414.369,391.385 L 414.347,391.39 L 406.589,392.622 L 402.473,393.055 L 396.841,393.424 L 394.78,393.478 L 392.911,393.503 L 329.919,393.503 L 328.049,393.478 L 325.99,393.424 L 321.849,393.196 L 320.357,393.07 L 316.198,392.838 L 316.102,392.835 L 312.329,392.637 L 308.077,392.308 L 303.672,392.083 L 301.428,392.026 L 298.682,391.916 L 298.679,391.922 L 293.831,400.288 L 292.573,402.757 L 289.337,410.001 L 288.389,412.469 L 286.267,418.979 L 285.606,421.448 L 284.324,427.47 L 283.933,429.94 L 283.333,435.632 L 283.203,438.1 L 283.127,440.943 L 283.127,464.565 L 283.202,467.406 L 283.333,469.876 L 283.934,475.577 L 284.325,478.045 L 284.528,479.248 L 288.997,482.091 L 291.467,483.518 L 296.247,485.963 L 298.716,487.061 L 302.826,488.644 L 305.296,489.447 L 308.982,490.437 L 311.451,490.962 L 314.858,491.503 L 317.328,491.763 L 320.605,491.936 L 414.359,491.968 L 416.823,491.871 L 420.519,491.581 L 424.768,490.962 L 427.237,490.437 L 428.451,490.157 L 455.406,490.157 L 456.62,489.876 L 459.089,489.352 L 463.338,488.733 L 467.034,488.442 L 469.498,488.346 L 563.252,488.378 L 566.529,488.55 L 568.999,488.81 L 569.226,488.835 L 571.048,492.414 L 572.566,495.07 L 573.941,497.211 L 574.371,497.854 L 575.246,499.114 L 575.401,499.402 L 576.367,501.159 L 577.192,502.513 L 577.707,503.275 L 578.59,504.742 L 579.752,506.923 L 580.467,508.454 L 581.148,510.139 L 581.298,510.78 L 581.596,512.447 L 581.752,513.69 L 581.815,514.907 L 581.837,515.747 L 581.837,539.369 L 581.815,540.209 L 581.752,541.426 L 581.596,542.669 L 581.298,544.336 L 581.148,544.977 L 580.467,546.662 L 579.752,548.193 L 578.59,550.374 L 578.256,550.971 L 577.582,551.728 L 575.881,553.52 L 574.654,554.685 L 573.59,555.593 L 572.666,556.148 L 571.187,556.936 L 568.951,557.981 L 567.623,558.531 L 566.932,558.652 L 564.061,559.088 L 563.269,559.15 L 562.007,559.2 L 470.105,559.2 L 469.487,559.212 L 468.25,559.26 L 468.208,559.261 L 465.057,559.375 L 464.443,559.407 L 461.83,559.59 L 458.957,559.968 L 458.786,560 L 456.662,560.323 L 453.632,561.615 L 447.357,565.117 L 429.058,565.117 L 427.237,564.679 L 424.767,564.155 L 420.518,563.536 L 416.823,563.245 L 414.369,563.149 L 321.849,563.148 L 319.396,563.245 L 315.7,563.536 L 311.451,564.154 L 308.982,564.679 L 305.296,565.669 L 302.826,566.472 L 298.716,568.055 L 296.247,569.153 L 291.467,571.598 L 288.997,573.025 L 284.528,575.868 L 284.325,577.071 L 283.934,579.539 L 283.333,585.24 L 283.202,587.71 L 283.127,590.551 L 283.127,614.173 L 283.203,617.016 L 283.333,619.484 L 283.377,620.228 L 282.561,620.914 L 270.723,634.294 L 267.99,639.029 L 265.321,646.112 L 264.487,650.847 L 264.238,653.682 L 264.251,675.73 L 264.646,679.282 L 265.022,680.98 L 266.791,683.505 L 268.636,685.703 L 303.333,720.269 L 307.252,723.163 L 309.943,724.616 L 309.994,724.621 L 311.856,724.279 L 312.342,724.214 L 314.817,723.7 L 314.879,723.682 L 316.925,723.236 L 319.794,722.8 L 320.587,722.738 L 321.849,722.688 L 414.369,722.688 L 415.631,722.738 L 416.423,722.8 L 419.294,723.236 L 419.985,723.356 L 421.31,723.905 L 423.548,724.951 L 425.033,725.742 L 425.953,726.295 L 427.019,727.206 L 428.243,728.367 L 429.944,730.16 L 430.619,730.917 L 430.953,731.513 L 432.114,733.694 L 432.829,735.226 L 433.51,736.91 L 433.66,737.552 L 433.958,739.219 L 434.114,740.462 L 434.177,741.679 L 434.199,742.519 L 434.199,766.141 L 434.177,766.981 L 434.114,768.198 L 433.958,769.441 L 433.66,771.108 L 433.51,771.75 L 432.829,773.434 L 432.114,774.965 L 430.952,777.146 L 430.619,777.742 L 429.944,778.5 L 428.243,780.292 L 427.019,781.454 L 425.952,782.365 L 425.033,782.918 L 423.543,783.711 L 421.305,784.756 L 419.985,785.303 L 419.294,785.423 L 416.423,785.859 L 415.632,785.921 L 414.369,785.971 L 321.849,785.971 L 320.587,785.921 L 319.794,785.859 L 316.925,785.423 L 316.234,785.303 L 314.914,784.756 L 312.967,783.847 L 312.674,783.714 L 311.282,783.098 L 310.719,782.836 L 310.454,782.707 L 308.229,782.453 L 306.09,782.351 L 301.677,782.436 L 297.638,782.379 L 296.844,782.349 L 292.928,782.1 L 292.774,782.09 L 291.377,781.719 L 287.636,780.546 L 286.141,779.995 L 285.477,779.713 L 282.734,778.052 L 281.428,777.17 L 278.466,774.952 L 278.308,774.793 L 277.757,774.21 L 276.84,773.19 L 276.242,772.561 L 219.276,715.721 L 216.372,712.761 L 215.937,712.301 L 213.826,709.973 L 213.557,709.67 L 213.096,708.921 L 211.798,706.676 L 211.517,706.208 L 210.838,705.121 L 210.729,704.948 L 209.118,702.438 L 208.519,701.433 L 208.392,701.205 L 206.529,698.424 L 205.336,696.916 L 204.073,695.431 L 202.749,693.972 L 201.825,692.913 L 200.079,690.831 L 195.864,686.418 z " style="fill-opacity:0.200000;fill:rgb(74,236,41);"/></g>
<g fill-rule="evenodd"><path d="M 1204.72,478.345 L 1204.72,578.939 L 1180.88,584.514 L 1132.34,599.694 L 1119.76,604.428 L 1104.12,611.071 L 1092.5,617.715 L 1088.54,620.457 L 1083.29,623.377 L 1080.22,624.647 L 1076.38,625.716 L 1075.59,625.735 L 878.739,625.735 L 877.951,625.716 L 875.641,625.197 L 873.013,623.441 L 871.258,620.813 L 870.739,618.504 L 870.719,617.715 L 870.719,538.975 L 870.739,538.186 L 871.258,535.877 L 874.215,531.937 L 876.531,529.662 L 878.739,527.741 L 880.009,526.756 L 879.731,525.74 L 876.648,518.987 L 873.891,515.05 L 872.065,512.872 L 843.904,484.729 L 841.108,482.493 L 839.64,481.558 L 836.607,481.023 L 833.778,480.774 L 590.234,480.791 L 586.595,481.203 L 581.861,482.275 L 574.303,485.564 L 569.568,488.612 L 569.226,488.835 L 568.999,488.81 L 566.529,488.55 L 563.252,488.378 L 469.498,488.346 L 467.034,488.442 L 463.338,488.733 L 459.089,489.352 L 456.62,489.876 L 455.406,490.157 L 428.451,490.157 L 427.237,490.437 L 424.768,490.962 L 420.519,491.581 L 416.823,491.871 L 414.359,491.968 L 320.605,491.936 L 317.328,491.763 L 314.858,491.503 L 311.451,490.962 L 308.982,490.437 L 305.296,489.447 L 302.826,488.644 L 298.716,487.061 L 296.247,485.963 L 291.467,483.518 L 288.997,482.091 L 284.528,479.248 L 284.325,478.045 L 283.934,475.577 L 283.333,469.876 L 283.202,467.406 L 283.127,464.565 L 283.127,440.943 L 283.203,438.1 L 283.333,435.632 L 283.933,429.94 L 284.324,427.47 L 285.606,421.448 L 286.267,418.979 L 288.389,412.469 L 289.337,410.001 L 292.573,402.757 L 293.831,400.288 L 298.679,391.922 L 298.682,391.916 L 301.428,392.026 L 303.672,392.083 L 308.077,392.308 L 312.329,392.637 L 316.102,392.835 L 316.198,392.838 L 320.357,393.07 L 321.849,393.196 L 325.99,393.424 L 328.049,393.478 L 329.919,393.503 L 392.911,393.503 L 394.78,393.478 L 396.841,393.424 L 402.473,393.055 L 406.589,392.622 L 414.347,391.39 L 414.369,391.385 L 418.51,390.621 L 420.518,390.305 L 424.37,389.607 L 427.294,389.008 L 431.791,388.2 L 434.272,387.815 L 441.668,384.864 L 445.784,383.032 L 456.75,377.426 L 460.866,375.05 L 473.78,366.632 L 477.895,363.642 L 483.463,359.425 L 489.032,363.642 L 493.147,366.632 L 506.061,375.05 L 510.176,377.426 L 521.143,383.032 L 525.258,384.865 L 534.87,388.565 L 538.984,389.902 L 547.695,392.243 L 551.811,393.118 L 559.958,394.412 L 564.074,394.845 L 569.991,395.234 L 572.052,395.288 L 574.015,395.313 L 630.616,395.313 L 664.058,409.166 L 666.34,410.047 L 670.261,411.449 L 674.307,412.679 L 678.228,413.661 L 681.898,414.392 L 685.819,414.974 L 689.263,415.314 L 693.184,415.508 L 694.882,415.55 L 851.574,415.549 L 853.263,415.591 L 857.182,415.783 L 860.634,416.124 L 860.917,416.166 L 862.066,417.715 L 863.645,419.707 L 865.711,422.141 L 868.591,425.071 L 870.431,426.676 L 873.587,429.01 L 874.652,429.674 L 878.739,431.765 L 991.192,478.345 L 1204.72,478.345 z " style="fill-opacity:0.200000;fill:rgb(205,186,171);"/></g>
<g fill-rule="evenodd"><path d="M 1204.72,777.787 L 1204.72,778.512 L 1165.09,788.924 L 1132.34,799.694 L 1119.76,804.428 L 1104.12,811.071 L 1092.5,817.715 L 1088.54,820.457 L 1083.29,823.377 L 1080.22,824.647 L 1076.38,825.716 L 1075.59,825.735 L 878.739,825.735 L 877.951,825.716 L 875.641,825.197 L 873.013,823.441 L 871.258,820.814 L 870.722,818.388 L 870.628,817.715 L 870.188,815.597 L 868.931,811.006 L 868.218,808.864 L 863.608,807.449 L 858.874,806.614 L 856.043,806.364 L 596.779,806.364 L 596.073,806.379 L 594.867,806.433 L 591.254,806.996 L 586.519,808.263 L 583.373,809.373 L 582.967,811.817 L 582.759,813.688 L 582.734,813.902 L 582.426,816.416 L 582.291,817.321 L 582.086,818.481 L 581.837,821.307 L 581.837,840.943 L 581.815,841.783 L 581.745,843.13 L 581.623,844.246 L 581.35,845.927 L 580.825,848.352 L 580.818,848.386 L 580.431,850.156 L 580.133,851.898 L 580.956,853.18 L 583.713,857.119 L 585.538,859.297 L 625.324,899.082 L 625.87,899.656 L 628.158,902.181 L 628.445,902.615 L 629.259,903.98 L 631.099,907.442 L 631.775,908.881 L 632.279,910.105 L 632.293,910.149 L 632.88,912.643 L 633.168,914.203 L 633.649,917.792 L 633.648,918.096 L 633.625,918.897 L 633.552,920.262 L 633.529,921.115 L 633.529,983.633 L 633.676,985.799 L 634.171,989.464 L 635.784,994.924 L 636.084,995.035 L 639.138,996.139 L 640.75,996.808 L 640.846,996.854 L 643.497,997.847 L 644.765,998.202 L 646.358,998.74 L 650.014,1000.19 L 650.175,1000.28 L 651.598,1001.22 L 654.919,1003.65 L 656.237,1004.72 L 656.682,1005.13 L 658.907,1007.85 L 659.899,1009.21 L 661.599,1011.8 L 662.025,1012.73 L 662.649,1014.31 L 663.965,1018.21 L 664.426,1019.85 L 664.426,1019.85 L 664.528,1020.88 L 664.689,1023.96 L 664.711,1024.8 L 664.711,1123.23 L 664.689,1124.07 L 664.528,1127.15 L 664.426,1128.18 L 664.426,1128.18 L 663.965,1129.82 L 662.649,1133.72 L 662.024,1135.3 L 661.599,1136.22 L 659.898,1138.82 L 658.909,1140.17 L 656.683,1142.9 L 656.238,1143.31 L 654.919,1144.38 L 651.598,1146.81 L 650.175,1147.75 L 650.014,1147.84 L 646.358,1149.29 L 644.765,1149.83 L 641.953,1150.61 L 640.927,1150.77 L 640.764,1150.79 L 639.065,1150.88 L 571.957,1150.88 L 570.26,1150.79 L 570.094,1150.77 L 569.068,1150.61 L 566.256,1149.83 L 564.663,1149.29 L 561.008,1147.84 L 560.846,1147.75 L 559.421,1146.81 L 556.102,1144.38 L 554.787,1143.31 L 554.34,1142.9 L 552.114,1140.17 L 551.123,1138.82 L 549.422,1136.22 L 548.997,1135.3 L 548.372,1133.72 L 547.056,1129.82 L 546.596,1128.18 L 546.596,1128.18 L 546.493,1127.14 L 546.331,1124.07 L 546.309,1123.23 L 546.309,1024.8 L 546.331,1023.96 L 546.493,1020.89 L 546.596,1019.85 L 546.596,1019.85 L 547.056,1018.21 L 548.372,1014.31 L 548.996,1012.73 L 549.422,1011.8 L 551.122,1009.21 L 552.116,1007.85 L 554.338,1005.13 L 554.788,1004.72 L 556.102,1003.65 L 559.421,1001.22 L 560.846,1000.28 L 561.008,1000.19 L 564.663,998.74 L 566.256,998.202 L 567.524,997.847 L 569.628,997.101 L 570.18,996.863 L 571.886,996.229 L 573.195,995.815 L 575.321,995.01 L 576.406,991.196 L 577.241,986.463 L 577.49,983.633 L 577.49,936.691 L 577.487,936.345 L 577.474,935.742 L 577.082,932.527 L 576.706,930.828 L 574.937,928.302 L 573.114,926.126 L 512.138,865.15 L 511.896,864.913 L 511.461,864.496 L 508.903,862.492 L 507.432,861.555 L 504.401,861.019 L 501.573,860.768 L 470.105,860.744 L 468.258,860.849 L 468.241,860.851 L 466.495,860.957 L 465.067,860.971 L 463.957,861.015 L 461.838,861.164 L 458.967,861.541 L 458.783,861.576 L 455.716,861.996 L 452.663,862.268 L 452.451,862.287 L 447.069,862.795 L 445.394,862.974 L 445.686,861.275 L 445.789,860.626 L 446.882,855.412 L 447.163,854.363 L 447.699,852.089 L 448.295,849.132 L 448.681,846.41 L 448.779,845.171 L 448.862,844.352 L 449.171,841.836 L 449.304,840.943 L 449.407,840.359 L 449.656,837.531 L 449.656,817.321 L 449.678,816.48 L 449.742,815.266 L 449.898,814.022 L 450.197,812.352 L 450.346,811.712 L 451.029,810.024 L 451.74,808.501 L 452.901,806.321 L 453.237,805.72 L 453.915,804.959 L 455.615,803.168 L 456.835,802.011 L 457.903,801.099 L 458.823,800.545 L 460.314,799.751 L 462.552,798.707 L 463.873,798.16 L 464.14,798.11 L 466.573,797.674 L 467.433,797.544 L 468.241,797.522 L 502.183,797.485 L 505.74,797.087 L 507.431,796.711 L 509.961,794.939 L 512.138,793.115 L 546.719,758.533 L 547.173,758.097 L 549.481,755.963 L 549.802,755.674 L 550.528,755.235 L 553.255,753.68 L 554.379,753.097 L 557.222,751.761 L 557.725,751.535 L 557.776,751.518 L 558.443,751.367 L 561.52,750.737 L 562.77,750.532 L 565.428,750.203 L 565.894,750.209 L 566.533,750.231 L 567.901,750.303 L 568.753,750.326 L 856.043,750.325 L 858.782,750.091 L 863.374,749.307 L 868.211,747.815 L 868.839,745.918 L 870.163,741.183 L 870.628,738.975 L 870.722,738.302 L 871.258,735.876 L 873.013,733.25 L 875.64,731.495 L 877.951,730.975 L 878.739,730.956 L 1075.59,730.956 L 1076.38,730.975 L 1080.24,732.049 L 1081.76,732.684 L 1084.3,733.953 L 1092.88,738.975 L 1093.23,739.177 L 1101.43,743.911 L 1119.09,752.471 L 1142.42,761.032 L 1204.72,777.787 z " style="fill-opacity:0.200000;fill:rgb(242,251,227);"/></g>
<polyline points="206.411,314.985 210.941,309.367 256.611,263.697 260.787,260.171 263.353,258.457 268.207,255.947 273.415,254.289 280.345,253.301 294.487,253.225 294.487,239.763 295.261,232.395 297.551,225.351 301.253,218.935 306.211,213.431 312.203,209.077 318.971,206.063 327.037,204.459 394.995,204.437 402.269,205.637 405.401,206.655 410.629,209.077 416.621,213.431 418.769,215.687 424.519,218.127 429.805,220.831 433.563,222.999 443.015,229.377 444.093,239.763 444.093,338.189 442.975,348.829 439.669,359.005 434.319,368.271 427.159,376.223 421.267,380.717 418.111,382.711 432.181,380.169 442.387,375.923 456.743,368.337 473.279,357.259 474.813,348.865 475.589,338.209 474.813,348.865 473.279,357.259 475.589,355.509 475.589,296.997 453.167,242.871 449.301,234.455 443.015,229.377 449.179,234.203 453.167,242.871 459.841,258.981 459.841,338.189 459.583,343.127 458.379,352.103 457.099,356.881 454.055,365.411 450.753,371.647 442.387,375.923 432.181,380.169 413.013,383.627 401.799,385.207 392.857,385.627 328.203,385.605 298.981,383.891 296.191,384.445 294.887,385.015 294.599,384.491 294.887,385.015 291.705,387.847 291.869,387.967 285.555,399.183 281.985,407.177 278.689,416.511 276.545,426.239 275.439,434.799 275.329,437.891 275.251,464.565 275.437,470.291 276.599,480.607 278.353,484.133 277.825,484.589 278.353,484.133 280.301,485.891 290.387,491.811 318.235,491.811 271.967,491.809 271.965,349.451 278.657,342.761 287.715,367.041 287.715,395.133 292.689,386.805 294.887,385.015 297.575,384.119 298.997,384.047 308.477,384.443 304.329,382.513 295.673,376.223 288.513,368.271 287.715,367.041 278.657,342.761 294.487,326.931 294.487,338.189 295.003,343.927 295.687,347.147 298.299,354.069 301.253,359.015 306.211,364.519 312.203,368.873 318.971,371.887 324.587,373.169 329.919,373.621 395.793,373.491 402.269,372.313 405.401,371.297 410.629,368.873 416.621,364.519 421.577,359.015 425.281,352.599 427.571,345.555 428.345,338.189 428.259,238.117 427.571,232.395 425.873,226.889 424.533,223.883 421.577,218.935 416.621,213.431 410.629,209.077 403.861,206.063 396.629,204.525 329.095,204.351 324.587,204.781 320.563,205.637 313.671,208.329 307.491,212.393 304.065,215.685 298.301,218.131 288.915,223.207 285.163,229.101 281.281,236.377 279.871,238.423 280.157,238.695 279.871,238.423 277.893,239.927 268.709,245.047 263.561,248.483 256.217,254.281 251.461,258.683 212.989,297.155 209.317,306.129 206.411,314.985 203.849,319.537 201.883,324.787 200.765,330.279 200.469,334.645 200.469,691.297 206.527,698.423 213.555,709.669 215.935,712.299 278.465,774.951 285.475,779.713 292.773,782.089 306.089,782.351 310.453,782.707 316.233,785.301 319.793,785.857 414.369,785.971 419.983,785.301 421.303,784.755 425.951,782.365 429.943,778.499 432.113,774.965 433.509,771.749 434.197,766.141 434.197,742.517 433.659,737.551 432.827,735.225 430.617,730.915 427.017,727.205 425.031,725.741 421.309,723.905 419.983,723.355 416.421,722.799 321.849,722.687 316.923,723.235 309.941,724.615 307.251,723.163 303.331,720.267 268.635,685.703 265.021,680.979 264.645,679.281 264.251,675.729 264.237,653.681 265.321,646.111 267.989,639.027 270.721,634.293 271.967,632.887 271.967,621.003 275.329,617.201 275.329,587.501 276.103,578.713 277.091,573.279 276.719,573.137 277.091,573.279 277.625,572.077 279.253,570.021 278.981,569.737 279.253,570.021 285.057,566.205 290.385,563.307 280.301,569.223 278.353,570.981 277.091,573.279 276.103,578.713 275.337,587.295 275.329,617.201 271.967,621.003 271.967,632.883 271.967,563.307 319.395,563.243 313.727,564.217 308.069,566.683 304.689,569.033 302.243,571.235 299.553,574.351 297.811,577.195 291.737,580.613 291.001,590.665 291.239,619.799 290.859,622.679 291.707,622.989 290.859,622.679 289.461,625.223 283.419,631.823 277.979,631.105 275.243,631.345 272.735,632.017 270.721,634.293 272.735,632.017 275.243,631.345 277.979,631.105 285.379,632.171 288.347,633.001 291.097,634.393 293.523,636.295 299.805,642.301 307.663,646.949 316.621,649.551 332.673,649.603 332.673,641.695 318.951,641.579 313.333,640.383 308.069,638.039 303.409,634.653 299.553,630.371 296.673,625.381 295.319,621.495 294.635,618.275 294.289,614.173 294.289,590.551 294.893,584.821 296.673,579.341 299.553,574.351 303.409,570.069 308.069,566.683 313.727,564.217 318.635,563.303 321.849,563.147 450.597,563.307 416.821,563.245 422.491,564.217 428.547,566.927 448.703,566.927 450.153,563.555 456.661,560.321 461.829,559.589 470.105,559.199 562.005,559.199 567.621,558.531 573.589,555.593 575.879,553.519 578.255,550.971 581.147,544.977 581.837,539.367 581.837,515.747 581.147,510.137 578.589,504.741 572.565,495.069 569.433,489.245 566.061,488.525 469.497,488.345 466.263,488.501 461.365,489.415 455.885,491.809 417.591,491.809 422.491,490.899 427.971,488.503 466.263,488.501 427.971,488.503 422.491,490.899 417.591,491.809 414.357,491.967 320.603,491.935 317.341,491.717 313.333,490.777 309.539,489.181 306.687,487.535 303.409,485.047 300.591,482.045 298.655,479.383 296.081,474.237 294.893,470.295 294.289,464.565 291.001,464.463 294.289,464.565 294.377,439.297 294.893,435.215 296.673,429.735 299.553,424.745 302.243,421.629 306.687,417.975 309.539,416.329 313.727,414.611 321.849,413.385 414.369,413.385 422.491,414.611 427.969,417.005 851.573,417.005 858.547,417.693 863.073,418.987 868.589,425.069 873.585,429.009 878.737,431.765 882.835,433.461 1075.59,433.463 1078.66,433.161 1081.62,432.265 1084.34,430.809 1086.73,428.851 1088.68,426.465 1090.14,423.743 1091.04,420.787 1091.34,417.715 1091.34,338.975 1091.04,335.903 1090.14,332.949 1088.68,330.227 1086.73,327.839 1084.34,325.881 1081.62,324.427 1078.66,323.529 1075.59,323.227 878.739,323.227 875.667,323.529 872.713,324.427 869.989,325.881 867.603,327.839 865.645,330.227 864.189,332.949 863.293,335.903 862.991,342.597 709.687,342.595 672.439,305.349 672.439,239.763 671.923,234.023 669.967,226.889 668.627,223.883 665.673,218.935 660.715,213.431 654.723,209.077 649.495,206.655 646.363,205.637 639.889,204.459 571.529,204.439 507.165,140.075 501.749,135.629 496.965,132.985 494.113,131.805 488.863,130.291 481.889,129.603 261.809,129.603 255.003,130.285 249.601,131.781 244.499,134.105 239.825,137.197 236.531,140.075 130.233,246.375 126.707,250.551 123.143,256.575 120.825,263.179 120.223,266.207 119.761,271.653 119.761,966.535 120.109,970.827 121.325,971.869 120.017,970.749 117.573,970.963 114.921,971.675 111.111,973.597 106.085,976.777 104.143,978.717 102.569,980.965 99.7914,987.903 99.0794,990.555 98.8394,993.291 98.8394,1201.32 90.5494,1223.46 90.5474,1103.54 90.5494,1232.28 99.0034,1232.28 96.8114,1230.75 92.9294,1226.86 90.5494,1223.46 98.8394,1201.32 99.3714,1206.16 100.059,1208.34 103.421,1214.49 104.995,1216.74 106.935,1218.68 109.185,1220.26 116.123,1223.04 118.775,1223.75 121.511,1223.99 1083.21,1223.99 1088.04,1223.46 1090.22,1222.77 1096.39,1219.41 1098.64,1217.83 1100.58,1215.89 1102.15,1213.64 1104.93,1206.71 1105.64,1204.05 1105.88,1201.32 1105.88,1063.63 1105.45,1059.49 1104.88,1056.99 1103.92,1054.61 1099.79,1048.6 1097.98,1046.53 1095.84,1044.81 1093.44,1043.48 1090.84,1042.59 1083.53,1041.04 1078.51,1041.33 1012.6,1041.33 1012.6,1033.46 1075.59,1033.46 1078.66,1033.16 1081.62,1032.26 1084.34,1030.81 1086.73,1028.85 1088.68,1026.46 1090.14,1023.74 1091.04,1020.79 1091.34,1017.71 1091.34,938.975 1091.04,935.903 1090.14,932.949 1088.68,930.227 1086.73,927.839 1084.34,925.881 1081.62,924.427 1078.66,923.529 1075.59,923.227 1012.6,923.227 1012.6,915.353 1078.51,915.351 1084.95,915.613 1087.5,915.317 1089.97,914.609 1092.29,913.511 1098.64,909.569 1100.58,907.629 1102.15,905.381 1104.93,898.447 1105.64,895.795 1105.88,893.059 1105.88,839.609 1105.14,834.187 1104.38,831.495 1103.15,828.979 1098.38,823.161 1096.4,821.257 1094.11,819.729 1091.29,818.551 1088.54,820.457 1083.29,823.377 1080.22,824.647 1076.38,825.715 878.737,825.735 875.639,825.195 873.013,823.439 871.257,820.813 870.187,815.595 868.217,808.863 863.607,807.447 856.041,806.363 596.777,806.363 591.253,806.995 583.371,809.371 581.837,821.307 581.743,843.129 580.133,851.897 585.537,859.297 625.869,899.655 628.157,902.181 631.097,907.441 632.291,910.147 633.647,917.791 633.527,983.633 634.169,989.463 635.783,994.923 650.013,1000.19 656.235,1004.72 658.905,1007.85 661.597,1011.8 664.425,1019.85 664.711,1024.8 664.711,1123.23 664.425,1128.18 661.597,1136.22 656.681,1142.9 650.013,1147.84 644.763,1149.83 640.763,1150.79 571.955,1150.88 569.067,1150.61 561.007,1147.84 554.339,1142.9 549.421,1136.22 547.055,1129.82 546.595,1128.18 546.309,1123.23 546.309,1024.8 546.595,1019.85 549.421,1011.8 552.115,1007.85 554.787,1004.72 561.007,1000.19 575.319,995.009 576.405,991.195 577.489,983.633 577.489,936.689 576.705,930.827 574.935,928.301 573.113,926.125 512.137,865.149 507.431,861.555 501.571,860.767 470.105,860.743 461.837,861.163 452.173,862.313 450.685,864.161 449.363,866.567 448.705,868.501 439.579,868.501 438.099,865.941 437.679,864.553 437.121,864.675 437.679,864.553 437.519,863.113 437.917,859.951 441.031,859.239 443.787,857.985 446.691,856.311 446.881,855.411 446.691,856.311 441.031,859.239 438.087,859.943 435.063,860.071 430.145,859.701 419.591,856.743 403.541,856.691 403.541,864.603 417.267,864.719 422.885,865.915 428.547,868.501 448.705,868.501 449.363,866.567 450.685,864.161 452.173,862.313 449.881,860.259 446.681,856.359 448.295,849.131 449.655,837.531 449.741,815.265 450.345,811.711 451.739,808.501 453.235,805.719 455.613,803.167 457.901,801.097 460.313,799.751 463.871,798.159 467.431,797.543 502.181,797.483 507.429,796.711 512.137,793.115 549.801,755.673 557.723,751.535 562.769,750.531 565.427,750.201 856.041,750.325 863.373,749.307 868.209,747.813 870.163,741.183 871.257,735.875 873.011,733.249 875.639,731.493 878.737,730.955 1076.38,730.975 1081.76,732.683 1091.24,738.015 1096.38,735.169 1098.88,733.349 1105.12,736.949 1113.26,740.893 1114.17,739.589 1113.26,740.893 1105.12,736.949 1098.88,733.349 1098.63,733.595 1100.58,731.655 1102.15,729.405 1103.31,726.917 1105.64,719.815 1105.88,717.081 1105.88,639.609 1105.14,634.187 1104.38,631.495 1103.15,628.979 1101.5,626.721 1096.4,621.257 1094.11,619.729 1091.25,618.577 1094.11,619.729 1096.4,621.257 1098.54,623.333 1107.62,618.137 1112.94,615.877 1114.17,617.469 1112.94,615.877 1114.17,615.355 1114.17,741.337 1105.12,736.949 1098.88,733.347 1096.38,735.169 1091.24,738.015 1091.34,747.175 1097.99,750.995 1114.17,758.837 1114.17,798.245 1101.04,803.823 1091.34,809.307 1100.21,804.235 1107.09,801.255 1107.09,755.403 1097.99,750.995 1091.34,747.175 1091.25,818.577 1094.11,819.729 1096.4,821.257 1098.54,823.333 1107.62,818.137 1112.94,815.877 1114.17,817.469 1112.94,815.877 1114.17,815.355 1114.17,915.565 1112.64,917.751 1108.76,921.633 1103.71,925.099 1099.78,923.829 1103.71,925.099 1104.69,926.923 1106.48,932.831 1107.09,938.975 1107.09,1017.71 1106.48,1023.86 1104.69,1029.77 1103.86,1031.31 1100.32,1032.37 1103.86,1031.31 1104.62,1031.73 1108.89,1035.17 1114.17,1041.59 1114.17,1223.83 1112.64,1226.01 1108.76,1229.89 1105.35,1232.28 1108.76,1229.89 1112.64,1226.01 1114.17,1223.83 1114.17,915.565 1114.17,1232.28 90.5494,1232.28 90.5474,970.783 92.0794,968.595 96.5554,964.297 92.0794,968.595 90.5474,970.783 90.5474,961.017 100.963,966.841 111.111,973.597 114.921,971.675 117.573,970.963 120.017,970.749 121.325,971.869 128.711,978.633 135.697,986.347 243.847,1094.66 246.769,1096.87 250.415,1099.2 258.147,1101.77 267.149,1102.12 287.203,1102.03 294.835,1103.12 299.633,1104.61 301.583,1111.44 302.161,1115.58 302.565,1128.46 304.901,1135.3 307.027,1138.82 310.243,1142.9 316.911,1147.84 322.161,1149.83 324.973,1150.61 327.439,1150.87 394.981,1150.88 397.857,1150.61 405.919,1147.84 412.587,1142.9 417.503,1136.22 420.331,1128.18 420.617,1123.23 420.433,1020.88 419.869,1018.2 417.503,1011.8 412.587,1005.12 410.823,1003.64 405.919,1000.19 400.669,998.201 397.855,997.413 395.391,997.155 329.497,997.101 325.999,997.257 322.161,998.201 316.911,1000.19 312.007,1003.64 310.243,1005.13 305.327,1011.8 302.571,1019.54 301.965,1033.88 301.131,1038.61 299.633,1043.41 292.803,1045.36 288.585,1045.94 280.893,1045.99 274.921,1045.21 270.219,1041.62 187.905,959.303 184.313,954.601 183.937,952.903 183.529,948.739 183.529,713.541 184.613,705.977 187.281,698.897 190.013,694.163 191.605,692.055 194.535,691.215 197.273,690.975 200.469,691.297 197.273,690.975 194.535,691.215 191.881,691.925 191.257,692.515 191.257,310.691 194.623,300.461 199.039,289.683 200.745,287.127 200.469,286.945 200.745,287.127 245.745,242.427 254.657,235.493 260.449,231.637 268.275,227.213 273.999,217.191 277.515,212.071 279.315,210.595 278.957,210.191 279.315,210.595 291.319,204.013 298.117,201.101 291.699,203.831 285.675,206.899 278.359,211.267 276.797,212.993 273.839,217.443 268.275,227.213 260.449,231.637 254.657,235.493 245.787,242.479 240.393,247.479 200.745,287.127 199.039,289.683 195.453,298.341 191.257,310.691 191.259,286.459 276.615,201.101 424.711,201.101 431.119,203.827 437.523,207.059 449.235,214.429 460.359,222.971 461.945,224.667 462.313,224.383 461.945,224.667 467.597,236.561 474.389,252.949 507.085,285.647 508.283,285.151 507.085,285.647 507.085,338.189 507.343,343.127 508.547,352.103 509.827,356.881 512.871,365.411 516.173,371.649 510.177,368.335 493.649,357.261 492.113,348.865 491.337,338.189 491.337,295.431 491.067,293.393 491.337,293.337 491.067,293.393 467.597,236.561 462.533,225.671 460.359,222.971 452.565,216.849 460.557,216.849 461.055,215.649 460.557,216.849 522.833,279.123 524.031,278.627 522.833,279.123 522.833,338.189 523.951,348.829 526.077,355.927 528.755,361.943 532.607,368.271 539.767,376.223 545.659,380.717 551.361,384.009 555.079,385.663 560.989,386.603 574.065,387.439 630.615,387.439 632.653,387.707 632.711,387.417 632.653,387.707 668.371,402.389 669.603,403.621 668.369,402.389 633.629,388.037 631.643,387.505 570.357,387.365 560.989,386.603 553.247,385.373 541.219,382.349 528.269,377.585 513.939,370.505 497.609,360.141 491.335,355.509 491.337,292.169 491.665,292.101 491.337,292.169 490.137,290.971 467.677,236.749 461.945,224.667 460.359,222.971 453.351,217.419 441.983,209.691 431.501,204.009 424.711,201.101 467.081,201.101 538.581,272.601 538.581,338.189 539.355,345.555 541.645,352.599 544.451,357.633 546.385,360.297 550.305,364.519 554.915,367.977 561.525,371.297 568.683,373.169 573.191,373.599 639.493,373.513 669.603,403.621 673.779,407.147 679.803,410.711 686.407,413.029 689.435,413.631 694.881,414.093 862.991,414.091 863.119,419.049 865.709,422.141 870.429,426.675 873.585,429.009 878.737,431.765 882.835,433.461 903.417,433.463 979.453,464.959 1075.59,464.959 1084.81,464.051 1093.67,461.363 1101.84,456.997 1109,451.123 1114.17,444.817 1114.17,467.151 1109.88,470.469 992.757,470.469 979.453,464.959 992.757,470.469 1114.17,470.471 1114.17,311.873 1109,305.569 1101.84,299.693 1093.67,295.327 1084.81,292.639 1075.59,291.731 878.739,291.731 869.521,292.639 860.659,295.327 852.491,299.693 845.333,305.569 840.793,311.099 841.265,312.261 840.793,311.099 722.733,311.099 722.237,312.299 722.733,311.099 703.935,292.303 702.737,292.799 703.935,292.303 703.935,239.763 703.247,230.731 702.473,225.847 699.921,217.157 698.149,212.541 695.905,208.135 691.153,200.423 688.041,196.579 681.791,190.025 674.619,184.493 670.471,181.801 666.065,179.555 657.689,176.109 648.887,173.973 641.537,173.007 637.007,172.833 584.467,172.833 583.977,174.025 584.467,172.833 529.437,117.803 526.001,114.689 519.247,109.441 515.271,107.057 507.621,103.227 503.255,101.665 495.007,99.3989 490.421,98.7189 481.889,98.1069 261.809,98.1069 254.973,98.4989 247.651,99.6589 237.547,102.683 234.649,103.885 225.367,108.889 219.369,113.247 214.259,117.803 107.961,224.103 102.361,230.569 97.2154,238.271 95.3674,241.727 91.8234,250.285 90.5494,254.723 90.5474,943.371 90.5494,196.975 191.987,95.5329 197.447,90.5509 174.699,90.5509 90.5494,174.703 90.5474,220.137 96.8254,212.969 203.123,106.669 209.141,101.273 217.139,95.4629 226.237,90.5489 217.139,95.4629 209.141,101.273 203.123,106.669 96.8254,212.969 90.5474,220.137 90.5474,152.431 152.429,90.5489 613.539,90.5509 617.083,94.0929 616.593,95.2589 617.083,94.0929 643.599,94.2669 665.257,96.9549 682.021,101.223 698.091,107.623 709.841,113.609 720.901,120.791 734.479,131.509 746.557,143.893 754.855,154.141 764.095,168.765 770.081,180.513 774.807,192.825 779.493,209.477 781.985,226.593 782.287,232.359 778.785,236.317 782.287,232.359 812.233,232.359 812.351,232.831 812.233,232.359 830.527,222.581 854.161,215.411 878.739,212.991 1075.59,212.991 1100.17,215.411 1114.17,219.659 1114.17,236.037 1097.1,230.857 1075.59,228.739 878.739,228.739 857.233,230.857 836.553,237.131 817.495,247.317 816.531,248.107 816.657,248.601 816.531,248.107 766.927,248.107 762.617,252.553 766.927,248.107 766.927,239.763 765.893,224.147 764.089,212.751 759.831,197.691 755.695,186.919 750.457,176.639 742.115,163.397 734.853,154.429 723.941,143.213 714.973,135.951 701.967,127.247 687.927,120.335 677.155,116.201 661.983,112.359 644.833,110.101 637.007,109.841 610.559,109.841 610.069,111.013 610.559,109.841 591.269,90.5509 568.997,90.5509 604.037,125.589 603.545,126.767 604.037,125.589 644.009,125.827 658.709,127.763 672.287,131.177 681.521,134.721 694.093,140.885 705.717,148.691 713.403,154.915 720.397,161.909 729.375,172.653 736.819,184.513 741.309,193.325 744.853,202.557 748.685,216.025 750.663,229.887 751.179,239.763 751.179,263.855 746.721,268.383 751.179,263.855 822.047,263.855 822.377,264.777 822.047,263.855 826.243,260.411 842.579,251.679 860.305,246.303 878.739,244.487 1075.59,244.487 1094.02,246.303 1111.75,251.679 1114.17,252.975 1114.17,289.541 1114.17,270.745 1105.72,266.229 1090.95,261.749 1075.59,260.235 878.739,260.235 863.377,261.749 848.607,266.229 834.993,273.505 827.561,279.603 827.891,280.525 827.561,279.603 735.779,279.603 731.329,284.127 735.779,279.603 735.431,279.257 735.431,239.763 734.571,227.439 733.281,219.299 729.875,207.425 726.923,199.729 723.181,192.387 716.635,181.909 711.447,175.505 702.865,166.619 696.461,161.431 686.219,154.525 675.115,149.109 667.421,146.155 659.461,144.021 655.435,143.167 643.185,141.553 637.007,141.337 597.513,141.337 597.029,142.513 597.513,141.337 551.707,95.5329 546.211,90.5509 568.997,90.5509 517.611,90.5509 527.995,96.3469 532.961,100.029 540.573,106.667 590.991,157.085 590.493,158.285 590.991,157.085 637.007,157.085 642.361,157.279 652.161,158.571 662.555,161.133 672.471,165.169 678.345,168.163 683.875,171.753 692.329,178.321 699.745,186.043 703.893,191.167 707.485,196.697 712.535,206.135 716.171,216.205 717.877,222.573 718.909,229.085 719.683,239.763 719.683,285.779 718.485,286.275 719.683,285.779 729.257,295.351 728.759,296.551 729.257,295.351 833.443,295.351 833.797,296.319 833.443,295.351 834.197,294.433 843.743,286.599 854.633,280.779 866.449,277.193 878.739,275.983 1075.59,275.983 1087.88,277.193 1099.7,280.779 1110.59,286.599 1114.17,289.541 1114.17,311.873 1114.17,203.283 1103.24,199.967 1075.59,197.243 878.739,197.243 851.089,199.967 824.501,208.031 808.449,216.611 808.567,217.083 808.449,216.611 796.545,216.611 793.765,220.077 796.545,216.611 794.897,206.203 789.785,187.959 784.469,174.109 777.733,160.891 767.595,144.885 755.505,130.297 745.015,119.807 733.487,110.471 717.715,99.9709 704.497,93.2369 698.101,90.5509 758.867,90.5489 732.085,90.5509 742.743,97.7289 755.553,108.103 767.209,119.759 780.337,135.627 789.313,149.453 798.855,167.703 806.033,187.005 809.111,198.487 805.899,206.547 809.111,198.487 818.473,193.483 848.015,184.521 878.739,181.495 1075.59,181.495 1106.31,184.521 1114.17,186.905 1114.17,138.051 1075.59,134.251 878.739,134.251 838.799,138.185 837.037,138.719 830.229,125.831 818.557,107.859 804.483,90.5509 818.557,107.859 830.229,125.831 837.037,138.719 835.725,141.355 837.037,138.719 838.799,138.185 878.739,134.251 1075.59,134.251 1114.17,138.051 1114.17,170.527 1109.39,169.075 1075.59,165.747 878.739,165.747 844.943,169.075 819.223,176.879 816.691,182.055 819.223,176.879 813.241,161.297 802.953,141.579 793.077,126.371 781.665,112.279 766.091,96.4009 758.869,90.5509 782.481,90.5489 790.615,98.6849 805.817,117.115 818.647,137.269 827.629,154.893 828.679,157.631 826.727,162.135 828.679,157.631 841.871,153.631 878.739,149.999 1075.59,149.999 1112.46,153.631 1114.17,154.149 1114.17,203.283 1114.17,122.303 1075.59,118.503 878.739,118.503 846.029,121.725 844.833,124.183 846.029,121.725 843.867,117.957 831.297,98.6009 824.777,90.5509 844.821,90.5489 854.309,105.161 853.145,107.581 854.309,105.161 878.739,102.755 1075.59,102.755 1114.17,106.555 1114.17,90.8069 1111.56,90.5509 1114.17,90.8069 1114.17,122.303 1114.17,90.5509 130.157,90.5509 90.5474,130.161 90.5494,107.889 107.887,90.5509 130.157,90.5509 90.5494,90.5509 90.5474,943.371 100.447,948.375 109.035,953.317 119.761,960.389 109.421,953.555 104.013,950.419 104.013,271.653 104.549,264.663 105.755,258.607 106.893,254.855 109.255,249.151 111.103,245.693 114.533,240.561 119.097,235.239 225.395,128.939 229.597,125.223 233.595,122.317 240.675,118.433 243.575,117.233 251.327,114.973 256.209,114.199 261.809,113.855 484.975,114.007 491.935,114.845 501.595,117.775 507.847,120.945 512.981,124.375 518.301,128.939 577.945,188.581 577.457,189.739 577.945,188.581 640.713,188.733 649.637,190.233 655.901,192.269 662.597,195.439 671.253,201.727 676.339,207.117 680.209,212.445 683.763,218.945 687.069,229.121 688.187,239.763 688.187,298.825 686.989,299.321 688.187,298.825 716.211,326.849 715.713,328.047 716.211,326.849 849.679,326.847 850.671,328.705 849.679,326.847 852.551,321.477 856.467,316.705 861.241,312.787 866.685,309.877 872.595,308.085 878.739,307.479 1075.59,307.479 1081.73,308.085 1087.64,309.877 1093.09,312.787 1097.86,316.705 1101.78,321.477 1104.69,326.923 1106.48,332.831 1107.09,338.975 1107.09,417.715 1106.48,423.861 1104.69,429.769 1101.78,435.213 1097.86,439.987 1093.09,443.903 1087.64,446.815 1081.73,448.607 1075.59,449.211 941.435,449.211 903.417,433.463 882.835,433.461 897.383,448.011 973.423,479.507 985.647,491.731 985.155,492.905 985.647,491.731 1075.59,491.731 1083.79,492.449 1091.75,494.581 1099.21,498.061 1105.96,502.785 1111.78,508.607 1114.17,512.021 1114.17,489.383 1109.65,486.217 991.191,486.219 989.153,485.949 989.093,486.247 989.153,485.949 935.403,463.761 988.177,485.619 990.163,486.151 1114.17,486.219 1114.17,598.245 1101.04,603.823 1091.34,609.307 1100.21,604.235 1107.09,601.255 1107.09,538.975 1106.61,533.507 1105.19,528.203 1102.87,523.227 1099.72,518.731 1095.84,514.849 1091.34,511.699 1086.36,509.379 1081.06,507.957 1075.59,507.479 979.123,507.479 978.627,508.679 979.123,507.479 935.403,463.759 897.383,448.011 972.601,523.227 1075.59,523.227 1078.32,523.467 1080.98,524.177 1083.46,525.337 1085.71,526.911 1087.65,528.853 1089.23,531.101 1090.39,533.589 1091.1,536.241 1091.34,538.975 1091.25,618.577 1088.54,620.457 1083.29,623.377 1080.22,624.647 1076.38,625.715 878.737,625.733 875.639,625.195 873.013,623.439 871.257,620.813 870.737,618.503 870.737,538.185 871.257,535.877 874.213,531.935 880.009,526.755 876.647,518.987 872.063,512.871 843.903,484.729 839.639,481.557 833.777,480.773 590.233,480.789 586.593,481.201 581.859,482.275 574.301,485.563 569.737,488.503 569.449,489.275 571.047,492.413 569.449,489.275 569.737,488.503 563.251,488.377 427.971,488.503 422.491,490.899 417.591,491.809 414.357,491.967 320.603,491.935 317.341,491.717 313.333,490.777 308.069,488.433 304.689,486.083 302.243,483.881 299.553,480.765 297.809,477.917 291.737,474.503 291.001,464.463 291.001,441.043 291.741,430.965 293.263,423.287 295.811,415.101 300.749,404.051 301.485,402.783 307.571,400.165 301.485,402.783 303.129,399.945 327.945,401.357 394.883,401.379 407.411,400.451 420.697,398.247 426.963,399.511 431.529,401.401 552.867,401.257 558.721,402.187 546.057,399.945 536.523,397.471 522.055,392.057 508.691,385.509 458.233,385.509 448.985,390.225 436.385,395.539 420.697,398.247 436.347,395.409 448.985,390.225 464.815,381.891 478.079,373.227 482.853,369.761 484.277,369.917 482.853,369.761 483.461,369.301 488.845,373.227 502.123,381.869 517.557,390.043 532.435,396.053 545.649,399.847 559.133,402.243 569.783,403.103 629.049,403.187 662.505,417.005" style="stroke:rgb(103,198,105);stroke-width:31.496063;fill:none;stroke-opacity:0.5;stroke-linecap:round;stroke-linejoin:round;;fill:none"/>
<polyline points="206.411,314.985 210.941,309.367 256.611,263.697 260.787,260.171 263.353,258.457 268.207,255.947 273.415,254.289 280.345,253.301 294.487,253.225 294.487,239.763 295.261,232.395 297.551,225.351 301.253,218.935 306.211,213.431 312.203,209.077 318.971,206.063 327.037,204.459 394.995,204.437 402.269,205.637 405.401,206.655 410.629,209.077 416.621,213.431 418.769,215.687 424.519,218.127 429.805,220.831 433.563,222.999 443.015,229.377 444.093,239.763 444.093,338.189 442.975,348.829 439.669,359.005 434.319,368.271 427.159,376.223 421.267,380.717 418.111,382.711 432.181,380.169 442.387,375.923 456.743,368.337 473.279,357.259 474.813,348.865 475.589,338.209 474.813,348.865 473.279,357.259 475.589,355.509 475.589,296.997 453.167,242.871 449.301,234.455 443.015,229.377 449.179,234.203 453.167,242.871 459.841,258.981 459.841,338.189 459.583,343.127 458.379,352.103 457.099,356.881 454.055,365.411 450.753,371.647 442.387,375.923 432.181,380.169 413.013,383.627 401.799,385.207 392.857,385.627 328.203,385.605 298.981,383.891 296.191,384.445 294.887,385.015 294.599,384.491 294.887,385.015 291.705,387.847 291.869,387.967 285.555,399.183 281.985,407.177 278.689,416.511 276.545,426.239 275.439,434.799 275.329,437.891 275.251,464.565 275.437,470.291 276.599,480.607 278.353,484.133 277.825,484.589 278.353,484.133 280.301,485.891 290.387,491.811 318.235,491.811 271.967,491.809 271.965,349.451 278.657,342.761 287.715,367.041 287.715,395.133 292.689,386.805 294.887,385.015 297.575,384.119 298.997,384.047 308.477,384.443 304.329,382.513 295.673,376.223 288.513,368.271 287.715,367.041 278.657,342.761 294.487,326.931 294.487,338.189 295.003,343.927 295.687,347.147 298.299,354.069 301.253,359.015 306.211,364.519 312.203,368.873 318.971,371.887 324.587,373.169 329.919,373.621 395.793,373.491 402.269,372.313 405.401,371.297 410.629,368.873 416.621,364.519 421.577,359.015 425.281,352.599 427.571,345.555 428.345,338.189 428.259,238.117 427.571,232.395 425.873,226.889 424.533,223.883 421.577,218.935 416.621,213.431 410.629,209.077 403.861,206.063 396.629,204.525 329.095,204.351 324.587,204.781 320.563,205.637 313.671,208.329 307.491,212.393 304.065,215.685 298.301,218.131 288.915,223.207 285.163,229.101 281.281,236.377 279.871,238.423 280.157,238.695 279.871,238.423 277.893,239.927 268.709,245.047 263.561,248.483 256.217,254.281 251.461,258.683 212.989,297.155 209.317,306.129 206.411,314.985 203.849,319.537 201.883,324.787 200.765,330.279 200.469,334.645 200.469,691.297 206.527,698.423 213.555,709.669 215.935,712.299 278.465,774.951 285.475,779.713 292.773,782.089 306.089,782.351 310.453,782.707 316.233,785.301 319.793,785.857 414.369,785.971 419.983,785.301 421.303,784.755 425.951,782.365 429.943,778.499 432.113,774.965 433.509,771.749 434.197,766.141 434.197,742.517 433.659,737.551 432.827,735.225 430.617,730.915 427.017,727.205 425.031,725.741 421.309,723.905 419.983,723.355 416.421,722.799 321.849,722.687 316.923,723.235 309.941,724.615 307.251,723.163 303.331,720.267 268.635,685.703 265.021,680.979 264.645,679.281 264.251,675.729 264.237,653.681 265.321,646.111 267.989,639.027 270.721,634.293 271.967,632.887 271.967,621.003 275.329,617.201 275.329,587.501 276.103,578.713 277.091,573.279 276.719,573.137 277.091,573.279 277.625,572.077 279.253,570.021 278.981,569.737 279.253,570.021 285.057,566.205 290.385,563.307 280.301,569.223 278.353,570.981 277.091,573.279 276.103,578.713 275.337,587.295 275.329,617.201 271.967,621.003 271.967,632.883 271.967,563.307 319.395,563.243 313.727,564.217 308.069,566.683 304.689,569.033 302.243,571.235 299.553,574.351 297.811,577.195 291.737,580.613 291.001,590.665 291.239,619.799 290.859,622.679 291.707,622.989 290.859,622.679 289.461,625.223 283.419,631.823 277.979,631.105 275.243,631.345 272.735,632.017 270.721,634.293 272.735,632.017 275.243,631.345 277.979,631.105 285.379,632.171 288.347,633.001 291.097,634.393 293.523,636.295 299.805,642.301 307.663,646.949 316.621,649.551 332.673,649.603 332.673,641.695 318.951,641.579 313.333,640.383 308.069,638.039 303.409,634.653 299.553,630.371 296.673,625.381 295.319,621.495 294.635,618.275 294.289,614.173 294.289,590.551 294.893,584.821 296.673,579.341 299.553,574.351 303.409,570.069 308.069,566.683 313.727,564.217 318.635,563.303 321.849,563.147 450.597,563.307 416.821,563.245 422.491,564.217 428.547,566.927 448.703,566.927 450.153,563.555 456.661,560.321 461.829,559.589 470.105,559.199 562.005,559.199 567.621,558.531 573.589,555.593 575.879,553.519 578.255,550.971 581.147,544.977 581.837,539.367 581.837,515.747 581.147,510.137 578.589,504.741 572.565,495.069 569.433,489.245 566.061,488.525 469.497,488.345 466.263,488.501 461.365,489.415 455.885,491.809 417.591,491.809 422.491,490.899 427.971,488.503 466.263,488.501 427.971,488.503 422.491,490.899 417.591,491.809 414.357,491.967 320.603,491.935 317.341,491.717 313.333,490.777 309.539,489.181 306.687,487.535 303.409,485.047 300.591,482.045 298.655,479.383 296.081,474.237 294.893,470.295 294.289,464.565 291.001,464.463 294.289,464.565 294.377,439.297 294.893,435.215 296.673,429.735 299.553,424.745 302.243,421.629 306.687,417.975 309.539,416.329 313.727,414.611 321.849,413.385 414.369,413.385 422.491,414.611 427.969,417.005 851.573,417.005 858.547,417.693 863.073,418.987 868.589,425.069 873.585,429.009 878.737,431.765 882.835,433.461 1075.59,433.463 1078.66,433.161 1081.62,432.265 1084.34,430.809 1086.73,428.851 1088.68,426.465 1090.14,423.743 1091.04,420.787 1091.34,417.715 1091.34,338.975 1091.04,335.903 1090.14,332.949 1088.68,330.227 1086.73,327.839 1084.34,325.881 1081.62,324.427 1078.66,323.529 1075.59,323.227 878.739,323.227 875.667,323.529 872.713,324.427 869.989,325.881 867.603,327.839 865.645,330.227 864.189,332.949 863.293,335.903 862.991,342.597 709.687,342.595 672.439,305.349 672.439,239.763 671.923,234.023 669.967,226.889 668.627,223.883 665.673,218.935 660.715,213.431 654.723,209.077 649.495,206.655 646.363,205.637 639.889,204.459 571.529,204.439 507.165,140.075 501.749,135.629 496.965,132.985 494.113,131.805 488.863,130.291 481.889,129.603 261.809,129.603 255.003,130.285 249.601,131.781 244.499,134.105 239.825,137.197 236.531,140.075 130.233,246.375 126.707,250.551 123.143,256.575 120.825,263.179 120.223,266.207 119.761,271.653 119.761,966.535 120.109,970.827 121.325,971.869 120.017,970.749 117.573,970.963 114.921,971.675 111.111,973.597 106.085,976.777 104.143,978.717 102.569,980.965 99.7914,987.903 99.0794,990.555 98.8394,993.291 98.8394,1201.32 90.5494,1223.46 90.5474,1103.54 90.5494,1232.28 99.0034,1232.28 96.8114,1230.75 92.9294,1226.86 90.5494,1223.46 98.8394,1201.32 99.3714,1206.16 100.059,1208.34 103.421,1214.49 104.995,1216.74 106.935,1218.68 109.185,1220.26 116.123,1223.04 118.775,1223.75 121.511,1223.99 1083.21,1223.99 1088.04,1223.46 1090.22,1222.77 1096.39,1219.41 1098.64,1217.83 1100.58,1215.89 1102.15,1213.64 1104.93,1206.71 1105.64,1204.05 1105.88,1201.32 1105.88,1063.63 1105.45,1059.49 1104.88,1056.99 1103.92,1054.61 1099.79,1048.6 1097.98,1046.53 1095.84,1044.81 1093.44,1043.48 1090.84,1042.59 1083.53,1041.04 1078.51,1041.33 1012.6,1041.33 1012.6,1033.46 1075.59,1033.46 1078.66,1033.16 1081.62,1032.26 1084.34,1030.81 1086.73,1028.85 1088.68,1026.46 1090.14,1023.74 1091.04,1020.79 1091.34,1017.71 1091.34,938.975 1091.04,935.903 1090.14,932.949 1088.68,930.227 1086.73,927.839 1084.34,925.881 1081.62,924.427 1078.66,923.529 1075.59,923.227 1012.6,923.227 1012.6,915.353 1078.51,915.351 1084.95,915.613 1087.5,915.317 1089.97,914.609 1092.29,913.511 1098.64,909.569 1100.58,907.629 1102.15,905.381 1104.93,898.447 1105.64,895.795 1105.88,893.059 1105.88,839.609 1105.14,834.187 1104.38,831.495 1103.15,828.979 1098.38,823.161 1096.4,821.257 1094.11,819.729 1091.29,818.551 1088.54,820.457 1083.29,823.377 1080.22,824.647 1076.38,825.715 878.737,825.735 875.639,825.195 873.013,823.439 871.257,820.813 870.187,815.595 868.217,808.863 863.607,807.447 856.041,806.363 596.777,806.363 591.253,806.995 583.371,809.371 581.837,821.307 581.743,843.129 580.133,851.897 585.537,859.297 625.869,899.655 628.157,902.181 631.097,907.441 632.291,910.147 633.647,917.791 633.527,983.633 634.169,989.463 635.783,994.923 650.013,1000.19 656.235,1004.72 658.905,1007.85 661.597,1011.8 664.425,1019.85 664.711,1024.8 664.711,1123.23 664.425,1128.18 661.597,1136.22 656.681,1142.9 650.013,1147.84 644.763,1149.83 640.763,1150.79 571.955,1150.88 569.067,1150.61 561.007,1147.84 554.339,1142.9 549.421,1136.22 547.055,1129.82 546.595,1128.18 546.309,1123.23 546.309,1024.8 546.595,1019.85 549.421,1011.8 552.115,1007.85 554.787,1004.72 561.007,1000.19 575.319,995.009 576.405,991.195 577.489,983.633 577.489,936.689 576.705,930.827 574.935,928.301 573.113,926.125 512.137,865.149 507.431,861.555 501.571,860.767 470.105,860.743 461.837,861.163 452.173,862.313 450.685,864.161 449.363,866.567 448.705,868.501 439.579,868.501 438.099,865.941 437.679,864.553 437.121,864.675 437.679,864.553 437.519,863.113 437.917,859.951 441.031,859.239 443.787,857.985 446.691,856.311 446.881,855.411 446.691,856.311 441.031,859.239 438.087,859.943 435.063,860.071 430.145,859.701 419.591,856.743 403.541,856.691 403.541,864.603 417.267,864.719 422.885,865.915 428.547,868.501 448.705,868.501 449.363,866.567 450.685,864.161 452.173,862.313 449.881,860.259 446.681,856.359 448.295,849.131 449.655,837.531 449.741,815.265 450.345,811.711 451.739,808.501 453.235,805.719 455.613,803.167 457.901,801.097 460.313,799.751 463.871,798.159 467.431,797.543 502.181,797.483 507.429,796.711 512.137,793.115 549.801,755.673 557.723,751.535 562.769,750.531 565.427,750.201 856.041,750.325 863.373,749.307 868.209,747.813 870.163,741.183 871.257,735.875 873.011,733.249 875.639,731.493 878.737,730.955 1076.38,730.975 1081.76,732.683 1091.24,738.015 1096.38,735.169 1098.88,733.349 1105.12,736.949 1113.26,740.893 1114.17,739.589 1113.26,740.893 1105.12,736.949 1098.88,733.349 1098.63,733.595 1100.58,731.655 1102.15,729.405 1103.31,726.917 1105.64,719.815 1105.88,717.081 1105.88,639.609 1105.14,634.187 1104.38,631.495 1103.15,628.979 1101.5,626.721 1096.4,621.257 1094.11,619.729 1091.25,618.577 1094.11,619.729 1096.4,621.257 1098.54,623.333 1107.62,618.137 1112.94,615.877 1114.17,617.469 1112.94,615.877 1114.17,615.355 1114.17,741.337 1105.12,736.949 1098.88,733.347 1096.38,735.169 1091.24,738.015 1091.34,747.175 1097.99,750.995 1114.17,758.837 1114.17,798.245 1101.04,803.823 1091.34,809.307 1100.21,804.235 1107.09,801.255 1107.09,755.403 1097.99,750.995 1091.34,747.175 1091.25,818.577 1094.11,819.729 1096.4,821.257 1098.54,823.333 1107.62,818.137 1112.94,815.877 1114.17,817.469 1112.94,815.877 1114.17,815.355 1114.17,915.565 1112.64,917.751 1108.76,921.633 1103.71,925.099 1099.78,923.829 1103.71,925.099 1104.69,926.923 1106.48,932.831 1107.09,938.975 1107.09,1017.71 1106.48,1023.86 1104.69,1029.77 1103.86,1031.31 1100.32,1032.37 1103.86,1031.31 1104.62,1031.73 1108.89,1035.17 1114.17,1041.59 1114.17,1223.83 1112.64,1226.01 1108.76,1229.89 1105.35,1232.28 1108.76,1229.89 1112.64,1226.01 1114.17,1223.83 1114.17,915.565 1114.17,1232.28 90.5494,1232.28 90.5474,970.783 92.0794,968.595 96.5554,964.297 92.0794,968.595 90.5474,970.783 90.5474,961.017 100.963,966.841 111.111,973.597 114.921,971.675 117.573,970.963 120.017,970.749 121.325,971.869 128.711,978.633 135.697,986.347 243.847,1094.66 246.769,1096.87 250.415,1099.2 258.147,1101.77 267.149,1102.12 287.203,1102.03 294.835,1103.12 299.633,1104.61 301.583,1111.44 302.161,1115.58 302.565,1128.46 304.901,1135.3 307.027,1138.82 310.243,1142.9 316.911,1147.84 322.161,1149.83 324.973,1150.61 327.439,1150.87 394.981,1150.88 397.857,1150.61 405.919,1147.84 412.587,1142.9 417.503,1136.22 420.331,1128.18 420.617,1123.23 420.433,1020.88 419.869,1018.2 417.503,1011.8 412.587,1005.12 410.823,1003.64 405.919,1000.19 400.669,998.201 397.855,997.413 395.391,997.155 329.497,997.101 325.999,997.257 322.161,998.201 316.911,1000.19 312.007,1003.64 310.243,1005.13 305.327,1011.8 302.571,1019.54 301.965,1033.88 301.131,1038.61 299.633,1043.41 292.803,1045.36 288.585,1045.94 280.893,1045.99 274.921,1045.21 270.219,1041.62 187.905,959.303 184.313,954.601 183.937,952.903 183.529,948.739 183.529,713.541 184.613,705.977 187.281,698.897 190.013,694.163 191.605,692.055 194.535,691.215 197.273,690.975 200.469,691.297 197.273,690.975 194.535,691.215 191.881,691.925 191.257,692.515 191.257,310.691 194.623,300.461 199.039,289.683 200.745,287.127 200.469,286.945 200.745,287.127 245.745,242.427 254.657,235.493 260.449,231.637 268.275,227.213 273.999,217.191 277.515,212.071 279.315,210.595 278.957,210.191 279.315,210.595 291.319,204.013 298.117,201.101 291.699,203.831 285.675,206.899 278.359,211.267 276.797,212.993 273.839,217.443 268.275,227.213 260.449,231.637 254.657,235.493 245.787,242.479 240.393,247.479 200.745,287.127 199.039,289.683 195.453,298.341 191.257,310.691 191.259,286.459 276.615,201.101 424.711,201.101 431.119,203.827 437.523,207.059 449.235,214.429 460.359,222.971 461.945,224.667 462.313,224.383 461.945,224.667 467.597,236.561 474.389,252.949 507.085,285.647 508.283,285.151 507.085,285.647 507.085,338.189 507.343,343.127 508.547,352.103 509.827,356.881 512.871,365.411 516.173,371.649 510.177,368.335 493.649,357.261 492.113,348.865 491.337,338.189 491.337,295.431 491.067,293.393 491.337,293.337 491.067,293.393 467.597,236.561 462.533,225.671 460.359,222.971 452.565,216.849 460.557,216.849 461.055,215.649 460.557,216.849 522.833,279.123 524.031,278.627 522.833,279.123 522.833,338.189 523.951,348.829 526.077,355.927 528.755,361.943 532.607,368.271 539.767,376.223 545.659,380.717 551.361,384.009 555.079,385.663 560.989,386.603 574.065,387.439 630.615,387.439 632.653,387.707 632.711,387.417 632.653,387.707 668.371,402.389 669.603,403.621 668.369,402.389 633.629,388.037 631.643,387.505 570.357,387.365 560.989,386.603 553.247,385.373 541.219,382.349 528.269,377.585 513.939,370.505 497.609,360.141 491.335,355.509 491.337,292.169 491.665,292.101 491.337,292.169 490.137,290.971 467.677,236.749 461.945,224.667 460.359,222.971 453.351,217.419 441.983,209.691 431.501,204.009 424.711,201.101 467.081,201.101 538.581,272.601 538.581,338.189 539.355,345.555 541.645,352.599 544.451,357.633 546.385,360.297 550.305,364.519 554.915,367.977 561.525,371.297 568.683,373.169 573.191,373.599 639.493,373.513 669.603,403.621 673.779,407.147 679.803,410.711 686.407,413.029 689.435,413.631 694.881,414.093 862.991,414.091 863.119,419.049 865.709,422.141 870.429,426.675 873.585,429.009 878.737,431.765 882.835,433.461 903.417,433.463 979.453,464.959 1075.59,464.959 1084.81,464.051 1093.67,461.363 1101.84,456.997 1109,451.123 1114.17,444.817 1114.17,467.151 1109.88,470.469 992.757,470.469 979.453,464.959 992.757,470.469 1114.17,470.471 1114.17,311.873 1109,305.569 1101.84,299.693 1093.67,295.327 1084.81,292.639 1075.59,291.731 878.739,291.731 869.521,292.639 860.659,295.327 852.491,299.693 845.333,305.569 840.793,311.099 841.265,312.261 840.793,311.099 722.733,311.099 722.237,312.299 722.733,311.099 703.935,292.303 702.737,292.799 703.935,292.303 703.935,239.763 703.247,230.731 702.473,225.847 699.921,217.157 698.149,212.541 695.905,208.135 691.153,200.423 688.041,196.579 681.791,190.025 674.619,184.493 670.471,181.801 666.065,179.555 657.689,176.109 648.887,173.973 641.537,173.007 637.007,172.833 584.467,172.833 583.977,174.025 584.467,172.833 529.437,117.803 526.001,114.689 519.247,109.441 515.271,107.057 507.621,103.227 503.255,101.665 495.007,99.3989 490.421,98.7189 481.889,98.1069 261.809,98.1069 254.973,98.4989 247.651,99.6589 237.547,102.683 234.649,103.885 225.367,108.889 219.369,113.247 214.259,117.803 107.961,224.103 102.361,230.569 97.2154,238.271 95.3674,241.727 91.8234,250.285 90.5494,254.723 90.5474,943.371 90.5494,196.975 191.987,95.5329 197.447,90.5509 174.699,90.5509 90.5494,174.703 90.5474,220.137 96.8254,212.969 203.123,106.669 209.141,101.273 217.139,95.4629 226.237,90.5489 217.139,95.4629 209.141,101.273 203.123,106.669 96.8254,212.969 90.5474,220.137 90.5474,152.431 152.429,90.5489 613.539,90.5509 617.083,94.0929 616.593,95.2589 617.083,94.0929 643.599,94.2669 665.257,96.9549 682.021,101.223 698.091,107.623 709.841,113.609 720.901,120.791 734.479,131.509 746.557,143.893 754.855,154.141 764.095,168.765 770.081,180.513 774.807,192.825 779.493,209.477 781.985,226.593 782.287,232.359 778.785,236.317 782.287,232.359 812.233,232.359 812.351,232.831 812.233,232.359 830.527,222.581 854.161,215.411 878.739,212.991 1075.59,212.991 1100.17,215.411 1114.17,219.659 1114.17,236.037 1097.1,230.857 1075.59,228.739 878.739,228.739 857.233,230.857 836.553,237.131 817.495,247.317 816.531,248.107 816.657,248.601 816.531,248.107 766.927,248.107 762.617,252.553 766.927,248.107 766.927,239.763 765.893,224.147 764.089,212.751 759.831,197.691 755.695,186.919 750.457,176.639 742.115,163.397 734.853,154.429 723.941,143.213 714.973,135.951 701.967,127.247 687.927,120.335 677.155,116.201 661.983,112.359 644.833,110.101 637.007,109.841 610.559,109.841 610.069,111.013 610.559,109.841 591.269,90.5509 568.997,90.5509 604.037,125.589 603.545,126.767 604.037,125.589 644.009,125.827 658.709,127.763 672.287,131.177 681.521,134.721 694.093,140.885 705.717,148.691 713.403,154.915 720.397,161.909 729.375,172.653 736.819,184.513 741.309,193.325 744.853,202.557 748.685,216.025 750.663,229.887 751.179,239.763 751.179,263.855 746.721,268.383 751.179,263.855 822.047,263.855 822.377,264.777 822.047,263.855 826.243,260.411 842.579,251.679 860.305,246.303 878.739,244.487 1075.59,244.487 1094.02,246.303 1111.75,251.679 1114.17,252.975 1114.17,289.541 1114.17,270.745 1105.72,266.229 1090.95,261.749 1075.59,260.235 878.739,260.235 863.377,261.749 848.607,266.229 834.993,273.505 827.561,279.603 827.891,280.525 827.561,279.603 735.779,279.603 731.329,284.127 735.779,279.603 735.431,279.257 735.431,239.763 734.571,227.439 733.281,219.299 729.875,207.425 726.923,199.729 723.181,192.387 716.635,181.909 711.447,175.505 702.865,166.619 696.461,161.431 686.219,154.525 675.115,149.109 667.421,146.155 659.461,144.021 655.435,143.167 643.185,141.553 637.007,141.337 597.513,141.337 597.029,142.513 597.513,141.337 551.707,95.5329 546.211,90.5509 568.997,90.5509 517.611,90.5509 527.995,96.3469 532.961,100.029 540.573,106.667 590.991,157.085 590.493,158.285 590.991,157.085 637.007,157.085 642.361,157.279 652.161,158.571 662.555,161.133 672.471,165.169 678.345,168.163 683.875,171.753 692.329,178.321 699.745,186.043 703.893,191.167 707.485,196.697 712.535,206.135 716.171,216.205 717.877,222.573 718.909,229.085 719.683,239.763 719.683,285.779 718.485,286.275 719.683,285.779 729.257,295.351 728.759,296.551 729.257,295.351 833.443,295.351 833.797,296.319 833.443,295.351 834.197,294.433 843.743,286.599 854.633,280.779 866.449,277.193 878.739,275.983 1075.59,275.983 1087.88,277.193 1099.7,280.779 1110.59,286.599 1114.17,289.541 1114.17,311.873 1114.17,203.283 1103.24,199.967 1075.59,197.243 878.739,197.243 851.089,199.967 824.501,208.031 808.449,216.611 808.567,217.083 808.449,216.611 796.545,216.611 793.765,220.077 796.545,216.611 794.897,206.203 789.785,187.959 784.469,174.109 777.733,160.891 767.595,144.885 755.505,130.297 745.015,119.807 733.487,110.471 717.715,99.9709 704.497,93.2369 698.101,90.5509 758.867,90.5489 732.085,90.5509 742.743,97.7289 755.553,108.103 767.209,119.759 780.337,135.627 789.313,149.453 798.855,167.703 806.033,187.005 809.111,198.487 805.899,206.547 809.111,198.487 818.473,193.483 848.015,184.521 878.739,181.495 1075.59,181.495 1106.31,184.521 1114.17,186.905 1114.17,138.051 1075.59,134.251 878.739,134.251 838.799,138.185 837.037,138.719 830.229,125.831 818.557,107.859 804.483,90.5509 818.557,107.859 830.229,125.831 837.037,138.719 835.725,141.355 837.037,138.719 838.799,138.185 878.739,134.251 1075.59,134.251 1114.17,138.051 1114.17,170.527 1109.39,169.075 1075.59,165.747 878.739,165.747 844.943,169.075 819.223,176.879 816.691,182.055 819.223,176.879 813.241,161.297 802.953,141.579 793.077,126.371 781.665,112.279 766.091,96.4009 758.869,90.5509 782.481,90.5489 790.615,98.6849 805.817,117.115 818.647,137.269 827.629,154.893 828.679,157.631 826.727,162.135 828.679,157.631 841.871,153.631 878.739,149.999 1075.59,149.999 1112.46,153.631 1114.17,154.149 1114.17,203.283 1114.17,122.303 1075.59,118.503 878.739,118.503 846.029,121.725 844.833,124.183 846.029,121.725 843.867,117.957 831.297,98.6009 824.777,90.5509 844.821,90.5489 854.309,105.161 853.145,107.581 854.309,105.161 878.739,102.755 1075.59,102.755 1114.17,106.555 1114.17,90.8069 1111.56,90.5509 1114.17,90.8069 1114.17,122.303 1114.17,90.5509 130.157,90.5509 90.5474,130.161 90.5494,107.889 107.887,90.5509 130.157,90.5509 90.5494,90.5509 90.5474,943.371 100.447,948.375 109.035,953.317 119.761,960.389 109.421,953.555 104.013,950.419 104.013,271.653 104.549,264.663 105.755,258.607 106.893,254.855 109.255,249.151 111.103,245.693 114.533,240.561 119.097,235.239 225.395,128.939 229.597,125.223 233.595,122.317 240.675,118.433 243.575,117.233 251.327,114.973 256.209,114.199 261.809,113.855 484.975,114.007 491.935,114.845 501.595,117.775 507.847,120.945 512.981,124.375 518.301,128.939 577.945,188.581 577.457,189.739 577.945,188.581 640.713,188.733 649.637,190.233 655.901,192.269 662.597,195.439 671.253,201.727 676.339,207.117 680.209,212.445 683.763,218.945 687.069,229.121 688.187,239.763 688.187,298.825 686.989,299.321 688.187,298.825 716.211,326.849 715.713,328.047 716.211,326.849 849.679,326.847 850.671,328.705 849.679,326.847 852.551,321.477 856.467,316.705 861.241,312.787 866.685,309.877 872.595,308.085 878.739,307.479 1075.59,307.479 1081.73,308.085 1087.64,309.877 1093.09,312.787 1097.86,316.705 1101.78,321.477 1104.69,326.923 1106.48,332.831 1107.09,338.975 1107.09,417.715 1106.48,423.861 1104.69,429.769 1101.78,435.213 1097.86,439.987 1093.09,443.903 1087.64,446.815 1081.73,448.607 1075.59,449.211 941.435,449.211 903.417,433.463 882.835,433.461 897.383,448.011 973.423,479.507 985.647,491.731 985.155,492.905 985.647,491.731 1075.59,491.731 1083.79,492.449 1091.75,494.581 1099.21,498.061 1105.96,502.785 1111.78,508.607 1114.17,512.021 1114.17,489.383 1109.65,486.217 991.191,486.219 989.153,485.949 989.093,486.247 989.153,485.949 935.403,463.761 988.177,485.619 990.163,486.151 1114.17,486.219 1114.17,598.245 1101.04,603.823 1091.34,609.307 1100.21,604.235 1107.09,601.255 1107.09,538.975 1106.61,533.507 1105.19,528.203 1102.87,523.227 1099.72,518.731 1095.84,514.849 1091.34,511.699 1086.36,509.379 1081.06,507.957 1075.59,507.479 979.123,507.479 978.627,508.679 979.123,507.479 935.403,463.759 897.383,448.011 972.601,523.227 1075.59,523.227 1078.32,523.467 1080.98,524.177 1083.46,525.337 1085.71,526.911 1087.65,528.853 1089.23,531.101 1090.39,533.589 1091.1,536.241 1091.34,538.975 1091.25,618.577 1088.54,620.457 1083.29,623.377 1080.22,624.647 1076.38,625.715 878.737,625.733 875.639,625.195 873.013,623.439 871.257,620.813 870.737,618.503 870.737,538.185 871.257,535.877 874.213,531.935 880.009,526.755 876.647,518.987 872.063,512.871 843.903,484.729 839.639,481.557 833.777,480.773 590.233,480.789 586.593,481.201 581.859,482.275 574.301,485.563 569.737,488.503 569.449,489.275 571.047,492.413 569.449,489.275 569.737,488.503 563.251,488.377 427.971,488.503 422.491,490.899 417.591,491.809 414.357,491.967 320.603,491.935 317.341,491.717 313.333,490.777 308.069,488.433 304.689,486.083 302.243,483.881 299.553,480.765 297.809,477.917 291.737,474.503 291.001,464.463 291.001,441.043 291.741,430.965 293.263,423.287 295.811,415.101 300.749,404.051 301.485,402.783 307.571,400.165 301.485,402.783 303.129,399.945 327.945,401.357 394.883,401.379 407.411,400.451 420.697,398.247 426.963,399.511 431.529,401.401 552.867,401.257 558.721,402.187 546.057,399.945 536.523,397.471 522.055,392.057 508.691,385.509 458.233,385.509 448.985,390.225 436.385,395.539 420.697,398.247 436.347,395.409 448.985,390.225 464.815,381.891 478.079,373.227 482.853,369.761 484.277,369.917 482.853,369.761 483.461,369.301 488.845,373.227 502.123,381.869 517.557,390.043 532.435,396.053 545.649,399.847 559.133,402.243 569.783,403.103 629.049,403.187 662.505,417.005" style="stroke:rgb(0,0,0);stroke-width:1px;fill:none;stroke-opacity:1;stroke-linecap:round;stroke-linejoin:round;;fill:none"/>
<polyline points="403.541,649.603 403.541,641.695 417.267,641.579 422.885,640.383 428.549,637.793 440.855,637.793 436.257,642.391 428.553,646.949 419.595,649.551 403.541,649.603" style="stroke:rgb(103,198,105);stroke-width:31.496063;fill:none;stroke-opacity:0.5;stroke-linecap:round;stroke-linejoin:round;;fill:none"/>
<polyline points="403.541,649.603 403.541,641.695 417.267,641.579 422.885,640.383 428.549,637.793 440.855,637.793 436.257,642.391 428.553,646.949 419.595,649.551 403.541,649.603" style="stroke:rgb(0,0,0);stroke-width:1px;fill:none;stroke-opacity:1;stroke-linecap:round;stroke-linejoin:round;;fill:none"/>
<polyline points="295.361,868.503 299.959,863.905 307.663,859.347 316.627,856.743 332.673,856.691 332.673,864.603 318.951,864.719 313.333,865.915 307.671,868.501 295.361,868.503" style="stroke:rgb(103,198,105);stroke-width:31.496063;fill:none;stroke-opacity:0.5;stroke-linecap:round;stroke-linejoin:round;;fill:none"/>
<polyline points="295.361,868.503 299.959,863.905 307.663,859.347 316.627,856.743 332.673,856.691 332.673,864.603 318.951,864.719 313.333,865.915 307.671,868.501 295.361,868.503" style="stroke:rgb(0,0,0);stroke-width:1px;fill:none;stroke-opacity:1;stroke-linecap:round;stroke-linejoin:round;;fill:none"/>
<polyline points="295.361,939.369 299.959,943.967 307.665,948.525 316.625,951.127 332.673,951.179 332.673,943.269 318.951,943.153 313.333,941.957 307.667,939.369 295.361,939.369" style="stroke:rgb(103,198,105);stroke-width:31.496063;fill:none;stroke-opacity:0.5;stroke-linecap:round;stroke-linejoin:round;;fill:none"/>
<polyline points="295.361,939.369 299.959,943.967 307.665,948.525 316.625,951.127 332.673,951.179 332.673,943.269 318.951,943.153 313.333,941.957 307.667,939.369 295.361,939.369" style="stroke:rgb(0,0,0);stroke-width:1px;fill:none;stroke-opacity:1;stroke-linecap:round;stroke-linejoin:round;;fill:none"/>
<polyline points="403.541,951.179 403.541,943.269 417.267,943.153 422.885,941.957 428.551,939.369 440.855,939.369 436.257,943.967 428.553,948.523 419.591,951.127 403.541,951.179" style="stroke:rgb(103,198,105);stroke-width:31.496063;fill:none;stroke-opacity:0.5;stroke-linecap:round;stroke-linejoin:round;;fill:none"/>
<polyline points="403.541,951.179 403.541,943.269 417.267,943.153 422.885,941.957 428.551,939.369 440.855,939.369 436.257,943.967 428.553,948.523 419.591,951.127 403.541,951.179" style="stroke:rgb(0,0,0);stroke-width:1px;fill:none;stroke-opacity:1;stroke-linecap:round;stroke-linejoin:round;;fill:none"/>
<polyline points="855.117,1020.64 855.117,1013.78 862.991,1013.78 863.229,1020.45 863.941,1023.1 865.101,1025.59 866.675,1027.84 868.617,1029.78 870.865,1031.35 873.353,1032.51 876.005,1033.22 878.739,1033.46 941.729,1033.46 941.729,1041.33 873.931,1041.13 867.301,1038.66 861.863,1034.59 857.791,1029.15 855.319,1022.52 855.117,1020.64" style="stroke:rgb(103,198,105);stroke-width:31.496063;fill:none;stroke-opacity:0.5;stroke-linecap:round;stroke-linejoin:round;;fill:none"/>
<polyline points="855.117,1020.64 855.117,1013.78 862.991,1013.78 863.229,1020.45 863.941,1023.1 865.101,1025.59 866.675,1027.84 868.617,1029.78 870.865,1031.35 873.353,1032.51 876.005,1033.22 878.739,1033.46 941.729,1033.46 941.729,1041.33 873.931,1041.13 867.301,1038.66 861.863,1034.59 857.791,1029.15 855.319,1022.52 855.117,1020.64" style="stroke:rgb(0,0,0);stroke-width:1px;fill:none;stroke-opacity:1;stroke-linecap:round;stroke-linejoin:round;;fill:none"/>
<polyline points="855.117,942.911 855.319,934.169 857.793,927.537 861.863,922.099 867.301,918.027 873.931,915.555 941.729,915.353 941.729,923.227 878.739,923.227 875.667,923.529 872.713,924.427 869.989,925.881 867.603,927.839 865.645,930.227 864.189,932.949 863.293,935.903 862.991,942.913 855.117,942.911" style="stroke:rgb(103,198,105);stroke-width:31.496063;fill:none;stroke-opacity:0.5;stroke-linecap:round;stroke-linejoin:round;;fill:none"/>
<polyline points="855.117,942.911 855.319,934.169 857.793,927.537 861.863,922.099 867.301,918.027 873.931,915.555 941.729,915.353 941.729,923.227 878.739,923.227 875.667,923.529 872.713,924.427 869.989,925.881 867.603,927.839 865.645,930.227 864.189,932.949 863.293,935.903 862.991,942.913 855.117,942.911" style="stroke:rgb(0,0,0);stroke-width:1px;fill:none;stroke-opacity:1;stroke-linecap:round;stroke-linejoin:round;;fill:none"/>
<g fill-rule="evenodd"><path d="M 114.589,1201.32 L 114.589,993.291 L 116.209,988.841 L 120.309,986.473 L 124.971,987.295 L 126.405,988.395 L 235.939,1097.93 L 238.201,1100.73 L 246.701,1106.64 L 256.721,1109.94 L 267.071,1110.23 L 287.275,1110.05 L 291.723,1111.67 L 294.091,1115.77 L 294.421,1129.94 L 297.979,1140.11 L 304.373,1148.77 L 313.039,1155.17 L 323.203,1158.72 L 325.617,1158.95 L 397.215,1158.95 L 399.629,1158.72 L 409.793,1155.17 L 418.459,1148.77 L 424.853,1140.11 L 428.411,1129.94 L 428.637,1127.53 L 428.637,1020.5 L 428.409,1018.08 L 424.853,1007.92 L 418.459,999.255 L 409.793,992.861 L 399.629,989.305 L 397.215,989.077 L 325.615,989.077 L 323.203,989.305 L 313.039,992.861 L 304.373,999.257 L 297.979,1007.92 L 294.421,1018.08 L 294.195,1031.05 L 292.577,1035.5 L 288.477,1037.87 L 280.785,1037.97 L 276.337,1036.36 L 275.891,1035.95 L 193.577,953.633 L 191.577,949.343 L 191.549,948.739 L 191.549,713.543 L 193.169,709.093 L 197.269,706.725 L 201.931,707.549 L 204.707,710.539 L 206.895,714.555 L 213.495,721.407 L 270.583,778.245 L 272.847,781.047 L 281.823,787.167 L 291.367,790.257 L 301.717,790.547 L 306.395,790.369 L 309.435,791.073 L 313.793,793.203 L 319.205,793.991 L 417.011,793.991 L 422.425,793.203 L 430.775,789.121 L 437.349,782.547 L 441.431,774.197 L 442.219,768.785 L 442.219,739.875 L 441.431,734.463 L 437.349,726.111 L 430.775,719.539 L 422.425,715.457 L 417.011,714.669 L 319.205,714.669 L 313.683,715.473 L 309.047,714.511 L 274.285,680.011 L 272.285,675.721 L 272.259,653.673 L 273.877,649.223 L 277.977,646.855 L 282.641,647.679 L 290.231,654.935 L 301.361,661.517 L 313.779,665.125 L 316.679,665.353 L 348.423,665.353 L 348.423,625.984 L 320.616,625.92 L 318.201,625.406 L 315.945,624.402 L 313.947,622.951 L 312.295,621.116 L 311.06,618.977 L 310.297,616.629 L 310.039,614.173 L 310.039,590.551 L 310.297,588.096 L 311.06,585.747 L 312.295,583.609 L 313.947,581.774 L 315.945,580.323 L 318.201,579.318 L 321.85,578.74 L 414.37,578.74 L 418.02,579.318 L 420.276,580.323 L 423.086,582.677 L 465.337,582.677 L 463.459,576.071 L 463.773,571.347 L 467.051,567.931 L 470.105,567.219 L 564.649,567.219 L 570.063,566.431 L 578.413,562.349 L 584.985,555.777 L 589.069,547.425 L 589.857,542.013 L 589.857,513.103 L 589.069,507.691 L 584.733,498.825 L 584.983,498.703 L 584.003,495.177 L 585.963,490.867 L 590.235,488.827 L 833.779,488.795 L 838.227,490.413 L 866.397,518.547 L 868.399,522.837 L 867.259,527.287 L 863.629,532.717 L 862.699,537.395 L 862.699,619.295 L 863.629,623.973 L 867.175,629.279 L 872.481,632.825 L 877.159,633.755 L 1077.17,633.755 L 1081.85,632.825 L 1086.54,633.541 L 1089.66,637.101 L 1090.13,639.609 L 1090.13,717.081 L 1088.51,721.531 L 1084.41,723.897 L 1081.86,723.869 L 1077.17,722.937 L 877.159,722.937 L 872.481,723.867 L 867.175,727.411 L 863.629,732.717 L 862.831,736.735 L 860.375,740.783 L 856.043,742.307 L 568.753,742.307 L 565.171,741.925 L 555.791,743.519 L 554.497,743.945 L 544.891,749.021 L 506.467,787.445 L 502.177,789.445 L 466.843,789.471 L 461.431,790.261 L 453.079,794.343 L 446.507,800.915 L 442.425,809.265 L 441.637,814.679 L 441.637,837.531 L 440.017,841.981 L 435.917,844.347 L 432.785,844.177 L 422.439,841.173 L 419.537,840.943 L 387.793,840.945 L 387.793,880.315 L 415.605,880.38 L 418.02,880.893 L 420.276,881.897 L 423.086,884.251 L 465.337,884.251 L 463.459,877.647 L 463.773,872.923 L 467.051,869.505 L 470.105,868.795 L 501.573,868.795 L 506.023,870.413 L 506.467,870.821 L 567.443,931.797 L 569.445,936.089 L 569.471,936.691 L 569.471,983.633 L 567.851,988.081 L 564.835,990.165 L 557.133,992.861 L 548.467,999.257 L 542.073,1007.92 L 538.517,1018.08 L 538.289,1020.5 L 538.289,1127.53 L 538.517,1129.94 L 542.073,1140.11 L 548.469,1148.77 L 557.133,1155.17 L 567.297,1158.72 L 569.711,1158.95 L 641.309,1158.95 L 643.723,1158.72 L 653.887,1155.17 L 662.553,1148.77 L 668.947,1140.11 L 672.505,1129.94 L 672.731,1127.53 L 672.731,1020.5 L 672.505,1018.08 L 668.947,1007.92 L 662.553,999.255 L 653.887,992.861 L 646.185,990.165 L 642.521,987.167 L 641.549,983.633 L 641.549,921.115 L 641.931,917.535 L 640.337,908.153 L 639.911,906.859 L 634.835,897.253 L 591.207,853.627 L 589.207,849.335 L 589.857,843.587 L 589.857,821.307 L 591.475,816.857 L 595.577,814.491 L 596.779,814.385 L 856.043,814.385 L 860.491,816.005 L 862.831,819.955 L 863.629,823.973 L 867.175,829.279 L 872.481,832.825 L 877.159,833.755 L 1077.17,833.755 L 1081.85,832.825 L 1086.54,833.541 L 1089.66,837.101 L 1090.13,839.609 L 1090.13,893.059 L 1088.51,897.507 L 1084.41,899.875 L 1082.47,899.941 L 1079.36,899.605 L 996.849,899.605 L 996.849,938.976 L 1075.59,938.976 L 1075.59,1017.72 L 996.849,1017.72 L 996.849,1057.08 L 1079.36,1057.08 L 1082.47,1056.75 L 1087.07,1057.88 L 1089.86,1061.71 L 1090.13,1063.63 L 1090.13,1201.32 L 1088.51,1205.77 L 1084.41,1208.14 L 1083.21,1208.24 L 121.511,1208.24 L 117.061,1206.62 L 114.695,1202.52 L 114.589,1201.32M 270.881,923.621 L 274.503,936.235 L 281.087,947.365 L 290.231,956.509 L 301.361,963.093 L 313.779,966.699 L 316.679,966.929 L 348.423,966.929 L 348.423,927.559 L 320.616,927.494 L 318.201,926.981 L 315.945,925.977 L 313.133,923.621 L 270.881,923.621M 270.881,884.251 L 313.135,884.251 L 315.945,881.897 L 318.201,880.893 L 320.616,880.38 L 348.423,880.315 L 348.423,840.943 L 316.679,840.943 L 313.779,841.173 L 301.361,844.781 L 290.231,851.363 L 281.087,860.507 L 274.503,871.637 L 270.881,884.251M 387.793,966.929 L 419.537,966.929 L 422.439,966.699 L 434.857,963.093 L 445.987,956.509 L 455.131,947.365 L 461.713,936.235 L 465.337,923.621 L 423.087,923.621 L 420.276,925.977 L 418.02,926.981 L 415.605,927.494 L 387.793,927.559 L 387.793,966.929M 387.793,665.353 L 419.537,665.353 L 422.439,665.125 L 434.857,661.517 L 445.987,654.935 L 455.131,645.791 L 461.713,634.661 L 465.337,622.047 L 423.087,622.047 L 420.276,624.402 L 418.02,625.406 L 415.605,625.92 L 387.793,625.984 L 387.793,665.353M 839.369,1021.48 L 839.873,1026.17 L 843.829,1036.78 L 850.613,1045.84 L 859.677,1052.62 L 870.283,1056.58 L 874.973,1057.08 L 957.479,1057.08 L 957.479,1017.72 L 878.74,1017.72 L 878.74,998.031 L 839.369,998.031 L 839.369,1021.48M 839.369,958.661 L 878.74,958.661 L 878.74,938.976 L 957.479,938.976 L 957.479,899.605 L 874.973,899.605 L 870.283,900.109 L 859.677,904.065 L 850.613,910.851 L 843.829,919.913 L 839.873,930.521 L 839.369,935.209 L 839.369,958.661 z " style="fill-opacity:1.000000;fill:rgb(103,198,105);stroke:rgb(0,0,0);stroke-width:2"/></g>
<g fill-rule="evenodd"><path d="M 135.511,966.535 L 135.511,271.653 L 135.896,267.751 L 137.034,263.999 L 138.882,260.542 L 141.369,257.511 L 247.667,151.211 L 250.054,149.173 L 252.73,147.533 L 255.629,146.332 L 258.681,145.599 L 261.809,145.353 L 481.889,145.353 L 485.791,145.737 L 489.543,146.875 L 493.001,148.724 L 496.032,151.211 L 566.501,221.68 L 567.933,221.042 L 571.958,220.187 L 574.016,220.079 L 637.008,220.079 L 639.066,220.187 L 643.091,221.042 L 646.85,222.716 L 650.18,225.135 L 652.933,228.193 L 654.991,231.757 L 656.263,235.671 L 656.693,239.764 L 656.693,311.872 L 703.166,358.345 L 878.74,358.345 L 878.74,338.976 L 1075.59,338.976 L 1075.59,417.717 L 878.74,417.717 L 878.74,398.345 L 694.881,398.345 L 690.98,397.961 L 687.228,396.823 L 683.77,394.974 L 680.739,392.487 L 644.524,356.272 L 643.091,356.911 L 639.066,357.766 L 637.008,357.874 L 574.016,357.874 L 571.958,357.766 L 567.933,356.911 L 564.173,355.237 L 560.844,352.818 L 558.09,349.76 L 556.033,346.196 L 554.761,342.282 L 554.331,338.189 L 554.331,266.079 L 473.605,185.353 L 270.094,185.353 L 175.511,279.937 L 175.511,958.251 L 271.276,1054.01 L 310.236,1054.01 L 310.236,1024.8 L 310.666,1020.71 L 311.938,1016.8 L 313.996,1013.23 L 316.749,1010.17 L 320.079,1007.76 L 323.838,1006.08 L 327.864,1005.23 L 329.921,1005.12 L 392.913,1005.12 L 394.971,1005.23 L 398.996,1006.08 L 402.756,1007.76 L 406.085,1010.17 L 408.839,1013.23 L 410.897,1016.8 L 412.168,1020.71 L 412.598,1024.8 L 412.598,1123.23 L 412.168,1127.32 L 410.897,1131.23 L 408.839,1134.8 L 406.085,1137.86 L 402.756,1140.28 L 398.996,1141.95 L 394.971,1142.81 L 329.921,1142.91 L 327.864,1142.81 L 323.838,1141.95 L 320.079,1140.28 L 316.749,1137.86 L 313.996,1134.8 L 311.938,1131.23 L 310.666,1127.32 L 310.236,1123.23 L 310.236,1094.01 L 262.991,1094.01 L 259.09,1093.63 L 255.338,1092.49 L 251.88,1090.64 L 248.849,1088.16 L 141.369,980.677 L 138.882,977.646 L 137.034,974.189 L 135.896,970.437 L 135.511,966.535 z " style="fill-opacity:1.000000;fill:rgb(115,81,255);stroke:rgb(0,0,0);stroke-width:2"/></g>
<g fill-rule="evenodd"><path d="M 216.219,692.913 L 216.219,334.645 L 216.466,331.516 L 217.198,328.465 L 218.399,325.565 L 220.039,322.889 L 222.077,320.503 L 267.747,274.833 L 270.778,272.346 L 274.236,270.497 L 277.988,269.359 L 281.889,268.975 L 310.236,268.975 L 310.236,239.764 L 310.666,235.671 L 311.938,231.757 L 313.996,228.193 L 316.749,225.135 L 320.079,222.716 L 323.838,221.042 L 327.864,220.187 L 329.921,220.079 L 394.971,220.187 L 398.996,221.042 L 402.756,222.716 L 406.085,225.135 L 408.839,228.193 L 410.897,231.757 L 412.168,235.671 L 412.598,239.764 L 412.598,338.189 L 412.168,342.282 L 410.897,346.196 L 408.839,349.76 L 406.085,352.818 L 402.756,355.237 L 398.996,356.911 L 394.971,357.766 L 392.913,357.874 L 329.921,357.874 L 327.864,357.766 L 323.838,356.911 L 320.079,355.237 L 316.749,352.818 L 313.996,349.76 L 311.938,346.196 L 310.666,342.282 L 310.236,338.189 L 310.236,308.975 L 290.174,308.975 L 256.219,342.929 L 256.219,507.559 L 461.055,507.559 L 463.583,505.519 L 465.838,504.515 L 469.488,503.937 L 563.242,504.002 L 565.658,504.515 L 567.913,505.519 L 569.911,506.971 L 571.563,508.806 L 572.798,510.944 L 573.561,513.292 L 573.819,515.748 L 573.819,539.37 L 573.561,541.826 L 572.798,544.174 L 571.563,546.312 L 569.911,548.147 L 567.913,549.599 L 565.658,550.603 L 562.008,551.181 L 469.488,551.181 L 465.838,550.603 L 463.583,549.599 L 461.055,547.559 L 256.219,547.559 L 256.219,684.628 L 305.922,734.329 L 313.419,734.329 L 315.945,732.291 L 318.201,731.287 L 321.85,730.709 L 414.37,730.709 L 418.02,731.287 L 420.276,732.291 L 422.273,733.742 L 423.925,735.577 L 425.16,737.716 L 425.923,740.064 L 426.181,742.52 L 426.181,766.142 L 425.923,768.597 L 425.16,770.946 L 423.925,773.084 L 422.273,774.919 L 420.276,776.37 L 418.02,777.375 L 414.37,777.953 L 321.85,777.953 L 318.201,777.375 L 315.945,776.37 L 313.416,774.329 L 297.637,774.329 L 293.736,773.945 L 289.984,772.807 L 286.526,770.958 L 283.496,768.471 L 222.078,707.055 L 220.039,704.669 L 218.399,701.993 L 217.198,699.093 L 216.466,696.042 L 216.219,692.913 z " style="fill-opacity:1.000000;fill:rgb(74,236,41);stroke:rgb(0,0,0);stroke-width:2"/></g>
<g fill-rule="evenodd"><path d="M 310.039,464.567 L 310.039,440.945 L 310.297,438.489 L 311.06,436.141 L 312.295,434.003 L 313.947,432.168 L 315.945,430.716 L 318.201,429.712 L 321.85,429.134 L 414.37,429.134 L 418.02,429.712 L 420.276,430.716 L 422.802,432.755 L 851.573,432.755 L 855.475,433.139 L 859.227,434.277 L 862.685,436.126 L 865.716,438.613 L 966.079,538.976 L 1075.59,538.976 L 1075.59,617.717 L 878.74,617.717 L 878.74,538.976 L 909.511,538.976 L 843.289,472.755 L 422.804,472.755 L 420.276,474.796 L 418.02,475.8 L 414.37,476.378 L 320.616,476.313 L 318.201,475.8 L 315.945,474.796 L 313.947,473.344 L 312.295,471.509 L 311.06,469.371 L 310.297,467.023 L 310.039,464.567 z " style="fill-opacity:1.000000;fill:rgb(205,186,171);stroke:rgb(0,0,0);stroke-width:2"/></g>
<g fill-rule="evenodd"><path d="M 457.677,840.945 L 457.677,817.323 L 457.935,814.867 L 458.698,812.519 L 459.933,810.38 L 461.585,808.546 L 463.583,807.094 L 465.838,806.09 L 468.254,805.577 L 511.084,805.512 L 552.391,764.203 L 554.777,762.165 L 557.453,760.525 L 560.353,759.324 L 563.405,758.591 L 566.533,758.345 L 878.74,758.345 L 878.74,738.976 L 1075.59,738.976 L 1075.59,817.717 L 878.74,817.717 L 878.74,798.345 L 574.818,798.345 L 566.637,806.526 L 569.911,808.546 L 571.563,810.38 L 572.798,812.519 L 573.561,814.867 L 573.819,817.323 L 573.819,840.945 L 573.561,843.401 L 572.798,845.749 L 571.563,847.887 L 569.911,849.722 L 566.639,851.741 L 619.654,904.755 L 622.141,907.786 L 623.989,911.243 L 625.127,914.995 L 625.511,918.897 L 625.511,1005.12 L 639.066,1005.23 L 643.091,1006.08 L 646.85,1007.76 L 650.18,1010.17 L 652.933,1013.23 L 654.991,1016.8 L 656.263,1020.71 L 656.693,1024.8 L 656.693,1123.23 L 656.263,1127.32 L 654.991,1131.23 L 652.933,1134.8 L 650.18,1137.86 L 646.85,1140.28 L 643.091,1141.95 L 639.066,1142.81 L 571.958,1142.81 L 567.933,1141.95 L 564.173,1140.28 L 560.844,1137.86 L 558.09,1134.8 L 556.033,1131.23 L 554.761,1127.32 L 554.331,1123.23 L 554.331,1024.8 L 554.761,1020.71 L 556.033,1016.8 L 558.09,1013.23 L 560.844,1010.17 L 564.173,1007.76 L 567.933,1006.08 L 571.958,1005.23 L 585.511,1005.12 L 585.511,927.181 L 511.086,852.756 L 468.254,852.691 L 465.838,852.178 L 463.583,851.174 L 461.585,849.722 L 459.933,847.887 L 458.698,845.749 L 457.935,843.401 L 457.677,840.945 z " style="fill-opacity:1.000000;fill:rgb(242,251,227);stroke:rgb(0,0,0);stroke-width:2"/></g>
</svg>
