%TF.GenerationSoftware,KiCad,Pcbnew,7.0.5*%
%TF.CreationDate,2023-08-03T20:15:09-04:00*%
%TF.ProjectId,Servo_Signal_V_shifter,53657276-6f5f-4536-9967-6e616c5f565f,rev?*%
%TF.SameCoordinates,Original*%
%TF.FileFunction,Copper,L1,Top*%
%TF.FilePolarity,Positive*%
%FSLAX46Y46*%
G04 Gerber Fmt 4.6, Leading zero omitted, Abs format (unit mm)*
G04 Created by KiCad (PCBNEW 7.0.5) date 2023-08-03 20:15:09*
%MOMM*%
%LPD*%
G01*
G04 APERTURE LIST*
G04 Aperture macros list*
%AMRoundRect*
0 Rectangle with rounded corners*
0 $1 Rounding radius*
0 $2 $3 $4 $5 $6 $7 $8 $9 X,Y pos of 4 corners*
0 Add a 4 corners polygon primitive as box body*
4,1,4,$2,$3,$4,$5,$6,$7,$8,$9,$2,$3,0*
0 Add four circle primitives for the rounded corners*
1,1,$1+$1,$2,$3*
1,1,$1+$1,$4,$5*
1,1,$1+$1,$6,$7*
1,1,$1+$1,$8,$9*
0 Add four rect primitives between the rounded corners*
20,1,$1+$1,$2,$3,$4,$5,0*
20,1,$1+$1,$4,$5,$6,$7,0*
20,1,$1+$1,$6,$7,$8,$9,0*
20,1,$1+$1,$8,$9,$2,$3,0*%
G04 Aperture macros list end*
%TA.AperFunction,SMDPad,CuDef*%
%ADD10RoundRect,0.250000X-0.400000X-0.625000X0.400000X-0.625000X0.400000X0.625000X-0.400000X0.625000X0*%
%TD*%
%TA.AperFunction,SMDPad,CuDef*%
%ADD11RoundRect,0.250000X0.400000X0.625000X-0.400000X0.625000X-0.400000X-0.625000X0.400000X-0.625000X0*%
%TD*%
%TA.AperFunction,SMDPad,CuDef*%
%ADD12RoundRect,0.150000X-0.587500X-0.150000X0.587500X-0.150000X0.587500X0.150000X-0.587500X0.150000X0*%
%TD*%
%TA.AperFunction,SMDPad,CuDef*%
%ADD13R,2.500000X1.000000*%
%TD*%
%TA.AperFunction,Conductor*%
%ADD14C,0.508000*%
%TD*%
G04 APERTURE END LIST*
D10*
%TO.P,R2,1*%
%TO.N,+5V*%
X151600000Y-81188621D03*
%TO.P,R2,2*%
%TO.N,/SOUT*%
X154700000Y-81188621D03*
%TD*%
D11*
%TO.P,R1,1*%
%TO.N,+5V*%
X154700000Y-71218621D03*
%TO.P,R1,2*%
%TO.N,Net-(Q1-G)*%
X151600000Y-71218621D03*
%TD*%
D12*
%TO.P,Q2,1,G*%
%TO.N,/SIN*%
X151685000Y-73298621D03*
%TO.P,Q2,2,S*%
%TO.N,GND*%
X151685000Y-75198621D03*
%TO.P,Q2,3,D*%
%TO.N,Net-(Q1-G)*%
X153560000Y-74248621D03*
%TD*%
%TO.P,Q1,1,G*%
%TO.N,Net-(Q1-G)*%
X151685000Y-77128621D03*
%TO.P,Q1,2,S*%
%TO.N,GND*%
X151685000Y-79028621D03*
%TO.P,Q1,3,D*%
%TO.N,/SOUT*%
X153560000Y-78078621D03*
%TD*%
D13*
%TO.P,J1,1,Pin_1*%
%TO.N,+5V*%
X159420000Y-72353621D03*
%TO.P,J1,2,Pin_2*%
%TO.N,/SIN*%
X159420000Y-74893621D03*
%TO.P,J1,3,Pin_3*%
%TO.N,/SOUT*%
X159420000Y-77433621D03*
%TO.P,J1,4,Pin_4*%
%TO.N,GND*%
X159420000Y-79973621D03*
%TD*%
D14*
%TO.N,Net-(Q1-G)*%
X153560000Y-74248621D02*
X150010000Y-74248621D01*
X150010000Y-74248621D02*
X150010000Y-76348621D01*
X150010000Y-71798621D02*
X150010000Y-74248621D01*
X150790000Y-77128621D02*
X151685000Y-77128621D01*
X150010000Y-76348621D02*
X150790000Y-77128621D01*
X150590000Y-71218621D02*
X150010000Y-71798621D01*
X151600000Y-71218621D02*
X150590000Y-71218621D01*
%TO.N,/SOUT*%
X154700000Y-79218621D02*
X153560000Y-78078621D01*
X154700000Y-81188621D02*
X154700000Y-79218621D01*
%TO.N,+5V*%
X150350000Y-81188621D02*
X151600000Y-81188621D01*
X148985000Y-79823621D02*
X150350000Y-81188621D01*
X150335000Y-69648621D02*
X148985000Y-70998621D01*
X148985000Y-70998621D02*
X148985000Y-79823621D01*
X153130000Y-69648621D02*
X150335000Y-69648621D01*
X154700000Y-71218621D02*
X153130000Y-69648621D01*
%TO.N,/SIN*%
X157825000Y-73298621D02*
X159420000Y-74893621D01*
X151685000Y-73298621D02*
X157825000Y-73298621D01*
%TO.N,/SOUT*%
X153560000Y-78078621D02*
X154205000Y-77433621D01*
X154205000Y-77433621D02*
X159420000Y-77433621D01*
%TO.N,+5V*%
X155835000Y-72353621D02*
X159420000Y-72353621D01*
X154700000Y-71218621D02*
X155835000Y-72353621D01*
%TD*%
%TA.AperFunction,Conductor*%
%TO.N,GND*%
G36*
X157655505Y-73776886D02*
G01*
X157661159Y-73782066D01*
X158013272Y-74134179D01*
X158038683Y-74188673D01*
X158024204Y-74245167D01*
X157978120Y-74314138D01*
X157978118Y-74314142D01*
X157966300Y-74373558D01*
X157966300Y-75413683D01*
X157978118Y-75473099D01*
X157978119Y-75473101D01*
X158023140Y-75540481D01*
X158090520Y-75585502D01*
X158149936Y-75597321D01*
X158149938Y-75597321D01*
X160690061Y-75597321D01*
X160690064Y-75597321D01*
X160749480Y-75585502D01*
X160749482Y-75585500D01*
X160749650Y-75585467D01*
X160809078Y-75594613D01*
X160848723Y-75639818D01*
X160854700Y-75671678D01*
X160854700Y-76655563D01*
X160834135Y-76712064D01*
X160782064Y-76742128D01*
X160749652Y-76741774D01*
X160718758Y-76735628D01*
X160690064Y-76729921D01*
X158149936Y-76729921D01*
X158130221Y-76733842D01*
X158090521Y-76741739D01*
X158090519Y-76741740D01*
X158023140Y-76786760D01*
X158023139Y-76786761D01*
X157978119Y-76854140D01*
X157978118Y-76854143D01*
X157967969Y-76905169D01*
X157936777Y-76956573D01*
X157881758Y-76975921D01*
X154233177Y-76975921D01*
X154228252Y-76975644D01*
X154187694Y-76971073D01*
X154129110Y-76982158D01*
X154127504Y-76982430D01*
X154068567Y-76991315D01*
X154068565Y-76991315D01*
X154068563Y-76991316D01*
X154062274Y-76993256D01*
X154062201Y-76993021D01*
X154058255Y-76994319D01*
X154058337Y-76994552D01*
X154052122Y-76996726D01*
X153999439Y-77024570D01*
X153997972Y-77025310D01*
X153944254Y-77051180D01*
X153938816Y-77054888D01*
X153938678Y-77054686D01*
X153935291Y-77057089D01*
X153935437Y-77057287D01*
X153930136Y-77061199D01*
X153888011Y-77103323D01*
X153886829Y-77104462D01*
X153843114Y-77145025D01*
X153839004Y-77150179D01*
X153838811Y-77150025D01*
X153830567Y-77160767D01*
X153442158Y-77549176D01*
X153387664Y-77574587D01*
X153380003Y-77574921D01*
X152938936Y-77574921D01*
X152938932Y-77574922D01*
X152870182Y-77584937D01*
X152764133Y-77636780D01*
X152680659Y-77720254D01*
X152628818Y-77826299D01*
X152628817Y-77826302D01*
X152618800Y-77895052D01*
X152618800Y-77895053D01*
X152618800Y-77895056D01*
X152618800Y-78185282D01*
X152598235Y-78241783D01*
X152546164Y-78271847D01*
X152506377Y-78269692D01*
X152374988Y-78231520D01*
X152338146Y-78228621D01*
X151935001Y-78228621D01*
X151935000Y-78228622D01*
X151935000Y-78778619D01*
X151935001Y-78778621D01*
X152919795Y-78778621D01*
X152919796Y-78778620D01*
X152919600Y-78776135D01*
X152919599Y-78776127D01*
X152895955Y-78694743D01*
X152899940Y-78634748D01*
X152941557Y-78591351D01*
X152980361Y-78582320D01*
X153380003Y-78582320D01*
X153436504Y-78602885D01*
X153442158Y-78608065D01*
X154216555Y-79382461D01*
X154241966Y-79436955D01*
X154242300Y-79444616D01*
X154242300Y-80040768D01*
X154221735Y-80097269D01*
X154183432Y-80123735D01*
X154085605Y-80157966D01*
X153975564Y-80239181D01*
X153975560Y-80239185D01*
X153894345Y-80349226D01*
X153894344Y-80349227D01*
X153849174Y-80478316D01*
X153849173Y-80478321D01*
X153846300Y-80508964D01*
X153846300Y-81868270D01*
X153846301Y-81868279D01*
X153849173Y-81898922D01*
X153894344Y-82028014D01*
X153894345Y-82028015D01*
X153894346Y-82028016D01*
X153975562Y-82138059D01*
X154085604Y-82219275D01*
X154085605Y-82219275D01*
X154085606Y-82219276D01*
X154214695Y-82264446D01*
X154214697Y-82264446D01*
X154214699Y-82264447D01*
X154245347Y-82267321D01*
X155154652Y-82267320D01*
X155185301Y-82264447D01*
X155185300Y-82264446D01*
X155314393Y-82219276D01*
X155314393Y-82219275D01*
X155314395Y-82219275D01*
X155424438Y-82138059D01*
X155505654Y-82028016D01*
X155550826Y-81898922D01*
X155553700Y-81868274D01*
X155553699Y-80508969D01*
X155550826Y-80478320D01*
X155550825Y-80478316D01*
X155505655Y-80349227D01*
X155505654Y-80349226D01*
X155424439Y-80239185D01*
X155424438Y-80239183D01*
X155403352Y-80223621D01*
X157670000Y-80223621D01*
X157670000Y-80521457D01*
X157676400Y-80580995D01*
X157726647Y-80715711D01*
X157812808Y-80830807D01*
X157812813Y-80830812D01*
X157927909Y-80916973D01*
X158062625Y-80967220D01*
X158122163Y-80973620D01*
X158122173Y-80973621D01*
X159169999Y-80973621D01*
X159170000Y-80973620D01*
X159170000Y-80223622D01*
X159169999Y-80223621D01*
X157670000Y-80223621D01*
X155403352Y-80223621D01*
X155357623Y-80189871D01*
X155314394Y-80157966D01*
X155314395Y-80157966D01*
X155216568Y-80123735D01*
X155170030Y-80085663D01*
X155157700Y-80040768D01*
X155157700Y-79723620D01*
X157670000Y-79723620D01*
X157670001Y-79723621D01*
X159169999Y-79723621D01*
X159170000Y-79723620D01*
X159170000Y-78973622D01*
X159169999Y-78973621D01*
X158122163Y-78973621D01*
X158062625Y-78980021D01*
X157927909Y-79030268D01*
X157812813Y-79116429D01*
X157812808Y-79116434D01*
X157726647Y-79231530D01*
X157676400Y-79366246D01*
X157670000Y-79425784D01*
X157670000Y-79723620D01*
X155157700Y-79723620D01*
X155157700Y-79246796D01*
X155157977Y-79241871D01*
X155162547Y-79201315D01*
X155162547Y-79201314D01*
X155151456Y-79142704D01*
X155151197Y-79141178D01*
X155142306Y-79082188D01*
X155142304Y-79082185D01*
X155140364Y-79075892D01*
X155140601Y-79075818D01*
X155139304Y-79071877D01*
X155139069Y-79071960D01*
X155136896Y-79065751D01*
X155136895Y-79065745D01*
X155109038Y-79013037D01*
X155108307Y-79011587D01*
X155082439Y-78957873D01*
X155078730Y-78952433D01*
X155078935Y-78952293D01*
X155076533Y-78948908D01*
X155076333Y-78949056D01*
X155072424Y-78943758D01*
X155030258Y-78901592D01*
X155029132Y-78900424D01*
X154988595Y-78856735D01*
X154988591Y-78856732D01*
X154983447Y-78852630D01*
X154983601Y-78852436D01*
X154972853Y-78844188D01*
X154518352Y-78389687D01*
X154492941Y-78335193D01*
X154493526Y-78314858D01*
X154501199Y-78262196D01*
X154501200Y-78262190D01*
X154501199Y-77979220D01*
X154521763Y-77922720D01*
X154573835Y-77892656D01*
X154589099Y-77891321D01*
X157881758Y-77891321D01*
X157938259Y-77911886D01*
X157967968Y-77962071D01*
X157978119Y-78013101D01*
X158023140Y-78080481D01*
X158090520Y-78125502D01*
X158149936Y-78137321D01*
X158149938Y-78137321D01*
X160690061Y-78137321D01*
X160690064Y-78137321D01*
X160749480Y-78125502D01*
X160749482Y-78125500D01*
X160749650Y-78125467D01*
X160809078Y-78134613D01*
X160848723Y-78179818D01*
X160854700Y-78211678D01*
X160854700Y-78890479D01*
X160834135Y-78946980D01*
X160782064Y-78977044D01*
X160757405Y-78977875D01*
X160717836Y-78973621D01*
X159670000Y-78973621D01*
X159670000Y-80973620D01*
X159670001Y-80973621D01*
X160717827Y-80973621D01*
X160717831Y-80973620D01*
X160757403Y-80969366D01*
X160815779Y-80983772D01*
X160851237Y-81032332D01*
X160854700Y-81056762D01*
X160854700Y-82805421D01*
X160834135Y-82861922D01*
X160782064Y-82891986D01*
X160766800Y-82893321D01*
X148553200Y-82893321D01*
X148496699Y-82872756D01*
X148466635Y-82820685D01*
X148465300Y-82805421D01*
X148465300Y-80163416D01*
X148485865Y-80106915D01*
X148537936Y-80076851D01*
X148597150Y-80087292D01*
X148615355Y-80101262D01*
X148654741Y-80140648D01*
X148655867Y-80141817D01*
X148670850Y-80157965D01*
X148696407Y-80185509D01*
X148701557Y-80189616D01*
X148701401Y-80189810D01*
X148712146Y-80198053D01*
X150006435Y-81492342D01*
X150009721Y-81496020D01*
X150035168Y-81527929D01*
X150084420Y-81561509D01*
X150085745Y-81562449D01*
X150133714Y-81597852D01*
X150133715Y-81597852D01*
X150139538Y-81600930D01*
X150139422Y-81601148D01*
X150143127Y-81603019D01*
X150143236Y-81602795D01*
X150149163Y-81605648D01*
X150149168Y-81605652D01*
X150206136Y-81623223D01*
X150207629Y-81623715D01*
X150263948Y-81643422D01*
X150263950Y-81643422D01*
X150270426Y-81644648D01*
X150270379Y-81644893D01*
X150274458Y-81645586D01*
X150274496Y-81645339D01*
X150281011Y-81646321D01*
X150281013Y-81646321D01*
X150340590Y-81646321D01*
X150342233Y-81646352D01*
X150366554Y-81647261D01*
X150401825Y-81648581D01*
X150401829Y-81648579D01*
X150408369Y-81647844D01*
X150408396Y-81648089D01*
X150421831Y-81646321D01*
X150658401Y-81646321D01*
X150714902Y-81666886D01*
X150744966Y-81718957D01*
X150746301Y-81734221D01*
X150746301Y-81868279D01*
X150749173Y-81898922D01*
X150794344Y-82028014D01*
X150794345Y-82028015D01*
X150794346Y-82028016D01*
X150875562Y-82138059D01*
X150985605Y-82219275D01*
X150985606Y-82219276D01*
X151114695Y-82264446D01*
X151114697Y-82264446D01*
X151114699Y-82264447D01*
X151145347Y-82267321D01*
X152054652Y-82267320D01*
X152085301Y-82264447D01*
X152085300Y-82264446D01*
X152214393Y-82219276D01*
X152214393Y-82219275D01*
X152214395Y-82219275D01*
X152324438Y-82138059D01*
X152405654Y-82028016D01*
X152450826Y-81898922D01*
X152453700Y-81868274D01*
X152453699Y-80508969D01*
X152450826Y-80478320D01*
X152450825Y-80478316D01*
X152405655Y-80349227D01*
X152405654Y-80349226D01*
X152324439Y-80239185D01*
X152324438Y-80239183D01*
X152257623Y-80189871D01*
X152214394Y-80157966D01*
X152214393Y-80157965D01*
X152085304Y-80112795D01*
X152085299Y-80112794D01*
X152054655Y-80109921D01*
X151145350Y-80109921D01*
X151145341Y-80109922D01*
X151114698Y-80112794D01*
X150985606Y-80157965D01*
X150985605Y-80157966D01*
X150875564Y-80239181D01*
X150875560Y-80239185D01*
X150794345Y-80349226D01*
X150794344Y-80349227D01*
X150749174Y-80478316D01*
X150749173Y-80478321D01*
X150746300Y-80508964D01*
X150746300Y-80643021D01*
X150725735Y-80699522D01*
X150673664Y-80729586D01*
X150658400Y-80730921D01*
X150575995Y-80730921D01*
X150519494Y-80710356D01*
X150513840Y-80705176D01*
X149468445Y-79659781D01*
X149443034Y-79605287D01*
X149442700Y-79597626D01*
X149442700Y-79278621D01*
X150450204Y-79278621D01*
X150450399Y-79281106D01*
X150450400Y-79281114D01*
X150496217Y-79438818D01*
X150496218Y-79438819D01*
X150579815Y-79580174D01*
X150695946Y-79696305D01*
X150837301Y-79779902D01*
X150837302Y-79779903D01*
X150995011Y-79825721D01*
X151031853Y-79828620D01*
X151031869Y-79828621D01*
X151434999Y-79828621D01*
X151435000Y-79828619D01*
X151935000Y-79828619D01*
X151935001Y-79828621D01*
X152338131Y-79828621D01*
X152338146Y-79828620D01*
X152374988Y-79825721D01*
X152532697Y-79779903D01*
X152532698Y-79779902D01*
X152674053Y-79696305D01*
X152790184Y-79580174D01*
X152873781Y-79438819D01*
X152873782Y-79438818D01*
X152919599Y-79281114D01*
X152919600Y-79281106D01*
X152919796Y-79278621D01*
X151935001Y-79278621D01*
X151935000Y-79278622D01*
X151935000Y-79828619D01*
X151435000Y-79828619D01*
X151435000Y-79278622D01*
X151434999Y-79278621D01*
X150450204Y-79278621D01*
X149442700Y-79278621D01*
X149442700Y-78778620D01*
X150450203Y-78778620D01*
X150450205Y-78778621D01*
X151434999Y-78778621D01*
X151435000Y-78778619D01*
X151435000Y-78228622D01*
X151434999Y-78228621D01*
X151031853Y-78228621D01*
X150995011Y-78231520D01*
X150837302Y-78277338D01*
X150837301Y-78277339D01*
X150695946Y-78360936D01*
X150579815Y-78477067D01*
X150496218Y-78618422D01*
X150496217Y-78618423D01*
X150450400Y-78776127D01*
X150450399Y-78776135D01*
X150450203Y-78778620D01*
X149442700Y-78778620D01*
X149442700Y-76610617D01*
X149463265Y-76554116D01*
X149515336Y-76524052D01*
X149574550Y-76534493D01*
X149609795Y-76572478D01*
X149627560Y-76609368D01*
X149631270Y-76614809D01*
X149631067Y-76614947D01*
X149633467Y-76618329D01*
X149633665Y-76618184D01*
X149637576Y-76623483D01*
X149679740Y-76665648D01*
X149680867Y-76666817D01*
X149721405Y-76710507D01*
X149721407Y-76710509D01*
X149726557Y-76714616D01*
X149726401Y-76714810D01*
X149737146Y-76723053D01*
X150446435Y-77432342D01*
X150449721Y-77436020D01*
X150475168Y-77467929D01*
X150524420Y-77501509D01*
X150525745Y-77502449D01*
X150573715Y-77537852D01*
X150579538Y-77540930D01*
X150579422Y-77541148D01*
X150583127Y-77543019D01*
X150583236Y-77542795D01*
X150589163Y-77545648D01*
X150589168Y-77545652D01*
X150646136Y-77563223D01*
X150647629Y-77563715D01*
X150703948Y-77583422D01*
X150703950Y-77583422D01*
X150710426Y-77584648D01*
X150710379Y-77584893D01*
X150714458Y-77585586D01*
X150714496Y-77585339D01*
X150721011Y-77586321D01*
X150721013Y-77586321D01*
X150780590Y-77586321D01*
X150782233Y-77586352D01*
X150806554Y-77587261D01*
X150841825Y-77588581D01*
X150841829Y-77588579D01*
X150848369Y-77587844D01*
X150848396Y-77588089D01*
X150861831Y-77586321D01*
X150901240Y-77586321D01*
X150939844Y-77595251D01*
X150995181Y-77622304D01*
X151063931Y-77632321D01*
X152306068Y-77632320D01*
X152374819Y-77622304D01*
X152480869Y-77570460D01*
X152564339Y-77486990D01*
X152616183Y-77380940D01*
X152626200Y-77312190D01*
X152626199Y-76945053D01*
X152616183Y-76876302D01*
X152564339Y-76770252D01*
X152480869Y-76686782D01*
X152480867Y-76686781D01*
X152480866Y-76686780D01*
X152374821Y-76634939D01*
X152374819Y-76634938D01*
X152306069Y-76624921D01*
X152306064Y-76624921D01*
X151063936Y-76624921D01*
X151063929Y-76624922D01*
X150993800Y-76635138D01*
X150934925Y-76622932D01*
X150918975Y-76610311D01*
X150493445Y-76184780D01*
X150468034Y-76130286D01*
X150467700Y-76122625D01*
X150467700Y-75850269D01*
X150488265Y-75793768D01*
X150540336Y-75763704D01*
X150599550Y-75774145D01*
X150617755Y-75788114D01*
X150695946Y-75866305D01*
X150837301Y-75949902D01*
X150837302Y-75949903D01*
X150995011Y-75995721D01*
X151031853Y-75998620D01*
X151031869Y-75998621D01*
X151434999Y-75998621D01*
X151435000Y-75998620D01*
X151435000Y-75998619D01*
X151935000Y-75998619D01*
X151935001Y-75998621D01*
X152338131Y-75998621D01*
X152338146Y-75998620D01*
X152374988Y-75995721D01*
X152532697Y-75949903D01*
X152532698Y-75949902D01*
X152674053Y-75866305D01*
X152790184Y-75750174D01*
X152873781Y-75608819D01*
X152873782Y-75608818D01*
X152919599Y-75451114D01*
X152919600Y-75451106D01*
X152919796Y-75448621D01*
X151935001Y-75448621D01*
X151935000Y-75448622D01*
X151935000Y-75998619D01*
X151435000Y-75998619D01*
X151435000Y-75036521D01*
X151455565Y-74980020D01*
X151507636Y-74949956D01*
X151522900Y-74948621D01*
X152919795Y-74948621D01*
X152919796Y-74948620D01*
X152919600Y-74946135D01*
X152919599Y-74946127D01*
X152895955Y-74864743D01*
X152899940Y-74804748D01*
X152941557Y-74761351D01*
X152980360Y-74752320D01*
X154181068Y-74752320D01*
X154249819Y-74742304D01*
X154355869Y-74690460D01*
X154439339Y-74606990D01*
X154491183Y-74500940D01*
X154501200Y-74432190D01*
X154501199Y-74065053D01*
X154491183Y-73996302D01*
X154439339Y-73890252D01*
X154436140Y-73883708D01*
X154439296Y-73882164D01*
X154426845Y-73837382D01*
X154451744Y-73782652D01*
X154505997Y-73756731D01*
X154514479Y-73756321D01*
X157599004Y-73756321D01*
X157655505Y-73776886D01*
G37*
%TD.AperFunction*%
%TD*%
M02*
