%TF.GenerationSoftware,KiCad,Pcbnew,7.0.5*%
%TF.CreationDate,2023-10-11T12:04:12-04:00*%
%TF.ProjectId,Probe,50726f62-652e-46b6-9963-61645f706362,rev?*%
%TF.SameCoordinates,Original*%
%TF.FileFunction,Drillmap*%
%TF.FilePolarity,Positive*%
%FSLAX45Y45*%
G04 Gerber Fmt 4.5, Leading zero omitted, Abs format (unit mm)*
G04 Created by KiCad (PCBNEW 7.0.5) date 2023-10-11 12:04:12*
%MOMM*%
%LPD*%
G01*
G04 APERTURE LIST*
%ADD10C,0.050000*%
%ADD11C,0.200000*%
%ADD12C,0.100000*%
G04 APERTURE END LIST*
D10*
X14000000Y-11150000D02*
X12000000Y-11150000D01*
X12000000Y-9650000D01*
X13200000Y-7450000D01*
X14000000Y-7450000D01*
X14000000Y-11150000D01*
D11*
D12*
X11950000Y-9900000D02*
X12050000Y-10000000D01*
X12050000Y-9900000D02*
X11950000Y-10000000D01*
X11950000Y-10154000D02*
X12050000Y-10254000D01*
X12050000Y-10154000D02*
X11950000Y-10254000D01*
X11950000Y-10650000D02*
X12050000Y-10750000D01*
X12050000Y-10650000D02*
X11950000Y-10750000D01*
X11950000Y-10904000D02*
X12050000Y-11004000D01*
X12050000Y-10904000D02*
X11950000Y-11004000D01*
X12572500Y-9700000D02*
X12672500Y-9800000D01*
X12672500Y-9700000D02*
X12572500Y-9800000D01*
X12826500Y-9700000D02*
X12926500Y-9800000D01*
X12926500Y-9700000D02*
X12826500Y-9800000D01*
D11*
X12258277Y-11463984D02*
X12258277Y-11263984D01*
X12258277Y-11263984D02*
X12305896Y-11263984D01*
X12305896Y-11263984D02*
X12334467Y-11273508D01*
X12334467Y-11273508D02*
X12353515Y-11292555D01*
X12353515Y-11292555D02*
X12363039Y-11311603D01*
X12363039Y-11311603D02*
X12372562Y-11349698D01*
X12372562Y-11349698D02*
X12372562Y-11378269D01*
X12372562Y-11378269D02*
X12363039Y-11416365D01*
X12363039Y-11416365D02*
X12353515Y-11435412D01*
X12353515Y-11435412D02*
X12334467Y-11454460D01*
X12334467Y-11454460D02*
X12305896Y-11463984D01*
X12305896Y-11463984D02*
X12258277Y-11463984D01*
X12458277Y-11463984D02*
X12458277Y-11330650D01*
X12458277Y-11368746D02*
X12467801Y-11349698D01*
X12467801Y-11349698D02*
X12477324Y-11340174D01*
X12477324Y-11340174D02*
X12496372Y-11330650D01*
X12496372Y-11330650D02*
X12515420Y-11330650D01*
X12582086Y-11463984D02*
X12582086Y-11330650D01*
X12582086Y-11263984D02*
X12572562Y-11273508D01*
X12572562Y-11273508D02*
X12582086Y-11283031D01*
X12582086Y-11283031D02*
X12591610Y-11273508D01*
X12591610Y-11273508D02*
X12582086Y-11263984D01*
X12582086Y-11263984D02*
X12582086Y-11283031D01*
X12705896Y-11463984D02*
X12686848Y-11454460D01*
X12686848Y-11454460D02*
X12677324Y-11435412D01*
X12677324Y-11435412D02*
X12677324Y-11263984D01*
X12810658Y-11463984D02*
X12791610Y-11454460D01*
X12791610Y-11454460D02*
X12782086Y-11435412D01*
X12782086Y-11435412D02*
X12782086Y-11263984D01*
X13039229Y-11463984D02*
X13039229Y-11263984D01*
X13039229Y-11263984D02*
X13105896Y-11406841D01*
X13105896Y-11406841D02*
X13172562Y-11263984D01*
X13172562Y-11263984D02*
X13172562Y-11463984D01*
X13353515Y-11463984D02*
X13353515Y-11359222D01*
X13353515Y-11359222D02*
X13343991Y-11340174D01*
X13343991Y-11340174D02*
X13324943Y-11330650D01*
X13324943Y-11330650D02*
X13286848Y-11330650D01*
X13286848Y-11330650D02*
X13267801Y-11340174D01*
X13353515Y-11454460D02*
X13334467Y-11463984D01*
X13334467Y-11463984D02*
X13286848Y-11463984D01*
X13286848Y-11463984D02*
X13267801Y-11454460D01*
X13267801Y-11454460D02*
X13258277Y-11435412D01*
X13258277Y-11435412D02*
X13258277Y-11416365D01*
X13258277Y-11416365D02*
X13267801Y-11397317D01*
X13267801Y-11397317D02*
X13286848Y-11387793D01*
X13286848Y-11387793D02*
X13334467Y-11387793D01*
X13334467Y-11387793D02*
X13353515Y-11378269D01*
X13448753Y-11330650D02*
X13448753Y-11530650D01*
X13448753Y-11340174D02*
X13467801Y-11330650D01*
X13467801Y-11330650D02*
X13505896Y-11330650D01*
X13505896Y-11330650D02*
X13524943Y-11340174D01*
X13524943Y-11340174D02*
X13534467Y-11349698D01*
X13534467Y-11349698D02*
X13543991Y-11368746D01*
X13543991Y-11368746D02*
X13543991Y-11425888D01*
X13543991Y-11425888D02*
X13534467Y-11444936D01*
X13534467Y-11444936D02*
X13524943Y-11454460D01*
X13524943Y-11454460D02*
X13505896Y-11463984D01*
X13505896Y-11463984D02*
X13467801Y-11463984D01*
X13467801Y-11463984D02*
X13448753Y-11454460D01*
X13629705Y-11444936D02*
X13639229Y-11454460D01*
X13639229Y-11454460D02*
X13629705Y-11463984D01*
X13629705Y-11463984D02*
X13620182Y-11454460D01*
X13620182Y-11454460D02*
X13629705Y-11444936D01*
X13629705Y-11444936D02*
X13629705Y-11463984D01*
X13629705Y-11340174D02*
X13639229Y-11349698D01*
X13639229Y-11349698D02*
X13629705Y-11359222D01*
X13629705Y-11359222D02*
X13620182Y-11349698D01*
X13620182Y-11349698D02*
X13629705Y-11340174D01*
X13629705Y-11340174D02*
X13629705Y-11359222D01*
D12*
X11897500Y-11742500D02*
X11997500Y-11842500D01*
X11997500Y-11742500D02*
X11897500Y-11842500D01*
D11*
X12363039Y-11883984D02*
X12248753Y-11883984D01*
X12305896Y-11883984D02*
X12305896Y-11683984D01*
X12305896Y-11683984D02*
X12286848Y-11712555D01*
X12286848Y-11712555D02*
X12267801Y-11731603D01*
X12267801Y-11731603D02*
X12248753Y-11741127D01*
X12448753Y-11864936D02*
X12458277Y-11874460D01*
X12458277Y-11874460D02*
X12448753Y-11883984D01*
X12448753Y-11883984D02*
X12439229Y-11874460D01*
X12439229Y-11874460D02*
X12448753Y-11864936D01*
X12448753Y-11864936D02*
X12448753Y-11883984D01*
X12582086Y-11683984D02*
X12601134Y-11683984D01*
X12601134Y-11683984D02*
X12620182Y-11693508D01*
X12620182Y-11693508D02*
X12629705Y-11703031D01*
X12629705Y-11703031D02*
X12639229Y-11722079D01*
X12639229Y-11722079D02*
X12648753Y-11760174D01*
X12648753Y-11760174D02*
X12648753Y-11807793D01*
X12648753Y-11807793D02*
X12639229Y-11845888D01*
X12639229Y-11845888D02*
X12629705Y-11864936D01*
X12629705Y-11864936D02*
X12620182Y-11874460D01*
X12620182Y-11874460D02*
X12601134Y-11883984D01*
X12601134Y-11883984D02*
X12582086Y-11883984D01*
X12582086Y-11883984D02*
X12563039Y-11874460D01*
X12563039Y-11874460D02*
X12553515Y-11864936D01*
X12553515Y-11864936D02*
X12543991Y-11845888D01*
X12543991Y-11845888D02*
X12534467Y-11807793D01*
X12534467Y-11807793D02*
X12534467Y-11760174D01*
X12534467Y-11760174D02*
X12543991Y-11722079D01*
X12543991Y-11722079D02*
X12553515Y-11703031D01*
X12553515Y-11703031D02*
X12563039Y-11693508D01*
X12563039Y-11693508D02*
X12582086Y-11683984D01*
X12772562Y-11683984D02*
X12791610Y-11683984D01*
X12791610Y-11683984D02*
X12810658Y-11693508D01*
X12810658Y-11693508D02*
X12820182Y-11703031D01*
X12820182Y-11703031D02*
X12829705Y-11722079D01*
X12829705Y-11722079D02*
X12839229Y-11760174D01*
X12839229Y-11760174D02*
X12839229Y-11807793D01*
X12839229Y-11807793D02*
X12829705Y-11845888D01*
X12829705Y-11845888D02*
X12820182Y-11864936D01*
X12820182Y-11864936D02*
X12810658Y-11874460D01*
X12810658Y-11874460D02*
X12791610Y-11883984D01*
X12791610Y-11883984D02*
X12772562Y-11883984D01*
X12772562Y-11883984D02*
X12753515Y-11874460D01*
X12753515Y-11874460D02*
X12743991Y-11864936D01*
X12743991Y-11864936D02*
X12734467Y-11845888D01*
X12734467Y-11845888D02*
X12724943Y-11807793D01*
X12724943Y-11807793D02*
X12724943Y-11760174D01*
X12724943Y-11760174D02*
X12734467Y-11722079D01*
X12734467Y-11722079D02*
X12743991Y-11703031D01*
X12743991Y-11703031D02*
X12753515Y-11693508D01*
X12753515Y-11693508D02*
X12772562Y-11683984D01*
X12963039Y-11683984D02*
X12982086Y-11683984D01*
X12982086Y-11683984D02*
X13001134Y-11693508D01*
X13001134Y-11693508D02*
X13010658Y-11703031D01*
X13010658Y-11703031D02*
X13020182Y-11722079D01*
X13020182Y-11722079D02*
X13029705Y-11760174D01*
X13029705Y-11760174D02*
X13029705Y-11807793D01*
X13029705Y-11807793D02*
X13020182Y-11845888D01*
X13020182Y-11845888D02*
X13010658Y-11864936D01*
X13010658Y-11864936D02*
X13001134Y-11874460D01*
X13001134Y-11874460D02*
X12982086Y-11883984D01*
X12982086Y-11883984D02*
X12963039Y-11883984D01*
X12963039Y-11883984D02*
X12943991Y-11874460D01*
X12943991Y-11874460D02*
X12934467Y-11864936D01*
X12934467Y-11864936D02*
X12924943Y-11845888D01*
X12924943Y-11845888D02*
X12915420Y-11807793D01*
X12915420Y-11807793D02*
X12915420Y-11760174D01*
X12915420Y-11760174D02*
X12924943Y-11722079D01*
X12924943Y-11722079D02*
X12934467Y-11703031D01*
X12934467Y-11703031D02*
X12943991Y-11693508D01*
X12943991Y-11693508D02*
X12963039Y-11683984D01*
X13115420Y-11883984D02*
X13115420Y-11750650D01*
X13115420Y-11769698D02*
X13124943Y-11760174D01*
X13124943Y-11760174D02*
X13143991Y-11750650D01*
X13143991Y-11750650D02*
X13172563Y-11750650D01*
X13172563Y-11750650D02*
X13191610Y-11760174D01*
X13191610Y-11760174D02*
X13201134Y-11779222D01*
X13201134Y-11779222D02*
X13201134Y-11883984D01*
X13201134Y-11779222D02*
X13210658Y-11760174D01*
X13210658Y-11760174D02*
X13229705Y-11750650D01*
X13229705Y-11750650D02*
X13258277Y-11750650D01*
X13258277Y-11750650D02*
X13277324Y-11760174D01*
X13277324Y-11760174D02*
X13286848Y-11779222D01*
X13286848Y-11779222D02*
X13286848Y-11883984D01*
X13382086Y-11883984D02*
X13382086Y-11750650D01*
X13382086Y-11769698D02*
X13391610Y-11760174D01*
X13391610Y-11760174D02*
X13410658Y-11750650D01*
X13410658Y-11750650D02*
X13439229Y-11750650D01*
X13439229Y-11750650D02*
X13458277Y-11760174D01*
X13458277Y-11760174D02*
X13467801Y-11779222D01*
X13467801Y-11779222D02*
X13467801Y-11883984D01*
X13467801Y-11779222D02*
X13477324Y-11760174D01*
X13477324Y-11760174D02*
X13496372Y-11750650D01*
X13496372Y-11750650D02*
X13524943Y-11750650D01*
X13524943Y-11750650D02*
X13543991Y-11760174D01*
X13543991Y-11760174D02*
X13553515Y-11779222D01*
X13553515Y-11779222D02*
X13553515Y-11883984D01*
X13943991Y-11674460D02*
X13772563Y-11931603D01*
X14201134Y-11683984D02*
X14220182Y-11683984D01*
X14220182Y-11683984D02*
X14239229Y-11693508D01*
X14239229Y-11693508D02*
X14248753Y-11703031D01*
X14248753Y-11703031D02*
X14258277Y-11722079D01*
X14258277Y-11722079D02*
X14267801Y-11760174D01*
X14267801Y-11760174D02*
X14267801Y-11807793D01*
X14267801Y-11807793D02*
X14258277Y-11845888D01*
X14258277Y-11845888D02*
X14248753Y-11864936D01*
X14248753Y-11864936D02*
X14239229Y-11874460D01*
X14239229Y-11874460D02*
X14220182Y-11883984D01*
X14220182Y-11883984D02*
X14201134Y-11883984D01*
X14201134Y-11883984D02*
X14182086Y-11874460D01*
X14182086Y-11874460D02*
X14172563Y-11864936D01*
X14172563Y-11864936D02*
X14163039Y-11845888D01*
X14163039Y-11845888D02*
X14153515Y-11807793D01*
X14153515Y-11807793D02*
X14153515Y-11760174D01*
X14153515Y-11760174D02*
X14163039Y-11722079D01*
X14163039Y-11722079D02*
X14172563Y-11703031D01*
X14172563Y-11703031D02*
X14182086Y-11693508D01*
X14182086Y-11693508D02*
X14201134Y-11683984D01*
X14353515Y-11864936D02*
X14363039Y-11874460D01*
X14363039Y-11874460D02*
X14353515Y-11883984D01*
X14353515Y-11883984D02*
X14343991Y-11874460D01*
X14343991Y-11874460D02*
X14353515Y-11864936D01*
X14353515Y-11864936D02*
X14353515Y-11883984D01*
X14486848Y-11683984D02*
X14505896Y-11683984D01*
X14505896Y-11683984D02*
X14524944Y-11693508D01*
X14524944Y-11693508D02*
X14534467Y-11703031D01*
X14534467Y-11703031D02*
X14543991Y-11722079D01*
X14543991Y-11722079D02*
X14553515Y-11760174D01*
X14553515Y-11760174D02*
X14553515Y-11807793D01*
X14553515Y-11807793D02*
X14543991Y-11845888D01*
X14543991Y-11845888D02*
X14534467Y-11864936D01*
X14534467Y-11864936D02*
X14524944Y-11874460D01*
X14524944Y-11874460D02*
X14505896Y-11883984D01*
X14505896Y-11883984D02*
X14486848Y-11883984D01*
X14486848Y-11883984D02*
X14467801Y-11874460D01*
X14467801Y-11874460D02*
X14458277Y-11864936D01*
X14458277Y-11864936D02*
X14448753Y-11845888D01*
X14448753Y-11845888D02*
X14439229Y-11807793D01*
X14439229Y-11807793D02*
X14439229Y-11760174D01*
X14439229Y-11760174D02*
X14448753Y-11722079D01*
X14448753Y-11722079D02*
X14458277Y-11703031D01*
X14458277Y-11703031D02*
X14467801Y-11693508D01*
X14467801Y-11693508D02*
X14486848Y-11683984D01*
X14620182Y-11683984D02*
X14743991Y-11683984D01*
X14743991Y-11683984D02*
X14677325Y-11760174D01*
X14677325Y-11760174D02*
X14705896Y-11760174D01*
X14705896Y-11760174D02*
X14724944Y-11769698D01*
X14724944Y-11769698D02*
X14734467Y-11779222D01*
X14734467Y-11779222D02*
X14743991Y-11798269D01*
X14743991Y-11798269D02*
X14743991Y-11845888D01*
X14743991Y-11845888D02*
X14734467Y-11864936D01*
X14734467Y-11864936D02*
X14724944Y-11874460D01*
X14724944Y-11874460D02*
X14705896Y-11883984D01*
X14705896Y-11883984D02*
X14648753Y-11883984D01*
X14648753Y-11883984D02*
X14629706Y-11874460D01*
X14629706Y-11874460D02*
X14620182Y-11864936D01*
X14839229Y-11883984D02*
X14877325Y-11883984D01*
X14877325Y-11883984D02*
X14896372Y-11874460D01*
X14896372Y-11874460D02*
X14905896Y-11864936D01*
X14905896Y-11864936D02*
X14924944Y-11836365D01*
X14924944Y-11836365D02*
X14934467Y-11798269D01*
X14934467Y-11798269D02*
X14934467Y-11722079D01*
X14934467Y-11722079D02*
X14924944Y-11703031D01*
X14924944Y-11703031D02*
X14915420Y-11693508D01*
X14915420Y-11693508D02*
X14896372Y-11683984D01*
X14896372Y-11683984D02*
X14858277Y-11683984D01*
X14858277Y-11683984D02*
X14839229Y-11693508D01*
X14839229Y-11693508D02*
X14829706Y-11703031D01*
X14829706Y-11703031D02*
X14820182Y-11722079D01*
X14820182Y-11722079D02*
X14820182Y-11769698D01*
X14820182Y-11769698D02*
X14829706Y-11788746D01*
X14829706Y-11788746D02*
X14839229Y-11798269D01*
X14839229Y-11798269D02*
X14858277Y-11807793D01*
X14858277Y-11807793D02*
X14896372Y-11807793D01*
X14896372Y-11807793D02*
X14915420Y-11798269D01*
X14915420Y-11798269D02*
X14924944Y-11788746D01*
X14924944Y-11788746D02*
X14934467Y-11769698D01*
X15105896Y-11750650D02*
X15105896Y-11883984D01*
X15058277Y-11674460D02*
X15010658Y-11817317D01*
X15010658Y-11817317D02*
X15134467Y-11817317D01*
X15201134Y-11683984D02*
X15201134Y-11722079D01*
X15277325Y-11683984D02*
X15277325Y-11722079D01*
X15572563Y-11960174D02*
X15563039Y-11950650D01*
X15563039Y-11950650D02*
X15543991Y-11922079D01*
X15543991Y-11922079D02*
X15534468Y-11903031D01*
X15534468Y-11903031D02*
X15524944Y-11874460D01*
X15524944Y-11874460D02*
X15515420Y-11826841D01*
X15515420Y-11826841D02*
X15515420Y-11788746D01*
X15515420Y-11788746D02*
X15524944Y-11741127D01*
X15524944Y-11741127D02*
X15534468Y-11712555D01*
X15534468Y-11712555D02*
X15543991Y-11693508D01*
X15543991Y-11693508D02*
X15563039Y-11664936D01*
X15563039Y-11664936D02*
X15572563Y-11655412D01*
X15734468Y-11683984D02*
X15696372Y-11683984D01*
X15696372Y-11683984D02*
X15677325Y-11693508D01*
X15677325Y-11693508D02*
X15667801Y-11703031D01*
X15667801Y-11703031D02*
X15648753Y-11731603D01*
X15648753Y-11731603D02*
X15639229Y-11769698D01*
X15639229Y-11769698D02*
X15639229Y-11845888D01*
X15639229Y-11845888D02*
X15648753Y-11864936D01*
X15648753Y-11864936D02*
X15658277Y-11874460D01*
X15658277Y-11874460D02*
X15677325Y-11883984D01*
X15677325Y-11883984D02*
X15715420Y-11883984D01*
X15715420Y-11883984D02*
X15734468Y-11874460D01*
X15734468Y-11874460D02*
X15743991Y-11864936D01*
X15743991Y-11864936D02*
X15753515Y-11845888D01*
X15753515Y-11845888D02*
X15753515Y-11798269D01*
X15753515Y-11798269D02*
X15743991Y-11779222D01*
X15743991Y-11779222D02*
X15734468Y-11769698D01*
X15734468Y-11769698D02*
X15715420Y-11760174D01*
X15715420Y-11760174D02*
X15677325Y-11760174D01*
X15677325Y-11760174D02*
X15658277Y-11769698D01*
X15658277Y-11769698D02*
X15648753Y-11779222D01*
X15648753Y-11779222D02*
X15639229Y-11798269D01*
X15991610Y-11883984D02*
X15991610Y-11683984D01*
X16077325Y-11883984D02*
X16077325Y-11779222D01*
X16077325Y-11779222D02*
X16067801Y-11760174D01*
X16067801Y-11760174D02*
X16048753Y-11750650D01*
X16048753Y-11750650D02*
X16020182Y-11750650D01*
X16020182Y-11750650D02*
X16001134Y-11760174D01*
X16001134Y-11760174D02*
X15991610Y-11769698D01*
X16201134Y-11883984D02*
X16182087Y-11874460D01*
X16182087Y-11874460D02*
X16172563Y-11864936D01*
X16172563Y-11864936D02*
X16163039Y-11845888D01*
X16163039Y-11845888D02*
X16163039Y-11788746D01*
X16163039Y-11788746D02*
X16172563Y-11769698D01*
X16172563Y-11769698D02*
X16182087Y-11760174D01*
X16182087Y-11760174D02*
X16201134Y-11750650D01*
X16201134Y-11750650D02*
X16229706Y-11750650D01*
X16229706Y-11750650D02*
X16248753Y-11760174D01*
X16248753Y-11760174D02*
X16258277Y-11769698D01*
X16258277Y-11769698D02*
X16267801Y-11788746D01*
X16267801Y-11788746D02*
X16267801Y-11845888D01*
X16267801Y-11845888D02*
X16258277Y-11864936D01*
X16258277Y-11864936D02*
X16248753Y-11874460D01*
X16248753Y-11874460D02*
X16229706Y-11883984D01*
X16229706Y-11883984D02*
X16201134Y-11883984D01*
X16382087Y-11883984D02*
X16363039Y-11874460D01*
X16363039Y-11874460D02*
X16353515Y-11855412D01*
X16353515Y-11855412D02*
X16353515Y-11683984D01*
X16534468Y-11874460D02*
X16515420Y-11883984D01*
X16515420Y-11883984D02*
X16477325Y-11883984D01*
X16477325Y-11883984D02*
X16458277Y-11874460D01*
X16458277Y-11874460D02*
X16448753Y-11855412D01*
X16448753Y-11855412D02*
X16448753Y-11779222D01*
X16448753Y-11779222D02*
X16458277Y-11760174D01*
X16458277Y-11760174D02*
X16477325Y-11750650D01*
X16477325Y-11750650D02*
X16515420Y-11750650D01*
X16515420Y-11750650D02*
X16534468Y-11760174D01*
X16534468Y-11760174D02*
X16543991Y-11779222D01*
X16543991Y-11779222D02*
X16543991Y-11798269D01*
X16543991Y-11798269D02*
X16448753Y-11817317D01*
X16620182Y-11874460D02*
X16639230Y-11883984D01*
X16639230Y-11883984D02*
X16677325Y-11883984D01*
X16677325Y-11883984D02*
X16696372Y-11874460D01*
X16696372Y-11874460D02*
X16705896Y-11855412D01*
X16705896Y-11855412D02*
X16705896Y-11845888D01*
X16705896Y-11845888D02*
X16696372Y-11826841D01*
X16696372Y-11826841D02*
X16677325Y-11817317D01*
X16677325Y-11817317D02*
X16648753Y-11817317D01*
X16648753Y-11817317D02*
X16629706Y-11807793D01*
X16629706Y-11807793D02*
X16620182Y-11788746D01*
X16620182Y-11788746D02*
X16620182Y-11779222D01*
X16620182Y-11779222D02*
X16629706Y-11760174D01*
X16629706Y-11760174D02*
X16648753Y-11750650D01*
X16648753Y-11750650D02*
X16677325Y-11750650D01*
X16677325Y-11750650D02*
X16696372Y-11760174D01*
X16772563Y-11960174D02*
X16782087Y-11950650D01*
X16782087Y-11950650D02*
X16801134Y-11922079D01*
X16801134Y-11922079D02*
X16810658Y-11903031D01*
X16810658Y-11903031D02*
X16820182Y-11874460D01*
X16820182Y-11874460D02*
X16829706Y-11826841D01*
X16829706Y-11826841D02*
X16829706Y-11788746D01*
X16829706Y-11788746D02*
X16820182Y-11741127D01*
X16820182Y-11741127D02*
X16810658Y-11712555D01*
X16810658Y-11712555D02*
X16801134Y-11693508D01*
X16801134Y-11693508D02*
X16782087Y-11664936D01*
X16782087Y-11664936D02*
X16772563Y-11655412D01*
M02*
