%TF.GenerationSoftware,KiCad,Pcbnew,7.0.5*%
%TF.CreationDate,2023-10-13T11:31:58-04:00*%
%TF.ProjectId,Probe,50726f62-652e-46b6-9963-61645f706362,rev?*%
%TF.SameCoordinates,PX7270e00PY6a55ae0*%
%TF.FileFunction,Drillmap*%
%TF.FilePolarity,Positive*%
%FSLAX45Y45*%
G04 Gerber Fmt 4.5, Leading zero omitted, Abs format (unit mm)*
G04 Created by KiCad (PCBNEW 7.0.5) date 2023-10-13 11:31:58*
%MOMM*%
%LPD*%
G01*
G04 APERTURE LIST*
%ADD10C,0.050000*%
%ADD11C,0.200000*%
%ADD12C,0.220000*%
G04 APERTURE END LIST*
D10*
X2000000Y0D02*
X0Y0D01*
X0Y1500000D01*
X1200000Y3700000D01*
X2000000Y3700000D01*
X2000000Y0D01*
D11*
D12*
X1490000Y2710000D02*
X1710000Y2490000D01*
X1710000Y2710000D02*
X1490000Y2490000D01*
X1490000Y1810000D02*
X1710000Y1590000D01*
X1710000Y1810000D02*
X1490000Y1590000D01*
X1490000Y910000D02*
X1710000Y690000D01*
X1710000Y910000D02*
X1490000Y690000D01*
D11*
X258277Y-313984D02*
X258277Y-113984D01*
X258277Y-113984D02*
X305896Y-113984D01*
X305896Y-113984D02*
X334467Y-123508D01*
X334467Y-123508D02*
X353515Y-142555D01*
X353515Y-142555D02*
X363039Y-161603D01*
X363039Y-161603D02*
X372562Y-199698D01*
X372562Y-199698D02*
X372562Y-228269D01*
X372562Y-228269D02*
X363039Y-266365D01*
X363039Y-266365D02*
X353515Y-285412D01*
X353515Y-285412D02*
X334467Y-304460D01*
X334467Y-304460D02*
X305896Y-313984D01*
X305896Y-313984D02*
X258277Y-313984D01*
X458277Y-313984D02*
X458277Y-180650D01*
X458277Y-218746D02*
X467801Y-199698D01*
X467801Y-199698D02*
X477324Y-190174D01*
X477324Y-190174D02*
X496372Y-180650D01*
X496372Y-180650D02*
X515420Y-180650D01*
X582086Y-313984D02*
X582086Y-180650D01*
X582086Y-113984D02*
X572563Y-123508D01*
X572563Y-123508D02*
X582086Y-133031D01*
X582086Y-133031D02*
X591610Y-123508D01*
X591610Y-123508D02*
X582086Y-113984D01*
X582086Y-113984D02*
X582086Y-133031D01*
X705896Y-313984D02*
X686848Y-304460D01*
X686848Y-304460D02*
X677324Y-285412D01*
X677324Y-285412D02*
X677324Y-113984D01*
X810658Y-313984D02*
X791610Y-304460D01*
X791610Y-304460D02*
X782086Y-285412D01*
X782086Y-285412D02*
X782086Y-113984D01*
X1039229Y-313984D02*
X1039229Y-113984D01*
X1039229Y-113984D02*
X1105896Y-256841D01*
X1105896Y-256841D02*
X1172563Y-113984D01*
X1172563Y-113984D02*
X1172563Y-313984D01*
X1353515Y-313984D02*
X1353515Y-209222D01*
X1353515Y-209222D02*
X1343991Y-190174D01*
X1343991Y-190174D02*
X1324944Y-180650D01*
X1324944Y-180650D02*
X1286848Y-180650D01*
X1286848Y-180650D02*
X1267801Y-190174D01*
X1353515Y-304460D02*
X1334467Y-313984D01*
X1334467Y-313984D02*
X1286848Y-313984D01*
X1286848Y-313984D02*
X1267801Y-304460D01*
X1267801Y-304460D02*
X1258277Y-285412D01*
X1258277Y-285412D02*
X1258277Y-266365D01*
X1258277Y-266365D02*
X1267801Y-247317D01*
X1267801Y-247317D02*
X1286848Y-237793D01*
X1286848Y-237793D02*
X1334467Y-237793D01*
X1334467Y-237793D02*
X1353515Y-228269D01*
X1448753Y-180650D02*
X1448753Y-380650D01*
X1448753Y-190174D02*
X1467801Y-180650D01*
X1467801Y-180650D02*
X1505896Y-180650D01*
X1505896Y-180650D02*
X1524943Y-190174D01*
X1524943Y-190174D02*
X1534467Y-199698D01*
X1534467Y-199698D02*
X1543991Y-218746D01*
X1543991Y-218746D02*
X1543991Y-275889D01*
X1543991Y-275889D02*
X1534467Y-294936D01*
X1534467Y-294936D02*
X1524943Y-304460D01*
X1524943Y-304460D02*
X1505896Y-313984D01*
X1505896Y-313984D02*
X1467801Y-313984D01*
X1467801Y-313984D02*
X1448753Y-304460D01*
X1629705Y-294936D02*
X1639229Y-304460D01*
X1639229Y-304460D02*
X1629705Y-313984D01*
X1629705Y-313984D02*
X1620182Y-304460D01*
X1620182Y-304460D02*
X1629705Y-294936D01*
X1629705Y-294936D02*
X1629705Y-313984D01*
X1629705Y-190174D02*
X1639229Y-199698D01*
X1639229Y-199698D02*
X1629705Y-209222D01*
X1629705Y-209222D02*
X1620182Y-199698D01*
X1620182Y-199698D02*
X1629705Y-190174D01*
X1629705Y-190174D02*
X1629705Y-209222D01*
X-202500Y-542500D02*
X-2500Y-742500D01*
X-2500Y-542500D02*
X-202500Y-742500D01*
X248753Y-553031D02*
X258277Y-543508D01*
X258277Y-543508D02*
X277324Y-533984D01*
X277324Y-533984D02*
X324944Y-533984D01*
X324944Y-533984D02*
X343991Y-543508D01*
X343991Y-543508D02*
X353515Y-553031D01*
X353515Y-553031D02*
X363039Y-572079D01*
X363039Y-572079D02*
X363039Y-591127D01*
X363039Y-591127D02*
X353515Y-619698D01*
X353515Y-619698D02*
X239229Y-733984D01*
X239229Y-733984D02*
X363039Y-733984D01*
X448753Y-714936D02*
X458277Y-724460D01*
X458277Y-724460D02*
X448753Y-733984D01*
X448753Y-733984D02*
X439229Y-724460D01*
X439229Y-724460D02*
X448753Y-714936D01*
X448753Y-714936D02*
X448753Y-733984D01*
X534467Y-553031D02*
X543991Y-543508D01*
X543991Y-543508D02*
X563039Y-533984D01*
X563039Y-533984D02*
X610658Y-533984D01*
X610658Y-533984D02*
X629705Y-543508D01*
X629705Y-543508D02*
X639229Y-553031D01*
X639229Y-553031D02*
X648753Y-572079D01*
X648753Y-572079D02*
X648753Y-591127D01*
X648753Y-591127D02*
X639229Y-619698D01*
X639229Y-619698D02*
X524944Y-733984D01*
X524944Y-733984D02*
X648753Y-733984D01*
X772562Y-533984D02*
X791610Y-533984D01*
X791610Y-533984D02*
X810658Y-543508D01*
X810658Y-543508D02*
X820182Y-553031D01*
X820182Y-553031D02*
X829705Y-572079D01*
X829705Y-572079D02*
X839229Y-610174D01*
X839229Y-610174D02*
X839229Y-657793D01*
X839229Y-657793D02*
X829705Y-695889D01*
X829705Y-695889D02*
X820182Y-714936D01*
X820182Y-714936D02*
X810658Y-724460D01*
X810658Y-724460D02*
X791610Y-733984D01*
X791610Y-733984D02*
X772562Y-733984D01*
X772562Y-733984D02*
X753515Y-724460D01*
X753515Y-724460D02*
X743991Y-714936D01*
X743991Y-714936D02*
X734467Y-695889D01*
X734467Y-695889D02*
X724943Y-657793D01*
X724943Y-657793D02*
X724943Y-610174D01*
X724943Y-610174D02*
X734467Y-572079D01*
X734467Y-572079D02*
X743991Y-553031D01*
X743991Y-553031D02*
X753515Y-543508D01*
X753515Y-543508D02*
X772562Y-533984D01*
X963039Y-533984D02*
X982086Y-533984D01*
X982086Y-533984D02*
X1001134Y-543508D01*
X1001134Y-543508D02*
X1010658Y-553031D01*
X1010658Y-553031D02*
X1020182Y-572079D01*
X1020182Y-572079D02*
X1029705Y-610174D01*
X1029705Y-610174D02*
X1029705Y-657793D01*
X1029705Y-657793D02*
X1020182Y-695889D01*
X1020182Y-695889D02*
X1010658Y-714936D01*
X1010658Y-714936D02*
X1001134Y-724460D01*
X1001134Y-724460D02*
X982086Y-733984D01*
X982086Y-733984D02*
X963039Y-733984D01*
X963039Y-733984D02*
X943991Y-724460D01*
X943991Y-724460D02*
X934467Y-714936D01*
X934467Y-714936D02*
X924943Y-695889D01*
X924943Y-695889D02*
X915420Y-657793D01*
X915420Y-657793D02*
X915420Y-610174D01*
X915420Y-610174D02*
X924943Y-572079D01*
X924943Y-572079D02*
X934467Y-553031D01*
X934467Y-553031D02*
X943991Y-543508D01*
X943991Y-543508D02*
X963039Y-533984D01*
X1115420Y-733984D02*
X1115420Y-600650D01*
X1115420Y-619698D02*
X1124944Y-610174D01*
X1124944Y-610174D02*
X1143991Y-600650D01*
X1143991Y-600650D02*
X1172563Y-600650D01*
X1172563Y-600650D02*
X1191610Y-610174D01*
X1191610Y-610174D02*
X1201134Y-629222D01*
X1201134Y-629222D02*
X1201134Y-733984D01*
X1201134Y-629222D02*
X1210658Y-610174D01*
X1210658Y-610174D02*
X1229705Y-600650D01*
X1229705Y-600650D02*
X1258277Y-600650D01*
X1258277Y-600650D02*
X1277325Y-610174D01*
X1277325Y-610174D02*
X1286848Y-629222D01*
X1286848Y-629222D02*
X1286848Y-733984D01*
X1382086Y-733984D02*
X1382086Y-600650D01*
X1382086Y-619698D02*
X1391610Y-610174D01*
X1391610Y-610174D02*
X1410658Y-600650D01*
X1410658Y-600650D02*
X1439229Y-600650D01*
X1439229Y-600650D02*
X1458277Y-610174D01*
X1458277Y-610174D02*
X1467801Y-629222D01*
X1467801Y-629222D02*
X1467801Y-733984D01*
X1467801Y-629222D02*
X1477324Y-610174D01*
X1477324Y-610174D02*
X1496372Y-600650D01*
X1496372Y-600650D02*
X1524943Y-600650D01*
X1524943Y-600650D02*
X1543991Y-610174D01*
X1543991Y-610174D02*
X1553515Y-629222D01*
X1553515Y-629222D02*
X1553515Y-733984D01*
X1943991Y-524460D02*
X1772563Y-781603D01*
X2201134Y-533984D02*
X2220182Y-533984D01*
X2220182Y-533984D02*
X2239229Y-543508D01*
X2239229Y-543508D02*
X2248753Y-553031D01*
X2248753Y-553031D02*
X2258277Y-572079D01*
X2258277Y-572079D02*
X2267801Y-610174D01*
X2267801Y-610174D02*
X2267801Y-657793D01*
X2267801Y-657793D02*
X2258277Y-695889D01*
X2258277Y-695889D02*
X2248753Y-714936D01*
X2248753Y-714936D02*
X2239229Y-724460D01*
X2239229Y-724460D02*
X2220182Y-733984D01*
X2220182Y-733984D02*
X2201134Y-733984D01*
X2201134Y-733984D02*
X2182087Y-724460D01*
X2182087Y-724460D02*
X2172563Y-714936D01*
X2172563Y-714936D02*
X2163039Y-695889D01*
X2163039Y-695889D02*
X2153515Y-657793D01*
X2153515Y-657793D02*
X2153515Y-610174D01*
X2153515Y-610174D02*
X2163039Y-572079D01*
X2163039Y-572079D02*
X2172563Y-553031D01*
X2172563Y-553031D02*
X2182087Y-543508D01*
X2182087Y-543508D02*
X2201134Y-533984D01*
X2353515Y-714936D02*
X2363039Y-724460D01*
X2363039Y-724460D02*
X2353515Y-733984D01*
X2353515Y-733984D02*
X2343991Y-724460D01*
X2343991Y-724460D02*
X2353515Y-714936D01*
X2353515Y-714936D02*
X2353515Y-733984D01*
X2486848Y-533984D02*
X2505896Y-533984D01*
X2505896Y-533984D02*
X2524944Y-543508D01*
X2524944Y-543508D02*
X2534468Y-553031D01*
X2534468Y-553031D02*
X2543991Y-572079D01*
X2543991Y-572079D02*
X2553515Y-610174D01*
X2553515Y-610174D02*
X2553515Y-657793D01*
X2553515Y-657793D02*
X2543991Y-695889D01*
X2543991Y-695889D02*
X2534468Y-714936D01*
X2534468Y-714936D02*
X2524944Y-724460D01*
X2524944Y-724460D02*
X2505896Y-733984D01*
X2505896Y-733984D02*
X2486848Y-733984D01*
X2486848Y-733984D02*
X2467801Y-724460D01*
X2467801Y-724460D02*
X2458277Y-714936D01*
X2458277Y-714936D02*
X2448753Y-695889D01*
X2448753Y-695889D02*
X2439229Y-657793D01*
X2439229Y-657793D02*
X2439229Y-610174D01*
X2439229Y-610174D02*
X2448753Y-572079D01*
X2448753Y-572079D02*
X2458277Y-553031D01*
X2458277Y-553031D02*
X2467801Y-543508D01*
X2467801Y-543508D02*
X2486848Y-533984D01*
X2667801Y-619698D02*
X2648753Y-610174D01*
X2648753Y-610174D02*
X2639229Y-600650D01*
X2639229Y-600650D02*
X2629706Y-581603D01*
X2629706Y-581603D02*
X2629706Y-572079D01*
X2629706Y-572079D02*
X2639229Y-553031D01*
X2639229Y-553031D02*
X2648753Y-543508D01*
X2648753Y-543508D02*
X2667801Y-533984D01*
X2667801Y-533984D02*
X2705896Y-533984D01*
X2705896Y-533984D02*
X2724944Y-543508D01*
X2724944Y-543508D02*
X2734468Y-553031D01*
X2734468Y-553031D02*
X2743991Y-572079D01*
X2743991Y-572079D02*
X2743991Y-581603D01*
X2743991Y-581603D02*
X2734468Y-600650D01*
X2734468Y-600650D02*
X2724944Y-610174D01*
X2724944Y-610174D02*
X2705896Y-619698D01*
X2705896Y-619698D02*
X2667801Y-619698D01*
X2667801Y-619698D02*
X2648753Y-629222D01*
X2648753Y-629222D02*
X2639229Y-638746D01*
X2639229Y-638746D02*
X2629706Y-657793D01*
X2629706Y-657793D02*
X2629706Y-695889D01*
X2629706Y-695889D02*
X2639229Y-714936D01*
X2639229Y-714936D02*
X2648753Y-724460D01*
X2648753Y-724460D02*
X2667801Y-733984D01*
X2667801Y-733984D02*
X2705896Y-733984D01*
X2705896Y-733984D02*
X2724944Y-724460D01*
X2724944Y-724460D02*
X2734468Y-714936D01*
X2734468Y-714936D02*
X2743991Y-695889D01*
X2743991Y-695889D02*
X2743991Y-657793D01*
X2743991Y-657793D02*
X2734468Y-638746D01*
X2734468Y-638746D02*
X2724944Y-629222D01*
X2724944Y-629222D02*
X2705896Y-619698D01*
X2915420Y-533984D02*
X2877325Y-533984D01*
X2877325Y-533984D02*
X2858277Y-543508D01*
X2858277Y-543508D02*
X2848753Y-553031D01*
X2848753Y-553031D02*
X2829706Y-581603D01*
X2829706Y-581603D02*
X2820182Y-619698D01*
X2820182Y-619698D02*
X2820182Y-695889D01*
X2820182Y-695889D02*
X2829706Y-714936D01*
X2829706Y-714936D02*
X2839229Y-724460D01*
X2839229Y-724460D02*
X2858277Y-733984D01*
X2858277Y-733984D02*
X2896372Y-733984D01*
X2896372Y-733984D02*
X2915420Y-724460D01*
X2915420Y-724460D02*
X2924944Y-714936D01*
X2924944Y-714936D02*
X2934467Y-695889D01*
X2934467Y-695889D02*
X2934467Y-648270D01*
X2934467Y-648270D02*
X2924944Y-629222D01*
X2924944Y-629222D02*
X2915420Y-619698D01*
X2915420Y-619698D02*
X2896372Y-610174D01*
X2896372Y-610174D02*
X2858277Y-610174D01*
X2858277Y-610174D02*
X2839229Y-619698D01*
X2839229Y-619698D02*
X2829706Y-629222D01*
X2829706Y-629222D02*
X2820182Y-648270D01*
X3105896Y-533984D02*
X3067801Y-533984D01*
X3067801Y-533984D02*
X3048753Y-543508D01*
X3048753Y-543508D02*
X3039229Y-553031D01*
X3039229Y-553031D02*
X3020182Y-581603D01*
X3020182Y-581603D02*
X3010658Y-619698D01*
X3010658Y-619698D02*
X3010658Y-695889D01*
X3010658Y-695889D02*
X3020182Y-714936D01*
X3020182Y-714936D02*
X3029706Y-724460D01*
X3029706Y-724460D02*
X3048753Y-733984D01*
X3048753Y-733984D02*
X3086848Y-733984D01*
X3086848Y-733984D02*
X3105896Y-724460D01*
X3105896Y-724460D02*
X3115420Y-714936D01*
X3115420Y-714936D02*
X3124944Y-695889D01*
X3124944Y-695889D02*
X3124944Y-648270D01*
X3124944Y-648270D02*
X3115420Y-629222D01*
X3115420Y-629222D02*
X3105896Y-619698D01*
X3105896Y-619698D02*
X3086848Y-610174D01*
X3086848Y-610174D02*
X3048753Y-610174D01*
X3048753Y-610174D02*
X3029706Y-619698D01*
X3029706Y-619698D02*
X3020182Y-629222D01*
X3020182Y-629222D02*
X3010658Y-648270D01*
X3201134Y-533984D02*
X3201134Y-572079D01*
X3277325Y-533984D02*
X3277325Y-572079D01*
X3572563Y-810174D02*
X3563039Y-800650D01*
X3563039Y-800650D02*
X3543991Y-772079D01*
X3543991Y-772079D02*
X3534468Y-753031D01*
X3534468Y-753031D02*
X3524944Y-724460D01*
X3524944Y-724460D02*
X3515420Y-676841D01*
X3515420Y-676841D02*
X3515420Y-638746D01*
X3515420Y-638746D02*
X3524944Y-591127D01*
X3524944Y-591127D02*
X3534468Y-562555D01*
X3534468Y-562555D02*
X3543991Y-543508D01*
X3543991Y-543508D02*
X3563039Y-514936D01*
X3563039Y-514936D02*
X3572563Y-505412D01*
X3629706Y-533984D02*
X3753515Y-533984D01*
X3753515Y-533984D02*
X3686848Y-610174D01*
X3686848Y-610174D02*
X3715420Y-610174D01*
X3715420Y-610174D02*
X3734468Y-619698D01*
X3734468Y-619698D02*
X3743991Y-629222D01*
X3743991Y-629222D02*
X3753515Y-648270D01*
X3753515Y-648270D02*
X3753515Y-695889D01*
X3753515Y-695889D02*
X3743991Y-714936D01*
X3743991Y-714936D02*
X3734468Y-724460D01*
X3734468Y-724460D02*
X3715420Y-733984D01*
X3715420Y-733984D02*
X3658277Y-733984D01*
X3658277Y-733984D02*
X3639229Y-724460D01*
X3639229Y-724460D02*
X3629706Y-714936D01*
X3991610Y-733984D02*
X3991610Y-533984D01*
X4077325Y-733984D02*
X4077325Y-629222D01*
X4077325Y-629222D02*
X4067801Y-610174D01*
X4067801Y-610174D02*
X4048753Y-600650D01*
X4048753Y-600650D02*
X4020182Y-600650D01*
X4020182Y-600650D02*
X4001134Y-610174D01*
X4001134Y-610174D02*
X3991610Y-619698D01*
X4201134Y-733984D02*
X4182087Y-724460D01*
X4182087Y-724460D02*
X4172563Y-714936D01*
X4172563Y-714936D02*
X4163039Y-695889D01*
X4163039Y-695889D02*
X4163039Y-638746D01*
X4163039Y-638746D02*
X4172563Y-619698D01*
X4172563Y-619698D02*
X4182087Y-610174D01*
X4182087Y-610174D02*
X4201134Y-600650D01*
X4201134Y-600650D02*
X4229706Y-600650D01*
X4229706Y-600650D02*
X4248753Y-610174D01*
X4248753Y-610174D02*
X4258277Y-619698D01*
X4258277Y-619698D02*
X4267801Y-638746D01*
X4267801Y-638746D02*
X4267801Y-695889D01*
X4267801Y-695889D02*
X4258277Y-714936D01*
X4258277Y-714936D02*
X4248753Y-724460D01*
X4248753Y-724460D02*
X4229706Y-733984D01*
X4229706Y-733984D02*
X4201134Y-733984D01*
X4382087Y-733984D02*
X4363039Y-724460D01*
X4363039Y-724460D02*
X4353515Y-705412D01*
X4353515Y-705412D02*
X4353515Y-533984D01*
X4534468Y-724460D02*
X4515420Y-733984D01*
X4515420Y-733984D02*
X4477325Y-733984D01*
X4477325Y-733984D02*
X4458277Y-724460D01*
X4458277Y-724460D02*
X4448753Y-705412D01*
X4448753Y-705412D02*
X4448753Y-629222D01*
X4448753Y-629222D02*
X4458277Y-610174D01*
X4458277Y-610174D02*
X4477325Y-600650D01*
X4477325Y-600650D02*
X4515420Y-600650D01*
X4515420Y-600650D02*
X4534468Y-610174D01*
X4534468Y-610174D02*
X4543992Y-629222D01*
X4543992Y-629222D02*
X4543992Y-648270D01*
X4543992Y-648270D02*
X4448753Y-667317D01*
X4620182Y-724460D02*
X4639230Y-733984D01*
X4639230Y-733984D02*
X4677325Y-733984D01*
X4677325Y-733984D02*
X4696373Y-724460D01*
X4696373Y-724460D02*
X4705896Y-705412D01*
X4705896Y-705412D02*
X4705896Y-695889D01*
X4705896Y-695889D02*
X4696373Y-676841D01*
X4696373Y-676841D02*
X4677325Y-667317D01*
X4677325Y-667317D02*
X4648753Y-667317D01*
X4648753Y-667317D02*
X4629706Y-657793D01*
X4629706Y-657793D02*
X4620182Y-638746D01*
X4620182Y-638746D02*
X4620182Y-629222D01*
X4620182Y-629222D02*
X4629706Y-610174D01*
X4629706Y-610174D02*
X4648753Y-600650D01*
X4648753Y-600650D02*
X4677325Y-600650D01*
X4677325Y-600650D02*
X4696373Y-610174D01*
X4772563Y-810174D02*
X4782087Y-800650D01*
X4782087Y-800650D02*
X4801134Y-772079D01*
X4801134Y-772079D02*
X4810658Y-753031D01*
X4810658Y-753031D02*
X4820182Y-724460D01*
X4820182Y-724460D02*
X4829706Y-676841D01*
X4829706Y-676841D02*
X4829706Y-638746D01*
X4829706Y-638746D02*
X4820182Y-591127D01*
X4820182Y-591127D02*
X4810658Y-562555D01*
X4810658Y-562555D02*
X4801134Y-543508D01*
X4801134Y-543508D02*
X4782087Y-514936D01*
X4782087Y-514936D02*
X4772563Y-505412D01*
X5134468Y-810174D02*
X5124944Y-800650D01*
X5124944Y-800650D02*
X5105896Y-772079D01*
X5105896Y-772079D02*
X5096373Y-753031D01*
X5096373Y-753031D02*
X5086849Y-724460D01*
X5086849Y-724460D02*
X5077325Y-676841D01*
X5077325Y-676841D02*
X5077325Y-638746D01*
X5077325Y-638746D02*
X5086849Y-591127D01*
X5086849Y-591127D02*
X5096373Y-562555D01*
X5096373Y-562555D02*
X5105896Y-543508D01*
X5105896Y-543508D02*
X5124944Y-514936D01*
X5124944Y-514936D02*
X5134468Y-505412D01*
X5210658Y-600650D02*
X5210658Y-733984D01*
X5210658Y-619698D02*
X5220182Y-610174D01*
X5220182Y-610174D02*
X5239230Y-600650D01*
X5239230Y-600650D02*
X5267801Y-600650D01*
X5267801Y-600650D02*
X5286849Y-610174D01*
X5286849Y-610174D02*
X5296373Y-629222D01*
X5296373Y-629222D02*
X5296373Y-733984D01*
X5420182Y-733984D02*
X5401134Y-724460D01*
X5401134Y-724460D02*
X5391611Y-714936D01*
X5391611Y-714936D02*
X5382087Y-695889D01*
X5382087Y-695889D02*
X5382087Y-638746D01*
X5382087Y-638746D02*
X5391611Y-619698D01*
X5391611Y-619698D02*
X5401134Y-610174D01*
X5401134Y-610174D02*
X5420182Y-600650D01*
X5420182Y-600650D02*
X5448754Y-600650D01*
X5448754Y-600650D02*
X5467801Y-610174D01*
X5467801Y-610174D02*
X5477325Y-619698D01*
X5477325Y-619698D02*
X5486849Y-638746D01*
X5486849Y-638746D02*
X5486849Y-695889D01*
X5486849Y-695889D02*
X5477325Y-714936D01*
X5477325Y-714936D02*
X5467801Y-724460D01*
X5467801Y-724460D02*
X5448754Y-733984D01*
X5448754Y-733984D02*
X5420182Y-733984D01*
X5543992Y-600650D02*
X5620182Y-600650D01*
X5572563Y-533984D02*
X5572563Y-705412D01*
X5572563Y-705412D02*
X5582087Y-724460D01*
X5582087Y-724460D02*
X5601134Y-733984D01*
X5601134Y-733984D02*
X5620182Y-733984D01*
X5839230Y-600650D02*
X5839230Y-800650D01*
X5839230Y-610174D02*
X5858277Y-600650D01*
X5858277Y-600650D02*
X5896373Y-600650D01*
X5896373Y-600650D02*
X5915420Y-610174D01*
X5915420Y-610174D02*
X5924944Y-619698D01*
X5924944Y-619698D02*
X5934468Y-638746D01*
X5934468Y-638746D02*
X5934468Y-695889D01*
X5934468Y-695889D02*
X5924944Y-714936D01*
X5924944Y-714936D02*
X5915420Y-724460D01*
X5915420Y-724460D02*
X5896373Y-733984D01*
X5896373Y-733984D02*
X5858277Y-733984D01*
X5858277Y-733984D02*
X5839230Y-724460D01*
X6048753Y-733984D02*
X6029706Y-724460D01*
X6029706Y-724460D02*
X6020182Y-705412D01*
X6020182Y-705412D02*
X6020182Y-533984D01*
X6210658Y-733984D02*
X6210658Y-629222D01*
X6210658Y-629222D02*
X6201134Y-610174D01*
X6201134Y-610174D02*
X6182087Y-600650D01*
X6182087Y-600650D02*
X6143992Y-600650D01*
X6143992Y-600650D02*
X6124944Y-610174D01*
X6210658Y-724460D02*
X6191611Y-733984D01*
X6191611Y-733984D02*
X6143992Y-733984D01*
X6143992Y-733984D02*
X6124944Y-724460D01*
X6124944Y-724460D02*
X6115420Y-705412D01*
X6115420Y-705412D02*
X6115420Y-686365D01*
X6115420Y-686365D02*
X6124944Y-667317D01*
X6124944Y-667317D02*
X6143992Y-657793D01*
X6143992Y-657793D02*
X6191611Y-657793D01*
X6191611Y-657793D02*
X6210658Y-648270D01*
X6277325Y-600650D02*
X6353515Y-600650D01*
X6305896Y-533984D02*
X6305896Y-705412D01*
X6305896Y-705412D02*
X6315420Y-724460D01*
X6315420Y-724460D02*
X6334468Y-733984D01*
X6334468Y-733984D02*
X6353515Y-733984D01*
X6496373Y-724460D02*
X6477325Y-733984D01*
X6477325Y-733984D02*
X6439230Y-733984D01*
X6439230Y-733984D02*
X6420182Y-724460D01*
X6420182Y-724460D02*
X6410658Y-705412D01*
X6410658Y-705412D02*
X6410658Y-629222D01*
X6410658Y-629222D02*
X6420182Y-610174D01*
X6420182Y-610174D02*
X6439230Y-600650D01*
X6439230Y-600650D02*
X6477325Y-600650D01*
X6477325Y-600650D02*
X6496373Y-610174D01*
X6496373Y-610174D02*
X6505896Y-629222D01*
X6505896Y-629222D02*
X6505896Y-648270D01*
X6505896Y-648270D02*
X6410658Y-667317D01*
X6677325Y-733984D02*
X6677325Y-533984D01*
X6677325Y-724460D02*
X6658277Y-733984D01*
X6658277Y-733984D02*
X6620182Y-733984D01*
X6620182Y-733984D02*
X6601134Y-724460D01*
X6601134Y-724460D02*
X6591611Y-714936D01*
X6591611Y-714936D02*
X6582087Y-695889D01*
X6582087Y-695889D02*
X6582087Y-638746D01*
X6582087Y-638746D02*
X6591611Y-619698D01*
X6591611Y-619698D02*
X6601134Y-610174D01*
X6601134Y-610174D02*
X6620182Y-600650D01*
X6620182Y-600650D02*
X6658277Y-600650D01*
X6658277Y-600650D02*
X6677325Y-610174D01*
X6753515Y-810174D02*
X6763039Y-800650D01*
X6763039Y-800650D02*
X6782087Y-772079D01*
X6782087Y-772079D02*
X6791611Y-753031D01*
X6791611Y-753031D02*
X6801134Y-724460D01*
X6801134Y-724460D02*
X6810658Y-676841D01*
X6810658Y-676841D02*
X6810658Y-638746D01*
X6810658Y-638746D02*
X6801134Y-591127D01*
X6801134Y-591127D02*
X6791611Y-562555D01*
X6791611Y-562555D02*
X6782087Y-543508D01*
X6782087Y-543508D02*
X6763039Y-514936D01*
X6763039Y-514936D02*
X6753515Y-505412D01*
M02*
