%TF.GenerationSoftware,KiCad,Pcbnew,7.0.5*%
%TF.CreationDate,2023-10-13T11:31:58-04:00*%
%TF.ProjectId,Probe,50726f62-652e-46b6-9963-61645f706362,rev?*%
%TF.SameCoordinates,PX7270e00PY6a55ae0*%
%TF.FileFunction,Drillmap*%
%TF.FilePolarity,Positive*%
%FSLAX45Y45*%
G04 Gerber Fmt 4.5, Leading zero omitted, Abs format (unit mm)*
G04 Created by KiCad (PCBNEW 7.0.5) date 2023-10-13 11:31:58*
%MOMM*%
%LPD*%
G01*
G04 APERTURE LIST*
%ADD10C,0.050000*%
%ADD11C,0.200000*%
%ADD12C,0.100000*%
G04 APERTURE END LIST*
D10*
X2000000Y0D02*
X0Y0D01*
X0Y1500000D01*
X1200000Y3700000D01*
X2000000Y3700000D01*
X2000000Y0D01*
D11*
D12*
X-50000Y1250000D02*
X50000Y1150000D01*
X50000Y1250000D02*
X-50000Y1150000D01*
X-50000Y996000D02*
X50000Y896000D01*
X50000Y996000D02*
X-50000Y896000D01*
X-50000Y500000D02*
X50000Y400000D01*
X50000Y500000D02*
X-50000Y400000D01*
X-50000Y246000D02*
X50000Y146000D01*
X50000Y246000D02*
X-50000Y146000D01*
X572500Y1450000D02*
X672500Y1350000D01*
X672500Y1450000D02*
X572500Y1350000D01*
X826500Y1450000D02*
X926500Y1350000D01*
X926500Y1450000D02*
X826500Y1350000D01*
D11*
X258277Y-313984D02*
X258277Y-113984D01*
X258277Y-113984D02*
X305896Y-113984D01*
X305896Y-113984D02*
X334467Y-123508D01*
X334467Y-123508D02*
X353515Y-142555D01*
X353515Y-142555D02*
X363039Y-161603D01*
X363039Y-161603D02*
X372562Y-199698D01*
X372562Y-199698D02*
X372562Y-228269D01*
X372562Y-228269D02*
X363039Y-266365D01*
X363039Y-266365D02*
X353515Y-285412D01*
X353515Y-285412D02*
X334467Y-304460D01*
X334467Y-304460D02*
X305896Y-313984D01*
X305896Y-313984D02*
X258277Y-313984D01*
X458277Y-313984D02*
X458277Y-180650D01*
X458277Y-218746D02*
X467801Y-199698D01*
X467801Y-199698D02*
X477324Y-190174D01*
X477324Y-190174D02*
X496372Y-180650D01*
X496372Y-180650D02*
X515420Y-180650D01*
X582086Y-313984D02*
X582086Y-180650D01*
X582086Y-113984D02*
X572563Y-123508D01*
X572563Y-123508D02*
X582086Y-133031D01*
X582086Y-133031D02*
X591610Y-123508D01*
X591610Y-123508D02*
X582086Y-113984D01*
X582086Y-113984D02*
X582086Y-133031D01*
X705896Y-313984D02*
X686848Y-304460D01*
X686848Y-304460D02*
X677324Y-285412D01*
X677324Y-285412D02*
X677324Y-113984D01*
X810658Y-313984D02*
X791610Y-304460D01*
X791610Y-304460D02*
X782086Y-285412D01*
X782086Y-285412D02*
X782086Y-113984D01*
X1039229Y-313984D02*
X1039229Y-113984D01*
X1039229Y-113984D02*
X1105896Y-256841D01*
X1105896Y-256841D02*
X1172563Y-113984D01*
X1172563Y-113984D02*
X1172563Y-313984D01*
X1353515Y-313984D02*
X1353515Y-209222D01*
X1353515Y-209222D02*
X1343991Y-190174D01*
X1343991Y-190174D02*
X1324944Y-180650D01*
X1324944Y-180650D02*
X1286848Y-180650D01*
X1286848Y-180650D02*
X1267801Y-190174D01*
X1353515Y-304460D02*
X1334467Y-313984D01*
X1334467Y-313984D02*
X1286848Y-313984D01*
X1286848Y-313984D02*
X1267801Y-304460D01*
X1267801Y-304460D02*
X1258277Y-285412D01*
X1258277Y-285412D02*
X1258277Y-266365D01*
X1258277Y-266365D02*
X1267801Y-247317D01*
X1267801Y-247317D02*
X1286848Y-237793D01*
X1286848Y-237793D02*
X1334467Y-237793D01*
X1334467Y-237793D02*
X1353515Y-228269D01*
X1448753Y-180650D02*
X1448753Y-380650D01*
X1448753Y-190174D02*
X1467801Y-180650D01*
X1467801Y-180650D02*
X1505896Y-180650D01*
X1505896Y-180650D02*
X1524943Y-190174D01*
X1524943Y-190174D02*
X1534467Y-199698D01*
X1534467Y-199698D02*
X1543991Y-218746D01*
X1543991Y-218746D02*
X1543991Y-275889D01*
X1543991Y-275889D02*
X1534467Y-294936D01*
X1534467Y-294936D02*
X1524943Y-304460D01*
X1524943Y-304460D02*
X1505896Y-313984D01*
X1505896Y-313984D02*
X1467801Y-313984D01*
X1467801Y-313984D02*
X1448753Y-304460D01*
X1629705Y-294936D02*
X1639229Y-304460D01*
X1639229Y-304460D02*
X1629705Y-313984D01*
X1629705Y-313984D02*
X1620182Y-304460D01*
X1620182Y-304460D02*
X1629705Y-294936D01*
X1629705Y-294936D02*
X1629705Y-313984D01*
X1629705Y-190174D02*
X1639229Y-199698D01*
X1639229Y-199698D02*
X1629705Y-209222D01*
X1629705Y-209222D02*
X1620182Y-199698D01*
X1620182Y-199698D02*
X1629705Y-190174D01*
X1629705Y-190174D02*
X1629705Y-209222D01*
D12*
X-102500Y-592500D02*
X-2500Y-692500D01*
X-2500Y-592500D02*
X-102500Y-692500D01*
D11*
X363039Y-733984D02*
X248753Y-733984D01*
X305896Y-733984D02*
X305896Y-533984D01*
X305896Y-533984D02*
X286848Y-562555D01*
X286848Y-562555D02*
X267801Y-581603D01*
X267801Y-581603D02*
X248753Y-591127D01*
X448753Y-714936D02*
X458277Y-724460D01*
X458277Y-724460D02*
X448753Y-733984D01*
X448753Y-733984D02*
X439229Y-724460D01*
X439229Y-724460D02*
X448753Y-714936D01*
X448753Y-714936D02*
X448753Y-733984D01*
X582086Y-533984D02*
X601134Y-533984D01*
X601134Y-533984D02*
X620182Y-543508D01*
X620182Y-543508D02*
X629705Y-553031D01*
X629705Y-553031D02*
X639229Y-572079D01*
X639229Y-572079D02*
X648753Y-610174D01*
X648753Y-610174D02*
X648753Y-657793D01*
X648753Y-657793D02*
X639229Y-695889D01*
X639229Y-695889D02*
X629705Y-714936D01*
X629705Y-714936D02*
X620182Y-724460D01*
X620182Y-724460D02*
X601134Y-733984D01*
X601134Y-733984D02*
X582086Y-733984D01*
X582086Y-733984D02*
X563039Y-724460D01*
X563039Y-724460D02*
X553515Y-714936D01*
X553515Y-714936D02*
X543991Y-695889D01*
X543991Y-695889D02*
X534467Y-657793D01*
X534467Y-657793D02*
X534467Y-610174D01*
X534467Y-610174D02*
X543991Y-572079D01*
X543991Y-572079D02*
X553515Y-553031D01*
X553515Y-553031D02*
X563039Y-543508D01*
X563039Y-543508D02*
X582086Y-533984D01*
X772562Y-533984D02*
X791610Y-533984D01*
X791610Y-533984D02*
X810658Y-543508D01*
X810658Y-543508D02*
X820182Y-553031D01*
X820182Y-553031D02*
X829705Y-572079D01*
X829705Y-572079D02*
X839229Y-610174D01*
X839229Y-610174D02*
X839229Y-657793D01*
X839229Y-657793D02*
X829705Y-695889D01*
X829705Y-695889D02*
X820182Y-714936D01*
X820182Y-714936D02*
X810658Y-724460D01*
X810658Y-724460D02*
X791610Y-733984D01*
X791610Y-733984D02*
X772562Y-733984D01*
X772562Y-733984D02*
X753515Y-724460D01*
X753515Y-724460D02*
X743991Y-714936D01*
X743991Y-714936D02*
X734467Y-695889D01*
X734467Y-695889D02*
X724943Y-657793D01*
X724943Y-657793D02*
X724943Y-610174D01*
X724943Y-610174D02*
X734467Y-572079D01*
X734467Y-572079D02*
X743991Y-553031D01*
X743991Y-553031D02*
X753515Y-543508D01*
X753515Y-543508D02*
X772562Y-533984D01*
X963039Y-533984D02*
X982086Y-533984D01*
X982086Y-533984D02*
X1001134Y-543508D01*
X1001134Y-543508D02*
X1010658Y-553031D01*
X1010658Y-553031D02*
X1020182Y-572079D01*
X1020182Y-572079D02*
X1029705Y-610174D01*
X1029705Y-610174D02*
X1029705Y-657793D01*
X1029705Y-657793D02*
X1020182Y-695889D01*
X1020182Y-695889D02*
X1010658Y-714936D01*
X1010658Y-714936D02*
X1001134Y-724460D01*
X1001134Y-724460D02*
X982086Y-733984D01*
X982086Y-733984D02*
X963039Y-733984D01*
X963039Y-733984D02*
X943991Y-724460D01*
X943991Y-724460D02*
X934467Y-714936D01*
X934467Y-714936D02*
X924943Y-695889D01*
X924943Y-695889D02*
X915420Y-657793D01*
X915420Y-657793D02*
X915420Y-610174D01*
X915420Y-610174D02*
X924943Y-572079D01*
X924943Y-572079D02*
X934467Y-553031D01*
X934467Y-553031D02*
X943991Y-543508D01*
X943991Y-543508D02*
X963039Y-533984D01*
X1115420Y-733984D02*
X1115420Y-600650D01*
X1115420Y-619698D02*
X1124944Y-610174D01*
X1124944Y-610174D02*
X1143991Y-600650D01*
X1143991Y-600650D02*
X1172563Y-600650D01*
X1172563Y-600650D02*
X1191610Y-610174D01*
X1191610Y-610174D02*
X1201134Y-629222D01*
X1201134Y-629222D02*
X1201134Y-733984D01*
X1201134Y-629222D02*
X1210658Y-610174D01*
X1210658Y-610174D02*
X1229705Y-600650D01*
X1229705Y-600650D02*
X1258277Y-600650D01*
X1258277Y-600650D02*
X1277325Y-610174D01*
X1277325Y-610174D02*
X1286848Y-629222D01*
X1286848Y-629222D02*
X1286848Y-733984D01*
X1382086Y-733984D02*
X1382086Y-600650D01*
X1382086Y-619698D02*
X1391610Y-610174D01*
X1391610Y-610174D02*
X1410658Y-600650D01*
X1410658Y-600650D02*
X1439229Y-600650D01*
X1439229Y-600650D02*
X1458277Y-610174D01*
X1458277Y-610174D02*
X1467801Y-629222D01*
X1467801Y-629222D02*
X1467801Y-733984D01*
X1467801Y-629222D02*
X1477324Y-610174D01*
X1477324Y-610174D02*
X1496372Y-600650D01*
X1496372Y-600650D02*
X1524943Y-600650D01*
X1524943Y-600650D02*
X1543991Y-610174D01*
X1543991Y-610174D02*
X1553515Y-629222D01*
X1553515Y-629222D02*
X1553515Y-733984D01*
X1943991Y-524460D02*
X1772563Y-781603D01*
X2201134Y-533984D02*
X2220182Y-533984D01*
X2220182Y-533984D02*
X2239229Y-543508D01*
X2239229Y-543508D02*
X2248753Y-553031D01*
X2248753Y-553031D02*
X2258277Y-572079D01*
X2258277Y-572079D02*
X2267801Y-610174D01*
X2267801Y-610174D02*
X2267801Y-657793D01*
X2267801Y-657793D02*
X2258277Y-695889D01*
X2258277Y-695889D02*
X2248753Y-714936D01*
X2248753Y-714936D02*
X2239229Y-724460D01*
X2239229Y-724460D02*
X2220182Y-733984D01*
X2220182Y-733984D02*
X2201134Y-733984D01*
X2201134Y-733984D02*
X2182087Y-724460D01*
X2182087Y-724460D02*
X2172563Y-714936D01*
X2172563Y-714936D02*
X2163039Y-695889D01*
X2163039Y-695889D02*
X2153515Y-657793D01*
X2153515Y-657793D02*
X2153515Y-610174D01*
X2153515Y-610174D02*
X2163039Y-572079D01*
X2163039Y-572079D02*
X2172563Y-553031D01*
X2172563Y-553031D02*
X2182087Y-543508D01*
X2182087Y-543508D02*
X2201134Y-533984D01*
X2353515Y-714936D02*
X2363039Y-724460D01*
X2363039Y-724460D02*
X2353515Y-733984D01*
X2353515Y-733984D02*
X2343991Y-724460D01*
X2343991Y-724460D02*
X2353515Y-714936D01*
X2353515Y-714936D02*
X2353515Y-733984D01*
X2486848Y-533984D02*
X2505896Y-533984D01*
X2505896Y-533984D02*
X2524944Y-543508D01*
X2524944Y-543508D02*
X2534468Y-553031D01*
X2534468Y-553031D02*
X2543991Y-572079D01*
X2543991Y-572079D02*
X2553515Y-610174D01*
X2553515Y-610174D02*
X2553515Y-657793D01*
X2553515Y-657793D02*
X2543991Y-695889D01*
X2543991Y-695889D02*
X2534468Y-714936D01*
X2534468Y-714936D02*
X2524944Y-724460D01*
X2524944Y-724460D02*
X2505896Y-733984D01*
X2505896Y-733984D02*
X2486848Y-733984D01*
X2486848Y-733984D02*
X2467801Y-724460D01*
X2467801Y-724460D02*
X2458277Y-714936D01*
X2458277Y-714936D02*
X2448753Y-695889D01*
X2448753Y-695889D02*
X2439229Y-657793D01*
X2439229Y-657793D02*
X2439229Y-610174D01*
X2439229Y-610174D02*
X2448753Y-572079D01*
X2448753Y-572079D02*
X2458277Y-553031D01*
X2458277Y-553031D02*
X2467801Y-543508D01*
X2467801Y-543508D02*
X2486848Y-533984D01*
X2620182Y-533984D02*
X2743991Y-533984D01*
X2743991Y-533984D02*
X2677325Y-610174D01*
X2677325Y-610174D02*
X2705896Y-610174D01*
X2705896Y-610174D02*
X2724944Y-619698D01*
X2724944Y-619698D02*
X2734468Y-629222D01*
X2734468Y-629222D02*
X2743991Y-648270D01*
X2743991Y-648270D02*
X2743991Y-695889D01*
X2743991Y-695889D02*
X2734468Y-714936D01*
X2734468Y-714936D02*
X2724944Y-724460D01*
X2724944Y-724460D02*
X2705896Y-733984D01*
X2705896Y-733984D02*
X2648753Y-733984D01*
X2648753Y-733984D02*
X2629706Y-724460D01*
X2629706Y-724460D02*
X2620182Y-714936D01*
X2839229Y-733984D02*
X2877325Y-733984D01*
X2877325Y-733984D02*
X2896372Y-724460D01*
X2896372Y-724460D02*
X2905896Y-714936D01*
X2905896Y-714936D02*
X2924944Y-686365D01*
X2924944Y-686365D02*
X2934467Y-648270D01*
X2934467Y-648270D02*
X2934467Y-572079D01*
X2934467Y-572079D02*
X2924944Y-553031D01*
X2924944Y-553031D02*
X2915420Y-543508D01*
X2915420Y-543508D02*
X2896372Y-533984D01*
X2896372Y-533984D02*
X2858277Y-533984D01*
X2858277Y-533984D02*
X2839229Y-543508D01*
X2839229Y-543508D02*
X2829706Y-553031D01*
X2829706Y-553031D02*
X2820182Y-572079D01*
X2820182Y-572079D02*
X2820182Y-619698D01*
X2820182Y-619698D02*
X2829706Y-638746D01*
X2829706Y-638746D02*
X2839229Y-648270D01*
X2839229Y-648270D02*
X2858277Y-657793D01*
X2858277Y-657793D02*
X2896372Y-657793D01*
X2896372Y-657793D02*
X2915420Y-648270D01*
X2915420Y-648270D02*
X2924944Y-638746D01*
X2924944Y-638746D02*
X2934467Y-619698D01*
X3105896Y-600650D02*
X3105896Y-733984D01*
X3058277Y-524460D02*
X3010658Y-667317D01*
X3010658Y-667317D02*
X3134467Y-667317D01*
X3201134Y-533984D02*
X3201134Y-572079D01*
X3277325Y-533984D02*
X3277325Y-572079D01*
X3572563Y-810174D02*
X3563039Y-800650D01*
X3563039Y-800650D02*
X3543991Y-772079D01*
X3543991Y-772079D02*
X3534468Y-753031D01*
X3534468Y-753031D02*
X3524944Y-724460D01*
X3524944Y-724460D02*
X3515420Y-676841D01*
X3515420Y-676841D02*
X3515420Y-638746D01*
X3515420Y-638746D02*
X3524944Y-591127D01*
X3524944Y-591127D02*
X3534468Y-562555D01*
X3534468Y-562555D02*
X3543991Y-543508D01*
X3543991Y-543508D02*
X3563039Y-514936D01*
X3563039Y-514936D02*
X3572563Y-505412D01*
X3734468Y-533984D02*
X3696372Y-533984D01*
X3696372Y-533984D02*
X3677325Y-543508D01*
X3677325Y-543508D02*
X3667801Y-553031D01*
X3667801Y-553031D02*
X3648753Y-581603D01*
X3648753Y-581603D02*
X3639229Y-619698D01*
X3639229Y-619698D02*
X3639229Y-695889D01*
X3639229Y-695889D02*
X3648753Y-714936D01*
X3648753Y-714936D02*
X3658277Y-724460D01*
X3658277Y-724460D02*
X3677325Y-733984D01*
X3677325Y-733984D02*
X3715420Y-733984D01*
X3715420Y-733984D02*
X3734468Y-724460D01*
X3734468Y-724460D02*
X3743991Y-714936D01*
X3743991Y-714936D02*
X3753515Y-695889D01*
X3753515Y-695889D02*
X3753515Y-648270D01*
X3753515Y-648270D02*
X3743991Y-629222D01*
X3743991Y-629222D02*
X3734468Y-619698D01*
X3734468Y-619698D02*
X3715420Y-610174D01*
X3715420Y-610174D02*
X3677325Y-610174D01*
X3677325Y-610174D02*
X3658277Y-619698D01*
X3658277Y-619698D02*
X3648753Y-629222D01*
X3648753Y-629222D02*
X3639229Y-648270D01*
X3991610Y-733984D02*
X3991610Y-533984D01*
X4077325Y-733984D02*
X4077325Y-629222D01*
X4077325Y-629222D02*
X4067801Y-610174D01*
X4067801Y-610174D02*
X4048753Y-600650D01*
X4048753Y-600650D02*
X4020182Y-600650D01*
X4020182Y-600650D02*
X4001134Y-610174D01*
X4001134Y-610174D02*
X3991610Y-619698D01*
X4201134Y-733984D02*
X4182087Y-724460D01*
X4182087Y-724460D02*
X4172563Y-714936D01*
X4172563Y-714936D02*
X4163039Y-695889D01*
X4163039Y-695889D02*
X4163039Y-638746D01*
X4163039Y-638746D02*
X4172563Y-619698D01*
X4172563Y-619698D02*
X4182087Y-610174D01*
X4182087Y-610174D02*
X4201134Y-600650D01*
X4201134Y-600650D02*
X4229706Y-600650D01*
X4229706Y-600650D02*
X4248753Y-610174D01*
X4248753Y-610174D02*
X4258277Y-619698D01*
X4258277Y-619698D02*
X4267801Y-638746D01*
X4267801Y-638746D02*
X4267801Y-695889D01*
X4267801Y-695889D02*
X4258277Y-714936D01*
X4258277Y-714936D02*
X4248753Y-724460D01*
X4248753Y-724460D02*
X4229706Y-733984D01*
X4229706Y-733984D02*
X4201134Y-733984D01*
X4382087Y-733984D02*
X4363039Y-724460D01*
X4363039Y-724460D02*
X4353515Y-705412D01*
X4353515Y-705412D02*
X4353515Y-533984D01*
X4534468Y-724460D02*
X4515420Y-733984D01*
X4515420Y-733984D02*
X4477325Y-733984D01*
X4477325Y-733984D02*
X4458277Y-724460D01*
X4458277Y-724460D02*
X4448753Y-705412D01*
X4448753Y-705412D02*
X4448753Y-629222D01*
X4448753Y-629222D02*
X4458277Y-610174D01*
X4458277Y-610174D02*
X4477325Y-600650D01*
X4477325Y-600650D02*
X4515420Y-600650D01*
X4515420Y-600650D02*
X4534468Y-610174D01*
X4534468Y-610174D02*
X4543992Y-629222D01*
X4543992Y-629222D02*
X4543992Y-648270D01*
X4543992Y-648270D02*
X4448753Y-667317D01*
X4620182Y-724460D02*
X4639230Y-733984D01*
X4639230Y-733984D02*
X4677325Y-733984D01*
X4677325Y-733984D02*
X4696373Y-724460D01*
X4696373Y-724460D02*
X4705896Y-705412D01*
X4705896Y-705412D02*
X4705896Y-695889D01*
X4705896Y-695889D02*
X4696373Y-676841D01*
X4696373Y-676841D02*
X4677325Y-667317D01*
X4677325Y-667317D02*
X4648753Y-667317D01*
X4648753Y-667317D02*
X4629706Y-657793D01*
X4629706Y-657793D02*
X4620182Y-638746D01*
X4620182Y-638746D02*
X4620182Y-629222D01*
X4620182Y-629222D02*
X4629706Y-610174D01*
X4629706Y-610174D02*
X4648753Y-600650D01*
X4648753Y-600650D02*
X4677325Y-600650D01*
X4677325Y-600650D02*
X4696373Y-610174D01*
X4772563Y-810174D02*
X4782087Y-800650D01*
X4782087Y-800650D02*
X4801134Y-772079D01*
X4801134Y-772079D02*
X4810658Y-753031D01*
X4810658Y-753031D02*
X4820182Y-724460D01*
X4820182Y-724460D02*
X4829706Y-676841D01*
X4829706Y-676841D02*
X4829706Y-638746D01*
X4829706Y-638746D02*
X4820182Y-591127D01*
X4820182Y-591127D02*
X4810658Y-562555D01*
X4810658Y-562555D02*
X4801134Y-543508D01*
X4801134Y-543508D02*
X4782087Y-514936D01*
X4782087Y-514936D02*
X4772563Y-505412D01*
M02*
