%TF.GenerationSoftware,KiCad,Pcbnew,7.0.5*%
%TF.CreationDate,2023-10-13T11:32:00-04:00*%
%TF.ProjectId,Probe,50726f62-652e-46b6-9963-61645f706362,rev?*%
%TF.SameCoordinates,PX7270e00PY6a55ae0*%
%TF.FileFunction,Copper,L2,Bot*%
%TF.FilePolarity,Positive*%
%FSLAX46Y46*%
G04 Gerber Fmt 4.6, Leading zero omitted, Abs format (unit mm)*
G04 Created by KiCad (PCBNEW 7.0.5) date 2023-10-13 11:32:00*
%MOMM*%
%LPD*%
G01*
G04 APERTURE LIST*
%TA.AperFunction,ComponentPad*%
%ADD10R,1.700000X1.700000*%
%TD*%
%TA.AperFunction,ComponentPad*%
%ADD11O,1.700000X1.700000*%
%TD*%
G04 APERTURE END LIST*
D10*
%TO.P,J3,1,Pin_1*%
%TO.N,Net-(J1-Pin_1)*%
X0Y12000000D03*
D11*
%TO.P,J3,2,Pin_2*%
X0Y9460000D03*
%TD*%
D10*
%TO.P,J1,1,Pin_1*%
%TO.N,Net-(J1-Pin_1)*%
X6225000Y14000000D03*
D11*
%TO.P,J1,2,Pin_2*%
X8765000Y14000000D03*
%TD*%
D10*
%TO.P,J2,1,Pin_1*%
%TO.N,Net-(J1-Pin_1)*%
X0Y4500000D03*
D11*
%TO.P,J2,2,Pin_2*%
X0Y1960000D03*
%TD*%
%TA.AperFunction,Conductor*%
%TO.N,Net-(J1-Pin_1)*%
G36*
X8305507Y14209844D02*
G01*
X8265000Y14071889D01*
X8265000Y13928111D01*
X8305507Y13790156D01*
X8331314Y13750000D01*
X6658686Y13750000D01*
X6684493Y13790156D01*
X6725000Y13928111D01*
X6725000Y14071889D01*
X6684493Y14209844D01*
X6658686Y14250000D01*
X8331314Y14250000D01*
X8305507Y14209844D01*
G37*
%TD.AperFunction*%
%TA.AperFunction,Conductor*%
G36*
X10943039Y20980315D02*
G01*
X10988794Y20927511D01*
X11000000Y20876000D01*
X11000000Y624500D01*
X10980315Y557461D01*
X10927511Y511706D01*
X10876000Y500500D01*
X624500Y500500D01*
X557461Y520185D01*
X511706Y572989D01*
X500500Y624500D01*
X500500Y624831D01*
X520185Y691870D01*
X572096Y737213D01*
X677575Y786399D01*
X677577Y786400D01*
X871082Y921895D01*
X1038105Y1088918D01*
X1173600Y1282422D01*
X1273429Y1496508D01*
X1273432Y1496514D01*
X1330636Y1710000D01*
X624500Y1710000D01*
X557461Y1729685D01*
X511706Y1782489D01*
X500500Y1834000D01*
X500500Y2086000D01*
X520185Y2153039D01*
X572989Y2198794D01*
X624500Y2210000D01*
X1330636Y2210000D01*
X1330635Y2210001D01*
X1273432Y2423487D01*
X1273429Y2423493D01*
X1173600Y2637578D01*
X1173599Y2637580D01*
X1038113Y2831074D01*
X1038108Y2831080D01*
X915665Y2953523D01*
X882180Y3014846D01*
X887164Y3084538D01*
X929036Y3140471D01*
X960013Y3157386D01*
X1092086Y3206646D01*
X1092093Y3206650D01*
X1207187Y3292810D01*
X1207190Y3292813D01*
X1293350Y3407907D01*
X1293354Y3407914D01*
X1343596Y3542621D01*
X1343598Y3542628D01*
X1349999Y3602156D01*
X1350000Y3602173D01*
X1350000Y4250000D01*
X624500Y4250000D01*
X557461Y4269685D01*
X511706Y4322489D01*
X500500Y4374000D01*
X500500Y4626000D01*
X520185Y4693039D01*
X572989Y4738794D01*
X624500Y4750000D01*
X1350000Y4750000D01*
X1350000Y5397828D01*
X1349999Y5397845D01*
X1343598Y5457373D01*
X1343596Y5457380D01*
X1293354Y5592087D01*
X1293350Y5592094D01*
X1207190Y5707188D01*
X1207187Y5707191D01*
X1092093Y5793351D01*
X1092086Y5793355D01*
X957379Y5843597D01*
X957372Y5843599D01*
X897844Y5850000D01*
X624500Y5850000D01*
X557461Y5869685D01*
X511706Y5922489D01*
X500500Y5974000D01*
X500500Y8124831D01*
X520185Y8191870D01*
X572096Y8237213D01*
X677575Y8286399D01*
X677577Y8286400D01*
X871082Y8421895D01*
X1038105Y8588918D01*
X1173600Y8782422D01*
X1273429Y8996508D01*
X1273432Y8996514D01*
X1330636Y9210000D01*
X624500Y9210000D01*
X557461Y9229685D01*
X511706Y9282489D01*
X500500Y9334000D01*
X500500Y9586000D01*
X520185Y9653039D01*
X572989Y9698794D01*
X624500Y9710000D01*
X1330636Y9710000D01*
X1330635Y9710001D01*
X1273432Y9923487D01*
X1273429Y9923493D01*
X1173600Y10137578D01*
X1173599Y10137580D01*
X1038113Y10331074D01*
X1038108Y10331080D01*
X915665Y10453523D01*
X882180Y10514846D01*
X887164Y10584538D01*
X929036Y10640471D01*
X960013Y10657386D01*
X1092086Y10706646D01*
X1092093Y10706650D01*
X1207187Y10792810D01*
X1207190Y10792813D01*
X1293350Y10907907D01*
X1293354Y10907914D01*
X1343596Y11042621D01*
X1343598Y11042628D01*
X1349999Y11102156D01*
X1350000Y11102173D01*
X1350000Y11750000D01*
X624500Y11750000D01*
X557461Y11769685D01*
X511706Y11822489D01*
X500500Y11874000D01*
X500500Y12126000D01*
X520185Y12193039D01*
X572989Y12238794D01*
X624500Y12250000D01*
X1350000Y12250000D01*
X1350000Y12897828D01*
X1349999Y12897845D01*
X1343598Y12957373D01*
X1343596Y12957380D01*
X1293354Y13092087D01*
X1293350Y13092094D01*
X1285818Y13102156D01*
X4875000Y13102156D01*
X4881401Y13042628D01*
X4881403Y13042621D01*
X4931645Y12907914D01*
X4931649Y12907907D01*
X5017809Y12792813D01*
X5017812Y12792810D01*
X5132906Y12706650D01*
X5132913Y12706646D01*
X5267620Y12656404D01*
X5267627Y12656402D01*
X5327155Y12650001D01*
X5327172Y12650000D01*
X5974999Y12650000D01*
X5974999Y13564499D01*
X6082685Y13515320D01*
X6189237Y13500000D01*
X6260763Y13500000D01*
X6367315Y13515320D01*
X6475000Y13564499D01*
X6475000Y12650000D01*
X7122828Y12650000D01*
X7122844Y12650001D01*
X7182372Y12656402D01*
X7182379Y12656404D01*
X7317086Y12706646D01*
X7317093Y12706650D01*
X7432187Y12792810D01*
X7432190Y12792813D01*
X7518350Y12907907D01*
X7518354Y12907914D01*
X7567614Y13039987D01*
X7609485Y13095921D01*
X7674949Y13120338D01*
X7743222Y13105487D01*
X7771477Y13084335D01*
X7893917Y12961895D01*
X8087421Y12826400D01*
X8301507Y12726571D01*
X8301516Y12726567D01*
X8514998Y12669365D01*
X8514999Y12669366D01*
X8514999Y13564499D01*
X8622685Y13515320D01*
X8729237Y13500000D01*
X8800763Y13500000D01*
X8907315Y13515320D01*
X9015000Y13564499D01*
X9015000Y12669367D01*
X9228483Y12726567D01*
X9228492Y12726571D01*
X9442578Y12826400D01*
X9636082Y12961895D01*
X9803105Y13128918D01*
X9938600Y13322422D01*
X10038429Y13536508D01*
X10038432Y13536514D01*
X10095636Y13750000D01*
X9198686Y13750000D01*
X9224493Y13790156D01*
X9265000Y13928111D01*
X9265000Y14071889D01*
X9224493Y14209844D01*
X9198686Y14250000D01*
X10095636Y14250000D01*
X10095635Y14250001D01*
X10038432Y14463487D01*
X10038429Y14463493D01*
X9938600Y14677578D01*
X9938599Y14677580D01*
X9803113Y14871074D01*
X9803108Y14871080D01*
X9636082Y15038106D01*
X9442578Y15173601D01*
X9228492Y15273430D01*
X9228486Y15273433D01*
X9015000Y15330636D01*
X9014999Y15330636D01*
X9014999Y14435502D01*
X8907315Y14484680D01*
X8800763Y14500000D01*
X8729237Y14500000D01*
X8622685Y14484680D01*
X8514999Y14435502D01*
X8514999Y15330636D01*
X8514998Y15330636D01*
X8301505Y15273430D01*
X8087422Y15173601D01*
X8087420Y15173600D01*
X7893926Y15038114D01*
X7771477Y14915665D01*
X7710154Y14882181D01*
X7640462Y14887165D01*
X7584529Y14929037D01*
X7567614Y14960014D01*
X7518354Y15092087D01*
X7518350Y15092094D01*
X7432190Y15207188D01*
X7432187Y15207191D01*
X7317093Y15293351D01*
X7317086Y15293355D01*
X7182379Y15343597D01*
X7182372Y15343599D01*
X7122844Y15350000D01*
X6475000Y15350000D01*
X6475000Y14435502D01*
X6367315Y14484680D01*
X6260763Y14500000D01*
X6189237Y14500000D01*
X6082685Y14484680D01*
X5974999Y14435502D01*
X5975000Y15350000D01*
X5327155Y15350000D01*
X5267627Y15343599D01*
X5267620Y15343597D01*
X5132913Y15293355D01*
X5132906Y15293351D01*
X5017812Y15207191D01*
X5017809Y15207188D01*
X4931649Y15092094D01*
X4931645Y15092087D01*
X4881403Y14957380D01*
X4881401Y14957373D01*
X4875000Y14897845D01*
X4875000Y14250000D01*
X5791314Y14250000D01*
X5765507Y14209844D01*
X5725000Y14071889D01*
X5725000Y13928111D01*
X5765507Y13790156D01*
X5791314Y13750000D01*
X4875000Y13750000D01*
X4875000Y13102156D01*
X1285818Y13102156D01*
X1207190Y13207188D01*
X1207187Y13207191D01*
X1092093Y13293351D01*
X1092086Y13293355D01*
X957379Y13343597D01*
X957372Y13343599D01*
X897844Y13350000D01*
X624500Y13350000D01*
X557461Y13369685D01*
X511706Y13422489D01*
X500500Y13474000D01*
X500500Y14840758D01*
X515641Y14900136D01*
X524112Y14915665D01*
X3775204Y20876000D01*
X3807592Y20935378D01*
X3856975Y20984805D01*
X3916451Y21000000D01*
X10876000Y21000000D01*
X10943039Y20980315D01*
G37*
%TD.AperFunction*%
%TD*%
M02*
