%TF.GenerationSoftware,KiCad,Pcbnew,7.0.5*%
%TF.CreationDate,2023-10-11T12:04:10-04:00*%
%TF.ProjectId,Probe,50726f62-652e-46b6-9963-61645f706362,rev?*%
%TF.SameCoordinates,Original*%
%TF.FileFunction,Copper,L1,Top*%
%TF.FilePolarity,Positive*%
%FSLAX46Y46*%
G04 Gerber Fmt 4.6, Leading zero omitted, Abs format (unit mm)*
G04 Created by KiCad (PCBNEW 7.0.5) date 2023-10-11 12:04:10*
%MOMM*%
%LPD*%
G01*
G04 APERTURE LIST*
%TA.AperFunction,ComponentPad*%
%ADD10R,1.700000X1.700000*%
%TD*%
%TA.AperFunction,ComponentPad*%
%ADD11O,1.700000X1.700000*%
%TD*%
G04 APERTURE END LIST*
D10*
%TO.P,J3,1,Pin_1*%
%TO.N,Net-(J1-Pin_1)*%
X120000000Y-99500000D03*
D11*
%TO.P,J3,2,Pin_2*%
X120000000Y-102040000D03*
%TD*%
D10*
%TO.P,J2,1,Pin_1*%
%TO.N,Net-(J1-Pin_1)*%
X120000000Y-107000000D03*
D11*
%TO.P,J2,2,Pin_2*%
X120000000Y-109540000D03*
%TD*%
D10*
%TO.P,J1,1,Pin_1*%
%TO.N,Net-(J1-Pin_1)*%
X126225000Y-97500000D03*
D11*
%TO.P,J1,2,Pin_2*%
X128765000Y-97500000D03*
%TD*%
%TA.AperFunction,Conductor*%
%TO.N,Net-(J1-Pin_1)*%
G36*
X128305507Y-97290156D02*
G01*
X128265000Y-97428111D01*
X128265000Y-97571889D01*
X128305507Y-97709844D01*
X128331314Y-97750000D01*
X126658686Y-97750000D01*
X126684493Y-97709844D01*
X126725000Y-97571889D01*
X126725000Y-97428111D01*
X126684493Y-97290156D01*
X126658686Y-97250000D01*
X128331314Y-97250000D01*
X128305507Y-97290156D01*
G37*
%TD.AperFunction*%
%TA.AperFunction,Conductor*%
G36*
X130943039Y-90519685D02*
G01*
X130988794Y-90572489D01*
X131000000Y-90624000D01*
X131000000Y-110875500D01*
X130980315Y-110942539D01*
X130927511Y-110988294D01*
X130876000Y-110999500D01*
X120624500Y-110999500D01*
X120557461Y-110979815D01*
X120511706Y-110927011D01*
X120500500Y-110875500D01*
X120500500Y-110875169D01*
X120520185Y-110808130D01*
X120572096Y-110762787D01*
X120677575Y-110713601D01*
X120677577Y-110713600D01*
X120871082Y-110578105D01*
X121038105Y-110411082D01*
X121173600Y-110217578D01*
X121273429Y-110003492D01*
X121273432Y-110003486D01*
X121330636Y-109790000D01*
X120624500Y-109790000D01*
X120557461Y-109770315D01*
X120511706Y-109717511D01*
X120500500Y-109666000D01*
X120500500Y-109414000D01*
X120520185Y-109346961D01*
X120572989Y-109301206D01*
X120624500Y-109290000D01*
X121330636Y-109290000D01*
X121330635Y-109289999D01*
X121273432Y-109076513D01*
X121273429Y-109076507D01*
X121173600Y-108862422D01*
X121173599Y-108862420D01*
X121038113Y-108668926D01*
X121038108Y-108668920D01*
X120915665Y-108546477D01*
X120882180Y-108485154D01*
X120887164Y-108415462D01*
X120929036Y-108359529D01*
X120960013Y-108342614D01*
X121092086Y-108293354D01*
X121092093Y-108293350D01*
X121207187Y-108207190D01*
X121207190Y-108207187D01*
X121293350Y-108092093D01*
X121293354Y-108092086D01*
X121343596Y-107957379D01*
X121343598Y-107957372D01*
X121349999Y-107897844D01*
X121350000Y-107897827D01*
X121350000Y-107250000D01*
X120624500Y-107250000D01*
X120557461Y-107230315D01*
X120511706Y-107177511D01*
X120500500Y-107126000D01*
X120500500Y-106874000D01*
X120520185Y-106806961D01*
X120572989Y-106761206D01*
X120624500Y-106750000D01*
X121350000Y-106750000D01*
X121350000Y-106102172D01*
X121349999Y-106102155D01*
X121343598Y-106042627D01*
X121343596Y-106042620D01*
X121293354Y-105907913D01*
X121293350Y-105907906D01*
X121207190Y-105792812D01*
X121207187Y-105792809D01*
X121092093Y-105706649D01*
X121092086Y-105706645D01*
X120957379Y-105656403D01*
X120957372Y-105656401D01*
X120897844Y-105650000D01*
X120624500Y-105650000D01*
X120557461Y-105630315D01*
X120511706Y-105577511D01*
X120500500Y-105526000D01*
X120500500Y-103375169D01*
X120520185Y-103308130D01*
X120572096Y-103262787D01*
X120677575Y-103213601D01*
X120677577Y-103213600D01*
X120871082Y-103078105D01*
X121038105Y-102911082D01*
X121173600Y-102717578D01*
X121273429Y-102503492D01*
X121273432Y-102503486D01*
X121330636Y-102290000D01*
X120624500Y-102290000D01*
X120557461Y-102270315D01*
X120511706Y-102217511D01*
X120500500Y-102166000D01*
X120500500Y-101914000D01*
X120520185Y-101846961D01*
X120572989Y-101801206D01*
X120624500Y-101790000D01*
X121330636Y-101790000D01*
X121330635Y-101789999D01*
X121273432Y-101576513D01*
X121273429Y-101576507D01*
X121173600Y-101362422D01*
X121173599Y-101362420D01*
X121038113Y-101168926D01*
X121038108Y-101168920D01*
X120915665Y-101046477D01*
X120882180Y-100985154D01*
X120887164Y-100915462D01*
X120929036Y-100859529D01*
X120960013Y-100842614D01*
X121092086Y-100793354D01*
X121092093Y-100793350D01*
X121207187Y-100707190D01*
X121207190Y-100707187D01*
X121293350Y-100592093D01*
X121293354Y-100592086D01*
X121343596Y-100457379D01*
X121343598Y-100457372D01*
X121349999Y-100397844D01*
X121350000Y-100397827D01*
X121350000Y-99750000D01*
X120624500Y-99750000D01*
X120557461Y-99730315D01*
X120511706Y-99677511D01*
X120500500Y-99626000D01*
X120500500Y-99374000D01*
X120520185Y-99306961D01*
X120572989Y-99261206D01*
X120624500Y-99250000D01*
X121350000Y-99250000D01*
X121350000Y-98602172D01*
X121349999Y-98602155D01*
X121343598Y-98542627D01*
X121343596Y-98542620D01*
X121293354Y-98407913D01*
X121293350Y-98407906D01*
X121285818Y-98397844D01*
X124875000Y-98397844D01*
X124881401Y-98457372D01*
X124881403Y-98457379D01*
X124931645Y-98592086D01*
X124931649Y-98592093D01*
X125017809Y-98707187D01*
X125017812Y-98707190D01*
X125132906Y-98793350D01*
X125132913Y-98793354D01*
X125267620Y-98843596D01*
X125267627Y-98843598D01*
X125327155Y-98849999D01*
X125327172Y-98850000D01*
X125974999Y-98850000D01*
X125974999Y-97935501D01*
X126082685Y-97984680D01*
X126189237Y-98000000D01*
X126260763Y-98000000D01*
X126367315Y-97984680D01*
X126475000Y-97935501D01*
X126475000Y-98850000D01*
X127122828Y-98850000D01*
X127122844Y-98849999D01*
X127182372Y-98843598D01*
X127182379Y-98843596D01*
X127317086Y-98793354D01*
X127317093Y-98793350D01*
X127432187Y-98707190D01*
X127432190Y-98707187D01*
X127518350Y-98592093D01*
X127518354Y-98592086D01*
X127567614Y-98460013D01*
X127609485Y-98404079D01*
X127674949Y-98379662D01*
X127743222Y-98394513D01*
X127771477Y-98415665D01*
X127893917Y-98538105D01*
X128087421Y-98673600D01*
X128301507Y-98773429D01*
X128301516Y-98773433D01*
X128514998Y-98830635D01*
X128514999Y-98830634D01*
X128514999Y-97935501D01*
X128622685Y-97984680D01*
X128729237Y-98000000D01*
X128800763Y-98000000D01*
X128907315Y-97984680D01*
X129015000Y-97935501D01*
X129015000Y-98830633D01*
X129228483Y-98773433D01*
X129228492Y-98773429D01*
X129442578Y-98673600D01*
X129636082Y-98538105D01*
X129803105Y-98371082D01*
X129938600Y-98177578D01*
X130038429Y-97963492D01*
X130038432Y-97963486D01*
X130095636Y-97750000D01*
X129198686Y-97750000D01*
X129224493Y-97709844D01*
X129265000Y-97571889D01*
X129265000Y-97428111D01*
X129224493Y-97290156D01*
X129198686Y-97250000D01*
X130095636Y-97250000D01*
X130095635Y-97249999D01*
X130038432Y-97036513D01*
X130038429Y-97036507D01*
X129938600Y-96822422D01*
X129938599Y-96822420D01*
X129803113Y-96628926D01*
X129803108Y-96628920D01*
X129636082Y-96461894D01*
X129442578Y-96326399D01*
X129228492Y-96226570D01*
X129228486Y-96226567D01*
X129015000Y-96169364D01*
X129014999Y-96169364D01*
X129014999Y-97064498D01*
X128907315Y-97015320D01*
X128800763Y-97000000D01*
X128729237Y-97000000D01*
X128622685Y-97015320D01*
X128514999Y-97064498D01*
X128514999Y-96169364D01*
X128514998Y-96169364D01*
X128301505Y-96226570D01*
X128087422Y-96326399D01*
X128087420Y-96326400D01*
X127893926Y-96461886D01*
X127771477Y-96584335D01*
X127710154Y-96617819D01*
X127640462Y-96612835D01*
X127584529Y-96570963D01*
X127567614Y-96539986D01*
X127518354Y-96407913D01*
X127518350Y-96407906D01*
X127432190Y-96292812D01*
X127432187Y-96292809D01*
X127317093Y-96206649D01*
X127317086Y-96206645D01*
X127182379Y-96156403D01*
X127182372Y-96156401D01*
X127122844Y-96150000D01*
X126475000Y-96150000D01*
X126475000Y-97064498D01*
X126367315Y-97015320D01*
X126260763Y-97000000D01*
X126189237Y-97000000D01*
X126082685Y-97015320D01*
X125974999Y-97064498D01*
X125975000Y-96150000D01*
X125327155Y-96150000D01*
X125267627Y-96156401D01*
X125267620Y-96156403D01*
X125132913Y-96206645D01*
X125132906Y-96206649D01*
X125017812Y-96292809D01*
X125017809Y-96292812D01*
X124931649Y-96407906D01*
X124931645Y-96407913D01*
X124881403Y-96542620D01*
X124881401Y-96542627D01*
X124875000Y-96602155D01*
X124875000Y-97250000D01*
X125791314Y-97250000D01*
X125765507Y-97290156D01*
X125725000Y-97428111D01*
X125725000Y-97571889D01*
X125765507Y-97709844D01*
X125791314Y-97750000D01*
X124875000Y-97750000D01*
X124875000Y-98397844D01*
X121285818Y-98397844D01*
X121207190Y-98292812D01*
X121207187Y-98292809D01*
X121092093Y-98206649D01*
X121092086Y-98206645D01*
X120957379Y-98156403D01*
X120957372Y-98156401D01*
X120897844Y-98150000D01*
X120624500Y-98150000D01*
X120557461Y-98130315D01*
X120511706Y-98077511D01*
X120500500Y-98026000D01*
X120500500Y-96659242D01*
X120515641Y-96599864D01*
X120524112Y-96584335D01*
X123775204Y-90624000D01*
X123807592Y-90564622D01*
X123856975Y-90515195D01*
X123916451Y-90500000D01*
X130876000Y-90500000D01*
X130943039Y-90519685D01*
G37*
%TD.AperFunction*%
%TD*%
M02*
