%TF.GenerationSoftware,KiCad,Pcbnew,7.0.5*%
%TF.CreationDate,2023-10-11T12:04:10-04:00*%
%TF.ProjectId,Probe,50726f62-652e-46b6-9963-61645f706362,rev?*%
%TF.SameCoordinates,Original*%
%TF.FileFunction,Legend,Top*%
%TF.FilePolarity,Positive*%
%FSLAX46Y46*%
G04 Gerber Fmt 4.6, Leading zero omitted, Abs format (unit mm)*
G04 Created by KiCad (PCBNEW 7.0.5) date 2023-10-11 12:04:10*
%MOMM*%
%LPD*%
G01*
G04 APERTURE LIST*
%ADD10C,0.700000*%
%ADD11C,0.120000*%
G04 APERTURE END LIST*
D10*
X126000000Y-108000000D02*
X129500000Y-108000000D01*
X126000000Y-109750000D02*
X129500000Y-109750000D01*
X126000000Y-106250000D02*
X126000000Y-109750000D01*
X126000000Y-106250000D02*
X129500000Y-106250000D01*
X124500000Y-104750000D02*
X124500000Y-109750000D01*
X124500000Y-104750000D02*
X129500000Y-104750000D01*
D11*
%TO.C,J3*%
X118670000Y-99500000D02*
X118670000Y-98170000D01*
X118670000Y-103370000D02*
X121330000Y-103370000D01*
X118670000Y-100770000D02*
X118670000Y-103370000D01*
X118670000Y-100770000D02*
X121330000Y-100770000D01*
X118670000Y-98170000D02*
X120000000Y-98170000D01*
X121330000Y-100770000D02*
X121330000Y-103370000D01*
%TO.C,J2*%
X118670000Y-107000000D02*
X118670000Y-105670000D01*
X118670000Y-110870000D02*
X121330000Y-110870000D01*
X118670000Y-108270000D02*
X118670000Y-110870000D01*
X118670000Y-108270000D02*
X121330000Y-108270000D01*
X118670000Y-105670000D02*
X120000000Y-105670000D01*
X121330000Y-108270000D02*
X121330000Y-110870000D01*
%TO.C,J1*%
X126385000Y-93400000D02*
X126385000Y-87400000D01*
X129145000Y-87400000D02*
X129145000Y-93400000D01*
X124955000Y-98770000D02*
X124955000Y-97500000D01*
X126145000Y-93400000D02*
X126145000Y-87400000D01*
X125845000Y-93400000D02*
X125845000Y-87400000D01*
X126605000Y-87400000D02*
X126605000Y-93400000D01*
X124895000Y-93400000D02*
X124895000Y-96060000D01*
X124895000Y-96060000D02*
X130095000Y-96060000D01*
X126025000Y-93400000D02*
X126025000Y-87400000D01*
X125845000Y-87400000D02*
X126605000Y-87400000D01*
X126505000Y-93400000D02*
X126505000Y-87400000D01*
X125905000Y-93400000D02*
X125905000Y-87400000D01*
X126225000Y-98770000D02*
X124955000Y-98770000D01*
X127495000Y-96060000D02*
X127495000Y-93400000D01*
X126265000Y-93400000D02*
X126265000Y-87400000D01*
X130095000Y-96060000D02*
X130095000Y-93400000D01*
X126605000Y-96390000D02*
X126605000Y-96060000D01*
X130095000Y-93400000D02*
X124895000Y-93400000D01*
X128385000Y-93400000D02*
X128385000Y-87400000D01*
X129145000Y-96457071D02*
X129145000Y-96060000D01*
X125845000Y-96390000D02*
X125845000Y-96060000D01*
X128385000Y-87400000D02*
X129145000Y-87400000D01*
X128385000Y-96457071D02*
X128385000Y-96060000D01*
%TD*%
M02*
