%TF.GenerationSoftware,KiCad,Pcbnew,7.0.5*%
%TF.CreationDate,2023-07-18T15:35:39-04:00*%
%TF.ProjectId,PCBPT_Main_control_V1,50434250-545f-44d6-9169-6e5f636f6e74,rev?*%
%TF.SameCoordinates,Original*%
%TF.FileFunction,Drillmap*%
%TF.FilePolarity,Positive*%
%FSLAX45Y45*%
G04 Gerber Fmt 4.5, Leading zero omitted, Abs format (unit mm)*
G04 Created by KiCad (PCBNEW 7.0.5) date 2023-07-18 15:35:39*
%MOMM*%
%LPD*%
G01*
G04 APERTURE LIST*
%ADD10C,0.100000*%
%ADD11C,0.200000*%
%ADD12C,0.320000*%
G04 APERTURE END LIST*
D10*
X18700000Y-4600000D02*
X18000000Y-4600000D01*
X21650000Y-9550000D02*
X22450000Y-9550000D01*
X12350000Y-4600000D02*
X12350000Y-3850000D01*
X22450000Y-9550000D02*
X22450000Y-8100000D01*
X7800000Y-8100000D02*
X7800000Y-6250000D01*
X18000000Y-3850000D02*
X15600000Y-3850000D01*
X18000000Y-4600000D02*
X18000000Y-3850000D01*
X22450000Y-3850000D02*
X22450000Y-6250000D01*
X14750000Y-4600000D02*
X15600000Y-4600000D01*
X7800000Y-6250000D02*
X7000000Y-6250000D01*
X21650000Y-8100000D02*
X21650000Y-6250000D01*
X22450000Y-6250000D02*
X21650000Y-6250000D01*
X7000000Y-3850000D02*
X10600000Y-3850000D01*
X7000000Y-10400000D02*
X7800000Y-10400000D01*
X7000000Y-11800000D02*
X7000000Y-10400000D01*
X22450000Y-8100000D02*
X21650000Y-8100000D01*
X7000000Y-9550000D02*
X7000000Y-8100000D01*
X22450000Y-11800000D02*
X7000000Y-11800000D01*
X7000000Y-8100000D02*
X7800000Y-8100000D01*
X18700000Y-3850000D02*
X18700000Y-4600000D01*
X10600000Y-4600000D02*
X10600000Y-3850000D01*
X15600000Y-4600000D02*
X15600000Y-3850000D01*
X18700000Y-3850000D02*
X22450000Y-3850000D01*
X10600000Y-4600000D02*
X12350000Y-4600000D01*
X7800000Y-9550000D02*
X7000000Y-9550000D01*
X22450000Y-10400000D02*
X22450000Y-11800000D01*
X7800000Y-10400000D02*
X7800000Y-9550000D01*
X7000000Y-6250000D02*
X7000000Y-3850000D01*
X12350000Y-3850000D02*
X14750000Y-3850000D01*
X22450000Y-10400000D02*
X21650000Y-10400000D01*
X14750000Y-3850000D02*
X14750000Y-4600000D01*
X13950000Y-7600000D02*
X15500000Y-7600000D01*
X15500000Y-8350000D01*
X13950000Y-8350000D01*
X13950000Y-7600000D01*
X21650000Y-10400000D02*
X21650000Y-9550000D01*
D11*
D12*
X7365000Y-11065000D02*
X7685000Y-11385000D01*
X7685000Y-11065000D02*
X7365000Y-11385000D01*
X7415000Y-4315000D02*
X7735000Y-4635000D01*
X7735000Y-4315000D02*
X7415000Y-4635000D01*
X21815000Y-4215000D02*
X22135000Y-4535000D01*
X22135000Y-4215000D02*
X21815000Y-4535000D01*
X21865000Y-11215000D02*
X22185000Y-11535000D01*
X22185000Y-11215000D02*
X21865000Y-11535000D01*
D11*
X7255777Y-12116484D02*
X7255777Y-11916484D01*
X7255777Y-11916484D02*
X7303396Y-11916484D01*
X7303396Y-11916484D02*
X7331967Y-11926008D01*
X7331967Y-11926008D02*
X7351015Y-11945055D01*
X7351015Y-11945055D02*
X7360539Y-11964103D01*
X7360539Y-11964103D02*
X7370062Y-12002198D01*
X7370062Y-12002198D02*
X7370062Y-12030769D01*
X7370062Y-12030769D02*
X7360539Y-12068865D01*
X7360539Y-12068865D02*
X7351015Y-12087912D01*
X7351015Y-12087912D02*
X7331967Y-12106960D01*
X7331967Y-12106960D02*
X7303396Y-12116484D01*
X7303396Y-12116484D02*
X7255777Y-12116484D01*
X7455777Y-12116484D02*
X7455777Y-11983150D01*
X7455777Y-12021246D02*
X7465301Y-12002198D01*
X7465301Y-12002198D02*
X7474824Y-11992674D01*
X7474824Y-11992674D02*
X7493872Y-11983150D01*
X7493872Y-11983150D02*
X7512920Y-11983150D01*
X7579586Y-12116484D02*
X7579586Y-11983150D01*
X7579586Y-11916484D02*
X7570062Y-11926008D01*
X7570062Y-11926008D02*
X7579586Y-11935531D01*
X7579586Y-11935531D02*
X7589110Y-11926008D01*
X7589110Y-11926008D02*
X7579586Y-11916484D01*
X7579586Y-11916484D02*
X7579586Y-11935531D01*
X7703396Y-12116484D02*
X7684348Y-12106960D01*
X7684348Y-12106960D02*
X7674824Y-12087912D01*
X7674824Y-12087912D02*
X7674824Y-11916484D01*
X7808158Y-12116484D02*
X7789110Y-12106960D01*
X7789110Y-12106960D02*
X7779586Y-12087912D01*
X7779586Y-12087912D02*
X7779586Y-11916484D01*
X8036729Y-12116484D02*
X8036729Y-11916484D01*
X8036729Y-11916484D02*
X8103396Y-12059341D01*
X8103396Y-12059341D02*
X8170062Y-11916484D01*
X8170062Y-11916484D02*
X8170062Y-12116484D01*
X8351015Y-12116484D02*
X8351015Y-12011722D01*
X8351015Y-12011722D02*
X8341491Y-11992674D01*
X8341491Y-11992674D02*
X8322443Y-11983150D01*
X8322443Y-11983150D02*
X8284348Y-11983150D01*
X8284348Y-11983150D02*
X8265301Y-11992674D01*
X8351015Y-12106960D02*
X8331967Y-12116484D01*
X8331967Y-12116484D02*
X8284348Y-12116484D01*
X8284348Y-12116484D02*
X8265301Y-12106960D01*
X8265301Y-12106960D02*
X8255777Y-12087912D01*
X8255777Y-12087912D02*
X8255777Y-12068865D01*
X8255777Y-12068865D02*
X8265301Y-12049817D01*
X8265301Y-12049817D02*
X8284348Y-12040293D01*
X8284348Y-12040293D02*
X8331967Y-12040293D01*
X8331967Y-12040293D02*
X8351015Y-12030769D01*
X8446253Y-11983150D02*
X8446253Y-12183150D01*
X8446253Y-11992674D02*
X8465301Y-11983150D01*
X8465301Y-11983150D02*
X8503396Y-11983150D01*
X8503396Y-11983150D02*
X8522444Y-11992674D01*
X8522444Y-11992674D02*
X8531967Y-12002198D01*
X8531967Y-12002198D02*
X8541491Y-12021246D01*
X8541491Y-12021246D02*
X8541491Y-12078388D01*
X8541491Y-12078388D02*
X8531967Y-12097436D01*
X8531967Y-12097436D02*
X8522444Y-12106960D01*
X8522444Y-12106960D02*
X8503396Y-12116484D01*
X8503396Y-12116484D02*
X8465301Y-12116484D01*
X8465301Y-12116484D02*
X8446253Y-12106960D01*
X8627205Y-12097436D02*
X8636729Y-12106960D01*
X8636729Y-12106960D02*
X8627205Y-12116484D01*
X8627205Y-12116484D02*
X8617682Y-12106960D01*
X8617682Y-12106960D02*
X8627205Y-12097436D01*
X8627205Y-12097436D02*
X8627205Y-12116484D01*
X8627205Y-11992674D02*
X8636729Y-12002198D01*
X8636729Y-12002198D02*
X8627205Y-12011722D01*
X8627205Y-12011722D02*
X8617682Y-12002198D01*
X8617682Y-12002198D02*
X8627205Y-11992674D01*
X8627205Y-11992674D02*
X8627205Y-12011722D01*
X6795000Y-12345000D02*
X6995000Y-12545000D01*
X6995000Y-12345000D02*
X6795000Y-12545000D01*
X7236729Y-12336484D02*
X7360539Y-12336484D01*
X7360539Y-12336484D02*
X7293872Y-12412674D01*
X7293872Y-12412674D02*
X7322443Y-12412674D01*
X7322443Y-12412674D02*
X7341491Y-12422198D01*
X7341491Y-12422198D02*
X7351015Y-12431722D01*
X7351015Y-12431722D02*
X7360539Y-12450769D01*
X7360539Y-12450769D02*
X7360539Y-12498388D01*
X7360539Y-12498388D02*
X7351015Y-12517436D01*
X7351015Y-12517436D02*
X7341491Y-12526960D01*
X7341491Y-12526960D02*
X7322443Y-12536484D01*
X7322443Y-12536484D02*
X7265301Y-12536484D01*
X7265301Y-12536484D02*
X7246253Y-12526960D01*
X7246253Y-12526960D02*
X7236729Y-12517436D01*
X7446253Y-12517436D02*
X7455777Y-12526960D01*
X7455777Y-12526960D02*
X7446253Y-12536484D01*
X7446253Y-12536484D02*
X7436729Y-12526960D01*
X7436729Y-12526960D02*
X7446253Y-12517436D01*
X7446253Y-12517436D02*
X7446253Y-12536484D01*
X7531967Y-12355531D02*
X7541491Y-12346008D01*
X7541491Y-12346008D02*
X7560539Y-12336484D01*
X7560539Y-12336484D02*
X7608158Y-12336484D01*
X7608158Y-12336484D02*
X7627205Y-12346008D01*
X7627205Y-12346008D02*
X7636729Y-12355531D01*
X7636729Y-12355531D02*
X7646253Y-12374579D01*
X7646253Y-12374579D02*
X7646253Y-12393627D01*
X7646253Y-12393627D02*
X7636729Y-12422198D01*
X7636729Y-12422198D02*
X7522443Y-12536484D01*
X7522443Y-12536484D02*
X7646253Y-12536484D01*
X7770062Y-12336484D02*
X7789110Y-12336484D01*
X7789110Y-12336484D02*
X7808158Y-12346008D01*
X7808158Y-12346008D02*
X7817682Y-12355531D01*
X7817682Y-12355531D02*
X7827205Y-12374579D01*
X7827205Y-12374579D02*
X7836729Y-12412674D01*
X7836729Y-12412674D02*
X7836729Y-12460293D01*
X7836729Y-12460293D02*
X7827205Y-12498388D01*
X7827205Y-12498388D02*
X7817682Y-12517436D01*
X7817682Y-12517436D02*
X7808158Y-12526960D01*
X7808158Y-12526960D02*
X7789110Y-12536484D01*
X7789110Y-12536484D02*
X7770062Y-12536484D01*
X7770062Y-12536484D02*
X7751015Y-12526960D01*
X7751015Y-12526960D02*
X7741491Y-12517436D01*
X7741491Y-12517436D02*
X7731967Y-12498388D01*
X7731967Y-12498388D02*
X7722443Y-12460293D01*
X7722443Y-12460293D02*
X7722443Y-12412674D01*
X7722443Y-12412674D02*
X7731967Y-12374579D01*
X7731967Y-12374579D02*
X7741491Y-12355531D01*
X7741491Y-12355531D02*
X7751015Y-12346008D01*
X7751015Y-12346008D02*
X7770062Y-12336484D01*
X7960539Y-12336484D02*
X7979586Y-12336484D01*
X7979586Y-12336484D02*
X7998634Y-12346008D01*
X7998634Y-12346008D02*
X8008158Y-12355531D01*
X8008158Y-12355531D02*
X8017682Y-12374579D01*
X8017682Y-12374579D02*
X8027205Y-12412674D01*
X8027205Y-12412674D02*
X8027205Y-12460293D01*
X8027205Y-12460293D02*
X8017682Y-12498388D01*
X8017682Y-12498388D02*
X8008158Y-12517436D01*
X8008158Y-12517436D02*
X7998634Y-12526960D01*
X7998634Y-12526960D02*
X7979586Y-12536484D01*
X7979586Y-12536484D02*
X7960539Y-12536484D01*
X7960539Y-12536484D02*
X7941491Y-12526960D01*
X7941491Y-12526960D02*
X7931967Y-12517436D01*
X7931967Y-12517436D02*
X7922443Y-12498388D01*
X7922443Y-12498388D02*
X7912920Y-12460293D01*
X7912920Y-12460293D02*
X7912920Y-12412674D01*
X7912920Y-12412674D02*
X7922443Y-12374579D01*
X7922443Y-12374579D02*
X7931967Y-12355531D01*
X7931967Y-12355531D02*
X7941491Y-12346008D01*
X7941491Y-12346008D02*
X7960539Y-12336484D01*
X8112920Y-12536484D02*
X8112920Y-12403150D01*
X8112920Y-12422198D02*
X8122443Y-12412674D01*
X8122443Y-12412674D02*
X8141491Y-12403150D01*
X8141491Y-12403150D02*
X8170063Y-12403150D01*
X8170063Y-12403150D02*
X8189110Y-12412674D01*
X8189110Y-12412674D02*
X8198634Y-12431722D01*
X8198634Y-12431722D02*
X8198634Y-12536484D01*
X8198634Y-12431722D02*
X8208158Y-12412674D01*
X8208158Y-12412674D02*
X8227205Y-12403150D01*
X8227205Y-12403150D02*
X8255777Y-12403150D01*
X8255777Y-12403150D02*
X8274824Y-12412674D01*
X8274824Y-12412674D02*
X8284348Y-12431722D01*
X8284348Y-12431722D02*
X8284348Y-12536484D01*
X8379586Y-12536484D02*
X8379586Y-12403150D01*
X8379586Y-12422198D02*
X8389110Y-12412674D01*
X8389110Y-12412674D02*
X8408158Y-12403150D01*
X8408158Y-12403150D02*
X8436729Y-12403150D01*
X8436729Y-12403150D02*
X8455777Y-12412674D01*
X8455777Y-12412674D02*
X8465301Y-12431722D01*
X8465301Y-12431722D02*
X8465301Y-12536484D01*
X8465301Y-12431722D02*
X8474825Y-12412674D01*
X8474825Y-12412674D02*
X8493872Y-12403150D01*
X8493872Y-12403150D02*
X8522444Y-12403150D01*
X8522444Y-12403150D02*
X8541491Y-12412674D01*
X8541491Y-12412674D02*
X8551015Y-12431722D01*
X8551015Y-12431722D02*
X8551015Y-12536484D01*
X8941491Y-12326960D02*
X8770063Y-12584103D01*
X9198634Y-12336484D02*
X9217682Y-12336484D01*
X9217682Y-12336484D02*
X9236729Y-12346008D01*
X9236729Y-12346008D02*
X9246253Y-12355531D01*
X9246253Y-12355531D02*
X9255777Y-12374579D01*
X9255777Y-12374579D02*
X9265301Y-12412674D01*
X9265301Y-12412674D02*
X9265301Y-12460293D01*
X9265301Y-12460293D02*
X9255777Y-12498388D01*
X9255777Y-12498388D02*
X9246253Y-12517436D01*
X9246253Y-12517436D02*
X9236729Y-12526960D01*
X9236729Y-12526960D02*
X9217682Y-12536484D01*
X9217682Y-12536484D02*
X9198634Y-12536484D01*
X9198634Y-12536484D02*
X9179587Y-12526960D01*
X9179587Y-12526960D02*
X9170063Y-12517436D01*
X9170063Y-12517436D02*
X9160539Y-12498388D01*
X9160539Y-12498388D02*
X9151015Y-12460293D01*
X9151015Y-12460293D02*
X9151015Y-12412674D01*
X9151015Y-12412674D02*
X9160539Y-12374579D01*
X9160539Y-12374579D02*
X9170063Y-12355531D01*
X9170063Y-12355531D02*
X9179587Y-12346008D01*
X9179587Y-12346008D02*
X9198634Y-12336484D01*
X9351015Y-12517436D02*
X9360539Y-12526960D01*
X9360539Y-12526960D02*
X9351015Y-12536484D01*
X9351015Y-12536484D02*
X9341491Y-12526960D01*
X9341491Y-12526960D02*
X9351015Y-12517436D01*
X9351015Y-12517436D02*
X9351015Y-12536484D01*
X9551015Y-12536484D02*
X9436729Y-12536484D01*
X9493872Y-12536484D02*
X9493872Y-12336484D01*
X9493872Y-12336484D02*
X9474825Y-12365055D01*
X9474825Y-12365055D02*
X9455777Y-12384103D01*
X9455777Y-12384103D02*
X9436729Y-12393627D01*
X9627206Y-12355531D02*
X9636729Y-12346008D01*
X9636729Y-12346008D02*
X9655777Y-12336484D01*
X9655777Y-12336484D02*
X9703396Y-12336484D01*
X9703396Y-12336484D02*
X9722444Y-12346008D01*
X9722444Y-12346008D02*
X9731968Y-12355531D01*
X9731968Y-12355531D02*
X9741491Y-12374579D01*
X9741491Y-12374579D02*
X9741491Y-12393627D01*
X9741491Y-12393627D02*
X9731968Y-12422198D01*
X9731968Y-12422198D02*
X9617682Y-12536484D01*
X9617682Y-12536484D02*
X9741491Y-12536484D01*
X9912920Y-12336484D02*
X9874825Y-12336484D01*
X9874825Y-12336484D02*
X9855777Y-12346008D01*
X9855777Y-12346008D02*
X9846253Y-12355531D01*
X9846253Y-12355531D02*
X9827206Y-12384103D01*
X9827206Y-12384103D02*
X9817682Y-12422198D01*
X9817682Y-12422198D02*
X9817682Y-12498388D01*
X9817682Y-12498388D02*
X9827206Y-12517436D01*
X9827206Y-12517436D02*
X9836729Y-12526960D01*
X9836729Y-12526960D02*
X9855777Y-12536484D01*
X9855777Y-12536484D02*
X9893872Y-12536484D01*
X9893872Y-12536484D02*
X9912920Y-12526960D01*
X9912920Y-12526960D02*
X9922444Y-12517436D01*
X9922444Y-12517436D02*
X9931968Y-12498388D01*
X9931968Y-12498388D02*
X9931968Y-12450769D01*
X9931968Y-12450769D02*
X9922444Y-12431722D01*
X9922444Y-12431722D02*
X9912920Y-12422198D01*
X9912920Y-12422198D02*
X9893872Y-12412674D01*
X9893872Y-12412674D02*
X9855777Y-12412674D01*
X9855777Y-12412674D02*
X9836729Y-12422198D01*
X9836729Y-12422198D02*
X9827206Y-12431722D01*
X9827206Y-12431722D02*
X9817682Y-12450769D01*
X10055777Y-12336484D02*
X10074825Y-12336484D01*
X10074825Y-12336484D02*
X10093872Y-12346008D01*
X10093872Y-12346008D02*
X10103396Y-12355531D01*
X10103396Y-12355531D02*
X10112920Y-12374579D01*
X10112920Y-12374579D02*
X10122444Y-12412674D01*
X10122444Y-12412674D02*
X10122444Y-12460293D01*
X10122444Y-12460293D02*
X10112920Y-12498388D01*
X10112920Y-12498388D02*
X10103396Y-12517436D01*
X10103396Y-12517436D02*
X10093872Y-12526960D01*
X10093872Y-12526960D02*
X10074825Y-12536484D01*
X10074825Y-12536484D02*
X10055777Y-12536484D01*
X10055777Y-12536484D02*
X10036729Y-12526960D01*
X10036729Y-12526960D02*
X10027206Y-12517436D01*
X10027206Y-12517436D02*
X10017682Y-12498388D01*
X10017682Y-12498388D02*
X10008158Y-12460293D01*
X10008158Y-12460293D02*
X10008158Y-12412674D01*
X10008158Y-12412674D02*
X10017682Y-12374579D01*
X10017682Y-12374579D02*
X10027206Y-12355531D01*
X10027206Y-12355531D02*
X10036729Y-12346008D01*
X10036729Y-12346008D02*
X10055777Y-12336484D01*
X10198634Y-12336484D02*
X10198634Y-12374579D01*
X10274825Y-12336484D02*
X10274825Y-12374579D01*
X10570063Y-12612674D02*
X10560539Y-12603150D01*
X10560539Y-12603150D02*
X10541491Y-12574579D01*
X10541491Y-12574579D02*
X10531968Y-12555531D01*
X10531968Y-12555531D02*
X10522444Y-12526960D01*
X10522444Y-12526960D02*
X10512920Y-12479341D01*
X10512920Y-12479341D02*
X10512920Y-12441246D01*
X10512920Y-12441246D02*
X10522444Y-12393627D01*
X10522444Y-12393627D02*
X10531968Y-12365055D01*
X10531968Y-12365055D02*
X10541491Y-12346008D01*
X10541491Y-12346008D02*
X10560539Y-12317436D01*
X10560539Y-12317436D02*
X10570063Y-12307912D01*
X10731968Y-12403150D02*
X10731968Y-12536484D01*
X10684349Y-12326960D02*
X10636730Y-12469817D01*
X10636730Y-12469817D02*
X10760539Y-12469817D01*
X10989111Y-12536484D02*
X10989111Y-12336484D01*
X11074825Y-12536484D02*
X11074825Y-12431722D01*
X11074825Y-12431722D02*
X11065301Y-12412674D01*
X11065301Y-12412674D02*
X11046253Y-12403150D01*
X11046253Y-12403150D02*
X11017682Y-12403150D01*
X11017682Y-12403150D02*
X10998634Y-12412674D01*
X10998634Y-12412674D02*
X10989111Y-12422198D01*
X11198634Y-12536484D02*
X11179587Y-12526960D01*
X11179587Y-12526960D02*
X11170063Y-12517436D01*
X11170063Y-12517436D02*
X11160539Y-12498388D01*
X11160539Y-12498388D02*
X11160539Y-12441246D01*
X11160539Y-12441246D02*
X11170063Y-12422198D01*
X11170063Y-12422198D02*
X11179587Y-12412674D01*
X11179587Y-12412674D02*
X11198634Y-12403150D01*
X11198634Y-12403150D02*
X11227206Y-12403150D01*
X11227206Y-12403150D02*
X11246253Y-12412674D01*
X11246253Y-12412674D02*
X11255777Y-12422198D01*
X11255777Y-12422198D02*
X11265301Y-12441246D01*
X11265301Y-12441246D02*
X11265301Y-12498388D01*
X11265301Y-12498388D02*
X11255777Y-12517436D01*
X11255777Y-12517436D02*
X11246253Y-12526960D01*
X11246253Y-12526960D02*
X11227206Y-12536484D01*
X11227206Y-12536484D02*
X11198634Y-12536484D01*
X11379587Y-12536484D02*
X11360539Y-12526960D01*
X11360539Y-12526960D02*
X11351015Y-12507912D01*
X11351015Y-12507912D02*
X11351015Y-12336484D01*
X11531968Y-12526960D02*
X11512920Y-12536484D01*
X11512920Y-12536484D02*
X11474825Y-12536484D01*
X11474825Y-12536484D02*
X11455777Y-12526960D01*
X11455777Y-12526960D02*
X11446253Y-12507912D01*
X11446253Y-12507912D02*
X11446253Y-12431722D01*
X11446253Y-12431722D02*
X11455777Y-12412674D01*
X11455777Y-12412674D02*
X11474825Y-12403150D01*
X11474825Y-12403150D02*
X11512920Y-12403150D01*
X11512920Y-12403150D02*
X11531968Y-12412674D01*
X11531968Y-12412674D02*
X11541491Y-12431722D01*
X11541491Y-12431722D02*
X11541491Y-12450769D01*
X11541491Y-12450769D02*
X11446253Y-12469817D01*
X11617682Y-12526960D02*
X11636730Y-12536484D01*
X11636730Y-12536484D02*
X11674825Y-12536484D01*
X11674825Y-12536484D02*
X11693872Y-12526960D01*
X11693872Y-12526960D02*
X11703396Y-12507912D01*
X11703396Y-12507912D02*
X11703396Y-12498388D01*
X11703396Y-12498388D02*
X11693872Y-12479341D01*
X11693872Y-12479341D02*
X11674825Y-12469817D01*
X11674825Y-12469817D02*
X11646253Y-12469817D01*
X11646253Y-12469817D02*
X11627206Y-12460293D01*
X11627206Y-12460293D02*
X11617682Y-12441246D01*
X11617682Y-12441246D02*
X11617682Y-12431722D01*
X11617682Y-12431722D02*
X11627206Y-12412674D01*
X11627206Y-12412674D02*
X11646253Y-12403150D01*
X11646253Y-12403150D02*
X11674825Y-12403150D01*
X11674825Y-12403150D02*
X11693872Y-12412674D01*
X11770063Y-12612674D02*
X11779587Y-12603150D01*
X11779587Y-12603150D02*
X11798634Y-12574579D01*
X11798634Y-12574579D02*
X11808158Y-12555531D01*
X11808158Y-12555531D02*
X11817682Y-12526960D01*
X11817682Y-12526960D02*
X11827206Y-12479341D01*
X11827206Y-12479341D02*
X11827206Y-12441246D01*
X11827206Y-12441246D02*
X11817682Y-12393627D01*
X11817682Y-12393627D02*
X11808158Y-12365055D01*
X11808158Y-12365055D02*
X11798634Y-12346008D01*
X11798634Y-12346008D02*
X11779587Y-12317436D01*
X11779587Y-12317436D02*
X11770063Y-12307912D01*
X12131968Y-12612674D02*
X12122444Y-12603150D01*
X12122444Y-12603150D02*
X12103396Y-12574579D01*
X12103396Y-12574579D02*
X12093872Y-12555531D01*
X12093872Y-12555531D02*
X12084349Y-12526960D01*
X12084349Y-12526960D02*
X12074825Y-12479341D01*
X12074825Y-12479341D02*
X12074825Y-12441246D01*
X12074825Y-12441246D02*
X12084349Y-12393627D01*
X12084349Y-12393627D02*
X12093872Y-12365055D01*
X12093872Y-12365055D02*
X12103396Y-12346008D01*
X12103396Y-12346008D02*
X12122444Y-12317436D01*
X12122444Y-12317436D02*
X12131968Y-12307912D01*
X12208158Y-12403150D02*
X12208158Y-12536484D01*
X12208158Y-12422198D02*
X12217682Y-12412674D01*
X12217682Y-12412674D02*
X12236730Y-12403150D01*
X12236730Y-12403150D02*
X12265301Y-12403150D01*
X12265301Y-12403150D02*
X12284349Y-12412674D01*
X12284349Y-12412674D02*
X12293872Y-12431722D01*
X12293872Y-12431722D02*
X12293872Y-12536484D01*
X12417682Y-12536484D02*
X12398634Y-12526960D01*
X12398634Y-12526960D02*
X12389111Y-12517436D01*
X12389111Y-12517436D02*
X12379587Y-12498388D01*
X12379587Y-12498388D02*
X12379587Y-12441246D01*
X12379587Y-12441246D02*
X12389111Y-12422198D01*
X12389111Y-12422198D02*
X12398634Y-12412674D01*
X12398634Y-12412674D02*
X12417682Y-12403150D01*
X12417682Y-12403150D02*
X12446253Y-12403150D01*
X12446253Y-12403150D02*
X12465301Y-12412674D01*
X12465301Y-12412674D02*
X12474825Y-12422198D01*
X12474825Y-12422198D02*
X12484349Y-12441246D01*
X12484349Y-12441246D02*
X12484349Y-12498388D01*
X12484349Y-12498388D02*
X12474825Y-12517436D01*
X12474825Y-12517436D02*
X12465301Y-12526960D01*
X12465301Y-12526960D02*
X12446253Y-12536484D01*
X12446253Y-12536484D02*
X12417682Y-12536484D01*
X12541492Y-12403150D02*
X12617682Y-12403150D01*
X12570063Y-12336484D02*
X12570063Y-12507912D01*
X12570063Y-12507912D02*
X12579587Y-12526960D01*
X12579587Y-12526960D02*
X12598634Y-12536484D01*
X12598634Y-12536484D02*
X12617682Y-12536484D01*
X12836730Y-12403150D02*
X12836730Y-12603150D01*
X12836730Y-12412674D02*
X12855777Y-12403150D01*
X12855777Y-12403150D02*
X12893873Y-12403150D01*
X12893873Y-12403150D02*
X12912920Y-12412674D01*
X12912920Y-12412674D02*
X12922444Y-12422198D01*
X12922444Y-12422198D02*
X12931968Y-12441246D01*
X12931968Y-12441246D02*
X12931968Y-12498388D01*
X12931968Y-12498388D02*
X12922444Y-12517436D01*
X12922444Y-12517436D02*
X12912920Y-12526960D01*
X12912920Y-12526960D02*
X12893873Y-12536484D01*
X12893873Y-12536484D02*
X12855777Y-12536484D01*
X12855777Y-12536484D02*
X12836730Y-12526960D01*
X13046253Y-12536484D02*
X13027206Y-12526960D01*
X13027206Y-12526960D02*
X13017682Y-12507912D01*
X13017682Y-12507912D02*
X13017682Y-12336484D01*
X13208158Y-12536484D02*
X13208158Y-12431722D01*
X13208158Y-12431722D02*
X13198634Y-12412674D01*
X13198634Y-12412674D02*
X13179587Y-12403150D01*
X13179587Y-12403150D02*
X13141492Y-12403150D01*
X13141492Y-12403150D02*
X13122444Y-12412674D01*
X13208158Y-12526960D02*
X13189111Y-12536484D01*
X13189111Y-12536484D02*
X13141492Y-12536484D01*
X13141492Y-12536484D02*
X13122444Y-12526960D01*
X13122444Y-12526960D02*
X13112920Y-12507912D01*
X13112920Y-12507912D02*
X13112920Y-12488865D01*
X13112920Y-12488865D02*
X13122444Y-12469817D01*
X13122444Y-12469817D02*
X13141492Y-12460293D01*
X13141492Y-12460293D02*
X13189111Y-12460293D01*
X13189111Y-12460293D02*
X13208158Y-12450769D01*
X13274825Y-12403150D02*
X13351015Y-12403150D01*
X13303396Y-12336484D02*
X13303396Y-12507912D01*
X13303396Y-12507912D02*
X13312920Y-12526960D01*
X13312920Y-12526960D02*
X13331968Y-12536484D01*
X13331968Y-12536484D02*
X13351015Y-12536484D01*
X13493873Y-12526960D02*
X13474825Y-12536484D01*
X13474825Y-12536484D02*
X13436730Y-12536484D01*
X13436730Y-12536484D02*
X13417682Y-12526960D01*
X13417682Y-12526960D02*
X13408158Y-12507912D01*
X13408158Y-12507912D02*
X13408158Y-12431722D01*
X13408158Y-12431722D02*
X13417682Y-12412674D01*
X13417682Y-12412674D02*
X13436730Y-12403150D01*
X13436730Y-12403150D02*
X13474825Y-12403150D01*
X13474825Y-12403150D02*
X13493873Y-12412674D01*
X13493873Y-12412674D02*
X13503396Y-12431722D01*
X13503396Y-12431722D02*
X13503396Y-12450769D01*
X13503396Y-12450769D02*
X13408158Y-12469817D01*
X13674825Y-12536484D02*
X13674825Y-12336484D01*
X13674825Y-12526960D02*
X13655777Y-12536484D01*
X13655777Y-12536484D02*
X13617682Y-12536484D01*
X13617682Y-12536484D02*
X13598634Y-12526960D01*
X13598634Y-12526960D02*
X13589111Y-12517436D01*
X13589111Y-12517436D02*
X13579587Y-12498388D01*
X13579587Y-12498388D02*
X13579587Y-12441246D01*
X13579587Y-12441246D02*
X13589111Y-12422198D01*
X13589111Y-12422198D02*
X13598634Y-12412674D01*
X13598634Y-12412674D02*
X13617682Y-12403150D01*
X13617682Y-12403150D02*
X13655777Y-12403150D01*
X13655777Y-12403150D02*
X13674825Y-12412674D01*
X13751015Y-12612674D02*
X13760539Y-12603150D01*
X13760539Y-12603150D02*
X13779587Y-12574579D01*
X13779587Y-12574579D02*
X13789111Y-12555531D01*
X13789111Y-12555531D02*
X13798634Y-12526960D01*
X13798634Y-12526960D02*
X13808158Y-12479341D01*
X13808158Y-12479341D02*
X13808158Y-12441246D01*
X13808158Y-12441246D02*
X13798634Y-12393627D01*
X13798634Y-12393627D02*
X13789111Y-12365055D01*
X13789111Y-12365055D02*
X13779587Y-12346008D01*
X13779587Y-12346008D02*
X13760539Y-12317436D01*
X13760539Y-12317436D02*
X13751015Y-12307912D01*
M02*
