%TF.GenerationSoftware,KiCad,Pcbnew,7.0.5*%
%TF.CreationDate,2023-07-18T15:35:35-04:00*%
%TF.ProjectId,PCBPT_Main_control_V1,50434250-545f-44d6-9169-6e5f636f6e74,rev?*%
%TF.SameCoordinates,Original*%
%TF.FileFunction,Legend,Top*%
%TF.FilePolarity,Positive*%
%FSLAX46Y46*%
G04 Gerber Fmt 4.6, Leading zero omitted, Abs format (unit mm)*
G04 Created by KiCad (PCBNEW 7.0.5) date 2023-07-18 15:35:35*
%MOMM*%
%LPD*%
G01*
G04 APERTURE LIST*
%ADD10C,0.750000*%
%ADD11C,0.300000*%
%ADD12C,0.381000*%
%ADD13C,0.150000*%
%ADD14C,0.120000*%
%ADD15C,0.100000*%
%ADD16C,0.200000*%
%ADD17C,2.850000*%
%ADD18C,2.500000*%
G04 APERTURE END LIST*
D10*
X201714286Y-48593857D02*
X200285714Y-48593857D01*
X200285714Y-48593857D02*
X200142857Y-50022428D01*
X200142857Y-50022428D02*
X200285714Y-49879571D01*
X200285714Y-49879571D02*
X200571429Y-49736714D01*
X200571429Y-49736714D02*
X201285714Y-49736714D01*
X201285714Y-49736714D02*
X201571429Y-49879571D01*
X201571429Y-49879571D02*
X201714286Y-50022428D01*
X201714286Y-50022428D02*
X201857143Y-50308142D01*
X201857143Y-50308142D02*
X201857143Y-51022428D01*
X201857143Y-51022428D02*
X201714286Y-51308142D01*
X201714286Y-51308142D02*
X201571429Y-51451000D01*
X201571429Y-51451000D02*
X201285714Y-51593857D01*
X201285714Y-51593857D02*
X200571429Y-51593857D01*
X200571429Y-51593857D02*
X200285714Y-51451000D01*
X200285714Y-51451000D02*
X200142857Y-51308142D01*
X164071429Y-49593857D02*
X164071429Y-51593857D01*
X163357143Y-48451000D02*
X162642857Y-50593857D01*
X162642857Y-50593857D02*
X164500000Y-50593857D01*
D11*
X110079400Y-113695489D02*
X110079400Y-112552632D01*
X110650828Y-113124060D02*
X109507971Y-113124060D01*
X110650828Y-111052631D02*
X110650828Y-111909774D01*
X110650828Y-111481203D02*
X109150828Y-111481203D01*
X109150828Y-111481203D02*
X109365114Y-111624060D01*
X109365114Y-111624060D02*
X109507971Y-111766917D01*
X109507971Y-111766917D02*
X109579400Y-111909774D01*
X109293685Y-110481203D02*
X109222257Y-110409775D01*
X109222257Y-110409775D02*
X109150828Y-110266918D01*
X109150828Y-110266918D02*
X109150828Y-109909775D01*
X109150828Y-109909775D02*
X109222257Y-109766918D01*
X109222257Y-109766918D02*
X109293685Y-109695489D01*
X109293685Y-109695489D02*
X109436542Y-109624060D01*
X109436542Y-109624060D02*
X109579400Y-109624060D01*
X109579400Y-109624060D02*
X109793685Y-109695489D01*
X109793685Y-109695489D02*
X110650828Y-110552632D01*
X110650828Y-110552632D02*
X110650828Y-109624060D01*
X109150828Y-109195489D02*
X110650828Y-108695489D01*
X110650828Y-108695489D02*
X109150828Y-108195489D01*
D10*
X201571429Y-79093857D02*
X201000000Y-79093857D01*
X201000000Y-79093857D02*
X200714286Y-79236714D01*
X200714286Y-79236714D02*
X200571429Y-79379571D01*
X200571429Y-79379571D02*
X200285714Y-79808142D01*
X200285714Y-79808142D02*
X200142857Y-80379571D01*
X200142857Y-80379571D02*
X200142857Y-81522428D01*
X200142857Y-81522428D02*
X200285714Y-81808142D01*
X200285714Y-81808142D02*
X200428571Y-81951000D01*
X200428571Y-81951000D02*
X200714286Y-82093857D01*
X200714286Y-82093857D02*
X201285714Y-82093857D01*
X201285714Y-82093857D02*
X201571429Y-81951000D01*
X201571429Y-81951000D02*
X201714286Y-81808142D01*
X201714286Y-81808142D02*
X201857143Y-81522428D01*
X201857143Y-81522428D02*
X201857143Y-80808142D01*
X201857143Y-80808142D02*
X201714286Y-80522428D01*
X201714286Y-80522428D02*
X201571429Y-80379571D01*
X201571429Y-80379571D02*
X201285714Y-80236714D01*
X201285714Y-80236714D02*
X200714286Y-80236714D01*
X200714286Y-80236714D02*
X200428571Y-80379571D01*
X200428571Y-80379571D02*
X200285714Y-80522428D01*
X200285714Y-80522428D02*
X200142857Y-80808142D01*
D11*
X94622257Y-112159774D02*
X94550828Y-112302632D01*
X94550828Y-112302632D02*
X94550828Y-112516917D01*
X94550828Y-112516917D02*
X94622257Y-112731203D01*
X94622257Y-112731203D02*
X94765114Y-112874060D01*
X94765114Y-112874060D02*
X94907971Y-112945489D01*
X94907971Y-112945489D02*
X95193685Y-113016917D01*
X95193685Y-113016917D02*
X95407971Y-113016917D01*
X95407971Y-113016917D02*
X95693685Y-112945489D01*
X95693685Y-112945489D02*
X95836542Y-112874060D01*
X95836542Y-112874060D02*
X95979400Y-112731203D01*
X95979400Y-112731203D02*
X96050828Y-112516917D01*
X96050828Y-112516917D02*
X96050828Y-112374060D01*
X96050828Y-112374060D02*
X95979400Y-112159774D01*
X95979400Y-112159774D02*
X95907971Y-112088346D01*
X95907971Y-112088346D02*
X95407971Y-112088346D01*
X95407971Y-112088346D02*
X95407971Y-112374060D01*
X96050828Y-111445489D02*
X94550828Y-111445489D01*
X94550828Y-111445489D02*
X96050828Y-110588346D01*
X96050828Y-110588346D02*
X94550828Y-110588346D01*
X96050828Y-109874060D02*
X94550828Y-109874060D01*
X94550828Y-109874060D02*
X94550828Y-109516917D01*
X94550828Y-109516917D02*
X94622257Y-109302631D01*
X94622257Y-109302631D02*
X94765114Y-109159774D01*
X94765114Y-109159774D02*
X94907971Y-109088345D01*
X94907971Y-109088345D02*
X95193685Y-109016917D01*
X95193685Y-109016917D02*
X95407971Y-109016917D01*
X95407971Y-109016917D02*
X95693685Y-109088345D01*
X95693685Y-109088345D02*
X95836542Y-109159774D01*
X95836542Y-109159774D02*
X95979400Y-109302631D01*
X95979400Y-109302631D02*
X96050828Y-109516917D01*
X96050828Y-109516917D02*
X96050828Y-109874060D01*
D10*
X129500000Y-48593857D02*
X131357143Y-48593857D01*
X131357143Y-48593857D02*
X130357143Y-49736714D01*
X130357143Y-49736714D02*
X130785714Y-49736714D01*
X130785714Y-49736714D02*
X131071429Y-49879571D01*
X131071429Y-49879571D02*
X131214286Y-50022428D01*
X131214286Y-50022428D02*
X131357143Y-50308142D01*
X131357143Y-50308142D02*
X131357143Y-51022428D01*
X131357143Y-51022428D02*
X131214286Y-51308142D01*
X131214286Y-51308142D02*
X131071429Y-51451000D01*
X131071429Y-51451000D02*
X130785714Y-51593857D01*
X130785714Y-51593857D02*
X129928571Y-51593857D01*
X129928571Y-51593857D02*
X129642857Y-51451000D01*
X129642857Y-51451000D02*
X129500000Y-51308142D01*
X92642857Y-48879571D02*
X92785714Y-48736714D01*
X92785714Y-48736714D02*
X93071429Y-48593857D01*
X93071429Y-48593857D02*
X93785714Y-48593857D01*
X93785714Y-48593857D02*
X94071429Y-48736714D01*
X94071429Y-48736714D02*
X94214286Y-48879571D01*
X94214286Y-48879571D02*
X94357143Y-49165285D01*
X94357143Y-49165285D02*
X94357143Y-49451000D01*
X94357143Y-49451000D02*
X94214286Y-49879571D01*
X94214286Y-49879571D02*
X92500000Y-51593857D01*
X92500000Y-51593857D02*
X94357143Y-51593857D01*
X94357143Y-82093857D02*
X92642857Y-82093857D01*
X93500000Y-82093857D02*
X93500000Y-79093857D01*
X93500000Y-79093857D02*
X93214286Y-79522428D01*
X93214286Y-79522428D02*
X92928571Y-79808142D01*
X92928571Y-79808142D02*
X92642857Y-79951000D01*
D12*
X117761799Y-115167128D02*
X117084466Y-115167128D01*
X117084466Y-116231509D02*
X117084466Y-114199509D01*
X117084466Y-114199509D02*
X118052085Y-114199509D01*
X118826180Y-114199509D02*
X118826180Y-115844462D01*
X118826180Y-115844462D02*
X118922942Y-116037986D01*
X118922942Y-116037986D02*
X119019704Y-116134748D01*
X119019704Y-116134748D02*
X119213228Y-116231509D01*
X119213228Y-116231509D02*
X119600275Y-116231509D01*
X119600275Y-116231509D02*
X119793799Y-116134748D01*
X119793799Y-116134748D02*
X119890561Y-116037986D01*
X119890561Y-116037986D02*
X119987323Y-115844462D01*
X119987323Y-115844462D02*
X119987323Y-114199509D01*
X120858180Y-116134748D02*
X121148466Y-116231509D01*
X121148466Y-116231509D02*
X121632275Y-116231509D01*
X121632275Y-116231509D02*
X121825799Y-116134748D01*
X121825799Y-116134748D02*
X121922561Y-116037986D01*
X121922561Y-116037986D02*
X122019323Y-115844462D01*
X122019323Y-115844462D02*
X122019323Y-115650938D01*
X122019323Y-115650938D02*
X121922561Y-115457414D01*
X121922561Y-115457414D02*
X121825799Y-115360652D01*
X121825799Y-115360652D02*
X121632275Y-115263890D01*
X121632275Y-115263890D02*
X121245228Y-115167128D01*
X121245228Y-115167128D02*
X121051704Y-115070367D01*
X121051704Y-115070367D02*
X120954942Y-114973605D01*
X120954942Y-114973605D02*
X120858180Y-114780081D01*
X120858180Y-114780081D02*
X120858180Y-114586557D01*
X120858180Y-114586557D02*
X120954942Y-114393033D01*
X120954942Y-114393033D02*
X121051704Y-114296271D01*
X121051704Y-114296271D02*
X121245228Y-114199509D01*
X121245228Y-114199509D02*
X121729037Y-114199509D01*
X121729037Y-114199509D02*
X122019323Y-114296271D01*
X122890180Y-115167128D02*
X123567513Y-115167128D01*
X123857799Y-116231509D02*
X122890180Y-116231509D01*
X122890180Y-116231509D02*
X122890180Y-114199509D01*
X122890180Y-114199509D02*
X123857799Y-114199509D01*
D13*
%TO.C,U2*%
X93188095Y-94819819D02*
X93188095Y-95629342D01*
X93188095Y-95629342D02*
X93235714Y-95724580D01*
X93235714Y-95724580D02*
X93283333Y-95772200D01*
X93283333Y-95772200D02*
X93378571Y-95819819D01*
X93378571Y-95819819D02*
X93569047Y-95819819D01*
X93569047Y-95819819D02*
X93664285Y-95772200D01*
X93664285Y-95772200D02*
X93711904Y-95724580D01*
X93711904Y-95724580D02*
X93759523Y-95629342D01*
X93759523Y-95629342D02*
X93759523Y-94819819D01*
X94188095Y-94915057D02*
X94235714Y-94867438D01*
X94235714Y-94867438D02*
X94330952Y-94819819D01*
X94330952Y-94819819D02*
X94569047Y-94819819D01*
X94569047Y-94819819D02*
X94664285Y-94867438D01*
X94664285Y-94867438D02*
X94711904Y-94915057D01*
X94711904Y-94915057D02*
X94759523Y-95010295D01*
X94759523Y-95010295D02*
X94759523Y-95105533D01*
X94759523Y-95105533D02*
X94711904Y-95248390D01*
X94711904Y-95248390D02*
X94140476Y-95819819D01*
X94140476Y-95819819D02*
X94759523Y-95819819D01*
X87358207Y-74199580D02*
X87310588Y-74247200D01*
X87310588Y-74247200D02*
X87167731Y-74294819D01*
X87167731Y-74294819D02*
X87072493Y-74294819D01*
X87072493Y-74294819D02*
X86929636Y-74247200D01*
X86929636Y-74247200D02*
X86834398Y-74151961D01*
X86834398Y-74151961D02*
X86786779Y-74056723D01*
X86786779Y-74056723D02*
X86739160Y-73866247D01*
X86739160Y-73866247D02*
X86739160Y-73723390D01*
X86739160Y-73723390D02*
X86786779Y-73532914D01*
X86786779Y-73532914D02*
X86834398Y-73437676D01*
X86834398Y-73437676D02*
X86929636Y-73342438D01*
X86929636Y-73342438D02*
X87072493Y-73294819D01*
X87072493Y-73294819D02*
X87167731Y-73294819D01*
X87167731Y-73294819D02*
X87310588Y-73342438D01*
X87310588Y-73342438D02*
X87358207Y-73390057D01*
X87929636Y-74294819D02*
X87834398Y-74247200D01*
X87834398Y-74247200D02*
X87786779Y-74199580D01*
X87786779Y-74199580D02*
X87739160Y-74104342D01*
X87739160Y-74104342D02*
X87739160Y-73818628D01*
X87739160Y-73818628D02*
X87786779Y-73723390D01*
X87786779Y-73723390D02*
X87834398Y-73675771D01*
X87834398Y-73675771D02*
X87929636Y-73628152D01*
X87929636Y-73628152D02*
X88072493Y-73628152D01*
X88072493Y-73628152D02*
X88167731Y-73675771D01*
X88167731Y-73675771D02*
X88215350Y-73723390D01*
X88215350Y-73723390D02*
X88262969Y-73818628D01*
X88262969Y-73818628D02*
X88262969Y-74104342D01*
X88262969Y-74104342D02*
X88215350Y-74199580D01*
X88215350Y-74199580D02*
X88167731Y-74247200D01*
X88167731Y-74247200D02*
X88072493Y-74294819D01*
X88072493Y-74294819D02*
X87929636Y-74294819D01*
X88691541Y-74294819D02*
X88691541Y-73628152D01*
X88691541Y-73818628D02*
X88739160Y-73723390D01*
X88739160Y-73723390D02*
X88786779Y-73675771D01*
X88786779Y-73675771D02*
X88882017Y-73628152D01*
X88882017Y-73628152D02*
X88977255Y-73628152D01*
X89739160Y-74294819D02*
X89739160Y-73771009D01*
X89739160Y-73771009D02*
X89691541Y-73675771D01*
X89691541Y-73675771D02*
X89596303Y-73628152D01*
X89596303Y-73628152D02*
X89405827Y-73628152D01*
X89405827Y-73628152D02*
X89310589Y-73675771D01*
X89739160Y-74247200D02*
X89643922Y-74294819D01*
X89643922Y-74294819D02*
X89405827Y-74294819D01*
X89405827Y-74294819D02*
X89310589Y-74247200D01*
X89310589Y-74247200D02*
X89262970Y-74151961D01*
X89262970Y-74151961D02*
X89262970Y-74056723D01*
X89262970Y-74056723D02*
X89310589Y-73961485D01*
X89310589Y-73961485D02*
X89405827Y-73913866D01*
X89405827Y-73913866D02*
X89643922Y-73913866D01*
X89643922Y-73913866D02*
X89739160Y-73866247D01*
X90358208Y-74294819D02*
X90262970Y-74247200D01*
X90262970Y-74247200D02*
X90215351Y-74151961D01*
X90215351Y-74151961D02*
X90215351Y-73294819D01*
X90501066Y-74390057D02*
X91262970Y-74390057D01*
X91405828Y-73294819D02*
X92072494Y-74294819D01*
X92072494Y-73294819D02*
X91405828Y-74294819D01*
X92453447Y-74294819D02*
X92453447Y-73294819D01*
X92882018Y-74009104D02*
X93358208Y-74009104D01*
X92786780Y-74294819D02*
X93120113Y-73294819D01*
X93120113Y-73294819D02*
X93453446Y-74294819D01*
X93977256Y-73294819D02*
X94167732Y-73294819D01*
X94167732Y-73294819D02*
X94262970Y-73342438D01*
X94262970Y-73342438D02*
X94358208Y-73437676D01*
X94358208Y-73437676D02*
X94405827Y-73628152D01*
X94405827Y-73628152D02*
X94405827Y-73961485D01*
X94405827Y-73961485D02*
X94358208Y-74151961D01*
X94358208Y-74151961D02*
X94262970Y-74247200D01*
X94262970Y-74247200D02*
X94167732Y-74294819D01*
X94167732Y-74294819D02*
X93977256Y-74294819D01*
X93977256Y-74294819D02*
X93882018Y-74247200D01*
X93882018Y-74247200D02*
X93786780Y-74151961D01*
X93786780Y-74151961D02*
X93739161Y-73961485D01*
X93739161Y-73961485D02*
X93739161Y-73628152D01*
X93739161Y-73628152D02*
X93786780Y-73437676D01*
X93786780Y-73437676D02*
X93882018Y-73342438D01*
X93882018Y-73342438D02*
X93977256Y-73294819D01*
X94596304Y-74390057D02*
X95358208Y-74390057D01*
X96167732Y-74294819D02*
X95834399Y-73818628D01*
X95596304Y-74294819D02*
X95596304Y-73294819D01*
X95596304Y-73294819D02*
X95977256Y-73294819D01*
X95977256Y-73294819D02*
X96072494Y-73342438D01*
X96072494Y-73342438D02*
X96120113Y-73390057D01*
X96120113Y-73390057D02*
X96167732Y-73485295D01*
X96167732Y-73485295D02*
X96167732Y-73628152D01*
X96167732Y-73628152D02*
X96120113Y-73723390D01*
X96120113Y-73723390D02*
X96072494Y-73771009D01*
X96072494Y-73771009D02*
X95977256Y-73818628D01*
X95977256Y-73818628D02*
X95596304Y-73818628D01*
X96596304Y-74294819D02*
X96596304Y-73294819D01*
X96596304Y-73294819D02*
X96977256Y-73294819D01*
X96977256Y-73294819D02*
X97072494Y-73342438D01*
X97072494Y-73342438D02*
X97120113Y-73390057D01*
X97120113Y-73390057D02*
X97167732Y-73485295D01*
X97167732Y-73485295D02*
X97167732Y-73628152D01*
X97167732Y-73628152D02*
X97120113Y-73723390D01*
X97120113Y-73723390D02*
X97072494Y-73771009D01*
X97072494Y-73771009D02*
X96977256Y-73818628D01*
X96977256Y-73818628D02*
X96596304Y-73818628D01*
X97548685Y-73390057D02*
X97596304Y-73342438D01*
X97596304Y-73342438D02*
X97691542Y-73294819D01*
X97691542Y-73294819D02*
X97929637Y-73294819D01*
X97929637Y-73294819D02*
X98024875Y-73342438D01*
X98024875Y-73342438D02*
X98072494Y-73390057D01*
X98072494Y-73390057D02*
X98120113Y-73485295D01*
X98120113Y-73485295D02*
X98120113Y-73580533D01*
X98120113Y-73580533D02*
X98072494Y-73723390D01*
X98072494Y-73723390D02*
X97501066Y-74294819D01*
X97501066Y-74294819D02*
X98120113Y-74294819D01*
X98739161Y-73294819D02*
X98834399Y-73294819D01*
X98834399Y-73294819D02*
X98929637Y-73342438D01*
X98929637Y-73342438D02*
X98977256Y-73390057D01*
X98977256Y-73390057D02*
X99024875Y-73485295D01*
X99024875Y-73485295D02*
X99072494Y-73675771D01*
X99072494Y-73675771D02*
X99072494Y-73913866D01*
X99072494Y-73913866D02*
X99024875Y-74104342D01*
X99024875Y-74104342D02*
X98977256Y-74199580D01*
X98977256Y-74199580D02*
X98929637Y-74247200D01*
X98929637Y-74247200D02*
X98834399Y-74294819D01*
X98834399Y-74294819D02*
X98739161Y-74294819D01*
X98739161Y-74294819D02*
X98643923Y-74247200D01*
X98643923Y-74247200D02*
X98596304Y-74199580D01*
X98596304Y-74199580D02*
X98548685Y-74104342D01*
X98548685Y-74104342D02*
X98501066Y-73913866D01*
X98501066Y-73913866D02*
X98501066Y-73675771D01*
X98501066Y-73675771D02*
X98548685Y-73485295D01*
X98548685Y-73485295D02*
X98596304Y-73390057D01*
X98596304Y-73390057D02*
X98643923Y-73342438D01*
X98643923Y-73342438D02*
X98739161Y-73294819D01*
X99929637Y-73628152D02*
X99929637Y-74294819D01*
X99691542Y-73247200D02*
X99453447Y-73961485D01*
X99453447Y-73961485D02*
X100072494Y-73961485D01*
X100643923Y-73294819D02*
X100739161Y-73294819D01*
X100739161Y-73294819D02*
X100834399Y-73342438D01*
X100834399Y-73342438D02*
X100882018Y-73390057D01*
X100882018Y-73390057D02*
X100929637Y-73485295D01*
X100929637Y-73485295D02*
X100977256Y-73675771D01*
X100977256Y-73675771D02*
X100977256Y-73913866D01*
X100977256Y-73913866D02*
X100929637Y-74104342D01*
X100929637Y-74104342D02*
X100882018Y-74199580D01*
X100882018Y-74199580D02*
X100834399Y-74247200D01*
X100834399Y-74247200D02*
X100739161Y-74294819D01*
X100739161Y-74294819D02*
X100643923Y-74294819D01*
X100643923Y-74294819D02*
X100548685Y-74247200D01*
X100548685Y-74247200D02*
X100501066Y-74199580D01*
X100501066Y-74199580D02*
X100453447Y-74104342D01*
X100453447Y-74104342D02*
X100405828Y-73913866D01*
X100405828Y-73913866D02*
X100405828Y-73675771D01*
X100405828Y-73675771D02*
X100453447Y-73485295D01*
X100453447Y-73485295D02*
X100501066Y-73390057D01*
X100501066Y-73390057D02*
X100548685Y-73342438D01*
X100548685Y-73342438D02*
X100643923Y-73294819D01*
%TO.C,U3*%
X137744819Y-60586904D02*
X138554342Y-60586904D01*
X138554342Y-60586904D02*
X138649580Y-60539285D01*
X138649580Y-60539285D02*
X138697200Y-60491666D01*
X138697200Y-60491666D02*
X138744819Y-60396428D01*
X138744819Y-60396428D02*
X138744819Y-60205952D01*
X138744819Y-60205952D02*
X138697200Y-60110714D01*
X138697200Y-60110714D02*
X138649580Y-60063095D01*
X138649580Y-60063095D02*
X138554342Y-60015476D01*
X138554342Y-60015476D02*
X137744819Y-60015476D01*
X137744819Y-59634523D02*
X137744819Y-59015476D01*
X137744819Y-59015476D02*
X138125771Y-59348809D01*
X138125771Y-59348809D02*
X138125771Y-59205952D01*
X138125771Y-59205952D02*
X138173390Y-59110714D01*
X138173390Y-59110714D02*
X138221009Y-59063095D01*
X138221009Y-59063095D02*
X138316247Y-59015476D01*
X138316247Y-59015476D02*
X138554342Y-59015476D01*
X138554342Y-59015476D02*
X138649580Y-59063095D01*
X138649580Y-59063095D02*
X138697200Y-59110714D01*
X138697200Y-59110714D02*
X138744819Y-59205952D01*
X138744819Y-59205952D02*
X138744819Y-59491666D01*
X138744819Y-59491666D02*
X138697200Y-59586904D01*
X138697200Y-59586904D02*
X138649580Y-59634523D01*
X117124580Y-66416792D02*
X117172200Y-66464411D01*
X117172200Y-66464411D02*
X117219819Y-66607268D01*
X117219819Y-66607268D02*
X117219819Y-66702506D01*
X117219819Y-66702506D02*
X117172200Y-66845363D01*
X117172200Y-66845363D02*
X117076961Y-66940601D01*
X117076961Y-66940601D02*
X116981723Y-66988220D01*
X116981723Y-66988220D02*
X116791247Y-67035839D01*
X116791247Y-67035839D02*
X116648390Y-67035839D01*
X116648390Y-67035839D02*
X116457914Y-66988220D01*
X116457914Y-66988220D02*
X116362676Y-66940601D01*
X116362676Y-66940601D02*
X116267438Y-66845363D01*
X116267438Y-66845363D02*
X116219819Y-66702506D01*
X116219819Y-66702506D02*
X116219819Y-66607268D01*
X116219819Y-66607268D02*
X116267438Y-66464411D01*
X116267438Y-66464411D02*
X116315057Y-66416792D01*
X117219819Y-65845363D02*
X117172200Y-65940601D01*
X117172200Y-65940601D02*
X117124580Y-65988220D01*
X117124580Y-65988220D02*
X117029342Y-66035839D01*
X117029342Y-66035839D02*
X116743628Y-66035839D01*
X116743628Y-66035839D02*
X116648390Y-65988220D01*
X116648390Y-65988220D02*
X116600771Y-65940601D01*
X116600771Y-65940601D02*
X116553152Y-65845363D01*
X116553152Y-65845363D02*
X116553152Y-65702506D01*
X116553152Y-65702506D02*
X116600771Y-65607268D01*
X116600771Y-65607268D02*
X116648390Y-65559649D01*
X116648390Y-65559649D02*
X116743628Y-65512030D01*
X116743628Y-65512030D02*
X117029342Y-65512030D01*
X117029342Y-65512030D02*
X117124580Y-65559649D01*
X117124580Y-65559649D02*
X117172200Y-65607268D01*
X117172200Y-65607268D02*
X117219819Y-65702506D01*
X117219819Y-65702506D02*
X117219819Y-65845363D01*
X117219819Y-65083458D02*
X116553152Y-65083458D01*
X116743628Y-65083458D02*
X116648390Y-65035839D01*
X116648390Y-65035839D02*
X116600771Y-64988220D01*
X116600771Y-64988220D02*
X116553152Y-64892982D01*
X116553152Y-64892982D02*
X116553152Y-64797744D01*
X117219819Y-64035839D02*
X116696009Y-64035839D01*
X116696009Y-64035839D02*
X116600771Y-64083458D01*
X116600771Y-64083458D02*
X116553152Y-64178696D01*
X116553152Y-64178696D02*
X116553152Y-64369172D01*
X116553152Y-64369172D02*
X116600771Y-64464410D01*
X117172200Y-64035839D02*
X117219819Y-64131077D01*
X117219819Y-64131077D02*
X117219819Y-64369172D01*
X117219819Y-64369172D02*
X117172200Y-64464410D01*
X117172200Y-64464410D02*
X117076961Y-64512029D01*
X117076961Y-64512029D02*
X116981723Y-64512029D01*
X116981723Y-64512029D02*
X116886485Y-64464410D01*
X116886485Y-64464410D02*
X116838866Y-64369172D01*
X116838866Y-64369172D02*
X116838866Y-64131077D01*
X116838866Y-64131077D02*
X116791247Y-64035839D01*
X117219819Y-63416791D02*
X117172200Y-63512029D01*
X117172200Y-63512029D02*
X117076961Y-63559648D01*
X117076961Y-63559648D02*
X116219819Y-63559648D01*
X117315057Y-63273934D02*
X117315057Y-62512029D01*
X116219819Y-62369171D02*
X117219819Y-61702505D01*
X116219819Y-61702505D02*
X117219819Y-62369171D01*
X117219819Y-61321552D02*
X116219819Y-61321552D01*
X116934104Y-60892981D02*
X116934104Y-60416791D01*
X117219819Y-60988219D02*
X116219819Y-60654886D01*
X116219819Y-60654886D02*
X117219819Y-60321553D01*
X116219819Y-59797743D02*
X116219819Y-59607267D01*
X116219819Y-59607267D02*
X116267438Y-59512029D01*
X116267438Y-59512029D02*
X116362676Y-59416791D01*
X116362676Y-59416791D02*
X116553152Y-59369172D01*
X116553152Y-59369172D02*
X116886485Y-59369172D01*
X116886485Y-59369172D02*
X117076961Y-59416791D01*
X117076961Y-59416791D02*
X117172200Y-59512029D01*
X117172200Y-59512029D02*
X117219819Y-59607267D01*
X117219819Y-59607267D02*
X117219819Y-59797743D01*
X117219819Y-59797743D02*
X117172200Y-59892981D01*
X117172200Y-59892981D02*
X117076961Y-59988219D01*
X117076961Y-59988219D02*
X116886485Y-60035838D01*
X116886485Y-60035838D02*
X116553152Y-60035838D01*
X116553152Y-60035838D02*
X116362676Y-59988219D01*
X116362676Y-59988219D02*
X116267438Y-59892981D01*
X116267438Y-59892981D02*
X116219819Y-59797743D01*
X117315057Y-59178696D02*
X117315057Y-58416791D01*
X117219819Y-57607267D02*
X116743628Y-57940600D01*
X117219819Y-58178695D02*
X116219819Y-58178695D01*
X116219819Y-58178695D02*
X116219819Y-57797743D01*
X116219819Y-57797743D02*
X116267438Y-57702505D01*
X116267438Y-57702505D02*
X116315057Y-57654886D01*
X116315057Y-57654886D02*
X116410295Y-57607267D01*
X116410295Y-57607267D02*
X116553152Y-57607267D01*
X116553152Y-57607267D02*
X116648390Y-57654886D01*
X116648390Y-57654886D02*
X116696009Y-57702505D01*
X116696009Y-57702505D02*
X116743628Y-57797743D01*
X116743628Y-57797743D02*
X116743628Y-58178695D01*
X117219819Y-57178695D02*
X116219819Y-57178695D01*
X116219819Y-57178695D02*
X116219819Y-56797743D01*
X116219819Y-56797743D02*
X116267438Y-56702505D01*
X116267438Y-56702505D02*
X116315057Y-56654886D01*
X116315057Y-56654886D02*
X116410295Y-56607267D01*
X116410295Y-56607267D02*
X116553152Y-56607267D01*
X116553152Y-56607267D02*
X116648390Y-56654886D01*
X116648390Y-56654886D02*
X116696009Y-56702505D01*
X116696009Y-56702505D02*
X116743628Y-56797743D01*
X116743628Y-56797743D02*
X116743628Y-57178695D01*
X116315057Y-56226314D02*
X116267438Y-56178695D01*
X116267438Y-56178695D02*
X116219819Y-56083457D01*
X116219819Y-56083457D02*
X116219819Y-55845362D01*
X116219819Y-55845362D02*
X116267438Y-55750124D01*
X116267438Y-55750124D02*
X116315057Y-55702505D01*
X116315057Y-55702505D02*
X116410295Y-55654886D01*
X116410295Y-55654886D02*
X116505533Y-55654886D01*
X116505533Y-55654886D02*
X116648390Y-55702505D01*
X116648390Y-55702505D02*
X117219819Y-56273933D01*
X117219819Y-56273933D02*
X117219819Y-55654886D01*
X116219819Y-55035838D02*
X116219819Y-54940600D01*
X116219819Y-54940600D02*
X116267438Y-54845362D01*
X116267438Y-54845362D02*
X116315057Y-54797743D01*
X116315057Y-54797743D02*
X116410295Y-54750124D01*
X116410295Y-54750124D02*
X116600771Y-54702505D01*
X116600771Y-54702505D02*
X116838866Y-54702505D01*
X116838866Y-54702505D02*
X117029342Y-54750124D01*
X117029342Y-54750124D02*
X117124580Y-54797743D01*
X117124580Y-54797743D02*
X117172200Y-54845362D01*
X117172200Y-54845362D02*
X117219819Y-54940600D01*
X117219819Y-54940600D02*
X117219819Y-55035838D01*
X117219819Y-55035838D02*
X117172200Y-55131076D01*
X117172200Y-55131076D02*
X117124580Y-55178695D01*
X117124580Y-55178695D02*
X117029342Y-55226314D01*
X117029342Y-55226314D02*
X116838866Y-55273933D01*
X116838866Y-55273933D02*
X116600771Y-55273933D01*
X116600771Y-55273933D02*
X116410295Y-55226314D01*
X116410295Y-55226314D02*
X116315057Y-55178695D01*
X116315057Y-55178695D02*
X116267438Y-55131076D01*
X116267438Y-55131076D02*
X116219819Y-55035838D01*
X116553152Y-53845362D02*
X117219819Y-53845362D01*
X116172200Y-54083457D02*
X116886485Y-54321552D01*
X116886485Y-54321552D02*
X116886485Y-53702505D01*
X116219819Y-53131076D02*
X116219819Y-53035838D01*
X116219819Y-53035838D02*
X116267438Y-52940600D01*
X116267438Y-52940600D02*
X116315057Y-52892981D01*
X116315057Y-52892981D02*
X116410295Y-52845362D01*
X116410295Y-52845362D02*
X116600771Y-52797743D01*
X116600771Y-52797743D02*
X116838866Y-52797743D01*
X116838866Y-52797743D02*
X117029342Y-52845362D01*
X117029342Y-52845362D02*
X117124580Y-52892981D01*
X117124580Y-52892981D02*
X117172200Y-52940600D01*
X117172200Y-52940600D02*
X117219819Y-53035838D01*
X117219819Y-53035838D02*
X117219819Y-53131076D01*
X117219819Y-53131076D02*
X117172200Y-53226314D01*
X117172200Y-53226314D02*
X117124580Y-53273933D01*
X117124580Y-53273933D02*
X117029342Y-53321552D01*
X117029342Y-53321552D02*
X116838866Y-53369171D01*
X116838866Y-53369171D02*
X116600771Y-53369171D01*
X116600771Y-53369171D02*
X116410295Y-53321552D01*
X116410295Y-53321552D02*
X116315057Y-53273933D01*
X116315057Y-53273933D02*
X116267438Y-53226314D01*
X116267438Y-53226314D02*
X116219819Y-53131076D01*
%TO.C,U6*%
X201361904Y-77595180D02*
X201361904Y-76785657D01*
X201361904Y-76785657D02*
X201314285Y-76690419D01*
X201314285Y-76690419D02*
X201266666Y-76642800D01*
X201266666Y-76642800D02*
X201171428Y-76595180D01*
X201171428Y-76595180D02*
X200980952Y-76595180D01*
X200980952Y-76595180D02*
X200885714Y-76642800D01*
X200885714Y-76642800D02*
X200838095Y-76690419D01*
X200838095Y-76690419D02*
X200790476Y-76785657D01*
X200790476Y-76785657D02*
X200790476Y-77595180D01*
X199885714Y-77595180D02*
X200076190Y-77595180D01*
X200076190Y-77595180D02*
X200171428Y-77547561D01*
X200171428Y-77547561D02*
X200219047Y-77499942D01*
X200219047Y-77499942D02*
X200314285Y-77357085D01*
X200314285Y-77357085D02*
X200361904Y-77166609D01*
X200361904Y-77166609D02*
X200361904Y-76785657D01*
X200361904Y-76785657D02*
X200314285Y-76690419D01*
X200314285Y-76690419D02*
X200266666Y-76642800D01*
X200266666Y-76642800D02*
X200171428Y-76595180D01*
X200171428Y-76595180D02*
X199980952Y-76595180D01*
X199980952Y-76595180D02*
X199885714Y-76642800D01*
X199885714Y-76642800D02*
X199838095Y-76690419D01*
X199838095Y-76690419D02*
X199790476Y-76785657D01*
X199790476Y-76785657D02*
X199790476Y-77023752D01*
X199790476Y-77023752D02*
X199838095Y-77118990D01*
X199838095Y-77118990D02*
X199885714Y-77166609D01*
X199885714Y-77166609D02*
X199980952Y-77214228D01*
X199980952Y-77214228D02*
X200171428Y-77214228D01*
X200171428Y-77214228D02*
X200266666Y-77166609D01*
X200266666Y-77166609D02*
X200314285Y-77118990D01*
X200314285Y-77118990D02*
X200361904Y-77023752D01*
X207201792Y-101800419D02*
X207249411Y-101752800D01*
X207249411Y-101752800D02*
X207392268Y-101705180D01*
X207392268Y-101705180D02*
X207487506Y-101705180D01*
X207487506Y-101705180D02*
X207630363Y-101752800D01*
X207630363Y-101752800D02*
X207725601Y-101848038D01*
X207725601Y-101848038D02*
X207773220Y-101943276D01*
X207773220Y-101943276D02*
X207820839Y-102133752D01*
X207820839Y-102133752D02*
X207820839Y-102276609D01*
X207820839Y-102276609D02*
X207773220Y-102467085D01*
X207773220Y-102467085D02*
X207725601Y-102562323D01*
X207725601Y-102562323D02*
X207630363Y-102657561D01*
X207630363Y-102657561D02*
X207487506Y-102705180D01*
X207487506Y-102705180D02*
X207392268Y-102705180D01*
X207392268Y-102705180D02*
X207249411Y-102657561D01*
X207249411Y-102657561D02*
X207201792Y-102609942D01*
X206630363Y-101705180D02*
X206725601Y-101752800D01*
X206725601Y-101752800D02*
X206773220Y-101800419D01*
X206773220Y-101800419D02*
X206820839Y-101895657D01*
X206820839Y-101895657D02*
X206820839Y-102181371D01*
X206820839Y-102181371D02*
X206773220Y-102276609D01*
X206773220Y-102276609D02*
X206725601Y-102324228D01*
X206725601Y-102324228D02*
X206630363Y-102371847D01*
X206630363Y-102371847D02*
X206487506Y-102371847D01*
X206487506Y-102371847D02*
X206392268Y-102324228D01*
X206392268Y-102324228D02*
X206344649Y-102276609D01*
X206344649Y-102276609D02*
X206297030Y-102181371D01*
X206297030Y-102181371D02*
X206297030Y-101895657D01*
X206297030Y-101895657D02*
X206344649Y-101800419D01*
X206344649Y-101800419D02*
X206392268Y-101752800D01*
X206392268Y-101752800D02*
X206487506Y-101705180D01*
X206487506Y-101705180D02*
X206630363Y-101705180D01*
X205868458Y-101705180D02*
X205868458Y-102371847D01*
X205868458Y-102181371D02*
X205820839Y-102276609D01*
X205820839Y-102276609D02*
X205773220Y-102324228D01*
X205773220Y-102324228D02*
X205677982Y-102371847D01*
X205677982Y-102371847D02*
X205582744Y-102371847D01*
X204820839Y-101705180D02*
X204820839Y-102228990D01*
X204820839Y-102228990D02*
X204868458Y-102324228D01*
X204868458Y-102324228D02*
X204963696Y-102371847D01*
X204963696Y-102371847D02*
X205154172Y-102371847D01*
X205154172Y-102371847D02*
X205249410Y-102324228D01*
X204820839Y-101752800D02*
X204916077Y-101705180D01*
X204916077Y-101705180D02*
X205154172Y-101705180D01*
X205154172Y-101705180D02*
X205249410Y-101752800D01*
X205249410Y-101752800D02*
X205297029Y-101848038D01*
X205297029Y-101848038D02*
X205297029Y-101943276D01*
X205297029Y-101943276D02*
X205249410Y-102038514D01*
X205249410Y-102038514D02*
X205154172Y-102086133D01*
X205154172Y-102086133D02*
X204916077Y-102086133D01*
X204916077Y-102086133D02*
X204820839Y-102133752D01*
X204201791Y-101705180D02*
X204297029Y-101752800D01*
X204297029Y-101752800D02*
X204344648Y-101848038D01*
X204344648Y-101848038D02*
X204344648Y-102705180D01*
X204058934Y-101609942D02*
X203297029Y-101609942D01*
X203154171Y-102705180D02*
X202487505Y-101705180D01*
X202487505Y-102705180D02*
X203154171Y-101705180D01*
X202106552Y-101705180D02*
X202106552Y-102705180D01*
X201677981Y-101990895D02*
X201201791Y-101990895D01*
X201773219Y-101705180D02*
X201439886Y-102705180D01*
X201439886Y-102705180D02*
X201106553Y-101705180D01*
X200582743Y-102705180D02*
X200392267Y-102705180D01*
X200392267Y-102705180D02*
X200297029Y-102657561D01*
X200297029Y-102657561D02*
X200201791Y-102562323D01*
X200201791Y-102562323D02*
X200154172Y-102371847D01*
X200154172Y-102371847D02*
X200154172Y-102038514D01*
X200154172Y-102038514D02*
X200201791Y-101848038D01*
X200201791Y-101848038D02*
X200297029Y-101752800D01*
X200297029Y-101752800D02*
X200392267Y-101705180D01*
X200392267Y-101705180D02*
X200582743Y-101705180D01*
X200582743Y-101705180D02*
X200677981Y-101752800D01*
X200677981Y-101752800D02*
X200773219Y-101848038D01*
X200773219Y-101848038D02*
X200820838Y-102038514D01*
X200820838Y-102038514D02*
X200820838Y-102371847D01*
X200820838Y-102371847D02*
X200773219Y-102562323D01*
X200773219Y-102562323D02*
X200677981Y-102657561D01*
X200677981Y-102657561D02*
X200582743Y-102705180D01*
X199963696Y-101609942D02*
X199201791Y-101609942D01*
X198392267Y-101705180D02*
X198725600Y-102181371D01*
X198963695Y-101705180D02*
X198963695Y-102705180D01*
X198963695Y-102705180D02*
X198582743Y-102705180D01*
X198582743Y-102705180D02*
X198487505Y-102657561D01*
X198487505Y-102657561D02*
X198439886Y-102609942D01*
X198439886Y-102609942D02*
X198392267Y-102514704D01*
X198392267Y-102514704D02*
X198392267Y-102371847D01*
X198392267Y-102371847D02*
X198439886Y-102276609D01*
X198439886Y-102276609D02*
X198487505Y-102228990D01*
X198487505Y-102228990D02*
X198582743Y-102181371D01*
X198582743Y-102181371D02*
X198963695Y-102181371D01*
X197963695Y-101705180D02*
X197963695Y-102705180D01*
X197963695Y-102705180D02*
X197582743Y-102705180D01*
X197582743Y-102705180D02*
X197487505Y-102657561D01*
X197487505Y-102657561D02*
X197439886Y-102609942D01*
X197439886Y-102609942D02*
X197392267Y-102514704D01*
X197392267Y-102514704D02*
X197392267Y-102371847D01*
X197392267Y-102371847D02*
X197439886Y-102276609D01*
X197439886Y-102276609D02*
X197487505Y-102228990D01*
X197487505Y-102228990D02*
X197582743Y-102181371D01*
X197582743Y-102181371D02*
X197963695Y-102181371D01*
X197011314Y-102609942D02*
X196963695Y-102657561D01*
X196963695Y-102657561D02*
X196868457Y-102705180D01*
X196868457Y-102705180D02*
X196630362Y-102705180D01*
X196630362Y-102705180D02*
X196535124Y-102657561D01*
X196535124Y-102657561D02*
X196487505Y-102609942D01*
X196487505Y-102609942D02*
X196439886Y-102514704D01*
X196439886Y-102514704D02*
X196439886Y-102419466D01*
X196439886Y-102419466D02*
X196487505Y-102276609D01*
X196487505Y-102276609D02*
X197058933Y-101705180D01*
X197058933Y-101705180D02*
X196439886Y-101705180D01*
X195820838Y-102705180D02*
X195725600Y-102705180D01*
X195725600Y-102705180D02*
X195630362Y-102657561D01*
X195630362Y-102657561D02*
X195582743Y-102609942D01*
X195582743Y-102609942D02*
X195535124Y-102514704D01*
X195535124Y-102514704D02*
X195487505Y-102324228D01*
X195487505Y-102324228D02*
X195487505Y-102086133D01*
X195487505Y-102086133D02*
X195535124Y-101895657D01*
X195535124Y-101895657D02*
X195582743Y-101800419D01*
X195582743Y-101800419D02*
X195630362Y-101752800D01*
X195630362Y-101752800D02*
X195725600Y-101705180D01*
X195725600Y-101705180D02*
X195820838Y-101705180D01*
X195820838Y-101705180D02*
X195916076Y-101752800D01*
X195916076Y-101752800D02*
X195963695Y-101800419D01*
X195963695Y-101800419D02*
X196011314Y-101895657D01*
X196011314Y-101895657D02*
X196058933Y-102086133D01*
X196058933Y-102086133D02*
X196058933Y-102324228D01*
X196058933Y-102324228D02*
X196011314Y-102514704D01*
X196011314Y-102514704D02*
X195963695Y-102609942D01*
X195963695Y-102609942D02*
X195916076Y-102657561D01*
X195916076Y-102657561D02*
X195820838Y-102705180D01*
X194630362Y-102371847D02*
X194630362Y-101705180D01*
X194868457Y-102752800D02*
X195106552Y-102038514D01*
X195106552Y-102038514D02*
X194487505Y-102038514D01*
X193916076Y-102705180D02*
X193820838Y-102705180D01*
X193820838Y-102705180D02*
X193725600Y-102657561D01*
X193725600Y-102657561D02*
X193677981Y-102609942D01*
X193677981Y-102609942D02*
X193630362Y-102514704D01*
X193630362Y-102514704D02*
X193582743Y-102324228D01*
X193582743Y-102324228D02*
X193582743Y-102086133D01*
X193582743Y-102086133D02*
X193630362Y-101895657D01*
X193630362Y-101895657D02*
X193677981Y-101800419D01*
X193677981Y-101800419D02*
X193725600Y-101752800D01*
X193725600Y-101752800D02*
X193820838Y-101705180D01*
X193820838Y-101705180D02*
X193916076Y-101705180D01*
X193916076Y-101705180D02*
X194011314Y-101752800D01*
X194011314Y-101752800D02*
X194058933Y-101800419D01*
X194058933Y-101800419D02*
X194106552Y-101895657D01*
X194106552Y-101895657D02*
X194154171Y-102086133D01*
X194154171Y-102086133D02*
X194154171Y-102324228D01*
X194154171Y-102324228D02*
X194106552Y-102514704D01*
X194106552Y-102514704D02*
X194058933Y-102609942D01*
X194058933Y-102609942D02*
X194011314Y-102657561D01*
X194011314Y-102657561D02*
X193916076Y-102705180D01*
%TO.C,U5*%
X201311904Y-45595180D02*
X201311904Y-44785657D01*
X201311904Y-44785657D02*
X201264285Y-44690419D01*
X201264285Y-44690419D02*
X201216666Y-44642800D01*
X201216666Y-44642800D02*
X201121428Y-44595180D01*
X201121428Y-44595180D02*
X200930952Y-44595180D01*
X200930952Y-44595180D02*
X200835714Y-44642800D01*
X200835714Y-44642800D02*
X200788095Y-44690419D01*
X200788095Y-44690419D02*
X200740476Y-44785657D01*
X200740476Y-44785657D02*
X200740476Y-45595180D01*
X199788095Y-45595180D02*
X200264285Y-45595180D01*
X200264285Y-45595180D02*
X200311904Y-45118990D01*
X200311904Y-45118990D02*
X200264285Y-45166609D01*
X200264285Y-45166609D02*
X200169047Y-45214228D01*
X200169047Y-45214228D02*
X199930952Y-45214228D01*
X199930952Y-45214228D02*
X199835714Y-45166609D01*
X199835714Y-45166609D02*
X199788095Y-45118990D01*
X199788095Y-45118990D02*
X199740476Y-45023752D01*
X199740476Y-45023752D02*
X199740476Y-44785657D01*
X199740476Y-44785657D02*
X199788095Y-44690419D01*
X199788095Y-44690419D02*
X199835714Y-44642800D01*
X199835714Y-44642800D02*
X199930952Y-44595180D01*
X199930952Y-44595180D02*
X200169047Y-44595180D01*
X200169047Y-44595180D02*
X200264285Y-44642800D01*
X200264285Y-44642800D02*
X200311904Y-44690419D01*
X207141792Y-69300419D02*
X207189411Y-69252800D01*
X207189411Y-69252800D02*
X207332268Y-69205180D01*
X207332268Y-69205180D02*
X207427506Y-69205180D01*
X207427506Y-69205180D02*
X207570363Y-69252800D01*
X207570363Y-69252800D02*
X207665601Y-69348038D01*
X207665601Y-69348038D02*
X207713220Y-69443276D01*
X207713220Y-69443276D02*
X207760839Y-69633752D01*
X207760839Y-69633752D02*
X207760839Y-69776609D01*
X207760839Y-69776609D02*
X207713220Y-69967085D01*
X207713220Y-69967085D02*
X207665601Y-70062323D01*
X207665601Y-70062323D02*
X207570363Y-70157561D01*
X207570363Y-70157561D02*
X207427506Y-70205180D01*
X207427506Y-70205180D02*
X207332268Y-70205180D01*
X207332268Y-70205180D02*
X207189411Y-70157561D01*
X207189411Y-70157561D02*
X207141792Y-70109942D01*
X206570363Y-69205180D02*
X206665601Y-69252800D01*
X206665601Y-69252800D02*
X206713220Y-69300419D01*
X206713220Y-69300419D02*
X206760839Y-69395657D01*
X206760839Y-69395657D02*
X206760839Y-69681371D01*
X206760839Y-69681371D02*
X206713220Y-69776609D01*
X206713220Y-69776609D02*
X206665601Y-69824228D01*
X206665601Y-69824228D02*
X206570363Y-69871847D01*
X206570363Y-69871847D02*
X206427506Y-69871847D01*
X206427506Y-69871847D02*
X206332268Y-69824228D01*
X206332268Y-69824228D02*
X206284649Y-69776609D01*
X206284649Y-69776609D02*
X206237030Y-69681371D01*
X206237030Y-69681371D02*
X206237030Y-69395657D01*
X206237030Y-69395657D02*
X206284649Y-69300419D01*
X206284649Y-69300419D02*
X206332268Y-69252800D01*
X206332268Y-69252800D02*
X206427506Y-69205180D01*
X206427506Y-69205180D02*
X206570363Y-69205180D01*
X205808458Y-69205180D02*
X205808458Y-69871847D01*
X205808458Y-69681371D02*
X205760839Y-69776609D01*
X205760839Y-69776609D02*
X205713220Y-69824228D01*
X205713220Y-69824228D02*
X205617982Y-69871847D01*
X205617982Y-69871847D02*
X205522744Y-69871847D01*
X204760839Y-69205180D02*
X204760839Y-69728990D01*
X204760839Y-69728990D02*
X204808458Y-69824228D01*
X204808458Y-69824228D02*
X204903696Y-69871847D01*
X204903696Y-69871847D02*
X205094172Y-69871847D01*
X205094172Y-69871847D02*
X205189410Y-69824228D01*
X204760839Y-69252800D02*
X204856077Y-69205180D01*
X204856077Y-69205180D02*
X205094172Y-69205180D01*
X205094172Y-69205180D02*
X205189410Y-69252800D01*
X205189410Y-69252800D02*
X205237029Y-69348038D01*
X205237029Y-69348038D02*
X205237029Y-69443276D01*
X205237029Y-69443276D02*
X205189410Y-69538514D01*
X205189410Y-69538514D02*
X205094172Y-69586133D01*
X205094172Y-69586133D02*
X204856077Y-69586133D01*
X204856077Y-69586133D02*
X204760839Y-69633752D01*
X204141791Y-69205180D02*
X204237029Y-69252800D01*
X204237029Y-69252800D02*
X204284648Y-69348038D01*
X204284648Y-69348038D02*
X204284648Y-70205180D01*
X203998934Y-69109942D02*
X203237029Y-69109942D01*
X203094171Y-70205180D02*
X202427505Y-69205180D01*
X202427505Y-70205180D02*
X203094171Y-69205180D01*
X202046552Y-69205180D02*
X202046552Y-70205180D01*
X201617981Y-69490895D02*
X201141791Y-69490895D01*
X201713219Y-69205180D02*
X201379886Y-70205180D01*
X201379886Y-70205180D02*
X201046553Y-69205180D01*
X200522743Y-70205180D02*
X200332267Y-70205180D01*
X200332267Y-70205180D02*
X200237029Y-70157561D01*
X200237029Y-70157561D02*
X200141791Y-70062323D01*
X200141791Y-70062323D02*
X200094172Y-69871847D01*
X200094172Y-69871847D02*
X200094172Y-69538514D01*
X200094172Y-69538514D02*
X200141791Y-69348038D01*
X200141791Y-69348038D02*
X200237029Y-69252800D01*
X200237029Y-69252800D02*
X200332267Y-69205180D01*
X200332267Y-69205180D02*
X200522743Y-69205180D01*
X200522743Y-69205180D02*
X200617981Y-69252800D01*
X200617981Y-69252800D02*
X200713219Y-69348038D01*
X200713219Y-69348038D02*
X200760838Y-69538514D01*
X200760838Y-69538514D02*
X200760838Y-69871847D01*
X200760838Y-69871847D02*
X200713219Y-70062323D01*
X200713219Y-70062323D02*
X200617981Y-70157561D01*
X200617981Y-70157561D02*
X200522743Y-70205180D01*
X199903696Y-69109942D02*
X199141791Y-69109942D01*
X198332267Y-69205180D02*
X198665600Y-69681371D01*
X198903695Y-69205180D02*
X198903695Y-70205180D01*
X198903695Y-70205180D02*
X198522743Y-70205180D01*
X198522743Y-70205180D02*
X198427505Y-70157561D01*
X198427505Y-70157561D02*
X198379886Y-70109942D01*
X198379886Y-70109942D02*
X198332267Y-70014704D01*
X198332267Y-70014704D02*
X198332267Y-69871847D01*
X198332267Y-69871847D02*
X198379886Y-69776609D01*
X198379886Y-69776609D02*
X198427505Y-69728990D01*
X198427505Y-69728990D02*
X198522743Y-69681371D01*
X198522743Y-69681371D02*
X198903695Y-69681371D01*
X197903695Y-69205180D02*
X197903695Y-70205180D01*
X197903695Y-70205180D02*
X197522743Y-70205180D01*
X197522743Y-70205180D02*
X197427505Y-70157561D01*
X197427505Y-70157561D02*
X197379886Y-70109942D01*
X197379886Y-70109942D02*
X197332267Y-70014704D01*
X197332267Y-70014704D02*
X197332267Y-69871847D01*
X197332267Y-69871847D02*
X197379886Y-69776609D01*
X197379886Y-69776609D02*
X197427505Y-69728990D01*
X197427505Y-69728990D02*
X197522743Y-69681371D01*
X197522743Y-69681371D02*
X197903695Y-69681371D01*
X196951314Y-70109942D02*
X196903695Y-70157561D01*
X196903695Y-70157561D02*
X196808457Y-70205180D01*
X196808457Y-70205180D02*
X196570362Y-70205180D01*
X196570362Y-70205180D02*
X196475124Y-70157561D01*
X196475124Y-70157561D02*
X196427505Y-70109942D01*
X196427505Y-70109942D02*
X196379886Y-70014704D01*
X196379886Y-70014704D02*
X196379886Y-69919466D01*
X196379886Y-69919466D02*
X196427505Y-69776609D01*
X196427505Y-69776609D02*
X196998933Y-69205180D01*
X196998933Y-69205180D02*
X196379886Y-69205180D01*
X195760838Y-70205180D02*
X195665600Y-70205180D01*
X195665600Y-70205180D02*
X195570362Y-70157561D01*
X195570362Y-70157561D02*
X195522743Y-70109942D01*
X195522743Y-70109942D02*
X195475124Y-70014704D01*
X195475124Y-70014704D02*
X195427505Y-69824228D01*
X195427505Y-69824228D02*
X195427505Y-69586133D01*
X195427505Y-69586133D02*
X195475124Y-69395657D01*
X195475124Y-69395657D02*
X195522743Y-69300419D01*
X195522743Y-69300419D02*
X195570362Y-69252800D01*
X195570362Y-69252800D02*
X195665600Y-69205180D01*
X195665600Y-69205180D02*
X195760838Y-69205180D01*
X195760838Y-69205180D02*
X195856076Y-69252800D01*
X195856076Y-69252800D02*
X195903695Y-69300419D01*
X195903695Y-69300419D02*
X195951314Y-69395657D01*
X195951314Y-69395657D02*
X195998933Y-69586133D01*
X195998933Y-69586133D02*
X195998933Y-69824228D01*
X195998933Y-69824228D02*
X195951314Y-70014704D01*
X195951314Y-70014704D02*
X195903695Y-70109942D01*
X195903695Y-70109942D02*
X195856076Y-70157561D01*
X195856076Y-70157561D02*
X195760838Y-70205180D01*
X194570362Y-69871847D02*
X194570362Y-69205180D01*
X194808457Y-70252800D02*
X195046552Y-69538514D01*
X195046552Y-69538514D02*
X194427505Y-69538514D01*
X193856076Y-70205180D02*
X193760838Y-70205180D01*
X193760838Y-70205180D02*
X193665600Y-70157561D01*
X193665600Y-70157561D02*
X193617981Y-70109942D01*
X193617981Y-70109942D02*
X193570362Y-70014704D01*
X193570362Y-70014704D02*
X193522743Y-69824228D01*
X193522743Y-69824228D02*
X193522743Y-69586133D01*
X193522743Y-69586133D02*
X193570362Y-69395657D01*
X193570362Y-69395657D02*
X193617981Y-69300419D01*
X193617981Y-69300419D02*
X193665600Y-69252800D01*
X193665600Y-69252800D02*
X193760838Y-69205180D01*
X193760838Y-69205180D02*
X193856076Y-69205180D01*
X193856076Y-69205180D02*
X193951314Y-69252800D01*
X193951314Y-69252800D02*
X193998933Y-69300419D01*
X193998933Y-69300419D02*
X194046552Y-69395657D01*
X194046552Y-69395657D02*
X194094171Y-69586133D01*
X194094171Y-69586133D02*
X194094171Y-69824228D01*
X194094171Y-69824228D02*
X194046552Y-70014704D01*
X194046552Y-70014704D02*
X193998933Y-70109942D01*
X193998933Y-70109942D02*
X193951314Y-70157561D01*
X193951314Y-70157561D02*
X193856076Y-70205180D01*
%TO.C,U1*%
X93188095Y-62319819D02*
X93188095Y-63129342D01*
X93188095Y-63129342D02*
X93235714Y-63224580D01*
X93235714Y-63224580D02*
X93283333Y-63272200D01*
X93283333Y-63272200D02*
X93378571Y-63319819D01*
X93378571Y-63319819D02*
X93569047Y-63319819D01*
X93569047Y-63319819D02*
X93664285Y-63272200D01*
X93664285Y-63272200D02*
X93711904Y-63224580D01*
X93711904Y-63224580D02*
X93759523Y-63129342D01*
X93759523Y-63129342D02*
X93759523Y-62319819D01*
X94759523Y-63319819D02*
X94188095Y-63319819D01*
X94473809Y-63319819D02*
X94473809Y-62319819D01*
X94473809Y-62319819D02*
X94378571Y-62462676D01*
X94378571Y-62462676D02*
X94283333Y-62557914D01*
X94283333Y-62557914D02*
X94188095Y-62605533D01*
X87358207Y-41699580D02*
X87310588Y-41747200D01*
X87310588Y-41747200D02*
X87167731Y-41794819D01*
X87167731Y-41794819D02*
X87072493Y-41794819D01*
X87072493Y-41794819D02*
X86929636Y-41747200D01*
X86929636Y-41747200D02*
X86834398Y-41651961D01*
X86834398Y-41651961D02*
X86786779Y-41556723D01*
X86786779Y-41556723D02*
X86739160Y-41366247D01*
X86739160Y-41366247D02*
X86739160Y-41223390D01*
X86739160Y-41223390D02*
X86786779Y-41032914D01*
X86786779Y-41032914D02*
X86834398Y-40937676D01*
X86834398Y-40937676D02*
X86929636Y-40842438D01*
X86929636Y-40842438D02*
X87072493Y-40794819D01*
X87072493Y-40794819D02*
X87167731Y-40794819D01*
X87167731Y-40794819D02*
X87310588Y-40842438D01*
X87310588Y-40842438D02*
X87358207Y-40890057D01*
X87929636Y-41794819D02*
X87834398Y-41747200D01*
X87834398Y-41747200D02*
X87786779Y-41699580D01*
X87786779Y-41699580D02*
X87739160Y-41604342D01*
X87739160Y-41604342D02*
X87739160Y-41318628D01*
X87739160Y-41318628D02*
X87786779Y-41223390D01*
X87786779Y-41223390D02*
X87834398Y-41175771D01*
X87834398Y-41175771D02*
X87929636Y-41128152D01*
X87929636Y-41128152D02*
X88072493Y-41128152D01*
X88072493Y-41128152D02*
X88167731Y-41175771D01*
X88167731Y-41175771D02*
X88215350Y-41223390D01*
X88215350Y-41223390D02*
X88262969Y-41318628D01*
X88262969Y-41318628D02*
X88262969Y-41604342D01*
X88262969Y-41604342D02*
X88215350Y-41699580D01*
X88215350Y-41699580D02*
X88167731Y-41747200D01*
X88167731Y-41747200D02*
X88072493Y-41794819D01*
X88072493Y-41794819D02*
X87929636Y-41794819D01*
X88691541Y-41794819D02*
X88691541Y-41128152D01*
X88691541Y-41318628D02*
X88739160Y-41223390D01*
X88739160Y-41223390D02*
X88786779Y-41175771D01*
X88786779Y-41175771D02*
X88882017Y-41128152D01*
X88882017Y-41128152D02*
X88977255Y-41128152D01*
X89739160Y-41794819D02*
X89739160Y-41271009D01*
X89739160Y-41271009D02*
X89691541Y-41175771D01*
X89691541Y-41175771D02*
X89596303Y-41128152D01*
X89596303Y-41128152D02*
X89405827Y-41128152D01*
X89405827Y-41128152D02*
X89310589Y-41175771D01*
X89739160Y-41747200D02*
X89643922Y-41794819D01*
X89643922Y-41794819D02*
X89405827Y-41794819D01*
X89405827Y-41794819D02*
X89310589Y-41747200D01*
X89310589Y-41747200D02*
X89262970Y-41651961D01*
X89262970Y-41651961D02*
X89262970Y-41556723D01*
X89262970Y-41556723D02*
X89310589Y-41461485D01*
X89310589Y-41461485D02*
X89405827Y-41413866D01*
X89405827Y-41413866D02*
X89643922Y-41413866D01*
X89643922Y-41413866D02*
X89739160Y-41366247D01*
X90358208Y-41794819D02*
X90262970Y-41747200D01*
X90262970Y-41747200D02*
X90215351Y-41651961D01*
X90215351Y-41651961D02*
X90215351Y-40794819D01*
X90501066Y-41890057D02*
X91262970Y-41890057D01*
X91405828Y-40794819D02*
X92072494Y-41794819D01*
X92072494Y-40794819D02*
X91405828Y-41794819D01*
X92453447Y-41794819D02*
X92453447Y-40794819D01*
X92882018Y-41509104D02*
X93358208Y-41509104D01*
X92786780Y-41794819D02*
X93120113Y-40794819D01*
X93120113Y-40794819D02*
X93453446Y-41794819D01*
X93977256Y-40794819D02*
X94167732Y-40794819D01*
X94167732Y-40794819D02*
X94262970Y-40842438D01*
X94262970Y-40842438D02*
X94358208Y-40937676D01*
X94358208Y-40937676D02*
X94405827Y-41128152D01*
X94405827Y-41128152D02*
X94405827Y-41461485D01*
X94405827Y-41461485D02*
X94358208Y-41651961D01*
X94358208Y-41651961D02*
X94262970Y-41747200D01*
X94262970Y-41747200D02*
X94167732Y-41794819D01*
X94167732Y-41794819D02*
X93977256Y-41794819D01*
X93977256Y-41794819D02*
X93882018Y-41747200D01*
X93882018Y-41747200D02*
X93786780Y-41651961D01*
X93786780Y-41651961D02*
X93739161Y-41461485D01*
X93739161Y-41461485D02*
X93739161Y-41128152D01*
X93739161Y-41128152D02*
X93786780Y-40937676D01*
X93786780Y-40937676D02*
X93882018Y-40842438D01*
X93882018Y-40842438D02*
X93977256Y-40794819D01*
X94596304Y-41890057D02*
X95358208Y-41890057D01*
X96167732Y-41794819D02*
X95834399Y-41318628D01*
X95596304Y-41794819D02*
X95596304Y-40794819D01*
X95596304Y-40794819D02*
X95977256Y-40794819D01*
X95977256Y-40794819D02*
X96072494Y-40842438D01*
X96072494Y-40842438D02*
X96120113Y-40890057D01*
X96120113Y-40890057D02*
X96167732Y-40985295D01*
X96167732Y-40985295D02*
X96167732Y-41128152D01*
X96167732Y-41128152D02*
X96120113Y-41223390D01*
X96120113Y-41223390D02*
X96072494Y-41271009D01*
X96072494Y-41271009D02*
X95977256Y-41318628D01*
X95977256Y-41318628D02*
X95596304Y-41318628D01*
X96596304Y-41794819D02*
X96596304Y-40794819D01*
X96596304Y-40794819D02*
X96977256Y-40794819D01*
X96977256Y-40794819D02*
X97072494Y-40842438D01*
X97072494Y-40842438D02*
X97120113Y-40890057D01*
X97120113Y-40890057D02*
X97167732Y-40985295D01*
X97167732Y-40985295D02*
X97167732Y-41128152D01*
X97167732Y-41128152D02*
X97120113Y-41223390D01*
X97120113Y-41223390D02*
X97072494Y-41271009D01*
X97072494Y-41271009D02*
X96977256Y-41318628D01*
X96977256Y-41318628D02*
X96596304Y-41318628D01*
X97548685Y-40890057D02*
X97596304Y-40842438D01*
X97596304Y-40842438D02*
X97691542Y-40794819D01*
X97691542Y-40794819D02*
X97929637Y-40794819D01*
X97929637Y-40794819D02*
X98024875Y-40842438D01*
X98024875Y-40842438D02*
X98072494Y-40890057D01*
X98072494Y-40890057D02*
X98120113Y-40985295D01*
X98120113Y-40985295D02*
X98120113Y-41080533D01*
X98120113Y-41080533D02*
X98072494Y-41223390D01*
X98072494Y-41223390D02*
X97501066Y-41794819D01*
X97501066Y-41794819D02*
X98120113Y-41794819D01*
X98739161Y-40794819D02*
X98834399Y-40794819D01*
X98834399Y-40794819D02*
X98929637Y-40842438D01*
X98929637Y-40842438D02*
X98977256Y-40890057D01*
X98977256Y-40890057D02*
X99024875Y-40985295D01*
X99024875Y-40985295D02*
X99072494Y-41175771D01*
X99072494Y-41175771D02*
X99072494Y-41413866D01*
X99072494Y-41413866D02*
X99024875Y-41604342D01*
X99024875Y-41604342D02*
X98977256Y-41699580D01*
X98977256Y-41699580D02*
X98929637Y-41747200D01*
X98929637Y-41747200D02*
X98834399Y-41794819D01*
X98834399Y-41794819D02*
X98739161Y-41794819D01*
X98739161Y-41794819D02*
X98643923Y-41747200D01*
X98643923Y-41747200D02*
X98596304Y-41699580D01*
X98596304Y-41699580D02*
X98548685Y-41604342D01*
X98548685Y-41604342D02*
X98501066Y-41413866D01*
X98501066Y-41413866D02*
X98501066Y-41175771D01*
X98501066Y-41175771D02*
X98548685Y-40985295D01*
X98548685Y-40985295D02*
X98596304Y-40890057D01*
X98596304Y-40890057D02*
X98643923Y-40842438D01*
X98643923Y-40842438D02*
X98739161Y-40794819D01*
X99929637Y-41128152D02*
X99929637Y-41794819D01*
X99691542Y-40747200D02*
X99453447Y-41461485D01*
X99453447Y-41461485D02*
X100072494Y-41461485D01*
X100643923Y-40794819D02*
X100739161Y-40794819D01*
X100739161Y-40794819D02*
X100834399Y-40842438D01*
X100834399Y-40842438D02*
X100882018Y-40890057D01*
X100882018Y-40890057D02*
X100929637Y-40985295D01*
X100929637Y-40985295D02*
X100977256Y-41175771D01*
X100977256Y-41175771D02*
X100977256Y-41413866D01*
X100977256Y-41413866D02*
X100929637Y-41604342D01*
X100929637Y-41604342D02*
X100882018Y-41699580D01*
X100882018Y-41699580D02*
X100834399Y-41747200D01*
X100834399Y-41747200D02*
X100739161Y-41794819D01*
X100739161Y-41794819D02*
X100643923Y-41794819D01*
X100643923Y-41794819D02*
X100548685Y-41747200D01*
X100548685Y-41747200D02*
X100501066Y-41699580D01*
X100501066Y-41699580D02*
X100453447Y-41604342D01*
X100453447Y-41604342D02*
X100405828Y-41413866D01*
X100405828Y-41413866D02*
X100405828Y-41175771D01*
X100405828Y-41175771D02*
X100453447Y-40985295D01*
X100453447Y-40985295D02*
X100501066Y-40890057D01*
X100501066Y-40890057D02*
X100548685Y-40842438D01*
X100548685Y-40842438D02*
X100643923Y-40794819D01*
%TO.C,U7*%
X151013095Y-87454819D02*
X151013095Y-88264342D01*
X151013095Y-88264342D02*
X151060714Y-88359580D01*
X151060714Y-88359580D02*
X151108333Y-88407200D01*
X151108333Y-88407200D02*
X151203571Y-88454819D01*
X151203571Y-88454819D02*
X151394047Y-88454819D01*
X151394047Y-88454819D02*
X151489285Y-88407200D01*
X151489285Y-88407200D02*
X151536904Y-88359580D01*
X151536904Y-88359580D02*
X151584523Y-88264342D01*
X151584523Y-88264342D02*
X151584523Y-87454819D01*
X151965476Y-87454819D02*
X152632142Y-87454819D01*
X152632142Y-87454819D02*
X152203571Y-88454819D01*
%TO.C,U4*%
X170394819Y-60586904D02*
X171204342Y-60586904D01*
X171204342Y-60586904D02*
X171299580Y-60539285D01*
X171299580Y-60539285D02*
X171347200Y-60491666D01*
X171347200Y-60491666D02*
X171394819Y-60396428D01*
X171394819Y-60396428D02*
X171394819Y-60205952D01*
X171394819Y-60205952D02*
X171347200Y-60110714D01*
X171347200Y-60110714D02*
X171299580Y-60063095D01*
X171299580Y-60063095D02*
X171204342Y-60015476D01*
X171204342Y-60015476D02*
X170394819Y-60015476D01*
X170728152Y-59110714D02*
X171394819Y-59110714D01*
X170347200Y-59348809D02*
X171061485Y-59586904D01*
X171061485Y-59586904D02*
X171061485Y-58967857D01*
X149774580Y-66416792D02*
X149822200Y-66464411D01*
X149822200Y-66464411D02*
X149869819Y-66607268D01*
X149869819Y-66607268D02*
X149869819Y-66702506D01*
X149869819Y-66702506D02*
X149822200Y-66845363D01*
X149822200Y-66845363D02*
X149726961Y-66940601D01*
X149726961Y-66940601D02*
X149631723Y-66988220D01*
X149631723Y-66988220D02*
X149441247Y-67035839D01*
X149441247Y-67035839D02*
X149298390Y-67035839D01*
X149298390Y-67035839D02*
X149107914Y-66988220D01*
X149107914Y-66988220D02*
X149012676Y-66940601D01*
X149012676Y-66940601D02*
X148917438Y-66845363D01*
X148917438Y-66845363D02*
X148869819Y-66702506D01*
X148869819Y-66702506D02*
X148869819Y-66607268D01*
X148869819Y-66607268D02*
X148917438Y-66464411D01*
X148917438Y-66464411D02*
X148965057Y-66416792D01*
X149869819Y-65845363D02*
X149822200Y-65940601D01*
X149822200Y-65940601D02*
X149774580Y-65988220D01*
X149774580Y-65988220D02*
X149679342Y-66035839D01*
X149679342Y-66035839D02*
X149393628Y-66035839D01*
X149393628Y-66035839D02*
X149298390Y-65988220D01*
X149298390Y-65988220D02*
X149250771Y-65940601D01*
X149250771Y-65940601D02*
X149203152Y-65845363D01*
X149203152Y-65845363D02*
X149203152Y-65702506D01*
X149203152Y-65702506D02*
X149250771Y-65607268D01*
X149250771Y-65607268D02*
X149298390Y-65559649D01*
X149298390Y-65559649D02*
X149393628Y-65512030D01*
X149393628Y-65512030D02*
X149679342Y-65512030D01*
X149679342Y-65512030D02*
X149774580Y-65559649D01*
X149774580Y-65559649D02*
X149822200Y-65607268D01*
X149822200Y-65607268D02*
X149869819Y-65702506D01*
X149869819Y-65702506D02*
X149869819Y-65845363D01*
X149869819Y-65083458D02*
X149203152Y-65083458D01*
X149393628Y-65083458D02*
X149298390Y-65035839D01*
X149298390Y-65035839D02*
X149250771Y-64988220D01*
X149250771Y-64988220D02*
X149203152Y-64892982D01*
X149203152Y-64892982D02*
X149203152Y-64797744D01*
X149869819Y-64035839D02*
X149346009Y-64035839D01*
X149346009Y-64035839D02*
X149250771Y-64083458D01*
X149250771Y-64083458D02*
X149203152Y-64178696D01*
X149203152Y-64178696D02*
X149203152Y-64369172D01*
X149203152Y-64369172D02*
X149250771Y-64464410D01*
X149822200Y-64035839D02*
X149869819Y-64131077D01*
X149869819Y-64131077D02*
X149869819Y-64369172D01*
X149869819Y-64369172D02*
X149822200Y-64464410D01*
X149822200Y-64464410D02*
X149726961Y-64512029D01*
X149726961Y-64512029D02*
X149631723Y-64512029D01*
X149631723Y-64512029D02*
X149536485Y-64464410D01*
X149536485Y-64464410D02*
X149488866Y-64369172D01*
X149488866Y-64369172D02*
X149488866Y-64131077D01*
X149488866Y-64131077D02*
X149441247Y-64035839D01*
X149869819Y-63416791D02*
X149822200Y-63512029D01*
X149822200Y-63512029D02*
X149726961Y-63559648D01*
X149726961Y-63559648D02*
X148869819Y-63559648D01*
X149965057Y-63273934D02*
X149965057Y-62512029D01*
X148869819Y-62369171D02*
X149869819Y-61702505D01*
X148869819Y-61702505D02*
X149869819Y-62369171D01*
X149869819Y-61321552D02*
X148869819Y-61321552D01*
X149584104Y-60892981D02*
X149584104Y-60416791D01*
X149869819Y-60988219D02*
X148869819Y-60654886D01*
X148869819Y-60654886D02*
X149869819Y-60321553D01*
X148869819Y-59797743D02*
X148869819Y-59607267D01*
X148869819Y-59607267D02*
X148917438Y-59512029D01*
X148917438Y-59512029D02*
X149012676Y-59416791D01*
X149012676Y-59416791D02*
X149203152Y-59369172D01*
X149203152Y-59369172D02*
X149536485Y-59369172D01*
X149536485Y-59369172D02*
X149726961Y-59416791D01*
X149726961Y-59416791D02*
X149822200Y-59512029D01*
X149822200Y-59512029D02*
X149869819Y-59607267D01*
X149869819Y-59607267D02*
X149869819Y-59797743D01*
X149869819Y-59797743D02*
X149822200Y-59892981D01*
X149822200Y-59892981D02*
X149726961Y-59988219D01*
X149726961Y-59988219D02*
X149536485Y-60035838D01*
X149536485Y-60035838D02*
X149203152Y-60035838D01*
X149203152Y-60035838D02*
X149012676Y-59988219D01*
X149012676Y-59988219D02*
X148917438Y-59892981D01*
X148917438Y-59892981D02*
X148869819Y-59797743D01*
X149965057Y-59178696D02*
X149965057Y-58416791D01*
X149869819Y-57607267D02*
X149393628Y-57940600D01*
X149869819Y-58178695D02*
X148869819Y-58178695D01*
X148869819Y-58178695D02*
X148869819Y-57797743D01*
X148869819Y-57797743D02*
X148917438Y-57702505D01*
X148917438Y-57702505D02*
X148965057Y-57654886D01*
X148965057Y-57654886D02*
X149060295Y-57607267D01*
X149060295Y-57607267D02*
X149203152Y-57607267D01*
X149203152Y-57607267D02*
X149298390Y-57654886D01*
X149298390Y-57654886D02*
X149346009Y-57702505D01*
X149346009Y-57702505D02*
X149393628Y-57797743D01*
X149393628Y-57797743D02*
X149393628Y-58178695D01*
X149869819Y-57178695D02*
X148869819Y-57178695D01*
X148869819Y-57178695D02*
X148869819Y-56797743D01*
X148869819Y-56797743D02*
X148917438Y-56702505D01*
X148917438Y-56702505D02*
X148965057Y-56654886D01*
X148965057Y-56654886D02*
X149060295Y-56607267D01*
X149060295Y-56607267D02*
X149203152Y-56607267D01*
X149203152Y-56607267D02*
X149298390Y-56654886D01*
X149298390Y-56654886D02*
X149346009Y-56702505D01*
X149346009Y-56702505D02*
X149393628Y-56797743D01*
X149393628Y-56797743D02*
X149393628Y-57178695D01*
X148965057Y-56226314D02*
X148917438Y-56178695D01*
X148917438Y-56178695D02*
X148869819Y-56083457D01*
X148869819Y-56083457D02*
X148869819Y-55845362D01*
X148869819Y-55845362D02*
X148917438Y-55750124D01*
X148917438Y-55750124D02*
X148965057Y-55702505D01*
X148965057Y-55702505D02*
X149060295Y-55654886D01*
X149060295Y-55654886D02*
X149155533Y-55654886D01*
X149155533Y-55654886D02*
X149298390Y-55702505D01*
X149298390Y-55702505D02*
X149869819Y-56273933D01*
X149869819Y-56273933D02*
X149869819Y-55654886D01*
X148869819Y-55035838D02*
X148869819Y-54940600D01*
X148869819Y-54940600D02*
X148917438Y-54845362D01*
X148917438Y-54845362D02*
X148965057Y-54797743D01*
X148965057Y-54797743D02*
X149060295Y-54750124D01*
X149060295Y-54750124D02*
X149250771Y-54702505D01*
X149250771Y-54702505D02*
X149488866Y-54702505D01*
X149488866Y-54702505D02*
X149679342Y-54750124D01*
X149679342Y-54750124D02*
X149774580Y-54797743D01*
X149774580Y-54797743D02*
X149822200Y-54845362D01*
X149822200Y-54845362D02*
X149869819Y-54940600D01*
X149869819Y-54940600D02*
X149869819Y-55035838D01*
X149869819Y-55035838D02*
X149822200Y-55131076D01*
X149822200Y-55131076D02*
X149774580Y-55178695D01*
X149774580Y-55178695D02*
X149679342Y-55226314D01*
X149679342Y-55226314D02*
X149488866Y-55273933D01*
X149488866Y-55273933D02*
X149250771Y-55273933D01*
X149250771Y-55273933D02*
X149060295Y-55226314D01*
X149060295Y-55226314D02*
X148965057Y-55178695D01*
X148965057Y-55178695D02*
X148917438Y-55131076D01*
X148917438Y-55131076D02*
X148869819Y-55035838D01*
X149203152Y-53845362D02*
X149869819Y-53845362D01*
X148822200Y-54083457D02*
X149536485Y-54321552D01*
X149536485Y-54321552D02*
X149536485Y-53702505D01*
X148869819Y-53131076D02*
X148869819Y-53035838D01*
X148869819Y-53035838D02*
X148917438Y-52940600D01*
X148917438Y-52940600D02*
X148965057Y-52892981D01*
X148965057Y-52892981D02*
X149060295Y-52845362D01*
X149060295Y-52845362D02*
X149250771Y-52797743D01*
X149250771Y-52797743D02*
X149488866Y-52797743D01*
X149488866Y-52797743D02*
X149679342Y-52845362D01*
X149679342Y-52845362D02*
X149774580Y-52892981D01*
X149774580Y-52892981D02*
X149822200Y-52940600D01*
X149822200Y-52940600D02*
X149869819Y-53035838D01*
X149869819Y-53035838D02*
X149869819Y-53131076D01*
X149869819Y-53131076D02*
X149822200Y-53226314D01*
X149822200Y-53226314D02*
X149774580Y-53273933D01*
X149774580Y-53273933D02*
X149679342Y-53321552D01*
X149679342Y-53321552D02*
X149488866Y-53369171D01*
X149488866Y-53369171D02*
X149250771Y-53369171D01*
X149250771Y-53369171D02*
X149060295Y-53321552D01*
X149060295Y-53321552D02*
X148965057Y-53273933D01*
X148965057Y-53273933D02*
X148917438Y-53226314D01*
X148917438Y-53226314D02*
X148869819Y-53131076D01*
D14*
%TO.C,J8*%
X201820000Y-108920000D02*
X209500000Y-108920000D01*
X200550000Y-111580000D02*
X199220000Y-111580000D01*
X209500000Y-111580000D02*
X209500000Y-108920000D01*
X201820000Y-111580000D02*
X201820000Y-108920000D01*
X199220000Y-111580000D02*
X199220000Y-110250000D01*
X201820000Y-111580000D02*
X209500000Y-111580000D01*
%TO.C,J4*%
X188940000Y-108920000D02*
X196620000Y-108920000D01*
X187670000Y-111580000D02*
X186340000Y-111580000D01*
X196620000Y-111580000D02*
X196620000Y-108920000D01*
X188940000Y-111580000D02*
X188940000Y-108920000D01*
X186340000Y-111580000D02*
X186340000Y-110250000D01*
X188940000Y-111580000D02*
X196620000Y-111580000D01*
%TO.C,J1*%
X168880000Y-111555000D02*
X167550000Y-111555000D01*
X168880000Y-110225000D02*
X168880000Y-111555000D01*
X168880000Y-108955000D02*
X168880000Y-106355000D01*
X168880000Y-108955000D02*
X166220000Y-108955000D01*
X168880000Y-106355000D02*
X166220000Y-106355000D01*
X166220000Y-108955000D02*
X166220000Y-106355000D01*
%TO.C,R3*%
X170882258Y-100522500D02*
X170407742Y-100522500D01*
X170882258Y-99477500D02*
X170407742Y-99477500D01*
%TO.C,C8*%
X120971000Y-99662621D02*
X120971000Y-99032621D01*
X120656000Y-99347621D02*
X121286000Y-99347621D01*
X119580000Y-96162380D02*
X126040000Y-96162380D01*
X119580000Y-96122380D02*
X126040000Y-96122380D01*
X119580000Y-96082380D02*
X126040000Y-96082380D01*
X119582000Y-96042380D02*
X126038000Y-96042380D01*
X119583000Y-96002380D02*
X126037000Y-96002380D01*
X119586000Y-95962380D02*
X126034000Y-95962380D01*
X119588000Y-95922380D02*
X121770000Y-95922380D01*
X123850000Y-95922380D02*
X126032000Y-95922380D01*
X119592000Y-95882380D02*
X121770000Y-95882380D01*
X123850000Y-95882380D02*
X126028000Y-95882380D01*
X119595000Y-95842380D02*
X121770000Y-95842380D01*
X123850000Y-95842380D02*
X126025000Y-95842380D01*
X119599000Y-95802380D02*
X121770000Y-95802380D01*
X123850000Y-95802380D02*
X126021000Y-95802380D01*
X119604000Y-95762380D02*
X121770000Y-95762380D01*
X123850000Y-95762380D02*
X126016000Y-95762380D01*
X119609000Y-95722380D02*
X121770000Y-95722380D01*
X123850000Y-95722380D02*
X126011000Y-95722380D01*
X119615000Y-95682380D02*
X121770000Y-95682380D01*
X123850000Y-95682380D02*
X126005000Y-95682380D01*
X119621000Y-95642380D02*
X121770000Y-95642380D01*
X123850000Y-95642380D02*
X125999000Y-95642380D01*
X119628000Y-95602380D02*
X121770000Y-95602380D01*
X123850000Y-95602380D02*
X125992000Y-95602380D01*
X119635000Y-95562380D02*
X121770000Y-95562380D01*
X123850000Y-95562380D02*
X125985000Y-95562380D01*
X119643000Y-95522380D02*
X121770000Y-95522380D01*
X123850000Y-95522380D02*
X125977000Y-95522380D01*
X119651000Y-95482380D02*
X121770000Y-95482380D01*
X123850000Y-95482380D02*
X125969000Y-95482380D01*
X119660000Y-95441380D02*
X121770000Y-95441380D01*
X123850000Y-95441380D02*
X125960000Y-95441380D01*
X119669000Y-95401380D02*
X121770000Y-95401380D01*
X123850000Y-95401380D02*
X125951000Y-95401380D01*
X119679000Y-95361380D02*
X121770000Y-95361380D01*
X123850000Y-95361380D02*
X125941000Y-95361380D01*
X119689000Y-95321380D02*
X121770000Y-95321380D01*
X123850000Y-95321380D02*
X125931000Y-95321380D01*
X119700000Y-95281380D02*
X121770000Y-95281380D01*
X123850000Y-95281380D02*
X125920000Y-95281380D01*
X119712000Y-95241380D02*
X121770000Y-95241380D01*
X123850000Y-95241380D02*
X125908000Y-95241380D01*
X119724000Y-95201380D02*
X121770000Y-95201380D01*
X123850000Y-95201380D02*
X125896000Y-95201380D01*
X119736000Y-95161380D02*
X121770000Y-95161380D01*
X123850000Y-95161380D02*
X125884000Y-95161380D01*
X119749000Y-95121380D02*
X121770000Y-95121380D01*
X123850000Y-95121380D02*
X125871000Y-95121380D01*
X119763000Y-95081380D02*
X121770000Y-95081380D01*
X123850000Y-95081380D02*
X125857000Y-95081380D01*
X119777000Y-95041380D02*
X121770000Y-95041380D01*
X123850000Y-95041380D02*
X125843000Y-95041380D01*
X119792000Y-95001380D02*
X121770000Y-95001380D01*
X123850000Y-95001380D02*
X125828000Y-95001380D01*
X119808000Y-94961380D02*
X121770000Y-94961380D01*
X123850000Y-94961380D02*
X125812000Y-94961380D01*
X119824000Y-94921380D02*
X121770000Y-94921380D01*
X123850000Y-94921380D02*
X125796000Y-94921380D01*
X119840000Y-94881380D02*
X121770000Y-94881380D01*
X123850000Y-94881380D02*
X125780000Y-94881380D01*
X119858000Y-94841380D02*
X121770000Y-94841380D01*
X123850000Y-94841380D02*
X125762000Y-94841380D01*
X119876000Y-94801380D02*
X121770000Y-94801380D01*
X123850000Y-94801380D02*
X125744000Y-94801380D01*
X119894000Y-94761380D02*
X121770000Y-94761380D01*
X123850000Y-94761380D02*
X125726000Y-94761380D01*
X119914000Y-94721380D02*
X121770000Y-94721380D01*
X123850000Y-94721380D02*
X125706000Y-94721380D01*
X119934000Y-94681380D02*
X121770000Y-94681380D01*
X123850000Y-94681380D02*
X125686000Y-94681380D01*
X119954000Y-94641380D02*
X121770000Y-94641380D01*
X123850000Y-94641380D02*
X125666000Y-94641380D01*
X119976000Y-94601380D02*
X121770000Y-94601380D01*
X123850000Y-94601380D02*
X125644000Y-94601380D01*
X119998000Y-94561380D02*
X121770000Y-94561380D01*
X123850000Y-94561380D02*
X125622000Y-94561380D01*
X120020000Y-94521380D02*
X121770000Y-94521380D01*
X123850000Y-94521380D02*
X125600000Y-94521380D01*
X120044000Y-94481380D02*
X121770000Y-94481380D01*
X123850000Y-94481380D02*
X125576000Y-94481380D01*
X120068000Y-94441380D02*
X121770000Y-94441380D01*
X123850000Y-94441380D02*
X125552000Y-94441380D01*
X120094000Y-94401380D02*
X121770000Y-94401380D01*
X123850000Y-94401380D02*
X125526000Y-94401380D01*
X120120000Y-94361380D02*
X121770000Y-94361380D01*
X123850000Y-94361380D02*
X125500000Y-94361380D01*
X120146000Y-94321380D02*
X121770000Y-94321380D01*
X123850000Y-94321380D02*
X125474000Y-94321380D01*
X120174000Y-94281380D02*
X121770000Y-94281380D01*
X123850000Y-94281380D02*
X125446000Y-94281380D01*
X120203000Y-94241380D02*
X121770000Y-94241380D01*
X123850000Y-94241380D02*
X125417000Y-94241380D01*
X120232000Y-94201380D02*
X121770000Y-94201380D01*
X123850000Y-94201380D02*
X125388000Y-94201380D01*
X120262000Y-94161380D02*
X121770000Y-94161380D01*
X123850000Y-94161380D02*
X125358000Y-94161380D01*
X120294000Y-94121380D02*
X121770000Y-94121380D01*
X123850000Y-94121380D02*
X125326000Y-94121380D01*
X120326000Y-94081380D02*
X121770000Y-94081380D01*
X123850000Y-94081380D02*
X125294000Y-94081380D01*
X120360000Y-94041380D02*
X121770000Y-94041380D01*
X123850000Y-94041380D02*
X125260000Y-94041380D01*
X120394000Y-94001380D02*
X121770000Y-94001380D01*
X123850000Y-94001380D02*
X125226000Y-94001380D01*
X120430000Y-93961380D02*
X121770000Y-93961380D01*
X123850000Y-93961380D02*
X125190000Y-93961380D01*
X120467000Y-93921380D02*
X121770000Y-93921380D01*
X123850000Y-93921380D02*
X125153000Y-93921380D01*
X120505000Y-93881380D02*
X121770000Y-93881380D01*
X123850000Y-93881380D02*
X125115000Y-93881380D01*
X120545000Y-93841380D02*
X125075000Y-93841380D01*
X120586000Y-93801380D02*
X125034000Y-93801380D01*
X120628000Y-93761380D02*
X124992000Y-93761380D01*
X120673000Y-93721380D02*
X124947000Y-93721380D01*
X120718000Y-93681380D02*
X124902000Y-93681380D01*
X120766000Y-93641380D02*
X124854000Y-93641380D01*
X120815000Y-93601380D02*
X124805000Y-93601380D01*
X120866000Y-93561380D02*
X124754000Y-93561380D01*
X120920000Y-93521380D02*
X124700000Y-93521380D01*
X120976000Y-93481380D02*
X124644000Y-93481380D01*
X121034000Y-93441380D02*
X124586000Y-93441380D01*
X121096000Y-93401380D02*
X124524000Y-93401380D01*
X121160000Y-93361380D02*
X124460000Y-93361380D01*
X121229000Y-93321380D02*
X124391000Y-93321380D01*
X121301000Y-93281380D02*
X124319000Y-93281380D01*
X121378000Y-93241380D02*
X124242000Y-93241380D01*
X121460000Y-93201380D02*
X124160000Y-93201380D01*
X121548000Y-93161380D02*
X124072000Y-93161380D01*
X121645000Y-93121380D02*
X123975000Y-93121380D01*
X121751000Y-93081380D02*
X123869000Y-93081380D01*
X121870000Y-93041380D02*
X123750000Y-93041380D01*
X122008000Y-93001380D02*
X123612000Y-93001380D01*
X122177000Y-92961380D02*
X123443000Y-92961380D01*
X122408000Y-92921380D02*
X123212000Y-92921380D01*
X126080000Y-96162380D02*
G75*
G03*
X126080000Y-96162380I-3270000J0D01*
G01*
%TO.C,C16*%
X171911252Y-115335000D02*
X171388748Y-115335000D01*
X171911252Y-113865000D02*
X171388748Y-113865000D01*
D15*
%TO.C,J2*%
X107235000Y-113005000D02*
X107235000Y-109005000D01*
X99365000Y-113005000D02*
X99365000Y-108505000D01*
D14*
%TO.C,R2*%
X167669758Y-103722500D02*
X167195242Y-103722500D01*
X167669758Y-102677500D02*
X167195242Y-102677500D01*
%TO.C,C15*%
X171911252Y-108635000D02*
X171388748Y-108635000D01*
X171911252Y-107165000D02*
X171388748Y-107165000D01*
D16*
%TO.C,IC1*%
X174025000Y-107075000D02*
X175775000Y-107075000D01*
X176300000Y-106950000D02*
X179800000Y-106950000D01*
X176300000Y-113450000D02*
X176300000Y-106950000D01*
X179800000Y-106950000D02*
X179800000Y-113450000D01*
X179800000Y-113450000D02*
X176300000Y-113450000D01*
D14*
%TO.C,U2*%
X70850000Y-72125000D02*
X114150000Y-72125000D01*
X114150000Y-72125000D02*
X114150000Y-103875000D01*
X114150000Y-103875000D02*
X70850000Y-103875000D01*
X70850000Y-103875000D02*
X70850000Y-72125000D01*
%TO.C,C11*%
X166621000Y-52172621D02*
X166621000Y-51542621D01*
X166306000Y-51857621D02*
X166936000Y-51857621D01*
X165230000Y-48672380D02*
X171690000Y-48672380D01*
X165230000Y-48632380D02*
X171690000Y-48632380D01*
X165230000Y-48592380D02*
X171690000Y-48592380D01*
X165232000Y-48552380D02*
X171688000Y-48552380D01*
X165233000Y-48512380D02*
X171687000Y-48512380D01*
X165236000Y-48472380D02*
X171684000Y-48472380D01*
X165238000Y-48432380D02*
X167420000Y-48432380D01*
X169500000Y-48432380D02*
X171682000Y-48432380D01*
X165242000Y-48392380D02*
X167420000Y-48392380D01*
X169500000Y-48392380D02*
X171678000Y-48392380D01*
X165245000Y-48352380D02*
X167420000Y-48352380D01*
X169500000Y-48352380D02*
X171675000Y-48352380D01*
X165249000Y-48312380D02*
X167420000Y-48312380D01*
X169500000Y-48312380D02*
X171671000Y-48312380D01*
X165254000Y-48272380D02*
X167420000Y-48272380D01*
X169500000Y-48272380D02*
X171666000Y-48272380D01*
X165259000Y-48232380D02*
X167420000Y-48232380D01*
X169500000Y-48232380D02*
X171661000Y-48232380D01*
X165265000Y-48192380D02*
X167420000Y-48192380D01*
X169500000Y-48192380D02*
X171655000Y-48192380D01*
X165271000Y-48152380D02*
X167420000Y-48152380D01*
X169500000Y-48152380D02*
X171649000Y-48152380D01*
X165278000Y-48112380D02*
X167420000Y-48112380D01*
X169500000Y-48112380D02*
X171642000Y-48112380D01*
X165285000Y-48072380D02*
X167420000Y-48072380D01*
X169500000Y-48072380D02*
X171635000Y-48072380D01*
X165293000Y-48032380D02*
X167420000Y-48032380D01*
X169500000Y-48032380D02*
X171627000Y-48032380D01*
X165301000Y-47992380D02*
X167420000Y-47992380D01*
X169500000Y-47992380D02*
X171619000Y-47992380D01*
X165310000Y-47951380D02*
X167420000Y-47951380D01*
X169500000Y-47951380D02*
X171610000Y-47951380D01*
X165319000Y-47911380D02*
X167420000Y-47911380D01*
X169500000Y-47911380D02*
X171601000Y-47911380D01*
X165329000Y-47871380D02*
X167420000Y-47871380D01*
X169500000Y-47871380D02*
X171591000Y-47871380D01*
X165339000Y-47831380D02*
X167420000Y-47831380D01*
X169500000Y-47831380D02*
X171581000Y-47831380D01*
X165350000Y-47791380D02*
X167420000Y-47791380D01*
X169500000Y-47791380D02*
X171570000Y-47791380D01*
X165362000Y-47751380D02*
X167420000Y-47751380D01*
X169500000Y-47751380D02*
X171558000Y-47751380D01*
X165374000Y-47711380D02*
X167420000Y-47711380D01*
X169500000Y-47711380D02*
X171546000Y-47711380D01*
X165386000Y-47671380D02*
X167420000Y-47671380D01*
X169500000Y-47671380D02*
X171534000Y-47671380D01*
X165399000Y-47631380D02*
X167420000Y-47631380D01*
X169500000Y-47631380D02*
X171521000Y-47631380D01*
X165413000Y-47591380D02*
X167420000Y-47591380D01*
X169500000Y-47591380D02*
X171507000Y-47591380D01*
X165427000Y-47551380D02*
X167420000Y-47551380D01*
X169500000Y-47551380D02*
X171493000Y-47551380D01*
X165442000Y-47511380D02*
X167420000Y-47511380D01*
X169500000Y-47511380D02*
X171478000Y-47511380D01*
X165458000Y-47471380D02*
X167420000Y-47471380D01*
X169500000Y-47471380D02*
X171462000Y-47471380D01*
X165474000Y-47431380D02*
X167420000Y-47431380D01*
X169500000Y-47431380D02*
X171446000Y-47431380D01*
X165490000Y-47391380D02*
X167420000Y-47391380D01*
X169500000Y-47391380D02*
X171430000Y-47391380D01*
X165508000Y-47351380D02*
X167420000Y-47351380D01*
X169500000Y-47351380D02*
X171412000Y-47351380D01*
X165526000Y-47311380D02*
X167420000Y-47311380D01*
X169500000Y-47311380D02*
X171394000Y-47311380D01*
X165544000Y-47271380D02*
X167420000Y-47271380D01*
X169500000Y-47271380D02*
X171376000Y-47271380D01*
X165564000Y-47231380D02*
X167420000Y-47231380D01*
X169500000Y-47231380D02*
X171356000Y-47231380D01*
X165584000Y-47191380D02*
X167420000Y-47191380D01*
X169500000Y-47191380D02*
X171336000Y-47191380D01*
X165604000Y-47151380D02*
X167420000Y-47151380D01*
X169500000Y-47151380D02*
X171316000Y-47151380D01*
X165626000Y-47111380D02*
X167420000Y-47111380D01*
X169500000Y-47111380D02*
X171294000Y-47111380D01*
X165648000Y-47071380D02*
X167420000Y-47071380D01*
X169500000Y-47071380D02*
X171272000Y-47071380D01*
X165670000Y-47031380D02*
X167420000Y-47031380D01*
X169500000Y-47031380D02*
X171250000Y-47031380D01*
X165694000Y-46991380D02*
X167420000Y-46991380D01*
X169500000Y-46991380D02*
X171226000Y-46991380D01*
X165718000Y-46951380D02*
X167420000Y-46951380D01*
X169500000Y-46951380D02*
X171202000Y-46951380D01*
X165744000Y-46911380D02*
X167420000Y-46911380D01*
X169500000Y-46911380D02*
X171176000Y-46911380D01*
X165770000Y-46871380D02*
X167420000Y-46871380D01*
X169500000Y-46871380D02*
X171150000Y-46871380D01*
X165796000Y-46831380D02*
X167420000Y-46831380D01*
X169500000Y-46831380D02*
X171124000Y-46831380D01*
X165824000Y-46791380D02*
X167420000Y-46791380D01*
X169500000Y-46791380D02*
X171096000Y-46791380D01*
X165853000Y-46751380D02*
X167420000Y-46751380D01*
X169500000Y-46751380D02*
X171067000Y-46751380D01*
X165882000Y-46711380D02*
X167420000Y-46711380D01*
X169500000Y-46711380D02*
X171038000Y-46711380D01*
X165912000Y-46671380D02*
X167420000Y-46671380D01*
X169500000Y-46671380D02*
X171008000Y-46671380D01*
X165944000Y-46631380D02*
X167420000Y-46631380D01*
X169500000Y-46631380D02*
X170976000Y-46631380D01*
X165976000Y-46591380D02*
X167420000Y-46591380D01*
X169500000Y-46591380D02*
X170944000Y-46591380D01*
X166010000Y-46551380D02*
X167420000Y-46551380D01*
X169500000Y-46551380D02*
X170910000Y-46551380D01*
X166044000Y-46511380D02*
X167420000Y-46511380D01*
X169500000Y-46511380D02*
X170876000Y-46511380D01*
X166080000Y-46471380D02*
X167420000Y-46471380D01*
X169500000Y-46471380D02*
X170840000Y-46471380D01*
X166117000Y-46431380D02*
X167420000Y-46431380D01*
X169500000Y-46431380D02*
X170803000Y-46431380D01*
X166155000Y-46391380D02*
X167420000Y-46391380D01*
X169500000Y-46391380D02*
X170765000Y-46391380D01*
X166195000Y-46351380D02*
X170725000Y-46351380D01*
X166236000Y-46311380D02*
X170684000Y-46311380D01*
X166278000Y-46271380D02*
X170642000Y-46271380D01*
X166323000Y-46231380D02*
X170597000Y-46231380D01*
X166368000Y-46191380D02*
X170552000Y-46191380D01*
X166416000Y-46151380D02*
X170504000Y-46151380D01*
X166465000Y-46111380D02*
X170455000Y-46111380D01*
X166516000Y-46071380D02*
X170404000Y-46071380D01*
X166570000Y-46031380D02*
X170350000Y-46031380D01*
X166626000Y-45991380D02*
X170294000Y-45991380D01*
X166684000Y-45951380D02*
X170236000Y-45951380D01*
X166746000Y-45911380D02*
X170174000Y-45911380D01*
X166810000Y-45871380D02*
X170110000Y-45871380D01*
X166879000Y-45831380D02*
X170041000Y-45831380D01*
X166951000Y-45791380D02*
X169969000Y-45791380D01*
X167028000Y-45751380D02*
X169892000Y-45751380D01*
X167110000Y-45711380D02*
X169810000Y-45711380D01*
X167198000Y-45671380D02*
X169722000Y-45671380D01*
X167295000Y-45631380D02*
X169625000Y-45631380D01*
X167401000Y-45591380D02*
X169519000Y-45591380D01*
X167520000Y-45551380D02*
X169400000Y-45551380D01*
X167658000Y-45511380D02*
X169262000Y-45511380D01*
X167827000Y-45471380D02*
X169093000Y-45471380D01*
X168058000Y-45431380D02*
X168862000Y-45431380D01*
X171730000Y-48672380D02*
G75*
G03*
X171730000Y-48672380I-3270000J0D01*
G01*
%TO.C,R4*%
X177419758Y-100522500D02*
X176945242Y-100522500D01*
X177419758Y-99477500D02*
X176945242Y-99477500D01*
%TO.C,R9*%
X174837742Y-90377500D02*
X175312258Y-90377500D01*
X174837742Y-91422500D02*
X175312258Y-91422500D01*
%TO.C,C12*%
X192327380Y-48561000D02*
X192957380Y-48561000D01*
X192642380Y-48246000D02*
X192642380Y-48876000D01*
X195827621Y-47170000D02*
X195827621Y-53630000D01*
X195867621Y-47170000D02*
X195867621Y-53630000D01*
X195907621Y-47170000D02*
X195907621Y-53630000D01*
X195947621Y-47172000D02*
X195947621Y-53628000D01*
X195987621Y-47173000D02*
X195987621Y-53627000D01*
X196027621Y-47176000D02*
X196027621Y-53624000D01*
X196067621Y-47178000D02*
X196067621Y-49360000D01*
X196067621Y-51440000D02*
X196067621Y-53622000D01*
X196107621Y-47182000D02*
X196107621Y-49360000D01*
X196107621Y-51440000D02*
X196107621Y-53618000D01*
X196147621Y-47185000D02*
X196147621Y-49360000D01*
X196147621Y-51440000D02*
X196147621Y-53615000D01*
X196187621Y-47189000D02*
X196187621Y-49360000D01*
X196187621Y-51440000D02*
X196187621Y-53611000D01*
X196227621Y-47194000D02*
X196227621Y-49360000D01*
X196227621Y-51440000D02*
X196227621Y-53606000D01*
X196267621Y-47199000D02*
X196267621Y-49360000D01*
X196267621Y-51440000D02*
X196267621Y-53601000D01*
X196307621Y-47205000D02*
X196307621Y-49360000D01*
X196307621Y-51440000D02*
X196307621Y-53595000D01*
X196347621Y-47211000D02*
X196347621Y-49360000D01*
X196347621Y-51440000D02*
X196347621Y-53589000D01*
X196387621Y-47218000D02*
X196387621Y-49360000D01*
X196387621Y-51440000D02*
X196387621Y-53582000D01*
X196427621Y-47225000D02*
X196427621Y-49360000D01*
X196427621Y-51440000D02*
X196427621Y-53575000D01*
X196467621Y-47233000D02*
X196467621Y-49360000D01*
X196467621Y-51440000D02*
X196467621Y-53567000D01*
X196507621Y-47241000D02*
X196507621Y-49360000D01*
X196507621Y-51440000D02*
X196507621Y-53559000D01*
X196548621Y-47250000D02*
X196548621Y-49360000D01*
X196548621Y-51440000D02*
X196548621Y-53550000D01*
X196588621Y-47259000D02*
X196588621Y-49360000D01*
X196588621Y-51440000D02*
X196588621Y-53541000D01*
X196628621Y-47269000D02*
X196628621Y-49360000D01*
X196628621Y-51440000D02*
X196628621Y-53531000D01*
X196668621Y-47279000D02*
X196668621Y-49360000D01*
X196668621Y-51440000D02*
X196668621Y-53521000D01*
X196708621Y-47290000D02*
X196708621Y-49360000D01*
X196708621Y-51440000D02*
X196708621Y-53510000D01*
X196748621Y-47302000D02*
X196748621Y-49360000D01*
X196748621Y-51440000D02*
X196748621Y-53498000D01*
X196788621Y-47314000D02*
X196788621Y-49360000D01*
X196788621Y-51440000D02*
X196788621Y-53486000D01*
X196828621Y-47326000D02*
X196828621Y-49360000D01*
X196828621Y-51440000D02*
X196828621Y-53474000D01*
X196868621Y-47339000D02*
X196868621Y-49360000D01*
X196868621Y-51440000D02*
X196868621Y-53461000D01*
X196908621Y-47353000D02*
X196908621Y-49360000D01*
X196908621Y-51440000D02*
X196908621Y-53447000D01*
X196948621Y-47367000D02*
X196948621Y-49360000D01*
X196948621Y-51440000D02*
X196948621Y-53433000D01*
X196988621Y-47382000D02*
X196988621Y-49360000D01*
X196988621Y-51440000D02*
X196988621Y-53418000D01*
X197028621Y-47398000D02*
X197028621Y-49360000D01*
X197028621Y-51440000D02*
X197028621Y-53402000D01*
X197068621Y-47414000D02*
X197068621Y-49360000D01*
X197068621Y-51440000D02*
X197068621Y-53386000D01*
X197108621Y-47430000D02*
X197108621Y-49360000D01*
X197108621Y-51440000D02*
X197108621Y-53370000D01*
X197148621Y-47448000D02*
X197148621Y-49360000D01*
X197148621Y-51440000D02*
X197148621Y-53352000D01*
X197188621Y-47466000D02*
X197188621Y-49360000D01*
X197188621Y-51440000D02*
X197188621Y-53334000D01*
X197228621Y-47484000D02*
X197228621Y-49360000D01*
X197228621Y-51440000D02*
X197228621Y-53316000D01*
X197268621Y-47504000D02*
X197268621Y-49360000D01*
X197268621Y-51440000D02*
X197268621Y-53296000D01*
X197308621Y-47524000D02*
X197308621Y-49360000D01*
X197308621Y-51440000D02*
X197308621Y-53276000D01*
X197348621Y-47544000D02*
X197348621Y-49360000D01*
X197348621Y-51440000D02*
X197348621Y-53256000D01*
X197388621Y-47566000D02*
X197388621Y-49360000D01*
X197388621Y-51440000D02*
X197388621Y-53234000D01*
X197428621Y-47588000D02*
X197428621Y-49360000D01*
X197428621Y-51440000D02*
X197428621Y-53212000D01*
X197468621Y-47610000D02*
X197468621Y-49360000D01*
X197468621Y-51440000D02*
X197468621Y-53190000D01*
X197508621Y-47634000D02*
X197508621Y-49360000D01*
X197508621Y-51440000D02*
X197508621Y-53166000D01*
X197548621Y-47658000D02*
X197548621Y-49360000D01*
X197548621Y-51440000D02*
X197548621Y-53142000D01*
X197588621Y-47684000D02*
X197588621Y-49360000D01*
X197588621Y-51440000D02*
X197588621Y-53116000D01*
X197628621Y-47710000D02*
X197628621Y-49360000D01*
X197628621Y-51440000D02*
X197628621Y-53090000D01*
X197668621Y-47736000D02*
X197668621Y-49360000D01*
X197668621Y-51440000D02*
X197668621Y-53064000D01*
X197708621Y-47764000D02*
X197708621Y-49360000D01*
X197708621Y-51440000D02*
X197708621Y-53036000D01*
X197748621Y-47793000D02*
X197748621Y-49360000D01*
X197748621Y-51440000D02*
X197748621Y-53007000D01*
X197788621Y-47822000D02*
X197788621Y-49360000D01*
X197788621Y-51440000D02*
X197788621Y-52978000D01*
X197828621Y-47852000D02*
X197828621Y-49360000D01*
X197828621Y-51440000D02*
X197828621Y-52948000D01*
X197868621Y-47884000D02*
X197868621Y-49360000D01*
X197868621Y-51440000D02*
X197868621Y-52916000D01*
X197908621Y-47916000D02*
X197908621Y-49360000D01*
X197908621Y-51440000D02*
X197908621Y-52884000D01*
X197948621Y-47950000D02*
X197948621Y-49360000D01*
X197948621Y-51440000D02*
X197948621Y-52850000D01*
X197988621Y-47984000D02*
X197988621Y-49360000D01*
X197988621Y-51440000D02*
X197988621Y-52816000D01*
X198028621Y-48020000D02*
X198028621Y-49360000D01*
X198028621Y-51440000D02*
X198028621Y-52780000D01*
X198068621Y-48057000D02*
X198068621Y-49360000D01*
X198068621Y-51440000D02*
X198068621Y-52743000D01*
X198108621Y-48095000D02*
X198108621Y-49360000D01*
X198108621Y-51440000D02*
X198108621Y-52705000D01*
X198148621Y-48135000D02*
X198148621Y-52665000D01*
X198188621Y-48176000D02*
X198188621Y-52624000D01*
X198228621Y-48218000D02*
X198228621Y-52582000D01*
X198268621Y-48263000D02*
X198268621Y-52537000D01*
X198308621Y-48308000D02*
X198308621Y-52492000D01*
X198348621Y-48356000D02*
X198348621Y-52444000D01*
X198388621Y-48405000D02*
X198388621Y-52395000D01*
X198428621Y-48456000D02*
X198428621Y-52344000D01*
X198468621Y-48510000D02*
X198468621Y-52290000D01*
X198508621Y-48566000D02*
X198508621Y-52234000D01*
X198548621Y-48624000D02*
X198548621Y-52176000D01*
X198588621Y-48686000D02*
X198588621Y-52114000D01*
X198628621Y-48750000D02*
X198628621Y-52050000D01*
X198668621Y-48819000D02*
X198668621Y-51981000D01*
X198708621Y-48891000D02*
X198708621Y-51909000D01*
X198748621Y-48968000D02*
X198748621Y-51832000D01*
X198788621Y-49050000D02*
X198788621Y-51750000D01*
X198828621Y-49138000D02*
X198828621Y-51662000D01*
X198868621Y-49235000D02*
X198868621Y-51565000D01*
X198908621Y-49341000D02*
X198908621Y-51459000D01*
X198948621Y-49460000D02*
X198948621Y-51340000D01*
X198988621Y-49598000D02*
X198988621Y-51202000D01*
X199028621Y-49767000D02*
X199028621Y-51033000D01*
X199068621Y-49998000D02*
X199068621Y-50802000D01*
X199097621Y-50400000D02*
G75*
G03*
X199097621Y-50400000I-3270000J0D01*
G01*
%TO.C,D3*%
X172110000Y-99135000D02*
X172110000Y-97665000D01*
X172110000Y-97665000D02*
X169825000Y-97665000D01*
X169825000Y-99135000D02*
X172110000Y-99135000D01*
%TO.C,D8*%
X170220000Y-109465000D02*
X170220000Y-110935000D01*
X170220000Y-110935000D02*
X172680000Y-110935000D01*
X172680000Y-109465000D02*
X170220000Y-109465000D01*
%TO.C,U3*%
X115050000Y-82925000D02*
X146800000Y-82925000D01*
X146800000Y-82925000D02*
X146800000Y-39625000D01*
X146800000Y-39625000D02*
X115050000Y-39625000D01*
X115050000Y-39625000D02*
X115050000Y-82925000D01*
%TO.C,D2*%
X168897500Y-102335000D02*
X168897500Y-100865000D01*
X168897500Y-100865000D02*
X166612500Y-100865000D01*
X166612500Y-102335000D02*
X168897500Y-102335000D01*
%TO.C,U6*%
X223710000Y-103875000D02*
X180410000Y-103875000D01*
X180410000Y-103875000D02*
X180410000Y-72125000D01*
X180410000Y-72125000D02*
X223710000Y-72125000D01*
X223710000Y-72125000D02*
X223710000Y-103875000D01*
%TO.C,D4*%
X178647500Y-99135000D02*
X178647500Y-97665000D01*
X178647500Y-97665000D02*
X176362500Y-97665000D01*
X176362500Y-99135000D02*
X178647500Y-99135000D01*
%TO.C,R8*%
X174837742Y-94777500D02*
X175312258Y-94777500D01*
X174837742Y-95822500D02*
X175312258Y-95822500D01*
%TO.C,D1*%
X133915000Y-111435000D02*
X133915000Y-109965000D01*
X133915000Y-109965000D02*
X131630000Y-109965000D01*
X131630000Y-111435000D02*
X133915000Y-111435000D01*
%TO.C,D7*%
X178647500Y-102335000D02*
X178647500Y-100865000D01*
X178647500Y-100865000D02*
X176362500Y-100865000D01*
X176362500Y-102335000D02*
X178647500Y-102335000D01*
%TO.C,R6*%
X174169758Y-100522500D02*
X173695242Y-100522500D01*
X174169758Y-99477500D02*
X173695242Y-99477500D01*
D16*
%TO.C,IC2*%
X176775000Y-94300000D02*
X175575000Y-94300000D01*
D14*
%TO.C,C13*%
X191702621Y-67549000D02*
X191072621Y-67549000D01*
X191387621Y-67864000D02*
X191387621Y-67234000D01*
X188202380Y-68940000D02*
X188202380Y-62480000D01*
X188162380Y-68940000D02*
X188162380Y-62480000D01*
X188122380Y-68940000D02*
X188122380Y-62480000D01*
X188082380Y-68938000D02*
X188082380Y-62482000D01*
X188042380Y-68937000D02*
X188042380Y-62483000D01*
X188002380Y-68934000D02*
X188002380Y-62486000D01*
X187962380Y-68932000D02*
X187962380Y-66750000D01*
X187962380Y-64670000D02*
X187962380Y-62488000D01*
X187922380Y-68928000D02*
X187922380Y-66750000D01*
X187922380Y-64670000D02*
X187922380Y-62492000D01*
X187882380Y-68925000D02*
X187882380Y-66750000D01*
X187882380Y-64670000D02*
X187882380Y-62495000D01*
X187842380Y-68921000D02*
X187842380Y-66750000D01*
X187842380Y-64670000D02*
X187842380Y-62499000D01*
X187802380Y-68916000D02*
X187802380Y-66750000D01*
X187802380Y-64670000D02*
X187802380Y-62504000D01*
X187762380Y-68911000D02*
X187762380Y-66750000D01*
X187762380Y-64670000D02*
X187762380Y-62509000D01*
X187722380Y-68905000D02*
X187722380Y-66750000D01*
X187722380Y-64670000D02*
X187722380Y-62515000D01*
X187682380Y-68899000D02*
X187682380Y-66750000D01*
X187682380Y-64670000D02*
X187682380Y-62521000D01*
X187642380Y-68892000D02*
X187642380Y-66750000D01*
X187642380Y-64670000D02*
X187642380Y-62528000D01*
X187602380Y-68885000D02*
X187602380Y-66750000D01*
X187602380Y-64670000D02*
X187602380Y-62535000D01*
X187562380Y-68877000D02*
X187562380Y-66750000D01*
X187562380Y-64670000D02*
X187562380Y-62543000D01*
X187522380Y-68869000D02*
X187522380Y-66750000D01*
X187522380Y-64670000D02*
X187522380Y-62551000D01*
X187481380Y-68860000D02*
X187481380Y-66750000D01*
X187481380Y-64670000D02*
X187481380Y-62560000D01*
X187441380Y-68851000D02*
X187441380Y-66750000D01*
X187441380Y-64670000D02*
X187441380Y-62569000D01*
X187401380Y-68841000D02*
X187401380Y-66750000D01*
X187401380Y-64670000D02*
X187401380Y-62579000D01*
X187361380Y-68831000D02*
X187361380Y-66750000D01*
X187361380Y-64670000D02*
X187361380Y-62589000D01*
X187321380Y-68820000D02*
X187321380Y-66750000D01*
X187321380Y-64670000D02*
X187321380Y-62600000D01*
X187281380Y-68808000D02*
X187281380Y-66750000D01*
X187281380Y-64670000D02*
X187281380Y-62612000D01*
X187241380Y-68796000D02*
X187241380Y-66750000D01*
X187241380Y-64670000D02*
X187241380Y-62624000D01*
X187201380Y-68784000D02*
X187201380Y-66750000D01*
X187201380Y-64670000D02*
X187201380Y-62636000D01*
X187161380Y-68771000D02*
X187161380Y-66750000D01*
X187161380Y-64670000D02*
X187161380Y-62649000D01*
X187121380Y-68757000D02*
X187121380Y-66750000D01*
X187121380Y-64670000D02*
X187121380Y-62663000D01*
X187081380Y-68743000D02*
X187081380Y-66750000D01*
X187081380Y-64670000D02*
X187081380Y-62677000D01*
X187041380Y-68728000D02*
X187041380Y-66750000D01*
X187041380Y-64670000D02*
X187041380Y-62692000D01*
X187001380Y-68712000D02*
X187001380Y-66750000D01*
X187001380Y-64670000D02*
X187001380Y-62708000D01*
X186961380Y-68696000D02*
X186961380Y-66750000D01*
X186961380Y-64670000D02*
X186961380Y-62724000D01*
X186921380Y-68680000D02*
X186921380Y-66750000D01*
X186921380Y-64670000D02*
X186921380Y-62740000D01*
X186881380Y-68662000D02*
X186881380Y-66750000D01*
X186881380Y-64670000D02*
X186881380Y-62758000D01*
X186841380Y-68644000D02*
X186841380Y-66750000D01*
X186841380Y-64670000D02*
X186841380Y-62776000D01*
X186801380Y-68626000D02*
X186801380Y-66750000D01*
X186801380Y-64670000D02*
X186801380Y-62794000D01*
X186761380Y-68606000D02*
X186761380Y-66750000D01*
X186761380Y-64670000D02*
X186761380Y-62814000D01*
X186721380Y-68586000D02*
X186721380Y-66750000D01*
X186721380Y-64670000D02*
X186721380Y-62834000D01*
X186681380Y-68566000D02*
X186681380Y-66750000D01*
X186681380Y-64670000D02*
X186681380Y-62854000D01*
X186641380Y-68544000D02*
X186641380Y-66750000D01*
X186641380Y-64670000D02*
X186641380Y-62876000D01*
X186601380Y-68522000D02*
X186601380Y-66750000D01*
X186601380Y-64670000D02*
X186601380Y-62898000D01*
X186561380Y-68500000D02*
X186561380Y-66750000D01*
X186561380Y-64670000D02*
X186561380Y-62920000D01*
X186521380Y-68476000D02*
X186521380Y-66750000D01*
X186521380Y-64670000D02*
X186521380Y-62944000D01*
X186481380Y-68452000D02*
X186481380Y-66750000D01*
X186481380Y-64670000D02*
X186481380Y-62968000D01*
X186441380Y-68426000D02*
X186441380Y-66750000D01*
X186441380Y-64670000D02*
X186441380Y-62994000D01*
X186401380Y-68400000D02*
X186401380Y-66750000D01*
X186401380Y-64670000D02*
X186401380Y-63020000D01*
X186361380Y-68374000D02*
X186361380Y-66750000D01*
X186361380Y-64670000D02*
X186361380Y-63046000D01*
X186321380Y-68346000D02*
X186321380Y-66750000D01*
X186321380Y-64670000D02*
X186321380Y-63074000D01*
X186281380Y-68317000D02*
X186281380Y-66750000D01*
X186281380Y-64670000D02*
X186281380Y-63103000D01*
X186241380Y-68288000D02*
X186241380Y-66750000D01*
X186241380Y-64670000D02*
X186241380Y-63132000D01*
X186201380Y-68258000D02*
X186201380Y-66750000D01*
X186201380Y-64670000D02*
X186201380Y-63162000D01*
X186161380Y-68226000D02*
X186161380Y-66750000D01*
X186161380Y-64670000D02*
X186161380Y-63194000D01*
X186121380Y-68194000D02*
X186121380Y-66750000D01*
X186121380Y-64670000D02*
X186121380Y-63226000D01*
X186081380Y-68160000D02*
X186081380Y-66750000D01*
X186081380Y-64670000D02*
X186081380Y-63260000D01*
X186041380Y-68126000D02*
X186041380Y-66750000D01*
X186041380Y-64670000D02*
X186041380Y-63294000D01*
X186001380Y-68090000D02*
X186001380Y-66750000D01*
X186001380Y-64670000D02*
X186001380Y-63330000D01*
X185961380Y-68053000D02*
X185961380Y-66750000D01*
X185961380Y-64670000D02*
X185961380Y-63367000D01*
X185921380Y-68015000D02*
X185921380Y-66750000D01*
X185921380Y-64670000D02*
X185921380Y-63405000D01*
X185881380Y-67975000D02*
X185881380Y-63445000D01*
X185841380Y-67934000D02*
X185841380Y-63486000D01*
X185801380Y-67892000D02*
X185801380Y-63528000D01*
X185761380Y-67847000D02*
X185761380Y-63573000D01*
X185721380Y-67802000D02*
X185721380Y-63618000D01*
X185681380Y-67754000D02*
X185681380Y-63666000D01*
X185641380Y-67705000D02*
X185641380Y-63715000D01*
X185601380Y-67654000D02*
X185601380Y-63766000D01*
X185561380Y-67600000D02*
X185561380Y-63820000D01*
X185521380Y-67544000D02*
X185521380Y-63876000D01*
X185481380Y-67486000D02*
X185481380Y-63934000D01*
X185441380Y-67424000D02*
X185441380Y-63996000D01*
X185401380Y-67360000D02*
X185401380Y-64060000D01*
X185361380Y-67291000D02*
X185361380Y-64129000D01*
X185321380Y-67219000D02*
X185321380Y-64201000D01*
X185281380Y-67142000D02*
X185281380Y-64278000D01*
X185241380Y-67060000D02*
X185241380Y-64360000D01*
X185201380Y-66972000D02*
X185201380Y-64448000D01*
X185161380Y-66875000D02*
X185161380Y-64545000D01*
X185121380Y-66769000D02*
X185121380Y-64651000D01*
X185081380Y-66650000D02*
X185081380Y-64770000D01*
X185041380Y-66512000D02*
X185041380Y-64908000D01*
X185001380Y-66343000D02*
X185001380Y-65077000D01*
X184961380Y-66112000D02*
X184961380Y-65308000D01*
X191472380Y-65710000D02*
G75*
G03*
X191472380Y-65710000I-3270000J0D01*
G01*
%TO.C,U5*%
X223650000Y-71375000D02*
X180350000Y-71375000D01*
X180350000Y-71375000D02*
X180350000Y-39625000D01*
X180350000Y-39625000D02*
X223650000Y-39625000D01*
X223650000Y-39625000D02*
X223650000Y-71375000D01*
%TO.C,D5*%
X168897500Y-99135000D02*
X168897500Y-97665000D01*
X168897500Y-97665000D02*
X166612500Y-97665000D01*
X166612500Y-99135000D02*
X168897500Y-99135000D01*
D15*
%TO.C,J3*%
X92765000Y-113005000D02*
X92765000Y-109005000D01*
X84895000Y-113005000D02*
X84895000Y-108505000D01*
D14*
%TO.C,C10*%
X133681000Y-52092621D02*
X133681000Y-51462621D01*
X133366000Y-51777621D02*
X133996000Y-51777621D01*
X132290000Y-48592380D02*
X138750000Y-48592380D01*
X132290000Y-48552380D02*
X138750000Y-48552380D01*
X132290000Y-48512380D02*
X138750000Y-48512380D01*
X132292000Y-48472380D02*
X138748000Y-48472380D01*
X132293000Y-48432380D02*
X138747000Y-48432380D01*
X132296000Y-48392380D02*
X138744000Y-48392380D01*
X132298000Y-48352380D02*
X134480000Y-48352380D01*
X136560000Y-48352380D02*
X138742000Y-48352380D01*
X132302000Y-48312380D02*
X134480000Y-48312380D01*
X136560000Y-48312380D02*
X138738000Y-48312380D01*
X132305000Y-48272380D02*
X134480000Y-48272380D01*
X136560000Y-48272380D02*
X138735000Y-48272380D01*
X132309000Y-48232380D02*
X134480000Y-48232380D01*
X136560000Y-48232380D02*
X138731000Y-48232380D01*
X132314000Y-48192380D02*
X134480000Y-48192380D01*
X136560000Y-48192380D02*
X138726000Y-48192380D01*
X132319000Y-48152380D02*
X134480000Y-48152380D01*
X136560000Y-48152380D02*
X138721000Y-48152380D01*
X132325000Y-48112380D02*
X134480000Y-48112380D01*
X136560000Y-48112380D02*
X138715000Y-48112380D01*
X132331000Y-48072380D02*
X134480000Y-48072380D01*
X136560000Y-48072380D02*
X138709000Y-48072380D01*
X132338000Y-48032380D02*
X134480000Y-48032380D01*
X136560000Y-48032380D02*
X138702000Y-48032380D01*
X132345000Y-47992380D02*
X134480000Y-47992380D01*
X136560000Y-47992380D02*
X138695000Y-47992380D01*
X132353000Y-47952380D02*
X134480000Y-47952380D01*
X136560000Y-47952380D02*
X138687000Y-47952380D01*
X132361000Y-47912380D02*
X134480000Y-47912380D01*
X136560000Y-47912380D02*
X138679000Y-47912380D01*
X132370000Y-47871380D02*
X134480000Y-47871380D01*
X136560000Y-47871380D02*
X138670000Y-47871380D01*
X132379000Y-47831380D02*
X134480000Y-47831380D01*
X136560000Y-47831380D02*
X138661000Y-47831380D01*
X132389000Y-47791380D02*
X134480000Y-47791380D01*
X136560000Y-47791380D02*
X138651000Y-47791380D01*
X132399000Y-47751380D02*
X134480000Y-47751380D01*
X136560000Y-47751380D02*
X138641000Y-47751380D01*
X132410000Y-47711380D02*
X134480000Y-47711380D01*
X136560000Y-47711380D02*
X138630000Y-47711380D01*
X132422000Y-47671380D02*
X134480000Y-47671380D01*
X136560000Y-47671380D02*
X138618000Y-47671380D01*
X132434000Y-47631380D02*
X134480000Y-47631380D01*
X136560000Y-47631380D02*
X138606000Y-47631380D01*
X132446000Y-47591380D02*
X134480000Y-47591380D01*
X136560000Y-47591380D02*
X138594000Y-47591380D01*
X132459000Y-47551380D02*
X134480000Y-47551380D01*
X136560000Y-47551380D02*
X138581000Y-47551380D01*
X132473000Y-47511380D02*
X134480000Y-47511380D01*
X136560000Y-47511380D02*
X138567000Y-47511380D01*
X132487000Y-47471380D02*
X134480000Y-47471380D01*
X136560000Y-47471380D02*
X138553000Y-47471380D01*
X132502000Y-47431380D02*
X134480000Y-47431380D01*
X136560000Y-47431380D02*
X138538000Y-47431380D01*
X132518000Y-47391380D02*
X134480000Y-47391380D01*
X136560000Y-47391380D02*
X138522000Y-47391380D01*
X132534000Y-47351380D02*
X134480000Y-47351380D01*
X136560000Y-47351380D02*
X138506000Y-47351380D01*
X132550000Y-47311380D02*
X134480000Y-47311380D01*
X136560000Y-47311380D02*
X138490000Y-47311380D01*
X132568000Y-47271380D02*
X134480000Y-47271380D01*
X136560000Y-47271380D02*
X138472000Y-47271380D01*
X132586000Y-47231380D02*
X134480000Y-47231380D01*
X136560000Y-47231380D02*
X138454000Y-47231380D01*
X132604000Y-47191380D02*
X134480000Y-47191380D01*
X136560000Y-47191380D02*
X138436000Y-47191380D01*
X132624000Y-47151380D02*
X134480000Y-47151380D01*
X136560000Y-47151380D02*
X138416000Y-47151380D01*
X132644000Y-47111380D02*
X134480000Y-47111380D01*
X136560000Y-47111380D02*
X138396000Y-47111380D01*
X132664000Y-47071380D02*
X134480000Y-47071380D01*
X136560000Y-47071380D02*
X138376000Y-47071380D01*
X132686000Y-47031380D02*
X134480000Y-47031380D01*
X136560000Y-47031380D02*
X138354000Y-47031380D01*
X132708000Y-46991380D02*
X134480000Y-46991380D01*
X136560000Y-46991380D02*
X138332000Y-46991380D01*
X132730000Y-46951380D02*
X134480000Y-46951380D01*
X136560000Y-46951380D02*
X138310000Y-46951380D01*
X132754000Y-46911380D02*
X134480000Y-46911380D01*
X136560000Y-46911380D02*
X138286000Y-46911380D01*
X132778000Y-46871380D02*
X134480000Y-46871380D01*
X136560000Y-46871380D02*
X138262000Y-46871380D01*
X132804000Y-46831380D02*
X134480000Y-46831380D01*
X136560000Y-46831380D02*
X138236000Y-46831380D01*
X132830000Y-46791380D02*
X134480000Y-46791380D01*
X136560000Y-46791380D02*
X138210000Y-46791380D01*
X132856000Y-46751380D02*
X134480000Y-46751380D01*
X136560000Y-46751380D02*
X138184000Y-46751380D01*
X132884000Y-46711380D02*
X134480000Y-46711380D01*
X136560000Y-46711380D02*
X138156000Y-46711380D01*
X132913000Y-46671380D02*
X134480000Y-46671380D01*
X136560000Y-46671380D02*
X138127000Y-46671380D01*
X132942000Y-46631380D02*
X134480000Y-46631380D01*
X136560000Y-46631380D02*
X138098000Y-46631380D01*
X132972000Y-46591380D02*
X134480000Y-46591380D01*
X136560000Y-46591380D02*
X138068000Y-46591380D01*
X133004000Y-46551380D02*
X134480000Y-46551380D01*
X136560000Y-46551380D02*
X138036000Y-46551380D01*
X133036000Y-46511380D02*
X134480000Y-46511380D01*
X136560000Y-46511380D02*
X138004000Y-46511380D01*
X133070000Y-46471380D02*
X134480000Y-46471380D01*
X136560000Y-46471380D02*
X137970000Y-46471380D01*
X133104000Y-46431380D02*
X134480000Y-46431380D01*
X136560000Y-46431380D02*
X137936000Y-46431380D01*
X133140000Y-46391380D02*
X134480000Y-46391380D01*
X136560000Y-46391380D02*
X137900000Y-46391380D01*
X133177000Y-46351380D02*
X134480000Y-46351380D01*
X136560000Y-46351380D02*
X137863000Y-46351380D01*
X133215000Y-46311380D02*
X134480000Y-46311380D01*
X136560000Y-46311380D02*
X137825000Y-46311380D01*
X133255000Y-46271380D02*
X137785000Y-46271380D01*
X133296000Y-46231380D02*
X137744000Y-46231380D01*
X133338000Y-46191380D02*
X137702000Y-46191380D01*
X133383000Y-46151380D02*
X137657000Y-46151380D01*
X133428000Y-46111380D02*
X137612000Y-46111380D01*
X133476000Y-46071380D02*
X137564000Y-46071380D01*
X133525000Y-46031380D02*
X137515000Y-46031380D01*
X133576000Y-45991380D02*
X137464000Y-45991380D01*
X133630000Y-45951380D02*
X137410000Y-45951380D01*
X133686000Y-45911380D02*
X137354000Y-45911380D01*
X133744000Y-45871380D02*
X137296000Y-45871380D01*
X133806000Y-45831380D02*
X137234000Y-45831380D01*
X133870000Y-45791380D02*
X137170000Y-45791380D01*
X133939000Y-45751380D02*
X137101000Y-45751380D01*
X134011000Y-45711380D02*
X137029000Y-45711380D01*
X134088000Y-45671380D02*
X136952000Y-45671380D01*
X134170000Y-45631380D02*
X136870000Y-45631380D01*
X134258000Y-45591380D02*
X136782000Y-45591380D01*
X134355000Y-45551380D02*
X136685000Y-45551380D01*
X134461000Y-45511380D02*
X136579000Y-45511380D01*
X134580000Y-45471380D02*
X136460000Y-45471380D01*
X134718000Y-45431380D02*
X136322000Y-45431380D01*
X134887000Y-45391380D02*
X136153000Y-45391380D01*
X135118000Y-45351380D02*
X135922000Y-45351380D01*
X138790000Y-48592380D02*
G75*
G03*
X138790000Y-48592380I-3270000J0D01*
G01*
%TO.C,C9*%
X104607380Y-76451000D02*
X105237380Y-76451000D01*
X104922380Y-76136000D02*
X104922380Y-76766000D01*
X108107621Y-75060000D02*
X108107621Y-81520000D01*
X108147621Y-75060000D02*
X108147621Y-81520000D01*
X108187621Y-75060000D02*
X108187621Y-81520000D01*
X108227621Y-75062000D02*
X108227621Y-81518000D01*
X108267621Y-75063000D02*
X108267621Y-81517000D01*
X108307621Y-75066000D02*
X108307621Y-81514000D01*
X108347621Y-75068000D02*
X108347621Y-77250000D01*
X108347621Y-79330000D02*
X108347621Y-81512000D01*
X108387621Y-75072000D02*
X108387621Y-77250000D01*
X108387621Y-79330000D02*
X108387621Y-81508000D01*
X108427621Y-75075000D02*
X108427621Y-77250000D01*
X108427621Y-79330000D02*
X108427621Y-81505000D01*
X108467621Y-75079000D02*
X108467621Y-77250000D01*
X108467621Y-79330000D02*
X108467621Y-81501000D01*
X108507621Y-75084000D02*
X108507621Y-77250000D01*
X108507621Y-79330000D02*
X108507621Y-81496000D01*
X108547621Y-75089000D02*
X108547621Y-77250000D01*
X108547621Y-79330000D02*
X108547621Y-81491000D01*
X108587621Y-75095000D02*
X108587621Y-77250000D01*
X108587621Y-79330000D02*
X108587621Y-81485000D01*
X108627621Y-75101000D02*
X108627621Y-77250000D01*
X108627621Y-79330000D02*
X108627621Y-81479000D01*
X108667621Y-75108000D02*
X108667621Y-77250000D01*
X108667621Y-79330000D02*
X108667621Y-81472000D01*
X108707621Y-75115000D02*
X108707621Y-77250000D01*
X108707621Y-79330000D02*
X108707621Y-81465000D01*
X108747621Y-75123000D02*
X108747621Y-77250000D01*
X108747621Y-79330000D02*
X108747621Y-81457000D01*
X108787621Y-75131000D02*
X108787621Y-77250000D01*
X108787621Y-79330000D02*
X108787621Y-81449000D01*
X108828621Y-75140000D02*
X108828621Y-77250000D01*
X108828621Y-79330000D02*
X108828621Y-81440000D01*
X108868621Y-75149000D02*
X108868621Y-77250000D01*
X108868621Y-79330000D02*
X108868621Y-81431000D01*
X108908621Y-75159000D02*
X108908621Y-77250000D01*
X108908621Y-79330000D02*
X108908621Y-81421000D01*
X108948621Y-75169000D02*
X108948621Y-77250000D01*
X108948621Y-79330000D02*
X108948621Y-81411000D01*
X108988621Y-75180000D02*
X108988621Y-77250000D01*
X108988621Y-79330000D02*
X108988621Y-81400000D01*
X109028621Y-75192000D02*
X109028621Y-77250000D01*
X109028621Y-79330000D02*
X109028621Y-81388000D01*
X109068621Y-75204000D02*
X109068621Y-77250000D01*
X109068621Y-79330000D02*
X109068621Y-81376000D01*
X109108621Y-75216000D02*
X109108621Y-77250000D01*
X109108621Y-79330000D02*
X109108621Y-81364000D01*
X109148621Y-75229000D02*
X109148621Y-77250000D01*
X109148621Y-79330000D02*
X109148621Y-81351000D01*
X109188621Y-75243000D02*
X109188621Y-77250000D01*
X109188621Y-79330000D02*
X109188621Y-81337000D01*
X109228621Y-75257000D02*
X109228621Y-77250000D01*
X109228621Y-79330000D02*
X109228621Y-81323000D01*
X109268621Y-75272000D02*
X109268621Y-77250000D01*
X109268621Y-79330000D02*
X109268621Y-81308000D01*
X109308621Y-75288000D02*
X109308621Y-77250000D01*
X109308621Y-79330000D02*
X109308621Y-81292000D01*
X109348621Y-75304000D02*
X109348621Y-77250000D01*
X109348621Y-79330000D02*
X109348621Y-81276000D01*
X109388621Y-75320000D02*
X109388621Y-77250000D01*
X109388621Y-79330000D02*
X109388621Y-81260000D01*
X109428621Y-75338000D02*
X109428621Y-77250000D01*
X109428621Y-79330000D02*
X109428621Y-81242000D01*
X109468621Y-75356000D02*
X109468621Y-77250000D01*
X109468621Y-79330000D02*
X109468621Y-81224000D01*
X109508621Y-75374000D02*
X109508621Y-77250000D01*
X109508621Y-79330000D02*
X109508621Y-81206000D01*
X109548621Y-75394000D02*
X109548621Y-77250000D01*
X109548621Y-79330000D02*
X109548621Y-81186000D01*
X109588621Y-75414000D02*
X109588621Y-77250000D01*
X109588621Y-79330000D02*
X109588621Y-81166000D01*
X109628621Y-75434000D02*
X109628621Y-77250000D01*
X109628621Y-79330000D02*
X109628621Y-81146000D01*
X109668621Y-75456000D02*
X109668621Y-77250000D01*
X109668621Y-79330000D02*
X109668621Y-81124000D01*
X109708621Y-75478000D02*
X109708621Y-77250000D01*
X109708621Y-79330000D02*
X109708621Y-81102000D01*
X109748621Y-75500000D02*
X109748621Y-77250000D01*
X109748621Y-79330000D02*
X109748621Y-81080000D01*
X109788621Y-75524000D02*
X109788621Y-77250000D01*
X109788621Y-79330000D02*
X109788621Y-81056000D01*
X109828621Y-75548000D02*
X109828621Y-77250000D01*
X109828621Y-79330000D02*
X109828621Y-81032000D01*
X109868621Y-75574000D02*
X109868621Y-77250000D01*
X109868621Y-79330000D02*
X109868621Y-81006000D01*
X109908621Y-75600000D02*
X109908621Y-77250000D01*
X109908621Y-79330000D02*
X109908621Y-80980000D01*
X109948621Y-75626000D02*
X109948621Y-77250000D01*
X109948621Y-79330000D02*
X109948621Y-80954000D01*
X109988621Y-75654000D02*
X109988621Y-77250000D01*
X109988621Y-79330000D02*
X109988621Y-80926000D01*
X110028621Y-75683000D02*
X110028621Y-77250000D01*
X110028621Y-79330000D02*
X110028621Y-80897000D01*
X110068621Y-75712000D02*
X110068621Y-77250000D01*
X110068621Y-79330000D02*
X110068621Y-80868000D01*
X110108621Y-75742000D02*
X110108621Y-77250000D01*
X110108621Y-79330000D02*
X110108621Y-80838000D01*
X110148621Y-75774000D02*
X110148621Y-77250000D01*
X110148621Y-79330000D02*
X110148621Y-80806000D01*
X110188621Y-75806000D02*
X110188621Y-77250000D01*
X110188621Y-79330000D02*
X110188621Y-80774000D01*
X110228621Y-75840000D02*
X110228621Y-77250000D01*
X110228621Y-79330000D02*
X110228621Y-80740000D01*
X110268621Y-75874000D02*
X110268621Y-77250000D01*
X110268621Y-79330000D02*
X110268621Y-80706000D01*
X110308621Y-75910000D02*
X110308621Y-77250000D01*
X110308621Y-79330000D02*
X110308621Y-80670000D01*
X110348621Y-75947000D02*
X110348621Y-77250000D01*
X110348621Y-79330000D02*
X110348621Y-80633000D01*
X110388621Y-75985000D02*
X110388621Y-77250000D01*
X110388621Y-79330000D02*
X110388621Y-80595000D01*
X110428621Y-76025000D02*
X110428621Y-80555000D01*
X110468621Y-76066000D02*
X110468621Y-80514000D01*
X110508621Y-76108000D02*
X110508621Y-80472000D01*
X110548621Y-76153000D02*
X110548621Y-80427000D01*
X110588621Y-76198000D02*
X110588621Y-80382000D01*
X110628621Y-76246000D02*
X110628621Y-80334000D01*
X110668621Y-76295000D02*
X110668621Y-80285000D01*
X110708621Y-76346000D02*
X110708621Y-80234000D01*
X110748621Y-76400000D02*
X110748621Y-80180000D01*
X110788621Y-76456000D02*
X110788621Y-80124000D01*
X110828621Y-76514000D02*
X110828621Y-80066000D01*
X110868621Y-76576000D02*
X110868621Y-80004000D01*
X110908621Y-76640000D02*
X110908621Y-79940000D01*
X110948621Y-76709000D02*
X110948621Y-79871000D01*
X110988621Y-76781000D02*
X110988621Y-79799000D01*
X111028621Y-76858000D02*
X111028621Y-79722000D01*
X111068621Y-76940000D02*
X111068621Y-79640000D01*
X111108621Y-77028000D02*
X111108621Y-79552000D01*
X111148621Y-77125000D02*
X111148621Y-79455000D01*
X111188621Y-77231000D02*
X111188621Y-79349000D01*
X111228621Y-77350000D02*
X111228621Y-79230000D01*
X111268621Y-77488000D02*
X111268621Y-79092000D01*
X111308621Y-77657000D02*
X111308621Y-78923000D01*
X111348621Y-77888000D02*
X111348621Y-78692000D01*
X111377621Y-78290000D02*
G75*
G03*
X111377621Y-78290000I-3270000J0D01*
G01*
%TO.C,U1*%
X70850000Y-39625000D02*
X114150000Y-39625000D01*
X114150000Y-39625000D02*
X114150000Y-71375000D01*
X114150000Y-71375000D02*
X70850000Y-71375000D01*
X70850000Y-71375000D02*
X70850000Y-39625000D01*
%TO.C,U7*%
X138825000Y-84840000D02*
X164225000Y-84840000D01*
X164225000Y-84840000D02*
X164225000Y-117860000D01*
X164225000Y-117860000D02*
X138825000Y-117860000D01*
X138825000Y-117860000D02*
X138825000Y-84840000D01*
%TO.C,R7*%
X177419758Y-103722500D02*
X176945242Y-103722500D01*
X177419758Y-102677500D02*
X176945242Y-102677500D01*
%TO.C,R1*%
X132687258Y-109622500D02*
X132212742Y-109622500D01*
X132687258Y-108577500D02*
X132212742Y-108577500D01*
%TO.C,R5*%
X167669758Y-100522500D02*
X167195242Y-100522500D01*
X167669758Y-99477500D02*
X167195242Y-99477500D01*
%TO.C,C17*%
X171911252Y-113235000D02*
X171388748Y-113235000D01*
X171911252Y-111765000D02*
X171388748Y-111765000D01*
%TO.C,C6*%
X177365000Y-92946267D02*
X177365000Y-92653733D01*
X178385000Y-92946267D02*
X178385000Y-92653733D01*
%TO.C,R10*%
X132687258Y-112822500D02*
X132212742Y-112822500D01*
X132687258Y-111777500D02*
X132212742Y-111777500D01*
%TO.C,D6*%
X175397500Y-99135000D02*
X175397500Y-97665000D01*
X175397500Y-97665000D02*
X173112500Y-97665000D01*
X173112500Y-99135000D02*
X175397500Y-99135000D01*
D16*
%TO.C,U8*%
X113110000Y-108325000D02*
X113110000Y-113075000D01*
X113110000Y-113075000D02*
X127790000Y-113075000D01*
X127790000Y-108325000D02*
X113110000Y-108325000D01*
X127790000Y-113075000D02*
X127790000Y-108325000D01*
D14*
%TO.C,U4*%
X147700000Y-82925000D02*
X179450000Y-82925000D01*
X179450000Y-82925000D02*
X179450000Y-39625000D01*
X179450000Y-39625000D02*
X147700000Y-39625000D01*
X147700000Y-39625000D02*
X147700000Y-82925000D01*
%TD*%
D17*
%TO.C,J2*%
X105800000Y-107500000D03*
X105800000Y-114510000D03*
X100800000Y-107500000D03*
X100800000Y-114510000D03*
%TD*%
%TO.C,J3*%
X91330000Y-107500000D03*
X91330000Y-114510000D03*
X86330000Y-107500000D03*
X86330000Y-114510000D03*
%TD*%
D18*
%TO.C,U8*%
X114555000Y-110700000D03*
X118215000Y-110700000D03*
X122685000Y-110700000D03*
X126345000Y-110700000D03*
%TD*%
M02*
