%TF.GenerationSoftware,KiCad,Pcbnew,7.0.5*%
%TF.CreationDate,2023-07-18T15:35:35-04:00*%
%TF.ProjectId,PCBPT_Main_control_V1,50434250-545f-44d6-9169-6e5f636f6e74,rev?*%
%TF.SameCoordinates,Original*%
%TF.FileFunction,Soldermask,Bot*%
%TF.FilePolarity,Negative*%
%FSLAX46Y46*%
G04 Gerber Fmt 4.6, Leading zero omitted, Abs format (unit mm)*
G04 Created by KiCad (PCBNEW 7.0.5) date 2023-07-18 15:35:35*
%MOMM*%
%LPD*%
G01*
G04 APERTURE LIST*
G04 Aperture macros list*
%AMRoundRect*
0 Rectangle with rounded corners*
0 $1 Rounding radius*
0 $2 $3 $4 $5 $6 $7 $8 $9 X,Y pos of 4 corners*
0 Add a 4 corners polygon primitive as box body*
4,1,4,$2,$3,$4,$5,$6,$7,$8,$9,$2,$3,0*
0 Add four circle primitives for the rounded corners*
1,1,$1+$1,$2,$3*
1,1,$1+$1,$4,$5*
1,1,$1+$1,$6,$7*
1,1,$1+$1,$8,$9*
0 Add four rect primitives between the rounded corners*
20,1,$1+$1,$2,$3,$4,$5,0*
20,1,$1+$1,$4,$5,$6,$7,0*
20,1,$1+$1,$6,$7,$8,$9,0*
20,1,$1+$1,$8,$9,$2,$3,0*%
G04 Aperture macros list end*
%ADD10C,0.150000*%
%ADD11R,1.700000X1.700000*%
%ADD12O,1.700000X1.700000*%
%ADD13C,1.700000*%
%ADD14R,1.600000X1.600000*%
%ADD15C,1.600000*%
%ADD16C,2.850000*%
%ADD17C,3.200000*%
%ADD18C,2.500000*%
%ADD19RoundRect,0.237500X0.237500X-0.300000X0.237500X0.300000X-0.237500X0.300000X-0.237500X-0.300000X0*%
%ADD20RoundRect,0.237500X-0.300000X-0.237500X0.300000X-0.237500X0.300000X0.237500X-0.300000X0.237500X0*%
%ADD21RoundRect,0.237500X0.300000X0.237500X-0.300000X0.237500X-0.300000X-0.237500X0.300000X-0.237500X0*%
%ADD22RoundRect,0.237500X-0.237500X0.300000X-0.237500X-0.300000X0.237500X-0.300000X0.237500X0.300000X0*%
G04 APERTURE END LIST*
D10*
X98500000Y-105500000D02*
X119750000Y-105500000D01*
X119750000Y-116500000D01*
X98500000Y-116500000D01*
X98500000Y-105500000D01*
G36*
X98500000Y-105500000D02*
G01*
X119750000Y-105500000D01*
X119750000Y-116500000D01*
X98500000Y-116500000D01*
X98500000Y-105500000D01*
G37*
X195500000Y-75500000D02*
X188500000Y-75500000D01*
X188500000Y-56250000D01*
X187000000Y-54750000D01*
X115500000Y-54750000D01*
X107750000Y-62500000D01*
X107750000Y-95000000D01*
X109250000Y-96500000D01*
X128000000Y-96500000D01*
X130250000Y-98750000D01*
X130250000Y-116500000D01*
X121000000Y-116500000D01*
X121000000Y-104000000D01*
X100750000Y-104000000D01*
X99250000Y-102500000D01*
X99250000Y-58500000D01*
X108750000Y-49000000D01*
X187000000Y-49000000D01*
X188500000Y-47500000D01*
X188500000Y-40500000D01*
X195500000Y-40500000D01*
X195500000Y-75500000D01*
G36*
X195500000Y-75500000D02*
G01*
X188500000Y-75500000D01*
X188500000Y-56250000D01*
X187000000Y-54750000D01*
X115500000Y-54750000D01*
X107750000Y-62500000D01*
X107750000Y-95000000D01*
X109250000Y-96500000D01*
X128000000Y-96500000D01*
X130250000Y-98750000D01*
X130250000Y-116500000D01*
X121000000Y-116500000D01*
X121000000Y-104000000D01*
X100750000Y-104000000D01*
X99250000Y-102500000D01*
X99250000Y-58500000D01*
X108750000Y-49000000D01*
X187000000Y-49000000D01*
X188500000Y-47500000D01*
X188500000Y-40500000D01*
X195500000Y-40500000D01*
X195500000Y-75500000D01*
G37*
D11*
%TO.C,J8*%
X200550000Y-110250000D03*
D12*
X203090000Y-110250000D03*
X205630000Y-110250000D03*
X208170000Y-110250000D03*
%TD*%
D11*
%TO.C,J4*%
X187670000Y-110250000D03*
D12*
X190210000Y-110250000D03*
X192750000Y-110250000D03*
X195290000Y-110250000D03*
%TD*%
D13*
%TO.C,TP8*%
X178800000Y-85000000D03*
%TD*%
%TO.C,TP7*%
X178800000Y-88000000D03*
%TD*%
D11*
%TO.C,J1*%
X167550000Y-110225000D03*
D12*
X167550000Y-107685000D03*
%TD*%
D14*
%TO.C,C8*%
X122810000Y-97412380D03*
D15*
X122810000Y-94912380D03*
%TD*%
D13*
%TO.C,TP15*%
X134500000Y-94000000D03*
%TD*%
%TO.C,TP6*%
X131500000Y-85000000D03*
%TD*%
D16*
%TO.C,J2*%
X105800000Y-107500000D03*
X105800000Y-114510000D03*
X100800000Y-107500000D03*
X100800000Y-114510000D03*
%TD*%
D13*
%TO.C,TP23*%
X171000000Y-85000000D03*
%TD*%
D17*
%TO.C,H1*%
X75250000Y-112250000D03*
%TD*%
D13*
%TO.C,TP20*%
X171000000Y-88000000D03*
%TD*%
D11*
%TO.C,U2*%
X102840000Y-101715000D03*
D13*
X100300000Y-101715000D03*
X97760000Y-101715000D03*
X95220000Y-101715000D03*
X92680000Y-101715000D03*
X90140000Y-101715000D03*
X87600000Y-101715000D03*
X85060000Y-101715000D03*
%TD*%
%TO.C,TP2*%
X134500000Y-100000000D03*
%TD*%
%TO.C,TP14*%
X134500000Y-106000000D03*
%TD*%
D14*
%TO.C,C11*%
X168460000Y-49922380D03*
D15*
X168460000Y-47422380D03*
%TD*%
D13*
%TO.C,TP16*%
X125500000Y-85000000D03*
%TD*%
D17*
%TO.C,H4*%
X220250000Y-113750000D03*
%TD*%
D14*
%TO.C,C12*%
X194577621Y-50400000D03*
D15*
X197077621Y-50400000D03*
%TD*%
D11*
%TO.C,U3*%
X144640000Y-50935000D03*
D13*
X144640000Y-53475000D03*
X144640000Y-56015000D03*
X144640000Y-58555000D03*
X144640000Y-61095000D03*
X144640000Y-63635000D03*
X144640000Y-66175000D03*
X144640000Y-68715000D03*
%TD*%
D17*
%TO.C,H3*%
X219750000Y-43750000D03*
%TD*%
D13*
%TO.C,TP4*%
X134500000Y-103000000D03*
%TD*%
%TO.C,TP12*%
X134500000Y-88000000D03*
%TD*%
D11*
%TO.C,U6*%
X191720000Y-74285000D03*
D13*
X194260000Y-74285000D03*
X196800000Y-74285000D03*
X199340000Y-74285000D03*
X201880000Y-74285000D03*
X204420000Y-74285000D03*
X206960000Y-74285000D03*
X209500000Y-74285000D03*
%TD*%
%TO.C,TP11*%
X128500000Y-85000000D03*
%TD*%
%TO.C,TP18*%
X128500000Y-88000000D03*
%TD*%
D14*
%TO.C,C13*%
X189452380Y-65710000D03*
D15*
X186952380Y-65710000D03*
%TD*%
D11*
%TO.C,U5*%
X191660000Y-41785000D03*
D13*
X194200000Y-41785000D03*
X196740000Y-41785000D03*
X199280000Y-41785000D03*
X201820000Y-41785000D03*
X204360000Y-41785000D03*
X206900000Y-41785000D03*
X209440000Y-41785000D03*
%TD*%
D16*
%TO.C,J3*%
X91330000Y-107500000D03*
X91330000Y-114510000D03*
X86330000Y-107500000D03*
X86330000Y-114510000D03*
%TD*%
D14*
%TO.C,C10*%
X135520000Y-49842380D03*
D15*
X135520000Y-47342380D03*
%TD*%
D13*
%TO.C,TP17*%
X131500000Y-91000000D03*
%TD*%
D14*
%TO.C,C9*%
X106857621Y-78290000D03*
D15*
X109357621Y-78290000D03*
%TD*%
D13*
%TO.C,TP1*%
X134500000Y-85000000D03*
%TD*%
%TO.C,TP13*%
X134500000Y-97000000D03*
%TD*%
D11*
%TO.C,U1*%
X102840000Y-69215000D03*
D13*
X100300000Y-69215000D03*
X97760000Y-69215000D03*
X95220000Y-69215000D03*
X92680000Y-69215000D03*
X90140000Y-69215000D03*
X87600000Y-69215000D03*
X85060000Y-69215000D03*
%TD*%
D11*
%TO.C,U7*%
X140095000Y-92460000D03*
D13*
X140095000Y-95000000D03*
X140095000Y-97540000D03*
X140095000Y-100080000D03*
X140095000Y-102620000D03*
X140095000Y-105160000D03*
X140095000Y-107700000D03*
X140095000Y-110240000D03*
X162955000Y-110240000D03*
X162955000Y-107700000D03*
X162955000Y-105160000D03*
X162955000Y-102620000D03*
X162955000Y-100080000D03*
X162955000Y-97540000D03*
X162955000Y-95000000D03*
X162955000Y-92460000D03*
X142635000Y-92460000D03*
X142635000Y-95000000D03*
X142635000Y-97540000D03*
X142635000Y-100080000D03*
X142635000Y-102620000D03*
X142635000Y-105160000D03*
X142635000Y-107700000D03*
X142635000Y-110240000D03*
X160415000Y-110240000D03*
X160415000Y-107700000D03*
X160415000Y-105160000D03*
X160415000Y-102620000D03*
X160415000Y-100080000D03*
X160415000Y-97540000D03*
X160415000Y-95000000D03*
X160415000Y-92460000D03*
%TD*%
%TO.C,TP5*%
X131500000Y-88000000D03*
%TD*%
%TO.C,TP21*%
X168000000Y-85000000D03*
%TD*%
D17*
%TO.C,H2*%
X75750000Y-44750000D03*
%TD*%
D13*
%TO.C,TP19*%
X174000000Y-85000000D03*
%TD*%
%TO.C,TP22*%
X168000000Y-88000000D03*
%TD*%
D18*
%TO.C,U8*%
X114555000Y-110700000D03*
X118215000Y-110700000D03*
X122685000Y-110700000D03*
X126345000Y-110700000D03*
%TD*%
D11*
%TO.C,U4*%
X177290000Y-50935000D03*
D13*
X177290000Y-53475000D03*
X177290000Y-56015000D03*
X177290000Y-58555000D03*
X177290000Y-61095000D03*
X177290000Y-63635000D03*
X177290000Y-66175000D03*
X177290000Y-68715000D03*
%TD*%
%TO.C,TP3*%
X134500000Y-91000000D03*
%TD*%
D19*
%TO.C,C3*%
X140500000Y-49812500D03*
X140500000Y-48087500D03*
%TD*%
%TO.C,C1*%
X110250000Y-97262500D03*
X110250000Y-95537500D03*
%TD*%
D20*
%TO.C,C5*%
X194837500Y-45400000D03*
X196562500Y-45400000D03*
%TD*%
D21*
%TO.C,C7*%
X189362500Y-70550000D03*
X187637500Y-70550000D03*
%TD*%
D22*
%TO.C,C4*%
X172500000Y-54137500D03*
X172500000Y-55862500D03*
%TD*%
D20*
%TO.C,C2*%
X107037500Y-73250000D03*
X108762500Y-73250000D03*
%TD*%
M02*
