%TF.GenerationSoftware,KiCad,Pcbnew,7.0.5*%
%TF.CreationDate,2023-07-18T15:35:35-04:00*%
%TF.ProjectId,PCBPT_Main_control_V1,50434250-545f-44d6-9169-6e5f636f6e74,rev?*%
%TF.SameCoordinates,Original*%
%TF.FileFunction,Profile,NP*%
%FSLAX46Y46*%
G04 Gerber Fmt 4.6, Leading zero omitted, Abs format (unit mm)*
G04 Created by KiCad (PCBNEW 7.0.5) date 2023-07-18 15:35:35*
%MOMM*%
%LPD*%
G01*
G04 APERTURE LIST*
%TA.AperFunction,Profile*%
%ADD10C,0.100000*%
%TD*%
G04 APERTURE END LIST*
D10*
X187000000Y-46000000D02*
X180000000Y-46000000D01*
X216500000Y-95500000D02*
X224500000Y-95500000D01*
X123500000Y-46000000D02*
X123500000Y-38500000D01*
X224500000Y-95500000D02*
X224500000Y-81000000D01*
X78000000Y-81000000D02*
X78000000Y-62500000D01*
X180000000Y-38500000D02*
X156000000Y-38500000D01*
X180000000Y-46000000D02*
X180000000Y-38500000D01*
X224500000Y-38500000D02*
X224500000Y-62500000D01*
X147500000Y-46000000D02*
X156000000Y-46000000D01*
X78000000Y-62500000D02*
X70000000Y-62500000D01*
X216500000Y-81000000D02*
X216500000Y-62500000D01*
X224500000Y-62500000D02*
X216500000Y-62500000D01*
X70000000Y-38500000D02*
X106000000Y-38500000D01*
X70000000Y-104000000D02*
X78000000Y-104000000D01*
X70000000Y-118000000D02*
X70000000Y-104000000D01*
X224500000Y-81000000D02*
X216500000Y-81000000D01*
X70000000Y-95500000D02*
X70000000Y-81000000D01*
X224500000Y-118000000D02*
X70000000Y-118000000D01*
X70000000Y-81000000D02*
X78000000Y-81000000D01*
X187000000Y-38500000D02*
X187000000Y-46000000D01*
X106000000Y-46000000D02*
X106000000Y-38500000D01*
X156000000Y-46000000D02*
X156000000Y-38500000D01*
X187000000Y-38500000D02*
X224500000Y-38500000D01*
X106000000Y-46000000D02*
X123500000Y-46000000D01*
X78000000Y-95500000D02*
X70000000Y-95500000D01*
X224500000Y-104000000D02*
X224500000Y-118000000D01*
X78000000Y-104000000D02*
X78000000Y-95500000D01*
X70000000Y-62500000D02*
X70000000Y-38500000D01*
X123500000Y-38500000D02*
X147500000Y-38500000D01*
X224500000Y-104000000D02*
X216500000Y-104000000D01*
X147500000Y-38500000D02*
X147500000Y-46000000D01*
X139500000Y-76000000D02*
X155000000Y-76000000D01*
X155000000Y-83500000D01*
X139500000Y-83500000D01*
X139500000Y-76000000D01*
X216500000Y-104000000D02*
X216500000Y-95500000D01*
M02*
