M48
; DRILL file {KiCad 7.0.5} date Tue Jul 18 15:35:38 2023
; FORMAT={-:-/ absolute / inch / decimal}
; #@! TF.CreationDate,2023-07-18T15:35:38-04:00
; #@! TF.GenerationSoftware,Kicad,Pcbnew,7.0.5
; #@! TF.FileFunction,Plated,1,2,PTH
FMAT,2
INCH
; #@! TA.AperFunction,Plated,PTH,ViaDrill
T1C0.0150
; #@! TA.AperFunction,Plated,PTH,ViaDrill
T2C0.0250
; #@! TA.AperFunction,Plated,PTH,ComponentDrill
T3C0.0315
; #@! TA.AperFunction,Plated,PTH,ComponentDrill
T4C0.0374
; #@! TA.AperFunction,Plated,PTH,ComponentDrill
T5C0.0394
; #@! TA.AperFunction,Plated,PTH,ComponentDrill
T6C0.0650
; #@! TA.AperFunction,Plated,PTH,ComponentDrill
T7C0.0748
%
G90
G05
T1
X3.7972Y-2.4764
X6.5591Y-3.874
X6.5591Y-4.0
X6.626Y-3.7953
X6.685Y-3.874
X6.815Y-3.874
X6.8602Y-3.5787
X6.9449Y-3.874
X6.9449Y-4.0
X7.002Y-3.689
X7.2874Y-3.752
T2
X6.7987Y-4.248
T3
X4.207Y-3.0823
X4.3054Y-3.0823
X4.835Y-3.7367
X4.835Y-3.8351
X5.3354Y-1.8639
X5.3354Y-1.9623
X6.6323Y-1.867
X6.6323Y-1.9654
X7.3603Y-2.587
X7.4588Y-2.587
X7.6605Y-1.9843
X7.759Y-1.9843
T4
X5.5156Y-3.6402
X5.5156Y-3.7402
X5.5156Y-3.8402
X5.5156Y-3.9402
X5.5156Y-4.0402
X5.5156Y-4.1402
X5.5156Y-4.2402
X5.5156Y-4.3402
X5.6156Y-3.6402
X5.6156Y-3.7402
X5.6156Y-3.8402
X5.6156Y-3.9402
X5.6156Y-4.0402
X5.6156Y-4.1402
X5.6156Y-4.2402
X5.6156Y-4.3402
X6.3156Y-3.6402
X6.3156Y-3.7402
X6.3156Y-3.8402
X6.3156Y-3.9402
X6.3156Y-4.0402
X6.3156Y-4.1402
X6.3156Y-4.2402
X6.3156Y-4.3402
X6.4156Y-3.6402
X6.4156Y-3.7402
X6.4156Y-3.8402
X6.4156Y-3.9402
X6.4156Y-4.0402
X6.4156Y-4.1402
X6.4156Y-4.2402
X6.4156Y-4.3402
T5
X3.3488Y-2.725
X3.3488Y-4.0045
X3.4488Y-2.725
X3.4488Y-4.0045
X3.5488Y-2.725
X3.5488Y-4.0045
X3.6488Y-2.725
X3.6488Y-4.0045
X3.7488Y-2.725
X3.7488Y-4.0045
X3.8488Y-2.725
X3.8488Y-4.0045
X3.9488Y-2.725
X3.9488Y-4.0045
X4.0488Y-2.725
X4.0488Y-4.0045
X4.9409Y-3.3465
X5.0591Y-3.3465
X5.0591Y-3.4646
X5.1772Y-3.3465
X5.1772Y-3.4646
X5.1772Y-3.5827
X5.2953Y-3.3465
X5.2953Y-3.4646
X5.2953Y-3.5827
X5.2953Y-3.7008
X5.2953Y-3.8189
X5.2953Y-3.937
X5.2953Y-4.0551
X5.2953Y-4.1732
X5.6945Y-2.0053
X5.6945Y-2.1053
X5.6945Y-2.2053
X5.6945Y-2.3053
X5.6945Y-2.4053
X5.6945Y-2.5053
X5.6945Y-2.6053
X5.6945Y-2.7053
X6.5965Y-4.2396
X6.5965Y-4.3396
X6.6142Y-3.3465
X6.6142Y-3.4646
X6.7323Y-3.3465
X6.7323Y-3.4646
X6.8504Y-3.3465
X6.9799Y-2.0053
X6.9799Y-2.1053
X6.9799Y-2.2053
X6.9799Y-2.3053
X6.9799Y-2.4053
X6.9799Y-2.5053
X6.9799Y-2.6053
X6.9799Y-2.7053
X7.0394Y-3.3465
X7.0394Y-3.4646
X7.3886Y-4.3406
X7.4886Y-4.3406
X7.5457Y-1.6451
X7.548Y-2.9246
X7.5886Y-4.3406
X7.6457Y-1.6451
X7.648Y-2.9246
X7.6886Y-4.3406
X7.7457Y-1.6451
X7.748Y-2.9246
X7.8457Y-1.6451
X7.848Y-2.9246
X7.8957Y-4.3406
X7.9457Y-1.6451
X7.948Y-2.9246
X7.9957Y-4.3406
X8.0457Y-1.6451
X8.048Y-2.9246
X8.0957Y-4.3406
X8.1457Y-1.6451
X8.148Y-2.9246
X8.1957Y-4.3406
X8.2457Y-1.6451
X8.248Y-2.9246
T6
X4.51Y-4.3583
X4.6541Y-4.3583
X4.8301Y-4.3583
X4.9742Y-4.3583
T7
X3.3988Y-4.2323
X3.3988Y-4.5083
X3.5957Y-4.2323
X3.5957Y-4.5083
X3.9685Y-4.2323
X3.9685Y-4.5083
X4.1654Y-4.2323
X4.1654Y-4.5083
T0
M30
