%TF.GenerationSoftware,KiCad,Pcbnew,7.0.5*%
%TF.CreationDate,2023-07-18T15:35:35-04:00*%
%TF.ProjectId,PCBPT_Main_control_V1,50434250-545f-44d6-9169-6e5f636f6e74,rev?*%
%TF.SameCoordinates,Original*%
%TF.FileFunction,Soldermask,Top*%
%TF.FilePolarity,Negative*%
%FSLAX46Y46*%
G04 Gerber Fmt 4.6, Leading zero omitted, Abs format (unit mm)*
G04 Created by KiCad (PCBNEW 7.0.5) date 2023-07-18 15:35:35*
%MOMM*%
%LPD*%
G01*
G04 APERTURE LIST*
G04 Aperture macros list*
%AMRoundRect*
0 Rectangle with rounded corners*
0 $1 Rounding radius*
0 $2 $3 $4 $5 $6 $7 $8 $9 X,Y pos of 4 corners*
0 Add a 4 corners polygon primitive as box body*
4,1,4,$2,$3,$4,$5,$6,$7,$8,$9,$2,$3,0*
0 Add four circle primitives for the rounded corners*
1,1,$1+$1,$2,$3*
1,1,$1+$1,$4,$5*
1,1,$1+$1,$6,$7*
1,1,$1+$1,$8,$9*
0 Add four rect primitives between the rounded corners*
20,1,$1+$1,$2,$3,$4,$5,0*
20,1,$1+$1,$4,$5,$6,$7,0*
20,1,$1+$1,$6,$7,$8,$9,0*
20,1,$1+$1,$8,$9,$2,$3,0*%
G04 Aperture macros list end*
%ADD10R,1.700000X1.700000*%
%ADD11O,1.700000X1.700000*%
%ADD12C,1.700000*%
%ADD13RoundRect,0.200000X0.200000X0.275000X-0.200000X0.275000X-0.200000X-0.275000X0.200000X-0.275000X0*%
%ADD14R,1.600000X1.600000*%
%ADD15C,1.600000*%
%ADD16RoundRect,0.250000X0.337500X0.475000X-0.337500X0.475000X-0.337500X-0.475000X0.337500X-0.475000X0*%
%ADD17C,2.850000*%
%ADD18C,3.200000*%
%ADD19R,1.750000X0.950000*%
%ADD20R,1.750000X3.200000*%
%ADD21RoundRect,0.200000X-0.200000X-0.275000X0.200000X-0.275000X0.200000X0.275000X-0.200000X0.275000X0*%
%ADD22RoundRect,0.218750X0.218750X0.256250X-0.218750X0.256250X-0.218750X-0.256250X0.218750X-0.256250X0*%
%ADD23RoundRect,0.237500X-0.287500X-0.237500X0.287500X-0.237500X0.287500X0.237500X-0.287500X0.237500X0*%
%ADD24R,1.200000X0.400000*%
%ADD25RoundRect,0.237500X0.237500X-0.300000X0.237500X0.300000X-0.237500X0.300000X-0.237500X-0.300000X0*%
%ADD26C,2.500000*%
G04 APERTURE END LIST*
D10*
%TO.C,J8*%
X200550000Y-110250000D03*
D11*
X203090000Y-110250000D03*
X205630000Y-110250000D03*
X208170000Y-110250000D03*
%TD*%
D10*
%TO.C,J4*%
X187670000Y-110250000D03*
D11*
X190210000Y-110250000D03*
X192750000Y-110250000D03*
X195290000Y-110250000D03*
%TD*%
D12*
%TO.C,TP8*%
X178800000Y-85000000D03*
%TD*%
%TO.C,TP7*%
X178800000Y-88000000D03*
%TD*%
D10*
%TO.C,J1*%
X167550000Y-110225000D03*
D11*
X167550000Y-107685000D03*
%TD*%
D13*
%TO.C,R3*%
X171470000Y-100000000D03*
X169820000Y-100000000D03*
%TD*%
D14*
%TO.C,C8*%
X122810000Y-97412380D03*
D15*
X122810000Y-94912380D03*
%TD*%
D12*
%TO.C,TP15*%
X134500000Y-94000000D03*
%TD*%
%TO.C,TP6*%
X131500000Y-85000000D03*
%TD*%
D16*
%TO.C,C16*%
X172687500Y-114600000D03*
X170612500Y-114600000D03*
%TD*%
D17*
%TO.C,J2*%
X105800000Y-107500000D03*
X105800000Y-114510000D03*
X100800000Y-107500000D03*
X100800000Y-114510000D03*
%TD*%
D13*
%TO.C,R2*%
X168257500Y-103200000D03*
X166607500Y-103200000D03*
%TD*%
D12*
%TO.C,TP23*%
X171000000Y-85000000D03*
%TD*%
D18*
%TO.C,H1*%
X75250000Y-112250000D03*
%TD*%
D12*
%TO.C,TP20*%
X171000000Y-88000000D03*
%TD*%
D16*
%TO.C,C15*%
X172687500Y-107900000D03*
X170612500Y-107900000D03*
%TD*%
D19*
%TO.C,IC1*%
X174900000Y-107900000D03*
X174900000Y-110200000D03*
X174900000Y-112500000D03*
D20*
X181200000Y-110200000D03*
%TD*%
D10*
%TO.C,U2*%
X102840000Y-101715000D03*
D12*
X100300000Y-101715000D03*
X97760000Y-101715000D03*
X95220000Y-101715000D03*
X92680000Y-101715000D03*
X90140000Y-101715000D03*
X87600000Y-101715000D03*
X85060000Y-101715000D03*
%TD*%
%TO.C,TP2*%
X134500000Y-100000000D03*
%TD*%
%TO.C,TP14*%
X134500000Y-106000000D03*
%TD*%
D14*
%TO.C,C11*%
X168460000Y-49922380D03*
D15*
X168460000Y-47422380D03*
%TD*%
D12*
%TO.C,TP16*%
X125500000Y-85000000D03*
%TD*%
D18*
%TO.C,H4*%
X220250000Y-113750000D03*
%TD*%
D13*
%TO.C,R4*%
X178007500Y-100000000D03*
X176357500Y-100000000D03*
%TD*%
D21*
%TO.C,R9*%
X174250000Y-90900000D03*
X175900000Y-90900000D03*
%TD*%
D14*
%TO.C,C12*%
X194577621Y-50400000D03*
D15*
X197077621Y-50400000D03*
%TD*%
D22*
%TO.C,D3*%
X171412500Y-98400000D03*
X169837500Y-98400000D03*
%TD*%
D23*
%TO.C,D8*%
X171005000Y-110200000D03*
X172755000Y-110200000D03*
%TD*%
D10*
%TO.C,U3*%
X144640000Y-50935000D03*
D12*
X144640000Y-53475000D03*
X144640000Y-56015000D03*
X144640000Y-58555000D03*
X144640000Y-61095000D03*
X144640000Y-63635000D03*
X144640000Y-66175000D03*
X144640000Y-68715000D03*
%TD*%
D22*
%TO.C,D2*%
X168200000Y-101600000D03*
X166625000Y-101600000D03*
%TD*%
D18*
%TO.C,H3*%
X219750000Y-43750000D03*
%TD*%
D12*
%TO.C,TP4*%
X134500000Y-103000000D03*
%TD*%
%TO.C,TP12*%
X134500000Y-88000000D03*
%TD*%
D10*
%TO.C,U6*%
X191720000Y-74285000D03*
D12*
X194260000Y-74285000D03*
X196800000Y-74285000D03*
X199340000Y-74285000D03*
X201880000Y-74285000D03*
X204420000Y-74285000D03*
X206960000Y-74285000D03*
X209500000Y-74285000D03*
%TD*%
D22*
%TO.C,D4*%
X177950000Y-98400000D03*
X176375000Y-98400000D03*
%TD*%
D21*
%TO.C,R8*%
X174250000Y-95300000D03*
X175900000Y-95300000D03*
%TD*%
D22*
%TO.C,D1*%
X133217500Y-110700000D03*
X131642500Y-110700000D03*
%TD*%
D12*
%TO.C,TP11*%
X128500000Y-85000000D03*
%TD*%
D22*
%TO.C,D7*%
X177950000Y-101600000D03*
X176375000Y-101600000D03*
%TD*%
D13*
%TO.C,R6*%
X174757500Y-100000000D03*
X173107500Y-100000000D03*
%TD*%
D24*
%TO.C,IC2*%
X176175000Y-93750000D03*
X176175000Y-93100000D03*
X176175000Y-92450000D03*
X174275000Y-92450000D03*
X174275000Y-93100000D03*
X174275000Y-93750000D03*
%TD*%
D12*
%TO.C,TP18*%
X128500000Y-88000000D03*
%TD*%
D14*
%TO.C,C13*%
X189452380Y-65710000D03*
D15*
X186952380Y-65710000D03*
%TD*%
D10*
%TO.C,U5*%
X191660000Y-41785000D03*
D12*
X194200000Y-41785000D03*
X196740000Y-41785000D03*
X199280000Y-41785000D03*
X201820000Y-41785000D03*
X204360000Y-41785000D03*
X206900000Y-41785000D03*
X209440000Y-41785000D03*
%TD*%
D22*
%TO.C,D5*%
X168200000Y-98400000D03*
X166625000Y-98400000D03*
%TD*%
D17*
%TO.C,J3*%
X91330000Y-107500000D03*
X91330000Y-114510000D03*
X86330000Y-107500000D03*
X86330000Y-114510000D03*
%TD*%
D14*
%TO.C,C10*%
X135520000Y-49842380D03*
D15*
X135520000Y-47342380D03*
%TD*%
D12*
%TO.C,TP17*%
X131500000Y-91000000D03*
%TD*%
D14*
%TO.C,C9*%
X106857621Y-78290000D03*
D15*
X109357621Y-78290000D03*
%TD*%
D12*
%TO.C,TP1*%
X134500000Y-85000000D03*
%TD*%
%TO.C,TP13*%
X134500000Y-97000000D03*
%TD*%
D10*
%TO.C,U1*%
X102840000Y-69215000D03*
D12*
X100300000Y-69215000D03*
X97760000Y-69215000D03*
X95220000Y-69215000D03*
X92680000Y-69215000D03*
X90140000Y-69215000D03*
X87600000Y-69215000D03*
X85060000Y-69215000D03*
%TD*%
D10*
%TO.C,U7*%
X140095000Y-92460000D03*
D12*
X140095000Y-95000000D03*
X140095000Y-97540000D03*
X140095000Y-100080000D03*
X140095000Y-102620000D03*
X140095000Y-105160000D03*
X140095000Y-107700000D03*
X140095000Y-110240000D03*
X162955000Y-110240000D03*
X162955000Y-107700000D03*
X162955000Y-105160000D03*
X162955000Y-102620000D03*
X162955000Y-100080000D03*
X162955000Y-97540000D03*
X162955000Y-95000000D03*
X162955000Y-92460000D03*
X142635000Y-92460000D03*
X142635000Y-95000000D03*
X142635000Y-97540000D03*
X142635000Y-100080000D03*
X142635000Y-102620000D03*
X142635000Y-105160000D03*
X142635000Y-107700000D03*
X142635000Y-110240000D03*
X160415000Y-110240000D03*
X160415000Y-107700000D03*
X160415000Y-105160000D03*
X160415000Y-102620000D03*
X160415000Y-100080000D03*
X160415000Y-97540000D03*
X160415000Y-95000000D03*
X160415000Y-92460000D03*
%TD*%
%TO.C,TP5*%
X131500000Y-88000000D03*
%TD*%
%TO.C,TP21*%
X168000000Y-85000000D03*
%TD*%
D13*
%TO.C,R7*%
X178007500Y-103200000D03*
X176357500Y-103200000D03*
%TD*%
D18*
%TO.C,H2*%
X75750000Y-44750000D03*
%TD*%
D13*
%TO.C,R1*%
X133275000Y-109100000D03*
X131625000Y-109100000D03*
%TD*%
%TO.C,R5*%
X168257500Y-100000000D03*
X166607500Y-100000000D03*
%TD*%
D12*
%TO.C,TP19*%
X174000000Y-85000000D03*
%TD*%
%TO.C,TP22*%
X168000000Y-88000000D03*
%TD*%
D16*
%TO.C,C17*%
X172687500Y-112500000D03*
X170612500Y-112500000D03*
%TD*%
D25*
%TO.C,C6*%
X177875000Y-93662500D03*
X177875000Y-91937500D03*
%TD*%
D13*
%TO.C,R10*%
X133275000Y-112300000D03*
X131625000Y-112300000D03*
%TD*%
D22*
%TO.C,D6*%
X174700000Y-98400000D03*
X173125000Y-98400000D03*
%TD*%
D26*
%TO.C,U8*%
X114555000Y-110700000D03*
X118215000Y-110700000D03*
X122685000Y-110700000D03*
X126345000Y-110700000D03*
%TD*%
D10*
%TO.C,U4*%
X177290000Y-50935000D03*
D12*
X177290000Y-53475000D03*
X177290000Y-56015000D03*
X177290000Y-58555000D03*
X177290000Y-61095000D03*
X177290000Y-63635000D03*
X177290000Y-66175000D03*
X177290000Y-68715000D03*
%TD*%
%TO.C,TP3*%
X134500000Y-91000000D03*
%TD*%
M02*
