%TF.GenerationSoftware,KiCad,Pcbnew,7.0.5*%
%TF.CreationDate,2023-07-11T15:30:59-04:00*%
%TF.ProjectId,StepperMotor_module_V2_XIAO_RP2040,53746570-7065-4724-9d6f-746f725f6d6f,rev?*%
%TF.SameCoordinates,Original*%
%TF.FileFunction,Legend,Top*%
%TF.FilePolarity,Positive*%
%FSLAX46Y46*%
G04 Gerber Fmt 4.6, Leading zero omitted, Abs format (unit mm)*
G04 Created by KiCad (PCBNEW 7.0.5) date 2023-07-11 15:30:59*
%MOMM*%
%LPD*%
G01*
G04 APERTURE LIST*
%ADD10C,0.200000*%
%ADD11C,0.120000*%
%ADD12C,0.127000*%
G04 APERTURE END LIST*
D10*
X153603006Y-59796457D02*
X153545863Y-59853600D01*
X153545863Y-59853600D02*
X153374435Y-59910742D01*
X153374435Y-59910742D02*
X153260149Y-59910742D01*
X153260149Y-59910742D02*
X153088720Y-59853600D01*
X153088720Y-59853600D02*
X152974435Y-59739314D01*
X152974435Y-59739314D02*
X152917292Y-59625028D01*
X152917292Y-59625028D02*
X152860149Y-59396457D01*
X152860149Y-59396457D02*
X152860149Y-59225028D01*
X152860149Y-59225028D02*
X152917292Y-58996457D01*
X152917292Y-58996457D02*
X152974435Y-58882171D01*
X152974435Y-58882171D02*
X153088720Y-58767885D01*
X153088720Y-58767885D02*
X153260149Y-58710742D01*
X153260149Y-58710742D02*
X153374435Y-58710742D01*
X153374435Y-58710742D02*
X153545863Y-58767885D01*
X153545863Y-58767885D02*
X153603006Y-58825028D01*
X154288720Y-59910742D02*
X154174435Y-59853600D01*
X154174435Y-59853600D02*
X154117292Y-59796457D01*
X154117292Y-59796457D02*
X154060149Y-59682171D01*
X154060149Y-59682171D02*
X154060149Y-59339314D01*
X154060149Y-59339314D02*
X154117292Y-59225028D01*
X154117292Y-59225028D02*
X154174435Y-59167885D01*
X154174435Y-59167885D02*
X154288720Y-59110742D01*
X154288720Y-59110742D02*
X154460149Y-59110742D01*
X154460149Y-59110742D02*
X154574435Y-59167885D01*
X154574435Y-59167885D02*
X154631578Y-59225028D01*
X154631578Y-59225028D02*
X154688720Y-59339314D01*
X154688720Y-59339314D02*
X154688720Y-59682171D01*
X154688720Y-59682171D02*
X154631578Y-59796457D01*
X154631578Y-59796457D02*
X154574435Y-59853600D01*
X154574435Y-59853600D02*
X154460149Y-59910742D01*
X154460149Y-59910742D02*
X154288720Y-59910742D01*
X155203006Y-59910742D02*
X155203006Y-59110742D01*
X155203006Y-59339314D02*
X155260149Y-59225028D01*
X155260149Y-59225028D02*
X155317292Y-59167885D01*
X155317292Y-59167885D02*
X155431577Y-59110742D01*
X155431577Y-59110742D02*
X155545863Y-59110742D01*
X156460149Y-59910742D02*
X156460149Y-59282171D01*
X156460149Y-59282171D02*
X156403006Y-59167885D01*
X156403006Y-59167885D02*
X156288720Y-59110742D01*
X156288720Y-59110742D02*
X156060149Y-59110742D01*
X156060149Y-59110742D02*
X155945863Y-59167885D01*
X156460149Y-59853600D02*
X156345863Y-59910742D01*
X156345863Y-59910742D02*
X156060149Y-59910742D01*
X156060149Y-59910742D02*
X155945863Y-59853600D01*
X155945863Y-59853600D02*
X155888720Y-59739314D01*
X155888720Y-59739314D02*
X155888720Y-59625028D01*
X155888720Y-59625028D02*
X155945863Y-59510742D01*
X155945863Y-59510742D02*
X156060149Y-59453600D01*
X156060149Y-59453600D02*
X156345863Y-59453600D01*
X156345863Y-59453600D02*
X156460149Y-59396457D01*
X157203005Y-59910742D02*
X157088720Y-59853600D01*
X157088720Y-59853600D02*
X157031577Y-59739314D01*
X157031577Y-59739314D02*
X157031577Y-58710742D01*
X157374434Y-60025028D02*
X158288719Y-60025028D01*
X158460148Y-59110742D02*
X158745862Y-59910742D01*
X158745862Y-59910742D02*
X159031577Y-59110742D01*
X159431577Y-58825028D02*
X159488720Y-58767885D01*
X159488720Y-58767885D02*
X159603006Y-58710742D01*
X159603006Y-58710742D02*
X159888720Y-58710742D01*
X159888720Y-58710742D02*
X160003006Y-58767885D01*
X160003006Y-58767885D02*
X160060148Y-58825028D01*
X160060148Y-58825028D02*
X160117291Y-58939314D01*
X160117291Y-58939314D02*
X160117291Y-59053600D01*
X160117291Y-59053600D02*
X160060148Y-59225028D01*
X160060148Y-59225028D02*
X159374434Y-59910742D01*
X159374434Y-59910742D02*
X160117291Y-59910742D01*
X152803006Y-60642742D02*
X153603006Y-61842742D01*
X153603006Y-60642742D02*
X152803006Y-61842742D01*
X154060149Y-61842742D02*
X154060149Y-60642742D01*
X154574435Y-61499885D02*
X155145864Y-61499885D01*
X154460149Y-61842742D02*
X154860149Y-60642742D01*
X154860149Y-60642742D02*
X155260149Y-61842742D01*
X155888720Y-60642742D02*
X156117292Y-60642742D01*
X156117292Y-60642742D02*
X156231577Y-60699885D01*
X156231577Y-60699885D02*
X156345863Y-60814171D01*
X156345863Y-60814171D02*
X156403006Y-61042742D01*
X156403006Y-61042742D02*
X156403006Y-61442742D01*
X156403006Y-61442742D02*
X156345863Y-61671314D01*
X156345863Y-61671314D02*
X156231577Y-61785600D01*
X156231577Y-61785600D02*
X156117292Y-61842742D01*
X156117292Y-61842742D02*
X155888720Y-61842742D01*
X155888720Y-61842742D02*
X155774435Y-61785600D01*
X155774435Y-61785600D02*
X155660149Y-61671314D01*
X155660149Y-61671314D02*
X155603006Y-61442742D01*
X155603006Y-61442742D02*
X155603006Y-61042742D01*
X155603006Y-61042742D02*
X155660149Y-60814171D01*
X155660149Y-60814171D02*
X155774435Y-60699885D01*
X155774435Y-60699885D02*
X155888720Y-60642742D01*
D11*
%TO.C,J1*%
X152510000Y-86170000D02*
X152510000Y-88830000D01*
X134670000Y-86170000D02*
X134670000Y-88830000D01*
X152510000Y-86170000D02*
X134670000Y-86170000D01*
X153780000Y-86170000D02*
X155110000Y-86170000D01*
X152510000Y-88830000D02*
X134670000Y-88830000D01*
X155110000Y-86170000D02*
X155110000Y-87500000D01*
%TO.C,R11*%
X141054724Y-63272500D02*
X140545276Y-63272500D01*
X141054724Y-62227500D02*
X140545276Y-62227500D01*
%TO.C,J3*%
X143930000Y-61230000D02*
X143930000Y-59900000D01*
X145260000Y-61230000D02*
X143930000Y-61230000D01*
X146530000Y-61230000D02*
X151670000Y-61230000D01*
X146530000Y-61230000D02*
X146530000Y-58570000D01*
X151670000Y-61230000D02*
X151670000Y-58570000D01*
X146530000Y-58570000D02*
X151670000Y-58570000D01*
D12*
%TO.C,U1*%
X143519250Y-82960500D02*
X143519250Y-65160500D01*
X122519250Y-82288959D02*
X123190750Y-82960500D01*
X128447250Y-78564500D02*
X121094250Y-78564500D01*
X121095250Y-78560500D02*
X121095250Y-69565500D01*
X121095250Y-69565500D02*
X128447250Y-69565500D01*
X128447250Y-69565500D02*
X128447250Y-78564500D01*
X122519250Y-65160500D02*
X122519250Y-82288959D01*
D11*
%TO.C,R1*%
X150145276Y-63677500D02*
X150654724Y-63677500D01*
X150145276Y-64722500D02*
X150654724Y-64722500D01*
%TO.C,R12*%
X137161942Y-62227500D02*
X137671390Y-62227500D01*
X137161942Y-63272500D02*
X137671390Y-63272500D01*
%TO.C,J7*%
X136010000Y-61230000D02*
X136010000Y-59900000D01*
X137340000Y-61230000D02*
X136010000Y-61230000D01*
X138610000Y-61230000D02*
X141210000Y-61230000D01*
X138610000Y-61230000D02*
X138610000Y-58570000D01*
X141210000Y-61230000D02*
X141210000Y-58570000D01*
X138610000Y-58570000D02*
X141210000Y-58570000D01*
%TO.C,R4*%
X150145276Y-71327500D02*
X150654724Y-71327500D01*
X150145276Y-72372500D02*
X150654724Y-72372500D01*
%TO.C,D1*%
X160831667Y-82885000D02*
X162301667Y-82885000D01*
X162301667Y-82885000D02*
X162301667Y-80600000D01*
X160831667Y-80600000D02*
X160831667Y-82885000D01*
%TO.C,A1*%
X159900000Y-83400000D02*
X159900000Y-82000000D01*
X159900000Y-80730000D02*
X159900000Y-62820000D01*
X159900000Y-62820000D02*
X144400000Y-62820000D01*
X158500000Y-83400000D02*
X159900000Y-83400000D01*
X157230000Y-83400000D02*
X157230000Y-80730000D01*
X157230000Y-80730000D02*
X159900000Y-80730000D01*
X157230000Y-80730000D02*
X157230000Y-62820000D01*
X147070000Y-83400000D02*
X147070000Y-62820000D01*
X144400000Y-83400000D02*
X157230000Y-83400000D01*
X144400000Y-62820000D02*
X144400000Y-83400000D01*
%TO.C,D2*%
X128990000Y-62015000D02*
X128990000Y-63485000D01*
X128990000Y-63485000D02*
X131450000Y-63485000D01*
X131450000Y-62015000D02*
X128990000Y-62015000D01*
%TO.C,J6*%
X135030000Y-58570000D02*
X135030000Y-59900000D01*
X133700000Y-58570000D02*
X135030000Y-58570000D01*
X132430000Y-58570000D02*
X129830000Y-58570000D01*
X132430000Y-58570000D02*
X132430000Y-61230000D01*
X129830000Y-58570000D02*
X129830000Y-61230000D01*
X132430000Y-61230000D02*
X129830000Y-61230000D01*
%TO.C,R10*%
X157377258Y-86439166D02*
X156902742Y-86439166D01*
X157377258Y-85394166D02*
X156902742Y-85394166D01*
%TO.C,R8*%
X162627500Y-81677258D02*
X162627500Y-81202742D01*
X163672500Y-81677258D02*
X163672500Y-81202742D01*
%TO.C,D4*%
X158585000Y-88235000D02*
X158585000Y-86765000D01*
X158585000Y-86765000D02*
X156300000Y-86765000D01*
X156300000Y-88235000D02*
X158585000Y-88235000D01*
%TO.C,C2*%
X134179600Y-63260000D02*
X133887066Y-63260000D01*
X134179600Y-62240000D02*
X133887066Y-62240000D01*
%TO.C,R3*%
X150145276Y-68777500D02*
X150654724Y-68777500D01*
X150145276Y-69822500D02*
X150654724Y-69822500D01*
%TO.C,J4*%
X164320000Y-78250000D02*
X162990000Y-78250000D01*
X164320000Y-76920000D02*
X164320000Y-78250000D01*
X164320000Y-75650000D02*
X164320000Y-67970000D01*
X164320000Y-75650000D02*
X161660000Y-75650000D01*
X164320000Y-67970000D02*
X161660000Y-67970000D01*
X161660000Y-75650000D02*
X161660000Y-67970000D01*
%TO.C,R2*%
X150145276Y-66227500D02*
X150654724Y-66227500D01*
X150145276Y-67272500D02*
X150654724Y-67272500D01*
%TD*%
M02*
